<svg xmlns="http://www.w3.org/2000/svg" viewBox="0 0 36 36"><path fill="#eee" d="M31.992 5.008H4.008a4 4 0 0 0-4 4V27a4 4 0 0 0 4 4h27.984a4 4 0 0 0 4-4V9.005a4 4 0 0 0-4-3.997"/><path fill="#ce1124" d="M21 15V5.008H4.008a4 4 0 0 0-4 4V21H15v9.994h6V21h14.989v-6z"/><path fill="#fcd41c" fill-rule="evenodd" d="m13.443 9.636-.038-.266a.3.3 0 0 1 .1.008 1 1 0 0 1 .129.069.45.45 0 0 0-.063-.186.7.7 0 0 0-.2-.131.5.5 0 0 1 .088-.044 1 1 0 0 1 .155-.015 1 1 0 0 0-.13-.125.54.54 0 0 0-.261-.031 1 1 0 0 1 .094-.08.35.35 0 0 1 .147-.024.5.5 0 0 0-.146-.11 1 1 0 0 0-.236-.024.4.4 0 0 1 .079-.083 1 1 0 0 1 .17-.066 1.3 1.3 0 0 0-.187-.079c-.043-.011-.131 0-.207-.009a.22.22 0 0 1-.119-.068c.025-.133-.022-.2-.09-.224a.3.3 0 0 0-.142 0 .36.36 0 0 0-.15.107s-.371-.015-.589 0c-.156.011-.379.108-.528.065-.109-.031-.155-.167-.244-.231l-.242-.173a6.5 6.5 0 0 0 1.83-.1c.32-.1.692-.26.7-.593s-.2-.616-.826-.61a4 4 0 0 0-1.044.129c-.268.06-1.082.309-1.436.377s-.773.177-1.131.235a2.7 2.7 0 0 1-.99 0 .5.5 0 0 1-.317-.163.13.13 0 0 1 0-.146c.084-.118.278-.137.431-.168.07-.014.241.107.339.138a1.2 1.2 0 0 0 .429.048.85.85 0 0 0 .355-.087.52.52 0 0 1 .408-.1c.061.021.035.18.035.18.2-.083.274-.2.112-.364a3.4 3.4 0 0 0 .446.08 1.7 1.7 0 0 0 .734-.108.6.6 0 0 0 .431-.543l-.158.157a1.1 1.1 0 0 1-.49.166s.039-.13 0-.186a.27.27 0 0 0-.211-.134c.1.112.029.164-.014.212a.58.58 0 0 1-.4.078 4 4 0 0 0-1.12-.028 9 9 0 0 0-1.023.214 1.2 1.2 0 0 0-.59.312.36.36 0 0 0-.1.321c.051.158.136.223.323.289a2.86 2.86 0 0 0 1.355.072c.335-.046.808-.149 1.118-.217.44-.095 1.2-.3 1.413-.35a.7.7 0 0 0 .094.251.6.6 0 0 0 .261.132c-.022-.085-.062-.119-.061-.2a.28.28 0 0 1 .084-.182.8.8 0 0 0 .116.246.5.5 0 0 0 .28.1.27.27 0 0 1-.081-.188.23.23 0 0 1 .059-.175.7.7 0 0 0 .167.25.47.47 0 0 0 .259.029.3.3 0 0 1-.133-.1.16.16 0 0 1-.04-.129c.008-.071.113-.13.2-.149A.37.37 0 0 1 13.01 7a.225.225 0 0 1 .068.291c-.223.365-.954.356-1.362.388a6 6 0 0 1-.768-.009c-.341-.01-.654-.09-1.017-.1a5 5 0 0 0-.721.045c-.474.057-2.674.256-2.674.256l-.6.054a11 11 0 0 0-1.165-.09 2 2 0 0 1-.373 0v.352l-.009.009s-.265-.162-.406-.232c-.264-.132-.817-.351-.817-.351s-.148-.149-.153-.257.054-.157.067-.227a.2.2 0 0 0-.037-.135.18.18 0 0 0-.227-.025.6.6 0 0 0-.138.146c-.137-.166-.246-.149-.35-.067a.23.23 0 0 0-.024.385c-.243.034-.249.2-.21.3a.28.28 0 0 0 .214.154c.109.01.24-.081.352.038l.092.1a.54.54 0 0 1-.26.155 1.4 1.4 0 0 0 .324.1 1 1 0 0 0 .267-.051.35.35 0 0 1-.226.179 1 1 0 0 0 .254.081 1.2 1.2 0 0 0 .271-.048c-.043.1-.136.125-.215.17a1.5 1.5 0 0 0 .286.08 1.3 1.3 0 0 0 .3-.034.5.5 0 0 1-.229.176.9.9 0 0 0 .283.063 1.2 1.2 0 0 0 .3-.1 2 2 0 0 0 .151.115c-.142.03-.345.075-.442.108a6 6 0 0 0-.722.343.75.75 0 0 1-.324-.052c-.085-.056-.1-.133-.153-.185a.27.27 0 0 0-.141-.057.166.166 0 0 0-.172.141.5.5 0 0 0 .022.16c-.235-.008-.278.1-.275.222s.127.265.359.235c-.13.188-.028.311.084.344a.33.33 0 0 0 .274-.053c.08-.067.088-.213.265-.217h.146a.42.42 0 0 1-.038.273 1.4 1.4 0 0 0 .3-.161.8.8 0 0 0 .14-.212.28.28 0 0 1 .007.264 1 1 0 0 0 .237-.124 1 1 0 0 0 .137-.215c.06.091.019.169.006.251a1.4 1.4 0 0 0 .258-.147A1 1 0 0 0 4.4 9.6a.36.36 0 0 1 0 .264.8.8 0 0 0 .24-.164 1 1 0 0 0 .111-.266.9.9 0 0 0 .3-.06.6.6 0 0 0 .157-.209 5.5 5.5 0 0 0 .746-.1c.48-.125 1.782-.625 2.565-.876.113.081.2.167.191.215s-.085.069-.12.116 0 .088.023.122.125.057.154.1.039.078.01.117c-.058.079-.256.116-.352.16-.175.079-.469.251-.469.251a.7.7 0 0 1-.269-.038c-.083-.021-.186-.124-.273-.122a.24.24 0 0 0-.2.123.2.2 0 0 0 .051.173l.16.1a.5.5 0 0 0-.1.176.18.18 0 0 0 .064.139.2.2 0 0 0 .15.085A1 1 0 0 0 7.7 9.9a.244.244 0 0 0 .275.253.16.16 0 0 0 .145-.081c.032-.046.022-.163.075-.212l.214-.2c.1.053.1.137.086.223a.8.8 0 0 0 .179-.153.7.7 0 0 0 .055-.219.24.24 0 0 1 .106.24 1 1 0 0 0 .187-.151 1 1 0 0 0 .091-.221.25.25 0 0 1 .061.256.7.7 0 0 0 .2-.193.8.8 0 0 0 .05-.185c.2.009.318-.076.325-.162 0-.066-.075-.155-.232-.177a1 1 0 0 1-.083-.145.2.2 0 0 1 0-.134.56.56 0 0 1 .179-.222c.016-.013.041-.027.062-.041l.009.029a.22.22 0 0 0 .112.127.2.2 0 0 0 .166-.025 1.36 1.36 0 0 0 .863.488 3.2 3.2 0 0 0 .762-.018 8 8 0 0 0 .543-.142 3 3 0 0 0 .208.24 5 5 0 0 0 .454.337.6.6 0 0 1-.183.158c-.074.033-.22.04-.271.1a.18.18 0 0 0-.019.206.26.26 0 0 0 .178.079l.186-.037a.5.5 0 0 0 .086.178.23.23 0 0 0 .158.048c.079 0 .105.006.164-.041a.6.6 0 0 0 .087-.118.4.4 0 0 0 .128.064.27.27 0 0 0 .256-.078.12.12 0 0 0 .021-.145c-.026-.055-.13-.126-.14-.19"/><path fill="#806600" d="m13.614 9.475.066.042-.009-.078a.44.44 0 0 0-.072-.206.5.5 0 0 0-.144-.108l.017-.007a1 1 0 0 1 .145-.013h.083l-.053-.062a1 1 0 0 0-.136-.13.34.34 0 0 0-.181-.042l.011-.007a.3.3 0 0 1 .127-.019h.085l-.053-.062a.5.5 0 0 0-.161-.12.7.7 0 0 0-.17-.025l.018-.015a1 1 0 0 1 .163-.063l.087-.026-.081-.042a1.3 1.3 0 0 0-.2-.082.4.4 0 0 0-.1-.005 1 1 0 0 1-.114 0 .2.2 0 0 1-.085-.045c.027-.185-.083-.235-.118-.246a.35.35 0 0 0-.165 0 .4.4 0 0 0-.154.105c-.074 0-.383-.012-.577 0a1.3 1.3 0 0 0-.2.036.7.7 0 0 1-.32.031.3.3 0 0 1-.13-.116.5.5 0 0 0-.1-.11l-.146-.1.23.006a4.9 4.9 0 0 0 1.493-.111c.334-.1.718-.271.73-.627a.57.57 0 0 0-.154-.427.94.94 0 0 0-.709-.221 4.2 4.2 0 0 0-1.052.129c-.11.025-.305.079-.531.142-.326.092-.7.195-.9.235-.15.029-.315.065-.473.1-.222.049-.451.1-.657.134a2.7 2.7 0 0 1-.977 0 .46.46 0 0 1-.293-.147.1.1 0 0 1 0-.1A.55.55 0 0 1 8 6.924l.064-.012a.5.5 0 0 1 .179.071 1 1 0 0 0 .142.065 1.2 1.2 0 0 0 .44.05.9.9 0 0 0 .375-.092.5.5 0 0 1 .378-.1.2.2 0 0 1 .01.139l-.01.066.062-.026c.13-.055.2-.124.219-.2a.2.2 0 0 0-.027-.135 2.5 2.5 0 0 0 .349.057 1.7 1.7 0 0 0 .751-.11.64.64 0 0 0 .453-.574l.008-.1-.229.228a1 1 0 0 1-.415.146.24.24 0 0 0-.014-.161.3.3 0 0 0-.242-.151H10.4l.056.062c.068.075.043.1 0 .147l-.014.015a.56.56 0 0 1-.365.065c-.053 0-.106-.012-.163-.019a3.6 3.6 0 0 0-.964-.009 9 9 0 0 0-1.04.215 1.2 1.2 0 0 0-.609.323.4.4 0 0 0-.1.357.47.47 0 0 0 .346.313 2.2 2.2 0 0 0 .686.118c-.772.073-1.686.156-1.7.157l-.59.054A10 10 0 0 0 4.772 7.8h-.028a1 1 0 0 1-.181 0L4.4 7.793h-.037v.344a6 6 0 0 0-.364-.207c-.246-.123-.746-.323-.813-.35a.5.5 0 0 1-.136-.226.3.3 0 0 1 .034-.131.4.4 0 0 0 .032-.088.24.24 0 0 0-.044-.164.216.216 0 0 0-.272-.037.5.5 0 0 0-.122.12.245.245 0 0 0-.372-.037.32.32 0 0 0-.133.235.24.24 0 0 0 .058.156.26.26 0 0 0-.16.117.26.26 0 0 0-.009.223.31.31 0 0 0 .244.177.4.4 0 0 0 .121-.012c.078-.015.146-.028.208.038l.069.074a.6.6 0 0 1-.223.119l-.081.032.084.037a1.4 1.4 0 0 0 .336.1.6.6 0 0 0 .179-.024.5.5 0 0 1-.147.08l-.088.031.081.037a1 1 0 0 0 .267.085.7.7 0 0 0 .176-.022.5.5 0 0 1-.081.046l-.055.029-.068.039.073.028a1.5 1.5 0 0 0 .3.082 1 1 0 0 0 .207-.014.6.6 0 0 1-.145.085l-.079.036.081.032a.9.9 0 0 0 .3.066 1.1 1.1 0 0 0 .29-.092c.013.012.042.031.065.048-.131.029-.28.064-.361.092a6 6 0 0 0-.72.34.64.64 0 0 1-.295-.043.3.3 0 0 1-.092-.1.4.4 0 0 0-.058-.074.3.3 0 0 0-.165-.068.2.2 0 0 0-.211.171.4.4 0 0 0 .01.13.3.3 0 0 0-.2.07.25.25 0 0 0-.062.189.27.27 0 0 0 .1.2.36.36 0 0 0 .234.081.24.24 0 0 0-.019.194.24.24 0 0 0 .159.144.37.37 0 0 0 .309-.06.4.4 0 0 0 .07-.091.19.19 0 0 1 .171-.117h.117a.45.45 0 0 1-.044.222l-.029.079.078-.032a1.5 1.5 0 0 0 .312-.166.6.6 0 0 0 .1-.15.3.3 0 0 1-.025.158l-.028.077.076-.029a1 1 0 0 0 .249-.131.6.6 0 0 0 .106-.149.3.3 0 0 1-.013.1l-.011.055-.011.068.061-.045a1.5 1.5 0 0 0 .266-.152.8.8 0 0 0 .132-.162.4.4 0 0 1-.02.159l-.021.076.072-.032a.9.9 0 0 0 .256-.165.9.9 0 0 0 .11-.254.8.8 0 0 0 .289-.064.6.6 0 0 0 .16-.205 5 5 0 0 0 .732-.094c.27-.071.794-.258 1.349-.456a50 50 0 0 1 1.2-.417c.113.064.162.123.157.168a.2.2 0 0 1-.043.039.4.4 0 0 0-.071.065.145.145 0 0 0 .024.168.24.24 0 0 0 .093.063.2.2 0 0 1 .059.036c.026.041.024.057.011.075a.5.5 0 0 1-.22.1q-.068.022-.118.043a7 7 0 0 0-.466.249.4.4 0 0 1-.139-.01l-.107-.028a.5.5 0 0 1-.1-.052.36.36 0 0 0-.176-.071h-.002a.28.28 0 0 0-.229.139.13.13 0 0 0-.007.1.23.23 0 0 0 .069.129l.125.079a.4.4 0 0 0-.083.163.21.21 0 0 0 .075.169l.013.013a.21.21 0 0 0 .158.083.7.7 0 0 0 .136-.01.2.2 0 0 0 .034.107.32.32 0 0 0 .249.14h.031a.2.2 0 0 0 .171-.1.3.3 0 0 0 .032-.1.2.2 0 0 1 .038-.106l.192-.18c.05.038.054.09.045.171l-.009.079.066-.043a.8.8 0 0 0 .19-.164.5.5 0 0 0 .051-.161.17.17 0 0 1 .042.155l-.015.084.072-.046a1 1 0 0 0 .2-.163.7.7 0 0 0 .075-.163.27.27 0 0 1 .01.169l-.019.09.077-.049a.8.8 0 0 0 .21-.208 1 1 0 0 0 .047-.163c.2 0 .323-.1.331-.2.006-.083-.079-.185-.247-.214a.7.7 0 0 1-.07-.124.16.16 0 0 1 0-.108.5.5 0 0 1 .168-.206l.011-.011a.24.24 0 0 0 .128.135.2.2 0 0 0 .068.011.3.3 0 0 0 .105-.031 1.38 1.38 0 0 0 .848.482h.016a3.2 3.2 0 0 0 .772-.018c.13-.022.435-.11.523-.135a3 3 0 0 0 .2.224 4 4 0 0 0 .424.317.5.5 0 0 1-.142.116 1 1 0 0 1-.1.028.36.36 0 0 0-.187.078.22.22 0 0 0-.026.246.3.3 0 0 0 .221.1l.152-.03a.4.4 0 0 0 .087.162.27.27 0 0 0 .18.076h.006a.25.25 0 0 0 .184-.068.4.4 0 0 0 .076-.093.31.31 0 0 0 .4-.046.16.16 0 0 0 .025-.18.3.3 0 0 0-.065-.084.25.25 0 0 1-.067-.092l-.03-.228a.2.2 0 0 1 .044.006 1 1 0 0 1 .122.069M4.14 8.77l-.018-.019-.022.011a1.2 1.2 0 0 1-.287.1.6.6 0 0 1-.184-.032.5.5 0 0 0 .163-.149l.057-.08-.1.022a1.2 1.2 0 0 1-.292.033 1 1 0 0 1-.2-.048.3.3 0 0 0 .155-.15l.031-.072-.069.014a1 1 0 0 1-.257.046.6.6 0 0 1-.161-.044.33.33 0 0 0 .165-.164l.031-.075-.077.025a.8.8 0 0 1-.253.049A1 1 0 0 1 2.6 8.18a.46.46 0 0 0 .189-.133l.011-.025-.11-.122a.27.27 0 0 0-.276-.06.4.4 0 0 1-.1.011.25.25 0 0 1-.183-.131.2.2 0 0 1 0-.158.23.23 0 0 1 .176-.1l.093-.006-.069-.056a.2.2 0 0 1-.082-.149.25.25 0 0 1 .1-.178c.09-.071.175-.087.3.062l.031.038.029-.04A.6.6 0 0 1 2.836 7a.145.145 0 0 1 .181.015.16.16 0 0 1 .029.105.3.3 0 0 1-.026.071.35.35 0 0 0-.041.165.57.57 0 0 0 .163.281l.013.009c.006 0 .555.22.815.349.134.067.383.22.4.229l.007.622-.109.023a1 1 0 0 1-.128-.099m5.252-.145a.24.24 0 0 0 0 .159 1 1 0 0 0 .088.154l.009.012h.016c.135.019.2.092.2.137s-.105.137-.285.128h-.034v.034a.8.8 0 0 1-.046.174.5.5 0 0 1-.118.127.26.26 0 0 0-.082-.2l-.045-.04-.016.058a1 1 0 0 1-.085.21.6.6 0 0 1-.115.1.3.3 0 0 0-.122-.2L8.7 9.437l-.007.071a.6.6 0 0 1-.05.2.5.5 0 0 1-.106.1.2.2 0 0 0-.109-.181l-.023-.013-.234.219a.26.26 0 0 0-.061.146.2.2 0 0 1-.02.072c-.033.048-.047.056-.119.065a.24.24 0 0 1-.21-.109.2.2 0 0 1-.021-.107v-.044l-.04.009a1 1 0 0 1-.154.017.14.14 0 0 1-.114-.061l-.013-.014A.14.14 0 0 1 7.36 9.7a.4.4 0 0 1 .093-.155l.028-.032-.2-.125a.2.2 0 0 1-.04-.122.2.2 0 0 1 .17-.1.3.3 0 0 1 .139.06l.037.022-.026.01.142.037a.6.6 0 0 0 .252.03h.013s.295-.171.466-.25q.045-.018.11-.039a.55.55 0 0 0 .256-.143.13.13 0 0 0-.008-.16.2.2 0 0 0-.091-.064.2.2 0 0 1-.066-.041c-.022-.029-.032-.063-.022-.077a.3.3 0 0 1 .061-.051.16.16 0 0 0 .068-.077c.028-.1-.027-.146-.146-.215.142-.045.269-.082.361-.1.021-.005.031 0 .05-.008a.5.5 0 0 0-.089.184l-.018.065.068-.022a1.5 1.5 0 0 1 .4-.083.7.7 0 0 1 .223.029c.005.016.019.054.034.09l-.039.024a.6.6 0 0 0-.194.238m-.06-.517a1 1 0 0 1 .1.056l-.079.005a1.4 1.4 0 0 0-.337.064.5.5 0 0 1 .111-.155.6.6 0 0 1 .205.03m.471.387a.15.15 0 0 1-.103-.106s-.019-.061-.006-.069l.189.163a.2.2 0 0 1-.083.012zm-.048-.216a1.3 1.3 0 0 0-.4-.242.6.6 0 0 0-.243-.03L9.1 8l-.009.01a1 1 0 0 0-.151.022c-.322.073-1 .315-1.657.549-.553.2-1.075.384-1.342.454a5.5 5.5 0 0 1-.739.093h-.021l-.01.019a.6.6 0 0 1-.142.194.8.8 0 0 1-.28.054h-.027l-.007.027a.9.9 0 0 1-.1.251.6.6 0 0 1-.159.111.37.37 0 0 0-.021-.209L4.4 9.5l-.039.071a1 1 0 0 1-.163.219 1 1 0 0 1-.18.108.24.24 0 0 0-.028-.2l-.033-.058-.029.06a.8.8 0 0 1-.128.2.7.7 0 0 1-.154.087.27.27 0 0 0-.034-.219l-.038-.057-.027.063a.7.7 0 0 1-.122.2 1 1 0 0 1-.213.121.35.35 0 0 0 .009-.216l-.008-.027h-.174a.26.26 0 0 0-.233.153.3.3 0 0 1-.055.073.3.3 0 0 1-.24.045.16.16 0 0 1-.11-.1.22.22 0 0 1 .047-.19l.052-.059-.083.011a.31.31 0 0 1-.248-.06.2.2 0 0 1-.07-.139.17.17 0 0 1 .04-.135.28.28 0 0 1 .2-.049h.052l-.015-.05a.4.4 0 0 1-.022-.142.13.13 0 0 1 .134-.11.23.23 0 0 1 .117.046.4.4 0 0 1 .044.061.4.4 0 0 0 .115.128.7.7 0 0 0 .336.065h.017a6 6 0 0 1 .716-.339c.149-.052.581-.137.585-.137l.031-.006-.009-.694.383-.124.226.627.085.017-.265-.735-.427.123v-.266l.121.006a1.4 1.4 0 0 0 .189 0h.028a11 11 0 0 1 1.166.089l.6-.054c.022 0 2.2-.2 2.674-.255a5 5 0 0 1 .716-.045 5 5 0 0 1 .522.051 5 5 0 0 0 .495.049c.08 0 .153.006.222.009a4 4 0 0 0 .55 0l.175-.012c.427-.025 1.012-.06 1.216-.393a.263.263 0 0 0-.077-.34.41.41 0 0 0-.395-.1c-.083.019-.212.083-.224.18a.18.18 0 0 0 .048.144l.048.05a.34.34 0 0 1-.153-.035.5.5 0 0 1-.13-.21l-.02-.07-.045.058a.27.27 0 0 0-.066.2v.019a.3.3 0 0 0 .034.117.36.36 0 0 1-.172-.076.7.7 0 0 1-.106-.23l-.017-.058L11.8 7a.32.32 0 0 0-.1.208.3.3 0 0 0 .033.133v.011a.4.4 0 0 1-.173-.1.7.7 0 0 1-.085-.233l-.007-.038-.039.009-.253.065c-.331.085-.832.214-1.159.285h-.023c-.306.066-.767.166-1.093.211a2.8 2.8 0 0 1-1.337-.07c-.185-.065-.255-.127-.3-.265a.33.33 0 0 1 .089-.284 1.14 1.14 0 0 1 .572-.3 9 9 0 0 1 1.029-.213 3.6 3.6 0 0 1 .947.009q.085.011.166.019a.6.6 0 0 0 .427-.09l.013-.013a.16.16 0 0 0 .054-.162.26.26 0 0 1 .1.093.26.26 0 0 1-.006.151l-.024.06.063-.008a1.1 1.1 0 0 0 .512-.176l.077-.077a.58.58 0 0 1-.391.4 1.6 1.6 0 0 1-.718.105 3 3 0 0 1-.439-.079l-.13-.032.095.1a.19.19 0 0 1 .075.154q-.013.063-.118.121c0-.06-.009-.134-.066-.153a.55.55 0 0 0-.438.1.8.8 0 0 1-.338.082 1.2 1.2 0 0 1-.415-.046 1 1 0 0 1-.13-.06.44.44 0 0 0-.228-.079l-.063.012a.6.6 0 0 0-.391.172.17.17 0 0 0 0 .188.5.5 0 0 0 .341.178 2.7 2.7 0 0 0 1 0c.208-.034.438-.085.661-.135.158-.035.322-.071.471-.1.212-.04.583-.144.91-.236.225-.063.419-.117.527-.141a4 4 0 0 1 1.036-.128h.019a.87.87 0 0 1 .636.2.5.5 0 0 1 .133.372c-.01.309-.367.461-.677.558a4.8 4.8 0 0 1-1.469.108c-.125 0-.242-.006-.346-.006h-.121l.1.067.242.173a.5.5 0 0 1 .087.094.34.34 0 0 0 .168.142.76.76 0 0 0 .358-.029 1 1 0 0 1 .183-.035c.214-.016.582 0 .585 0h.016l.021-.02a.3.3 0 0 1 .125-.089.3.3 0 0 1 .121 0c.06.019.083.083.064.181v.017l.011.014a.26.26 0 0 0 .142.081 1 1 0 0 0 .127.006.3.3 0 0 1 .076 0 1 1 0 0 1 .1.036 1 1 0 0 0-.09.039.4.4 0 0 0-.091.094l-.041.059h.072a1 1 0 0 1 .223.022.3.3 0 0 1 .071.042.2.2 0 0 0-.079.026 1 1 0 0 0-.1.085l-.074.073.1-.01a.5.5 0 0 1 .236.025 1 1 0 0 1 .069.061l-.082.012a.5.5 0 0 0-.1.048l-.06.038.065.028a.6.6 0 0 1 .183.121.2.2 0 0 1 .04.088q-.034-.018-.064-.03a.3.3 0 0 0-.115-.01h-.041l.044.307a.3.3 0 0 0 .087.132.3.3 0 0 1 .049.06c.019.05.018.061-.016.11a.24.24 0 0 1-.221.063.3.3 0 0 1-.11-.057l-.034-.026-.021.037a.5.5 0 0 1-.078.107.17.17 0 0 1-.144.051.2.2 0 0 1-.13-.056.4.4 0 0 1-.075-.16l-.008-.032-.22.044a.3.3 0 0 1-.137-.056.15.15 0 0 1 .012-.167.34.34 0 0 1 .149-.056 1 1 0 0 0 .11-.031.6.6 0 0 0 .2-.171l.026-.028-.034-.021a5 5 0 0 1-.449-.333 3 3 0 0 1-.2-.235l-.016-.02-.024.007s-.394.116-.539.14a3 3 0 0 1-.757.018h-.013a1.34 1.34 0 0 1-.81-.467c-.06-.055-.122-.1-.184-.158m2.023-.931a.5.5 0 0 0-.037-.09.2.2 0 0 1-.026-.1.2.2 0 0 1 .032-.1.6.6 0 0 0 .1.2.54.54 0 0 0 .3.108h.086l-.056-.065a.2.2 0 0 1-.069-.147v-.021a.2.2 0 0 1 .013-.085.4.4 0 0 0 .126.182.63.63 0 0 0 .312.048l.133-.009-.119-.062a.4.4 0 0 1-.122-.1.1.1 0 0 1-.031-.088c.005-.047.093-.1.167-.117a.34.34 0 0 1 .333.083.19.19 0 0 1 .058.242c-.183.3-.746.333-1.156.358-.063 0-.123.007-.177.012a4 4 0 0 1-.54 0l-.224-.01a5 5 0 0 1-.487-.048 5 5 0 0 0-.53-.051h-.085a5 5 0 0 0-.536.034c.249-.047.51-.1.707-.146h.023c.329-.071.83-.2 1.162-.286l.215-.055a.6.6 0 0 0 .093.229.64.64 0 0 0 .281.144l.06.015z"/><path fill="#fcd41c" fill-rule="evenodd" d="M4.578 7.816c-.159.4.489.58.575.143a1.3 1.3 0 0 1-.575-.143"/><path fill="#fcd41c" d="M6.5 7.752a.1.1 0 0 1-.02-.062c-.02-.036-.043-.071-.061-.108s-.056-.042-.034-.068c0 0 .062-.112 0-.177-.03-.033-.041-.048-.031-.084a.4.4 0 0 0 .021-.17.2.2 0 0 0-.112-.177.075.075 0 0 1-.051-.082.23.23 0 0 0-.112-.216c-.058-.031-.054-.094-.078-.143l-.014-.015a.3.3 0 0 0-.12-.053.07.07 0 0 1-.058-.037c-.05-.089-.143-.052-.214-.077s-.132-.094-.222-.065a.13.13 0 0 1-.107 0 .17.17 0 0 0-.165.011.16.16 0 0 1-.122.023.1.1 0 0 0-.069.007.86.86 0 0 0-.343.2 1.2 1.2 0 0 1-.19.192.24.24 0 0 0-.057.247.3.3 0 0 1-.028.227.3.3 0 0 1-.082.1.9.9 0 0 0-.2.239 1 1 0 0 0-.089.158.4.4 0 0 0-.012.237.14.14 0 0 1 0 .1v.048a1 1 0 0 1 .061.379s-.041.149.046.137a.18.18 0 0 0 .13-.08c.017-.028.041-.008.05.02s.021.069.034.1.041.072.076.073c.1 0 .169.089.262.112a.9.9 0 0 0 .311.085.67.67 0 0 0 .412-.088v.007c0 .062.284 0 .4-.06a.36.36 0 0 0 .163-.2.24.24 0 0 1 .233-.181.35.35 0 0 0 .268-.159.2.2 0 0 0 .03-.094V7.94c-.012-.028-.039-.058.014-.074h.063c.038-.034.009-.077.017-.114"/><path fill="#806600" d="M5.792 7.243a.14.14 0 0 1-.179.056c-.01-.01-.065-.066-.084-.027l-.029.053c-.035.062-.118.183-.223.176a.09.09 0 0 1-.077-.065c-.016-.039.01-.057.04-.071a.1.1 0 0 0 .025-.023l.013-.015a.24.24 0 0 1 .135-.079H5.4c.048 0 .06-.04.066-.077s0-.081 0-.122a.4.4 0 0 0 .215.034.42.42 0 0 0 .234-.1c.027-.021.019-.037-.008-.048L5.9 6.929l-.032-.01c-.033 0-.068.011-.092-.022s0-.039.015-.054.042-.043.009-.073-.056-.006-.076.014a.13.13 0 0 1-.117.039.2.2 0 0 0-.122-.023.1.1 0 0 1-.048-.008.04.04 0 0 1 0-.03l.067-.141c.014-.023.029-.048 0-.069a.054.054 0 0 0-.081.019l-.012.029a.4.4 0 0 0-.079.182A1.2 1.2 0 0 0 5.35 7c.008.041 0 .061-.047.053-.027-.005-.059-.007-.067.025s.027.043.054.052.04.011.039.032-.03.024-.048.026c-.045 0-.074.021-.079.07a.04.04 0 0 1-.039.042.05.05 0 0 1-.058-.029.13.13 0 0 0-.1-.084c-.02-.006-.041-.016-.042-.041s.022-.034.043-.036c.055-.008.054-.033.032-.076s-.014-.088.03-.1a.314.314 0 0 0 .221-.308c-.01-.038-.028-.065-.072-.064-.045.054-.02.127-.051.186s-.042.078-.088.014a.3.3 0 0 0-.257-.126c-.094 0-.127.053-.092.141a.25.25 0 0 0 .143.137q.114.049.028.146c-.086.097-.053.126.018.17a.4.4 0 0 1 .119.11c.04.054.031.094-.035.111a.125.125 0 0 1-.136-.038c-.076-.1-.207-.169-.216-.322 0-.037-.009-.11-.066-.1s-.017.074-.011.113c.015.094.046.188-.071.245-.03.014-.027.056 0 .057.092 0 .073.067.08.121a1 1 0 0 0 .02.1c.011.034.027.066.073.047s.04.016.038.041c0 .068-.011.135-.018.2a.13.13 0 0 0 .056.137.31.31 0 0 0 .4-.063.8.8 0 0 0 .076-.162c.013-.029.011-.077.04-.081s.036.049.056.074.018.026.028.037q.052.06.094-.008l.036-.049a.54.54 0 0 0 .061-.253.5.5 0 0 1 .026-.113l.011-.028q.02-.028.066-.009c.06.025.021.066.016.1v.126a.03.03 0 0 1 .01.032l.007.031a.06.06 0 0 1 .016.046c.021.018.038.05.072.028s.014-.045.009-.07l-.017-.085c-.028-.192.023-.277.2-.335.018-.006.037-.012.036-.035a.04.04 0 0 0-.037-.035.16.16 0 0 0-.165.043m-.235-.33a.024.024 0 0 1 0 .035c-.036.032-.06 0-.1-.024.043-.024.067-.042.1-.011M4.868 6.8a.06.06 0 0 1-.052-.06c0-.025.023-.024.041-.022s.049 0 .047.04c-.004.015-.01.042-.036.042m-.184.719a.23.23 0 0 1-.01-.123c0-.017-.009-.049.025-.046s.029.029.028.05a.14.14 0 0 1-.043.116zm.71.2a.15.15 0 0 1-.027-.109c0-.017.01-.03.029-.029s.026.016.024.032a.16.16 0 0 1-.026.101z"/><path fill="#806600" d="M6.5 7.752a.1.1 0 0 1-.02-.062c-.02-.036-.043-.071-.061-.108s-.056-.042-.034-.068c0 0 .062-.112 0-.177-.03-.033-.041-.048-.031-.084a.4.4 0 0 0 .021-.17.2.2 0 0 0-.112-.177.075.075 0 0 1-.051-.082.23.23 0 0 0-.112-.216c-.058-.031-.054-.094-.078-.143l-.014-.015a.3.3 0 0 0-.12-.053.07.07 0 0 1-.058-.037c-.05-.089-.143-.052-.214-.077s-.132-.094-.222-.065a.13.13 0 0 1-.107 0 .17.17 0 0 0-.165.011.16.16 0 0 1-.122.023.1.1 0 0 0-.069.007.86.86 0 0 0-.343.2 1.2 1.2 0 0 1-.19.192.24.24 0 0 0-.057.247.3.3 0 0 1-.028.227.3.3 0 0 1-.082.1.9.9 0 0 0-.2.239 1 1 0 0 0-.089.158.4.4 0 0 0-.012.237.14.14 0 0 1 0 .1v.048a1 1 0 0 1 .061.379s-.041.149.046.137a.18.18 0 0 0 .13-.08c.017-.028.041-.008.05.02s.021.069.034.1.041.072.076.073c.1 0 .169.089.262.112a.9.9 0 0 0 .311.085.67.67 0 0 0 .412-.088v.007c0 .062.284 0 .4-.06a.36.36 0 0 0 .163-.2.24.24 0 0 1 .233-.181.35.35 0 0 0 .268-.159.2.2 0 0 0 .03-.094V7.94c-.012-.028-.039-.058.014-.074h.063c.038-.034.009-.077.017-.114m-1.852.916c-.025 0-.058.012-.07-.018s.018-.041.032-.057a.7.7 0 0 0 .1-.148c.012-.026.025-.058-.009-.076s-.046.014-.06.035a1 1 0 0 1-.1.132.14.14 0 0 1-.128.042c-.081-.013-.1-.05-.07-.126.02-.045.044-.089.063-.134.025-.061 0-.093-.063-.084a.46.46 0 0 0-.209.1c-.013.011-.025.032-.046.021s-.009-.033-.012-.046a.51.51 0 0 1 .289-.424c.049-.029.056.006.065.042a.47.47 0 0 0 .25.332.7.7 0 0 0 .231.034c.075.008.087.023.051.086a.52.52 0 0 1-.251.269.2.2 0 0 1-.064.02zm.2.077c-.018 0-.041 0-.048-.02s.015-.031.029-.041a.6.6 0 0 0 .238-.319.17.17 0 0 1 .117-.112.5.5 0 0 0 .162-.079c.056-.041.073-.018.072.04v.102c.002.411-.297.469-.571.429zm1.526-.981c-.031.016-.037-.016-.05-.034a.5.5 0 0 0-.115-.13c-.027-.017-.056-.056-.087-.015s.009.056.03.079A.5.5 0 0 1 6.311 8a.22.22 0 0 1-.149.224c-.053.018-.077.009-.061-.052a.5.5 0 0 0 0-.2c0-.037-.017-.075-.057-.07s-.037.046-.032.081a.33.33 0 0 1-.057.274c-.032.036-.06.057-.074-.013a.5.5 0 0 0-.035-.1c-.015-.03-.033-.07-.074-.052s-.025.059-.008.088a.4.4 0 0 1 .036.12.28.28 0 0 1-.062.25.38.38 0 0 1-.348.132h-.015A.45.45 0 0 0 5.5 8.46a.15.15 0 0 1 .012-.079l.006-.094a.2.2 0 0 1 0-.1.25.25 0 0 1 .046-.234s.059-.043.054-.095-.072-.084-.107-.014a.58.58 0 0 1-.433.351c-.319.072-.538-.023-.575-.392a1.4 1.4 0 0 1 0-.259c0-.026.008-.057-.026-.064s-.045.027-.052.055a.7.7 0 0 0-.013.187.066.066 0 0 1-.044.073.7.7 0 0 0-.285.228c-.008.01-.016.023-.031.02S4.028 8.02 4.027 8a.4.4 0 0 1 .13-.3c.022-.024.087-.043.042-.089s-.077 0-.109.03-.035.045-.076.059a.26.26 0 0 1 .086-.171.4.4 0 0 1 .109-.076c.085-.048.086-.064.009-.121a.1.1 0 0 1 .069-.03.07.07 0 0 0 .069-.063.25.25 0 0 1 .08-.15.08.08 0 0 0 .015-.111.21.21 0 0 1-.025-.192.2.2 0 0 1 .039.137c0 .03 0 .064.044.06s.039-.033.037-.06c0-.07 0-.142-.06-.2-.04-.037 0-.054.024-.056.072 0 .109-.031.107-.109s.089-.045.111-.093.051-.085.114-.057c.032.014.056 0 .072-.031q.051-.09.126-.021c.075.069.063.017.09-.016.07-.084.075-.084.152 0 .029.031.053.02.081 0 .108-.081.156-.06.178.077a.08.08 0 0 0 .071.013.04.04 0 0 1 .032-.03c.052-.042.095-.044.115.03a.064.064 0 0 0 .078.055c.092 0 .111.012.128.106a.09.09 0 0 0 .058.082c.1.035.121.093.1.2s-.021.1.078.108c.076.015.093.067.088.135a.1.1 0 0 1 0 .076.03.03 0 0 1-.006.032.2.2 0 0 1-.044.1.06.06 0 0 0 0 .077c.034.014.076 0 .114.029-.041.036-.089.019-.131.027-.028.039-.007.061.026.081a.28.28 0 0 1 .135.175c-.005.011.017.036-.01.051z"/><path fill="#806600" d="M6.2 7.015a.17.17 0 0 0-.088.13c-.009.045-.031.11.024.125s.055-.057.069-.1l.03-.071c.009-.036.015-.072-.035-.084"/><path fill="#377bc8" d="m3.018 6.93-.007-.014L3 6.912a.1.1 0 0 1-.037-.021.4.4 0 0 0-.3-.071l-.106.008.088.06a.25.25 0 0 1 .142.226v.019l.016.009a.2.2 0 0 0 .097.028.13.13 0 0 0 .07-.02.156.156 0 0 0 .048-.22m-.63.095h-.014a.1.1 0 0 1-.043 0 .42.42 0 0 0-.3.059l-.1.052.112.018a.25.25 0 0 1 .222.137l.01.015h.04a.15.15 0 0 0 .131-.06.144.144 0 0 0-.046-.212zm-.216.512h-.015l-.013.008a.1.1 0 0 1-.04.013.4.4 0 0 0-.248.173l-.066.085.1-.026a.26.26 0 0 1 .266.04l.015.01.017-.006a.15.15 0 0 0 .113-.116.153.153 0 0 0-.129-.181M2.569 10a.163.163 0 0 0-.222-.048l-.047.026.017.017-.011.015a.35.35 0 0 0-.072.284l.008.1.059-.08a.26.26 0 0 1 .232-.135h.017l.01-.016A.14.14 0 0 0 2.569 10m-.158-.959L2.4 9.034l-.014.007a.2.2 0 0 1-.042.006.4.4 0 0 0-.278.13l-.078.072.106-.007a.25.25 0 0 1 .252.088l.013.013h.019a.15.15 0 0 0 .133-.1.155.155 0 0 0-.1-.202m-.298.409H2.1l-.011.012a.1.1 0 0 1-.036.021.4.4 0 0 0-.207.227l-.045.1.1-.048a.25.25 0 0 1 .266-.015l.017.006.016-.009a.15.15 0 0 0 .087-.14.156.156 0 0 0-.174-.154m5.167-.335-.014-.007-.015.006a.1.1 0 0 1-.042.006.4.4 0 0 0-.277.129l-.076.071.1-.007a.26.26 0 0 1 .252.093l.014.013h.018a.15.15 0 0 0 .133-.1.16.16 0 0 0-.093-.204m.07.519h-.035v.019l-.026.015a.4.4 0 0 0-.193.236l-.038.1.092-.052a.26.26 0 0 1 .27-.03h.018l.015-.01a.14.14 0 0 0 .077-.144.16.16 0 0 0-.18-.134m.63.395A.155.155 0 0 0 7.758 10l-.013.009v.016a.1.1 0 0 1-.017.036.38.38 0 0 0-.038.3l.02.1.05-.092a.25.25 0 0 1 .207-.16l.018-.005.008-.017a.15.15 0 0 0-.013-.158m4.32-.307-.015.006-.006.015a.2.2 0 0 1-.024.034.4.4 0 0 0-.1.289v.107l.068-.082a.25.25 0 0 1 .237-.115h.019l.011-.015a.15.15 0 0 0 .024-.162.154.154 0 0 0-.214-.077m.416.262-.011.016v.016a.2.2 0 0 1-.009.039.37.37 0 0 0 .029.3l.041.091.029-.1a.26.26 0 0 1 .177-.2l.017-.008v-.018a.14.14 0 0 0-.047-.155.167.167 0 0 0-.226.019m.812.016a.145.145 0 0 0-.084-.138.156.156 0 0 0-.209.079l-.007.015.005.015a.2.2 0 0 1 0 .04.4.4 0 0 0 .106.281l.065.082v-.1a.25.25 0 0 1 .109-.239l.014-.012z"/><path fill="#fcd41c" fill-rule="evenodd" d="m13.443 13.87-.038-.266a.3.3 0 0 1 .1.008 1 1 0 0 1 .129.069.45.45 0 0 0-.063-.186.7.7 0 0 0-.2-.131.5.5 0 0 1 .088-.044 1 1 0 0 1 .155-.015 1 1 0 0 0-.13-.125.54.54 0 0 0-.261-.031 1 1 0 0 1 .094-.08.35.35 0 0 1 .147-.024.4.4 0 0 0-.146-.109 1 1 0 0 0-.236-.025.4.4 0 0 1 .079-.083 1 1 0 0 1 .17-.066 1.3 1.3 0 0 0-.187-.079c-.043-.011-.131 0-.207-.009a.22.22 0 0 1-.119-.068c.025-.133-.022-.2-.09-.224a.3.3 0 0 0-.142 0 .36.36 0 0 0-.15.107s-.371-.015-.589 0c-.156.011-.379.108-.528.065-.109-.031-.155-.167-.244-.231l-.242-.173a6.5 6.5 0 0 0 1.83-.1c.32-.1.692-.26.7-.593s-.2-.616-.826-.61a4 4 0 0 0-1.044.129c-.268.06-1.082.309-1.436.377s-.773.177-1.131.235a2.7 2.7 0 0 1-.99 0 .5.5 0 0 1-.317-.163.13.13 0 0 1 0-.145c.084-.119.278-.138.431-.169.07-.014.241.107.339.138a1.2 1.2 0 0 0 .429.048.8.8 0 0 0 .355-.087.52.52 0 0 1 .408-.1c.061.021.035.18.035.18.2-.083.274-.2.112-.364a3.4 3.4 0 0 0 .446.08 1.7 1.7 0 0 0 .734-.108.6.6 0 0 0 .431-.543l-.158.158a1.1 1.1 0 0 1-.49.165s.039-.13 0-.185a.27.27 0 0 0-.211-.135c.1.112.029.164-.014.212a.58.58 0 0 1-.4.078 4 4 0 0 0-1.12-.028 9 9 0 0 0-1.035.214 1.2 1.2 0 0 0-.59.312.36.36 0 0 0-.1.321c.051.158.136.223.323.289a2.86 2.86 0 0 0 1.355.072c.335-.046.808-.149 1.118-.217.44-.1 1.2-.3 1.413-.35a.7.7 0 0 0 .094.251.6.6 0 0 0 .261.132c-.022-.085-.062-.119-.061-.2a.28.28 0 0 1 .084-.182.8.8 0 0 0 .116.246.5.5 0 0 0 .28.1.27.27 0 0 1-.081-.188.23.23 0 0 1 .059-.175.7.7 0 0 0 .167.25.47.47 0 0 0 .259.029.3.3 0 0 1-.133-.1.16.16 0 0 1-.04-.129c.008-.071.113-.13.2-.149a.37.37 0 0 1 .363.089.225.225 0 0 1 .068.291c-.223.365-.954.356-1.362.388a6 6 0 0 1-.768-.009c-.341-.01-.654-.09-1.017-.1a5 5 0 0 0-.721.045c-.474.057-2.674.256-2.674.256l-.6.054a11 11 0 0 0-1.165-.09 2 2 0 0 1-.373 0v.351l-.009.01s-.265-.163-.406-.233c-.264-.132-.817-.351-.817-.351s-.148-.148-.153-.257.054-.157.067-.227a.2.2 0 0 0-.037-.135.18.18 0 0 0-.227-.025.6.6 0 0 0-.138.146c-.137-.166-.246-.149-.35-.067a.23.23 0 0 0-.024.385c-.243.034-.249.2-.21.3a.28.28 0 0 0 .214.154c.109.01.24-.081.352.038l.092.1a.54.54 0 0 1-.26.155 1.4 1.4 0 0 0 .324.1 1 1 0 0 0 .267-.051.35.35 0 0 1-.226.179 1 1 0 0 0 .254.081 1.2 1.2 0 0 0 .271-.048c-.043.1-.136.125-.215.17a1.5 1.5 0 0 0 .286.08 1.3 1.3 0 0 0 .3-.034.5.5 0 0 1-.229.176.9.9 0 0 0 .283.063 1.2 1.2 0 0 0 .3-.1 2 2 0 0 0 .151.115c-.142.03-.345.075-.442.108a6 6 0 0 0-.704.347.75.75 0 0 1-.324-.052c-.085-.056-.1-.133-.153-.184a.27.27 0 0 0-.141-.058.166.166 0 0 0-.172.141.5.5 0 0 0 .022.16c-.235-.008-.278.1-.275.222s.127.265.359.235c-.13.188-.028.311.084.344a.33.33 0 0 0 .274-.053c.08-.067.088-.213.265-.217h.146a.42.42 0 0 1-.038.273 1.4 1.4 0 0 0 .3-.16.8.8 0 0 0 .132-.215.28.28 0 0 1 .007.264 1 1 0 0 0 .237-.124 1 1 0 0 0 .137-.215c.06.091.019.169.006.251a1.4 1.4 0 0 0 .258-.147 1 1 0 0 0 .17-.228.36.36 0 0 1 0 .263.8.8 0 0 0 .242-.155 1 1 0 0 0 .111-.266.9.9 0 0 0 .3-.06.6.6 0 0 0 .157-.209 5.5 5.5 0 0 0 .746-.1c.48-.125 1.782-.625 2.565-.876.113.081.2.167.191.215s-.085.069-.12.116 0 .088.023.122.125.057.154.1.039.078.01.117c-.058.079-.256.116-.352.16-.175.079-.469.251-.469.251a.7.7 0 0 1-.269-.038c-.083-.021-.186-.124-.273-.122a.24.24 0 0 0-.2.123.2.2 0 0 0 .051.173l.16.1a.5.5 0 0 0-.1.176.18.18 0 0 0 .064.139.2.2 0 0 0 .15.085 1 1 0 0 0 .165-.018.244.244 0 0 0 .275.253.16.16 0 0 0 .145-.081c.032-.046.022-.163.075-.212l.214-.2c.1.053.1.137.086.223a.8.8 0 0 0 .179-.153.7.7 0 0 0 .055-.219.24.24 0 0 1 .106.24 1 1 0 0 0 .185-.154 1 1 0 0 0 .091-.221.25.25 0 0 1 .061.256.7.7 0 0 0 .2-.193.8.8 0 0 0 .05-.185c.2.01.318-.076.325-.162 0-.066-.075-.155-.232-.177a1 1 0 0 1-.083-.145.2.2 0 0 1 0-.134.56.56 0 0 1 .179-.222c.016-.013.041-.027.062-.041l.009.029a.22.22 0 0 0 .112.127.2.2 0 0 0 .166-.025 1.36 1.36 0 0 0 .863.488 3.2 3.2 0 0 0 .762-.018 8 8 0 0 0 .543-.142 3 3 0 0 0 .208.24 5 5 0 0 0 .454.337.6.6 0 0 1-.183.159c-.074.032-.22.039-.271.1a.18.18 0 0 0-.019.207.27.27 0 0 0 .178.078l.186-.037a.5.5 0 0 0 .086.178.23.23 0 0 0 .158.048c.079 0 .105.006.164-.041a.6.6 0 0 0 .087-.118.4.4 0 0 0 .128.064.27.27 0 0 0 .256-.078.12.12 0 0 0 .021-.145c-.024-.052-.128-.121-.138-.187"/><path fill="#806600" d="m13.614 13.709.066.042-.009-.078a.44.44 0 0 0-.072-.206.5.5 0 0 0-.144-.108l.017-.007a1 1 0 0 1 .145-.013h.083l-.053-.062a1 1 0 0 0-.136-.13.34.34 0 0 0-.181-.042l.011-.007a.3.3 0 0 1 .127-.019h.085l-.056-.065a.5.5 0 0 0-.161-.12.7.7 0 0 0-.17-.025l.018-.015a1 1 0 0 1 .163-.063l.087-.026-.081-.042a1.3 1.3 0 0 0-.2-.082.4.4 0 0 0-.1-.005 1 1 0 0 1-.114 0 .2.2 0 0 1-.085-.045c.027-.185-.083-.235-.118-.246a.35.35 0 0 0-.165 0 .4.4 0 0 0-.154.105c-.074 0-.383-.012-.577 0a1.3 1.3 0 0 0-.2.036.7.7 0 0 1-.32.031.3.3 0 0 1-.13-.116.5.5 0 0 0-.1-.11l-.146-.1.23.006a4.9 4.9 0 0 0 1.493-.111c.334-.105.718-.271.73-.627a.57.57 0 0 0-.154-.427.94.94 0 0 0-.709-.221 4.2 4.2 0 0 0-1.052.129c-.11.025-.305.079-.531.142-.326.092-.7.2-.9.235-.15.029-.315.065-.473.1-.222.049-.451.1-.657.134a2.7 2.7 0 0 1-.977 0 .46.46 0 0 1-.293-.147.1.1 0 0 1 0-.1.55.55 0 0 1 .349-.146l.064-.012a.5.5 0 0 1 .179.071 1 1 0 0 0 .142.065 1.2 1.2 0 0 0 .44.05.9.9 0 0 0 .375-.092.5.5 0 0 1 .378-.1.2.2 0 0 1 .01.139l-.01.066.062-.026c.13-.055.2-.123.219-.2a.2.2 0 0 0-.027-.135 2.5 2.5 0 0 0 .349.057 1.7 1.7 0 0 0 .751-.11.64.64 0 0 0 .453-.574l.008-.1-.229.228a1 1 0 0 1-.415.146.24.24 0 0 0-.014-.161.3.3 0 0 0-.242-.151H10.4l.056.062c.068.075.043.1 0 .147l-.014.015a.56.56 0 0 1-.365.065c-.053 0-.106-.012-.163-.019a3.6 3.6 0 0 0-.964-.009 9 9 0 0 0-1.04.215 1.2 1.2 0 0 0-.609.323.4.4 0 0 0-.1.357.47.47 0 0 0 .346.313 2.2 2.2 0 0 0 .686.118c-.772.073-1.686.156-1.7.157l-.59.054a10 10 0 0 0-1.171-.089h-.028a1 1 0 0 1-.181 0l-.163-.001h-.037v.344a6 6 0 0 0-.364-.207c-.246-.123-.746-.323-.813-.35a.5.5 0 0 1-.136-.226.3.3 0 0 1 .034-.131.4.4 0 0 0 .032-.088.24.24 0 0 0-.044-.164.216.216 0 0 0-.275-.036.5.5 0 0 0-.122.12.245.245 0 0 0-.372-.037.32.32 0 0 0-.133.235.24.24 0 0 0 .058.156.26.26 0 0 0-.16.117.26.26 0 0 0-.009.223.31.31 0 0 0 .244.177.4.4 0 0 0 .121-.012c.078-.015.146-.028.208.038l.069.074a.6.6 0 0 1-.223.119l-.078.031.084.037a1.4 1.4 0 0 0 .336.1.6.6 0 0 0 .179-.024.5.5 0 0 1-.147.08l-.083.031.081.037a1 1 0 0 0 .267.085.7.7 0 0 0 .176-.022.5.5 0 0 1-.081.046l-.055.029-.068.039.073.028a1.5 1.5 0 0 0 .3.082 1 1 0 0 0 .207-.014.6.6 0 0 1-.145.085l-.079.036.081.032a.9.9 0 0 0 .3.066 1.1 1.1 0 0 0 .29-.092c.013.012.042.031.065.048-.131.029-.28.064-.361.092a6 6 0 0 0-.72.34.64.64 0 0 1-.292-.047.3.3 0 0 1-.092-.1.4.4 0 0 0-.056-.075.3.3 0 0 0-.165-.068.2.2 0 0 0-.211.171.4.4 0 0 0 .01.13.3.3 0 0 0-.2.07.25.25 0 0 0-.062.189.27.27 0 0 0 .1.2.36.36 0 0 0 .234.081.24.24 0 0 0-.019.194.24.24 0 0 0 .159.144.37.37 0 0 0 .309-.06.4.4 0 0 0 .07-.091.19.19 0 0 1 .171-.117h.117a.45.45 0 0 1-.044.222l-.029.079.078-.032a1.5 1.5 0 0 0 .312-.166.6.6 0 0 0 .1-.15.3.3 0 0 1-.025.158l-.028.077.076-.029a1 1 0 0 0 .249-.131.6.6 0 0 0 .106-.149.3.3 0 0 1-.013.1l-.011.055-.011.068.063-.028a1.5 1.5 0 0 0 .266-.152.8.8 0 0 0 .132-.162.4.4 0 0 1-.02.159l-.021.076.072-.032a.9.9 0 0 0 .256-.165.9.9 0 0 0 .11-.254.8.8 0 0 0 .289-.064.6.6 0 0 0 .16-.205 5 5 0 0 0 .732-.094c.27-.071.794-.258 1.349-.456a50 50 0 0 1 1.2-.417c.113.064.162.123.157.168a.2.2 0 0 1-.043.039.4.4 0 0 0-.071.065.145.145 0 0 0 .024.168.24.24 0 0 0 .093.063.15.15 0 0 1 .059.037c.026.04.024.056.011.074a.5.5 0 0 1-.22.1q-.068.022-.118.043a7 7 0 0 0-.466.249.4.4 0 0 1-.139-.01l-.107-.028a.5.5 0 0 1-.1-.052.36.36 0 0 0-.176-.071h-.014a.28.28 0 0 0-.229.139.13.13 0 0 0-.007.1.23.23 0 0 0 .069.129l.125.079a.4.4 0 0 0-.083.163.21.21 0 0 0 .075.169l.013.013a.21.21 0 0 0 .158.083.7.7 0 0 0 .136-.01.2.2 0 0 0 .034.107.32.32 0 0 0 .249.14h.031a.2.2 0 0 0 .171-.1.3.3 0 0 0 .032-.1.2.2 0 0 1 .038-.106l.192-.18c.05.038.054.09.045.171l-.009.079.066-.043a.8.8 0 0 0 .19-.164.5.5 0 0 0 .051-.161.17.17 0 0 1 .042.155l-.015.084.072-.046a1 1 0 0 0 .2-.163.7.7 0 0 0 .075-.163.27.27 0 0 1 .01.169l-.019.09.077-.059a.8.8 0 0 0 .21-.208 1 1 0 0 0 .047-.163c.2 0 .323-.1.331-.2.006-.083-.079-.185-.247-.214a.7.7 0 0 1-.07-.124.16.16 0 0 1 0-.108.5.5 0 0 1 .168-.206l.019-.014a.24.24 0 0 0 .128.135.2.2 0 0 0 .068.011.3.3 0 0 0 .105-.031 1.38 1.38 0 0 0 .848.482h.016a3.2 3.2 0 0 0 .772-.018 7 7 0 0 0 .523-.135 3 3 0 0 0 .2.224 4 4 0 0 0 .424.317.5.5 0 0 1-.142.116 1 1 0 0 1-.1.028.36.36 0 0 0-.187.078.22.22 0 0 0-.026.246.3.3 0 0 0 .221.1l.152-.03a.4.4 0 0 0 .087.162.27.27 0 0 0 .18.076h.006a.25.25 0 0 0 .184-.068.4.4 0 0 0 .076-.093.31.31 0 0 0 .4-.046.16.16 0 0 0 .025-.18.3.3 0 0 0-.065-.084.25.25 0 0 1-.067-.092l-.032-.224a.2.2 0 0 1 .044.006 1 1 0 0 1 .116.066M4.14 13l-.018-.019L4.1 13a1.2 1.2 0 0 1-.287.1.6.6 0 0 1-.184-.032.5.5 0 0 0 .163-.149l.057-.08-.1.022a1.2 1.2 0 0 1-.292.033 1 1 0 0 1-.2-.048.3.3 0 0 0 .155-.15l.031-.072-.076.022a1 1 0 0 1-.257.046.6.6 0 0 1-.161-.044.33.33 0 0 0 .165-.164l.031-.075-.077.025a1 1 0 0 1-.253.05 1 1 0 0 1-.226-.063.46.46 0 0 0 .189-.133l.019-.025-.114-.122a.27.27 0 0 0-.276-.06.4.4 0 0 1-.1.011.25.25 0 0 1-.183-.131.2.2 0 0 1 0-.158.23.23 0 0 1 .176-.095l.1-.018-.064-.054a.2.2 0 0 1-.082-.149.25.25 0 0 1 .1-.178c.09-.071.175-.087.3.062l.031.038.029-.04a.6.6 0 0 1 .124-.135.145.145 0 0 1 .181.015.16.16 0 0 1 .029.1.3.3 0 0 1-.026.071.35.35 0 0 0-.041.165.57.57 0 0 0 .163.281l.013.009c.006 0 .555.22.815.349.134.067.383.22.4.229l.007.623c-.025 0-.063.012-.109.022A1 1 0 0 1 4.14 13m5.443-.383a.6.6 0 0 0-.191.238.24.24 0 0 0 0 .159 1 1 0 0 0 .088.154l.009.012h.016c.135.019.2.092.2.137s-.105.137-.285.128h-.031v.033a.8.8 0 0 1-.046.174.5.5 0 0 1-.118.127.26.26 0 0 0-.082-.2l-.045-.04-.016.058a1 1 0 0 1-.085.21.6.6 0 0 1-.115.1.3.3 0 0 0-.122-.2l-.06-.036-.007.071a.6.6 0 0 1-.05.2.5.5 0 0 1-.106.1.2.2 0 0 0-.109-.181l-.023-.013-.234.219a.26.26 0 0 0-.061.146.2.2 0 0 1-.02.072c-.033.048-.047.056-.119.065a.24.24 0 0 1-.21-.109.2.2 0 0 1-.022-.107v-.044l-.039.01a1 1 0 0 1-.154.017.14.14 0 0 1-.114-.061l-.013-.014a.14.14 0 0 1-.054-.109.4.4 0 0 1 .093-.155l.028-.032-.2-.125a.2.2 0 0 1-.04-.122.2.2 0 0 1 .17-.1.3.3 0 0 1 .139.06l.037.022-.026.01.142.037a.6.6 0 0 0 .252.03h.013s.295-.171.466-.25q.045-.018.11-.039a.55.55 0 0 0 .257-.131.13.13 0 0 0-.008-.16.2.2 0 0 0-.091-.064.2.2 0 0 1-.066-.041c-.022-.029-.032-.063-.022-.077a.3.3 0 0 1 .057-.051.16.16 0 0 0 .068-.077c.028-.1-.027-.146-.146-.215.142-.045.269-.082.361-.1.021-.005.031 0 .05-.008a.5.5 0 0 0-.089.184l-.021.068.068-.022a1.5 1.5 0 0 1 .4-.083.7.7 0 0 1 .223.029c.005.016.019.054.034.09l-.041.01zm3.82.942h-.041l.044.307a.3.3 0 0 0 .087.132.3.3 0 0 1 .049.06c.019.05.018.061-.016.11a.24.24 0 0 1-.221.063.3.3 0 0 1-.11-.057l-.034-.026-.021.037a.5.5 0 0 1-.078.107.17.17 0 0 1-.144.051.2.2 0 0 1-.13-.056.4.4 0 0 1-.075-.16L12.7 14.1l-.22.044a.3.3 0 0 1-.137-.056.15.15 0 0 1 .012-.167.34.34 0 0 1 .149-.056 1 1 0 0 0 .11-.031.6.6 0 0 0 .2-.171l.025-.032-.034-.021a5 5 0 0 1-.449-.333 3 3 0 0 1-.2-.235l-.016-.02-.024.007s-.394.116-.539.14a3 3 0 0 1-.757.018h-.013a1.34 1.34 0 0 1-.81-.467c-.06-.055-.122-.1-.184-.158l-.056-.048a1.3 1.3 0 0 0-.4-.242.6.6 0 0 0-.243-.03l-.014-.008-.009.01a1 1 0 0 0-.151.022c-.322.073-1 .315-1.657.549-.553.2-1.075.384-1.342.454a5.5 5.5 0 0 1-.739.093h-.021l-.01.019a.6.6 0 0 1-.142.194.8.8 0 0 1-.28.054h-.027l-.007.027a.9.9 0 0 1-.1.251.6.6 0 0 1-.159.111.37.37 0 0 0-.021-.209l-.035-.073-.039.071a1 1 0 0 1-.163.219 1 1 0 0 1-.18.108.24.24 0 0 0-.028-.2l-.036-.056-.029.06a.8.8 0 0 1-.128.2.7.7 0 0 1-.154.087.27.27 0 0 0-.031-.225l-.038-.057-.027.063a.7.7 0 0 1-.122.2 1 1 0 0 1-.213.121.35.35 0 0 0 .009-.216l-.008-.026h-.174a.26.26 0 0 0-.233.153.3.3 0 0 1-.055.073.3.3 0 0 1-.24.045.16.16 0 0 1-.11-.1.22.22 0 0 1 .047-.19l.048-.069-.083.011a.31.31 0 0 1-.248-.06.2.2 0 0 1-.07-.139.17.17 0 0 1 .04-.135.28.28 0 0 1 .2-.049h.052l-.015-.05a.4.4 0 0 1-.022-.142.13.13 0 0 1 .134-.11.23.23 0 0 1 .117.046.4.4 0 0 1 .044.061.4.4 0 0 0 .115.128.7.7 0 0 0 .345.058h.017a6 6 0 0 1 .716-.339c.149-.052.581-.137.585-.137l.031-.006-.009-.694.076-.022a.6.6 0 0 1 .053-.1l-.129.038v-.266l.121.006a1.4 1.4 0 0 0 .189 0h.028a11 11 0 0 1 1.166.089l.6-.054c.022 0 2.2-.2 2.674-.255a5 5 0 0 1 .716-.045 5 5 0 0 1 .522.051 5 5 0 0 0 .495.049c.08 0 .153.006.222.009a4 4 0 0 0 .55 0l.175-.012c.427-.025 1.012-.06 1.216-.393a.263.263 0 0 0-.077-.34.41.41 0 0 0-.395-.1c-.083.019-.212.083-.224.18a.18.18 0 0 0 .048.144l.048.05a.34.34 0 0 1-.153-.035.5.5 0 0 1-.124-.216l-.02-.07-.045.058a.27.27 0 0 0-.066.2v.019a.3.3 0 0 0 .034.117.36.36 0 0 1-.172-.076.7.7 0 0 1-.106-.23l-.017-.058-.045.041a.32.32 0 0 0-.1.208.3.3 0 0 0 .033.133v.011a.4.4 0 0 1-.173-.1.7.7 0 0 1-.085-.233l-.007-.038-.039.009-.253.065c-.331.085-.832.214-1.159.285h-.023c-.306.066-.767.166-1.093.211a2.8 2.8 0 0 1-1.337-.07c-.185-.065-.255-.127-.3-.265a.33.33 0 0 1 .089-.284 1.14 1.14 0 0 1 .572-.3 9 9 0 0 1 1.029-.213 3.6 3.6 0 0 1 .947.009q.085.011.166.019a.6.6 0 0 0 .427-.09l.013-.013a.16.16 0 0 0 .054-.162.26.26 0 0 1 .1.093.26.26 0 0 1-.006.151l-.024.06.063-.008a1.1 1.1 0 0 0 .512-.176l.077-.077a.57.57 0 0 1-.391.4 1.6 1.6 0 0 1-.718.1 3 3 0 0 1-.439-.079l-.13-.032.095.095a.19.19 0 0 1 .075.154q-.013.064-.118.121c0-.06-.009-.134-.066-.153a.55.55 0 0 0-.438.1.8.8 0 0 1-.338.082 1.2 1.2 0 0 1-.417-.046 1 1 0 0 1-.13-.06.44.44 0 0 0-.228-.079l-.063.012a.6.6 0 0 0-.391.172.17.17 0 0 0 0 .188.5.5 0 0 0 .341.178 2.7 2.7 0 0 0 1 0c.208-.034.438-.085.661-.135.158-.035.322-.071.471-.1.212-.04.583-.144.91-.236.225-.063.419-.117.527-.141a4 4 0 0 1 1.036-.128h.019a.87.87 0 0 1 .636.2.5.5 0 0 1 .133.372c-.01.309-.367.461-.677.559a4.8 4.8 0 0 1-1.469.107c-.125 0-.242-.006-.346-.006h-.121l.1.067.242.173a.5.5 0 0 1 .087.094.34.34 0 0 0 .168.142.76.76 0 0 0 .358-.029 1 1 0 0 1 .183-.035c.214-.016.582 0 .585 0h.016l.021-.02a.3.3 0 0 1 .125-.089.3.3 0 0 1 .121 0c.06.019.083.083.064.181v.017l.011.014a.26.26 0 0 0 .142.081 1 1 0 0 0 .127.006.3.3 0 0 1 .076 0 1 1 0 0 1 .1.036 1 1 0 0 0-.09.039.4.4 0 0 0-.091.094l-.041.059h.072a1 1 0 0 1 .223.022.3.3 0 0 1 .071.042.2.2 0 0 0-.078.025 1 1 0 0 0-.1.085l-.074.073.1-.01a.5.5 0 0 1 .236.025 1 1 0 0 1 .069.061l-.082.012a.5.5 0 0 0-.1.048l-.06.038.065.028a.6.6 0 0 1 .183.121.2.2 0 0 1 .04.088q-.034-.018-.064-.03a.3.3 0 0 0-.117.016zm-1.566-1.93a.5.5 0 0 0-.033-.089.2.2 0 0 1-.026-.1.2.2 0 0 1 .032-.105.6.6 0 0 0 .1.2.54.54 0 0 0 .3.108h.086l-.056-.065a.2.2 0 0 1-.069-.147v-.021a.2.2 0 0 1 .013-.085.4.4 0 0 0 .126.182.63.63 0 0 0 .312.048l.133-.009-.119-.062a.4.4 0 0 1-.122-.1.1.1 0 0 1-.031-.088c.005-.047.093-.1.167-.117a.34.34 0 0 1 .333.083.19.19 0 0 1 .058.242c-.183.3-.746.333-1.156.358-.063 0-.123.007-.177.012a4 4 0 0 1-.54 0l-.224-.01a4 4 0 0 1-.487-.048 5 5 0 0 0-.53-.051h-.085a5 5 0 0 0-.536.034c.249-.047.51-.1.707-.146h.023c.329-.071.83-.2 1.162-.286l.215-.055a.6.6 0 0 0 .093.229.64.64 0 0 0 .281.144l.06.015z"/><path fill="#806600" d="M9.332 12.342a1 1 0 0 1 .1.056l-.079.005a1.4 1.4 0 0 0-.337.064.5.5 0 0 1 .111-.155.6.6 0 0 1 .205.03m.355.21.003.002-.002.001z"/><path fill="#806600" d="M9.8 12.729a.15.15 0 0 1-.107-.106s-.019-.061-.006-.069l.189.163a.2.2 0 0 1-.076.012"/><path fill="#fcd41c" fill-rule="evenodd" d="M4.578 12.05c-.159.4.489.58.575.143a1.3 1.3 0 0 1-.575-.143"/><path fill="#fcd41c" d="M6.5 11.986a.1.1 0 0 1-.019-.062c-.02-.036-.043-.071-.061-.108s-.056-.042-.034-.068c0 0 .062-.112 0-.177-.03-.033-.041-.048-.031-.084a.4.4 0 0 0 .021-.17.2.2 0 0 0-.112-.177.075.075 0 0 1-.051-.082.23.23 0 0 0-.115-.216c-.058-.031-.054-.094-.078-.143l-.014-.015a.3.3 0 0 0-.12-.053.07.07 0 0 1-.058-.037c-.05-.089-.143-.052-.214-.077s-.132-.094-.222-.065a.13.13 0 0 1-.107 0 .16.16 0 0 0-.165.01.16.16 0 0 1-.12.024.1.1 0 0 0-.069.007.9.9 0 0 0-.343.2 1.2 1.2 0 0 1-.19.192.24.24 0 0 0-.057.247.3.3 0 0 1-.028.227.3.3 0 0 1-.082.1.9.9 0 0 0-.2.239 1 1 0 0 0-.089.158.4.4 0 0 0-.012.237.14.14 0 0 1 0 .1v.048a1 1 0 0 1 .061.379s-.041.149.046.137a.17.17 0 0 0 .13-.08c.017-.028.041-.008.05.02s.021.069.034.1.041.072.076.073c.1 0 .169.089.262.112a.9.9 0 0 0 .311.085.67.67 0 0 0 .412-.088v.007c0 .062.284 0 .4-.06a.36.36 0 0 0 .163-.2.24.24 0 0 1 .233-.181.35.35 0 0 0 .268-.159.2.2 0 0 0 .024-.086v-.127c-.012-.028-.039-.058.014-.074h.063c.044-.033.015-.076.023-.113"/><path fill="#806600" d="M5.792 11.477a.14.14 0 0 1-.179.056c-.01-.01-.065-.066-.084-.027l-.027.053c-.035.062-.118.183-.223.176a.09.09 0 0 1-.079-.065c-.016-.039.01-.057.04-.071a.1.1 0 0 0 .025-.023l.013-.015a.24.24 0 0 1 .135-.079H5.4c.048 0 .06-.04.066-.077s0-.081 0-.122a.4.4 0 0 0 .215.034.42.42 0 0 0 .234-.1c.027-.021.019-.037-.008-.048l-.007-.006-.032-.01c-.033 0-.068.011-.092-.022s0-.039.015-.054.043-.046.013-.073-.056-.006-.076.014a.13.13 0 0 1-.117.039.2.2 0 0 0-.125-.021.1.1 0 0 1-.048-.008.04.04 0 0 1 0-.03l.067-.141c.014-.023.029-.048 0-.069a.054.054 0 0 0-.081.019l-.014.024a.4.4 0 0 0-.079.182 1.2 1.2 0 0 0 .019.218c.008.041 0 .06-.047.052-.027 0-.059-.007-.067.025s.027.043.054.052.04.011.039.032-.03.024-.048.026c-.045 0-.074.021-.079.07a.04.04 0 0 1-.039.042.05.05 0 0 1-.058-.029.13.13 0 0 0-.1-.084c-.02-.006-.041-.016-.042-.041s.022-.033.043-.036c.055-.008.054-.033.032-.076s-.014-.088.03-.1a.314.314 0 0 0 .221-.308c-.01-.038-.028-.065-.072-.064-.045.054-.02.127-.051.186s-.042.078-.088.014a.3.3 0 0 0-.257-.126c-.094 0-.127.053-.092.141a.25.25 0 0 0 .143.137q.115.049.028.146c-.087.097-.053.126.018.17a.4.4 0 0 1 .119.11c.04.054.031.094-.035.111a.125.125 0 0 1-.136-.038c-.076-.1-.207-.169-.216-.322 0-.037-.009-.11-.066-.1s-.017.074-.011.113c.015.094.046.188-.071.245-.03.014-.027.056 0 .057.092 0 .073.067.08.121a1 1 0 0 0 .02.1c.011.034.027.066.073.047s.04.016.038.041c0 .068-.011.136-.018.2a.13.13 0 0 0 .056.137.31.31 0 0 0 .4-.063.8.8 0 0 0 .076-.162c.013-.028.011-.077.04-.081s.036.049.056.074.018.026.028.037q.052.06.094-.008l.027-.047a.54.54 0 0 0 .061-.253.5.5 0 0 1 .026-.113l.011-.028q.02-.029.066-.009c.06.025.021.066.016.1v.126a.03.03 0 0 1 .01.032l.007.031a.06.06 0 0 1 .016.046c.021.018.038.05.072.029s.014-.046.009-.071l-.017-.085c-.028-.191.023-.277.2-.335.018-.006.037-.012.036-.035a.04.04 0 0 0-.036-.035.16.16 0 0 0-.157.045m-.235-.33a.024.024 0 0 1 0 .035c-.036.032-.06 0-.1-.024.043-.019.067-.042.1-.011m-.689-.116a.06.06 0 0 1-.052-.06c0-.025.023-.024.041-.022s.049.005.047.04c-.004.018-.01.046-.036.042m-.184.719a.23.23 0 0 1-.01-.123c0-.017-.009-.049.025-.046s.029.029.028.05a.14.14 0 0 1-.043.119m.71.2a.15.15 0 0 1-.027-.109c0-.017.01-.03.029-.029s.026.016.024.032a.16.16 0 0 1-.026.104z"/><path fill="#806600" d="M6.5 11.986a.1.1 0 0 1-.019-.062c-.02-.036-.043-.071-.061-.108s-.056-.042-.034-.068c0 0 .062-.112 0-.177-.03-.033-.041-.048-.031-.084a.4.4 0 0 0 .021-.17.2.2 0 0 0-.112-.177.075.075 0 0 1-.051-.082.23.23 0 0 0-.115-.216c-.058-.031-.054-.094-.078-.143l-.014-.015a.3.3 0 0 0-.12-.053.07.07 0 0 1-.058-.037c-.05-.089-.143-.052-.214-.077s-.132-.094-.222-.065a.13.13 0 0 1-.107 0 .16.16 0 0 0-.165.01.16.16 0 0 1-.12.024.1.1 0 0 0-.069.007.9.9 0 0 0-.343.2 1.2 1.2 0 0 1-.19.192.24.24 0 0 0-.057.247.3.3 0 0 1-.028.227.3.3 0 0 1-.082.1.9.9 0 0 0-.2.239 1 1 0 0 0-.089.158.4.4 0 0 0-.012.237.14.14 0 0 1 0 .1v.048a1 1 0 0 1 .061.379s-.041.149.046.137a.17.17 0 0 0 .13-.08c.017-.028.041-.008.05.02s.021.069.034.1.041.072.076.073c.1 0 .169.089.262.112a.9.9 0 0 0 .311.085.67.67 0 0 0 .412-.088v.007c0 .062.284 0 .4-.06a.36.36 0 0 0 .163-.2.24.24 0 0 1 .233-.181.35.35 0 0 0 .268-.159.2.2 0 0 0 .024-.086v-.127c-.012-.028-.039-.058.014-.074h.063c.044-.033.015-.076.023-.113m-1.853.914c-.025 0-.058.012-.07-.018s.018-.041.032-.057a.7.7 0 0 0 .1-.148c.012-.026.025-.058-.009-.076s-.046.014-.06.035a1 1 0 0 1-.1.132.14.14 0 0 1-.128.042c-.081-.013-.1-.05-.07-.126.02-.045.044-.089.063-.134.025-.061 0-.093-.063-.083a.44.44 0 0 0-.209.1c-.013.01-.025.031-.046.02s-.009-.033-.012-.046a.51.51 0 0 1 .289-.424c.049-.029.056.006.065.042a.47.47 0 0 0 .25.332.7.7 0 0 0 .231.034c.075.008.087.023.051.086a.52.52 0 0 1-.251.269.2.2 0 0 1-.063.02m.2.077c-.018 0-.041 0-.048-.02s.015-.031.029-.041a.6.6 0 0 0 .238-.319.17.17 0 0 1 .117-.112.5.5 0 0 0 .162-.079c.056-.041.073-.018.072.04v.102c.003.413-.296.471-.57.431zM6.373 12c-.031.015-.037-.017-.05-.035a.5.5 0 0 0-.114-.134c-.027-.017-.056-.056-.087-.015s.009.056.03.079a.5.5 0 0 1 .159.34.22.22 0 0 1-.149.224c-.053.018-.077.009-.061-.052a.5.5 0 0 0 0-.2c0-.036-.017-.075-.057-.07s-.037.046-.032.081a.33.33 0 0 1-.057.274c-.032.036-.06.057-.074-.013a.5.5 0 0 0-.035-.1c-.015-.03-.033-.07-.074-.052s-.025.059-.008.088a.4.4 0 0 1 .036.119.28.28 0 0 1-.062.25.38.38 0 0 1-.348.132h-.015a.45.45 0 0 0 .118-.227.15.15 0 0 1 .012-.079l.006-.094a.2.2 0 0 1 0-.1.25.25 0 0 1 .046-.233s.059-.043.054-.1-.072-.084-.107-.014a.58.58 0 0 1-.433.351c-.319.072-.538-.023-.575-.392a1.4 1.4 0 0 1 0-.259c0-.026.008-.057-.026-.064s-.045.027-.052.055a.7.7 0 0 0-.013.187.07.07 0 0 1-.044.074.7.7 0 0 0-.285.227c-.008.01-.016.024-.031.02s-.021-.027-.022-.045a.4.4 0 0 1 .13-.3c.022-.024.087-.043.042-.089s-.077 0-.109.03-.035.045-.076.059a.26.26 0 0 1 .087-.173.4.4 0 0 1 .109-.076c.085-.048.086-.064.009-.121a.1.1 0 0 1 .069-.03.07.07 0 0 0 .069-.063.26.26 0 0 1 .08-.15.08.08 0 0 0 .015-.111.21.21 0 0 1-.025-.191.2.2 0 0 1 .039.137c0 .029 0 .063.044.059s.039-.033.037-.06c0-.07 0-.142-.06-.2-.04-.037 0-.054.024-.056.072 0 .109-.031.107-.109s.089-.045.111-.093.051-.085.114-.057c.032.014.056 0 .072-.031q.051-.091.126-.02c.075.071.063.016.09-.017.07-.084.075-.084.152 0 .029.031.053.02.081 0 .108-.081.156-.06.178.077a.08.08 0 0 0 .071.013.04.04 0 0 1 .031-.031c.052-.042.095-.044.115.03a.064.064 0 0 0 .078.055c.092 0 .111.012.128.106a.09.09 0 0 0 .058.082c.1.035.121.093.1.2s-.021.1.078.108c.076.015.093.067.088.135a.1.1 0 0 1 0 .076.03.03 0 0 1-.006.032.2.2 0 0 1-.044.1.06.06 0 0 0 0 .077c.034.014.076 0 .114.029-.041.036-.089.019-.131.027-.028.039-.007.061.026.081a.28.28 0 0 1 .135.175c-.001.025.021.05-.006.067"/><path fill="#806600" d="M6.2 11.249a.17.17 0 0 0-.088.13c-.009.045-.031.111.024.125s.055-.057.069-.1l.03-.071c.009-.033.015-.072-.035-.084"/><path fill="#377bc8" d="m3.018 11.164-.007-.014h-.015a.1.1 0 0 1-.037-.021.4.4 0 0 0-.3-.071l-.106.008.088.06a.25.25 0 0 1 .142.226v.019l.016.009a.2.2 0 0 0 .101.02.13.13 0 0 0 .07-.02.156.156 0 0 0 .048-.216m-.63.095h-.014a.1.1 0 0 1-.043 0 .42.42 0 0 0-.3.059l-.1.052.112.018a.25.25 0 0 1 .222.137l.01.015h.04a.15.15 0 0 0 .131-.06.144.144 0 0 0-.043-.214zm-.216.512h-.015l-.013.008a.1.1 0 0 1-.04.013.4.4 0 0 0-.248.173l-.066.085.1-.026a.26.26 0 0 1 .266.04l.015.01.017-.006a.15.15 0 0 0 .113-.116.153.153 0 0 0-.129-.181m.397 2.465a.164.164 0 0 0-.222-.048l-.045.024.017.017-.011.015a.35.35 0 0 0-.072.284l.008.1.059-.08a.26.26 0 0 1 .232-.135h.017l.01-.016a.14.14 0 0 0 .007-.161m-.158-.961-.011-.007-.014.007a.1.1 0 0 1-.042.006.4.4 0 0 0-.278.13l-.078.072.106-.007a.25.25 0 0 1 .252.088l.013.013h.019a.15.15 0 0 0 .133-.1.155.155 0 0 0-.1-.202m-.298.409H2.1l-.011.011a.1.1 0 0 1-.036.021.4.4 0 0 0-.207.228l-.045.1.1-.048a.25.25 0 0 1 .266-.015l.017.006.016-.009a.15.15 0 0 0 .087-.14.156.156 0 0 0-.174-.154m5.167-.335-.014-.007-.015.006a.1.1 0 0 1-.042.006.4.4 0 0 0-.277.129l-.076.071.1-.007a.26.26 0 0 1 .252.093l.014.013h.018a.15.15 0 0 0 .133-.1.16.16 0 0 0-.093-.204m.07.519h-.035v.018l-.026.015a.4.4 0 0 0-.193.236l-.038.1.092-.052a.26.26 0 0 1 .27-.03h.018l.015-.01a.14.14 0 0 0 .077-.144.16.16 0 0 0-.18-.133m.63.395a.155.155 0 0 0-.222-.027l-.013.009v.016a.2.2 0 0 1-.017.037.38.38 0 0 0-.038.3l.02.1.05-.092a.25.25 0 0 1 .207-.16l.018-.005.008-.017a.15.15 0 0 0-.013-.161m4.32-.307-.015.006-.006.015a.1.1 0 0 1-.024.034.4.4 0 0 0-.1.289v.107l.068-.082a.25.25 0 0 1 .237-.115h.019l.011-.015a.15.15 0 0 0 .024-.162.154.154 0 0 0-.214-.077m.416.262-.011.012v.016a.2.2 0 0 1-.009.039.37.37 0 0 0 .029.3l.041.091.029-.1a.26.26 0 0 1 .177-.2l.017-.008v-.018a.14.14 0 0 0-.047-.155.17.17 0 0 0-.226.023m.812.018a.145.145 0 0 0-.084-.138.156.156 0 0 0-.209.079l-.007.015.005.015a.2.2 0 0 1 0 .04.4.4 0 0 0 .106.281l.065.082v-.1a.25.25 0 0 1 .109-.239l.014-.012z"/><path fill="#806600" d="M6.388 12.107s.052.044.006.209"/></svg>