<svg xmlns="http://www.w3.org/2000/svg" viewBox="0 0 36 36"><path fill="#e32118" d="M36 27a4 4 0 0 1-4 4H4a4 4 0 0 1-4-4V9a4 4 0 0 1 4-4h28a4 4 0 0 1 4 4z"/><path fill="#eee" d="M0 13h36v10H0z"/><path fill="#3e9a00" d="M32 5H4a4 4 0 0 0-4 4v4h36V9a4 4 0 0 0-4-4"/><path fill="#0173ce" d="M7.333 13 1.91 5.604A3.99 3.99 0 0 0 0 9v18c0 1.44.768 2.692 1.91 3.396L7.333 23 11 18z"/><path d="M18.443 15h-2.396v4.75c0 .969.547 1.125.828 1.125h.922c.578 0 .646.479.646.479s.068-.479.646-.479h.922c.281 0 .828-.156.828-1.125V15z"/><path fill="#fff" d="M18.443 20.93c-.133-.141-.339-.255-.646-.255h-.922c-.188 0-.628-.09-.628-.925V15.2h4.392v4.55c0 .835-.439.925-.628.925h-.921c-.308 0-.514.114-.647.255"/><path d="M14.922 18.703s.249.438.562.734c.578.547-.352.984-.352.984s-.289-.188-.383-.406c-.093-.218.235-.874.173-1.312"/><path fill="#fff" d="M15.148 20.185a.8.8 0 0 1-.215-.248c-.015-.056.04-.273.077-.418a7 7 0 0 0 .06-.243c.082.104.176.213.276.308.143.135.129.22.125.248-.02.131-.189.27-.323.353"/><path d="M15.202 19.73s.001.776.767 1.081c.943.376 1.594.22 1.672.251s0 .797 0 .797-1.043.172-1.967-.266-.877-.782-.829-.876.11-.161.155-.405c.042-.227.202-.582.202-.582"/><path fill="#fff" d="M17.134 21.692c-.357 0-.887-.048-1.374-.279-.668-.316-.75-.56-.735-.608.066-.115.122-.212.164-.414.128.229.343.462.706.607a3.7 3.7 0 0 0 1.581.266c.001.105-.007.262-.019.416a4 4 0 0 1-.323.012"/><path d="M21.965 18.703s-.249.438-.562.734c-.578.547.352.984.352.984s.289-.188.383-.406c.092-.218-.236-.874-.173-1.312"/><path fill="#fff" d="M21.738 20.185a.8.8 0 0 0 .215-.248c.015-.056-.04-.273-.077-.418a7 7 0 0 1-.06-.243 3 3 0 0 1-.276.308c-.143.135-.129.22-.125.248.02.131.189.27.323.353"/><path d="M21.685 19.73s-.001.776-.767 1.081c-.943.376-1.594.22-1.672.251s0 .797 0 .797 1.043.172 1.967-.266.877-.782.829-.876-.11-.161-.155-.405c-.042-.227-.202-.582-.202-.582"/><path fill="#fff" d="M19.753 21.692c.358 0 .887-.048 1.374-.279.668-.316.75-.56.735-.608-.066-.115-.122-.212-.164-.414a1.36 1.36 0 0 1-.706.607 3.7 3.7 0 0 1-1.581.266c-.001.105.007.262.02.416q.123.011.322.012"/><path d="M19.715 21.354s-.012.338-1.271.338c-1.26 0-1.271-.338-1.271-.338s-.047.538 0 .755.375.344 1.271.344 1.225-.127 1.271-.344c.047-.216 0-.755 0-.755"/><path fill="#fff" d="M18.443 22.253c-1.007 0-1.072-.167-1.076-.185a1.7 1.7 0 0 1-.016-.319c.219.083.56.145 1.092.145.531 0 .873-.061 1.092-.145.002.13-.001.252-.016.319-.003.018-.069.185-1.076.185"/><path fill="#ffd701" d="m17.854 13.476.169.293h.339l-.17.293.17.294h-.339l-.169.293-.169-.293h-.339l.169-.294-.169-.293h.339zm-1.339.155.23.248.33-.076-.099.324.231.248-.33.076-.099.324-.231-.248-.33.076.098-.324-.23-.248.33-.076zm-1.259.431.273.201.31-.138-.037.338.274.199-.309.137-.036.337-.274-.2-.309.137.035-.336-.274-.2.31-.137zm3.862-.586-.169.293h-.339l.17.293-.17.294h.339l.169.293.17-.293h.339l-.169-.294.169-.293h-.339zm1.34.155-.23.248-.331-.076.1.324-.231.248.33.076.098.324.232-.248.33.076-.099-.324.231-.248-.33-.076zm1.259.431-.274.201-.309-.138.037.338-.275.199.31.137.036.337.274-.2.309.137-.035-.336.273-.2-.309-.137z"/><path fill="#a36629" d="M18.443 20.625c-.6 0-.693-.219-.49-.688s.312-1.104.312-1.873-.273-.94-.59-1.237.162-.188.384 0 .303.359.303.359v-.719l.248.078v.547s.36-.312.602-.344c.241-.031.382.156.069.25-.312.094-.671.255-.671 1.065s.124 1.654.28 1.951.153.611-.447.611"/><path fill="#009a3b" d="M17.75 17.547c-.318.167-.543-.203-.543-.203s-.289.203-.561.062c-.271-.141-.229-.266 0-.391s.505-.156.505-.156.071-.344.194-.578.33-.328.33-.328.252-.547.687-.578.435.422.435.422.27 0 .322.156c.24-.25.662-.219.756-.109.094.109 0 .344 0 .344s.371-.109.451.016 0 .286 0 .286.299.058.158.386-.578.234-.578.234-.178.188-.37.172-.255-.282-.255-.282-.298.078-.484-.188c-.187.281-.531.125-.578.016-.047.36-.141.547-.469.719"/></svg>