<svg xmlns="http://www.w3.org/2000/svg" viewBox="0 0 36 36"><path fill="#171796" d="M0 27a4 4 0 0 0 4 4h28a4 4 0 0 0 4-4v-4H0v4z"/><path fill="#EEE" d="M0 13h36v10H0z"/><path fill="#D52B1E" d="M32 5H4a4 4 0 0 0-4 4v4h14v7a4 4 0 0 0 8 0v-7h14V9a4 4 0 0 0-4-4z"/><path fill="#EEE" d="M15 13h2v2h-2zm2 2h2v2h-2zm2-2h2v2h-2zm0 4h2v2h-2zm-4 0h2v2h-2zm2 2h2v2h-2zm0 3.816V21h-1.816A2.985 2.985 0 0 0 17 22.816zm2 0A2.987 2.987 0 0 0 20.816 21H19v1.816z"/><path fill="#0193DD" d="M18 11.902c.287 0 .57.018.852.043l.159-1.843-1.011-.9-1.011.9.159 1.843c.282-.025.564-.043.852-.043zm4.17.931l.781-1.68-.641-1.191-1.26.499-.481 1.79a9.638 9.638 0 0 1 1.601.582zm-6.742-.582l-.481-1.79-1.257-.5-.642 1.191.781 1.68a9.83 9.83 0 0 1 1.599-.581z"/><path fill="#171796" d="M22.368 9.805l-1.292.511-.859-1.087-1.182.728L18 9.034l-1.037.923-1.181-.729-.861 1.089-1.289-.513-.725 1.345.86 1.85.113-.053a9.721 9.721 0 0 1 1.579-.574l.026-.007a9.787 9.787 0 0 1 1.632-.292l.041-.003a12.105 12.105 0 0 1 1.682 0l.037.003a9.797 9.797 0 0 1 1.64.293l.021.006a9.708 9.708 0 0 1 1.579.575l.113.053.86-1.85-.722-1.345zm-8.478 2.862l-.703-1.51.56-1.038 1.095.436.433 1.61c-.475.132-.94.301-1.385.502zm3.372-.857l-.143-1.657.881-.784.881.784-.143 1.657c-.213-.017-.471-.033-.738-.033s-.524.016-.738.033zm4.847.857a10.02 10.02 0 0 0-1.386-.504l.432-1.609 1.098-.435.559 1.038-.703 1.51z"/></svg>