<svg xmlns="http://www.w3.org/2000/svg" viewBox="0 0 36 36"><path fill="#002b7f" d="M36 27a4 4 0 0 1-4 4H4a4 4 0 0 1-4-4V9a4 4 0 0 1 4-4h28a4 4 0 0 1 4 4z"/><path fill="#eee" d="M0 9h36v18H0z"/><path fill="#ce1225" d="M0 13h36v10H0z"/><ellipse cx="8.5" cy="18" fill="#eee" rx="3.5" ry="4"/><path fill="#f4cb58" d="M10.269 19.5c0 .828-.792 2.079-1.769 2.079S6.731 20.328 6.731 19.5 7.523 18 8.5 18s1.769.671 1.769 1.5"/><ellipse cx="8.5" cy="19.5" fill="#dca841" rx="2.5" ry="1.5"/><ellipse cx="8.5" cy="16" fill="#89c5e4" rx="1.5" ry="1"/><ellipse cx="8.5" cy="18.5" fill="#088930" rx="1.5" ry="2.5"/><ellipse cx="8.5" cy="16.5" fill="#dca841" rx="1.5" ry=".5"/><path fill="#89c5e4" d="M10 18c0 1.104-.671 2-1.5 2S7 19.104 7 18s.671-1.498 1.5-1.498S10 16.896 10 18"/><ellipse cx="8.5" cy="18.5" fill="#dca841" rx="1.5" ry=".5"/></svg>