<svg xmlns="http://www.w3.org/2000/svg" viewBox="0 0 36 36"><path fill="#00247d" d="M32 5H4q-.308 0-.604.045l-.004 1.754-2.73-.004A4 4 0 0 0 0 9v18a4 4 0 0 0 4 4h28a4 4 0 0 0 4-4V9a4 4 0 0 0-4-4"/><path fill="#cccc32" d="M33.938 12.324s-1.468.51-3.112.51c-1.643 0-2.879-.854-2.879-.854s-1.232.854-2.877.854-3.194-.51-3.194-.51c-.154 4.121.1 8.458 1.609 10.73C25.108 25.498 27.946 27 27.946 27s2.754-1.502 4.378-3.946c1.512-2.272 1.768-6.61 1.614-10.73"/><path fill="#fff" d="M33.416 12.811s-1.175.439-2.734.439c-1.562 0-2.735-.78-2.735-.78s-1.171.78-2.732.78-2.731-.439-2.731-.439c-.148 3.901 0 7.901 1.512 9.998 1.513 2.099 3.951 3.561 3.951 3.561s2.443-1.463 3.956-3.561c1.51-2.096 1.659-6.096 1.513-9.998"/><path fill="#f90" d="M26.58 13.397s.049.683.341.926c0 0 .732-.146 1.317.098.463.193 1.317.536 1.756.39.438-.146.829-.292.928-.195.097.097-.489.244-.587.341s-.438.196-.243.488c.196.293.537.537.439.83 0 0-.439-.341-.634-.634-.196-.293-.635-.537-1.367-.439s-1.316.488-1.413.927c-.098.438.438.39.877.487 0 0-.634.244-.975.244 0 0-.293.537-.586 1.024-.292.488-.342.781-.487.732-.146-.049-.196-.732-.098-1.122 0 0-.341-.195-.293-1.17.042-.833.634-1.61.634-1.61s-.048-.292 0-.634c.05-.342.391-.683.391-.683"/><path fill="#fff" d="M26.044 16.835a.17.17 0 0 1-.171.171.17.17 0 1 1 0-.341.17.17 0 0 1 .171.17"/><path fill="#f90" d="M25.024 21.728s.499-.47.502-.85c0 0-.575-.475-.757-1.083-.144-.48-.417-1.359-.808-1.607s-.751-.458-.738-.595c.015-.137.498.224.636.238.137.014.428.217.532-.119s.076-.755.364-.865c0 0 .014.556-.09.892s-.015.83.522 1.335c.539.505 1.211.712 1.613.509.402-.201.025-.585-.178-.988 0 0 .591.337.807.603 0 0 .601-.113 1.163-.195s.82-.229.875-.084c.055.144-.443.613-.809.785 0 0 .066.387-.721.966-.673.495-1.649.527-1.649.527s-.194.223-.491.4c-.292.179-.773.131-.773.131"/><path fill="#fff" d="M28.027 19.969a.171.171 0 0 1 .216.265.17.17 0 0 1-.216-.265"/><path fill="#f90" d="M32.781 18.83s-.637-.256-.983-.1c0 0-.188.721-.664 1.141-.377.334-1.059.95-1.12 1.408-.06.459-.1.874-.229.919-.13.045-.006-.545-.051-.676-.045-.13.017-.48-.332-.433-.348.047-.718.247-.938.032 0 0 .5-.246.848-.294.348-.046.76-.335.993-1.034.232-.702.138-1.398-.215-1.678-.351-.28-.543.224-.823.577 0 0 .059-.679.208-.985 0 0-.354-.498-.664-.975s-.553-.648-.444-.759c.107-.109.744.145 1.051.404 0 0 .326-.222 1.182.249.731.403 1.168 1.275 1.168 1.275s.285.084.571.278c.284.194.442.651.442.651"/><path fill="#fff" d="M29.925 16.841a.17.17 0 0 1-.079-.228.17.17 0 1 1 .306.149.17.17 0 0 1-.227.079"/><path fill="#9cf" d="M23.771 22.47q.107.177.225.34c1.513 2.099 3.951 3.561 3.951 3.561s2.443-1.463 3.956-3.561q.116-.163.224-.34z"/><path fill="#00247d" d="M19 18V5H4c-.32 0-.604.045-.604.045l-.004 1.754-2.73-.004S.62 6.854.535 7A4 4 0 0 0 0 9v9z"/><path fill="#eee" d="M19 5h-2.331L12 8.269V5H7v2.569L3.396 5.045a3.94 3.94 0 0 0-1.672.665L6.426 9H4.69L.967 6.391a4 4 0 0 0-.305.404L3.813 9H0v5h3.885L0 16.766V18h3.332L7 15.432V18h5v-3.269L16.668 18H19v-2.029L16.185 14H19V9h-2.814L19 7.029z"/><path fill="#cf1b2b" d="M11 5H8v5H0v3h8v5h3v-5h8v-3h-8z"/><path fill="#cf1b2b" d="M19 5h-1.461L12 8.879V9h1.571L19 5.198zm-17.276.71a4 4 0 0 0-.757.681L4.69 9h1.735zM6.437 14 .734 18h1.727L7 14.822V14zM19 17.802v-1.22L15.313 14H13.57z"/></svg>