<svg viewBox="0 0 36 36" xmlns="http://www.w3.org/2000/svg"><path d="M32 5H4a4 4 0 00-4 4v4.5h36V9a4 4 0 00-4-4z" fill="#141414"/><path d="M0 27a4 4 0 004 4h28a4 4 0 004-4v-4.5H0z" fill="#007a3d"/><path d="M0 13.5h36v9H0z" fill="#eee"/><g fill="#c4111b"><path d="M1.129 6.223A3.984 3.984 0 000 9v18c0 1.08.433 2.057 1.129 2.777L12 18zM17.894 18.033a3.467 3.467 0 012.817-3.405 3.467 3.467 0 10-.001 6.81 3.466 3.466 0 01-2.816-3.405z"/><path d="M19.13 20.132l1.478-1.057 1.467 1.073-.548-1.732L23 17.353l-1.817-.014-.556-1.73-.575 1.724-1.817-.006 1.462 1.079z"/></g></svg>