<svg xmlns="http://www.w3.org/2000/svg" viewBox="0 0 36 36"><path fill="#141414" d="M32 5H4a4 4 0 0 0-4 4v4.5h36V9a4 4 0 0 0-4-4"/><path fill="#007a3d" d="M0 27a4 4 0 0 0 4 4h28a4 4 0 0 0 4-4v-4.5H0z"/><path fill="#eee" d="M0 13.5h36v9H0z"/><path fill="#ce1126" d="M1.351 6.004A4 4 0 0 0 0 9v18c0 1.193.522 2.264 1.351 2.997L17.5 18z"/><path fill="#fff" d="m6.627 19.338 1.056.976-.105-1.435L9 18.662l-1.187-.812.717-1.247-1.375.421-.528-1.338-.528 1.338-1.375-.421.716 1.247-1.186.812 1.421.217-.104 1.435z"/></svg>