<svg xmlns="http://www.w3.org/2000/svg" viewBox="0 0 36 36"><path fill="#eee" d="M32 5H20.5v10.5H36V9a4 4 0 0 0-4-4"/><path fill="#e8112d" d="M20.5 5h-5v10.5H0v5h15.5V31h5V20.5H36v-5H20.5z"/><path fill="#e8112d" d="M28.915 9.585a14 14 0 0 1 .221-1.86 7.2 7.2 0 0 1-1.77 0q.175.924.221 1.86a14 14 0 0 1-1.86-.221 7.2 7.2 0 0 1 0 1.77 14 14 0 0 1 1.86-.221 14 14 0 0 1-.221 1.86 7.2 7.2 0 0 1 1.77 0 14 14 0 0 1-.221-1.86 14 14 0 0 1 1.86.221 7.2 7.2 0 0 1 0-1.77q-.925.177-1.86.221"/><path fill="#eee" d="M15.5 5H4a4 4 0 0 0-4 4v6.5h15.5z"/><path fill="#e8112d" d="M8.415 9.585a14 14 0 0 1 .221-1.86 7.2 7.2 0 0 1-1.77 0q.175.924.221 1.86a14 14 0 0 1-1.86-.221 7.2 7.2 0 0 1 0 1.77 14 14 0 0 1 1.86-.221 14 14 0 0 1-.221 1.86 7.2 7.2 0 0 1 1.77 0 14 14 0 0 1-.221-1.86 14 14 0 0 1 1.86.221 7.2 7.2 0 0 1 0-1.77q-.925.177-1.86.221"/><path fill="#eee" d="M36 27v-6.5H20.5V31H32a4 4 0 0 0 4-4"/><path fill="#e8112d" d="M28.915 26.415q.046.935.221 1.86a7.2 7.2 0 0 0-1.77 0q.175-.924.221-1.86a14 14 0 0 0-1.86.221 7.2 7.2 0 0 0 0-1.77q.924.175 1.86.221a14 14 0 0 0-.221-1.86 7.2 7.2 0 0 0 1.77 0 14 14 0 0 0-.221 1.86 14 14 0 0 0 1.86-.221 7.2 7.2 0 0 0 0 1.77 13 13 0 0 0-1.86-.221"/><path fill="#eee" d="M15.5 20.5H0V27a4 4 0 0 0 4 4h11.5z"/><path fill="#e8112d" d="M8.415 26.415q.046.935.221 1.86a7.2 7.2 0 0 0-1.77 0q.175-.924.221-1.86a14 14 0 0 0-1.86.221 7.2 7.2 0 0 0 0-1.77q.924.175 1.86.221a14 14 0 0 0-.221-1.86 7.2 7.2 0 0 0 1.77 0 14 14 0 0 0-.221 1.86 14 14 0 0 0 1.86-.221 7.2 7.2 0 0 0 0 1.77 13 13 0 0 0-1.86-.221"/></svg>