<svg xmlns="http://www.w3.org/2000/svg" viewBox="0 0 36 36"><path fill="#d62828" d="M32 5h-7.833L1.129 29.785l.001.001q.228.236.493.431l.001.001L36 13.667V9a4 4 0 0 0-4-4"/><path fill="#fcd856" d="M.763 29.35q.168.231.367.435L24.167 5H12zq-.002-.002 0 0"/><path fill="#003f87" d="M12 5H4a4 4 0 0 0-4 4v18c0 .878.283 1.689.762 2.349z"/><path fill="#eee" d="m2.063 30.501.004.002L36 22.333v-8.667L1.624 30.218q.21.155.439.283"/><path fill="#007a3d" d="M4 31h28a4 4 0 0 0 4-4v-4.667L2.067 30.502A4 4 0 0 0 4 31"/></svg>