<svg xmlns="http://www.w3.org/2000/svg" viewBox="0 0 36 36"><path fill="#00afca" d="M36 27a4 4 0 0 1-4 4H4a4 4 0 0 1-4-4V9a4 4 0 0 1 4-4h28a4 4 0 0 1 4 4z"/><g fill="#ffcc4d"><circle cx="19.035" cy="16.513" r="2.865"/><path d="M19.037 13.432c.17-.002.232-.109.232-.236 0-.17-.232-1.496-.232-1.496s-.236 1.326-.236 1.496c0 .127.064.236.236.236m0 6.178c-.172.001-.236.108-.236.235 0 .171.236 1.479.236 1.479s.232-1.309.232-1.479c.001-.126-.062-.235-.232-.235m-.801-.121c-.165-.042-.252.045-.285.168-.044.164-.163 1.506-.163 1.506s.571-1.221.615-1.385c.034-.123-.001-.245-.167-.289m1.6-5.968c.166.044.256-.044.289-.166.044-.165.154-1.49.154-1.49s-.562 1.203-.607 1.369c-.033.122-.001.243.164.287m-2.343 5.658c-.149-.083-.256-.022-.319.089-.085.147-.547 1.412-.547 1.412s.867-1.031.952-1.178c.064-.111.063-.237-.086-.323m3.089-5.351c.149.086.259.024.322-.086.086-.148.535-1.398.535-1.398s-.856 1.017-.942 1.164c-.062.11-.062.235.085.32m-3.727 4.862c-.122-.119-.241-.088-.331.002-.12.121-.894 1.223-.894 1.223s1.105-.772 1.225-.891c.09-.09.122-.214 0-.334m4.369-4.37c.122.121.243.09.333 0 .121-.12.879-1.213.879-1.213s-1.089.762-1.209.883c-.09.09-.123.21-.003.33m-4.857 3.731c-.087-.146-.21-.146-.321-.083-.148.085-1.18.949-1.18.949s1.267-.458 1.414-.543c.111-.064.173-.174.087-.323m5.35-3.089c.087.149.213.15.322.087.148-.086 1.163-.944 1.163-.944s-1.249.453-1.397.538c-.11.064-.172.171-.088.319m-5.657 2.346c-.046-.164-.166-.196-.289-.164-.164.044-1.385.612-1.385.612s1.342-.115 1.506-.159c.123-.034.212-.123.168-.289m5.966-1.6c.046.166.166.2.289.167.165-.044 1.368-.61 1.368-.61s-1.324.114-1.49.158c-.122.032-.211.121-.167.285m-6.071.803c-.002-.17-.109-.232-.236-.232-.17 0-1.496.232-1.496.232s1.326.236 1.496.236c.127 0 .236-.064.236-.236m6.178 0c.001.172.108.236.235.236.171 0 1.479-.236 1.479-.236s-1.309-.232-1.479-.232c-.127-.001-.235.062-.235.232m-6.073-.797c.042-.165-.045-.252-.168-.285-.164-.044-1.506-.163-1.506-.163s1.221.571 1.385.615c.123.033.245-.001.289-.167m5.967 1.599c-.044.166.044.256.166.289.165.044 1.49.154 1.49.154s-1.203-.563-1.369-.607c-.122-.032-.243-.001-.287.164m-5.659-2.342c.083-.148.022-.256-.089-.319-.147-.085-1.412-.547-1.412-.547s1.031.867 1.178.952c.111.064.237.062.323-.086m5.351 3.089c-.086.149-.024.259.086.322.147.086 1.398.535 1.398.535s-1.017-.855-1.164-.941c-.11-.063-.235-.063-.32.084m-4.862-3.727c.119-.122.088-.241-.002-.331-.121-.12-1.223-.894-1.223-.894s.772 1.105.891 1.225c.09.09.213.122.334 0m4.37 4.369c-.121.122-.09.244 0 .333.12.121 1.213.879 1.213.879s-.762-1.089-.883-1.21c-.09-.09-.21-.123-.33-.002m-3.73-4.858c.145-.087.146-.21.083-.321-.085-.147-.949-1.18-.949-1.18s.458 1.267.543 1.414c.063.111.174.173.323.087m3.089 5.351c-.148.086-.15.211-.087.321.086.148.944 1.163.944 1.163s-.453-1.25-.538-1.398c-.064-.109-.172-.172-.319-.086m-2.347-5.658c.164-.046.196-.166.164-.289-.044-.164-.612-1.385-.612-1.385s.115 1.342.159 1.506c.033.123.123.212.289.168m1.6 5.967c-.166.046-.2.166-.167.289.044.165.61 1.368.61 1.368s-.114-1.325-.158-1.489c-.032-.123-.121-.212-.285-.168"/></g><g fill="#ffcc4d"><path d="m21.846 23.645-.037.016-.041.006-.031.006-.057-.012-.025-.01-.023-.011-.027-.017-.045-.032-.041-.033-.023-.016-.029-.012-.02-.005h-.029l-.113.235-.023.033-.022.027-.023.017-.02.017-.029.011h-.027l-.025-.011-.035-.017-.01-.017-.012-.017-.012-.022-.012-.026-.016-.083-.033.027-.031.039-.062.094-.037.049-.039.038-.021.023-.027.017-.027.012-.033.01h-.016l-.029.006-.027-.006-.021-.01-.064-.077-.072-.077-.049.077-.057.065-.027.027-.025.027-.027.022-.051.028-.027.006h-.027l-.023-.006-.022-.012-.016-.017-.021-.026-.045-.121-.006-.028-.01-.021-.012-.011h-.012l-.148.242-.021.021-.039.017-.086.021h-.051l-.039-.011-.012-.006-.016-.017-.004-.01v-.022l.02-.242-.016.006-.043.021a3 3 0 0 0-.115.126l-.049.061-.061.051-.057.043-.032.018-.066.01-.027-.006-.012-.004-.011-.012-.006-.017V24.1l.006-.07.017-.111-.011-.065-.023-.038-.033.049-.054.071-.138.144-.077.055-.06.021-.012-.006h-.017l-.012-.01-.004-.006-.012-.017-.004-.017v-.021l-.006-.028.006-.208q-.15.102-.303.197l-.038.017-.043.022q-.061.015-.121.032h-.04l-.037-.005-.034-.012.017-.044.033-.077.021-.032.024-.033.021-.033.056-.055.061-.043.07-.045.072-.033.083-.027.082-.021.187-.033.093-.012c.276-.016.553-.018.829-.016l.303-.017.094-.011.174-.033.084-.023.078-.032.072-.033q.057-.045.117-.088l.053-.062-.057-.109.045-.006.043-.01.045-.022.037-.028.016-.01.018-.017.012-.022.012-.016.004-.022v-.038l-.012-.022.094-.017.1-.011.105-.006h.109q.23.009.457.027.345.04.692.072l.207.011v.076l-.004.034-.012.032-.01.033-.012.027-.016.022q-.029.033-.061.065l-.049.032-.053.022-.053.012-.061.011-.117-.011-.061-.017-.053-.028-.057-.027-.043-.039-.043-.043v.094l-.027.182-.021.057-.012.023-.016.016-.012.017zm-4.418-.517.125.055.077-.06.049-.026.044-.028.165-.066.142-.066.072-.027.122-.065.049-.034q.186-.122.374-.24l.109-.077.083-.066q.122-.111.242-.225l.033-.022.038-.022.138-.066.093-.032q.28-.076.565-.121l.582-.071.258-.044q.096-.027.193-.049l.066-.083.106-.115.072-.071.08-.067.094-.071.109-.072.166-.098q.178-.09.355-.182.314-.148.623-.308l.098-.066.027-.083.039-.081.049-.083.127-.17q.087-.092.17-.188.102-.099.209-.192l.106-.087.053-.039.057-.038q.06-.035.121-.066l.061-.028.059-.021.129-.034.064-.004.061-.006.064.006.061.01-.004.066-.016.065-.049.138-.041.071-.049.072-.06.076-.072.077.057-.006.049-.011.039-.012.037-.016.072-.022.103-.011.006.039v.038l-.006.038-.01.033-.016.033-.023.033-.021.026-.027.028a8 8 0 0 1-.231.214l.065.006q.072.023.145.043l.053.012-.064.05-.154.099-.176.099-.088.055-.088.061-.082.066.037.005.051.022.022.006.021.011.018.005.016-.005-.109.061-.203.099-.084.05-.016.017-.01.017-.012.016.004.022.012.017.021.016.02.018-.008.021-.012.018-.021.016-.02.017-.053.026-.064.028-.125.044-.078.039.109.109-.039.038-.037.028-.033.017-.039.016-.076.011h-.108l.012.05.016.049.023.111a5 5 0 0 1-.209.153l-.127.082-.141.082-.084.039-.082.038a5 5 0 0 1-.281.099l-.213.045-.117.017q.19.006.381.005l.312-.033.137-.027.121-.033q.12-.041.236-.088l.152-.07.15-.083.141-.089.15-.087-.09-.044-.086-.027-.041-.019q-.046-.023-.094-.043l-.051-.028.043-.032.053-.022.057-.021q.1-.024.199-.045.129-.014.258-.032l.109-.011.084-.021.022-.012.016-.017-.004-.006-.012-.011-.016-.006-.021-.01-.061-.012-.078-.011-.076-.006-.076-.011-.068-.017-.041-.017.537-.12.094-.028q.061-.023.121-.049l.053-.034.023-.021-.006-.005-.01-.012-.051-.011-.07-.006h-.084l-.17-.01-.07-.012-.045-.011.078-.032q.175-.054.352-.1.1-.035.203-.066l.104-.044.049-.027.045-.027.016-.017.017-.022.016-.016.006-.017-.006-.017-.016-.012-.017-.004h-.152l-.072.004h-.098l-.029-.004-.019-.012-.024-.011q.3-.199.605-.391l.158-.11a3 3 0 0 0 .125-.109l.049-.055.045-.055.033-.06.027-.06.016-.067v-.071h-.037l-.039.006-.086.032a6 6 0 0 1-.232.138l-.043.028-.051.021-.049.017-.045.011-.043.006H24.5l-.043-.017.133-.099q.16-.137.318-.275a10 10 0 0 0 .34-.341l.158-.176q.07-.093.144-.182.059-.084.115-.17l.012-.021.004-.017-.004-.023-.006-.016-.006-.018-.016-.011-.017-.017-.016-.006-.021-.01-.024-.006h-.043l-.021.006-.029.004-.016.018-.023.017q-.168.168-.332.341l-.133.126-.264.226-.127.082-.121.061.037-.033q.06-.057.117-.115.211-.244.406-.5l.254-.357.068-.12.068-.11.055-.1.043-.094.027-.076.006-.027v-.044l-.006-.017-.02-.033-.012-.011-.018-.005-.031-.018-.041-.011h-.075l-.021.006-.016.005-.023.012-.016.016-.045.039a4 4 0 0 0-.143.182q-.165.258-.346.505l-.139.165-.07.072-.076.066.098-.183.154-.323.1-.236.043-.121.076-.248q.029-.12.051-.241.01-.112.018-.226l-.008-.055-.004-.049-.006-.051-.016-.064-.012-.018-.027-.027-.037-.016-.041-.012h-.037l-.035.006-.01.006-.016.004-.006.012c-.099.312-.174.63-.26.945l-.098.264-.082.159-.051.071.033-.158q.024-.137.043-.275l.023-.226.006-.094-.012-.143-.01-.055-.016-.044-.023-.033-.012-.011-.033-.011-.016-.006h-.018l-.016.006-.045.011-.043.022q-.051.255-.121.506a6 6 0 0 1-.23.62 8 8 0 0 1-.188.368l-.121.209-.131.197a9 9 0 0 1-.273.362q-.138.155-.281.308-.148.146-.303.287-.159.131-.322.257a8 8 0 0 1-.408.275l-.242.142-.385.177-.396.142-.328.1-.34.076-.17.028-.348.044-.176.011-.017.006-.017.005-.033.018-.037.026-.127.115-.088.089-.319.356-.121.121-.142.109-.056.038-.055.034-.12.055c-.186.076-.375.145-.562.22l-.049.027-.044.023-.032.021-.061.061-.017.027-.012.027-.004.039v.028"/><path d="m19.441 23.375.092.012.045.017.01.005v.006h-.01l-.012.005-.088.017h-.07l-.23-.017-.583-.011q-.231.003-.462.011-.203.015-.407.033l-.105.017-.093.021q-.032.012-.065.022l-.028.012-.022.017.01-.056.024-.056-.077.022-.066.033-.026.017-.023.022-.017.026-.004.028-.016-.038-.012-.034-.012-.071q.01-.043.016-.087l.018-.028.01-.022.023-.026.044-.044.06-.039.068-.038a.5.5 0 0 0 .114.049.3.3 0 0 0 .117-.011c.061.054.219.043.241-.055a.24.24 0 0 0 0-.11l.066-.005.077-.012.17-.044.089-.017.082-.021.077-.011.065-.006-.027.023-.143.109-.054.038.07.018.061.011-.13.148-.034.044.043.017.044.012.05.011h.099l.098-.022.039-.023.045.023.044.017q.042.012.086.022l.205.021h.414m-.501-1.672-.049.099-.056.127a3 3 0 0 0-.081.158l-.028.028-.065-.055-.072-.05-.077-.039-.081-.032-.177-.045-.087-.016a7 7 0 0 0-.286-.027 6 6 0 0 1-.379-.018l-.176-.021-.099-.017-.093-.021-.098-.034-.083-.043-.061-.04-.126-.093c-.184-.173-.366-.348-.555-.517l-.109-.076-.05-.022-.052-.016-.093-.021-.164-.055-.155-.071a3 3 0 0 1-.263-.182l-.055-.051-.109-.109-.105-.115c-.173-.211-.336-.429-.505-.643a10 10 0 0 0-.247-.253l-.071-.065-.072-.06-.158-.115-.016.005-.018.017-.017.022q-.015.038-.026.077l-.006.022-.04-.018-.033-.017-.04-.017-.033-.011h-.071l-.039.011-.038.017q.045.057.087.115l.049.077.089.17.032.083.012.044.012.033.005.038v.032h-.296l.043.066q.05.067.103.132l.182.182.061.049.056.039-.143.012-.144.016.049.045q.064.045.127.093l.071.049.072.044.071.039.066.022.061.016.049.011.016.006.012.012.004.005v.021l-.016.045-.004.032-.007.022v.016l.007.028.004.022.012.01.016.012.021.011.028.006.056.022.027.01.022.017.005.006v.011l-.005.006-.044.032-.022.022-.022.027v.023l-.005.022.011.059.192.066.044.01.044.018.033.017.028.017-.182.143.049.044.061.033.077.038q.082.03.166.056l.082.016.072.017h.065l-.061.044-.077.049-.082.045-.061.044.055.038q.25.13.512.237.457.185.928.329.105.025.208.055l.088.017-.177-.017a8 8 0 0 1-.329-.05l-.154-.033-.303-.087-.142-.05c-.38-.148-.751-.318-1.132-.462l.028-.016.077-.028.049-.011q.1-.03.198-.066a7 7 0 0 1-.391-.07 5 5 0 0 0-.203-.061l-.039-.017-.033-.017-.027-.018-.018-.016v-.005l.006-.006.017-.006.016-.011.044-.017.192-.056.111-.038q-.239-.045-.479-.082l-.077-.018-.061-.021-.022-.012-.021-.017-.018-.01-.011-.018.017-.011.049-.011q.077-.012.154-.027l.088-.011q.075-.021.148-.045l.023-.016.022-.018-.087-.033-.056-.01-.055-.012-.252-.033-.066-.016-.061-.012-.121-.043-.056-.028-.045-.032-.044-.039-.033-.049.012-.006.021-.006h.028l.044.006.209.011.122.012h.153l.043-.006.034-.011.022-.012a9 9 0 0 1-.308-.132 6 6 0 0 0-.204-.099l-.208-.109-.099-.061-.181-.132-.077-.066-.034-.038-.034-.033-.021-.033-.023-.039-.022-.032-.012-.038-.009-.071h.037l.044.005.044.018.044.016.087.055.099.055.044.028.049.026.049.022.044.017.049.012.044.005h.05l.043-.017-.13-.1a14 14 0 0 1-.319-.273 9 9 0 0 1-.501-.518l-.07-.093-.072-.088-.116-.171-.01-.022v-.038l.005-.017.005-.016.017-.011.016-.017.018-.012.021-.006.022-.004h.044l.027.004.024.006.021.017q.178.177.351.358.19.183.396.352l.126.081.065.034.061.021-.043-.027-.115-.115q-.21-.244-.407-.5l-.171-.242a7 7 0 0 0-.154-.236 5 5 0 0 1-.121-.209l-.07-.17-.007-.027v-.045l.007-.016.021-.033.012-.012.017-.01.071-.023h.077l.022.005.016.006.022.012.061.055.143.182q.168.258.352.505l.13.165.072.071.077.066a13 13 0 0 1-.252-.504l-.099-.236-.044-.121a4 4 0 0 0-.077-.248l-.027-.121-.02-.123-.012-.115-.005-.109.005-.055.007-.05.005-.05.011-.049.011-.018.006-.016.016-.018.011-.01.038-.017.039-.01h.038l.033.006.016.004.012.006.006.012.006.016c.094.307.171.619.252.93q.048.13.1.258l.038.082.044.077.049.077-.032-.16a6 6 0 0 0-.044-.273 9 9 0 0 1-.027-.319l.011-.143.011-.056.017-.043.022-.033.011-.012.016-.011.016-.005h.05l.045.016.043.022.077.346q.042.158.093.313.084.236.182.467l.077.159.11.21.12.208.133.198.142.197.133.165q.138.156.28.308.149.146.303.285l.159.133q.219.171.451.324.182.108.368.209l.378.182q.288.114.582.208.288.077.583.132.396.062.804.078"/></g><g fill="#ffcc4d"><path d="M3.457 28.522s-.237.197-.317.098c-.129-.16.397-.959.397-1.241 0-.461-.309-.589-.689-.654-.256-.044-.671.019-.671.019.078.105.129.138.261.144a.55.55 0 0 0-.296.501c0 .396.164.56.164 1.009 0 .249-.204.565-.204.565.36-.036.54-.369.438-.637a.17.17 0 0 1 .154.047c.026-.073-.015-.16-.071-.233.045-.023.078-.009.149.005-.007-.076-.053-.156-.164-.232.324.083.523-.142.523-.378 0-.18-.125-.308-.248-.308a.26.26 0 0 0-.131.041c-.023-.048-.011-.114.012-.163-.089.023-.146.076-.105.188a.22.22 0 0 0-.161.074.2.2 0 0 0 .161.072c-.05.104.006.163.087.209 0 0-.052-.209.081-.209.06 0 .114.021.114.108 0 .075-.067.181-.221.175-.155-.007-.28-.107-.28-.352 0-.229.183-.342.424-.349.218-.007.382.111.382.336 0 .298-.432.98-.432 1.246 0 .2.179.311.355.311.228 0 .42-.226.42-.226zm-.05-5.402c0-.498.448-.755.8-.755.474 0 .727.284.727.654 0 .212-.039.344-.136.545l-1.087 2.257a.7.7 0 0 0-.051.3c0 .202.197.368.403.373.187.005.392-.175.392-.38 0-.249-.128-.359-.261-.359-.163 0-.228.066-.228.181 0 .081.039.115.094.115.14 0 .101-.188.101-.188a.13.13 0 0 1 .094.176.25.25 0 0 1 .135.079.25.25 0 0 1-.135.074c.033.108-.011.161-.105.184a.2.2 0 0 0 .013-.116c-.149.042-.377-.024-.377-.282 0-.256.177-.471.51-.418-.08-.036-.119-.113-.127-.201.06.025.127.028.127.028-.039-.068-.093-.127-.091-.263.062.029.119.08.198.047-.124-.243.028-.577.416-.658a.8.8 0 0 0-.211.524c0 .58.162.676.162 1.078a.6.6 0 0 1-.258.474v-.007c.112.03.185.087.227.162-.259.073-.636.072-.837-.007a.62.62 0 0 1-.443-.295.9.9 0 0 1 0-.714c.154-.321.88-1.86 1.106-2.345a.8.8 0 0 0 .077-.33c0-.295-.271-.399-.425-.399-.185 0-.373.142-.373.316 0 .112.061.178.147.178.209 0 .196-.177.154-.289.129.06.205.162.184.272.074.01.144.045.208.117-.051.066-.113.114-.208.115.042.17-.072.242-.184.281.035-.124.058-.269-.154-.269-.155 0-.277-.027-.348-.128-.005.135-.018.665-.018.665-.008.2.267.194.442.135-.067.23-.202.355-.517.323a.25.25 0 0 1 .158.241c0 .188-.152.395-.251.457z"/><path d="M3.506 23.12c0-.498-.448-.755-.8-.755-.474 0-.727.284-.727.654 0 .212.039.344.136.545l1.087 2.257a.7.7 0 0 1 .05.3c0 .202-.197.368-.402.373-.188.005-.392-.175-.392-.38 0-.249.128-.359.261-.359.163 0 .228.066.228.181 0 .081-.039.115-.094.115-.14 0-.101-.188-.101-.188a.13.13 0 0 0-.094.176.25.25 0 0 0-.135.079.25.25 0 0 0 .135.074c-.032.108.012.161.106.183a.2.2 0 0 1-.013-.116c.149.042.377-.024.377-.282 0-.256-.177-.471-.509-.418.079-.036.119-.113.126-.201a.4.4 0 0 1-.126.028c.038-.068.092-.127.09-.263-.062.029-.118.08-.198.047.124-.243-.028-.577-.416-.658a.8.8 0 0 1 .211.524c0 .58-.161.676-.161 1.078 0 .168.087.351.258.474v-.007a.34.34 0 0 0-.227.162c.259.073.635.072.837-.007a.62.62 0 0 0 .443-.295.9.9 0 0 0 0-.714c-.154-.321-.88-1.86-1.106-2.345a.8.8 0 0 1-.077-.33c0-.295.271-.399.425-.399.185 0 .373.142.373.316 0 .112-.061.178-.147.178-.209 0-.196-.177-.155-.289-.129.06-.205.162-.184.272a.34.34 0 0 0-.208.117c.051.066.113.114.208.115-.042.17.072.242.184.281-.035-.124-.058-.269.155-.269.155 0 .277-.027.348-.128l.018.665c.008.2-.268.194-.443.135.066.229.202.354.516.322a.25.25 0 0 0-.158.241c0 .188.151.395.251.457zm-.049 5.402s.237.197.317.098c.129-.16-.397-.959-.397-1.241 0-.461.309-.589.689-.654.256-.044.672.019.672.019-.079.105-.129.138-.261.144a.56.56 0 0 1 .296.501c0 .396-.164.56-.164 1.009 0 .249.204.565.204.565-.36-.036-.54-.369-.438-.637a.18.18 0 0 0-.154.047c-.026-.073.016-.16.071-.233-.045-.023-.078-.009-.149.005.007-.076.052-.156.164-.232-.324.083-.523-.142-.523-.378 0-.18.125-.308.248-.308.04 0 .098.017.131.041.023-.048.011-.114-.013-.163.09.023.146.076.106.188a.22.22 0 0 1 .161.074.2.2 0 0 1-.161.072c.05.104-.006.163-.087.209 0 0 .052-.209-.081-.209-.06 0-.114.021-.114.108 0 .075.067.181.221.175s.279-.107.279-.352c0-.229-.183-.342-.424-.349-.218-.007-.382.111-.382.336 0 .298.432.98.432 1.246 0 .2-.179.311-.355.311-.228 0-.42-.226-.42-.226zm-.05-14.145c0-.5.448-.756.8-.756.474 0 .727.284.727.655 0 .211-.039.343-.136.544l-1.087 2.258a.7.7 0 0 0-.051.299c0 .203.197.368.403.374.187.004.392-.176.392-.38 0-.248-.128-.359-.261-.359-.163 0-.228.067-.228.182 0 .079.039.114.094.114.14 0 .101-.188.101-.188a.13.13 0 0 1 .094.174.25.25 0 0 1 .135.08.26.26 0 0 1-.135.075c.033.108-.011.16-.105.183a.2.2 0 0 0 .013-.116c-.149.042-.377-.024-.377-.282 0-.255.177-.47.51-.417-.08-.038-.119-.115-.127-.201.06.024.127.026.127.026-.039-.068-.093-.127-.091-.262.062.028.119.08.198.047-.124-.244.028-.579.416-.658a.8.8 0 0 0-.211.524c0 .579.162.676.162 1.079 0 .168-.087.35-.258.474v-.007c.11.03.182.085.225.161-.259.074-.636.072-.837-.007a.62.62 0 0 1-.443-.295.9.9 0 0 1 0-.712c.154-.322.88-1.861 1.106-2.346a.8.8 0 0 0 .077-.33c0-.296-.271-.4-.425-.4-.185 0-.373.141-.373.315 0 .112.061.179.147.179.209 0 .196-.178.154-.289.129.058.205.162.184.272.074.01.144.044.208.118-.051.064-.113.112-.208.114.042.171-.072.243-.184.282.035-.124.058-.268-.154-.268-.155 0-.277-.027-.348-.127-.005.134-.018.665-.018.665-.008.199.267.194.442.134-.065.23-.2.354-.515.322a.25.25 0 0 1 .158.242c0 .187-.152.395-.251.456z"/><path d="M3.506 14.377c0-.5-.448-.756-.8-.756-.474 0-.727.284-.727.655 0 .211.039.343.136.544l1.087 2.258c.038.079.05.168.05.299 0 .203-.197.368-.402.374-.188.004-.392-.176-.392-.38 0-.248.128-.359.261-.359.163 0 .228.067.228.182 0 .079-.039.114-.094.114-.14 0-.101-.188-.101-.188a.128.128 0 0 0-.094.174.25.25 0 0 0-.135.08.26.26 0 0 0 .135.075c-.032.108.011.16.105.183a.2.2 0 0 1-.013-.116c.149.042.377-.024.377-.282 0-.255-.177-.47-.509-.417.079-.038.119-.115.126-.201-.06.024-.126.026-.126.026.038-.068.092-.127.09-.262-.062.028-.118.08-.198.047.124-.244-.028-.579-.416-.658a.8.8 0 0 1 .211.524c0 .579-.161.676-.161 1.079 0 .168.087.35.258.474v-.007q-.165.046-.225.161c.259.074.635.072.837-.007a.62.62 0 0 0 .443-.295.9.9 0 0 0 0-.712c-.154-.322-.88-1.861-1.106-2.346a.8.8 0 0 1-.077-.329c0-.296.271-.4.425-.4.185 0 .373.141.373.315 0 .112-.061.179-.147.179-.209 0-.196-.178-.155-.289-.129.058-.205.162-.184.272a.33.33 0 0 0-.208.118c.051.064.113.112.208.114-.042.171.072.243.184.282-.035-.124-.058-.268.155-.268.155 0 .277-.027.348-.127l.017.663c.008.199-.268.194-.443.134.066.23.202.354.516.323a.25.25 0 0 0-.158.242c0 .187.151.395.251.456z"/><path d="M3.506 12.879c0 .499-.448.756-.8.756-.474 0-.727-.284-.727-.656 0-.21.039-.342.136-.544l1.087-2.258a.7.7 0 0 0 .05-.299c0-.202-.197-.368-.402-.373-.188-.004-.392.175-.392.38 0 .249.128.359.261.359.163 0 .228-.067.228-.182 0-.08-.039-.114-.094-.114-.14 0-.101.188-.101.188a.13.13 0 0 1-.094-.175.24.24 0 0 1-.135-.079.26.26 0 0 1 .135-.074c-.032-.108.012-.16.106-.183a.2.2 0 0 0-.013.116c.149-.042.377.026.377.282s-.177.47-.509.417c.079.038.119.115.126.201a.5.5 0 0 0-.126-.026c.038.068.092.127.09.262-.062-.028-.118-.08-.198-.047.124.244-.028.579-.416.659a.8.8 0 0 0 .211-.525c0-.578-.161-.676-.161-1.078 0-.168.087-.35.258-.474v.007a.34.34 0 0 1-.226-.163c.259-.073.635-.072.837.008a.62.62 0 0 1 .443.296.9.9 0 0 1 0 .712c-.154.322-.88 1.861-1.106 2.345a.8.8 0 0 0-.077.329c0 .297.271.4.425.4.185 0 .373-.141.373-.316 0-.111-.061-.179-.147-.179-.209 0-.196.177-.155.289-.129-.058-.205-.162-.184-.272a.33.33 0 0 1-.208-.118c.051-.064.113-.113.208-.114-.042-.17.072-.243.184-.283-.035.125-.058.27.155.27.155 0 .277.026.348.127l.018-.666c.008-.199-.268-.193-.443-.134.066-.23.202-.354.516-.323a.25.25 0 0 1-.158-.242c0-.187.151-.395.251-.456zm0 8.744c0 .499-.448.755-.8.755-.474 0-.727-.283-.727-.654a1.1 1.1 0 0 1 .136-.544l1.087-2.258a.7.7 0 0 0 .05-.299c0-.203-.197-.368-.402-.373-.188-.005-.392.175-.392.379 0 .248.128.359.261.359.163 0 .228-.067.228-.182 0-.079-.039-.113-.094-.113-.14 0-.101.188-.101.188a.13.13 0 0 1-.094-.175.24.24 0 0 1-.135-.08.25.25 0 0 1 .135-.074c-.032-.109.011-.161.105-.184a.2.2 0 0 0-.013.116c.149-.042.377.025.377.282 0 .255-.177.469-.509.417.079.039.119.115.126.202-.06-.023-.126-.027-.126-.027.038.068.092.128.09.262-.062-.028-.118-.08-.198-.047.124.243-.028.58-.416.658a.8.8 0 0 0 .211-.524c0-.577-.161-.676-.161-1.078 0-.169.087-.351.258-.474v.006q-.165-.044-.225-.161c.259-.073.635-.072.837.008a.62.62 0 0 1 .443.295.9.9 0 0 1 0 .712c-.154.322-.88 1.861-1.106 2.346a.8.8 0 0 0-.077.329c0 .296.271.399.425.399.185 0 .373-.141.373-.316 0-.109-.061-.177-.147-.177-.209 0-.196.177-.155.288-.129-.058-.205-.163-.184-.272a.33.33 0 0 1-.208-.117.27.27 0 0 1 .208-.115c-.042-.17.072-.241.184-.281-.035.125-.058.269.155.269.155 0 .277.026.348.128l.018-.666c.008-.198-.268-.193-.443-.134.066-.229.202-.353.516-.322a.25.25 0 0 1-.158-.242c0-.187.151-.394.251-.456z"/><path d="M3.407 21.623c0 .499.448.755.8.755.474 0 .727-.283.727-.654a1.1 1.1 0 0 0-.136-.544l-1.087-2.258a.7.7 0 0 1-.051-.299c0-.203.197-.368.403-.373.187-.005.392.175.392.379 0 .248-.128.359-.261.359-.163 0-.228-.067-.228-.182 0-.079.039-.113.094-.113.14 0 .101.188.101.188a.13.13 0 0 0 .094-.175.24.24 0 0 0 .135-.08.25.25 0 0 0-.135-.074c.033-.109-.011-.161-.105-.184.019.042.019.08.013.116-.149-.042-.377.025-.377.282 0 .255.177.469.51.417-.08.039-.119.115-.127.202.06-.023.127-.027.127-.027-.039.068-.093.128-.091.262.062-.028.119-.08.198-.047-.124.243.028.58.416.658a.8.8 0 0 1-.211-.524c0-.577.162-.676.162-1.078a.6.6 0 0 0-.258-.474v.006a.34.34 0 0 0 .227-.162c-.259-.073-.636-.072-.837.008a.62.62 0 0 0-.443.295.9.9 0 0 0 0 .712c.154.322.88 1.861 1.106 2.346.048.102.077.21.077.329 0 .296-.271.399-.425.399-.185 0-.373-.141-.373-.316 0-.109.061-.177.147-.177.209 0 .196.177.154.288.129-.058.205-.163.184-.272a.32.32 0 0 0 .208-.117.27.27 0 0 0-.208-.115c.042-.17-.072-.241-.184-.281.035.125.058.269-.154.269-.155 0-.277.026-.348.128-.005-.134-.018-.666-.018-.666-.008-.198.267-.193.442-.134-.067-.229-.202-.353-.517-.322a.25.25 0 0 0 .158-.242c0-.187-.152-.394-.251-.456zm.05-14.144s.237-.199.317-.1c.129.161-.397.96-.397 1.242 0 .462.309.587.689.653.256.045.672-.018.672-.018-.08-.105-.13-.136-.262-.144a.55.55 0 0 0 .296-.499c0-.398-.164-.562-.164-1.01 0-.249.204-.566.204-.566-.36.037-.54.37-.438.637a.17.17 0 0 1-.153-.047c-.026.074.016.16.071.234-.045.024-.078.009-.149-.006.007.077.052.157.164.233-.325-.084-.524.142-.524.379 0 .179.125.306.248.306.04 0 .098-.016.131-.041.023.049.011.115-.013.164.09-.023.146-.077.106-.188a.23.23 0 0 0 .161-.074.2.2 0 0 0-.162-.073c.05-.104-.006-.162-.087-.208 0 0 .052.208-.081.208-.06 0-.114-.02-.114-.107 0-.076.067-.182.221-.175.154.006.279.106.279.353 0 .227-.183.339-.424.347-.217.006-.381-.112-.381-.336 0-.299.432-.979.432-1.246 0-.2-.179-.312-.355-.312-.228 0-.42.226-.42.226z"/><path d="M3.457 7.479s-.237-.199-.317-.1c-.13.162.397.961.397 1.243 0 .462-.309.587-.689.653-.256.044-.671-.019-.671-.019.078-.105.129-.136.261-.144a.55.55 0 0 1-.297-.499c0-.398.164-.562.164-1.01 0-.249-.204-.566-.204-.566.36.037.54.37.438.637a.18.18 0 0 0 .154-.047c.026.074-.015.16-.071.234.044.024.077.009.149-.006-.007.077-.053.157-.164.233.324-.084.523.142.523.379 0 .179-.125.306-.248.306a.25.25 0 0 1-.131-.041c-.022.05-.01.115.013.164-.089-.023-.145-.077-.105-.187a.23.23 0 0 1-.161-.074.2.2 0 0 1 .161-.074c-.05-.104.006-.162.087-.208 0 0-.052.208.081.208.06 0 .114-.02.114-.107 0-.076-.067-.182-.221-.175-.155.006-.28.106-.28.352 0 .227.183.339.424.347.218.006.382-.111.382-.336 0-.299-.432-.979-.432-1.246 0-.2.179-.312.355-.312.228 0 .42.226.42.226zm-.05 5.4c0 .499.448.756.8.756.474 0 .727-.284.727-.656 0-.21-.039-.342-.136-.544l-1.087-2.258a.7.7 0 0 1-.05-.298c0-.202.197-.368.403-.373.187-.004.392.175.392.38 0 .249-.128.359-.261.359-.163 0-.228-.067-.228-.182 0-.08.039-.114.094-.114.14 0 .101.188.101.188a.13.13 0 0 0 .094-.175.24.24 0 0 0 .134-.08.26.26 0 0 0-.136-.074c.033-.108-.011-.16-.105-.183.019.042.019.08.013.116-.149-.042-.377.025-.377.282 0 .255.177.47.51.417-.08.038-.119.115-.127.201a.5.5 0 0 1 .127-.026c-.039.068-.093.127-.091.262.062-.028.119-.08.198-.047-.124.244.028.579.416.659a.8.8 0 0 1-.211-.525c0-.578.162-.676.162-1.078a.6.6 0 0 0-.258-.474v.007a.35.35 0 0 0 .227-.163c-.26-.072-.637-.071-.839.009a.62.62 0 0 0-.442.295.9.9 0 0 0 0 .712c.154.322.88 1.861 1.106 2.345a.8.8 0 0 1 .077.329c0 .297-.271.4-.425.4-.185 0-.373-.141-.373-.316 0-.111.061-.179.147-.179.209 0 .196.177.154.289.129-.058.205-.162.184-.272a.33.33 0 0 0 .208-.118c-.051-.064-.113-.113-.208-.114.042-.17-.072-.243-.184-.283.035.125.058.27-.154.27-.155 0-.277.026-.348.127-.005-.134-.018-.666-.018-.666-.008-.199.267-.193.442-.134-.065-.228-.2-.352-.515-.321a.25.25 0 0 0 .158-.242c0-.187-.152-.395-.251-.456z"/></g></svg>