<svg xmlns="http://www.w3.org/2000/svg" viewBox="0 0 36 36"><path fill="#ffe150" d="M32 5H4q-.308 0-.604.045l-.004 1.754-2.73-.004A4 4 0 0 0 0 9v18a4 4 0 0 0 4 4h28a4 4 0 0 0 4-4V9a4 4 0 0 0-4-4"/><path fill="#00247d" d="M19 18V5H4c-.32 0-.604.045-.604.045l-.004 1.754-2.73-.004S.62 6.854.535 7A4 4 0 0 0 0 9v9z"/><path fill="#eee" d="M19 5h-2.331L12 8.269V5H7v2.569L3.396 5.045a3.94 3.94 0 0 0-1.672.665L6.426 9H4.69L.967 6.391a4 4 0 0 0-.305.404L3.813 9H0v5h3.885L0 16.766V18h3.332L7 15.432V18h5v-3.269L16.668 18H19v-2.029L16.185 14H19V9h-2.814L19 7.029z"/><path fill="#cf1b2b" d="M11 5H8v5H0v3h8v5h3v-5h8v-3h-8z"/><path fill="#cf1b2b" d="M19 5h-1.461L12 8.879V9h1.571L19 5.198zm-17.276.71a4 4 0 0 0-.757.681L4.69 9h1.735zM6.437 14 .734 18h1.727L7 14.822V14zM19 17.802v-1.22L15.313 14H13.57z"/><circle cx="9.5" cy="11.5" r="2.5" fill="#004a77"/><path fill="#ffe150" d="m9.5 8.966.599 1.6 1.824.038-1.454 1.225.529 1.746L9.5 12.533l-1.498 1.042.529-1.746-1.454-1.225 1.824-.038zm-5.676 1.519.246.707.748.016-.596.452.216.716-.614-.427-.614.427.217-.716-.597-.452.749-.016zm11.352 0 .246.707.748.016-.596.452.216.716-.614-.427-.614.427.216-.716-.596-.452.748-.016zM9.5 5.821l.246.707.748.016-.596.452.216.716-.614-.427-.614.427.217-.716-.597-.452.748-.016zm0 9.467.246.707.748.015-.596.452.216.717-.614-.428-.614.428.217-.717-.597-.452.748-.015z"/></svg>