<svg xmlns="http://www.w3.org/2000/svg" viewBox="0 0 36 36"><path fill="#060" d="M36 27a4 4 0 0 1-4 4H4a4 4 0 0 1-4-4V9a4 4 0 0 1 4-4h28a4 4 0 0 1 4 4z"/><path fill="#d52b1e" d="M32 5H15v26h17a4 4 0 0 0 4-4V9a4 4 0 0 0-4-4"/><path fill="#ffcc4d" d="M15 10a8 8 0 0 0-8 8 8 8 0 1 0 16 0 8 8 0 0 0-8-8m-6.113 4.594 1.602 1.602-2.46 1.23a6.95 6.95 0 0 1 .858-2.832m-.858 3.979 4.4 2.207-2.706 1.804.014.021a6.96 6.96 0 0 1-1.708-4.032M14 24.92a6.95 6.95 0 0 1-2.592-.92H14zM14 23h-3.099L14 20.934zm0-3.268-.607.405L9.118 18l2.116-1.058L14 19.707zm0-1.439-3.543-3.543 3.543.59zm0-3.992-4.432-.713A6.98 6.98 0 0 1 14 11.08zm7.113.293a6.95 6.95 0 0 1 .858 2.833l-2.46-1.23zM16 11.08a7 7 0 0 1 4.432 2.508L16 14.301zm0 4.26 3.543-.591L16 18.293zm0 4.367 2.765-2.765L20.882 18l-4.274 2.137-.608-.405zm0 5.213V24h2.592a6.95 6.95 0 0 1-2.592.92M16 23v-2.066L19.099 23zm4.264-.395.014-.021-2.706-1.804 4.4-2.207a6.98 6.98 0 0 1-1.708 4.032"/><path fill="#d52b1e" d="M11 13v7a4 4 0 0 0 8 0v-7z"/><path fill="#fff" d="M12 14v6a3 3 0 0 0 6 0v-6z"/><path fill="#829acd" d="M13 17h4v2h-4z"/><path fill="#829acd" d="M14 16h2v4h-2z"/><path fill="#039" d="M12 17h1v2h-1zm2 0h2v2h-2zm3 0h1v2h-1zm-3 3h2v2h-2zm0-6h2v2h-2z"/></svg>