<svg xmlns="http://www.w3.org/2000/svg" viewBox="0 0 36 36"><path fill="#0038a8" d="M0 27a4 4 0 0 0 4 4h28a4 4 0 0 0 4-4v-4H0z"/><path fill="#eee" d="M0 13h36v10H0z"/><path fill="#d52b1e" d="M32 5H4a4 4 0 0 0-4 4v4h36V9a4 4 0 0 0-4-4"/><path d="M22 18a4 4 0 1 1-8 0 4 4 0 0 1 8 0"/><path fill="#eee" d="M21.75 18a3.75 3.75 0 1 1-7.501-.001A3.75 3.75 0 0 1 21.75 18"/><path d="M21.25 18a3.25 3.25 0 1 1-6.5 0 3.25 3.25 0 0 1 6.5 0"/><path fill="#eee" d="M21.126 18a3.125 3.125 0 1 1-6.25.002 3.125 3.125 0 0 1 6.25-.002"/><path fill="#99aab5" d="M21.132 17.98a3.132 3.132 0 1 0-5.841 1.573l2.712-1.491 2.707 1.491c.268-.463.422-1 .422-1.573"/><path d="M20.5 18a2.5 2.5 0 1 1-5 0 2.5 2.5 0 0 1 5 0"/><circle cx="18" cy="18" r="2.4" fill="#eee"/><path fill="#ffac33" d="m18 17.182.184.565h.594l-.481.35.183.565-.48-.349-.48.349.183-.565-.481-.35h.594z"/><path fill="#007127" d="M18.497 16.517s.3-.07.476-.088.334.388.545.458c.214.072.212.282.3.529s.035.299.035.581.158.423.123.634-.211.264-.316.405-.018.317-.124.423c-.105.105-.458.088-.581.194-.123.105-.352.264-.511.176-.158-.088-.493-.123-.493-.123s.088-.317.335-.423.352-.088.581-.158.211-.177.37-.317c.158-.141.176-.335.264-.476s.106-.247.071-.441a3.3 3.3 0 0 0-.177-.582c-.07-.176-.229-.387-.335-.511-.105-.123-.563-.281-.563-.281"/><path fill="#007127" d="M17.405 16.622s.175-.383 0-.405c-.705-.088-.846.546-1.057.616-.213.072-.247.423-.334.669s-.053.299-.053.582c0 .282.005.334.041.546.035.211.083.37.188.511.106.141.146.211.252.316.105.105.312.212.435.317s.498.141.657.053c.158-.088.435-.123.435-.123s-.118-.212-.364-.317c-.247-.105-.264-.193-.493-.264s-.211-.177-.37-.317c-.158-.141-.176-.335-.264-.476s-.041-.176-.005-.37c.035-.194.105-.352.176-.528s.247-.405.352-.528.404-.282.404-.282"/><path fill="#007127" d="m17.423 19.863.229.158.299-.211.282.194.37-.141-.37.265-.264-.212-.282.194-.282-.159z"/></svg>