<svg viewBox="0 0 36 36" xmlns="http://www.w3.org/2000/svg"><path d="M32 5h-8v26h8a4 4 0 004-4V9a4 4 0 00-4-4z" fill="#dd2e44"/><path d="M4 5a4 4 0 00-4 4v18a4 4 0 004 4h8V5z" fill="#265fb5"/><path d="M12 5h12v26H12z" fill="#ffcc4d"/><path d="M16 15h4v3h-4z" fill="#dd2e44"/><path d="M16 18v2l2 1 2-1v-2z" fill="#269"/><path d="M16 11v1h1v2h2v-3zm3 10l-1 .625L17 21l-1 3 2 1 2-1zm-4-8l-1-1-1 1v10l2-2v-7h1zm7-1l-1 1-1 1h1v7l2 2V13z" fill="#a0724a"/><path d="M16.234 17.594h.531V18h-.531zm3 0h.531V18h-.531z" fill="#ffcc4d"/><path d="M15.637 22.743c-.106.062-.263-.01-.35-.159l-2.232-3.866c-.086-.15-.07-.321.037-.383l.136-.078c.106-.062.263.01.349.159l2.232 3.867c.087.149.07.32-.036.382z" fill="#77b255"/><path d="M22.817 18.393c.107.061.125.23.039.377l-2.191 3.798c-.086.147-.24.216-.348.155l-.135-.078c-.106-.062-.124-.23-.039-.378l2.192-3.798c.085-.146.24-.217.347-.154z" fill="#ffcc4d"/><path d="M16 21l-1 1v1l1-1zm4 0v1l1 1v-1z" fill="#dd2e44"/><path d="M18 17l-1-1v2.958L18 20l1-1.042V16z" fill="#ffcc4d"/></svg>