<svg xmlns="http://www.w3.org/2000/svg" viewBox="0 0 36 36"><path fill="#cf142b" d="M32 5H18v26h14a4 4 0 0 0 4-4V9a4 4 0 0 0-4-4"/><path fill="#eee" d="M4 5a4 4 0 0 0-4 4v18a4 4 0 0 0 4 4h14V5z"/><path fill="#cf142b" d="M1.654 9.656h8.691v2.688H1.654z"/><path fill="#cf142b" d="M4.656 6.654h2.688v8.691H4.656z"/><g fill="#cf142b"><circle cx="4.71" cy="12.271" r=".921"/><circle cx="7.355" cy="12.271" r=".921"/><circle cx="4.71" cy="9.824" r=".921"/><circle cx="7.355" cy="9.824" r=".921"/></g><g fill="#99aab5"><circle cx="4.708" cy="12.271" r=".708"/><circle cx="7.355" cy="12.271" r=".708"/><circle cx="4.708" cy="9.824" r=".708"/><circle cx="7.355" cy="9.824" r=".708"/></g><circle cx="6.032" cy="11.032" r="1.817" fill="#ccd6dd"/><path fill="#ccd6dd" d="M5 7h2v8H5z"/><path fill="#ccd6dd" d="M2 10h8v2H2z"/><circle cx="6.032" cy="11.083" r="1.204" fill="#b2c0c9"/><path fill="#99aab5" d="M6.647 11.023q.023-.025.048-.047l.009-.007q.063.033.123.072c.08.049.334-.066.219-.137-.099-.061-.198-.132-.32-.111a.5.5 0 0 0-.238.122q-.01-.093-.029-.184c.019-.02.03-.042.025-.069-.011-.058.021-.122.041-.175.01-.026-.004-.044-.025-.055q.013-.018.024-.037a1 1 0 0 0 .108.031.26.26 0 0 0 .195-.052c.046-.036.031-.073-.022-.083-.094-.019-.181-.067-.269-.105-.058-.025-.143.001-.194.029-.033.018-.084.066-.031.092-.006.006-.013.22-.016.227-.044.095-.118-.534-.169.466h-.018c-.017 0-.141-.345-.134-.414.074-.015.026-.264.026-.315v-.029c0-.015.113-.025.105-.033.03-.019.117-.045.09-.067-.042-.035-.1-.011-.146.007-.014-.007-.014-.012-.028-.014-.01-.002-.013 0-.023 0 .054-.022.1-.058.086-.099-.008-.025-.014-.045 0-.07.067-.116-.21-.09-.257-.009a.18.18 0 0 0-.017.153c.012.038.061.051.113.046a.16.16 0 0 0-.068.065l-.003.009a.3.3 0 0 0-.119.025c-.161.069-.331.119-.482.209-.025.015-.094.063-.031.083a.24.24 0 0 0 .131-.007q.001.01.006.019a.45.45 0 0 0 .154.126c.061.03.142.013.196-.023.036-.023.075-.081.03-.112.017-.025.043-.043.068-.061a1 1 0 0 0 .027.184.1.1 0 0 0 .023.038.3.3 0 0 0-.09.034c-.033.02-.072.065-.042.096a.8.8 0 0 0-.205.062c-.025.011-.08.043-.085.078l-.096.012c-.051.008-.135.032-.153.09a.4.4 0 0 0-.072.011c-.059.008-.17.034-.175.086-.008.092.038.167.078.245a.25.25 0 0 0-.074.132c-.024.119.256.077.277-.029.003-.016.005-.032.019-.042.035-.025.07-.074.039-.108q.02-.015.016-.025c-.035-.068-.072-.134-.077-.21a.2.2 0 0 0 .047.01.5.5 0 0 0 .171.26c.018.016.051.018.087.013a.1.1 0 0 0-.034.042 1 1 0 0 0-.059.263c-.004.037.024.073.06.082a.8.8 0 0 1 .303.154c.097.074.339-.062.213-.159a1 1 0 0 0-.288-.159.6.6 0 0 1 .035-.15.1.1 0 0 0 .007-.047.4.4 0 0 0 .065-.031c.178-.108.396-.131.587-.218-.008.028.009.055.049.064.082.019.231.018.258.112.027.095-.005.209.056.293.056.078.323-.016.256-.109-.023-.032-.019-.095-.021-.133-.003-.059-.006-.121-.034-.175-.057-.108-.242-.116-.346-.141-.036-.008-.076-.055-.114-.043.003-.007-.003-.071-.021-.071h-.006c.001 0 .001.048.002.047.061-.004.12.023.159-.024"/></svg>