<svg viewBox="0 0 36 36" xmlns="http://www.w3.org/2000/svg"><path d="M36 27a4 4 0 01-4 4H4a4 4 0 01-4-4V9a4 4 0 014-4h28a4 4 0 014 4z" fill="#060"/><path d="M32 5H15v26h17a4 4 0 004-4V9a4 4 0 00-4-4z" fill="#d52b1e"/><path d="M15 10a8 8 0 00-8 8 8 8 0 1016 0 8 8 0 00-8-8zm-6.113 4.594l1.602 1.602-2.46 1.23a6.95 6.95 0 01.858-2.832zm-.858 3.979l4.4 2.207-2.706 1.804.014.021a6.963 6.963 0 01-1.708-4.032zM14 24.92a6.945 6.945 0 01-2.592-.92H14zM14 23h-3.099L14 20.934zm0-3.268l-.607.405L9.118 18l2.116-1.058L14 19.707zm0-1.439l-3.543-3.543 3.543.59zm0-3.992l-4.432-.713A6.983 6.983 0 0114 11.08zm7.113.293a6.95 6.95 0 01.858 2.833l-2.46-1.23zM16 11.08a6.987 6.987 0 014.432 2.508L16 14.301zm0 4.26l3.543-.591L16 18.293zm0 4.367l2.765-2.765L20.882 18l-4.274 2.137-.608-.405zm0 5.213V24h2.592a6.945 6.945 0 01-2.592.92zM16 23v-2.066L19.099 23zm4.264-.395l.014-.021-2.706-1.804 4.4-2.207a6.976 6.976 0 01-1.708 4.032z" fill="#ffcc4d"/><path d="M11 13v7a4 4 0 008 0v-7z" fill="#d52b1e"/><path d="M12 14v6a3 3 0 006 0v-6z" fill="#fff"/><path d="M13 17h4v2h-4z" fill="#829acd"/><path d="M14 16h2v4h-2z" fill="#829acd"/><path d="M12 17h1v2h-1zm2 0h2v2h-2zm3 0h1v2h-1zm-3 3h2v2h-2zm0-6h2v2h-2z" fill="#039"/></svg>