<svg xmlns="http://www.w3.org/2000/svg" viewBox="0 0 45 45"><defs><clipPath id="a"><path d="M4 31a4 4 0 0 1-4-4V9a4 4 0 0 1 4-4h28a4 4 0 0 1 4 4v18a4 4 0 0 1-4 4H4z"/></clipPath></defs><g clip-path="url(#a)" transform="matrix(1.25 0 0 -1.25 0 45)"><path d="M0 31h36V5H0v26z" fill="#36f"/><path d="M18 18L0 5h36L18 18z" fill="red"/><path d="M0 19.469v-2.975l36 2.975v-2.975L0 19.469z" fill="#ff0"/><path d="M18 18L0 29v2h2l16-13zM34 31h2v-2L18 18l16 13zM18 18l-1.5 13h3L18 18z" fill="#ff0"/></g></svg>