<svg xmlns="http://www.w3.org/2000/svg" viewBox="0 0 36 36"><path fill="#dc241f" d="M32 5H4a4 4 0 0 0-4 4v18a4 4 0 0 0 4 4h28a4 4 0 0 0 4-4V9a4 4 0 0 0-4-4"/><path fill="#ffc726" d="M16 18 1.296 29.947q.118.108.244.207L23.667 18 1.54 5.846a4 4 0 0 0-.244.207z"/><path fill="#141414" d="m1.296 6.053-.002.001A4 4 0 0 0 0 9v18c0 1.166.499 2.216 1.296 2.947L16 18z"/><path fill="#fff" d="m4.761 19.01.492 3.269 1.523-2.934 3.262.542-2.32-2.355 1.523-2.934-2.957 1.478-2.32-2.355.493 3.269L1.5 18.468z"/></svg>