<svg xmlns="http://www.w3.org/2000/svg" viewBox="0 0 36 36"><path fill="#ea0b19" d="M32 5H4a3.98 3.98 0 0 0-2.629.99L6.923 10H36V9a4 4 0 0 0-4-4"/><path fill="#eee" d="M13.846 15H36v-5H6.923z"/><path fill="#ea0b19" d="m18 18-4.154 3H36v-6H13.846z"/><path fill="#eee" d="M6.923 26H36v-5H13.846z"/><path fill="#ea0b19" d="M1.371 30.01c.703.615 1.621.99 2.629.99h28a4 4 0 0 0 4-4v-1H6.923z"/><path fill="#0f55ec" d="M13.846 21 18 18l-4.154-3-6.923-5-5.552-4.01A4 4 0 0 0 0 9v18c0 1.201.532 2.276 1.371 3.01L6.923 26z"/><path fill="#fff" d="m8.187 18.838 2.313-1.675H7.641l-.888-2.726-.89 2.726H3l2.315 1.677-.89 2.723 2.325-1.684 2.325 1.684z"/></svg>