<svg xmlns="http://www.w3.org/2000/svg" viewBox="0 0 36 36"><path fill="#b22334" d="M35.445 7C34.752 5.809 33.477 5 32 5H18v2zM0 25h36v2H0zm18-8h18v2H18zm0-4h18v2H18zM0 21h36v2H0zm4 10h28c1.477 0 2.752-.809 3.445-2H.555c.693 1.191 1.968 2 3.445 2M18 9h18v2H18z"/><path fill="#eee" d="M.068 27.679q.025.14.059.277.04.15.092.296c.089.259.197.509.333.743L.555 29h34.89l.002-.004a4 4 0 0 0 .332-.741 4 4 0 0 0 .152-.576c.041-.22.069-.446.069-.679H0c0 .233.028.458.068.679M0 23h36v2H0zm0-4v2h36v-2H18zm18-4h18v2H18zm0-4h18v2H18zM.555 7l-.003.005zM.128 8.044c.025-.102.06-.199.092-.297a4 4 0 0 0-.092.297M18 9h18c0-.233-.028-.459-.069-.68a3.6 3.6 0 0 0-.153-.576A4 4 0 0 0 35.445 7H18z"/><path fill="#3c3b6e" d="M18 5H4a4 4 0 0 0-4 4v10h18z"/><path fill="#fff" d="m2.001 7.726.618.449-.236.725L3 8.452l.618.448-.236-.725L4 7.726h-.764L3 7l-.235.726zm2 2 .618.449-.236.725.617-.448.618.448-.236-.725L6 9.726h-.764L5 9l-.235.726zm4 0 .618.449-.236.725.617-.448.618.448-.236-.725.618-.449h-.764L9 9l-.235.726zm4 0 .618.449-.236.725.617-.448.618.448-.236-.725.618-.449h-.764L13 9l-.235.726zm-8 4 .618.449-.236.725.617-.448.618.448-.236-.725.618-.449h-.764L5 13l-.235.726zm4 0 .618.449-.236.725.617-.448.618.448-.236-.725.618-.449h-.764L9 13l-.235.726zm4 0 .618.449-.236.725.617-.448.618.448-.236-.725.618-.449h-.764L13 13l-.235.726zm-6-6 .618.449-.236.725L7 8.452l.618.448-.236-.725L8 7.726h-.764L7 7l-.235.726zm4 0 .618.449-.236.725.617-.448.618.448-.236-.725.618-.449h-.764L11 7l-.235.726zm4 0 .618.449-.236.725.617-.448.618.448-.236-.725.618-.449h-.764L15 7l-.235.726zm-12 4 .618.449-.236.725.617-.448.618.448-.236-.725.618-.449h-.764L3 11l-.235.726zM6.383 12.9 7 12.452l.618.448-.236-.725.618-.449h-.764L7 11l-.235.726h-.764l.618.449zm3.618-1.174.618.449-.236.725.617-.448.618.448-.236-.725.618-.449h-.764L11 11l-.235.726zm4 0 .618.449-.236.725.617-.448.618.448-.236-.725.618-.449h-.764L15 11l-.235.726zm-12 4 .618.449-.236.725.617-.448.618.448-.236-.725.618-.449h-.764L3 15l-.235.726zM6.383 16.9 7 16.452l.618.448-.236-.725.618-.449h-.764L7 15l-.235.726h-.764l.618.449zm3.618-1.174.618.449-.236.725.617-.448.618.448-.236-.725.618-.449h-.764L11 15l-.235.726zm4 0 .618.449-.236.725.617-.448.618.448-.236-.725.618-.449h-.764L15 15l-.235.726z"/></svg>