<svg xmlns="http://www.w3.org/2000/svg" viewBox="0 0 36 36"><path fill="#141414" d="M32 5H4a4 4 0 0 0-4 4v3h36V9a4 4 0 0 0-4-4"/><path fill="#078930" d="M0 27a4 4 0 0 0 4 4h28a4 4 0 0 0 4-4v-3H0z"/><path fill="#da121a" d="M0 12h36v12H0z"/><path fill="#eee" d="M0 12h36v2H0zm0 10h36v2H0z"/><path fill="#0f47af" d="M1.351 6.004C.522 6.737 0 7.808 0 9.267v18c0 .926.522 1.997 1.351 2.729L17.5 18z"/><path fill="#fcdd09" d="m8.249 17.917 1.777-2.446-2.875.934-1.776-2.445v3.023l-2.875.934 2.875.934v3.022l1.776-2.445 2.875.934z"/></svg>