<svg xmlns="http://www.w3.org/2000/svg" viewBox="0 0 36 36"><path fill="#0038a8" d="M0 27a4 4 0 0 0 4 4h28a4 4 0 0 0 4-4v-1H0zm0-8h36v4H0z"/><path fill="#eee" d="M0 23h36v3H0z"/><path fill="#0038a8" d="M36 9a4 4 0 0 0-4-4H16v4zm-20 3h20v4H16z"/><path fill="#eee" d="M16 9V5H4a4 4 0 0 0-4 4v10h36v-3H16v-4h20V9z"/><path fill="#ffd983" d="M13 12a5 5 0 1 0-10 0 5 5 0 0 0 10 0"/><path fill="#ffcc4d" d="M12 12a4 4 0 1 0-8 0 4 4 0 0 0 8 0"/><path fill="#ffac33" d="m8 5.597.633 4.041 2.569-3.183-1.473 3.816 3.816-1.473-3.183 2.569 4.041.633-4.041.633 3.183 2.569-3.816-1.473 1.473 3.816-2.569-3.183L8 18.403l-.633-4.041-2.569 3.183 1.473-3.816-3.816 1.473 3.183-2.569L1.597 12l4.041-.633-3.183-2.569 3.816 1.473-1.473-3.816 2.569 3.183z"/><path fill="#c1694f" d="M11 12a3 3 0 1 0-6 0 3 3 0 0 0 6 0"/><path fill="#ffac33" d="M5.834 12.004a2.153 2.153 0 1 1 4.307-.001 2.153 2.153 0 0 1-4.307.001"/></svg>