<svg xmlns="http://www.w3.org/2000/svg" viewBox="0 0 36 36"><path fill="#12ad2b" d="M32 5H4a4 4 0 0 0-4 4v18a4 4 0 0 0 4 4h28a4 4 0 0 0 4-4V9a4 4 0 0 0-4-4"/><path fill="#ffce00" d="M8.173 13.5H36v9H8.173z"/><path fill="#d21034" d="M1.149 6.195A3.98 3.98 0 0 0 0 9v18c0 1.093.438 2.083 1.148 2.805L12.5 18z"/><path d="m18.004 20.36 1.625-1.181 1.624 1.181-.62-1.91 1.624-1.181h-2.008l-.62-1.909-.621 1.909H17l1.625 1.181zm9.5 0 1.625-1.181 1.624 1.181-.62-1.91 1.624-1.181h-2.008l-.62-1.909-.621 1.909H26.5l1.625 1.181z"/></svg>