<svg xmlns="http://www.w3.org/2000/svg" viewBox="0 0 36 36"><path fill="#244aa5" d="M36 27a4 4 0 0 1-4 4H4a4 4 0 0 1-4-4V9a4 4 0 0 1 4-4h28a4 4 0 0 1 4 4z"/><path fill="#d0a650" d="m17.013 13.696.209-.005q.186.191.376.378c-.002.097.038.167.136.196-.087.023-.177.03-.265.04a.4.4 0 0 1-.136.117c.015.143.146.224.235.321.094.009.198.007.27.079l.206.005.001.268c.085-.009.192.007.217-.1q.225-.003.451.001c.039.083.132.088.206.123l.036.186c.076-.098.148-.223.287-.227q.065.09.133.178c.078.006.16.014.195.099l.139.005c0 .167-.012.335.01.501l.082.05a13 13 0 0 1 0 .401c.084.071.225.136.299.012h.119a.7.7 0 0 0 .189.188l.002.392c.174.063.062.3.096.441.088.06.158.139.199.239q.036-.067.076-.133l.301.006q.067.079.139.158l.082.089c.07.018.139.039.195.087l.178.011c.047.107.168.092.264.112l-.131.098c-.004.219.016.439-.01.657l-.08.045a.48.48 0 0 1-.096.311l.184-.002.008.102h.085c.002-.025.006-.076.01-.102h.16l.006.098c.096.018.234-.035.287.075q.369.006.74.001l.01.131q.058.066.113.133l.25.002-.008.146c.076.068.16.129.267.129l.002-.183.162.002.012-.101c.117.007.27-.029.297.127l.096-.143c.078.023.143.075.207.123l.002.133c.135.028.082.174.094.271l-.17.134-.002.415-.166.004v.474c-.096.077-.182.163-.27.246v.29c-.065.054-.125.107-.188.16v.122a.44.44 0 0 1-.236.12l-.127.155-.117.031.145.086q-.004.286-.002.571c-.115.097-.266.091-.406.09l-.148.18c-.105-.001-.18.069-.244.142q.003.137.008.272c.16.085.223.319.428.311.002.151.029.325-.115.424-.064-.002-.131-.002-.193-.002-.1.144-.318.046-.467.071v-.166l-.139-.004-.143.161a.44.44 0 0 0-.213.101c-.1.007-.199.004-.297.004l-.008.103-.223-.005a.36.36 0 0 0-.119.227l-.154.132c.004.107.006.223-.107.272.023.121-.066.333.106.366l-.006.133c-.232.008-.465.004-.697.005l-.004-.235c-.168-.048-.064-.264-.094-.389l-.1-.006.002-.156c-.076-.008-.164.004-.195-.082h-.137l-.012-.189-.424-.001c-.004.033-.008.099-.01.131q-.061.066-.119.133l-.215.001-.112.164q-.157.002-.315.007a1 1 0 0 1-.122.123l-.005.132c-.081.008-.169.009-.191.104h-.208l-.129.169-.384.001c-.06.149-.241.076-.363.098a.7.7 0 0 1-.19.185l-.003.246-.101.006-.002.238q-.086.067-.171.136.008.319.001.639l.171.137v.563q-.06.057-.117.117l-.145.003-.004.148-.113.111q-.234 0-.467.002-.108.136-.221.267l-.312-.002a.46.46 0 0 0-.086-.225c-.008-.208-.004-.415-.004-.623q.128-.128.261-.252v-.271l-.086-.049c-.019-.281-.001-.565-.006-.849h-.155c-.013-.087.003-.201-.115-.211q-.002-.319.003-.638l-.156-.134c-.014-.082-.014-.176-.108-.207l-.004-.183c-.112-.05-.093-.229.026-.254-.099-.087-.191-.181-.286-.27l-.002-.116c-.11-.022-.208-.075-.315-.104-.03-.076-.105-.083-.177-.086l-.069-.076a.28.28 0 0 1-.17-.082l-.123-.003c-.039-.167-.116-.323-.095-.5a1.4 1.4 0 0 1-.121-.123c-.216-.009-.431.003-.646-.004a.18.18 0 0 1-.14-.056 3 3 0 0 0-.149-.141c-.003-.144.005-.288-.006-.431-.038-.1-.101-.186-.159-.272l-.005-.131-.096-.014.001-.135c-.104-.062-.062-.193-.078-.292l-.258-.006v-.133l-.129-.122-.139-.009-.003-.136c-.079-.05-.101-.132-.098-.221l.175-.007c0-.158.002-.317-.006-.476-.052-.099-.096-.205-.179-.282l-.083-.102-.123-.01-.114-.114-.001-.195c-.132-.027-.083-.172-.1-.269-.159-.104-.019-.297.026-.427a1 1 0 0 1 .096-.106q.088-.09.161-.191h.229l.136.174.152-.01v.178c.287 0 .574-.002.861.002.008-.084-.007-.187.1-.205q.001-.246.007-.492c.1-.008.215.012.29-.075l.136-.008v-.266c.138 0 .278.007.416-.007l.047-.099c.093-.005.15.044.174.131a6 6 0 0 1 .156-.181.4.4 0 0 0 .227-.128c.091-.076.206-.113.309-.171l-.101-.1c-.004-.123-.087-.209-.183-.273a11 11 0 0 1 0-.363q.11-.1.213-.206h.187c.11-.151.248-.279.394-.395v-.138c.036.002.108.002.144.003.014.089.089.097.162.099a1 1 0 0 1 .12-.132l.009-.11c.136-.091.043-.293.073-.431.067-.066.162-.118.192-.213-.027-.094-.123-.144-.187-.211.048-.221-.158-.32-.271-.469l-.154-.017c-.017-.074-.01-.165-.084-.212a8 8 0 0 1-.002-.314c.223-.005.447.015.669-.01l.044-.076c.095-.059.199-.101.284-.174q.14-.004.279-.004.067-.086.135-.17l.152.005c.004-.019.01-.066.013-.091"/><path fill="#ededed" d="m28.021 9.212-.385 1.181-1.223-.013 1.004.731-.391 1.159 1.004-.729.982.729-.381-1.181.996-.709h-1.242zm-4.007-1.08-.385 1.181-1.225-.013 1.006.729-.391 1.16 1.004-.729.983.729-.383-1.181.998-.708h-1.242zm-4.009-.527-.385 1.18-1.224-.012 1.005.729-.391 1.16 1.004-.73.983.73-.383-1.182.998-.708H20.37zM7.979 9.212l.384 1.181 1.224-.013-1.005.73.39 1.159-1.004-.729-.982.729.383-1.181-.998-.708h1.241zm4.008-1.08.384 1.181 1.224-.013-1.004.729.39 1.16-1.004-.729-.983.729.384-1.181-.998-.708h1.241zm4.009-.527.384 1.18 1.224-.012-1.005.729.391 1.16-1.004-.73-.983.73.384-1.182-.997-.708 1.241-.001z"/></svg>