<svg xmlns="http://www.w3.org/2000/svg" viewBox="0 0 36 36"><path fill="#003893" d="M36 27a4 4 0 0 1-4 4H4a4 4 0 0 1-4-4V9a4 4 0 0 1 4-4h28a4 4 0 0 1 4 4z"/><path fill="#f4900c" d="M34.593 5.977.835 29.42l.08.098L36 11V9a3.98 3.98 0 0 0-1.407-3.023"/><path fill="#eee" d="M1.012 29.635 36 17v-6L.915 29.518q.047.06.097.117"/><path fill="#fff" d="m9 6.917.306 5.156 1.022-2.158-.442 2.347 1.639-1.737-1.146 2.096 2.096-1.146-1.737 1.639 2.347-.442-2.158 1.023 5.156.305-5.156.306 2.158 1.022-2.347-.442 1.737 1.639-2.096-1.146 1.146 2.096-1.639-1.736.442 2.346-1.022-2.158L9 21.082l-.306-5.155-1.022 2.158.442-2.346-1.639 1.736 1.146-2.096-2.096 1.146 1.737-1.639-2.347.442 2.158-1.022L1.917 14l5.156-.305-2.158-1.023 2.347.442-1.737-1.639 2.096 1.146-1.146-2.096 1.639 1.737-.442-2.347 1.022 2.158z"/></svg>