<svg xmlns="http://www.w3.org/2000/svg" viewBox="0 0 45 45"><defs><clipPath id="a"><path d="M0 36h36V0H0v36z"/></clipPath></defs><g clip-path="url(#a)" transform="matrix(1.25 0 0 -1.25 0 45)"><path d="M36 9a4 4 0 0 0-4-4H4a4 4 0 0 0-4 4v18a4 4 0 0 0 4 4h28a4 4 0 0 0 4-4V9z" fill="#4b92db"/><path d="M13.427 24.557c-.452-.397-.754-.907-1.101-1.366-.29-.382-.685-.619-1.026-.939.184.382.218.82.45 1.188.4.632 1.06.877 1.677 1.117m-2.473-1.382c.236.261.499.464.813.545-.61-.419-.576-1.168-.763-1.794-.068-.229-.168-.443-.222-.68l.016-.012c.1.267.275.524.502.738.428.404 1.072.65 1.284 1.24-.01-.82-.71-1.446-1.35-1.929a2.334 2.334 0 0 1-.68-.813c.026.227.037.416.017.637-.066.718-.11 1.523.383 2.068zm-1.232-2.453c0 .728.283 1.321.708 1.862.012.007.02.02.037.016-.468-.71-.042-1.609-.102-2.416l-.062-.828c.009-.006.009-.03.03-.02.029.091.037.19.053.285.113.667.699 1.132 1.196 1.603.117.112.203.243.259.385a3.092 3.092 0 0 0-.283-.976c-.383-.774-1.122-1.399-1.255-2.28-.064.844-.581 1.471-.581 2.37m-.354-1.034c.053.227.093.462.19.671-.186-.96.453-1.655.672-2.487.082-.313.11-.646.237-.938.012-.007.022.006.029.015-.315.885.147 1.703.598 2.4.118.184.175.397.23.613.049-.4-.036-.864-.11-1.278-.096-.532-.278-1.03-.422-1.544-.095-.32-.07-.683-.021-1.019l-.046.037c-.336.62-.997 1.103-1.197 1.778-.16.54-.27 1.164-.16 1.752zm-.03-1.877c.074-1.019 1.158-1.563 1.675-2.4.11-.179.225-.364.385-.508-.025.108-.114.204-.163.311a2.338 2.338 0 0 0-.2 1.202c.05.52.267 1.003.184 1.551.446-.962.302-2.165.56-3.206.057-.23.197-.43.283-.649-.438.333-1.012.63-1.493 1.008-.464.366-.868.796-1.078 1.355-.151.402-.19.883-.153 1.336zm.547-2.34c.51-1.156 1.794-1.246 2.647-1.956.162-.135.323-.259.5-.342l.01.01c-.197.178-.41.39-.562.611-.488.71-.325 1.677-.701 2.43.34-.41.662-.832.858-1.3.317-.753.424-1.613 1.134-2.186-.768.254-1.654.203-2.346.656-.728.477-1.402 1.23-1.54 2.077zm1.312-2.157c.819-.932 2.154-.632 3.247-.865.153-.032.295-.082.459-.057-.13.082-.302.091-.453.148-.848.32-.98 1.227-1.444 1.852.593-.394 1.084-.934 1.638-1.44.386-.354.867-.505 1.365-.606-.12-.044-.276-.034-.405-.066-.896-.222-1.888-.573-2.841-.258-.615.203-1.255.683-1.566 1.292m9.14-2.568c-.1-.115-.23-.222-.352-.32-.791.816-1.72 1.721-2.6 1.721-.547 0-.941-.416-1.401-.71-.637-.407-1.512-.637-2.261-.338-.403.153-.794.38-1.086.745.59-.407 1.474-.46 2.139-.185.737.305 1.486.711 2.325.711 1.236 0 2.41-.837 3.236-1.624" fill="#fff"/><path d="M22.575 24.557c.452-.397.754-.907 1.1-1.366.29-.382.686-.619 1.027-.939-.184.382-.218.82-.451 1.188-.4.632-1.06.877-1.676 1.117m2.473-1.382c-.236.261-.5.464-.813.545.609-.419.576-1.168.763-1.794.068-.229.168-.443.222-.68l-.016-.012a2.006 2.006 0 0 1-.502.738c-.428.404-1.072.65-1.284 1.24.009-.82.71-1.446 1.35-1.929.287-.217.53-.508.679-.813a3.027 3.027 0 0 0-.016.637c.066.718.109 1.523-.383 2.068zm1.232-2.453c0 .728-.283 1.321-.708 1.862-.012.007-.021.02-.037.016.468-.71.042-1.609.102-2.416l.062-.828c-.01-.006-.01-.03-.031-.02-.028.091-.036.19-.052.285-.113.667-.7 1.132-1.196 1.603a1.078 1.078 0 0 0-.26.385c.042-.333.135-.673.284-.976.383-.774 1.122-1.399 1.255-2.28.064.844.58 1.471.58 2.37m.355-1.034c-.053.227-.093.462-.191.671.187-.96-.452-1.655-.671-2.487-.082-.313-.11-.646-.237-.938-.012-.007-.022.006-.03.015.316.885-.146 1.703-.597 2.4-.118.184-.175.397-.23.613-.05-.4.036-.864.11-1.278.096-.532.278-1.03.422-1.544.095-.32.07-.683.02-1.019l.047.037c.336.62.997 1.103 1.197 1.778.16.54.27 1.164.16 1.752zm.03-1.877c-.074-1.019-1.158-1.563-1.675-2.4-.111-.179-.225-.364-.385-.508.025.108.114.204.163.311.166.36.24.775.2 1.202-.05.52-.267 1.003-.184 1.551-.446-.962-.302-2.165-.56-3.206-.057-.23-.197-.43-.283-.649.438.333 1.012.63 1.493 1.008.464.366.868.796 1.078 1.355.15.402.19.883.153 1.336zm-.547-2.34c-.511-1.156-1.794-1.246-2.647-1.956a2.369 2.369 0 0 0-.501-.342l-.01.01c.198.178.41.39.563.611.488.71.325 1.677.7 2.43-.34-.41-.661-.832-.857-1.3-.317-.753-.424-1.613-1.134-2.186.768.254 1.654.203 2.346.656.728.477 1.402 1.23 1.54 2.077zm-1.312-2.157c-.82-.932-2.154-.632-3.247-.865-.153-.032-.295-.082-.46-.057.13.082.303.091.454.148.848.32.98 1.227 1.444 1.852-.593-.394-1.084-.934-1.638-1.44-.386-.354-.867-.505-1.365-.606.12-.044.276-.034.405-.066.896-.222 1.888-.573 2.84-.258.616.203 1.256.683 1.567 1.292m-9.14-2.568c.1-.115.23-.222.352-.32.79.816 1.719 1.721 2.6 1.721.547 0 .94-.416 1.4-.71.638-.407 1.513-.637 2.262-.338.403.153.794.38 1.086.745-.59-.407-1.474-.46-2.14-.185-.736.305-1.485.711-2.324.711-1.236 0-2.411-.837-3.236-1.624M23.522 16.343l-.134.073a6.023 6.023 0 0 0-1.106-1.575l-.78.78c.382.394.69.841.917 1.324l-.133.073a4.75 4.75 0 0 0-.89-1.291l-.707.707c.303.315.544.675.718 1.064l-.132.072a3.579 3.579 0 0 0-.692-1.03l-.78.781c.217.23.384.495.498.781l-.132.072a2.333 2.333 0 0 0-.472-.748l-.709.709c.202.225.32.508.336.81h1.003a2.299 2.299 0 0 0-.158-.771l.132-.072c.106.266.166.55.174.843h1.106a3.565 3.565 0 0 0-.306-1.375l.132-.072c.201.451.312.94.322 1.447h1.001a4.692 4.692 0 0 0-.444-1.927l.133-.073a4.85 4.85 0 0 1 .46 2h1.105a5.942 5.942 0 0 0-.596-2.529l.134-.073c.4.824.612 1.733.612 2.676 0 .801-.153 1.579-.445 2.3l-.137-.059a5.967 5.967 0 0 0 .433-2.167H22.88a4.879 4.879 0 0 1-.344 1.73l-.136-.058a4.72 4.72 0 0 0 .332-1.672H21.73a3.715 3.715 0 0 1-.25 1.276l-.137-.058c.148-.385.231-.795.24-1.218h-1.107c-.008.27-.059.533-.15.781l-.136-.059c.084-.229.131-.472.138-.722h-1.003a1.313 1.313 0 0 1-.336.81l.71.709c.22-.233.385-.503.491-.797l.136.059c-.114.31-.29.596-.523.843l.783.782c.333-.348.588-.751.757-1.188l.136.058a3.72 3.72 0 0 1-.789 1.234l.708.709a4.728 4.728 0 0 0 1.002-1.547l.136.058a4.877 4.877 0 0 1-1.033 1.593l.782.782a5.961 5.961 0 0 0 1.268-1.938l.137.059a6.133 6.133 0 0 1-1.352 2.037 6.133 6.133 0 0 1-2.045 1.355l-.055-.139a5.954 5.954 0 0 0 1.942-1.269l-.782-.782a4.88 4.88 0 0 1-1.564 1.02l-.054-.137a4.73 4.73 0 0 0 1.514-.989l-.708-.708a3.734 3.734 0 0 1-1.172.764l-.054-.137a3.56 3.56 0 0 0 1.121-.732l-.782-.782c-.22.207-.47.37-.743.484l-.054-.138a2.33 2.33 0 0 0 .693-.451l-.71-.709a1.317 1.317 0 0 1-.81.336v1.003c.288-.009.567-.07.827-.179l.054.138c-.277.115-.574.18-.88.189v1.106c.447-.009.881-.1 1.284-.265l.054.137a3.72 3.72 0 0 1-1.339.276v1.002a4.72 4.72 0 0 0 1.705-.345l.054.138a4.879 4.879 0 0 1-1.759.354v1.107a5.983 5.983 0 0 0 2.163-.432l.055.139a6.116 6.116 0 0 1-2.292.442 6.096 6.096 0 0 1-2.744-.65l.067-.129c.8.4 1.684.619 2.603.63v-1.107a4.856 4.856 0 0 1-2.089-.506l.068-.129a4.705 4.705 0 0 0 2.021.488v-1.002a3.71 3.71 0 0 1-1.556-.375l.067-.129c.46.223.965.346 1.49.356v-1.106a2.455 2.455 0 0 1-.976-.232l.068-.13c.282.131.59.205.907.214v-1.003a1.322 1.322 0 0 1-.44-.102l.067-.13a1.172 1.172 0 0 0 1.281-.258 1.18 1.18 0 1 0-2.014-.834c0 .315.123.612.346.834.112.113.244.2.387.258l-.068.13a1.328 1.328 0 0 1-.369-.234l-.71.71c.184.172.39.312.613.415l-.068.13a2.484 2.484 0 0 1-.648-.441l-.783.783c.274.263.584.478.917.64l-.067.129a3.737 3.737 0 0 1-.953-.666l-.71.709c.358.348.762.631 1.197.846l-.067.129a4.91 4.91 0 0 1-1.233-.872l-.784.784c.45.439.957.797 1.503 1.071l-.067.129a6.176 6.176 0 0 1-2.759-2.778l.128-.069a6.02 6.02 0 0 0 1.091 1.543l.784-.784a4.895 4.895 0 0 1-.899-1.286l.128-.07c.22.457.512.88.873 1.253l.71-.71a3.723 3.723 0 0 1-.698-1.021l.128-.069c.166.36.391.694.673.987l.783-.783c-.2-.212-.363-.46-.479-.732l.13-.07c.106.256.258.492.453.699l.71-.71a1.321 1.321 0 0 1-.336-.81h-1.004c.01.286.07.563.177.821l-.13.07a2.451 2.451 0 0 1-.194-.891h-1.107c.01.498.122.978.324 1.419l-.128.069a3.706 3.706 0 0 1-.343-1.488H13.27c.011.692.17 1.359.46 1.966l-.128.07a4.844 4.844 0 0 1-.479-2.036h-1.107c.011.903.222 1.774.61 2.563l-.128.069a6.086 6.086 0 0 1-.63-2.706c0-.594.084-1.174.246-1.729l.144.037a6.02 6.02 0 0 0-.242 1.618h1.106c.007-.463.08-.916.21-1.348l.143.036a4.75 4.75 0 0 0-.205 1.312h1.002c.007-.367.067-.726.177-1.067l.143.036c-.106.33-.165.676-.172 1.031h1.106a2.46 2.46 0 0 1 .142-.76l.144.037a2.313 2.313 0 0 0-.139.723h1.004a1.31 1.31 0 0 1 .335-.81l-.709-.71a2.312 2.312 0 0 0-.49.797l-.145-.037c.113-.318.292-.612.53-.864l-.782-.782c-.38.396-.659.865-.823 1.375l-.144-.036a3.703 3.703 0 0 1 .863-1.444l-.708-.708a4.712 4.712 0 0 0-1.129 1.907l-.143-.036a4.857 4.857 0 0 1 1.167-1.976l-.782-.782a5.957 5.957 0 0 0-1.458 2.487l-.145-.036a6.099 6.099 0 0 1 1.55-2.609c.5-.5 1.072-.903 1.692-1.2l.073.131a5.973 5.973 0 0 0-1.607 1.123l.782.782c.406-.395.87-.709 1.371-.939l.073.13a4.74 4.74 0 0 0-1.34.913l.71.708a3.745 3.745 0 0 1 1.124-.745l.073.13a3.57 3.57 0 0 0-1.094.72l.782.782c.252-.237.544-.416.862-.53l.073.131a2.323 2.323 0 0 0-.83.503l.71.71a1.32 1.32 0 0 1 .81-.336V16.69a2.32 2.32 0 0 0-.69.126l-.073-.131c.242-.087.5-.135.763-.143v-1.106a3.573 3.573 0 0 0-1.312.276l-.073-.129a3.71 3.71 0 0 1 1.385-.295v-1.002a4.73 4.73 0 0 0-1.88.42l-.073-.129a4.858 4.858 0 0 1 1.953-.438v-1.106a5.942 5.942 0 0 0-2.498.577l-.074-.13a6.106 6.106 0 0 1 2.646-.597 6.1 6.1 0 0 1 2.764.657l-.07.135a5.94 5.94 0 0 0-2.62-.642v1.106a4.86 4.86 0 0 1 2.114.516l-.069.134a4.704 4.704 0 0 0-2.046-.503v1.002c.561.011 1.1.145 1.588.389l-.068.133a3.563 3.563 0 0 0-1.52-.374v1.106c.357.01.701.096 1.013.249l-.068.133a2.292 2.292 0 0 0-.945-.234v1.003c.303.017.585.134.811.336l.708-.709a2.33 2.33 0 0 0-.574-.396l.068-.133c.222.109.428.25.612.424l.781-.781a3.6 3.6 0 0 0-.886-.624l.068-.133c.335.167.646.385.923.651l.707-.707a4.714 4.714 0 0 0-1.172-.832l.07-.134c.438.221.846.509 1.208.86l.78-.78a6.03 6.03 0 0 0-1.483-1.06l.07-.135a6.147 6.147 0 0 1 2.758 2.802v.001z" fill="#fff"/><path d="M13.056 16.146l-.025.057-.043.113.092-.044.032-.088.043-.032.043-.094-.024-.044-.068.063-.05.069zM17.808 20.033h-.068l-.012.138.037.025v.069h-.217l-.006.069.031.019-.05.019-.037-.05-.012-.057-.062-.012v-.032h-.043v-.081l-.174-.145-.346.013c-.025-.057-.087.006-.087.006-.012.038-.099 0-.099 0 0-.07-.117.032-.117.032l-.217.157c-.124.113-.309-.032-.315-.063.006-.088-.143-.02-.143-.02s-.123.039-.142-.012c-.018-.05-.099-.037-.099-.037l-.012-.025-.062-.013-.013-.038-.074-.012.186.006c.05.006-.019-.107-.05-.1l-.086-.007-.03-.031h-.082l-.037-.05-.117.006s-.069-.057-.062-.075c.006-.02-.013-.076-.03-.076-.02 0-.057-.056-.045-.075.013-.02-.037-.082-.037-.082l-.012-.063-.037-.012v-.17l-.074-.05v-.075l-.112-.12.013-.1-.093-.101.012-.1-.056-.02-.012-.043-.025-.132.062-.006c.031.013.025-.082 0-.094-.025-.013-.093-.038-.055-.063.037-.025-.099-.02-.099.019 0 .037-.075.069-.093.056-.019-.012-.05.057-.05.057-.068.069-.278-.006-.278-.006l-.03-.101c-.069-.012-.113-.125-.113-.125-.055-.02-.099-.088-.08-.107.02-.02-.03-.025-.03-.025v-.14l-.032-.042.006-.151c.037 0 .031-.07.031-.07-.062-.006-.049-.087-.049-.087l-.13-.044-.025-.038-.16.007-.044-.044-.043.044h-.31l-.012.03-.062.014-.006.069-.093-.007-.019-.037-.099-.007c.007-.062-.099-.157-.11-.132-.013.026-.08.095-.05.107.03.013.111.025.111.025v.044l-.229.007-.025-.038-.093-.006v-.101l-.043-.012c-.03-.02.006-.088.006-.088.044-.044-.006-.113-.006-.113-.037-.038.031-.107.031-.107.05-.013-.03-.05-.03-.05.011-.063.05-.082.05-.082-.039-.063.023-.094.023-.094l.007-.107.043-.025v-.07l.025-.043h.1l-.008.157c-.086.1.075.126.081.088.006-.038.074-.057.074-.057.013-.094.118-.15.15-.056.03.094.054.038.073-.006.018-.044.136-.151.136-.151h.093l.012-.088c.105.006.136-.007.18-.151.043-.144.16-.182.16-.182l.087.006c0 .076.087-.012.087-.05 0-.038.167-.182.167-.182l.167-.038.155-.125.117.012h.05c.031.107.18-.006.191-.044.013-.037.112-.1.124-.07.013.033.081.014.093-.08.012-.095.056-.076.056-.076l.352.007.124.106.316.007c.161.006.062.226.031.226-.056.044.018.226.018.226l-.45.42c-.107 0-.014.15-.014.15.081.052-.018.133-.018.133.012.075-.044.163-.044.163-.11.076-.08.22-.08.22v.1c-.093.089.037.1.037.1.043.076-.03.133-.03.133l-.007.082-.099.012-.013.295-.222.32c-.044.013-.013.089-.013.089.056.03-.012.106-.012.106l-.006.138.13.013.031.05h.061l-.006.164c.031.08.105.037.105.037l.087-.006.05.094.012.076-.068.006c-.074.044-.037.207-.037.207.117.176.253.075.253.075l.087.007c.13-.088.012-.252.012-.252-.024-.037-.012-.157-.012-.157l.031-.2-.08-.07c-.069-.037-.069-.125.006-.144.05-.006.031-.126-.044-.044-.11 0 .062-.1.013-.075.111-.057.086.05.086.05l.15.119c.055.044.154-.094.154-.113 0-.02.247-.006.247-.006.068-.044.093-.157.093-.157.068.088.21.006.105-.044.1-.063.1-.12.1-.12.08.026.08-.037.08-.056 0-.02.024.094.024.094-.092.069.124.095.062-.031l-.037-.057.062-.05.006-.144c.136.012.1.182.1.182l.061.012c0 .057.043.026.043.026-.043.213.1.25.1.25.08.02.086.189.086.189-.056.025-.025.113.037.038.062-.075-.037.15-.037.15l-.05.045-.068.006-.006.069h-.11l-.02-.088-.043-.013-.012.026-.019-.07h-.11l-.007.076.068.019.024.037.02.1h.08l.105.032c.006.107.061.082.061.082l.037-.032.056-.044.006-.037-.037-.02-.006-.05.02-.068h.048c.02.1.15.1.186.037l.037.088c-.087.044-.002.113.023.082.025-.032.082.08.082.08s.043-.055 0 .02c-.043.076.031.113.031.113-.012.076.08.063.08.063l.007.1-.087.007c-.018-.088-.093-.013-.056.006a.336.336 0 0 1 .075.057v.063l.037.012.006.063h.093l.08.038.02.03.085.007.124.113-.012.05c-.075 0 0 .057 0 .057l.012.094z" fill="#fff"/><path d="M15.315 18.79l-.111.013.006-.044h.03c.05-.088.007-.302.007-.302s-.074-.006-.087.032c-.012.037-.043-.082-.018-.101.024-.02.11 0 .117-.07.006-.068.056.045.056.045v.427z" fill="#fff"/><path d="M15.265 18.243l-.062.038v-.15l.099-.133.037.088.013.057-.044.018.007.094.037.007.006.044-.093-.063zM17.456 18.928l.013.075.004.057.026.038.075.03v.12h-.038l-.006.044-.068.007-.012-.032h-.031l-.006-.05h.037l.006-.038-.025-.025-.012-.031-.05-.013-.111-.107-.006-.05-.031-.044-.037-.094-.13-.006-.025-.113.018-.094.112-.045.012.063.037.019.007.063.024.044.038.044.012.05.062.038.074.012.03.038zM17.703 18.865v.088l-.012.082-.093.044-.068-.063-.013-.088v-.057l-.061-.012-.013-.17-.049-.02.006-.062-.068-.018-.068-.02-.013-.081-.049-.031-.025-.076-.031-.182s.056-.106.087-.056a.12.12 0 0 0 .08.056l.019.044.167-.006c.012.069.093.044.093.013 0-.032.062-.007.062-.007l.043.069h.068l.006.076.031.019v.113c.099.03.087.125.087.125l.024.032-.012.043c-.05.019-.025.063.006.05.031-.012-.043.057-.043.057-.037-.031-.068.038-.068.038h-.093zM17.802 18.105c-.006-.075-.099-.1-.099-.1l-.068.018-.037.032-.006.088.055.006.013-.038.142-.006zM18.136 18.507c.013-.055.012.088.037.082.025-.007.006.088.006.088l-.11-.082c.055-.006.061-.063.067-.088zM18.464 18.834c.025-.057.02-.138.111-.201.032-.021-.018-.063-.049-.044a.949.949 0 0 0-.118.157v.082c.02.05.045.03.056.006zM20.995 15.807l.056-.025.006-.107c.074-.075.315-.012.315.006l-.012.233-.031.03-.006.158c.025.082-.118.2-.13.176-.012-.025-.093-.006-.093-.031s-.05-.151-.025-.195c.025-.044-.018-.044-.024-.088-.006-.044-.068-.12-.056-.157zM21.212 18.419c-.027.037.124.1.148.025.025-.075 0-.063-.024-.056-.025.006-.087-.02-.124.03zM21.403 20.68h-.093s.031-.013-.055.069c-.087.082-.143-.02-.143-.02l-.099-.011v-.101l-.049-.02.006-.061.068.006s0-.076.02-.044c.017.03.172-.006.16-.082-.006-.031.154-.113.136-.213.08-.013.061-.094.061-.094l.106-.013.031.063.03-.007v.038l-.068.019-.012.2-.043.032.012.05-.049.02.024.08-.043.089zM21.675 20.04l-.049.005-.112-.019-.062-.119s.031-.019.056-.063.037-.3-.037-.345c-.074-.044.006-.019.006-.019l-.012-.138c.018-.063.05-.032.068 0 .018.031.037.038.062.07a.353.353 0 0 1 .068.131c.006.044.037.113.018.132-.018.02.02.106.02.106s.023.051 0 .101c-.026.05.005.107.023.132l-.049.025zM21.694 20.108l-.025.057s0 .05.013.075c.012.025-.025.05-.044.056-.018.007-.012.057-.018.082-.006.025-.05.044-.05.044s-.012.094-.012.113c0 .019-.056.044-.037.063.018.019.03.044.049.056.019.013-.018.101.013.082.03-.019.03-.05.043-.075.012-.025-.006-.113.025-.132.03-.019-.007-.082.043-.082.049 0 .019-.119.019-.119s-.013-.088.018-.094c.03-.007.012-.157.012-.157l-.05.031zM21.292 21.126c.018-.025.056-.044.056-.07 0-.024-.013-.043.024-.05.038-.006.062.007.075-.024a.22.22 0 0 0 .006-.107c-.006-.025.006-.063.037-.063.03 0 .037-.006.037-.025 0-.02.037.069.037.069a.265.265 0 0 0-.056.082s-.03.088-.03.1c0 .013-.044.025-.062.032-.02.006-.05.062-.05.062l-.074-.006zM21.354 21.182a.186.186 0 0 1-.062.057c-.025.012-.043.025-.068.025a.04.04 0 0 0-.037.056c.012.032-.02.044-.02.069 0 .025.02.025.05.007.032-.02.026-.026.05-.057.025-.031.037-.063.062-.056.025.006.044-.057.068-.038.025.019.019-.044.019-.044l-.062-.02zM20.63 20.473c.034-.035-.186-.025-.186 0s.019.113.075.094c.055-.02.06.113.06.113s-.048-.006-.005.019c.044.024 0 .062-.018.081-.02.02-.037.05-.037.05h.086c.037.026.05.145.05.145.074-.026.11.025.11.025s.014-.038.038-.07c.025-.03-.062-.044-.031-.062.03-.019.044-.076.03-.095-.011-.018-.08-.006-.08.02 0 .024-.024-.032 0-.064.025-.03-.03-.075-.043-.075-.012 0-.092-.012-.024-.05.068-.038.142-.019.142-.019s.056.006.074-.025c.019-.03-.006-.037-.037-.037s-.18.013-.18.013-.043-.044-.024-.063zM21.032 20.943c.05.025.155.025.148.063-.006.037.062.05.062.05l.02-.075.055-.038.006-.069s.018.012-.05-.006c-.068-.019-.024-.05-.024-.05l-.149-.007-.019.063-.049.07zM20.79 21.282c.039 0-.011-.144.088-.132.099.013.006-.044.08-.05.074-.006.056.056.08.1.024.044.012.07-.03.082-.045.013-.045.013-.057.063-.012.05-.062.063-.062.063l-.019.075-.08-.05-.08-.107c0-.082.043-.044.08-.044zM18.996 20.598l-.006-.044.068-.006s.031-.025.031-.044c0-.02.043-.038.068-.038.025 0 .093.05.093.05s.031.088.006.082c-.025-.006-.074-.044-.08-.006-.007.037-.08.019-.08.019l-.1-.013zM19.305 20.667c0-.019-.012-.044.025-.05.037-.006.105.025.111-.013.006-.037.006-.063.056-.082a.316.316 0 0 1 .117-.025c.037 0 .118.013.118.013s.088-.014.105-.03c.068-.07.112-.089.13-.058.02.031-.006.101-.012.126-.006.025-.093.144-.124.12-.03-.026-.037 0-.093-.02-.056-.019-.173-.006-.179.02-.006.024-.093.037-.093.062s-.062.056-.056.02c.006-.039-.043-.058-.056-.045-.012.012-.049-.038-.049-.038zM20.729 21.471l.043.138c-.061.013-.05.082-.05.082-.005.056-.092.12-.123.1-.031-.019-.018.132-.018.132s.055.038.08.02c.025-.02-.21.313-.26.281-.05-.03-.161.032-.154.088.006.057-.223.245-.223.245s-.075.051-.087.013c-.012-.038-.037-.063 0-.082.037-.019.03.032.074-.012s.124-.1.093-.138c-.031-.038-.068-.05-.068-.05l.043-.05h.068l.013-.108s.074-.037.093-.08c.018-.045.018-.07 0-.096-.02-.025-.056-.069-.05-.113.006-.043.056-.062.056-.062l.049-.007.038-.019v-.08c.049.011.129-.058.123-.102-.006-.044.013-.018.074-.062.062-.044.044-.05.087-.082.043-.03.08-.013.099.044z" fill="#fff"/><path d="M19.708 22.325c-.006.025-.02.113.019.107.037-.007.012 0 .055-.019.044-.019.05.031.05.031h.068l.086-.069-.012-.056-.062-.006c-.031.05-.093.031-.08-.013.012-.044-.031-.126-.056-.132-.025-.006-.105-.006-.1.031.007.038.032.126.032.126zM19.658 22.495v.05s-.006.05-.037.05c-.03 0-.087.038-.074.063.012.025-.106.05-.106.05s-.105.1-.068.088c.038-.012.02.044.02.044s-.075-.012-.094-.006c-.018.006-.012.063-.012.063s-.074.019-.074 0c0-.02.024-.02.037-.057.012-.037.006-.1.062-.113.055-.012.068-.025.074-.05.006-.025.074-.031.074-.031l.05-.025.148-.126zM18.971 23.399c-.065.049.087-.038.087-.038.05 0 .08-.037.08-.056 0-.02.068-.013.068-.013l.006.044-.049.063-.044.03s-.068.008-.068.026c0 .019-.055-.075-.08-.056zM20.11 23.361c-.018-.055-.025-.132-.056-.132s-.018-.082-.018-.082.08 0 .105-.006c.025-.006.025-.069.025-.069.093.006.13-.119.117-.15-.012-.032.037-.032.037-.032s0-.1-.012-.126c-.012-.025.08-.044.105-.08.025-.039-.012-.164-.031-.17-.018-.007.05-.026.044-.057-.007-.032.018 0 .024-.05l.019-.157.086-.007c.013.082.172.085.198.076.106-.038.186-.2.186-.239 0-.038-.068-.044-.068-.044l.012-.182c.106-.032.192-.182.18-.207-.012-.025.074-.019.074-.019.013.113.118.075.124.037a2.69 2.69 0 0 1 .025-.119l.03-.056.044-.044.068.006.018-.038.08-.012s.069-.076.075-.095c.006-.018.099-.012.124-.018.025-.007.062-.025.068-.057.006-.03.043-.082.043-.082s.075-.018.08-.043a.493.493 0 0 1 .038-.082l.062-.05.006-.057.068-.006.019-.075.11.006.063.044c.08.044.136.1.142.125.006.025.019.12.08.101.062-.019.019.138.019.138s-.086.063-.08.094c.006.032-.087.094-.081.12.006.025-.08.075-.074.1.006.025-.043.094-.043.094l-.093.088-.013.057-.074.006-.148.182.006.05-.043.007v.07l-.044.024-.068.006-.136.151-.012.07h-.068l.012.131c.043.056.019.163.019.163s-.087-.044-.13-.025c-.044.02.018.063.018.063v.05l-.037.038s-.105-.013-.111.006l-.025.1-.006.107-.043.02-.007.037-.068-.007v.076l-.037.012-.037.02-.006.074-.136.007-.044.062-.05.076-.154.012-.037.038-.062.013-.043.018-.02-.03-.116-.007-.006-.038c-.062-.03-.31-.006-.316-.025zM20.76 23.524c-.01.05.124.094.155.057.03-.038.117-.045.13-.233.004-.067-.112.07-.112.07l-.093.031c-.05.012-.074.044-.08.075zM18.625 24.064l-.081.082v.07l-.024.024-.025.088-.08.025-.081-.03-.087-.058-.092-.013-.05-.056.198-.019.037-.063.143-.012.092-.094c.081-.026.099.012.05.056zM18.613 24.372c-.014.055-.093-.069-.012-.094a.3.3 0 0 1 .16 0l.019.038.309-.007a.177.177 0 0 1 .037.063s.075.025.106.013c.03-.013.006.088-.025.075-.031-.013-.093-.006-.093-.006h-.111c-.006.044-.105.025-.112 0-.006-.025-.043-.032-.043-.032l-.142-.012c-.013-.038-.087-.063-.093-.038zM18 23.313c.095-.03.13-.008.136.017.006.025.012.032.05.038.037.006-.007.082-.044.075-.037-.007-.074.012-.08.043-.006.032-.068.113-.074.05-.007-.062-.044-.062-.038-.106.007-.044.025-.11.05-.118zM17.289 23.242c-.004.022.124.025.142.006.019-.02.006-.05.062-.05s.03-.038.025-.056c-.006-.02-.068-.013-.074.006-.007.019-.1.025-.1.025s-.05.038-.055.069M21.428 19.845c-.025-.025-.08-.038-.08-.038l-.02-.07-.03-.024s.006-.02 0-.063c-.006-.044-.062-.07-.062-.07l-.025-.03s-.15-.008-.167 0c-.055.025-.018.1.019.094.037-.006-.006.107-.006.107l.049.006s.006.113.025.113c.019 0-.006.038-.031.057-.025.018-.056.08-.08.075-.025-.006-.124 0-.124 0l-.02-.038-.067-.012s.006-.05-.006-.063c-.037-.044-.18-.138-.118.019l.019.037v.057l-.111.006s-.056.019-.056.044c0 .025-.006.057-.006.057l-.13.143-.155.02-.012.03-.093.013c-.111.056-.21.006-.192-.088.019-.094.05-.132-.012-.132s-.074.05-.074.05-.05.02-.05-.006c0-.025-.018-.075 0-.1.019-.026-.025-.063-.043-.044-.02.02-.068.075-.056.094.012.02-.087.138.012.157.099.02-.006.075.03.088l.05.025h.05l.03.025-.08.012-.05.007-.091.006a.266.266 0 0 1-.112-.138c-.05-.094-.167.038-.123.088.043.05-.137.006-.168-.019s-.123-.013-.123-.013c-.02-.056-.106.007-.081.044.025.038.025.063.025.063l-.031.006-.037-.069c-.087 0-.111-.05-.093-.08.019-.033-.025.005-.037-.039-.012-.044.006-.044.043-.063.037-.019-.018-.019.006-.05.025-.03.099 0 .056-.044-.043-.044-.13-.025-.13-.025-.006-.057-.124-.044-.136-.025-.012.02-.105.132-.105.132l-.118.006c-.012.088.056.044.08.113a.98.98 0 0 1 .038.182s-.1.006-.105-.025c-.006-.03-.068-.05-.068-.05s-.05-.019-.031-.044c.018-.025-.037-.038-.037-.038s.009-.04-.007-.056c-.05-.05-.173-.007-.191.012l-.075.032-.074.05-.087-.038-.024-.025h-.093l-.006-.075.167-.019.012-.155-.068.023h-.043l-.02.038-.036.006v-.138l.037-.032.03-.03.063-.007.013-.076.154-.006.019-.03.093-.008.179-.182-.012-.056-.031-.019c.012-.044-.081-.019-.081-.019v-.036l.043-.007.044-.025.062.107c.068.044.099-.02.105-.057.006-.037-.031-.031-.031-.031v-.088l.037-.012c.062-.076-.025-.12-.025-.12l-.018-.063c-.02-.056-.087-.044-.087-.044l-.025-.037-.074-.02.147-.018c.014.05.05.063.07.038.018-.025.018-.07.018-.07l.037-.006-.006-.07.037-.011v-.201l.044-.05c.074.03.074-.02.037-.044-.037-.025-.013-.14-.013-.14l-.031-.03v-.05l-.037-.025v-.07c-.062.032-.136.02-.155 0-.055.038-.173.026-.173-.006.037-.05-.043-.062-.043-.062l-.043-.051c.03-.063-.031-.07-.031-.07v-.118l-.074-.07.006-.162c0-.044.093-.051.11-.026.02.026.094-.05.094-.05h.056l.012.113-.037.019v.182l.062.069c.074.025.049-.163.049-.182.006-.07.037-.063.068-.05.062.025.013-.07-.037-.063-.05.006-.018-.063-.018-.063l.03-.012-.055-.044-.05-.057-.062.019-.074.006-.025.044-.043.007-.006-.088-.031-.038-.074-.075c.099 0-.013-.07-.037-.07.055-.018-.007-.075-.15-.031v-.044l-.048-.006.043-.05.049-.006-.018-.107c0-.082-.204-.025-.223-.006l-.006-.114-.037-.006.006-.075-.006-.107.068.013v-.044l.167-.007.24.258.144.03c.012.064.074-.011.074-.011.062.006.074-.038.074-.038l.08-.013c.068-.018.027-.025.03-.05.008-.037.038-.025.038-.025l.013.082.037-.007-.037.044-.068.032-.074.03c-.05.07.012.058.062.05h.08s.093-.124.093-.156c0-.031.043-.037.043-.037l.056.006.018-.044h.056l.019-.037h.11l.007.056-.105.019-.006.063-.074.018c-.025.107.018.139.049.088l.037-.006-.012.094.043.013-.012.132-.037.012v.044l.154-.006c-.012.082.006.119.006.119h.044l.006-.031.189-.018.134.153c-.007.012.013.019-.001.034-.02.019-.044 0-.075.019s0 .126-.006.15c-.006.026.105.064.087.007-.02-.056 0-.081 0-.081.08.075.148-.007.142-.026-.006-.018.043-.037.074-.018.03.018.068-.057.056-.095-.012-.037-.124-.031-.13.007-.006.037-.025.025-.037.006-.012-.02-.068-.031-.1-.013a.037.037 0 0 0-.01.01l-.134-.153.009-.001c.074-.044.037-.1.012-.113-.025-.013-.068-.013-.068-.013l-.012-.025-.161-.012-.012-.063c-.081.013-.112-.075-.093-.12.018-.043 0-.081 0-.081l.068-.031.086.025c.013.063.068.075.118.113.049.037.13-.07.105-.12-.025-.05-.025-.07-.025-.07l.007-.055-.062-.025-.05-.025-.006-.032h-.167l-.031-.031-.08-.007-.025-.037-.056-.006s-.093-.044-.056-.095c.038-.05-.154-.044-.198.025-.012-.062-.08-.006-.08-.006l-.068.019-.006.094c-.013.063-.13.063-.124.019.006-.044-.223-.02-.223-.02L18 16.827l-.068-.04-.006-.031-.112-.012-.05-.025-.018.037h-.05l-.05-.07c-.13-.005-.252-.08-.24-.112.012-.031-.05-.063-.05-.063l-.055-.018-.037-.057-.074-.025-.013-.132-.037-.025v-.057l-.043-.012v-.031l-.062-.007.037-.094.049-.025c.087-.013.05-.12.05-.12l.049-.006.025-.07.05-.1c.018-.075.074-.056.099-.05.024.007.049-.075.049-.075l.248-.006s-.013-.025.03-.038c.044-.012.328-.025.34-.006-.012.056.155.069.224.019.068-.05.16-.02.16-.02l.093-.112.062-.138.105-.032.075-.018.024-.107.056-.007.019-.07c.068-.05-.02-.156-.02-.156v-.138l.05-.025-.006-.05.08-.082.094-.006.235-.251.185-.057.03-.1.05.006.038.03.148.008.075.069.08.012.687.584-.062.038v.138c.11.082.118.226.012.239-.08.009-.043.094.03.107l.045.018v.057l.142.132v.1l-.31.258c-.135.05 0 .35.093.345.093-.006-.006.465-.006.465l-.05.025.013.15h-.068l-.111-.144-.031-.1c-.013-.132-.396-.107-.415-.088a1.03 1.03 0 0 1-.148.075s-.1.082-.118.057c-.018-.025-.105.03-.105.012 0-.02-.08.044-.08.044l-.124.044.093.019-.02.075.162-.081c.018-.025.099-.02.099-.02l.025-.031s.049.007.08-.031c.03-.038.192-.006.192-.006l.043-.038.068-.025.192-.006.006.119.037.038-.006.075.044.038v.062l.037.013.006.138.03.006v.302l-.092.088c-.006-.032-.105-.032-.105-.032s-.025-.044-.044-.044c-.018 0 .025-.056.013-.094-.013-.037-.062-.037-.062-.037l-.093-.026-.025-.031h-.1l-.011.082.11.03.063.032.03.063c.007.063.082.057.082.057s.142.119.148.176c.006.056.056.213.142.213h.16c.063.025.045.107.045.107l.08.012.012-.044s.112-.012.124.007c.013.019.037.063.068.044.03-.02.13.044.13.044.006.044.16.025.16.025l.02.056s-.105.145-.124.145c-.02 0-.118.088-.13.056-.1.025-.093.164-.093.164l-.037.087c0 .05-.093.157-.111.145-.093.069-.025.15 0 .157.024.006.086.094.086.094l.03.088.106.03.013.083-.056.006s.062.113.093.113c.03 0 .235 0 .254.013a.357.357 0 0 1 .055.132c0 .019.05.025.068.03.019.007.062.058.075.083.012.025-.031.182-.056.157z" fill="#fff"/><path d="M18 17.58c.009.01.019-.027.037-.023.019.005.028-.033.009-.033-.018 0-.018-.023-.018-.033 0-.01 0-.032-.014-.047-.014-.014-.028-.004-.047.005-.018.009-.027.009-.051.009-.023 0-.004-.037-.004-.037s-.098.004-.079.019c.018.014.037.019.023.028-.014.009 0 .019 0 .038 0 .018.047.009.033.023-.014.014 0 .069.023.038l.014.033c-.014.014-.005.019-.033.028-.028.009-.004.066-.004.066l.004.038c.01.047.102.05.107.009.005-.042 0-.071 0-.071l.028-.01s-.005-.027-.028-.027 0-.014-.014-.028L18 17.58zM17.694 17.533c.014.028.046.151.084.113.037-.038.06 0 .06 0s.018-.019.009-.057c-.01-.037-.018-.075-.042-.08-.023-.004-.041-.018-.07-.023-.027-.005-.041.047-.041.047z" fill="#fff"/></g></svg>