<svg xmlns="http://www.w3.org/2000/svg" viewBox="0 0 36 36"><path fill="#c1272d" d="M32 5H4a4 4 0 0 0-4 4v18a4 4 0 0 0 4 4h28a4 4 0 0 0 4-4V9a4 4 0 0 0-4-4"/><path fill="#006233" d="m15.047 22.165 1.128-3.471-2.953-2.145h3.649L18 13.074l1.129 3.474h3.649l-2.953 2.145 1.128 3.471L18 20.019zm3.583-2.603.916.665-.35-1.077zm-1.826-.412-.35 1.077.916-.665zm.241-.74.955.694.955-.694-.365-1.122h-1.182zM15.5 17.288l.915.665.216-.665zm3.869 0 .216.665.915-.665zm-1.019-.74L18 15.47l-.35 1.079h.7z"/></svg>