<svg viewBox="0 0 36 36" xmlns="http://www.w3.org/2000/svg"><path d="M36 18c0 9.941-8.059 18-18 18-.294 0-.58-.029-.87-.043C11.239 33.393 7 26.332 7 18 7 9.669 11.239 2.607 17.13.044 17.42.03 17.706 0 18 0c9.941 0 18 8.059 18 18z" fill="#ffd983"/><path d="M7 18C7 9.669 11.239 2.607 17.13.044 7.596.501 0 8.353 0 18c0 9.646 7.594 17.498 17.128 17.956C11.238 33.391 7 26.331 7 18z" fill="#66757f"/><g fill="#ffcc4d"><circle cx="25.5" cy="8.5" r="3.5"/><circle cx="16" cy="16" r="3"/><circle cx="14.5" cy="27.5" r="3.5"/><circle cx="15" cy="6" r="2"/><circle cx="33" cy="18" r="1"/></g><circle cx="6" cy="9" fill="#5b6876" r="1"/><circle cx="21" cy="31" fill="#ffcc4d" r="1"/><circle cx="4" cy="19" fill="#5b6876" r="2"/><circle cx="26" cy="23" fill="#ffcc4d" r="2"/></svg>