<svg viewBox="0 0 36 36" xmlns="http://www.w3.org/2000/svg"><path d="M0 18c0 9.941 8.059 18 18 18 .295 0 .58-.029.87-.043C24.761 33.393 29 26.332 29 18 29 9.669 24.761 2.607 18.87.044 18.58.03 18.295 0 18 0 8.059 0 0 8.059 0 18z" fill="#ffd983"/><path d="M29 18C29 9.669 24.761 2.607 18.87.044 28.404.501 36 8.353 36 18c0 9.646-7.594 17.498-17.128 17.956C24.762 33.391 29 26.331 29 18z" fill="#66757f"/><g fill="#ffcc4d"><circle cx="10.5" cy="8.5" r="3.5"/><circle cx="20" cy="16" r="3"/><circle cx="21.5" cy="27.5" r="3.5"/><circle cx="21" cy="6" r="2"/><circle cx="3" cy="18" r="1"/></g><circle cx="30" cy="9" fill="#5b6876" r="1"/><circle cx="15" cy="31" fill="#ffcc4d" r="1"/><circle cx="32" cy="19" fill="#5b6876" r="2"/><circle cx="10" cy="23" fill="#ffcc4d" r="2"/></svg>