<svg xmlns="http://www.w3.org/2000/svg" viewBox="0 0 36 36"><path fill="#ccd6dd" d="M33.536 2.464a5 5 0 0 0-7.071 0l-1.197 1.199 2.842 2.843a.999.999 0 1 1-1.414 1.414l-2.841-2.842-2.11 2.112 2.841 2.84a.999.999 0 1 1-1.414 1.414l-2.84-2.839-2.12 2.122 2.837 2.838a.999.999 0 1 1-1.414 1.414l-2.837-2.837-2.12 2.123 2.836 2.836a.999.999 0 1 1-1.414 1.414l-2.835-2.835-2.12 2.123 2.833 2.833a.999.999 0 1 1-1.414 1.414l-2.833-2.832-1.781 1.785A7 7 0 0 0 1 28a6.998 6.998 0 0 0 13.995.1L33.536 9.536a5 5 0 0 0 0-7.072"/><path fill="#dd2e44" d="M30.938 5.091a2 2 0 0 0-2.828 0L9.045 24.156c-1.338-.362-2.823-.035-3.873 1.015a4 4 0 0 0 5.657 5.657A3.98 3.98 0 0 0 11.858 27l19.08-19.08a2 2 0 0 0 0-2.829"/><path fill="#292f33" d="M13.272 22.343a.999.999 0 0 0 .707-1.707l-2.833-2.833-1.413 1.415 2.833 2.832c.194.195.45.293.706.293m3.536-3.535a.999.999 0 0 0 .707-1.707l-2.836-2.836-1.413 1.415 2.835 2.835a1 1 0 0 0 .707.293m3.535-3.536a.999.999 0 0 0 .707-1.707l-2.837-2.838-1.413 1.415 2.837 2.837c.194.195.45.293.706.293m3.536-3.536a.999.999 0 0 0 .707-1.707l-2.841-2.84-1.413 1.415 2.84 2.839a1 1 0 0 0 .707.293m3.523-3.523a.999.999 0 0 0 .707-1.707l-2.842-2.843-1.413 1.415 2.841 2.842a1 1 0 0 0 .707.293"/></svg>