<svg viewBox="0 0 36 36" xmlns="http://www.w3.org/2000/svg"><circle cx="18" cy="18" fill="#c1694f" r="17"/><path d="M27.258 27.642a1.012 1.012 0 01-1.144-1.669l1.67-1.144a1.01 1.01 0 011.142 1.668zm2.438-7.095c-.512-.207-.758-.792-.549-1.303s.793-.757 1.304-.549l1.852.755a1 1 0 11-.755 1.852zm-4.494-5.256a1.008 1.008 0 01-.555-1.318 1.01 1.01 0 011.316-.556l1.875.764a1.012 1.012 0 01-.764 1.873zm-21.001 7a1.012 1.012 0 01.763-1.874l1.873.764a1.012 1.012 0 01-.762 1.874zm3.557-6.149a1.011 1.011 0 01-1.144-1.669l1.67-1.144a1.01 1.01 0 111.142 1.669zm9.028 3.739a1.5 1.5 0 111.132-2.779l2.778 1.134a1.499 1.499 0 11-1.132 2.777zm-6.184 6.052a1.011 1.011 0 11.718 1.889l-1.892.721a1.008 1.008 0 01-1.302-.586c-.2-.524.062-1.107.585-1.307z" fill="#e29386"/><path d="M24 19H12a2 2 0 00-2 2v11.998A16.914 16.914 0 0018 35c2.893 0 5.615-.727 8-2.002V21a2 2 0 00-2-2z" fill="#292f33"/></svg>