<svg viewBox="0 0 36 36" xmlns="http://www.w3.org/2000/svg"><path d="M25.999 24a.996.996 0 01-.572-.181C18.884 19.239 13.261 11.453 10.03 6.38c1.699 10.528.997 16.458.962 16.744a1 1 0 01-1.984-.247c.009-.079.936-8.033-1.986-21.668a1 1 0 011.86-.68c.079.148 8.007 14.873 17.691 21.652A1 1 0 0125.999 24z" fill="#77b255"/><path d="M26.547 8.818c-3.476.96-5.051 2.546-10.749.667-4.72-1.557-7.037-4.207-6.345-6.305s3.18-3.163 7.9-1.606c4.749 1.567 4.123 3.466 9.194 7.244z" fill="#5c913b"/><g fill="#be1931"><circle cx="26" cy="28" r="8"/><circle cx="11" cy="28" r="8"/></g></svg>