<svg viewBox="0 0 36 36" xmlns="http://www.w3.org/2000/svg"><ellipse cx="18" cy="23" fill="#939598" rx="18" ry="10"/><ellipse cx="18" cy="21" fill="#f1f2f2" rx="18" ry="10"/><ellipse cx="18" cy="20.611" fill="#f4900c" rx="14.8" ry="7.611"/><path d="M13 24c-3.75 0-10-2.062-10-5.5 0-4.125 3.828-8.938 10-8.938s10 5.5 10 8.938S17.375 24 13 24z" fill="#eee"/><path d="M4.64 18.821a.674.674 0 11.508-1.249l1.249.509a.673.673 0 11-.509 1.249zm3.704-3.433a.674.674 0 11-.763-1.112l1.113-.762a.675.675 0 01.762 1.113zm9 5a.674.674 0 11-.763-1.113l1.113-.762a.674.674 0 11.762 1.112zm-5.648-1.841a1 1 0 11.755-1.853l1.853.755a1 1 0 11-.755 1.852zm4.945-3.726a.675.675 0 01.508-1.249l1.25.509a.673.673 0 11-.51 1.248zm-5.734 5.761a.675.675 0 11.479 1.259l-1.261.481a.672.672 0 01-.868-.391.673.673 0 01.39-.871z" fill="#ccd6dd"/><path d="M30 19a2 2 0 01-2 2h-1a2 2 0 010-4h1a2 2 0 012 2zm-3 4.5a1.5 1.5 0 01-1.5 1.5h-1a1.5 1.5 0 010-3h1a1.5 1.5 0 011.5 1.5zM21 26a1 1 0 01-1 1h-1a1 1 0 110-2h1a1 1 0 011 1z" fill="#ffd983"/></svg>