<svg xmlns="http://www.w3.org/2000/svg" viewBox="0 0 45 45"><defs><clipPath id="a"><path d="M0 36h36V0H0v36z"/></clipPath></defs><g clip-path="url(#a)" transform="matrix(1.25 0 0 -1.25 0 45)"><path d="M9.441 21.405c.458 1.372 7.41 7.525 13.286 10.22 1.528.701 6.602 2.834 8.35 3.271 3.604.901 5.09 1.013 4.59-2.646-.708-5.17-4.62-12.597-8.707-19.75-2.68-4.214-4.233-6.424-10.365-3.358-6.132 3.065-9.197 6.131-7.154 12.263" fill="#b90053"/><path d="M22.491 21.24c3.816-3.768 4.498-9.263 1.524-12.276-2.973-3.014-8.477-2.4-12.294 1.365-3.815 3.768-4.498 9.265-1.524 12.276 2.974 3.013 8.478 2.402 12.294-1.365" fill="#ffcc4d"/><path d="M26.96 29.623c1.14-.57 2.703-3.605 2.703-4.506 0-.901-.901.9-2.703 2.704-1.803 1.802-1.803 2.703 0 1.802M27.14 21.593c.608-.578 1.01-2.787.837-3.355-.173-.566-.395.74-1.183 2.221-.79 1.48-.615 2.047.347 1.134" fill="#8e0042"/><path d="M21 4c0-2.209-4.477-4-10-4S1 2 1 4c0 .371-.203 2.6.083 2.958C2.34 8.531 6.502 8 11 8c4.908 0 9.133.865 9.98-1 .106-.233.02-2.754.02-3" fill="#b90053"/><path d="M21 7c0-2.209-4.477-4-10-4S1 4.791 1 7s4.477 4 10 4 10-1.791 10-4" fill="#ffd671"/></g></svg>