<svg xmlns="http://www.w3.org/2000/svg" viewBox="0 0 36 36"><path fill="#ffac33" d="M35.066 35.066a1.96 1.96 0 0 1-2.771 0L12.198 14.97a1.96 1.96 0 1 1 2.772-2.773l20.096 20.098a1.96 1.96 0 0 1 0 2.771"/><path fill="#dd2e44" d="M27.8 14.08c0 7.576-6.142 13.72-13.72 13.72C6.503 27.8.36 21.656.36 14.08.36 6.502 6.503.36 14.08.36S27.8 6.502 27.8 14.08"/><path fill="#f4900c" d="M17.411 27.376a12.4 12.4 0 0 1-4.379-.503 12.27 12.27 0 0 1-7.3-6.003 9.62 9.62 0 0 1-.719-7.376A9.6 9.6 0 0 1 9.72 7.77a7.5 7.5 0 0 1 5.751-.561 7.5 7.5 0 0 1 4.463 3.67 5.8 5.8 0 0 1 .434 4.451 5.8 5.8 0 0 1-2.84 3.455 4.45 4.45 0 0 1-3.412.333 4.45 4.45 0 0 1-2.648-2.178 3.39 3.39 0 0 1 1.395-4.583 2.5 2.5 0 0 1 1.915-.187q.347.106.644.299a2.41 2.41 0 0 0-2.194.037 2.773 2.773 0 0 0-1.14 3.746 3.2 3.2 0 0 0 1.901 1.564c.822.25 1.692.166 2.45-.239a3.78 3.78 0 0 0 1.555-5.108 4.44 4.44 0 0 0-2.645-2.174 4.44 4.44 0 0 0-3.408.332 5.355 5.355 0 0 0-2.202 7.235 6.4 6.4 0 0 0 3.807 3.13c1.645.5 3.387.33 4.905-.479a7.75 7.75 0 0 0 3.794-4.614 7.77 7.77 0 0 0-.58-5.944 9.45 9.45 0 0 0-5.623-4.624 9.44 9.44 0 0 0-7.245.708 11.57 11.57 0 0 0-5.66 6.883 11.57 11.57 0 0 0 .865 8.869 14.25 14.25 0 0 0 3.623 4.392 13.66 13.66 0 0 0 6.455 1.615 13.6 13.6 0 0 0 3.331-.422m-1.325-12.548a1 1 0 0 0 .377-.356 1.82 1.82 0 0 1-.947 1.378c-.297.158-.637.19-.957.093a1.25 1.25 0 0 1-.743-.611.81.81 0 0 1 .333-1.094.45.45 0 0 1 .611.185.98.98 0 0 0 1.326.405"/><path fill="#ffcc4d" d="M24.515 8.499C22.946 5.027 18.398 1.187 12.744.564c-.212-.023-.423-.033-.633-.047A13.7 13.7 0 0 0 3.24 5.693c3.382-2.809 6.776-3.214 9.264-2.944 4.835.533 8.694 3.751 10.006 6.655 2.009 4.448.023 9.702-4.424 11.71a6.8 6.8 0 0 1-5.247.165 6.8 6.8 0 0 1-3.828-3.594 5.275 5.275 0 0 1 2.631-6.97 4.003 4.003 0 0 1 5.287 1.997 2.984 2.984 0 0 1-.822 3.524c.263-.27.47-.593.607-.956a2.75 2.75 0 0 0-.067-2.118 3.16 3.16 0 0 0-1.777-1.669 3.16 3.16 0 0 0-2.437.077 3.68 3.68 0 0 0-1.944 2.068 3.7 3.7 0 0 0 .089 2.837 4.33 4.33 0 0 0 2.433 2.284 4.33 4.33 0 0 0 3.335-.105 5.183 5.183 0 0 0 2.586-6.847c-1.405-3.111-5.083-4.497-8.195-3.095-3.752 1.696-5.425 6.128-3.731 9.88a9 9 0 0 0 5.056 4.745 9 9 0 0 0 3.205.59c1.269 0 2.534-.27 3.725-.808 5.551-2.51 8.029-9.067 5.523-14.62m-9.859 6.003a.57.57 0 0 1-.297.318 1.099 1.099 0 0 0 .026 2.016 2.3 2.3 0 0 1-.597-.134 2.15 2.15 0 0 1-1.206-1.133 1.5 1.5 0 0 1-.036-1.154c.142-.376.423-.676.792-.841a.97.97 0 0 1 .754-.024.98.98 0 0 1 .551.518.57.57 0 0 1 .013.434"/></svg>