<svg xmlns="http://www.w3.org/2000/svg" viewBox="0 0 45 45"><defs><clipPath id="a"><path d="M0 36h36V0H0v36z"/></clipPath><clipPath id="b"><path d="M24 17c-2.209 0-4-5.791-4-8V4c0-2.209 1.791-3 4-3h7c2.209 0 4 .791 4 3v5c0 2.209-1.791 8-4 8h-7z"/></clipPath><clipPath id="c"><path d="M0 36h36V0H0v36z"/></clipPath><clipPath id="d"><path d="M5 17c-2.209 0-4-5.791-4-8V4c0-2.209 1.791-3 4-3h7c2.209 0 4 .791 4 3v5c0 2.209-1.791 8-4 8H5z"/></clipPath><clipPath id="e"><path d="M0 36h36V0H0v36z"/></clipPath></defs><g clip-path="url(#a)" transform="matrix(1.25 0 0 -1.25 0 45)"><path d="M35 4c0-2.209-1.791-3-4-3h-7c-2.209 0-4 .791-4 3v5c0 2.209 1.791 8 4 8h7c2.209 0 4-5.791 4-8V4z" fill="#aa8dd8"/></g><g clip-path="url(#b)" transform="matrix(1.25 0 0 -1.25 0 45)"><path d="M28 7v4c3 1 3 3 3 5h-7c0-2 0-4 3-5V7c0-1-1-3-3-3 0-11.851 2.149-7.223 3.416-5.521C28.648-3.983 31-13.709 31 4c-2 0-3 2-3 3" fill="#744eaa"/></g><g clip-path="url(#c)" transform="matrix(1.25 0 0 -1.25 0 45)"><path d="M36 24v-6c0-3-6.595 0-8.5 0-2.1 0-8.5-3-8.5 0v6c0 4.418 3.806 8 8.5 8s8.5-3.582 8.5-8" fill="#292f33"/><path d="M34 21c0-3-1-7-6.5-7S21 17 21 21h13z" fill="#e1e8ed"/><path d="M29 16.5c0-.276-.672-.5-1.5-.5s-1.5.224-1.5.5.672.5 1.5.5 1.5-.224 1.5-.5" fill="#a0041e"/><path d="M22.134 19.639c.905.145 2.457.47 3.318-.318.359-.261.099-1.003-.571-.685-.67.319-2.185.404-2.791.438-.605.034-.615.459.044.565M33.117 19.639c-.906.145-2.457.47-3.318-.318-.358-.261-.098-1.003.572-.685.67.319 2.184.404 2.79.438.605.034.615.459-.044.565M32 32c0-1.657-2.015-3-4.5-3S23 30.343 23 32s2.015 3 4.5 3 4.5-1.343 4.5-3" fill="#292f33"/><path d="M30.705 31.949l-2.965-2.015-3.195 2.015c-1.824 1.23-3.545.438-3.545-1.762v-.291c0-2.2 1.766-3.063 3.644-1.92 0 0 1.872 1.019 3.103 1.662 1.204-.643 2.858-1.661 2.858-1.661 1.88-1.144 3.395-.281 3.395 1.919v.29c0 2.2-1.47 2.994-3.295 1.763" fill="#aa8dd8"/><path d="M23 6a1 1 0 1 0-2 0 1 1 0 1 0 2 0M26 10a1 1 0 1 0-2 0 1 1 0 1 0 2 0M32 7a1 1 0 1 0-2 0 1 1 0 1 0 2 0M33 11a1 1 0 1 0-2 0 1 1 0 1 0 2 0" fill="#cbb7ea"/><path d="M16 4c0-2.209-1.791-3-4-3H5c-2.209 0-4 .791-4 3v5c0 2.209 1.791 8 4 8h7c2.209 0 4-5.791 4-8V4z" fill="#dd2e44"/></g><g clip-path="url(#d)" transform="matrix(1.25 0 0 -1.25 0 45)"><path d="M9 7v4c3 1 3 3 3 5H5c0-2 0-4 3-5V7c0-1-1-3-3-3C5-7.851 7.149-3.223 8.416-1.521 9.649-3.983 12-13.709 12 4c-2 0-3 2-3 3" fill="#a0041e"/></g><g clip-path="url(#e)" transform="matrix(1.25 0 0 -1.25 0 45)"><path d="M17 24v-8c0-3-1.999 2-8.499 2S0 13 0 16l.002 8c0 4.418 3.805 8 8.499 8C13.195 32 17 28.418 17 24" fill="#292f33"/><path d="M15 21c0-3-1-7-6.5-7S2 17 2 21h13z" fill="#e1e8ed"/><path d="M11 32.5c0-1.933-1.119-3.5-2.5-3.5C7.12 29 6 30.567 6 32.5S7.12 36 8.5 36c1.381 0 2.5-1.567 2.5-3.5" fill="#292f33"/><path d="M10 16.5c0-.276-.671-.5-1.5-.5s-1.5.224-1.5.5.671.5 1.5.5 1.5-.224 1.5-.5" fill="#a0041e"/><path d="M5 11a1 1 0 1 0-2 0 1 1 0 0 0 2 0M15 6a1 1 0 1 0-2 0 1 1 0 0 0 2 0M12 10a1 1 0 1 0-2 0 1 1 0 0 0 2 0M7 7a1 1 0 1 0-2 0 1 1 0 0 0 2 0" fill="#f4abba"/><path d="M3.134 19.639c.906.145 2.457.47 3.318-.318.358-.261.099-1.003-.571-.685-.67.319-2.185.404-2.79.438-.606.034-.616.459.043.565M14.117 19.639c-.906.145-2.457.47-3.318-.318-.358-.261-.099-1.003.571-.685.67.319 2.185.404 2.79.438.606.034.616.459-.043.565" fill="#292f33"/></g></svg>