<svg viewBox="0 0 36 36" xmlns="http://www.w3.org/2000/svg"><path d="M17 36c-1.32 0-9.241-.826-10.707-2.293a.997.997 0 01.177-1.554c4.563-2.853 6.825-7.969 6.541-14.796A9.52 9.52 0 0113 17a1 1 0 011-1h9a1 1 0 01.997.923c.841 10.931-2.468 15.783-3.93 17.361C19.043 35.391 17.954 36 17 36z" fill="#99aab5"/><path d="M18 18a1 1 0 01-1-1v-3a1 1 0 012 0v3a1 1 0 01-1 1z" fill="#3e721d"/><path d="M26 10c0 4.418-3.582 5-8 5s-8-.582-8-5a8 8 0 0116 0z" fill="#77b255"/><path d="M18 4a1 1 0 01-1-1V1a1 1 0 012 0v2a1 1 0 01-1 1z" fill="#3e721d"/><g fill="#fff"><circle cx="18" cy="21" r="2"/><circle cx="17" cy="27" r="2"/><ellipse cx="14" cy="32.5" rx="2" ry="1.5"/></g></svg>