<svg xmlns="http://www.w3.org/2000/svg" viewBox="0 0 36 36"><path fill="#55ACEE" d="M25 0H11a2 2 0 0 0-2 2v11s0 1 1 2l6.429 5h3.142L26 15c1-1 1-2 1-2V2a2 2 0 0 0-2-2z"/><path fill="#E1E8ED" d="M12 0v16.555L16.429 20h3.142L24 16.555V0z"/><path fill="#DD2E44" d="M14 0v18.111L16.429 20h3.142L22 18.111V0z"/><path fill="#FFAC33" d="M21.902 21.02A1.5 1.5 0 0 0 22 20.5a1.5 1.5 0 0 0-1.5-1.5h-5a1.5 1.5 0 0 0-1.5 1.5c0 .183.038.357.098.52A7.993 7.993 0 0 0 10 28a8 8 0 1 0 16 0c0-3-1.654-5.611-4.098-6.98z"/><circle fill="#FFD983" cx="18" cy="28" r="6"/></svg>