<svg viewBox="0 0 36 36" xmlns="http://www.w3.org/2000/svg"><path d="M36 32a4 4 0 01-4 4H4a4 4 0 01-4-4V4a4 4 0 014-4h28a4 4 0 014 4z" fill="#ccd6dd"/><g fill="#67757f"><circle cx="27" cy="20.6" r=".686"/><circle cx="30.2" cy="21.515" r=".686"/><circle cx="23.8" cy="21.515" r=".686"/><circle cx="21.514" cy="23.8" r=".686"/><circle cx="20.6" cy="27" r=".686"/><circle cx="32.486" cy="23.8" r=".686"/></g><circle cx="33.401" cy="27" fill="#da2f47" r=".686"/><circle cx="27" cy="27" r="4.881"/><circle cx="27" cy="27" fill="#292f33" r="3.994"/><path d="M28.182 24.118l-1.697 2.824a.47.47 0 10.807.485l1.697-2.824a.47.47 0 10-.807-.485z" fill="#e1e8ed"/><circle cx="9" cy="20.6" fill="#67757f" r=".686"/><circle cx="12.2" cy="21.515" fill="#67757f" r=".686"/><circle cx="5.8" cy="21.515" fill="#67757f" r=".686"/><circle cx="3.514" cy="23.8" fill="#67757f" r=".686"/><circle cx="2.6" cy="27" fill="#67757f" r=".686"/><circle cx="14.486" cy="23.8" fill="#67757f" r=".686"/><circle cx="15.401" cy="27" fill="#da2f47" r=".686"/><circle cx="9" cy="27" r="4.881"/><circle cx="9.001" cy="26.999" fill="#292f33" r="3.994"/><path d="M6.099 25.868l2.853 1.647a.47.47 0 00.471-.815L6.57 25.053a.47.47 0 10-.471.815z" fill="#e1e8ed"/><circle cx="27" cy="3.6" fill="#67757f" r=".686"/><circle cx="30.2" cy="4.515" fill="#67757f" r=".686"/><circle cx="23.8" cy="4.515" fill="#67757f" r=".686"/><circle cx="21.514" cy="6.8" fill="#67757f" r=".686"/><circle cx="20.6" cy="10" fill="#67757f" r=".686"/><circle cx="32.486" cy="6.8" fill="#67757f" r=".686"/><circle cx="33.401" cy="10" fill="#da2f47" r=".686"/><circle cx="27" cy="10" r="4.881"/><circle cx="27.001" cy="10" fill="#292f33" r="3.994"/><path d="M25.011 7.603l1.697 2.824a.47.47 0 10.807-.485l-1.696-2.824a.47.47 0 00-.808.485z" fill="#e1e8ed"/><circle cx="9" cy="3.6" fill="#67757f" r=".686"/><circle cx="12.2" cy="4.515" fill="#67757f" r=".686"/><circle cx="5.8" cy="4.515" fill="#67757f" r=".686"/><circle cx="3.514" cy="6.8" fill="#67757f" r=".686"/><circle cx="2.6" cy="10" fill="#67757f" r=".686"/><circle cx="14.486" cy="6.8" fill="#67757f" r=".686"/><circle cx="15.401" cy="10" fill="#da2f47" r=".686"/><circle cx="9" cy="9.999" r="4.881"/><circle cx="8.999" cy="10" fill="#292f33" r="3.994"/><path d="M11.431 8.053L8.578 9.7a.47.47 0 00.471.815l2.853-1.647a.47.47 0 00-.471-.815z" fill="#e1e8ed"/></svg>