<svg xmlns="http://www.w3.org/2000/svg" viewBox="0 0 36 36"><circle fill="#9AAAB4" cx="18" cy="18" r="17"/><path fill="#CCD6DD" d="M18 18l14.64 8.612A16.9 16.9 0 0 0 35 18c0-9.389-7.61-17-17-17C8.611 1 1 8.611 1 18c0 3.167.881 6.12 2.389 8.658L18 18z"/><circle fill="#DA2F47" cx="18" cy="4.4" r="1.457"/><circle fill="#DA2F47" cx="24.8" cy="6.344" r="1.457"/><circle fill="#DA2F47" cx="11.201" cy="6.344" r="1.457"/><circle fill="#DA2F47" cx="6.343" cy="11.2" r="1.457"/><circle fill="#DA2F47" cx="4.4" cy="18" r="1.457"/><circle fill="#67757F" cx="29.657" cy="11.2" r="1.457"/><circle fill="#67757F" cx="31.602" cy="18" r="1.457"/><circle cx="18" cy="18" r="10.372"/><circle fill="#292F33" cx="18" cy="18" r="8.486"/><path fill="#E1E8ED" d="M22.243 12.343l-4.95 4.95a.999.999 0 1 0 1.414 1.414l4.95-4.95a1 1 0 1 0-1.414-1.414z"/></svg>