<svg xmlns="http://www.w3.org/2000/svg" viewBox="0 0 36 36"><path fill="#1C6399" d="M13.193 8.624S14.75 7 18 7s4.955 1.692 4.955 1.692l.186.136s1.906-3.594.517-6.659C22.593 1.464 20.661.5 18 .5c-2.554 0-4.451.893-5.54 1.589-1.507 3.068.509 6.661.509 6.661l.224-.126zm-1.749-5.771l-.042.038.038-.033.004-.005z"/><path fill="#50A5E6" d="M28.382 27.677c-.06-.071-3.026-3.58-6.27-7.491l-4.01 5.771 6.488 9.33a.5.5 0 0 0 .87-.09l3-7a.502.502 0 0 0-.078-.52zM14.04 10.096a12.445 12.445 0 0 1-.846-1.472c-1.027-2.078-1.125-3.849-.945-5.333.059-.487.152-.905.211-1.202a6.958 6.958 0 0 0-1.016.765l-.004.005-.038.033C9.28 4.591 8.156 6.788 8.156 9.25c0 2.469 1.719 4.781 3.237 7.042.105.156 1.195 1.727 2.707 3.904a591.89 591.89 0 0 0 4.009-4.88c-1.882-2.316-3.451-4.302-4.069-5.22z"/><path fill="#2B7BB9" d="M24.685 2.975l-.086-.083a7.319 7.319 0 0 0-.941-.722c.058.298.157.729.218 1.237.178 1.473.084 3.228-.921 5.285-.24.491-.516.994-.87 1.52-.608.902-2.135 2.838-3.975 5.105a635.633 635.633 0 0 1-4.009 4.88c-3.278 3.953-6.297 7.525-6.357 7.596a.499.499 0 0 0-.08.52l3 7a.503.503 0 0 0 .46.303.497.497 0 0 0 .409-.213c.052-.074 3.305-4.751 6.569-9.447l4.01-5.771c1.465-2.11 2.516-3.624 2.619-3.778 1.518-2.261 3.237-4.574 3.237-7.042 0-2.477-1.135-4.687-3.283-6.39z"/></svg>