<svg viewBox="0 0 36 36" xmlns="http://www.w3.org/2000/svg"><path d="M30.806 15.347H19.201l8.205-8.205-.707-.707-8.205 8.205V3.036h-1V14.64L9.288 6.435l-.707.707 8.206 8.205H5.182v1h11.605l-8.206 8.206.707.707 8.206-8.206v11.605h1V17.055l8.205 8.205.707-.707-8.205-8.206h11.605z" fill="#ccd6dd"/><path d="M17.994 1.394c-7.982 0-14.453 6.471-14.453 14.453S10.012 30.3 17.994 30.3c7.983 0 14.454-6.471 14.454-14.453-.001-7.982-6.472-14.453-14.454-14.453zm0 26.683c-6.755 0-12.23-5.475-12.23-12.23s5.475-12.23 12.23-12.23c6.754 0 12.23 5.475 12.23 12.23s-5.475 12.23-12.23 12.23z" fill="#aab8c2"/><path d="M17.993 23.374c-4.15 0-7.526-3.377-7.526-7.527s3.376-7.526 7.526-7.526c4.151 0 7.528 3.376 7.528 7.526s-3.376 7.527-7.528 7.527zm0-13.553c-3.323 0-6.026 2.704-6.026 6.026s2.704 6.027 6.026 6.027c3.324 0 6.028-2.704 6.028-6.027s-2.704-6.026-6.028-6.026z" fill="#aab8c2"/><path d="M27.279 34.429l-8.376-18.344c-.021-.046-.058-.076-.085-.117-.038-.059-.072-.118-.123-.169s-.11-.085-.17-.123c-.041-.027-.071-.064-.117-.085-.012-.005-.024-.003-.035-.008-.064-.027-.132-.034-.201-.047-.061-.011-.121-.03-.182-.03-.054 0-.106.018-.161.027-.075.013-.149.022-.219.051-.011.005-.023.003-.034.008-.044.02-.074.057-.114.082-.061.039-.121.074-.173.125-.051.051-.086.111-.124.171-.026.04-.063.07-.083.115L8.709 34.429a1 1 0 001.819.83l7.465-16.351 7.465 16.351a1 1 0 001.821-.83z" fill="#8899a6"/><path d="M12.9 36H7.079a1 1 0 110-2H12.9a1 1 0 110 2zm15.999 0h-5.82a1 1 0 110-2h5.82a1 1 0 110 2z" fill="#553788"/><path d="M21.284 29.819a2.779 2.779 0 01-2.779 2.779h-1.112a2.779 2.779 0 110-5.558h1.112a2.78 2.78 0 012.779 2.779z" fill="#744eaa"/><path d="M21.227 29.263a2.779 2.779 0 00-2.723-2.224h-1.112a2.78 2.78 0 00-2.724 2.224z" fill="#cbb7ea"/><path d="M11.017 26.527a2.779 2.779 0 01-2.779 2.779H7.126a2.779 2.779 0 110-5.558h1.112a2.779 2.779 0 012.779 2.779z" fill="#5c913b"/><path d="M10.96 25.971a2.779 2.779 0 00-2.723-2.224H7.126a2.78 2.78 0 00-2.724 2.224z" fill="#c6e5b3"/><path d="M34.977 17.633a2.779 2.779 0 01-2.779 2.779h-1.112a2.779 2.779 0 110-5.558h1.112a2.777 2.777 0 012.779 2.779z" fill="#3b94d9"/><path d="M34.921 17.077a2.779 2.779 0 00-2.723-2.224h-1.112a2.779 2.779 0 00-2.723 2.224z" fill="#bbddf5"/><path d="M31.644 7.887a2.779 2.779 0 01-2.779 2.779h-1.112a2.779 2.779 0 110-5.558h1.112a2.779 2.779 0 012.779 2.779z" fill="#5c913b"/><path d="M31.588 7.331a2.779 2.779 0 00-2.723-2.224h-1.112a2.779 2.779 0 00-2.723 2.224z" fill="#c6e5b3"/><path d="M31.644 26.527a2.779 2.779 0 01-2.779 2.779h-1.112a2.779 2.779 0 110-5.558h1.112a2.779 2.779 0 012.779 2.779z" fill="#be1931"/><path d="M31.588 25.971a2.779 2.779 0 00-2.723-2.224h-1.112a2.779 2.779 0 00-2.723 2.224z" fill="#f4abba"/><path d="M11.017 7.887a2.779 2.779 0 01-2.779 2.779H7.126a2.779 2.779 0 110-5.558h1.112a2.779 2.779 0 012.779 2.779z" fill="#be1931"/><path d="M10.96 7.331a2.779 2.779 0 00-2.723-2.224H7.126a2.78 2.78 0 00-2.724 2.224z" fill="#f4abba"/><path d="M21.284 2.876a2.779 2.779 0 01-2.779 2.779h-1.112a2.779 2.779 0 110-5.558h1.112a2.778 2.778 0 012.779 2.779z" fill="#744eaa"/><path d="M21.227 2.32A2.779 2.779 0 0018.504.096h-1.112a2.78 2.78 0 00-2.724 2.224z" fill="#cbb7ea"/><path d="M7.682 17.633a2.779 2.779 0 01-2.779 2.779H3.79a2.779 2.779 0 110-5.558h1.112a2.778 2.778 0 012.78 2.779z" fill="#3b94d9"/><path d="M7.625 17.077a2.779 2.779 0 00-2.723-2.224H3.79a2.78 2.78 0 00-2.724 2.224z" fill="#bbddf5"/><path d="M14.952 15.847a3.041 3.041 0 116.082 0 3.041 3.041 0 01-6.082 0z" fill="#553788"/></svg>