<svg xmlns="http://www.w3.org/2000/svg" viewBox="0 0 36 36"><path fill="#F18F26" d="M24.925 18.251c-2.392.797-3.189-3.189-3.189-3.189S22.824 13.971 22 13c1.283-1.282.533-1.924.533-1.924a5.638 5.638 0 0 0-7.974 0 4.777 4.777 0 0 0-.624.764 5.51 5.51 0 0 0-.191.296c-.005.01-.01.021-.016.03a5.58 5.58 0 0 0-.682 1.701c-.176.359-.427.744-.879 1.195-1.595 1.594-5.581-.797-8.771 2.392-.033.033-.051.078-.078.117-.106.095-.218.178-.321.282-3.743 3.743-3.386 10.169.798 14.353 3.974 3.975 9.968 4.487 13.767 1.319.066-.035.132-.069.185-.123.081-.081.142-.158.218-.237.06-.056.123-.104.181-.161 1.909-1.91 2.641-4.206 2.352-6.553-.076-1.116-.187-1.991.439-2.617.797-.797 3.189 0 4.783-1.595 2.393-2.392.718-4.491-.795-3.988z"/><path fill="#642116" d="M17.786 16.093L29.928 3.95l2.12 2.121-12.14 12.142z"/><path fill="#F18F26" d="M35.204 3.185a1.129 1.129 0 0 1-.001 1.593l-3.186 3.185a1.13 1.13 0 0 1-1.593 0l-2.39-2.389a1.129 1.129 0 0 1 .001-1.593L31.222.796a1.13 1.13 0 0 1 1.593 0l2.389 2.389z"/><path fill="#CCD6DD" d="M15.05 17.416L16.463 16 20 19.536l-1.414 1.414zm-3.536 3.534l1.414-1.415 3.535 3.536-1.414 1.414z"/><path fill="#642116" d="M12.928 25.192c.389.389.389 1.025 0 1.414s-1.025.389-1.414 0l-2.122-2.121c-.389-.389-.389-1.025 0-1.414s1.025-.389 1.414 0l2.122 2.121z"/></svg>