<svg xmlns="http://www.w3.org/2000/svg" viewBox="0 0 45 45"><defs><clipPath id="a"><path d="M0 36h36V0H0v36z"/></clipPath></defs><g clip-path="url(#a)" transform="matrix(1.25 0 0 -1.25 0 45)"><path d="M23.33 4.429c-.396.703-2.061 3.517-2.27 4.202-.208.689-.65 5.92-.425 8.497 0 0-4.17 2.707-3.805-.281.37-3.032 1.246-8.775 1.412-9.33.166-.551 2.588-3.442 3.342-4.392.417-.527 2.093.694 1.747 1.304" fill="#664131"/><path d="M20.75 17.128l-4.48-.281c.237-1.643-.645-4.644 1.51-6.081 0 0 2.818.587 4.439.047.812-.271-1.623 4.81-1.468 6.315" fill="#be1931"/><path d="M19.75 17.906c-.519 2.866-5.22-.469-5.22-.469s-1.768-8.649-1.768-9.48c0-.828.914-4.529 1.165-5.857.084-.439 2.633-.614 2.523.355-.069.598-.517 4.492-.444 4.948.073.458.452 2.888 1.109 4.426.47 1.1 3.328 2.25 2.635 6.077" fill="#7c533e"/><path d="M13.938 17.438l-1.782-5.875c2.484-.954 5.564-.937 5.625-.798.083.187-.52.597-.43.767.586 1.1 4.24 2.546 3.374 6.374-.648 2.866-6.788-.469-6.788-.469" fill="#dd2e44"/><path d="M13.228 32.52c-.152-.278-.643-.3-1.093-.052l-2.613 1.418c-.45.25.028 1.304.479 1.055l2.692-1.466c.45-.249.535-.955.535-.955" fill="#66757f"/><path d="M16.511 2.256c-.658.864-4.719-.256-6.118-.957-.934-.47-.657-1.3-.657-1.3h7.033s.4 1.392-.258 2.257" fill="#ccd6dd"/><path d="M20.357 27.068c-2.148 1.12-5.023 2.745-7.273 5.713-.235.31-2.122-.944-1.97-1.156 2.125-2.937 4.438-5.5 11.075-7.398.07-.02.126-.03.168-.042.198.266-1.11 2.419-2 2.883" fill="#664131"/><path d="M25.395 30.784a3.579 3.579 0 1 0-7.158 0 3.579 3.579 0 0 0 7.158 0" fill="#7c533e"/><path d="M19.948 30.785c-1.71 1.278-2.587 3.85-1.95 4.525 1.196 1.268 3.687.109 4.328-.983.642-1.094-1.859-3.93-2.378-3.542" fill="#dd2e44"/><path d="M13.938 17.438s-.686 6.782 2.382 9.149c2.29 1.768 6.143.446 7.165-1.6 1.024-2.044-2.634-3.166-2.634-8.278 0-1.024-6.914-1.275-6.914.729" fill="#9266cc"/><path d="M20.198 30.186c-.466-1.068-.788-1.977-.988-2.783.574-.27 1.061-1.309 1.7-1.542 1.056-.383 1.173.277 1.198.398.257 1.297.908 2.537 1.328 3.203.512.81-2.646 2.084-3.238.724" fill="#7c533e"/><path d="M18.961 32.94c0-1.151 1.674-4.486 4.971-4.473 1.727.007 2.037 1.91 2.028 3.172-.005 1.08-1.175 2.966-2.807 3.433-1.632.467-4.192-.68-4.192-2.133" fill="#ea596e"/><path d="M22.906 4.544c1.5.255 1.286-1.386 1.247-1.974-.093-1.4-.37-2.57-1.362-2.57h-3.322s-.184 1.523 1.603 1.868c.354.069-.311 2.312 1.834 2.676" fill="#ccd6dd"/><path d="M13.84 32.737c0-.912-.764-1.652-1.706-1.652-.94 0-1.704.74-1.704 1.652 0 .913.763 1.652 1.704 1.652.942 0 1.705-.74 1.705-1.652" fill="#7c533e"/><path d="M17.916 26.328c-1.993 0-3.435.498-4.286 1.48-.74.856-1.005 2.054-.787 3.562l.026.168c.057.354.067.418-.14.605-.25.226-.85.46-1.418.46-.488 0-.755-.156-.793-.464-.871-7.123 4.099-7.825 5.732-8.055.1-.014.185-.026.255-.038.304.404 1.045 1.39 1.722 2.286a10.89 10.89 0 0 0-.311-.004" fill="#7c533e"/><path d="M29.608 24.082c1.026-.522.866-4.595 0-4.595-.867 0-2.192.806-2.004 1.61.19.805.881 3.555 2.004 2.985" fill="#66757f"/><path d="M23.506 28.096s-.199 1.072 1.3 1.197c1.236.103 1.563-1.248 2.458-1.731.675-.366 1.447-.378 1.985-.014 0 0-.74-.896-1.57-1.238-1.08-.444-2.412-.159-3.047.181-.992.531-1.126 1.604-1.126 1.604" fill="#0b0200"/><path d="M29.959 23.248c-.152-.278-.643-.301-1.093-.052l-15.318 8.48c-.45.25-.192 1.425.257 1.176l15.62-8.65c.449-.25.689-.676.534-.954" fill="#66757f"/><path d="M14.445 27.615c-.384-1.283-1.605-2.723-1.605-2.723 1.765-1.58 3.844-1.72 3.844-1.72s1.818 2.049 2.159 3.28c-1.551-.431-4.398 1.163-4.398 1.163" fill="#9266cc"/></g></svg>