<svg xmlns="http://www.w3.org/2000/svg" viewBox="0 0 36 36"><path fill="#2A6797" d="M12.002 34.001a2.001 2.001 0 0 1-1.924-2.551l2-7c.124-.435.392-.814.76-1.077l7-5a1.998 1.998 0 1 1 2.324 3.254l-6.431 4.595-1.808 6.328a2.002 2.002 0 0 1-1.921 1.451z"/><path fill="#4289C1" d="M26.998 31c-.3 0-.605-.067-.892-.211l-6-3A2 2 0 0 1 19 26v-5a2 2 0 0 1 4 0v3.764l4.895 2.447A2 2 0 0 1 26.998 31z"/><path fill="#292F33" d="M29.395 28.257c.103-.369-.192-.668-.574-.756a8.976 8.976 0 0 0-.867-.17c-.305-.022-.965.064-1.064.414-.717 2.543-.657 5.569-.246 6.404.242.493.981.429 1.128-.095l1.623-5.797zm-16.697 6.819c.362.125.678-.152.789-.528.177-.601.221-.856.221-.856.04-.303-.007-.967-.35-1.087-2.496-.867-5.52-.986-6.378-.626-.506.213-.486.954.027 1.131l5.691 1.966z"/><path fill="#7C533E" d="M18.329 7.294a3.52 3.52 0 0 0 .685-1.509c.424-2.16-.824-4.224-2.788-4.609-1.964-.386-4.649 1.068-4.589 3.268.06 2.185 1.274 5.408 3.104 4.864a14.61 14.61 0 0 0 1.426-.491c.196.232.335.648.255 1.409-.207 1.94 2.472 2.616 2.677.672.162-1.537-.797-2.513-.77-3.604z"/><path fill="#0B0200" d="M12.517 1.678c2.67-1.637 4.456-1.352 5.937-.147 1.471 1.196 1.524 3.438 1.101 4.863-.423 1.425-.838 1.343-.838 1.343s-1.977.433-2.109-1.399c-.042-.579.605-.886-.089-1.741-.446-.55-1.452-.285-1.463.503-.011.788-.412.637-.412.637l-1.168-2.096s-1.021-.067-1.596.866c-.362.586-1.695-1.399.637-2.829z"/><path fill="#7C533E" d="M27.001 18a1 1 0 0 1-.896-.553c-1.788-3.576-7.366-5.481-7.423-5.5a.999.999 0 0 1-.63-1.265.995.995 0 0 1 1.264-.632c.261.087 6.418 2.181 8.578 6.502A1 1 0 0 1 27.001 18z"/><path fill="#77B255" d="M21.149 10.657c-.89-1.522-2.123-2.212-3.398-1.564-3.992 2.029-1.881 5.138.259 11.373 0 0 1 .927 3.358.296 1.659-.444 2.691.706 2.976.398.285-.309-1.053-6.839-3.195-10.503z"/><path fill="#7C533E" d="M16.143 12.485c-.028.046-2.825 4.631-7.339 5.534l.004.02A.986.986 0 0 0 8 19a1 1 0 0 0 1 1c.068 0 .128-.025.192-.039l.004.02c5.372-1.074 8.529-6.246 8.661-6.466l-1.714-1.03z"/></svg>