<svg xmlns="http://www.w3.org/2000/svg" viewBox="0 0 45 45"><defs><clipPath id="a"><path d="M0 36h36V0H0v36z"/></clipPath><clipPath id="b"><path d="M16.472 16.847c.436-3.033 1.208-8.776 1.403-9.329.195-.552 2.579-4.009 3.466-4.959.491-.528 2.934 1.26 2.526 1.87-.468.703-2.427 3.516-2.674 4.202-.245.689-.506 5.92-.241 8.497 0 0-2.039 1.124-3.374 1.124-.736 0-1.259-.343-1.106-1.405"/></clipPath><clipPath id="c"><path d="M13.037 17.815S11.93 8.788 11.93 7.957c0-.828.517-4.528.83-5.856.105-.44 3.911-.615 3.773.354-.086.599-.645 4.492-.554 4.948.091.458.564 2.888 1.384 4.426.586 1.099 4.429 2.249 3.563 6.077-.211.936-1.125 1.251-2.26 1.251-2.343 0-5.629-1.342-5.629-1.342"/></clipPath><clipPath id="d"><path d="M0 36h36V0H0v36z"/></clipPath></defs><g clip-path="url(#a)" transform="matrix(1.25 0 0 -1.25 0 45)"><path d="M13.209 32.52c-.152-.278-.643-.3-1.093-.052l-2.613 1.418c-.45.25.028 1.304.479 1.055l2.692-1.466c.45-.249.535-.955.535-.955" fill="#66757f"/><path d="M16.492 2.256c-.658.864-4.719-.256-6.118-.957-.934-.47-.657-1.3-.657-1.3h7.033s.4 1.392-.258 2.257" fill="#ccd6dd"/><path d="M20.357 27.068c-2.148 1.12-5.023 2.745-7.273 5.713-.235.31-2.122-.944-1.97-1.156 2.125-2.937 4.438-5.5 11.075-7.398.07-.02.126-.03.168-.042.198.266-1.11 2.419-2 2.883" fill="#ffcc4d"/><path d="M20.952 17.128c-.265-2.577-.003-7.81.241-8.497.247-.686 2.206-3.5 2.674-4.202.407-.611-2.035-2.398-2.526-1.87-.887.95-3.27 4.407-3.466 4.959-.195.553-.967 6.297-1.403 9.329-.43 2.988 4.48.28 4.48.28" fill="#2a6797"/><path d="M13.038 17.814S11.93 8.788 11.93 7.957c0-.829.516-4.529.83-5.857.105-.439 3.91-.614 3.772.355-.086.598-.645 4.492-.554 4.948.09.458.564 2.888 1.384 4.426.586 1.1 4.429 2.25 3.564 6.077-.648 2.867-7.89-.091-7.89-.091" fill="#4289c1"/></g><g clip-path="url(#b)" transform="matrix(1.25 0 0 -1.25 0 45)"><path d="M17.25 11.05l-.76.65c1.256 1.469 3.079 2.207 5.326 2.175l-.021-1c-1.911.035-3.49-.591-4.545-1.825M17.284 7.952l-.828.561c1.083 1.6 2.83 2.554 5.051 2.756l.09-.996c-1.912-.174-3.403-.976-4.313-2.32M18.29 5.506l-.841.54c1.044 1.627 2.767 2.62 4.982 2.878l.115-.994c-1.907-.22-3.38-1.06-4.256-2.424M19.752 3.419l-.842.54c1.045 1.627 2.768 2.62 4.983 2.878l.115-.994c-1.907-.22-3.38-1.06-4.256-2.424" fill="#4289c1"/><path d="M23.878 1.907c-.13.194-3.19 4.783-3.748 5.767-.48.843-1.112 4.811-.893 7.23.046.5-.36 2.172-.687 2.841l.898.44c.347-.707.856-2.602.785-3.372-.213-2.345.445-6.079.766-6.645.54-.953 3.68-5.658 3.71-5.706l-.831-.555z" fill="#4289c1"/><path d="M21.995 1.741c-.13.194-3.19 4.783-3.749 5.767-.479.842-1.113 4.81-.893 7.23.046.498-.358 2.171-.687 2.84l.9.441c.345-.708.854-2.603.783-3.373-.213-2.344.445-6.078.767-6.644.541-.953 3.68-5.658 3.711-5.706l-.832-.555z" fill="#4289c1"/></g><g clip-path="url(#c)" transform="matrix(1.25 0 0 -1.25 0 45)"><path d="M17.636 13.326c-2.845 0-4.997.808-6.227 1.27l.352.934c1.672-.626 5.15-1.933 9.748-.673l.264-.965c-1.5-.41-2.886-.566-4.137-.566M16.421 9.887c-2.513 0-4.453.63-5.6 1.002l.308.95c1.698-.55 5.23-1.695 9.768-.233l.307-.951a15.461 15.461 0 0 0-4.783-.768M15.513 6.89c-2.16 0-3.858.462-4.906.746l.261.965c1.724-.468 5.31-1.44 9.77.242l.352-.935a15.387 15.387 0 0 0-5.477-1.018M14.467 4.064c-1.483 0-2.689.209-3.507.35l.171.986c1.758-.306 5.417-.94 9.702 1.157l.44-.898c-2.566-1.255-4.912-1.595-6.806-1.595" fill="#88c9f9"/><path d="M13.367.934c-.031.232-.76 5.698-.828 6.828-.07 1.158 1.484 8.656 1.66 9.508l.98-.205c-.686-3.29-1.69-8.466-1.642-9.242.066-1.095.814-6.7.82-6.756l-.99-.133z" fill="#55acee"/><path d="M15.02.934c-.03.232-.758 5.698-.827 6.828-.03.48.286 1.427.895 3.199.492 1.434 1.05 3.059 1.292 4.263.179.887.31 2.308.312 2.322l.996-.091c-.006-.061-.14-1.49-.327-2.428-.256-1.27-.825-2.928-1.327-4.391-.384-1.117-.862-2.51-.843-2.813.066-1.095.814-6.7.82-6.756l-.99-.133z" fill="#55acee"/><path d="M17.21.38c-.03.233-.758 5.699-.827 6.829-.06.968 1.119 4.81 2.382 6.884.259.428.633 2.108.633 2.854h1c0-.788-.377-2.713-.78-3.374-1.224-2.01-2.277-5.653-2.237-6.303.066-1.095.814-6.7.82-6.756l-.99-.133z" fill="#55acee"/></g><g clip-path="url(#d)" transform="matrix(1.25 0 0 -1.25 0 45)"><path d="M25.376 30.784a3.579 3.579 0 1 0-7.158 0 3.579 3.579 0 0 0 7.158 0" fill="#ffdc5d"/><path d="M19.929 30.785c-1.71 1.278-2.587 3.85-1.95 4.525 1.196 1.268 3.687.109 4.328-.983.642-1.094-1.86-3.93-2.378-3.542" fill="#4289c1"/><path d="M13.038 17.814s.196 6.405 3.264 8.772c2.29 1.769 6.143.447 7.165-1.598 1.024-2.045-2.414-3.167-2.414-8.28 0-1.023-8.015-.897-8.015 1.107" fill="#77b255"/><path d="M20.18 30.186c-.467-1.068-.789-1.977-.989-2.783.574-.27 1.061-1.309 1.7-1.542 1.056-.383 1.173.277 1.198.398.257 1.297.908 2.537 1.328 3.203.512.81-2.646 2.084-3.238.724" fill="#ffdc5d"/><path d="M18.942 32.94c0-1.151 1.674-4.486 4.97-4.473 1.728.007 2.038 1.91 2.029 3.172-.005 1.08-1.175 2.966-2.807 3.433-1.632.467-4.192-.68-4.192-2.133" fill="#50a5e6"/><path d="M22.887 4.544c1.5.255 1.286-1.386 1.247-1.974-.093-1.4-.37-2.57-1.362-2.57H19.45s-.184 1.523 1.603 1.868c.354.069-.311 2.312 1.834 2.676" fill="#ccd6dd"/><path d="M13.84 32.737c0-.912-.764-1.652-1.706-1.652-.94 0-1.704.74-1.704 1.652 0 .913.763 1.652 1.704 1.652.942 0 1.705-.74 1.705-1.652" fill="#ffdc5d"/><path d="M17.916 26.328c-1.993 0-3.435.498-4.286 1.48-.74.856-1.005 2.054-.787 3.562l.026.168c.057.354.067.418-.14.605-.25.226-.85.46-1.418.46-.488 0-.755-.156-.793-.464-.871-7.123 4.099-7.825 5.732-8.055.1-.014.185-.026.255-.038.304.404 1.045 1.39 1.722 2.286a10.89 10.89 0 0 0-.311-.004" fill="#ffdc5d"/><path d="M14.445 27.615c-.384-1.283-1.605-2.723-1.605-2.723 1.765-1.58 3.844-1.72 3.844-1.72s1.818 2.049 2.159 3.28c-1.551-.431-4.398 1.163-4.398 1.163" fill="#77b255"/><path d="M29.589 24.082c1.026-.522.866-4.595 0-4.595-.867 0-2.192.806-2.004 1.61.189.805.88 3.555 2.004 2.985" fill="#66757f"/><path d="M29.94 23.248c-.153-.278-.644-.301-1.094-.052l-15.318 8.48c-.449.25-.192 1.425.257 1.176l15.62-8.65c.45-.25.69-.676.534-.954" fill="#66757f"/></g></svg>