<svg xmlns="http://www.w3.org/2000/svg" viewBox="0 0 36 36"><path fill="#4289C1" d="M36 5v27s0 4-4 4H4c-4 0-4-4-4-4v-5s25-2 36-22z"/><path fill="#A7D28B" d="M30.59 20.432s2.33-2.136 1.924-3.049c-.408-.914-11.676.831-17.154 3.276-8.22 3.669-12.068 9.767-11.253 11.593.815 1.826 7.925 3.033 16.143-.635 5.48-2.445 14.301-9.669 13.895-10.582-.409-.913-3.555-.603-3.555-.603z"/><path fill="#F5F8FA" d="M34.145 21.035c-.408-.913-3.555-.604-3.555-.604s2.204-2.024 1.942-2.973L4.612 29.674c-.569 1.116-.747 2.037-.505 2.578.211.473.849.9 1.812 1.217l28.215-12.345c0-.027.02-.068.011-.089z"/><path fill="#FFDC5D" d="M24.408 15c-3.401 0-6.462-3.95-6.8-4.4a.999.999 0 1 1 1.599-1.201c.754 1.002 3.158 3.601 5.2 3.601a1 1 0 0 1 .001 2zm-17 4c-.419 0-.809-.265-.949-.684-1.195-3.584.152-5.934 1.492-7.273 1.401-1.401 3.07-1.968 3.141-1.992a.999.999 0 0 1 .636 1.896c-.516.176-4.996 1.861-3.371 6.736A1 1 0 0 1 7.408 19z"/><path fill="#67757F" d="M25.406 26c-.3 0-.605-.067-.893-.211l-2-1a2.008 2.008 0 0 1-.963-1.046l-1.682-4.204-4.204-1.682a2 2 0 0 1 1.486-3.714l5.001 2c.508.203.91.606 1.114 1.114l1.717 4.294 1.32.66A2 2 0 0 1 25.406 26z"/><path fill="#67757F" d="M16.409 30a2 2 0 0 1-1.791-1.105l-1-2a2.001 2.001 0 0 1-.172-1.287l.848-4.241-2.602-4.337a2 2 0 0 1 3.43-2.058l3 4.999a2 2 0 0 1 .246 1.422l-.865 4.327.693 1.386A2.001 2.001 0 0 1 16.409 30z"/><path fill="#FFDC5D" d="M14.755.763c-1.678-.66-4.294.192-4.598 2.152-.302 1.947.252 5 1.962 4.816 1.793-.194 3.632-.584 4.359-2.43.727-1.846-.045-3.878-1.723-4.538z"/><path fill="#FFDC5D" d="M16.002 5.776c2.442-2.869-3.441-2.589-3.441-2.589-1.113.04-.347 1.895-.871 2.908-.359.701 1.153 1.073 1.153 1.073s.694-.01.732.832v.008c.008.214-.014.469-.114.81-.498 1.686 1.766 2.72 2.264 1.03.197-.669.12-1.257.021-1.799L15.736 8c-.151-.807-.338-1.514.266-2.224z"/><path fill="#67757F" d="M18.408 8h-2.672l-.751.766L13.56 8h-2.152a2 2 0 0 0 0 4v3.5a3.5 3.5 0 1 0 7 0V12a2 2 0 0 0 0-4z"/><path fill="#FFAC33" d="M16.673 1.439C15.556.131 14.019-.412 11.386.606c-2.299.889-1.439 2.865-1.024 2.404.661-.734 1.555-.509 1.555-.509l.695 2.048s.331.199.469-.498c.138-.696 1.072-.768 1.378-.208.476.87-.147 1.037-.204 1.557-.179 1.645 1.643 1.582 1.643 1.582s.355.14.961-1.055c.606-1.192.923-3.189-.186-4.488z"/></svg>