<svg xmlns="http://www.w3.org/2000/svg" viewBox="0 0 36 36"><path fill="#AF7E57" d="M14.778 35.254a1 1 0 0 0 1.936-.509l-1.525-5.803a1 1 0 1 0-1.934.508l1.523 5.804zm4.509-.508a1 1 0 1 0 1.935.508l1.524-5.803a1 1 0 1 0-1.935-.509l-1.524 5.804zm-5.082-20.042C14.368 15.232 14 17 14 17c-1 0-1.542-1.177-1.706-1.705L9.045 4.786a1 1 0 1 1 1.91-.591l3.25 10.509zm7.59 0C21.632 15.232 22 17 22 17c1 0 1.543-1.177 1.705-1.705l3.25-10.509a1 1 0 0 0-1.91-.591l-3.25 10.509z"/><path fill="#60352A" d="M18.382 3c-.907 0-1.745.29-2.432.778a2.672 2.672 0 0 0-2.539 2.663c0 1.179.005 2.664 1.559 3.217a4.193 4.193 0 0 0 3.412 1.753 4.205 4.205 0 1 0 0-8.411z"/><path fill="#4289C1" d="M19 23h-2l-3 2-1 5h3l1-3h2l1 3h3l-1-5zm-6 13v-1s0-1 2-1 2 1 2 1v1h-4zm6 0v-1s0-1 2-1 2 1 2 1v1h-4z"/><path fill="#4289C1" d="M22 14h-8v10h8V14z"/><path fill="#AF7E57" d="M16.471 11.412v3.059a1.529 1.529 0 1 0 3.058 0v-3.059h-3.058z"/><path fill="#AF7E57" d="M21.823 5.294h-7.647v4.588a3.823 3.823 0 0 0 7.647 0V5.294z"/><path fill="#60352A" d="M16.4 5.223H14v3.201c1.867 0 2.28-1.93 2.373-2.791.031.86.651 2.791 5.628 2.791V5.223H16.4z"/><path fill="#915A34" d="M19.529 12.176h-3.058s0 .765 1.529.765 1.529-.765 1.529-.765z"/><circle fill="#60352A" cx="16.088" cy="9.5" r=".382"/><path fill="#60352A" d="M20.294 9.5a.382.382 0 1 1-.764 0 .382.382 0 0 1 .764 0z"/><path fill="#915A34" d="M17.235 10.647h1.53s0 .765-.765.765-.765-.765-.765-.765z"/><path fill="#662113" d="M14 23h8v2h-8z"/><path fill="#99AAB5" d="M33.5 3.5a.5.5 0 0 1-.5.5H3a.5.5 0 0 1 0-1h30a.5.5 0 0 1 .5.5z"/><path fill="#292F33" d="M32 0a1 1 0 0 0-1 1 1 1 0 1 0-2 0v5a1 1 0 1 0 2 0 1 1 0 1 0 2 0V1a1 1 0 0 0-1-1zM6 0a1 1 0 0 0-1 1 1 1 0 1 0-2 0v5a1 1 0 1 0 2 0 1 1 0 1 0 2 0V1a1 1 0 0 0-1-1z"/></svg>