<svg xmlns="http://www.w3.org/2000/svg" viewBox="0 0 36 36"><path fill="#E1E8ED" d="M36 16v16s0 4-4 4H4c-4 0-4-4-4-4v-2s17-10 36-14z"/><path fill="#EA596E" d="M32.816 20.98a2 2 0 0 1-.98 2.653L8.221 34.511a2 2 0 0 1-2.652-.979l-.837-1.817a2 2 0 0 1 .979-2.653l23.615-10.877a2.003 2.003 0 0 1 2.654.979l.836 1.816z"/><path fill="#67757F" d="M25.406 26c-.3 0-.605-.067-.893-.211l-2-1a2.008 2.008 0 0 1-.963-1.046l-1.682-4.204-4.204-1.682a2 2 0 0 1 1.486-3.714l5.001 2c.508.203.91.606 1.114 1.114l1.717 4.294 1.32.66A2 2 0 0 1 25.406 26z"/><path fill="#67757F" d="M16.409 30a2 2 0 0 1-1.791-1.105l-1-2a2.001 2.001 0 0 1-.172-1.287l.848-4.241-2.602-4.337a2 2 0 0 1 3.43-2.058l3 4.999a2 2 0 0 1 .246 1.422l-.865 4.327.693 1.386A2.001 2.001 0 0 1 16.409 30z"/><path fill="#BBDDF5" d="M24.408 16c-3.888 0-7.231-4.309-7.6-4.8a2 2 0 0 1 3.198-2.403C21.012 10.127 23.043 12 24.408 12a2 2 0 0 1 0 4zm-17 4.001a2 2 0 0 1-1.897-1.368c-1.058-3.175-.442-6.121 1.733-8.297 1.539-1.54 3.332-2.167 3.532-2.233a2.001 2.001 0 0 1 1.276 3.791c-.963.337-3.996 1.726-2.746 5.474a2 2 0 0 1-1.898 2.633z"/><path fill="#67757F" d="M18.408 15.5a3.5 3.5 0 1 1-7 0v-4a3.5 3.5 0 1 1 7 0v4z"/><path fill="#BBDDF5" d="M20.408 10a2 2 0 0 1-2 2h-7a2 2 0 0 1 0-4h7a2 2 0 0 1 2 2z"/><path fill="#BBDDF5" d="M11 18.5a.498.498 0 0 1-.5-.5v-7c0-2.5 2.708-2.5 4.5-2.5s4.5 0 4.5 2.5v4a.5.5 0 0 1-.324.468l-8 3A.489.489 0 0 1 11 18.5z"/><path fill="#1C6399" d="M31.475 3.842l-1-3A.502.502 0 0 0 30 .5c-.129 0-3.214.035-7.3 3.1-3.867 2.9-4.755 2.9-6.7 2.9h-3a.5.5 0 0 0-.354.147c-.527.527-.666 1.268-.371 1.982.376.904 1.551 1.871 3.725 1.871 1.438 0 3.532-1.156 5.957-2.494C24.935 6.363 28.312 4.5 31 4.5a.501.501 0 0 0 .475-.658z"/><path fill="#D5AB88" d="M18.408 4a4 4 0 0 1-8 0c0-2.209 1.791-3 4-3s4 .791 4 3z"/><path fill="#9AAAB4" d="M12 4c2 0 4-1 4 0s0 3 2 3 3-7-3-7-6 4-3 4z"/><circle fill="#BDDDF4" cx="11.5" cy="4.5" r="1.5"/><path fill="#67757F" d="M11.5 6.5c-1.103 0-2-.897-2-2s.897-2 2-2 2 .897 2 2-.897 2-2 2zm0-3c-.551 0-1 .449-1 1s.449 1 1 1 1-.449 1-1-.449-1-1-1z"/><circle fill="#BDDDF4" cx="14.5" cy="4.5" r="1.5"/><path fill="#67757F" d="M14.5 6.5c-1.103 0-2-.897-2-2s.897-2 2-2 2 .897 2 2-.897 2-2 2zm0-3c-.551 0-1 .449-1 1s.449 1 1 1 1-.449 1-1-.449-1-1-1z"/></svg>