<svg xmlns="http://www.w3.org/2000/svg" viewBox="0 0 36 36"><path fill="#55ACEE" d="M28 0H8C5.042 0 2 5 3 7c1.612 3.225 12 13 12 13h6S31 10 33 7c1-2-2.333-7-5-7zm-4 8l-6 6-6-6c-.532-.532-.843-.919-.894-1.206C10.965 6.003 12.862 6 18 6c6.916 0 7.476.375 6.532 1.446-.147.168-.329.351-.532.554z"/><path fill="#3B88C3" d="M11.106 6.794C10.965 6.003 12.862 6 18 6c6.916 0 7.476.375 6.532 1.446C29.866 1.885 28.195 0 26 0H10c-3.579 0-1.01 4.097 1.106 6.794z"/><path fill="#FFAC33" d="M21.902 21.02A1.5 1.5 0 0 0 22 20.5a1.5 1.5 0 0 0-1.5-1.5h-5a1.5 1.5 0 0 0-1.5 1.5c0 .183.038.357.098.52A7.993 7.993 0 0 0 10 28a8 8 0 1 0 16 0c0-3-1.654-5.611-4.098-6.98z"/><circle fill="#FFD983" cx="18" cy="28" r="6"/></svg>