<svg viewBox="0 0 36 36" xmlns="http://www.w3.org/2000/svg"><path d="M35.538 26.679s1.328 2.214-2.658 6.201c-3.987 3.986-6.201 2.658-6.201 2.658L7.185 16.046s.977-2.748 3.544-5.316c2.568-2.567 5.316-3.544 5.316-3.544z" fill="#d99e82"/><path d="M13.388 9.844c.979.979 4.522 6.109 3.544 7.088-.979.978-6.109-2.565-7.088-3.544l-8.86-8.86A2.507 2.507 0 014.528.984z" fill="#c1694f"/><path d="M.983 4.528L4.528.984 9.844 6.3 6.3 9.844z" fill="#292f33"/><circle cx="19" cy="31" fill="#be1931" r="5"/><path d="M19 36a1 1 0 01-1-1v-8a1 1 0 112 0v8a1 1 0 01-1 1z" fill="#662113"/></svg>