<svg xmlns="http://www.w3.org/2000/svg" viewBox="0 0 45 45"><defs><clipPath id="a"><path d="M0 36h36V0H0v36z"/></clipPath></defs><g clip-path="url(#a)" transform="matrix(1.25 0 0 -1.25 0 45)"><path d="M14.316 31.74c-1.207-.268 0-2.139-.37-3.349-.252-.837 1.474-.94 1.474-.94s1.207.266 1.003-1.677c-.207-1.94 2.472-2.616 2.677-.673.204 1.941-1.385 2.988-.511 4.5 2.092 3.62-4.273 2.138-4.273 2.138" fill="#d5ab88"/><path d="M27.001 18a1 1 0 0 0-.896.553c-1.788 3.575-7.366 5.48-7.422 5.499a1 1 0 0 0 .633 1.897c.261-.087 6.418-2.181 8.578-6.502A1 1 0 0 0 27.001 18" fill="#d5ab88"/><path d="M12.002 1.999a2 2 0 0 0-1.924 2.551l2 7a2 2 0 0 0 .76 1.077l7 5a2 2 0 1 0 2.324-3.254l-6.43-4.595-1.809-6.328a2.003 2.003 0 0 0-1.922-1.451" fill="#2a6797"/><path d="M26.998 5c-.3 0-.605.067-.893.211l-6 3A2 2 0 0 0 19 10v5a2 2 0 0 0 4 0v-3.764l4.894-2.447A2 2 0 0 0 26.998 5" fill="#4289c1"/><path d="M19.014 30.215c-.424-2.16-2.354-2.953-4.272-3.523-1.83-.543-3.045 2.679-3.105 4.864-.06 2.201 2.625 3.654 4.59 3.268 1.963-.385 3.211-2.449 2.787-4.609" fill="#d5ab88"/><path d="M12.517 34.322c2.67 1.637 4.456 1.352 5.937.147 1.471-1.196 1.524-3.438 1.101-4.863-.423-1.424-.838-1.343-.838-1.343s-1.976-.432-2.109 1.399c-.042.579.605.886-.089 1.74-.447.55-1.452.286-1.463-.502-.01-.788-.412-.637-.412-.637l-1.168 2.096s-1.02.067-1.596-.866c-.362-.586-1.695 1.399.637 2.829" fill="#963b22"/><path d="M21.149 25.343c-.89 1.522-2.123 2.212-3.398 1.564-3.993-2.03-1.881-5.138.258-11.373 0 0 1-.927 3.359-.296 1.659.445 2.69-.706 2.976-.398.285.309-1.052 6.839-3.195 10.503" fill="#77b255"/><path d="M16.143 23.515c-.028-.046-2.825-4.631-7.339-5.534l.004-.02A.985.985 0 0 1 8 17a1 1 0 0 1 1-1c.07 0 .128.026.193.04l.004-.02c5.372 1.074 8.53 6.246 8.661 6.466l-1.715 1.029z" fill="#d5ab88"/><path d="M29.395 7.744c.103.369-.192.668-.574.756-.611.14-.867.17-.867.17-.305.02-.966-.065-1.064-.416-.717-2.542-.657-5.567-.246-6.402.242-.493.98-.43 1.127.094l1.624 5.797M12.697.924c.363-.125.679.152.79.528.175.602.22.857.22.857.04.302-.007.966-.35 1.087-2.496.866-5.52.986-6.378.625-.506-.212-.486-.954.028-1.131l5.69-1.966" fill="#292f33"/></g></svg>