<svg xmlns="http://www.w3.org/2000/svg" viewBox="0 0 36 36"><path fill="#ccd6dd" d="M0 9v25a2 2 0 0 0 2 2h32a2 2 0 0 0 2-2V9z"/><path fill="#99aab5" d="M34 7H2a2 2 0 0 0-2 2h36a2 2 0 0 0-2-2"/><path fill="#55acee" d="M2 18h32v4H2zm0-6h32v4H2zm0 12h32v4H2z"/><path fill="#55acee" d="M34 24H2v4h32z"/><path fill="#e1e8ed" d="M8 2h20v34H8z"/><path fill="#55acee" d="M10 20h16v4H10zm0-6h16v4H10zm0 12h16v4H10z"/><path fill="#3b88c3" d="M13 32h10v4H13z"/><path fill="#dd2e44" d="M22 6.5v3h-2.5V12h-3V9.5H14v-3h2.5V4h3v2.5zm-4.5 1H15v1h2.5V11h1V8.5H21v-1h-2.5V5h-1z"/><path fill="#99aab5" d="M26 0H10a2 2 0 0 0-2 2h20a2 2 0 0 0-2-2"/></svg>