<svg xmlns="http://www.w3.org/2000/svg" viewBox="0 0 36 36"><path fill="#ffcc4d" d="M36 34a2 2 0 0 1-2 2H2a2 2 0 0 1-2-2V15a2 2 0 0 1 2-2h32a2 2 0 0 1 2 2z"/><path fill="#6d6e71" d="M34 13H2a2 2 0 0 0-2 2h36a2 2 0 0 0-2-2"/><path fill="#3b88c3" d="M2 24h32v4H2zm0-6h32v4H2zm0 12h32v4H2z"/><path fill="#ffcc4d" d="M28 17h2v18h-2z"/><path fill="#ffe8b6" d="M22 0H6a2 2 0 0 0-2 2v34h20V2a2 2 0 0 0-2-2"/><path fill="#808285" d="M22 0H6a2 2 0 0 0-2 2h20a2 2 0 0 0-2-2"/><path fill="#55acee" d="M6 18h16v4H6zm0 6h16v4H6zm0 6h16v4H6z"/><path fill="#ffe8b6" d="M10 7h2v29h-2zm6 0h2v29h-2z"/><path fill="#269" d="M12 30h4v6h-4z"/><circle cx="14" cy="9" r="6" fill="#a7a9ac"/><circle cx="14" cy="9" r="4" fill="#e6e7e8"/><path fill="#a0041e" d="M17 10h-3a1 1 0 0 1-1-1V4a1 1 0 0 1 2 0v4h2a1 1 0 0 1 0 2"/></svg>