<svg xmlns="http://www.w3.org/2000/svg" viewBox="0 0 36 36"><path fill="#d1d3d4" d="M5 23h26v7H5z"/><path fill="#d99e82" d="M0 36h36l-4-7H4z"/><path fill="#66757f" d="M30 20H6l-5 4h34z"/><path fill="#d1d3d4" d="M18 9.882 9.764 14h16.472z"/><path fill="#66757f" d="m30 14-1-5H7l-1 5-4 3h32zM18 9.882 26.236 14H9.764z"/><path fill="#d1d3d4" d="M6 17h24v3H6zm18-8V5H12v4h-2v2h16V9z"/><path fill="#66757f" d="M12 2h12v2l2 2H10l2-2z"/><path fill="#99aab5" d="M23 0v1H13V0h-1v2h12V0z"/><path fill="#66757f" d="m30 14.764-5.105-2.553-6-3L18 8.764l-.895.447-6 3L6 14.764V16h24zM12 14l6-3 6 3z"/><path fill="#6d6e71" d="M5 27h26v2H5z"/></svg>