<svg xmlns="http://www.w3.org/2000/svg" viewBox="0 0 36 36"><path fill="#edbb9f" d="M11 10h14v15H11z"/><path fill="#be1931" d="M1 18v16a2 2 0 0 0 2 2h30a2 2 0 0 0 2-2V18z"/><path fill="#ffe8b6" d="M1 14h34v3H1z"/><path fill="#c1694f" d="M1 16h34v2H1z"/><path fill="#ccd6dd" d="M18 27a3 3 0 0 0-3 3v6h6v-6a3 3 0 0 0-3-3"/><path fill="#aab8c2" d="M28 27a3 3 0 0 0-3 3v4h6v-4a3 3 0 0 0-3-3M8 27a3 3 0 0 0-3 3v4h6v-4a3 3 0 0 0-3-3"/><circle cx="18" cy="4" r="4" fill="#d99e82"/><path fill="#edbb9f" d="M14 4h8v4h-8z"/><path fill="#d99e82" d="M33 12H3a2 2 0 0 0-2 2h34a2 2 0 0 0-2-2M23 8H13a2 2 0 0 0-2 2h14a2 2 0 0 0-2-2"/><path fill="#ffac33" d="M21.667 21.244c-.204.201-.007.403-.007.403l-.887.888-1.495 1.495-.004-.003-.078.085a2.213 2.213 0 0 1-3.128 0 2.211 2.211 0 1 1 3.128-3.127c.502.505.707 1.189.622 1.846l.895-.894a3.142 3.142 0 1 0-5.301 2.833 3.14 3.14 0 0 0 4.442 0c.028-.027.052-.06.078-.086l.004.004 2.385-2.386s.184.188.392-.016c.204-.199-.004-.404-.004-.404l-.626-.633c-.001.001-.21-.208-.416-.005m-7.447 2.335a3.7 3.7 0 0 1-.122-1.438l-.085-.085c-.824-.822-.33-1.978-.495-2.141s-.329 0-.329 0-1.77 1.771-1.974 1.977c-.164.164 0 .328 0 .328.164.164 1.372-.275 2.087.441z"/></svg>