<svg xmlns="http://www.w3.org/2000/svg" viewBox="0 0 36 36"><path fill="#66757f" d="M3 16h30v18H3z"/><path fill="#ccd6dd" d="M2 34h32a2 2 0 0 1 2 2H0a2 2 0 0 1 2-2"/><path fill="#292f33" d="M18 23a3 3 0 0 0-3 3v6h6v-6a3 3 0 0 0-3-3"/><path fill="#ccd6dd" d="M3 21h4v11H3zm6 0h4v11H9zm20 0h4v11h-4zm-6 0h4v11h-4z"/><path fill="#aab8c2" d="M2 32h32v2H2z"/><path fill="#66757f" d="M36 11 18 0 0 11z"/><path fill="#ccd6dd" d="M18 2.4 2 12v4h32v-4z"/><path fill="#8899a6" d="M3 19h4v2H3zm6 0h4v2H9zm14 0h4v2h-4zm6 0h4v2h-4z"/><path fill="#ccd6dd" d="M1 12h34v5H1z"/><path fill="#aab8c2" d="M36 12a1 1 0 0 1-1 1H1a1 1 0 0 1-1-1v-1a1 1 0 0 1 1-1h34a1 1 0 0 1 1 1zm0 6a1 1 0 0 1-1 1H1a1 1 0 0 1-1-1v-1a1 1 0 0 1 1-1h34a1 1 0 0 1 1 1z"/><path fill="#e1e8ed" d="M13 32h10v2H13z"/><path fill="#f5f8fa" d="M11 34h14v2H11z"/></svg>