<svg xmlns="http://www.w3.org/2000/svg" viewBox="0 0 36 36"><path fill="#c1694f" d="M21 15a4 4 0 0 1-4 4H4a4 4 0 0 1-4-4v-3a4 4 0 0 1 4-4h13a4 4 0 0 1 4 4z"/><path fill="#c1694f" d="M36 6a4 4 0 0 1-4 4H20a4 4 0 0 1-4-4V5a4 4 0 0 1 4-4h12a4 4 0 0 1 4 4z"/><path fill="#ffcc4d" d="M0 12v22a2 2 0 0 0 2 2h31V12z"/><path fill="#55acee" d="M2 32h12v4H2zm0-6h16v4H2z"/><path fill="#ffe8b6" d="M16 5v31h18a2 2 0 0 0 2-2V5z"/><path fill="#55acee" d="M18 20h16v4H18zm0-6h16v4H18zm0-6h16v4H18zm0 18h16v4H18z"/><path fill="#ffe8b6" d="M22 7h2v24h-2zm6 0h2v24h-2z"/><path fill="#3b88c3" d="M22 32h8v4h-8zM10 14v4H6v-4H4v10h2v-4h4v4h2V14z"/><path fill="#ffcc4d" d="M7 25h2v6H7zm7 0h2v6h-2z"/></svg>