<svg xmlns="http://www.w3.org/2000/svg" viewBox="0 0 36 36"><path fill="#a0041e" d="M9.344 14.702h-2a.5.5 0 0 1-.5-.5v-7a.5.5 0 0 1 .5-.5h2a.5.5 0 0 1 .5.5v7a.5.5 0 0 1-.5.5"/><path fill="#ffe8b6" d="M5 16 18 3l13 13v17H5z"/><path fill="#ffcc4d" d="M18 16h1v16h-1z"/><path fill="#66757f" d="M31 17a1 1 0 0 1-.707-.293L18 4.414 5.707 16.707a.999.999 0 1 1-1.414-1.414l13-13a1 1 0 0 1 1.414 0l13 13A.999.999 0 0 1 31 17"/><path fill="#66757f" d="M18 17a.999.999 0 0 1-.707-1.707l6.5-6.5a.999.999 0 1 1 1.414 1.414l-6.5 6.5A1 1 0 0 1 18 17"/><path fill="#c1694f" d="M10 26h4v6h-4z"/><path fill="#55acee" d="M10 17h4v4h-4zm12.5 0h4v4h-4zm0 9h4v4h-4z"/><path fill="#5c913b" d="M33.5 33.5A1.5 1.5 0 0 1 32 35H4a1.5 1.5 0 0 1 0-3h28a1.5 1.5 0 0 1 1.5 1.5"/></svg>