<svg xmlns="http://www.w3.org/2000/svg" viewBox="0 0 36 36"><path fill="#ffcc4d" d="M14 34a2 2 0 0 0 2 2h18a2 2 0 0 0 2-2V14a2 2 0 0 0-2-2H16a2 2 0 0 0-2 2z"/><path fill="#bcbec0" d="M34 12H20v2h16a2 2 0 0 0-2-2"/><path fill="#55acee" d="M20 16h14v20H20z"/><path fill="#ffe8b6" d="M18 0H2a2 2 0 0 0-2 2v32a2 2 0 0 0 2 2h18V2a2 2 0 0 0-2-2"/><path fill="#bcbec0" d="M18 0H2a2 2 0 0 0-2 2h20a2 2 0 0 0-2-2"/><path fill="#55acee" d="M2 22h16v4H2zm0-6h16v4H2zm0-6h16v4H2zm0-6h16v4H2zm0 24h16v8H2z"/><path fill="#3b88c3" d="M6 32h8v4H6zm17 0h8v4h-8z"/><path fill="#ffcc4d" d="M20 26h15v2H20zm0-6h15v2H20z"/><path fill="#dd2e44" d="M36 7a2 2 0 0 1-2 2H24a2 2 0 0 1-2-2V5a2 2 0 0 1 2-2h10a2 2 0 0 1 2 2z"/><path fill="#58595b" d="M26 9h2v3h-2zm4 0h2v3h-2z"/><path fill="#f4abba" d="M24 5h2v2h-2z"/><path fill="#fff" d="M26 5h2v2h-2z"/><path fill="#f4abba" d="M28 5h2v2h-2z"/><path fill="#fff" d="M30 5h2v2h-2z"/><path fill="#f4abba" d="M32 5h2v2h-2z"/></svg>