<svg xmlns="http://www.w3.org/2000/svg" viewBox="0 0 45 45"><defs><clipPath id="a"><path d="M4 31a4 4 0 0 1-4-4V9a4 4 0 0 1 4-4h28a4 4 0 0 1 4 4v18a4 4 0 0 1-4 4H4z"/></clipPath></defs><g clip-path="url(#a)" transform="matrix(1.25 0 0 -1.25 0 45)"><path d="M36 9.5H0V5h36v4.5z" fill="#880082"/><path d="M36 13.93H0v-4.6h36v4.6z" fill="#3558a0"/><path d="M36 18.17H0v-4.5h36v4.5z" fill="#138f3e"/><path d="M36 22.5H0V18h36v4.5z" fill="#fad220"/><path d="M36 26.83H0v-4.5h36v4.5z" fill="#ff5000"/><path d="M36 31H0v-4.33h36V31z" fill="#ff000e"/></g></svg>