<svg xmlns="http://www.w3.org/2000/svg" viewBox="0 0 45 45"><defs><clipPath id="a"><path d="M0 36h36V0H0v36z"/></clipPath></defs><g clip-path="url(#a)" transform="matrix(1.25 0 0 -1.25 0 45)"><path d="M32 31H4a4 4 0 0 1-4-4V9a4 4 0 0 1 4-4h28a4 4 0 0 1 4 4v18a4 4 0 0 1-4 4" fill="#292f33"/><path d="M15.5 25a1.5 1.5 0 0 1-1.5-1.5c0-1.5.671-1.5 1.5-1.5a1.5 1.5 0 0 1 1.5 1.5c0 .829 0 1.5-1.5 1.5M20.5 25c-1.5 0-1.5-.671-1.5-1.5a1.5 1.5 0 0 1 1.5-1.5c.828 0 1.5 0 1.5 1.5a1.5 1.5 0 0 1-1.5 1.5M18 21c-.552 0-1-.224-1-.5s.448-.5 1-.5 1 .224 1 .5-.448.5-1 .5" fill="#292f33"/><path d="M29.02 11.117a1 1 0 0 1-1.282-.598L20.922 13l6.817 2.48a.998.998 0 0 1 1.281-.597 1 1 0 0 1-.684 1.879c.52.19.788.762.598 1.282a.999.999 0 1 1-1.879-.685L18 14.063 8.944 17.36a.999.999 0 1 1-1.879.685.998.998 0 0 1 .598-1.282 1 1 0 1 1 .597-1.282L15.076 13l-6.815-2.48a1 1 0 1 1-.597-1.282 1 1 0 1 1 1.281-.598L18 11.935l9.055-3.295a1 1 0 1 1 1.281.598 1 1 0 0 1 .686 1.88" fill="#e6e7e8"/><path d="M20.5 22a1.5 1.5 0 0 0-1.5 1.5c0 .829 0 1.5 1.5 1.5a1.5 1.5 0 0 0 1.5-1.5c0-1.5-.672-1.5-1.5-1.5M18 20c-.552 0-1 .224-1 .5s.448.5 1 .5 1-.224 1-.5-.448-.5-1-.5m-2.5 2c-.829 0-1.5 0-1.5 1.5a1.5 1.5 0 0 0 1.5 1.5c1.5 0 1.5-.671 1.5-1.5a1.5 1.5 0 0 0-1.5-1.5m2.5 7c-4 0-6-3.239-6-6 0-1.394.827-2.399 2-3.054V18a1 1 0 1 1 2 0v1.216c.33-.072.665-.126 1-.162V18a1 1 0 1 1 2 0v1.054c.335.036.67.09 1 .162V18a1 1 0 1 1 2 0v1.946c1.173.655 2 1.66 2 3.054 0 2.761-2 6-6 6" fill="#e6e7e8"/></g></svg>