<svg viewBox="0 0 36 36" xmlns="http://www.w3.org/2000/svg"><path d="M20.143 32.215a2.143 2.143 0 11-4.286 0 2.143 2.143 0 014.286 0z" fill="#e1e8ed"/><path d="M27.643 15.643C27.643 10.317 23.324 6 18 6a9.643 9.643 0 00-9.643 9.643c0 5.357-1.071 16.572-1.071 16.572a2.143 2.143 0 004.286 0 2.144 2.144 0 004.285 0h4.286a2.144 2.144 0 004.287 0 2.143 2.143 0 004.286 0c-.002 0-1.073-11.215-1.073-16.572z" fill="#e1e8ed"/><path d="M20 3c0 2.209-1.447 6-2 6-.552 0-2-3.791-2-6s1.448-3 2-3c.553 0 2 .791 2 3zm-4.365 30c0-2.612 1.711-8 2.365-8 .653 0 2.365 5.388 2.365 8S18.652 36 18 36c-.654 0-2.365-.388-2.365-3z" fill="#dd2e44"/><ellipse cx="18" cy="22.5" fill="#f4900c" rx="7" ry="4.5"/><path d="M25 22.5c0 1.5-14 1.5-14 0s4.791-4.5 7-4.5 7 3 7 4.5z" fill="#ffac33"/><g fill="#292f33"><circle cx="11.5" cy="18.5" r="1.5"/><circle cx="24.5" cy="18.5" r="1.5"/></g></svg>