<svg xmlns="http://www.w3.org/2000/svg" viewBox="0 0 45 45"><defs><clipPath id="a"><path d="M0 36h36V0H0v36z"/></clipPath></defs><g clip-path="url(#a)" transform="matrix(1.25 0 0 -1.25 0 45)"><path d="M8.916 23.12c-.11-1.652 1.768-3.126-.712-2.959-2.48.167-7.836 2.533-7.769 3.531.067.997 3.71 2.756 6.188 2.59 2.48-.168 2.404-1.509 2.293-3.162M29.038 7.07a.966.966 0 0 1-.564-.094c-2.325-.232-3.225 1.885-3.225 1.885-.44.336-.982 2.01-1.59 1.215l.188-1.402c.187-1.401 2.57-3.224 2.57-3.224l-1.215-1.588a.998.998 0 0 1 .187-1.402.998.998 0 0 1 1.4.187l.674.879-.04-.25a.998.998 0 0 1 .832-1.143.998.998 0 0 1 1.144.83l.47 2.963a1 1 0 0 1-.831 1.145M22.76 6.448a.984.984 0 0 1-.572-.018c-2.335.081-2.943 2.3-2.943 2.3-.39.391-.704 2.122-1.412 1.417l-.003-1.415c-.002-1.414 2.115-3.539 2.115-3.539l-1.417-1.412a1 1 0 1 1 1.412-1.416l.785.781-.073-.241a1 1 0 1 1 1.916-.576l.862 2.873a1 1 0 0 1-.67 1.246" fill="#ffac33"/><path d="M35.009 29.27c-.383.17-.758.058-1.05-.243-.054-.056-4.225-6.307-14.532-4.944-.34.045 3.139-11.968 3.199-11.962.124.015 3.07.369 6.139 2.553 2.818 2.005 6.285 5.992 6.797 13.598.029.419-.17.828-.553.999" fill="#dd2e44"/><path d="M34.477 14.892c-.204.336-.59.56-.98.47-1.293-.294-3.196-.541-4.53-.452-6.356.429-9.36 4.129-9.391 4.16-.275.283.465-11.551.816-11.575 9.194-.62 13.862 6.027 14.057 6.31.222.326.233.75.028 1.087" fill="#dd2e44"/><path d="M24.586 16.984c-.37-5.51 1.316-9.86-4.194-9.489-5.51.371-10.146 4.92-9.774 10.43.371 5.511 14.34 4.57 13.968-.94" fill="#dd2e44"/><path d="M23.257 23.588c-.353-5.235-3.922-9.257-9.156-8.904-5.235.353-9.193 4.883-8.84 10.118.353 5.235 4.832 8.444 10.067 8.09 4-.269 8.24-4.683 7.929-9.304" fill="#dd2e44"/><path d="M12.666 26.877a2 2 0 1 0-3.991.27 2 2 0 0 0 3.99-.27" fill="#292f33"/><path d="M18.179 19.355s7.63-5.648 12.387 4.459c.396.842 1.684-.793.099-4.162-1.586-3.37-8.175-6.44-12.04-1.536-.815 1.035-.446 1.239-.446 1.239" fill="#a0041e"/><path d="M15.327 32.893s6.246-.254 7.798.477c1.553.73.137-2.933-3.262-3.79-3.399-.856-4.536 3.313-4.536 3.313" fill="#dd2e44"/><path d="M17.428 30.212s4.5-.136 6.054.594c1.552.73.136-2.932-3.263-3.79-3.398-.856-2.791 3.196-2.791 3.196" fill="#dd2e44"/></g></svg>