<svg xmlns="http://www.w3.org/2000/svg" viewBox="0 0 36 36"><path fill="#DD2E44" d="M15 30v3s0 3 3 3 3-3 3-3v-3h-6z"/><path fill="#31373D" d="M14 2c.041-3-14-2-14 8 0 4 0 14 3 14C7 24 13.945 6 14 2zm8 0c-.041-3 14-2 14 8 0 4 0 14-3 14-4 0-10.945-18-11-22z"/><path fill="#CCD6DD" d="M31 22c0 7-4 7-4 7H9s-4 0-4-7C5 22 6 0 18 0s13 22 13 22z"/><path fill="#8899A6" d="M23 22.025V22H13v.025a5.499 5.499 0 1 0 5 8.631A5.49 5.49 0 0 0 22.5 33a5.5 5.5 0 0 0 .5-10.975z"/><path fill="#272B2B" d="M11 16s0-2 2-2 2 2 2 2v2s0 2-2 2-2-2-2-2v-2zm10 0s0-2 2-2 2 2 2 2v2s0 2-2 2-2-2-2-2v-2zm-6 8c-1 1 2 4 3 4s4-3 3-4-5-1-6 0z"/></svg>