<svg xmlns="http://www.w3.org/2000/svg" viewBox="0 0 36 36"><path fill="#FFCB4E" d="M33 17c1.072-6.084 1.262-15.048 0-15.864C31.738.322 22.928 3.353 21.086 7.4 20.081 7.132 18 7 18 7s-2.013.132-3.017.399C13.14 3.352 4.261.321 3 1.136 1.738 1.952 1.926 10.916 3 17c0 0-.967 1.979-.967 8.95l16-3.967 16 4C34.033 18.979 33 17 33 17z"/><path fill="#FFD882" d="M23.946 19.282c-2.085 0-4.273.477-5.913 1.281-1.639-.805-3.827-1.281-5.912-1.281-9.932 0-10.088 5.1-10.088 6.664C2.033 27.505 4 35.979 18 35.979s16.033-8.441 16.033-10c0-1.564-.156-6.697-10.087-6.697z"/><path fill="#F28F20" d="M23.406 8.054c2.17-2.383 6.681-4.172 7.607-3.945.752.182.635 6.387.031 9.938-2.562-4.251-7.638-5.993-7.638-5.993zm-10.746 0c-2.168-2.383-6.68-4.172-7.606-3.945-.754.182-.637 6.387-.031 9.938 2.563-4.251 7.637-5.993 7.637-5.993z"/><path fill="#FAAA35" d="M22.04 20c0-4.693-1.809-13-4.04-13s-4.04 8.307-4.04 13c0 4.695 1.809 2 4.04 2s4.04 2.695 4.04-2z"/><path fill="#292F33" d="M15.019 16.999c0 1.105-.904 2-2.019 2s-2.019-.895-2.019-2c0-1.104.904-1.998 2.019-1.998s2.019.895 2.019 1.998zm10.02.001c0 1.105-.904 2-2.02 2A2.01 2.01 0 0 1 21 17c0-1.104.904-1.998 2.02-1.998 1.115 0 2.019.894 2.019 1.998z"/><path fill="#F28F20" d="M23.804 28.895c-3.488.696-4.55-.785-4.784-1.229V25a1 1 0 1 0-2 0v2.659c-.246.452-1.338 1.931-4.823 1.236a1 1 0 0 0-.393 1.961c.79.158 1.495.227 2.127.227 2.078 0 3.339-.741 4.081-1.473.735.733 1.986 1.473 4.058 1.473.631 0 1.337-.068 2.126-.227a1 1 0 0 0 .784-1.177.993.993 0 0 0-1.176-.784z"/><path fill="#292F33" d="M22.02 21.592c0 1.758-3.216 3.978-4.02 3.978-.803 0-4.019-2.221-4.019-3.978C13.981 19.832 16.225 20 18 20s4.02-.168 4.02 1.592z"/><path fill="#F39120" d="M34.021 31.935a1 1 0 0 1-.751-.339c-.03-.035-3.181-3.502-10.41-4.624a1 1 0 1 1 .307-1.977c.366.057.724.119 1.072.187 7.242 1.404 10.399 4.939 10.536 5.096a1.001 1.001 0 0 1-.754 1.657z"/><path fill="#F39120" d="M23.014 26.983a1 1 0 0 1-.347-1.938c5.477-2.023 12.161-.189 12.45-.108a.999.999 0 0 1-.534 1.927c-.064-.018-6.358-1.739-11.223.058a.998.998 0 0 1-.346.061zM1.988 31.935a1 1 0 0 0 .751-.339c.03-.035 3.181-3.502 10.41-4.624a1 1 0 1 0-.307-1.977c-.366.057-.724.119-1.072.187-7.242 1.404-10.399 4.939-10.536 5.096a1.001 1.001 0 0 0 .754 1.657z"/><path fill="#F39120" d="M12.996 26.983a1.001 1.001 0 0 0 .346-1.938c-5.477-2.023-12.161-.189-12.45-.108a.999.999 0 0 0 .534 1.927c.064-.018 6.358-1.739 11.223.058.115.042.232.061.347.061z"/></svg>