<svg xmlns="http://www.w3.org/2000/svg" viewBox="0 0 36 36"><path fill="#D2A077" d="M24.997 28.5a2.501 2.501 0 0 1-2.457-2.053l-4-22a2.5 2.5 0 0 1 4.919-.895l4 22a2.5 2.5 0 0 1-2.462 2.948z"/><path fill="#F3D2A2" d="M28.375 24.765A2.496 2.496 0 0 0 28 22.5c-.059-.078-.44-.585-1.017-1.34.005-.052.017-.112.017-.16 0-.458-1.913-2.623-3.74-4.586-1.587-1.965-3.261-3.951-4.492-5.182l-1.274-1.274-1.612.806c-5.718 2.859-8.647 3.855-8.672 3.864a2.5 2.5 0 1 0 1.581 4.744c.117-.039 2.666-.899 7.65-3.311 1.094 1.23 2.378 2.795 3.574 4.296l.704 1.174a.784.784 0 0 1-.061.896l-3.513 4.392a.787.787 0 0 1-.365.255l-2.531.844a.783.783 0 0 1-.497 0l-4.73-1.576c-.676-2.082-.533-4.102-.531-4.124a2.5 2.5 0 0 0-2.274-2.707 2.495 2.495 0 0 0-2.707 2.273c-.022.261-.51 6.424 3.313 10.594 2.208 2.408 5.296 3.63 9.178 3.63.66 0 1.283.009 1.871.018.529.008 1.042.016 1.537.016 2.764 0 5.004-.231 6.738-1.941 1.649-1.626 2.354-4.195 2.354-8.592a2.495 2.495 0 0 0-.126-.744z"/><path fill="#D2A077" d="M27.001 21a1 1 0 0 1-.915-.594l-4-9a1 1 0 0 1 1.828-.813l4 9A1 1 0 0 1 27.001 21z"/><path fill="#F3D2A2" d="M24.766 34.38l-1.531-4.76s-.066.011-.175.066c.017-.009 1.821-.995 2.461-6.003.775-6.075-.774-9.6-.79-9.634l-.093-.231-3.5-10.104a2.5 2.5 0 1 1 4.725-1.637l3.469 10.013c.377.887 2.035 5.285 1.148 12.226-1.042 8.163-4.943 9.816-5.714 10.064z"/></svg>