<svg xmlns="http://www.w3.org/2000/svg" viewBox="0 0 36 36"><path fill="#f4900c" d="M14.174 17.075 6.75 7.594l-3.722 9.481z"/><path fill="#f4900c" d="m17.938 5.534-6.563 12.389H24.5z"/><path fill="#f4900c" d="m21.826 17.075 7.424-9.481 3.722 9.481z"/><path fill="#ffcc4d" d="M28.669 15.19 23.887 3.523l-5.88 11.668-.007.003-.007-.004-5.88-11.668L7.331 15.19C4.197 10.833 1.28 8.042 1.28 8.042S3 20.75 3 33h30c0-12.25 1.72-24.958 1.72-24.958s-2.917 2.791-6.051 7.148"/><circle cx="17.957" cy="22" r="3.688" fill="#5c913b"/><circle cx="26.463" cy="22" r="2.412" fill="#981ceb"/><circle cx="32.852" cy="22" r="1.986" fill="#dd2e44"/><circle cx="9.45" cy="22" r="2.412" fill="#981ceb"/><circle cx="3.061" cy="22" r="1.986" fill="#dd2e44"/><path fill="#ffac33" d="M33 34H3a1 1 0 1 1 0-2h30a1 1 0 1 1 0 2m0-3.486H3a1 1 0 1 1 0-2h30a1 1 0 1 1 0 2"/><circle cx="1.447" cy="8.042" r="1.407" fill="#ffcc4d"/><circle cx="6.75" cy="7.594" r="1.192" fill="#f4900c"/><circle cx="12.113" cy="3.523" r="1.784" fill="#ffcc4d"/><circle cx="34.553" cy="8.042" r="1.407" fill="#ffcc4d"/><circle cx="29.25" cy="7.594" r="1.192" fill="#f4900c"/><circle cx="23.887" cy="3.523" r="1.784" fill="#ffcc4d"/><circle cx="17.938" cy="5.534" r="1.784" fill="#f4900c"/></svg>