<svg xmlns="http://www.w3.org/2000/svg" viewBox="0 0 45 45"><defs><clipPath id="a"><path d="M0 0h36v36H0V0z"/></clipPath></defs><path d="M18.75 27.5v-3.75H25v3.75h2.326V35h-11.25v-7.5h2.674z" fill="#ffdc5d"/><g clip-path="url(#a)" transform="matrix(1.25 0 0 -1.25 0 45)"><path d="M18 35.86a8.809 8.809 0 0 1-3.739-.835c-.197.017.8.03.6.03a7.135 7.135 0 1 1-2.335-13.879c1.625-1.86 2.812-3.038 5.474-3.038a8.862 8.862 0 0 1 0 17.723" fill="#ffac33"/><path d="M10 32V22h.024c.253-3.89 3.498-6.969 7.476-6.969 3.978 0 7.247 3.079 7.5 6.969v9l-15 1z" fill="#ffdc5d"/><path d="M14 23a1 1 0 0 0-1 1v1a1 1 0 0 0 2 0v-1a1 1 0 0 0-1-1M21 23a1 1 0 0 0-1 1v1a1 1 0 0 0 2 0v-1a1 1 0 0 0-1-1" fill="#662113"/><path d="M20.722 18.277h-6.444s.805-1.61 3.222-1.61 3.222 1.61 3.222 1.61M18 20.5h-1a.5.5 0 0 0 0 1h1a.5.5 0 0 0 0-1" fill="#bf6952"/><path d="M25.035 14h-5l-2.472-3.778L15 14H9.035c-1.78 0-1.945-1.193-1.945-2.973V-1h20.945v12.027c0 1.973-1 2.973-3 2.973" fill="#3b93d9"/><path d="M23.834 0h-1.028v10h1.028V0zM11.861 0h-1.028v10h1.028V0z" fill="#1b6399"/><path d="M26 26l-1 6-2 1H10v-7c6.07 0 9.549 2.576 11.356 4.603C21.921 28.83 23.253 26 26 26" fill="#ffac33"/><path d="M26.875 17a6.16 6.16 0 0 1-.875-.07 6.16 6.16 0 0 1-.875.07 6.125 6.125 0 1 1 0-12.25c.298 0 .588.029.875.07a6.16 6.16 0 0 1 .875-.07 6.125 6.125 0 1 1 0 12.25" fill="#f4900c"/><path d="M28 2v3h-4V2h-1V0h6v2h-1z" fill="#ffdc5d"/><path d="M31 3h-3l-2-2-2 2h-2c-3 0-5-2-5-4h18c0 1.973-2 4-4 4" fill="#88c9f9"/><path d="M32 13.286l-4.286.857L20 13.286V9h.002L20 8.96C20 5.669 22.685 3 25.998 3c3.312 0 5.997 2.669 5.997 5.96l-.002.04H32v4.286z" fill="#ffdc5d"/><path d="M33 10.875l-.875 2.625-3.262 1.419-8.988-1.419-.753-2.625c4.734 0 7.372 1.536 8.807 2.946 1.081-1.276 2.908-2.946 5.071-2.946" fill="#f4900c"/><path d="M28 6h-4s.389-1.333 2-1.333S28 6 28 6M26 6.5a.47.47 0 0 0-.35.15.47.47 0 0 0-.15.35c0 .13.05.26.15.36.17.17.52.18.71-.009A.504.504 0 0 0 26.5 7a.47.47 0 0 0-.15-.35.47.47 0 0 0-.35-.15" fill="#bf6952"/><path d="M28 8a.832.832 0 0 0-.833.833v.834a.832.832 0 1 0 1.666 0v-.834A.832.832 0 0 0 28 8M24 8a.832.832 0 0 0-.833.833v.834a.832.832 0 1 0 1.666 0v-.834A.832.832 0 0 0 24 8" fill="#662113"/><path d="M9.875 17A6.16 6.16 0 0 1 9 16.93a6.16 6.16 0 0 1-.875.07 6.125 6.125 0 1 1 0-12.25c.298 0 .588.029.875.07a6.16 6.16 0 0 1 .875-.07 6.125 6.125 0 1 1 0 12.25" fill="#f4900c"/><path d="M11 2v3H7V2H6V0h6v2h-1z" fill="#ffdc5d"/><path d="M14 3h-3L9 1 7 3H5C2 3 0 1 0-1h18c0 1.973-2 4-4 4" fill="#88c9f9"/><path d="M15 13.286l-4.286.857L3 13.286V9h.002L3 8.96C3 5.669 5.685 3 8.998 3c3.312 0 5.997 2.669 5.997 5.96l-.002.04H15v4.286z" fill="#ffdc5d"/><path d="M16 10.875l-.875 2.625-3.262 1.419L2.875 13.5l-.753-2.625c4.734 0 7.372 1.536 8.807 2.946 1.081-1.276 2.908-2.946 5.071-2.946" fill="#f4900c"/><path d="M11 6H7s.389-1.333 2-1.333S11 6 11 6M9 6.5a.47.47 0 0 0-.35.15.47.47 0 0 0-.15.35c0 .13.05.26.15.36.17.17.52.18.71-.009A.504.504 0 0 0 9.5 7a.47.47 0 0 0-.15-.35A.47.47 0 0 0 9 6.5" fill="#bf6952"/><path d="M11 8a.832.832 0 0 0-.833.833v.834a.832.832 0 1 0 1.666 0v-.834A.832.832 0 0 0 11 8M7 8a.832.832 0 0 0-.833.833v.834a.832.832 0 1 0 1.666 0v-.834A.832.832 0 0 0 7 8" fill="#662113"/></g></svg>