<svg xmlns="http://www.w3.org/2000/svg" viewBox="0 0 45 45"><defs><clipPath id="a"><path d="M0 36h36V0H0v36z"/></clipPath><clipPath id="b"><path d="M21.997 36C17 36 14.874 34.663 13 32c-1.992-2.831 0-5-3-7-1.86-1.24 6-2.313 12-2.313S35.861 23.76 34 25c-3 2-1.008 4.169-3 7-1.874 2.663-5 4-9.003 4z"/></clipPath><clipPath id="c"><path d="M0 36h36V0H0v36z"/></clipPath></defs><g clip-path="url(#a)" transform="matrix(1.25 0 0 -1.25 0 45)"><path d="M35 0v3.5C35 6.814 31.314 9 28 9H16c-3.313 0-7-2.186-7-5.5V0h26z" fill="#3b88c3"/><path d="M21.945 30.93c4.105 0 10.947-2.052 10.947-10.946 0-8.896 0-10.948-2.052-10.948-2.053 0-4.79 2.052-8.895 2.052-4.105 0-6.785-2.052-8.895-2.052-2.288 0-2.054 8.21-2.054 10.948 0 8.894 6.844 10.947 10.95 10.947" fill="#ffac33"/><path d="M18 9h8s-1.018-5-4-5-4 5-4 5" fill="#292f33"/><path d="M27 5H17v4h10V5z" fill="#292f33"/><path d="M18.328 8.982c1.466-1.065 2.964-.98 3.672-.98.708 0 2.194-.085 3.66.98v3.203h-7.332V8.982z" fill="#ffdc5d"/><path d="M18.322 10.821c1.022-1.155 2.29-1.468 3.668-1.468 1.38 0 2.647.313 3.67 1.468v2.936h-7.338v-2.936z" fill="#f9ca55"/><path d="M13.734 20.282c0 5.834 3.676 10.564 8.21 10.564 4.535 0 8.21-4.73 8.21-10.564 0-5.833-3.675-10.285-8.21-10.285-4.534 0-8.21 4.452-8.21 10.285" fill="#ffdc5d"/><path d="M21.945 12.457c-1.606 0-2.447.794-2.537.885a.682.682 0 0 0 0 .967.686.686 0 0 0 .961.006c.035-.032.551-.491 1.576-.491 1.038 0 1.555.473 1.576.492a.69.69 0 0 0 .963-.019.678.678 0 0 0-.004-.955c-.09-.091-.93-.885-2.535-.885" fill="#df1f32"/><path d="M11.725 17c-.02 1-.044.224-.044.465 0 3.422 2.053-.494 2.053 1.943 0 2.439 1.368 2.683 2.737 4.051.684.685 2.052 2.026 2.052 2.026s3.421-2.067 6.158-2.067c2.737 0 5.474-1.375 5.474-4.112s2.053 1.584 2.053-1.837c0-.244-.023.531-.04-.469h.72c.005 2 .005 1.924.005 3.202 0 8.895-6.842 12.207-10.949 12.207-4.104 0-10.947-3.257-10.947-12.152 0-.793-.02-1.257.008-3.257h.72z" fill="#ffac33"/><path d="M18.608 18.113a.85.85 0 0 0-.846.847v.844c0 .465.381.846.846.846a.85.85 0 0 0 .847-.846v-.844a.85.85 0 0 0-.847-.847M25.373 18.113a.85.85 0 0 0-.846.847v.844c0 .465.381.846.846.846a.849.849 0 0 0 .846-.846v-.844a.85.85 0 0 0-.846-.847" fill="#662113"/><path d="M22.836 15.5h-1.69a.423.423 0 0 0-.423.423v.153c0 .234.189.424.423.424h1.69c.233 0 .424-.19.424-.424v-.153a.424.424 0 0 0-.424-.423" fill="#c1694f"/><path d="M15.444 20.064c0-1.448-.734-2.622-1.639-2.622s-1.639 1.174-1.639 2.622.734 2.623 1.64 2.623c.904 0 1.638-1.175 1.638-2.623M31.833 20.064c0-1.448-.733-2.622-1.639-2.622-.905 0-1.638 1.174-1.638 2.622s.733 2.623 1.638 2.623c.906 0 1.639-1.175 1.639-2.623" fill="#ffdc5d"/><path d="M23 1.063L22 0l-1 1-1 4h3.5L23 1.062z" fill="#292f33"/><path d="M14.5 9c0-1.068 1.5-3.662 3.5-5.798C19.581 1.515 22 0 22 0c0 3.271-1 4.27-2 5.338C19 6.404 17 6.864 17 9c0 1.066-2.5 0-2.5 0M29.5 9c0-1.068-1.5-3.662-3.5-5.798C24.419 1.515 22 0 22 0c0 3.271 1 4.27 2 5.338C25 6.404 27 6.864 27 9c0 1.066 2.5 0 2.5 0" fill="#55acee"/><path d="M21 20a3.75 3.75 0 1 0-7.499.001A3.75 3.75 0 0 0 21 20M30.5 20a3.75 3.75 0 1 0-7.499.001A3.75 3.75 0 0 0 30.5 20" fill="#f9ca55"/><path d="M24.5 18.5h-5V21h5v-2.5z" fill="#f9ca55"/><path d="M21 20.5a3.5 3.5 0 1 0-7 0 3.5 3.5 0 0 0 7 0M30 20.5a3.5 3.5 0 1 0-7 0 3.5 3.5 0 0 0 7 0" fill="#e1e8ed"/><path d="M24.5 19.5h-5V22h5v-2.5z" fill="#e1e8ed"/><path d="M20 20.5a2.5 2.5 0 1 0-5 0 2.5 2.5 0 0 0 5 0M29 20.5a2.5 2.5 0 1 0-5 0 2.5 2.5 0 0 0 5 0" fill="#292f33"/><path d="M34 25c-3 2-1.008 4.169-3 7-1.874 2.663-5 4-9.003 4C17 36 14.874 34.663 13 32c-1.992-2.831 0-5-3-7-1.861-1.24 6-2.313 12-2.313S35.861 23.76 34 25" fill="#3b88c3"/></g><g clip-path="url(#b)" transform="matrix(1.25 0 0 -1.25 0 45)"><path d="M20 24.5h-.5c-3.604 0-10.687 1.035-12.724 2.053l.448.894c1.793-.897 8.185-1.854 11.776-1.941V36h1V24.5zM24.5 24.5H24V36h1V25.505c4.011.078 9.996 1.052 11.776 1.942l.448-.894C35.051 25.466 28.299 24.5 24.5 24.5" fill="#269"/></g><g clip-path="url(#c)" transform="matrix(1.25 0 0 -1.25 0 45)"><path d="M5 12l-1.5-1S5 8.5 5 5V0h2v5c0 4.5-2 7-2 7" fill="#66757f"/><path d="M6.08 12.193a.784.784 0 0 0-.308-1.064l-2.13-1.178a.784.784 0 0 0-1.065.308l-.45.817a.783.783 0 0 0 .306 1.064l2.13 1.178a.782.782 0 0 0 1.064-.309l.452-.816z" fill="#99aab5"/><path d="M3.49 13.416C7.677 15.625.052 19.687.052 19.687s-.75-8.48 3.438-6.271" fill="#f4900c"/><path d="M2.96 14.635c2.202 1.162-1.808 3.299-1.808 3.299s-.394-4.46 1.808-3.3" fill="#ffdc5d"/></g></svg>