<svg xmlns="http://www.w3.org/2000/svg" viewBox="0 0 45 45"><defs><clipPath id="a"><path d="M0 36h36V0H0v36z"/></clipPath></defs><g clip-path="url(#a)" transform="matrix(1.25 0 0 -1.25 0 45)"><path d="M36 0v2a6 6 0 0 1-6 6H14a6 6 0 0 1-6-6V0h28z" fill="#e1e8ed"/><path d="M22 0l5 8H17l5-8z" fill="#269"/><path d="M17.64 7.962c0-1.962 8.72-1.962 8.72 0v3.749h-8.72V7.96z" fill="#af7e57"/><path d="M17.632 10.027c1.216-1.374 2.724-1.746 4.364-1.746 1.639 0 3.147.373 4.364 1.746v3.491h-8.728v-3.49z" fill="#9b6a49"/><path d="M15.444 20.064c0-1.448-.734-2.622-1.639-2.622s-1.639 1.174-1.639 2.622.734 2.623 1.64 2.623c.904 0 1.638-1.175 1.638-2.623M31.833 20.064c0-1.448-.733-2.622-1.639-2.622-.905 0-1.638 1.174-1.638 2.622s.733 2.623 1.638 2.623c.906 0 1.639-1.175 1.639-2.623" fill="#af7e57"/><path d="M13.477 19.04c0 5.59 3.816 10.122 8.523 10.122s8.522-4.532 8.522-10.121c0-5.59-3.814-10.121-8.521-10.121-4.708 0-8.524 4.532-8.524 10.12" fill="#af7e57"/><path d="M22 12.198c-2.754 0-3.6.705-3.741.848a.655.655 0 0 0 .902.95c.052-.037.721-.487 2.839-.487 2.2 0 2.836.485 2.842.49a.638.638 0 0 0 .913-.015.669.669 0 0 0-.014-.938c-.141-.143-.987-.848-3.741-.848" fill="#915a34"/><path d="M22 32.52c5.648 0 9.178-4.168 9.178-7.64 0-3.473-.706-4.863-1.412-3.473l-1.412 2.778s-4.236 0-5.648 1.39c0 0 2.118-4.168-2.118 0 0 0 .706-2.78-3.53.694 0 0-2.118-1.39-2.824-4.862-.196-.964-1.412 0-1.412 3.473s2.824 7.64 9.178 7.64" fill="#60352a"/><path d="M18 19c-.55 0-1 .45-1 1v1c0 .55.45 1 1 1s1-.45 1-1v-1c0-.55-.45-1-1-1M26 19c-.55 0-1 .45-1 1v1c0 .55.45 1 1 1s1-.45 1-1v-1c0-.55-.45-1-1-1" fill="#60352a"/><path d="M22.75 16.25h-1.5a.752.752 0 0 0-.75.75c0 .413.337.75.75.75h1.5c.413 0 .75-.337.75-.75a.752.752 0 0 0-.75-.75" fill="#915a34"/><path d="M31.178 24S28.556 23 22 23c-6.555 0-9.177 1-9.177 1v6h18.355v-6z" fill="#ccd6dd"/><path d="M16 24.75a.5.5 0 0 0-1 0v3a.5.5 0 0 0 1 0v-3zM29 24.75a.5.5 0 0 0-1 0v3a.5.5 0 0 0 1 0v-3zM19 24.35a.5.5 0 0 0-1 0v3a.5.5 0 0 0 1 0v-3zM22.5 24.25a.5.5 0 0 0-1 0v3a.5.5 0 0 0 1 0v-3zM26 24.35a.5.5 0 0 0-1 0v3a.5.5 0 0 0 1 0v-3z" fill="#99aab5"/><path d="M28.25 36a6.207 6.207 0 0 1-3.167-.869 6.207 6.207 0 0 1-6.25.051A6.212 6.212 0 0 1 15.75 36a6.25 6.25 0 0 1-6.25-6.25c0-3.452 11.294-3.25 12.416-3.25 1.157 0 12.584-.202 12.584 3.25A6.25 6.25 0 0 1 28.25 36" fill="#e1e8ed"/><path d="M10 11.25C10 7.798 7.985 6 5.5 6S1 7.798 1 11.25s2.015 7.25 4.5 7.25 4.5-3.798 4.5-7.25" fill="#99aab5"/><path d="M6.5 0h-2v8h2V0z" fill="#99aab5"/><path d="M10 11.25C10 7.798 7.985 6 5.5 6S1 7.798 1 11.25s2.015 7.25 4.5 7.25 4.5-3.798 4.5-7.25" fill="#c1694f"/><path d="M6.5 0h-2v8h2V0z" fill="#c1694f"/><path d="M14.895 31.511a.499.499 0 0 1 .594.383c.032.145.335 1.441 1.32 2.212.76.596 1.747.987 2.006 1.084a6.202 6.202 0 0 1-1.268.535 7.903 7.903 0 0 1-1.356-.832c-1.235-.967-1.616-2.492-1.68-2.788a.5.5 0 0 1 .383-.594M27.05 34.097c.987-.772 1.29-2.066 1.32-2.212a.501.501 0 0 1 .979.211c-.065.295-.443 1.82-1.681 2.788a7.908 7.908 0 0 1-1.308.81 6.313 6.313 0 0 1-1.238-.543c.336-.13 1.226-.504 1.929-1.054" fill="#ccd6dd"/></g></svg>