<svg xmlns="http://www.w3.org/2000/svg" viewBox="0 0 45 45"><defs><clipPath id="a"><path d="M0 0h36v36H0V0z"/></clipPath><clipPath id="b"><path d="M0 36h36V0H0v36z"/></clipPath></defs><g clip-path="url(#a)" transform="matrix(1.25 0 0 -1.25 0 45)"><path d="M32 0v2a6 6 0 0 1-6 6H10a6 6 0 0 1-6-6V0h28zM30 28.5c0-4.143-5.372-7.5-12-7.5-6.626 0-11.999 3.357-11.999 7.5 0 4.142 5.373 7.5 11.999 7.5 6.628 0 12-3.359 12-7.5" fill="#2a6797"/><path d="M13.64 7.9C15.384 6.63 16.488 5.935 18 5.935c1.512 0 2.616.696 4.36 1.963v3.811h-8.72V7.9z" fill="#f7dece"/><path d="M13.632 10.027c1.216-1.374 2.724-1.746 4.364-1.746 1.639 0 3.147.373 4.364 1.746v3.491h-8.728v-3.49z" fill="#eec2ad"/><path d="M11.444 20.064c0-1.448-.734-2.622-1.639-2.622s-1.639 1.174-1.639 2.622.734 2.623 1.64 2.623c.904 0 1.638-1.175 1.638-2.623M27.833 20.064c0-1.448-.733-2.622-1.639-2.622-.905 0-1.638 1.174-1.638 2.622s.733 2.623 1.638 2.623c.906 0 1.639-1.175 1.639-2.623" fill="#f7dece"/><path d="M9.477 19.04c0 5.59 3.816 10.122 8.523 10.122s8.522-4.532 8.522-10.121c0-5.59-3.814-10.121-8.521-10.121-4.708 0-8.524 4.532-8.524 10.12" fill="#f7dece"/><path d="M18 12.198c-2.754 0-3.6.705-3.741.848a.655.655 0 0 0 .902.95c.052-.037.721-.487 2.839-.487 2.2 0 2.836.485 2.842.49a.638.638 0 0 0 .913-.015.669.669 0 0 0-.014-.938c-.141-.143-.987-.848-3.741-.848" fill="#c1694f"/><path d="M18 31.594c5.648 0 9.178-3.242 9.178-6.715s-.706-4.863-1.412-3.473l-1.412 2.778s-4.236 0-5.648 1.39c0 0 2.118-4.168-2.118 0 0 0 .706-2.779-3.53.694 0 0-2.118-1.389-2.824-4.862-.196-.964-1.412 0-1.412 3.473s2.824 6.715 9.178 6.715" fill="#292f33"/><path d="M14 19c-.55 0-1 .45-1 1v1c0 .55.45 1 1 1s1-.45 1-1v-1c0-.55-.45-1-1-1M22 19c-.55 0-1 .45-1 1v1c0 .55.45 1 1 1s1-.45 1-1v-1c0-.55-.45-1-1-1" fill="#662113"/><path d="M18.75 16.25h-1.5a.752.752 0 0 0-.75.75c0 .413.337.75.75.75h1.5c.413 0 .75-.337.75-.75a.752.752 0 0 0-.75-.75" fill="#c1694f"/><path d="M8.5 27c0 1.105 4.253 2 9.5 2s9.5-.895 9.5-2-4.253-2-9.5-2-9.5.895-9.5 2" fill="#2a6797"/><path d="M27.001 27h-18v2.999s3.75 2.25 8.999 2.25c5.251 0 9.001-2.25 9.001-2.25V27z" fill="#4289c1"/><path d="M27.5 27h-19c-.275 0-.5.225-.5.5s.225.5.5.5h19c.275 0 .5-.225.5-.5s-.225-.5-.5-.5" fill="#fdcb58"/><path d="M18.001 5.122s3.381-2.494 4.093-2.778C22.25 2.281 21.728 6 21.728 6h-7.455s-.523-3.78-.231-3.625c.639.343 3.959 2.747 3.959 2.747" fill="#193d59"/><path d="M19.313 2.563s.375.624.53.905c.183.33.453 1.572.453 1.572L18.11 6c0 .008-.16-.004-.16-.004l-.184-.042-.172-.063c-.217-.07.094-.008.094-.015l-1.974-.836s.288-1.242.47-1.571c.156-.281.528-.906.528-.906S15.958 2 15.676 0h4.667c-.28 1.594-1.03 2.563-1.03 2.563" fill="#193d59"/><path d="M13.291 9.375c.566-.566 4.71-3.383 4.71-3.383s-2.127-1.242-4.085-3.534c-.197-.23-1.542 4.625-1.583 5.709-.012.303.687 1.479.958 1.208M22.73 9.375c-.566-.566-4.709-3.383-4.709-3.383s2.126-1.242 4.084-3.534c.196-.23 1.542 4.625 1.583 5.709.012.303-.687 1.479-.958 1.208" fill="#4289c1"/><path d="M18.016 5.313c.39.022 1.543-.771 1.422-1.25-.461-1.827-.85-1.391-1.391-1.391-.611 0-.964-.473-1.39 1.312-.093.387.797 1.297 1.359 1.328M20.047 0h-4.023s.54 2.167 2.018 2.167C19.519 2.167 20.047 0 20.047 0" fill="#1e4b6e"/></g><g clip-path="url(#b)" transform="matrix(1.25 0 0 -1.25 0 45)"><path d="M20.25 34.499l-.002-.001v.001-.001a.733.733 0 0 1-.57-.282c-.282-.069-.667-.084-1.157.071a.751.751 0 0 1-.521.212.748.748 0 0 1-.519-.212c-.491-.155-.876-.14-1.157-.071a.736.736 0 0 1-.571.282v.001-.001l-.002.001a.749.749 0 1 1 0-1.5h.002c0-3 1.498-3.75 2.247-3.75.751 0 2.248.75 2.248 3.75h.002a.75.75 0 1 1 0 1.5" fill="#fdcb58"/><path d="M11.468 6.588L5.542 5.65a.5.5 0 0 0-.572.416l-.157.988a.501.501 0 0 0 .416.57l5.927.94a.502.502 0 0 0 .572-.415l.156-.99a.503.503 0 0 0-.416-.571" fill="#4289c1"/><path d="M11.202 7.486a.576.576 0 1 0-1.153.001.576.576 0 0 0 1.153 0" fill="#fff"/><path d="M24.544 6.588l5.926-.938a.5.5 0 0 1 .572.416l.157.988a.5.5 0 0 1-.416.57l-5.927.94a.502.502 0 0 1-.572-.415l-.156-.99a.503.503 0 0 1 .416-.571" fill="#4289c1"/><path d="M24.615 7.486a.576.576 0 1 1 1.152 0 .576.576 0 0 1-1.152 0" fill="#fff"/></g></svg>