<svg xmlns="http://www.w3.org/2000/svg" viewBox="0 0 45 45"><defs><clipPath id="a"><path d="M0 36h36V0H0v36z"/></clipPath></defs><g clip-path="url(#a)" transform="matrix(1.25 0 0 -1.25 0 45)"><path d="M36 0v2a6 6 0 0 1-6 6H14a6 6 0 0 1-6-6V0h28z" fill="#ccd6dd"/><path d="M17.64 7.962c0-2.846 8.72-2.962 8.72 0v3.749h-8.72V7.96z" fill="#f3d2a2"/><path d="M17.632 10.027c1.216-1.374 2.724-1.746 4.364-1.746 1.639 0 3.147.373 4.364 1.746v3.491h-8.728v-3.49z" fill="#e2c196"/><path d="M15.444 20.064c0-1.448-.734-2.622-1.639-2.622s-1.639 1.174-1.639 2.622.734 2.623 1.64 2.623c.904 0 1.638-1.175 1.638-2.623M31.833 20.064c0-1.448-.733-2.622-1.639-2.622-.905 0-1.638 1.174-1.638 2.622s.733 2.623 1.638 2.623c.906 0 1.639-1.175 1.639-2.623" fill="#f3d2a2"/><path d="M13.477 19.04c0 5.59 3.816 10.122 8.523 10.122s8.522-4.532 8.522-10.121c0-5.59-3.814-10.121-8.521-10.121-4.708 0-8.524 4.532-8.524 10.12" fill="#f3d2a2"/><path d="M22 12.198c-2.754 0-3.6.705-3.741.848a.655.655 0 0 0 .902.95c.052-.037.721-.487 2.839-.487 2.2 0 2.836.485 2.842.49a.638.638 0 0 0 .913-.015.669.669 0 0 0-.014-.938c-.141-.143-.987-.848-3.741-.848" fill="#c1694f"/><path d="M22 32.52c5.648 0 9.178-4.168 9.178-7.64 0-3.473-.706-4.863-1.412-3.473l-1.412 2.778s-4.236 0-5.648 1.39c0 0 2.118-4.168-2.118 0 0 0 .706-2.78-3.53.694 0 0-2.118-1.39-2.824-4.862-.196-.964-1.412 0-1.412 3.473s2.824 7.64 9.178 7.64" fill="#ffe51e"/><path d="M18 19c-.55 0-1 .45-1 1v1c0 .55.45 1 1 1s1-.45 1-1v-1c0-.55-.45-1-1-1M26 19c-.55 0-1 .45-1 1v1c0 .55.45 1 1 1s1-.45 1-1v-1c0-.55-.45-1-1-1" fill="#662113"/><path d="M22.75 16.25h-1.5a.752.752 0 0 0-.75.75c0 .413.337.75.75.75h1.5c.413 0 .75-.337.75-.75a.752.752 0 0 0-.75-.75" fill="#c1694f"/><path d="M16 0h-3v8h3V0zM31 0h-3v8h3V0z" fill="#269"/><path d="M30 5H14l-.875-5H31l-1 5z" fill="#269"/><path d="M31.056 26.5c0-1.32-4.092 0-9 0-4.91 0-9-1.32-9 0 0 3.547 1 8.5 9 8.5 7 0 9-4.953 9-8.5" fill="#3b88c3"/><path d="M13.111 26.5s-.5-3 1.5-3c1 0 2.5 2 7.5 2s6.5-2 7.5-2c2 0 1.5 3 1.5 3s-1.5-.5-9-.5-9 .5-9 .5" fill="#269"/><path d="M13.056 27s-.5-3 1.5-3c1 0 2.5 2 7.5 2s6.5-2 7.5-2c2 0 1.5 3 1.5 3s-1.5-.5-9-.5-9 .5-9 .5" fill="#55acee"/><path d="M20.556 34.5s0 1.5 1.5 1.5 1.5-1.5 1.5-1.5h-3z" fill="#269"/><path d="M30 2.25C30 1.56 28.992 1 27.75 1s-2.25.56-2.25 1.25 1.008 1.25 2.25 1.25S30 2.94 30 2.25" fill="#f5f8fa"/><path d="M6.99 16.519l.012-4.41c0-.552-1.006-1.002-2.249-1.004-1.242-.003-2.25.443-2.252.995l-.01 4.408c-1.48-.806-2.494-2.358-2.49-4.164a4.751 4.751 0 0 1 9.5.022c-.005 1.804-1.027 3.352-2.51 4.153" fill="#66757f"/><path d="M6.25 0h-3v8.604h3V0z" fill="#66757f"/></g></svg>