<svg xmlns="http://www.w3.org/2000/svg" viewBox="0 0 45 45"><defs><clipPath id="a"><path d="M0 0h36v36H0V0z"/></clipPath></defs><g clip-path="url(#a)" transform="matrix(1.25 0 0 -1.25 0 45)"><path d="M31 0v3.5C31 6.814 27.314 9 24 9H12C8.687 9 5 6.814 5 3.5V0h26z" fill="#e1e8ed"/><path d="M30 28.5c0-4.142-5.372-7.5-12-7.5-6.627 0-12 3.358-12 7.5 0 4.142 5.373 7.5 12 7.5 6.628 0 12-3.358 12-7.5" fill="#292f33"/><path d="M17.944 30.931c4.105 0 10.948-2.053 10.948-10.948s0-10.948-2.053-10.948-4.79 2.053-8.895 2.053c-4.105 0-6.784-2.053-8.895-2.053-2.287 0-2.053 8.211-2.053 10.948 0 8.895 6.843 10.948 10.948 10.948" fill="#292f33"/><path d="M14.328 8.98C15.794 7.915 17.292 7 18 7c.708 0 2.194.915 3.66 1.98v3.205h-7.332V8.98z" fill="#f7dece"/><path d="M14.321 10.821c1.023-1.155 2.291-1.468 3.67-1.468 1.378 0 2.646.313 3.67 1.468v2.936h-7.34v-2.936z" fill="#eec2ad"/><path d="M9.734 20.283c0 5.834 3.676 10.563 8.21 10.563 4.535 0 8.21-4.73 8.21-10.563S22.48 9.997 17.945 9.997c-4.534 0-8.21 4.453-8.21 10.286" fill="#f7dece"/><path d="M17.944 12.457c-1.606 0-2.446.794-2.536.885a.685.685 0 0 0 .96.973c.035-.032.552-.491 1.576-.491 1.04 0 1.557.473 1.577.492a.69.69 0 0 0 .963-.019.678.678 0 0 0-.004-.955c-.09-.091-.93-.885-2.536-.885" fill="#df1f32"/><path d="M7.725 17c-.02 1-.044.224-.044.465 0 3.422 2.053-.494 2.053 1.943 0 2.439 1.368 2.683 2.736 4.051.685.685 2.053 2.026 2.053 2.026s3.421-2.067 6.158-2.067c2.737 0 5.474-1.375 5.474-4.112s2.053 1.584 2.053-1.837c0-.244-.023.531-.04-.469h.718c.006 2 .006 1.924.006 3.202 0 8.895-6.842 12.207-10.948 12.207-4.105 0-10.947-3.257-10.947-12.152 0-.793-.02-1.257.008-3.257h.72z" fill="#292f33"/><path d="M14.608 18.114a.849.849 0 0 0-.846.846v.845c0 .465.381.846.846.846a.849.849 0 0 0 .846-.846v-.845a.849.849 0 0 0-.846-.846M21.373 18.114a.849.849 0 0 0-.846.846v.845c0 .465.381.846.846.846a.849.849 0 0 0 .846-.846v-.845a.849.849 0 0 0-.846-.846" fill="#662113"/><path d="M18.837 15.5h-1.691a.423.423 0 0 0-.423.423v.153c0 .234.19.424.423.424h1.69c.233 0 .424-.19.424-.424v-.153a.424.424 0 0 0-.423-.423" fill="#c1694f"/><path d="M8.5 27c0 1.105 4.253 2 9.5 2s9.5-.895 9.5-2-4.253-2-9.5-2-9.5.895-9.5 2" fill="#292f33"/><path d="M27.5 28h-19v3.446S12.458 35 18 35s9.5-3.554 9.5-3.554V28z" fill="#66757f"/><path d="M15 31c0 2.792 1.343 1 3 1s3 1.792 3-1c0-1.657-1.343-2-3-2s-3 .343-3 2" fill="#ffac33"/><path d="M16 31a2 2 0 1 0 3.999.001A2 2 0 0 0 16 31M27.5 27h-19c-.275 0-.5.225-.5.5s.225.5.5.5h19c.275 0 .5-.225.5-.5s-.225-.5-.5-.5" fill="#fdcb58"/><path d="M11.578 6.944l-5.926-.938a.5.5 0 0 0-.572.416l-.157.988a.501.501 0 0 0 .416.571l5.926.94a.502.502 0 0 0 .572-.416l.157-.989a.502.502 0 0 0-.416-.572" fill="#292f33"/><path d="M7.134 6.241l-.988-.156-.313 1.974.988.157.313-1.975zM9.109 6.554l-.988-.156-.313 1.975.988.156.313-1.975zM11.085 6.866l-.989-.155-.312 1.974.987.157.313-1.976z" fill="#fdcb58"/><path d="M30.348 6.006l-5.926.939a.502.502 0 0 0-.416.573l.157.986a.5.5 0 0 0 .573.416l5.925-.938a.502.502 0 0 0 .416-.573l-.157-.987a.502.502 0 0 0-.572-.416" fill="#292f33"/><path d="M25.903 6.71l-.988.156.313 1.976.987-.156-.312-1.976zM27.879 6.397l-.988.155.313 1.978.987-.157-.312-1.975zM29.855 6.084l-.988.156.312 1.977.988-.157-.312-1.976z" fill="#fdcb58"/><path d="M18.001 5.122s3.381-2.494 4.093-2.778C22.25 2.281 21.728 6 21.728 6h-7.454s-.524-3.78-.232-3.625c.639.343 3.959 2.747 3.959 2.747" fill="#99aab5"/><path d="M19.313 2.563s.375.624.53.905c.183.33.453 1.572.453 1.572L18.11 6c0 .008-.16-.004-.16-.004l-.184-.042-.172-.063c-.218-.07.094-.008.094-.015l-1.974-.836s.287-1.242.47-1.571c.156-.281.528-.906.528-.906S15.958 2 15.676 0h4.667c-.28 1.594-1.03 2.563-1.03 2.563" fill="#292f33"/><path d="M13.291 9.375c.566-.566 4.71-3.383 4.71-3.383s-2.127-1.242-4.085-3.534c-.197-.23-1.542 4.625-1.583 5.709-.012.303.687 1.479.958 1.208M22.73 9.375c-.566-.566-4.709-3.383-4.709-3.383s2.126-1.242 4.084-3.534c.196-.23 1.542 4.625 1.583 5.709.012.303-.687 1.479-.958 1.208" fill="#f5f8fa"/><path d="M18.016 5.313c.39.022 1.543-.771 1.422-1.25-.461-1.827-.85-1.391-1.391-1.391-.611 0-.964-.473-1.39 1.312-.093.387.797 1.297 1.359 1.328M20.047 0h-4.024s.542 2.167 2.019 2.167S20.047 0 20.047 0" fill="#323a3f"/></g></svg>