<svg xmlns="http://www.w3.org/2000/svg" viewBox="0 0 45 45"><defs><clipPath id="a"><path d="M0 0h33v36H0V0z"/></clipPath><clipPath id="b"><path d="M0 36h36V0H0v36z"/></clipPath></defs><g clip-path="url(#a)" transform="matrix(1.25 0 0 -1.25 0 45)"><path d="M32 0v2a6 6 0 0 1-6 6H10a6 6 0 0 1-6-6V0h28z" fill="#77b255"/><path d="M10 8a6 6 0 0 1-6-6V0h8v8h-2zM26 8h-2V0h8v2a6 6 0 0 1-6 6" fill="#292f33"/><path d="M11.813 8h12.374S22.613 4 18 4c-4.612 0-6.186 4-6.186 4" fill="#5c913b"/><path d="M13.64 7.894C13.64 7 16 5.902 18 5.902c2 0 4.36 1.098 4.36 1.992v3.817h-8.72V7.894z" fill="#f7dece"/><path d="M13.632 10.027c1.216-1.374 2.724-1.746 4.364-1.746 1.639 0 3.147.373 4.364 1.746v3.491h-8.728v-3.49z" fill="#eec2ad"/><path d="M11.444 20.064c0-1.448-.734-2.622-1.639-2.622s-1.639 1.174-1.639 2.622.734 2.623 1.64 2.623c.904 0 1.638-1.175 1.638-2.623M27.833 20.064c0-1.448-.733-2.622-1.639-2.622-.905 0-1.638 1.174-1.638 2.622s.733 2.623 1.638 2.623c.906 0 1.639-1.175 1.639-2.623" fill="#f7dece"/><path d="M9.477 19.04c0 5.59 3.816 10.122 8.523 10.122s8.522-4.532 8.522-10.121c0-5.59-3.814-10.121-8.521-10.121-4.708 0-8.524 4.532-8.524 10.12" fill="#f7dece"/><path d="M18 12.198c-2.754 0-3.6.705-3.741.848a.655.655 0 0 0 .902.95c.052-.037.721-.487 2.839-.487 2.2 0 2.836.485 2.842.49a.638.638 0 0 0 .913-.015.669.669 0 0 0-.014-.938c-.141-.143-.987-.848-3.741-.848" fill="#c1694f"/><path d="M18 33c5.648 0 9.178-4.647 9.178-8.121 0-3.472-.971-4.967-1.412-3.472C25 24 24 24 24 24s-3.882-1.538-5.294-.147c0 0 2.118-4.168-2.118 0 0 0 .706-2.78-3.53.693 0 0-2.118.333-2.824-3.139-.196-.965-1.412 0-1.412 3.472C8.822 28.353 11.646 33 18 33" fill="#292f33"/><path d="M14 19c-.55 0-1 .45-1 1v1c0 .55.45 1 1 1s1-.45 1-1v-1c0-.55-.45-1-1-1M22 19c-.55 0-1 .45-1 1v1c0 .55.45 1 1 1s1-.45 1-1v-1c0-.55-.45-1-1-1" fill="#662113"/><path d="M18.75 16.25h-1.5a.752.752 0 0 0-.75.75c0 .413.337.75.75.75h1.5c.413 0 .75-.337.75-.75a.752.752 0 0 0-.75-.75" fill="#c1694f"/><path d="M12.38 8S13.922 2.537 18 .589V0h-7v8h1.38zM23.62 8S22.078 2.537 18 .589V0h7v8h-1.38z" fill="#292f33"/><path d="M8.083 2.66c.251 0 .401-2.66.401-2.66h-.956s.193 2.66.555 2.66M11.083 2.66c.251 0 .401-2.66.401-2.66h-.956s.193 2.66.555 2.66M27.929 2.66c-.251 0-.401-2.66-.401-2.66h.956s-.194 2.66-.555 2.66M24.929 2.66c-.251 0-.401-2.66-.401-2.66h.956s-.194 2.66-.555 2.66" fill="#66757f"/></g><path d="M22.5 10L5 5l17.5-3.75L40 5l-17.5 5z" fill="#292f33"/><g clip-path="url(#b)" transform="matrix(1.25 0 0 -1.25 0 45)"><path d="M6.063 31.93L18 28.52l11.937 3.41L18 34.49 6.063 31.93zM18 27.5a.534.534 0 0 0-.138.019l-14 4a.502.502 0 0 0 .033.97l14 3a.491.491 0 0 0 .209 0l14-3a.499.499 0 0 0 .032-.97l-14-4a.539.539 0 0 0-.137-.02" fill="#292f33"/><path d="M27 28c0-2.209-4.029-3-9-3s-9 .791-9 3c0 5 4.029 5 9 5s9 0 9-5" fill="#292f33"/><path d="M18 32.5c-5.429 0-8.5-.209-8.5-4.5 0-1.565 3.178-2.5 8.5-2.5s8.5.935 8.5 2.5c0 4.291-3.071 4.5-8.5 4.5m0-8c-6.215 0-9.5 1.21-9.5 3.5 0 5.5 4.615 5.5 9.5 5.5 4.886 0 9.5 0 9.5-5.5 0-2.29-3.285-3.5-9.5-3.5" fill="#292f33"/><path d="M18 27.5a.503.503 0 0 0-.137.019l-14 4a.5.5 0 1 0 .274.962l14.001-4a.499.499 0 0 0 .342-.618.498.498 0 0 0-.48-.363" fill="#66757f"/><path d="M18 27.5a.5.5 0 0 0-.137.981l14 4a.501.501 0 0 0 .275-.962l-14-4A.51.51 0 0 0 18 27.5" fill="#66757f"/><path d="M6 30.5a.5.5 0 0 0-.042.998l12 1a.5.5 0 1 0 .084-.996l-12-1C6.027 30.5 6.013 30.5 6 30.5" fill="#ffcc4d"/><path d="M6 20.563a.5.5 0 0 0-.5.5V31a.5.5 0 0 0 1 0v-9.938a.5.5 0 0 0-.5-.5" fill="#ffcc4d"/><path d="M7 22.5c0-2.485-.448-4.5-1-4.5s-1 2.015-1 4.5.448 2.5 1 2.5 1-.015 1-2.5" fill="#ffcc4d"/></g></svg>