<svg xmlns="http://www.w3.org/2000/svg" viewBox="0 0 45 45"><defs><clipPath id="a"><path d="M0 36h36V0H0v36z"/></clipPath></defs><g clip-path="url(#a)" transform="matrix(1.25 0 0 -1.25 0 45)"><path d="M31 0v4.5c0 3.314-3.561 5.5-6.875 5.5h-12C8.812 10 5 7.814 5 4.5V0h26z" fill="#269"/><path d="M18.2 32.022c4.105 0 10.947-2.053 10.947-10.947 0-8.896 0-10.948-2.052-10.948-2.053 0-4.79 2.052-8.895 2.052-4.105 0-6.785-2.052-8.895-2.052-2.288 0-2.054 8.21-2.054 10.948 0 8.894 6.844 10.947 10.95 10.947" fill="#292f33"/><path d="M23.25 10L20.068 0h-4.091L13.25 10" fill="#f5f8fa"/><path d="M14 10h-1.499l-1-5.5 2.999-1L14 0h3.5L14 10zM22.5 10H24l.5-5.5-3-1L22 0h-3.5l4 10z" fill="#3b88c3"/><path d="M14.755 10c1-1.982 2.792-4.5 3.5-4.5.708 0 2.512 2.549 3.5 4.5v3.591h-7V10z" fill="#f7dece"/><path d="M14.755 11.946c.975-1.102 2.185-1.4 3.5-1.4 1.314 0 2.525.298 3.5 1.4v2.8h-7v-2.8z" fill="#eec2ad"/><path d="M9.989 21.373c0 5.834 3.676 10.564 8.211 10.564 4.534 0 8.209-4.73 8.209-10.564 0-5.833-3.675-10.285-8.209-10.285-4.535 0-8.211 4.452-8.211 10.285" fill="#f7dece"/><path d="M18.2 13.548c-1.606 0-2.447.794-2.537.885a.682.682 0 0 0 0 .967.686.686 0 0 0 .961.006c.035-.032.551-.491 1.576-.491 1.038 0 1.555.473 1.576.492a.69.69 0 0 0 .963-.02.678.678 0 0 0-.004-.954c-.09-.091-.93-.885-2.535-.885" fill="#df1f32"/><path d="M7.98 18.09c-.02 1-.044.225-.044.466 0 3.422 2.053-.494 2.053 1.943 0 2.439 1.368 2.683 2.737 4.05.684.686 2.052 2.027 2.052 2.027s3.421-2.067 6.158-2.067c2.737 0 5.474-1.375 5.474-4.112s2.053 1.584 2.053-1.837c0-.244-.023.53-.04-.47h.72c.005 2 .005 1.925.005 3.203 0 8.895-6.842 12.207-10.949 12.207-4.104 0-10.947-3.257-10.947-12.152 0-.793-.02-1.257.008-3.257h.72z" fill="#292f33"/><path d="M14.864 19.204a.85.85 0 0 0-.847.847v.844c0 .465.382.846.847.846a.85.85 0 0 0 .846-.846v-.844a.85.85 0 0 0-.847-.847M21.628 19.204a.85.85 0 0 0-.846.847v.844c0 .465.381.846.846.846a.849.849 0 0 0 .846-.846v-.844a.85.85 0 0 0-.846-.847" fill="#662113"/><path d="M19.091 16.59h-1.69a.423.423 0 0 0-.423.424v.153c0 .234.189.424.423.424h1.69c.233 0 .424-.19.424-.424v-.153a.424.424 0 0 0-.424-.423" fill="#c1694f"/><path d="M11.7 21.155c0-1.448-.735-2.622-1.64-2.622-.905 0-1.639 1.174-1.639 2.622s.734 2.623 1.64 2.623c.904 0 1.638-1.175 1.638-2.623M28.088 21.155c0-1.448-.733-2.622-1.639-2.622-.905 0-1.638 1.174-1.638 2.622s.733 2.623 1.638 2.623c.906 0 1.64-1.175 1.64-2.623" fill="#f7dece"/><path d="M27.256 22a.501.501 0 0 0-.498.552c.004.038.37 3.856-1.965 6.444-1.46 1.62-3.679 2.44-6.593 2.44-5.91 0-7.968-3.368-8.652-6.193a.498.498 0 0 0-.604-.368.498.498 0 0 0-.368.603c.63 2.6 2.717 6.958 9.624 6.958 3.214 0 5.684-.933 7.341-2.776 2.632-2.925 2.23-7.038 2.211-7.212a.5.5 0 0 0-.496-.447" fill="#66757f"/><path d="M26.255 23.5s0 .5.5.5h1.5s1 0 1-1v-3.5s0-1-1-1h-1.5s-.5 0-.5.5v4.5zM9.755 24h-1a.5.5 0 0 0-.5.5v2a.5.5 0 0 0 .5.5h1a.5.5 0 0 0 .5-.5v-2a.5.5 0 0 0-.5-.5" fill="#66757f"/><path d="M19.755 11v1c6.44 0 6.981 6.747 7.001 7.034l.998-.067c-.006-.08-.616-7.967-7.999-7.967" fill="#66757f"/><path d="M16.255 11a1 1 0 0 1 1-1h2a1 1 0 0 1 1 1v1a1 1 0 0 1-1 1h-2a1 1 0 0 1-1-1v-1z" fill="#292f33"/></g></svg>