<svg xmlns="http://www.w3.org/2000/svg" viewBox="0 0 45 45"><defs><clipPath id="a"><path d="M0 0h36v36H0V0z"/></clipPath></defs><g clip-path="url(#a)" transform="matrix(1.25 0 0 -1.25 0 45)"><path d="M31 0v3.5C31 6.814 27.314 9 24 9H12C8.687 9 5 6.814 5 3.5V0h26z" fill="#ce9e5d"/><path d="M32 22.344c0-3.59-6.268-6.5-14-6.5s-14 2.91-14 6.5 6.268 2.5 14 2.5 14 1.09 14-2.5" fill="#a0041e"/><path d="M17.944 30.931c4.105 0 10.948-2.053 10.948-10.948s0-10.948-2.053-10.948-4.79 2.053-8.895 2.053c-4.105 0-6.784-2.053-8.895-2.053-2.287 0-2.053 8.211-2.053 10.948 0 8.895 6.843 10.948 10.948 10.948" fill="#ffe51e"/><path d="M14 9h8s-1.018-5-4-5-4 5-4 5" fill="#292f33"/><path d="M14.328 8.98C15.794 7.915 17.292 8 18 8c.708 0 2.194-.085 3.66.98v3.205h-7.332V8.98z" fill="#f3d2a2"/><path d="M14.321 10.821c1.023-1.155 2.291-1.468 3.67-1.468 1.378 0 2.646.313 3.67 1.468v2.936h-7.34v-2.936z" fill="#e2c196"/><path d="M9.734 20.283c0 5.834 3.676 10.563 8.21 10.563 4.535 0 8.21-4.73 8.21-10.563S22.48 9.997 17.945 9.997c-4.534 0-8.21 4.453-8.21 10.286" fill="#f3d2a2"/><path d="M17.944 12.457c-1.606 0-2.446.794-2.536.885a.685.685 0 0 0 .96.973c.035-.032.552-.491 1.576-.491 1.04 0 1.557.473 1.577.492a.69.69 0 0 0 .963-.019.678.678 0 0 0-.004-.955c-.09-.091-.93-.885-2.536-.885" fill="#df1f32"/><path d="M7.725 17c-.02 1-.044.224-.044.465 0 3.422 2.053-.494 2.053 1.943 0 2.439 1.368 2.683 2.736 4.051.685.685 2.053 2.026 2.053 2.026s3.421-2.067 6.158-2.067c2.737 0 5.474-1.375 5.474-4.112s2.053 1.584 2.053-1.837c0-.244-.023.531-.04-.469h.718c.006 2 .006 1.924.006 3.202 0 8.895-6.842 12.207-10.948 12.207-4.105 0-10.947-3.257-10.947-12.152 0-.793-.02-1.257.008-3.257h.72z" fill="#ffe51e"/><path d="M14.608 18.114a.849.849 0 0 0-.846.846v.845c0 .465.381.846.846.846a.849.849 0 0 0 .846-.846v-.845a.849.849 0 0 0-.846-.846M21.373 18.114a.849.849 0 0 0-.846.846v.845c0 .465.381.846.846.846a.849.849 0 0 0 .846-.846v-.845a.849.849 0 0 0-.846-.846" fill="#662113"/><path d="M18.837 15.5h-1.691a.423.423 0 0 0-.423.423v.153c0 .234.19.424.423.424h1.69c.233 0 .424-.19.424-.424v-.153a.424.424 0 0 0-.423-.423" fill="#c1694f"/><path d="M31 0H5v3h26V0z" fill="#fff35f"/><path d="M31.122 1h-26v1h26V1z" fill="#ccd6dd"/><path d="M27 0v9c0 .55-.45 1-1 1h-1c-.55 0-1-.45-1-1V0h3zM12 0v9c0 .55-.45 1-1 1h-1c-.55 0-1-.45-1-1V0h3z" fill="#292f33"/><path d="M28.852 25.143c-.859.173-1.093 4.028-3.084 6.86C23.895 34.664 20.303 36 17.996 36c-2.307 0-5.897-1.335-7.77-3.998C8.232 29.172 8 25.316 7.14 25.143c-3.316-.665-3.16-2.386-3.14-2.782.124.466.438 1.578 3.902 1.64 3.404.06 6.58-.806 10.094-.806 3.515 0 6.69.866 10.094.805 3.464-.06 3.78-1.173 3.903-1.639.02.397.176 2.117-3.14 2.782" fill="#df1f32"/><path d="M18 36c2.094 0 5-3.593 5-5.054V27s-.109-1-.92-1H18v10zM18 36c-2.094 0-5-3.593-5-5.054V27s.109-1 .92-1H18v10z" fill="#ea596e"/><path d="M18.021 4l-.02-4h-6v7s-.017 1.463 0 2c.014.537-.407 1.622 0 2 .405.378 2.453-.364 3-1 .543-.636.626-1.737 1-3 .371-1.263 2.02-3 2.02-3" fill="#ce9e5d"/><path d="M17.823 4l.02-4H24v7s.015 1.463 0 2c-.014.537.289 1.622-.117 2-.406.378-2.474-.364-3.018-1-.547-.636-.64-1.737-1.011-3-.372-1.263-2.031-3-2.031-3" fill="#ce9e5d"/></g></svg>