<svg xmlns="http://www.w3.org/2000/svg" viewBox="0 0 45 45"><defs><clipPath id="a"><path d="M0 36h36V0H0v36z"/></clipPath><clipPath id="b"><path d="M0 0h36v36H0V0z"/></clipPath><clipPath id="c"><path d="M0 36h36V0H0v36z"/></clipPath><clipPath id="d"><path d="M15 23h14v-5H15v5z"/></clipPath></defs><g clip-path="url(#a)" transform="matrix(1.25 0 0 -1.25 0 45)"><path d="M34.941 0v4.488c0 3.315-3.686 5.5-7 5.5h-12c-3.313 0-7-2.185-7-5.5V0h26z" fill="#ccd6dd"/><path d="M21.887 31.919c4.104 0 10.947-2.053 10.947-10.947 0-8.896 0-10.948-2.052-10.948-2.053 0-4.791 2.052-8.895 2.052-4.105 0-6.785-2.052-8.896-2.052-2.287 0-2.053 8.21-2.053 10.948 0 8.894 6.844 10.947 10.949 10.947" fill="#963b22"/><path d="M18.27 7.51c1.466-1.064 3.06-.437 3.769-.437.707 0 2.096-.627 3.562.437v5.664H18.27V7.51z" fill="#d5ab88"/><path d="M18.264 11.81c1.022-1.156 2.29-1.469 3.668-1.469 1.379 0 2.647.314 3.67 1.47v2.935h-7.338V11.81z" fill="#cc9b7a"/><path d="M13.675 21.27c0 5.834 3.676 10.563 8.211 10.563 4.534 0 8.21-4.728 8.21-10.562s-3.676-10.285-8.21-10.285c-4.535 0-8.21 4.451-8.21 10.284" fill="#d5ab88"/><path d="M21.887 13.445c-1.606 0-2.447.795-2.537.885a.685.685 0 0 0 .961.974c.035-.033.55-.492 1.576-.492 1.038 0 1.555.473 1.576.492a.69.69 0 0 0 .963-.019.678.678 0 0 0-.004-.955c-.09-.09-.93-.885-2.535-.885" fill="#df1f32"/><path d="M11.666 17.988c-.02 1-.044.224-.044.465 0 3.422 2.053-.494 2.053 1.943 0 2.44 1.368 2.683 2.737 4.051.685.685 2.053 2.026 2.053 2.026s3.42-2.067 6.158-2.067c2.737 0 5.474-1.375 5.474-4.112s2.053 1.584 2.053-1.837c0-.244-.023.531-.04-.469h.719c.005 2 .005 1.924.005 3.202 0 8.895-6.841 12.207-10.948 12.207-4.104 0-10.947-3.257-10.947-12.152 0-.793-.02-1.257.008-3.257h.72z" fill="#963b22"/><path d="M18.55 19.102a.85.85 0 0 0-.846.847v.844c0 .465.38.846.846.846a.85.85 0 0 0 .847-.846v-.844a.85.85 0 0 0-.847-.847M25.314 19.102a.85.85 0 0 0-.846.847v.844c0 .465.381.846.846.846a.849.849 0 0 0 .846-.846v-.844a.85.85 0 0 0-.846-.847" fill="#662113"/><path d="M22.777 16.488h-1.69a.423.423 0 0 0-.423.424v.152c0 .235.19.424.423.424h1.69a.424.424 0 0 0 .424-.424v-.152a.424.424 0 0 0-.424-.424" fill="#c1694f"/><path d="M19 0l-1.059 9.219s1.411-1.645 4-1.645c2.59 0 4.219 1.645 4.219 1.645L24.937 0H19z" fill="#66757f"/><path d="M17.941 10.75c.566-.566 2.92-10.75 2.92-10.75h-3.157L16 2.562l1.704 2.835-2.017.634.254 3.957s1.73 1.033 2 .762M25.935 10.75C25.369 10.184 23.015 0 23.015 0h3.157l1.704 2.562-1.704 2.835 2.017.634-.254 3.957s-1.73 1.033-2 .762" fill="#f5f8fa"/></g><g clip-path="url(#b)" transform="matrix(1.25 0 0 -1.25 0 45)"><path d="M15.386 21.053c0-1.448-.734-2.622-1.64-2.622-.904 0-1.638 1.174-1.638 2.622s.734 2.623 1.639 2.623 1.639-1.175 1.639-2.623M31.774 21.053c0-1.448-.733-2.622-1.639-2.622-.905 0-1.638 1.174-1.638 2.622s.733 2.623 1.638 2.623c.906 0 1.64-1.175 1.64-2.623" fill="#d5ab88"/></g><g clip-path="url(#c)" transform="matrix(1.25 0 0 -1.25 0 45)"><path d="M2 0S0 0 0 2c0 .179.117.896 1 2l4 5v5s-2 0-2 2 2 2 2 2h5s2 0 2-2-2-2-2-2V9l4-5c1.153-1.441 1-1.866 1-2 0-2-2-2-2-2H2z" fill="#e1e8ed"/><path d="M.531 1.781L1.501.47h12.03l1 1.781-3.094 4.031H3.031l-2.5-4.344M8 25a1 1 0 1 0-2 0 1 1 0 0 0 2 0M10 20a1 1 0 1 0-2 0 1 1 0 0 0 2 0M7 21.5a1.5 1.5 0 1 0-2.999-.001A1.5 1.5 0 0 0 7 21.5" fill="#9266cc"/><path d="M10 18H5s-2 0-2-2 2-2 2-2V9L1 4C.117 2.896 0 2.179 0 2c0-2 2-2 2-2h11s2 0 2 2c0 .134.153.559-1 2l-4 5v5s2 0 2 2-2 2-2 2m-.008-1c.461-.013 1.008-.197 1.008-1 0-.806-.55-.988-1-1H9V8.649l.219-.274 4-5c.733-.915.787-1.249.787-1.252L14 2.041V2c0-.806-.55-.988-1-1H2.012C1.55 1.012 1 1.194.999 1.966c0 .005.063.51.782 1.409l4 5L6 8.649V14l-.014.976-.974.024C4.55 15.012 4 15.194 4 16s.55.988 1 1h4.992" fill="#a8bccc"/><path d="M29 20c0-1.325-.852-2-3-2-1.539 0-2.804 1-4 1-1.196 0-2.461-1-4-1-2.148 0-3 .675-3 2v3h14v-3zm0 4H15c-1 0-1-1-1-1v-4c0-1.461 2.333-2 4-2 1.667 0 2.599 1 4 1 1.401 0 2.333-1 4-1 1.667 0 4 .539 4 2v4c0 1-1 1-1 1" fill="#f5f8fa"/><g clip-path="url(#d)" opacity=".4"><path d="M15 20v3h14v-5H15v2z" fill="#fff"/></g></g></svg>