<svg xmlns="http://www.w3.org/2000/svg" viewBox="0 0 45 45"><defs><clipPath id="a"><path d="M0 36h36V0H0v36z"/></clipPath></defs><g clip-path="url(#a)" transform="matrix(1.25 0 0 -1.25 0 45)"><path d="M36 0v2a6 6 0 0 1-6 6H14a6 6 0 0 1-6-6V0h28z" fill="#77b255"/><path d="M22 2c.767 0 5 3 5 6H17c0-3 4.233-6 5-6" fill="#3e721d"/><path d="M17.64 7.962c0-2.846 8.72-2.962 8.72 0v3.749h-8.72V7.96z" fill="#d5ab88"/><path d="M17.632 10.027c1.216-1.374 2.724-1.746 4.364-1.746 1.639 0 3.147.373 4.364 1.746v3.491h-8.728v-3.49z" fill="#cc9b7a"/><path d="M15.444 20.064c0-1.448-.734-2.622-1.639-2.622s-1.639 1.174-1.639 2.622.734 2.623 1.64 2.623c.904 0 1.638-1.175 1.638-2.623M31.833 20.064c0-1.448-.733-2.622-1.639-2.622-.905 0-1.638 1.174-1.638 2.622s.733 2.623 1.638 2.623c.906 0 1.639-1.175 1.639-2.623" fill="#d5ab88"/><path d="M13.477 19.04c0 5.59 3.816 10.122 8.523 10.122s8.522-4.532 8.522-10.121c0-5.59-3.814-10.121-8.521-10.121-4.708 0-8.524 4.532-8.524 10.12" fill="#d5ab88"/><path d="M22 12.198c-2.754 0-3.6.705-3.741.848a.655.655 0 0 0 .902.95c.052-.037.721-.487 2.839-.487 2.2 0 2.836.485 2.842.49a.638.638 0 0 0 .913-.015.669.669 0 0 0-.014-.938c-.141-.143-.987-.848-3.741-.848" fill="#c1694f"/><path d="M22 32.52c5.648 0 9.178-4.168 9.178-7.64 0-3.473-.706-4.863-1.412-3.473l-1.412 2.778s-4.236 0-5.648 1.39c0 0 2.118-4.168-2.118 0 0 0 .706-2.78-3.53.694 0 0-2.118-1.39-2.824-4.862-.196-.964-1.412 0-1.412 3.473s2.824 7.64 9.178 7.64" fill="#963b22"/><path d="M18 19c-.55 0-1 .45-1 1v1c0 .55.45 1 1 1s1-.45 1-1v-1c0-.55-.45-1-1-1M26 19c-.55 0-1 .45-1 1v1c0 .55.45 1 1 1s1-.45 1-1v-1c0-.55-.45-1-1-1" fill="#662113"/><path d="M22.75 16.25h-1.5a.752.752 0 0 0-.75.75c0 .413.337.75.75.75h1.5c.413 0 .75-.337.75-.75a.752.752 0 0 0-.75-.75" fill="#c1694f"/><path d="M16 0h-3v8h3V0zM31 0h-3v8h3V0z" fill="#3b88c3"/><path d="M31 1H13.125V0H31v1z" fill="#3b88c3"/><path d="M30 27.2c0-1.32-3.092-2.2-8-2.2-4.909 0-8 .88-8 2.2 0 3.546 4 8.8 5.333 8.8 1.334 0 2.223-1.76 2.667-1.76.444 0 1.333 1.76 2.667 1.76C26 36 30 30.746 30 27.2" fill="#c1694f"/><path d="M35.941 28c0-1.657-3.5-6-14-6s-14 4.343-14 6 6.82 1 14 1 14 .657 14-1" fill="#c1694f"/><path d="M30 27.2c0-1.32-3.092-2.2-8-2.2-4.909 0-8 .88-8 2.2 0 .566.102 1.175.279 1.8 2.388-2 13.054-2 15.443-.005.176-.623.278-1.23.278-1.795" fill="#292f33"/><path d="M7 4.25a1.25 1.25 0 0 1-2.5 0V0H7v4.25z" fill="#c1694f"/><path d="M10.003 13.25A4.252 4.252 0 0 0 5.75 8.997a4.252 4.252 0 0 0-4.253 4.253c0 .086-1.497.084-1.497 0a5.75 5.75 0 0 1 11.5 0c0 .084-1.497.086-1.497 0" fill="#66757f"/><path d="M1.5 13.25a.75.75 0 0 0-1.5 0v8.5a.75.75 0 0 0 1.5 0v-8.5zM11.5 13.25a.75.75 0 0 0-1.5 0v8.5a.75.75 0 0 0 1.5 0v-8.5zM6.5 5A.75.75 0 0 0 5 5v16.75a.75.75 0 0 0 1.5 0V5z" fill="#66757f"/></g></svg>