<svg xmlns="http://www.w3.org/2000/svg" viewBox="0 0 45 45"><defs><clipPath id="a"><path d="M0 0h36v36H0V0z"/></clipPath><clipPath id="b"><path d="M0 36h36V0H0v36z"/></clipPath></defs><g clip-path="url(#a)" transform="matrix(1.25 0 0 -1.25 0 45)"><path d="M35 0v7c0 3.314-3.686 5.5-7 5.5H16c-3.313 0-7-2.186-7-5.5V0h26z" fill="#9266cc"/><path d="M21.944 34.431c4.105 0 10.948-2.053 10.948-10.948s0-10.948-2.053-10.948-4.79 2.053-8.895 2.053c-4.105 0-6.784-2.053-8.895-2.053-2.287 0-2.053 8.211-2.053 10.948 0 8.895 6.843 10.948 10.948 10.948" fill="#60352a"/><path d="M18.328 12.48C18.328 11 20.5 10.5 22 10.5s3.66.5 3.66 1.98v3.205h-7.332V12.48z" fill="#af7e57"/><path d="M18.321 14.321c1.023-1.155 2.291-1.468 3.67-1.468 1.378 0 2.646.313 3.67 1.468v2.936h-7.34v-2.936z" fill="#9b6a49"/><path d="M13.734 23.783c0 5.834 3.676 10.563 8.21 10.563 4.535 0 8.21-4.73 8.21-10.563s-3.675-10.286-8.21-10.286c-4.534 0-8.21 4.453-8.21 10.286" fill="#af7e57"/><path d="M21.944 15.957c-1.605 0-2.446.794-2.536.885a.685.685 0 0 0 .96.973c.035-.032.553-.491 1.576-.491 1.04 0 1.557.473 1.577.492a.69.69 0 0 0 .963-.019.678.678 0 0 0-.004-.955c-.09-.091-.93-.885-2.536-.885" fill="#df1f32"/><path d="M11.725 20.5c-.02 1-.044.224-.044.465 0 3.422 2.053-.494 2.053 1.943 0 2.439 1.368 2.683 2.736 4.051.685.685 2.053 2.026 2.053 2.026s3.421-2.067 6.158-2.067c2.737 0 5.474-1.375 5.474-4.112s2.053 1.584 2.053-1.837c0-.244-.023.531-.04-.469h.718c.007 2 .007 1.924.007 3.202 0 8.895-6.843 12.207-10.949 12.207-4.105 0-10.947-3.257-10.947-12.152 0-.793-.02-1.257.008-3.257h.72z" fill="#60352a"/><path d="M18.608 21.614a.849.849 0 0 0-.846.846v.845c0 .465.381.846.846.846a.85.85 0 0 0 .847-.846v-.845a.85.85 0 0 0-.847-.846M25.373 21.614a.849.849 0 0 0-.846.846v.845c0 .465.381.846.846.846a.849.849 0 0 0 .846-.846v-.845a.849.849 0 0 0-.846-.846" fill="#60352a"/><path d="M22.837 19h-1.691a.423.423 0 0 0-.423.423v.153c0 .234.189.424.423.424h1.69c.233 0 .424-.19.424-.424v-.153a.424.424 0 0 0-.423-.423" fill="#915a34"/><path d="M15.444 22.564c0-1.448-.734-2.622-1.639-2.622s-1.639 1.174-1.639 2.622.734 2.623 1.64 2.623c.904 0 1.638-1.175 1.638-2.623M31.833 22.564c0-1.448-.733-2.622-1.639-2.622-.905 0-1.638 1.174-1.638 2.622s.733 2.623 1.638 2.623c.906 0 1.639-1.175 1.639-2.623" fill="#af7e57"/></g><g clip-path="url(#b)" transform="matrix(1.25 0 0 -1.25 0 45)"><path d="M33 1a1 1 0 0 0-1-1H22a1 1 0 1 0 0 2h10a1 1 0 0 0 1-1" fill="#e1e8ed"/><path d="M20.24 14H3.76c-1.525 0-3.479-.771-2.479-3.531l3.072-8.475S4.75 0 7 0h20l-4 11.24c-.438 1.323-1.236 2.76-2.76 2.76" fill="#e1e8ed"/><path d="M19.24 14H2.76C1.234 14-.72 13.229.28 10.469l3.072-8.475S3.75 0 6 0h20l-4 11.24c-.438 1.323-1.236 2.76-2.76 2.76" fill="#99aab5"/><path d="M14.02 6.717c.523-1.572.1-3.13-.95-3.48-1.046-.348-2.321.642-2.845 2.214-.524 1.573-.1 3.13.949 3.479 1.047.35 2.323-.641 2.846-2.213M19 11.25H3a.75.75 0 0 0 0 1.5h16a.75.75 0 0 0 0-1.5" fill="#e1e8ed"/></g></svg>