<svg xmlns="http://www.w3.org/2000/svg" viewBox="0 0 45 45"><defs><clipPath id="a"><path d="M0 36h36V0H0v36z"/></clipPath><clipPath id="b"><path d="M0 0h32.942v36H0V0z"/></clipPath><clipPath id="c"><path d="M0 36h36V0H0v36z"/></clipPath></defs><g clip-path="url(#a)" transform="matrix(1.25 0 0 -1.25 0 45)"><path d="M30.941 0v3.5c0 3.314-3.686 5.5-7 5.5h-12c-3.313 0-7-2.186-7-5.5V0h26zM30 28.5c0-4.143-5.372-7.5-12-7.5-6.626 0-11.999 3.357-11.999 7.5 0 4.142 5.373 7.5 11.999 7.5 6.628 0 12-3.359 12-7.5" fill="#2a6797"/><path d="M17.887 30.93c4.104 0 10.947-2.052 10.947-10.946 0-8.896 0-10.948-2.052-10.948-2.053 0-4.791 2.052-8.895 2.052-4.105 0-6.785-2.052-8.895-2.052-2.288 0-2.054 8.21-2.054 10.948 0 8.894 6.844 10.947 10.949 10.947" fill="#292f33"/><path d="M14.27 6.521c1.466-1.065 2.964-.98 3.672-.98.708 0 2.194-.085 3.66.98v5.664H14.27V6.521z" fill="#f7dece"/><path d="M14.264 10.821c1.022-1.155 2.29-1.468 3.668-1.468 1.379 0 2.647.313 3.67 1.468v2.936h-7.338v-2.936z" fill="#eec2ad"/><path d="M9.675 20.282c0 5.834 3.676 10.564 8.211 10.564 4.534 0 8.21-4.73 8.21-10.564 0-5.833-3.676-10.285-8.21-10.285-4.535 0-8.21 4.452-8.21 10.285" fill="#f7dece"/><path d="M17.887 12.457c-1.606 0-2.447.794-2.537.885a.682.682 0 0 0 0 .967.686.686 0 0 0 .96.006c.036-.032.552-.491 1.577-.491 1.038 0 1.555.473 1.576.492a.69.69 0 0 0 .963-.019.678.678 0 0 0-.004-.955c-.09-.091-.93-.885-2.535-.885" fill="#df1f32"/><path d="M7.667 17c-.021 1-.044.224-.044.465 0 3.422 2.053-.494 2.053 1.943 0 2.439 1.367 2.683 2.736 4.051.684.685 2.052 2.026 2.052 2.026s3.421-2.067 6.158-2.067c2.737 0 5.474-1.375 5.474-4.112s2.053 1.584 2.053-1.837c0-.244-.023.531-.04-.469h.72c.005 2 .005 1.924.005 3.202 0 8.895-6.841 11.672-10.948 11.672-4.104 0-10.947-2.722-10.947-11.617 0-.793-.02-1.257.007-3.257h.72z" fill="#292f33"/><path d="M14.55 18.113a.85.85 0 0 0-.846.847v.844c0 .465.38.846.846.846a.85.85 0 0 0 .847-.846v-.844a.85.85 0 0 0-.847-.847M21.314 18.113a.85.85 0 0 0-.846.847v.844c0 .465.381.846.846.846a.849.849 0 0 0 .846-.846v-.844a.85.85 0 0 0-.846-.847" fill="#662113"/><path d="M18.777 15.5h-1.69a.423.423 0 0 0-.423.423v.153c0 .234.19.424.423.424h1.69c.233 0 .424-.19.424-.424v-.153a.424.424 0 0 0-.424-.423" fill="#c1694f"/><path d="M11.082 7.108l-4.378-1.36a.5.5 0 0 0-.63.32l-.309.952c-.085.26.06.544.321.63l4.38 1.361a.502.502 0 0 0 .63-.32l.309-.953a.504.504 0 0 0-.322-.63" fill="#4289c1"/><path d="M10.829 7.955a.576.576 0 1 0-1.153 0 .576.576 0 0 0 1.153 0" fill="#fff"/><path d="M24.837 7.108l4.379-1.36a.502.502 0 0 1 .63.32l.309.952a.502.502 0 0 1-.322.63l-4.38 1.361a.502.502 0 0 1-.63-.32l-.307-.953a.502.502 0 0 1 .32-.63" fill="#4289c1"/><path d="M25.09 7.955a.576.576 0 1 1 1.154 0 .576.576 0 0 1-1.153 0" fill="#fff"/><path d="M8.5 27c0 1.105 4.253 2 9.5 2s9.5-.895 9.5-2-4.253-2-9.5-2-9.5.895-9.5 2" fill="#2a6797"/><path d="M27.001 27h-18v2.999s3.75 2.25 8.999 2.25c5.251 0 9.001-2.25 9.001-2.25V27z" fill="#4289c1"/><path d="M27.5 27h-19c-.275 0-.5.225-.5.5s.225.5.5.5h19c.275 0 .5-.225.5-.5s-.225-.5-.5-.5" fill="#fdcb58"/><path d="M18.001 5.708s3.381-2.494 4.093-2.778c.156-.063-.366 3.656-.366 3.656h-7.455s-.523-3.781-.231-3.625c.99.531.892.525 3.959 2.747" fill="#193d59"/><path d="M19.313 3.146c.65 1.084.696 1.202.53.906.183.329.453 1.57.453 1.57l-2.187.961c0 .007-.16-.005-.16-.005l-.184-.042-.172-.062c-.217-.07.094-.009.094-.016l-1.974-.836s.288-1.242.47-1.57c.156-.281.528-.906.528-.906S15.891 2.002 15.61 0h4.75c-.28 1.595-1.047 3.146-1.047 3.146" fill="#193d59"/><path d="M13.291 9.957c.566-.566 4.71-3.383 4.71-3.383s-2.127-1.242-4.085-3.534c-.197-.23-1.542 4.625-1.583 5.709-.012.303.687 1.479.958 1.208M22.73 9.957c-.566-.566-4.709-3.383-4.709-3.383s2.126-1.242 4.084-3.534c.196-.23 1.542 4.625 1.583 5.709.012.303-.687 1.479-.958 1.208" fill="#4289c1"/><path d="M18.016 5.894c.39.022 1.543-.77 1.422-1.25-.461-1.827-.85-1.39-1.391-1.39-.611 0-.964-.473-1.39 1.312-.093.387.797 1.297 1.359 1.328M20 0s-.481 2.749-1.958 2.749C16.565 2.749 16.031 0 16.031 0H20" fill="#1e4b6e"/></g><g clip-path="url(#b)" transform="matrix(1.25 0 0 -1.25 0 45)"><path d="M11.386 20.064c0-1.448-.734-2.622-1.64-2.622-.904 0-1.638 1.174-1.638 2.622s.734 2.623 1.639 2.623 1.639-1.175 1.639-2.623M27.774 20.064c0-1.448-.733-2.622-1.639-2.622-.905 0-1.638 1.174-1.638 2.622s.733 2.623 1.638 2.623c.906 0 1.64-1.175 1.64-2.623" fill="#f7dece"/></g><g clip-path="url(#c)" transform="matrix(1.25 0 0 -1.25 0 45)"><path d="M20.25 34.499l-.002-.001v.001-.001a.733.733 0 0 1-.57-.282c-.282-.069-.667-.084-1.157.071a.751.751 0 0 1-.521.212.748.748 0 0 1-.519-.212c-.491-.155-.876-.14-1.157-.071a.736.736 0 0 1-.571.282v.001-.001l-.002.001a.749.749 0 1 1 0-1.5h.002c0-3 1.498-3.75 2.247-3.75.751 0 2.248.75 2.248 3.75h.002a.75.75 0 1 1 0 1.5" fill="#fdcb58"/></g></svg>