<svg xmlns="http://www.w3.org/2000/svg" viewBox="0 0 45 45"><defs><clipPath id="a"><path d="M0 36h36V0H0v36z"/></clipPath></defs><g clip-path="url(#a)" transform="matrix(1.25 0 0 -1.25 0 45)"><path d="M32 0v4a6 6 0 0 1-6 6H10a6 6 0 0 1-6-6V0h28z" fill="#3b88c3"/><path d="M14 10l4-5.001L22 10v4h-8v-4z" fill="#d5ab88"/><path d="M14 12c1.216-1.374 2.355-1.719 3.996-1.719 1.639 0 2.787.346 4.004 1.719v4h-8v-4z" fill="#cc9b7a"/><path d="M11.444 22.064c0-1.448-.734-2.622-1.639-2.622s-1.639 1.174-1.639 2.622.734 2.623 1.64 2.623c.904 0 1.638-1.175 1.638-2.623M27.833 22.064c0-1.448-.733-2.622-1.639-2.622-.905 0-1.638 1.174-1.638 2.622s.733 2.623 1.638 2.623c.906 0 1.639-1.175 1.639-2.623" fill="#d5ab88"/><path d="M9.477 21.04c0 5.59 3.816 10.122 8.523 10.122s8.522-4.532 8.522-10.121c0-5.59-3.814-10.121-8.521-10.121-4.708 0-8.524 4.532-8.524 10.12" fill="#d5ab88"/><path d="M18 14.198c-2.754 0-3.6.705-3.741.848a.655.655 0 0 0 .902.95c.052-.037.721-.487 2.839-.487 2.2 0 2.836.485 2.842.49a.638.638 0 0 0 .913-.015.669.669 0 0 0-.014-.938c-.141-.143-.987-.848-3.741-.848" fill="#c1694f"/><path d="M18 34.52c5.648 0 9.178-4.168 9.178-7.64 0-3.473-.706-4.863-1.412-3.473l-1.412 2.778s-4.236 0-5.648 1.39c0 0 2.118-4.168-2.118 0 0 0 .706-2.78-3.53.694 0 0-2.118-1.39-2.824-4.862-.196-.964-1.412 0-1.412 3.473s2.824 7.64 9.178 7.64" fill="#963b22"/><path d="M14 21c-.55 0-1 .45-1 1v1c0 .55.45 1 1 1s1-.45 1-1v-1c0-.55-.45-1-1-1M22 21c-.55 0-1 .45-1 1v1c0 .55.45 1 1 1s1-.45 1-1v-1c0-.55-.45-1-1-1" fill="#662113"/><path d="M18.75 18.25h-1.5a.752.752 0 0 0-.75.75c0 .413.337.75.75.75h1.5c.413 0 .75-.337.75-.75a.752.752 0 0 0-.75-.75" fill="#c1694f"/><path d="M10 3.5H8C8 7.594 9.877 12 14 12v-2c-3.164 0-4-4.252-4-6.5M27 7.5h-2c0 .411-.521 2.5-3 2.5v2c3.533 0 5-2.931 5-4.5" fill="#292f33"/><path d="M12 3.5a3 3 0 1 0-6 0 3 3 0 0 0 6 0" fill="#ccd6dd"/><path d="M11 3.5a2 2 0 1 0-4 0 2 2 0 0 0 4 0" fill="#f5f8fa"/><path d="M30 2h-2c0 .835-.108 5-2.25 5S23.5 2.835 23.5 2h-2c0 4.383 1.589 7 4.25 7S30 6.383 30 2" fill="#292f33"/><path d="M23.5 2a1 1 0 1 0-2 0 1 1 0 1 0 2 0M30 2a1 1 0 1 0-2 0 1 1 0 1 0 2 0" fill="#ccd6dd"/></g></svg>