<svg xmlns="http://www.w3.org/2000/svg" viewBox="0 0 45 45"><defs><clipPath id="a"><path d="M0 0h36v36H0V0z"/></clipPath></defs><g clip-path="url(#a)" transform="matrix(1.25 0 0 -1.25 0 45)"><path d="M15.538 35.192c-.333 0-.657-.034-.974-.09-1.172.57-2.175.898-3.564.898-4.907 0-9-4.093-9-9v-7c.148-5.224 4.241-9.569 9.5-9.569 5.26 0 9.352 4.345 9.5 9.57v10c0 3.121-2.339 5.191-5.462 5.191" fill="#ffac33"/><path d="M4 32V22c.253-3.89 3.521-6.969 7.5-6.969S18.747 18.11 19 22v10H4z" fill="#ffdc5d"/><path d="M15.635 32.327c.25.412.365.673.365.673L4 32l-.577-5.693c5.692 0 9.024 2.305 10.815 4.21C14.653 29.043 15.8 27 19 27v6l-3.365-.673z" fill="#ffac33"/><path d="M12 20.5h-1a.5.5 0 0 0 0 1h1a.5.5 0 0 0 0-1" fill="#bf6952"/><path d="M8 23a1 1 0 0 0-1 1v1a1 1 0 1 0 2 0v-1a1 1 0 0 0-1-1M15 23a1 1 0 0 0-1 1v1a1 1 0 1 0 2 0v-1a1 1 0 0 0-1-1" fill="#662113"/><path d="M19 14H3c-1.779 0-1.945-1.193-1.945-2.973V0H22v11.027C22 13 21 14 19 14" fill="#9268ca"/><path d="M18.028 0H17v10h1.028V0zM6.028 0H5v10h1.028V0z" fill="#7450a8"/><path d="M9 17v-3a2.5 2.5 0 1 1 5 0v3H9z" fill="#ffdc5d"/><path d="M8.27 18.231h6.46s-.808-1.616-3.23-1.616c-2.422 0-3.23 1.616-3.23 1.616" fill="#da2f47"/><path d="M26.473 21a7.82 7.82 0 0 1-3.464-.812 6.131 6.131 0 1 1-3.123-11.333 7.85 7.85 0 0 1 6.587-3.578 7.861 7.861 0 0 1 7.86 7.862A7.861 7.861 0 0 1 26.474 21" fill="#f4900c"/><path d="M28 1v4h-4V1h-1V0h6v1h-1z" fill="#ffdc5d"/><path d="M34.334 13.139s.541-4.451 1.666-8.14c0 0-4.344-3-9-3 0 1.564 7.334 11.14 7.334 11.14M17.666 13.139S17.125 8.688 16 4.999c0 0 4.344-3 9-3 0 1.564-7.334 11.14-7.334 11.14" fill="#f4900c"/><path d="M33 16h-3.557a6.99 6.99 0 0 1-3.446.906A6.993 6.993 0 0 1 22.551 16H19v-6h.002L19 9.953C19 6.113 22.133 3 25.997 3s6.997 3.113 6.997 6.953l-.002.047H33v6z" fill="#ffdc5d"/><path d="M29 6h-6s.583-2 3-2 3 2 3 2M26 6.5a.47.47 0 0 0-.35.15.47.47 0 0 0-.15.35c0 .13.05.26.15.36.17.17.52.18.71-.009A.504.504 0 0 0 26.5 7a.47.47 0 0 0-.15-.35.47.47 0 0 0-.35-.15" fill="#bf6952"/><path d="M23 8a1 1 0 0 0-1 1v1a1 1 0 1 0 2 0V9a1 1 0 0 0-1-1M29 8a1 1 0 0 0-1 1v1a1 1 0 1 0 2 0V9a1 1 0 0 0-1-1" fill="#662113"/><path d="M34 13l-1 4-3 2-11-1-.861-5c5.41 0 8.425 1.755 10.065 3.367C29.44 14.908 31.528 13 34 13" fill="#f4900c"/><path d="M28 4h-4V2s2-1 4 0v2z" fill="#ffdc5d"/><path d="M31 3h-3l-2-3-2 3h-2c-3 0-5-2-5-4v-1h18v1c0 1.973-2 4-4 4" fill="#ea596e"/></g></svg>