<svg xmlns="http://www.w3.org/2000/svg" viewBox="0 0 45 45"><defs><clipPath id="a"><path d="M0 36h36V0H0v36z"/></clipPath><clipPath id="b"><path d="M4 34a2 2 0 0 1-2-2V10a2 2 0 0 1 2-2h22a2 2 0 0 1 2 2v22a2 2 0 0 1-2 2H4z"/></clipPath><clipPath id="c"><path d="M0 36h36V0H0v36z"/></clipPath><clipPath id="d"><path d="M0 0h36v36H0V0z"/></clipPath></defs><g clip-path="url(#a)" transform="matrix(1.25 0 0 -1.25 0 45)"><path d="M30 10a4 4 0 0 0-4-4H4a4 4 0 0 0-4 4v22a4 4 0 0 0 4 4h22a4 4 0 0 0 4-4V10z" fill="#d99e82"/></g><g clip-path="url(#b)" transform="matrix(1.25 0 0 -1.25 0 45)"><path d="M28 10a2 2 0 0 0-2-2H4a2 2 0 0 0-2 2v22a2 2 0 0 0 2 2h22a2 2 0 0 0 2-2V10z" fill="#5c913b"/></g><g clip-path="url(#c)" transform="matrix(1.25 0 0 -1.25 0 45)"><path d="M10.577 27.222c.352 0 .624-.16.624-.528 0-.367-.272-.528-.576-.528h-2.67c-.352 0-.624.16-.624.528 0 .168.104.312.184.408.664.79 1.383 1.51 1.991 2.39.144.209.28.456.28.744 0 .328-.249.616-.576.616-.92 0-.48-1.295-1.247-1.295-.384 0-.584.27-.584.583 0 1.008.895 1.815 1.88 1.815.982 0 1.774-.648 1.774-1.663 0-1.111-1.24-2.215-1.919-3.07h1.463zM4.09 22.828c0 .288.184.48.479.48.296 0 .48-.192.48-.48v-1.16h1.16c.296 0 .48-.19.48-.479 0-.288-.184-.48-.48-.48h-1.16V19.55c0-.288-.184-.48-.48-.48-.295 0-.48.192-.48.48v1.16H2.932c-.296 0-.48.191-.48.48 0 .287.184.478.48.478H4.09v1.16zM10.577 20.222c.352 0 .623-.16.623-.528 0-.367-.271-.528-.575-.528H7.954c-.351 0-.623.16-.623.528 0 .168.104.312.184.408.664.79 1.383 1.51 1.99 2.39.145.209.28.456.28.744 0 .328-.248.616-.575.616-.92 0-.48-1.295-1.248-1.295-.384 0-.583.27-.583.583 0 1.008.895 1.815 1.879 1.815.983 0 1.774-.648 1.774-1.663 0-1.111-1.24-2.215-1.918-3.07h1.463zM11.416 17.03H3.083a.5.5 0 1 0 0 1h8.333a.5.5 0 0 0 0-1" fill="#fff"/></g><g clip-path="url(#d)" transform="matrix(1.25 0 0 -1.25 0 45)"><path d="M36 0v2a6 6 0 0 1-6 6H14a6 6 0 0 1-6-6V0h28z" fill="#e1e8ed"/><path d="M17.64 7.9C19.384 6.63 20.488 6.35 22 6.35c1.512 0 2.616.282 4.36 1.55v3.81h-8.72V7.9z" fill="#7c533e"/><path d="M17.632 10.027c1.216-1.374 2.724-1.746 4.364-1.746 1.639 0 3.147.373 4.364 1.746v3.491h-8.728v-3.49z" fill="#664131"/><path d="M15.444 20.064c0-1.448-.734-2.622-1.639-2.622s-1.639 1.174-1.639 2.622.734 2.623 1.64 2.623c.904 0 1.638-1.175 1.638-2.623M31.833 20.064c0-1.448-.733-2.622-1.639-2.622-.905 0-1.638 1.174-1.638 2.622s.733 2.623 1.638 2.623c.906 0 1.639-1.175 1.639-2.623" fill="#7c533e"/><path d="M13.477 19.04c0 5.59 3.816 10.122 8.523 10.122s8.522-4.532 8.522-10.121c0-5.59-3.814-10.121-8.521-10.121-4.708 0-8.524 4.532-8.524 10.12" fill="#7c533e"/><path d="M26.525 14.654l-1.268.274c-.405.094-1.173.072-1.536.072H20.033c-.363 0-1.13.022-1.536-.072l-1.266-.274c-.349-.1-.55-.393-.45-.74.081-.288.345-.44.63-.44.06 0 .12.026.18.041l1.266.371a.637.637 0 0 1-.066-.675.655.655 0 0 1 .88-.289l1.034.517a.636.636 0 0 1 .638-.587c.242 0 .473.134.587.364l.07.137-.053-.137c.114-.23.223-.364.465-.364a.64.64 0 0 1 .638.587l1.034-.517a.654.654 0 0 1 .879.289.64.64 0 0 1-.065.675l1.266-.37c.06-.016.121-.043.18-.043.285 0 .547.153.63.441.1.347-.1.64-.449.74M22 32.52c5.648 0 9.178-4.168 9.178-7.64 0-3.473-.706-4.863-1.412-3.473l-1.412 2.778s-4.236 0-5.648 1.39c0 0 2.118-4.168-2.118 0 0 0 .706-2.78-3.53.694 0 0-2.118-1.39-2.824-4.862-.196-.964-1.412 0-1.412 3.473s2.824 7.64 9.178 7.64" fill="#0b0200"/><path d="M18 19c-.55 0-1 .45-1 1v1c0 .55.45 1 1 1s1-.45 1-1v-1c0-.55-.45-1-1-1M26 19c-.55 0-1 .45-1 1v1c0 .55.45 1 1 1s1-.45 1-1v-1c0-.55-.45-1-1-1"/><path d="M22.75 16.25h-1.5a.752.752 0 0 0-.75.75c0 .413.337.75.75.75h1.5c.413 0 .75-.337.75-.75a.752.752 0 0 0-.75-.75" fill="#3d2e24"/><path d="M21.94 5.117s3.38-2.494 4.093-2.777c.156-.063-.367 3.656-.367 3.656h-7.454s-.524-3.78-.235-3.625c.642.342 3.962 2.746 3.962 2.746" fill="#99aab5"/><path d="M23.252 2.559s.375.625.531.906c.182.328.453 1.57.453 1.57l-2.187.962c0 .007-.16-.006-.16-.006l-.184-.041-.172-.063c-.218-.07.094-.008.094-.015l-1.975-.836s.287-1.243.471-1.571c.156-.281.527-.906.527-.906s-.752-.562-1.035-2.564h4.668c-.281 1.595-1.031 2.564-1.031 2.564" fill="#be1931"/><path d="M17.23 9.371c.565-.566 4.71-3.383 4.71-3.383s-2.125-1.242-4.086-3.535c-.195-.23-1.543 4.625-1.584 5.71-.012.302.689 1.48.96 1.208M26.67 9.371c-.566-.566-4.71-3.383-4.71-3.383s2.126-1.242 4.085-3.535c.195-.23 1.54 4.625 1.582 5.71.012.302-.687 1.48-.957 1.208" fill="#f5f8fa"/><path d="M21.955 5.309c.39.02 1.543-.771 1.422-1.25-.46-1.828-.85-1.391-1.39-1.391-.612 0-.966-.472-1.39 1.313-.095.387.796 1.297 1.358 1.328M23.986-.004h-4.023s.541 2.166 2.017 2.166c1.477 0 2.006-2.166 2.006-2.166" fill="#dd2e44"/></g></svg>