<svg xmlns="http://www.w3.org/2000/svg" viewBox="0 0 45 45"><defs><clipPath id="a"><path d="M0 36h36V0H0v36z"/></clipPath><clipPath id="b"><path d="M4 34a2 2 0 0 1-2-2V10a2 2 0 0 1 2-2h22a2 2 0 0 1 2 2v22a2 2 0 0 1-2 2H4z"/></clipPath><clipPath id="c"><path d="M0 36h36V0H0v36z"/></clipPath><clipPath id="d"><path d="M0 0h36v36H0V0z"/></clipPath><clipPath id="e"><path d="M0 36h36V0H0v36z"/></clipPath><clipPath id="f"><path d="M0 0h36v36H0V0z"/></clipPath></defs><g clip-path="url(#a)" transform="matrix(1.25 0 0 -1.25 0 45)"><path d="M30 10a4 4 0 0 0-4-4H4a4 4 0 0 0-4 4v22a4 4 0 0 0 4 4h22a4 4 0 0 0 4-4V10z" fill="#d99e82"/></g><g clip-path="url(#b)" transform="matrix(1.25 0 0 -1.25 0 45)"><path d="M28 10a2 2 0 0 0-2-2H4a2 2 0 0 0-2 2v22a2 2 0 0 0 2 2h22a2 2 0 0 0 2-2V10z" fill="#5c913b"/></g><g clip-path="url(#c)" transform="matrix(1.25 0 0 -1.25 0 45)"><path d="M10.577 27.222c.352 0 .624-.16.624-.528 0-.367-.272-.528-.576-.528h-2.67c-.352 0-.624.16-.624.528 0 .168.104.312.184.408.664.79 1.383 1.51 1.991 2.39.144.209.28.456.28.744 0 .328-.249.616-.576.616-.92 0-.48-1.295-1.247-1.295-.384 0-.584.27-.584.583 0 1.008.895 1.815 1.88 1.815.982 0 1.774-.648 1.774-1.663 0-1.111-1.24-2.215-1.919-3.07h1.463zM4.09 22.828c0 .288.184.48.479.48.296 0 .48-.192.48-.48v-1.16h1.16c.296 0 .48-.19.48-.479 0-.288-.184-.48-.48-.48h-1.16V19.55c0-.288-.184-.48-.48-.48-.295 0-.48.192-.48.48v1.16H2.932c-.296 0-.48.191-.48.48 0 .287.184.478.48.478H4.09v1.16zM10.577 20.222c.352 0 .623-.16.623-.528 0-.367-.271-.528-.575-.528H7.954c-.351 0-.623.16-.623.528 0 .168.104.312.184.408.664.79 1.383 1.51 1.99 2.39.145.209.28.456.28.744 0 .328-.248.616-.575.616-.92 0-.48-1.295-1.248-1.295-.384 0-.583.27-.583.583 0 1.008.895 1.815 1.879 1.815.983 0 1.774-.648 1.774-1.663 0-1.111-1.24-2.215-1.918-3.07h1.463zM11.416 17.03H3.083a.5.5 0 1 0 0 1h8.333a.5.5 0 0 0 0-1" fill="#fff"/></g><g clip-path="url(#d)" transform="matrix(1.25 0 0 -1.25 0 45)"><path d="M35 0v3.5C35 6.814 31.314 9 28 9H16c-3.313 0-7-2.186-7-5.5V0h26z" fill="#9266cc"/><path d="M21.944 30.931c4.105 0 10.948-2.053 10.948-10.948s0-10.948-2.053-10.948-4.79 2.053-8.895 2.053c-4.105 0-6.784-2.053-8.895-2.053-2.287 0-2.053 8.211-2.053 10.948 0 8.895 6.843 10.948 10.948 10.948" fill="#60352a"/><path d="M17 9h9.875s-1.256-3.5-4.938-3.5C18.256 5.5 17 9 17 9" fill="#292f33"/><path d="M18.328 8.98C18.328 7.5 20.5 6.5 22 6.5s3.66 1 3.66 2.48v3.205h-7.332V8.98z" fill="#af7e57"/><path d="M18.321 10.821c1.023-1.155 2.291-1.468 3.67-1.468 1.378 0 2.646.313 3.67 1.468v2.936h-7.34v-2.936z" fill="#9b6a49"/><path d="M13.734 20.283c0 5.834 3.676 10.563 8.21 10.563 4.535 0 8.21-4.73 8.21-10.563S26.48 9.997 21.945 9.997c-4.534 0-8.21 4.453-8.21 10.286" fill="#af7e57"/><path d="M21.944 12.457c-1.605 0-2.446.794-2.536.885a.685.685 0 0 0 .96.973c.035-.032.553-.491 1.576-.491 1.04 0 1.557.473 1.577.492a.69.69 0 0 0 .963-.019.678.678 0 0 0-.004-.955c-.09-.091-.93-.885-2.536-.885" fill="#df1f32"/><path d="M11.725 17c-.02 1-.044.224-.044.465 0 3.422 2.053-.494 2.053 1.943 0 2.439 1.368 2.683 2.736 4.051.685.685 2.053 2.026 2.053 2.026s3.421-2.067 6.158-2.067c2.737 0 5.474-1.375 5.474-4.112s2.053 1.584 2.053-1.837c0-.244-.023.531-.04-.469h.718c.007 2 .007 1.924.007 3.202 0 8.895-6.843 12.207-10.949 12.207-4.105 0-10.947-3.257-10.947-12.152 0-.793-.02-1.257.008-3.257h.72z" fill="#60352a"/><path d="M18.608 18.114a.849.849 0 0 0-.846.846v.845c0 .465.381.846.846.846a.85.85 0 0 0 .847-.846v-.845a.85.85 0 0 0-.847-.846M25.373 18.114a.849.849 0 0 0-.846.846v.845c0 .465.381.846.846.846a.849.849 0 0 0 .846-.846v-.845a.849.849 0 0 0-.846-.846" fill="#60352a"/><path d="M22.837 15.5h-1.691a.423.423 0 0 0-.423.423v.153c0 .234.189.424.423.424h1.69c.233 0 .424-.19.424-.424v-.153a.424.424 0 0 0-.423-.423" fill="#915a34"/></g><g clip-path="url(#e)" transform="matrix(1.25 0 0 -1.25 0 45)"><path d="M15.444 20.064c0-1.448-.734-2.622-1.639-2.622s-1.639 1.174-1.639 2.622.734 2.623 1.64 2.623c.904 0 1.638-1.175 1.638-2.623M31.833 20.064c0-1.448-.733-2.622-1.639-2.622-.905 0-1.638 1.174-1.638 2.622s.733 2.623 1.638 2.623c.906 0 1.639-1.175 1.639-2.623" fill="#af7e57"/></g><g clip-path="url(#f)" transform="matrix(1.25 0 0 -1.25 0 45)"><path d="M22 5.778s3.381-2.494 4.094-2.777c.156-.063-.367 3.656-.367 3.656h-7.454s-.523-3.78-.234-3.625C18.68 3.374 22 5.778 22 5.778" fill="#744eaa"/><path d="M17.291 10.083C17.855 9.517 22 6.7 22 6.7s-2.125-1.242-4.086-3.535c-.195-.23-1.543 4.625-1.584 5.709-.012.303.69 1.48.961 1.209M26.73 10.083c-.566-.566-4.709-3.383-4.709-3.383s2.125-1.242 4.084-3.535c.195-.23 1.541 4.625 1.582 5.709.012.303-.687 1.48-.957 1.209" fill="#cbb7ea"/><path d="M23 0h-2v6h2V0z" fill="#744eaa"/><path d="M23 1.5a1 1 0 1 0-2 0 1 1 0 0 0 2 0M23 4.5a1 1 0 1 0-2 0 1 1 0 0 0 2 0" fill="#cbb7ea"/></g></svg>