<svg xmlns="http://www.w3.org/2000/svg" viewBox="0 0 45 45"><defs><clipPath id="a"><path d="M0 36h36V0H0v36z"/></clipPath></defs><g clip-path="url(#a)" transform="matrix(1.25 0 0 -1.25 0 45)"><path d="M31 0v3.5C31 6.814 27.314 9 24 9H12C8.687 9 5 6.814 5 3.5V0h26zM17.944 30.931c4.105 0 10.948-2.053 10.948-10.948s0-10.948-2.053-10.948-4.79 2.053-8.895 2.053c-4.105 0-6.784-2.053-8.895-2.053-2.287 0-2.053 8.211-2.053 10.948 0 8.895 6.843 10.948 10.948 10.948" fill="#292f33"/><path d="M18 1.589c4.078 1.948 5.62 7.41 5.62 7.41H12.38S13.922 3.538 18 1.59" fill="#9266cc"/><path d="M13 9h9.875s-1.256-3.5-4.938-3.5C14.256 5.5 13 9 13 9" fill="#744eaa"/><path d="M14.328 8.98C14.328 7.5 16.5 7 18 7s3.66.5 3.66 1.98v3.205h-7.332V8.98z" fill="#f7dece"/><path d="M14.321 10.821c1.023-1.155 2.291-1.468 3.67-1.468 1.378 0 2.646.313 3.67 1.468v2.936h-7.34v-2.936z" fill="#eec2ad"/><path d="M9.734 20.283c0 5.834 3.676 10.563 8.21 10.563 4.535 0 8.21-4.73 8.21-10.563S22.48 9.997 17.945 9.997c-4.534 0-8.21 4.453-8.21 10.286" fill="#f7dece"/><path d="M17.944 12.457c-1.605 0-2.446.794-2.536.885a.685.685 0 0 0 .96.973c.035-.032.553-.491 1.576-.491 1.04 0 1.557.473 1.577.492a.69.69 0 0 0 .963-.019.678.678 0 0 0-.004-.955c-.09-.091-.93-.885-2.536-.885" fill="#df1f32"/><path d="M7.725 17c-.02 1-.044.224-.044.465 0 3.422 2.053-.494 2.053 1.943 0 2.439 1.368 2.683 2.736 4.051.685.685 2.053 2.026 2.053 2.026s3.421-2.067 6.158-2.067c2.737 0 5.474-1.375 5.474-4.112s2.053 1.584 2.053-1.837c0-.244-.023.531-.04-.469h.718c.006 2 .006 1.924.006 3.202 0 8.895-6.842 12.207-10.948 12.207-4.105 0-10.947-3.257-10.947-12.152 0-.793-.02-1.257.008-3.257h.72z" fill="#292f33"/><path d="M14.608 18.114a.849.849 0 0 0-.846.846v.845c0 .465.381.846.846.846a.85.85 0 0 0 .847-.846v-.845a.85.85 0 0 0-.847-.846M21.373 18.114a.849.849 0 0 0-.846.846v.845c0 .465.381.846.846.846a.849.849 0 0 0 .846-.846v-.845a.849.849 0 0 0-.846-.846" fill="#662113"/><path d="M18.837 15.5h-1.691a.423.423 0 0 0-.423.423v.153c0 .234.189.424.423.424h1.69c.233 0 .424-.19.424-.424v-.153a.424.424 0 0 0-.423-.423" fill="#c1694f"/><path d="M11.444 20.064c0-1.448-.734-2.622-1.639-2.622s-1.639 1.174-1.639 2.622.734 2.623 1.64 2.623c.904 0 1.638-1.175 1.638-2.623M27.833 20.064c0-1.448-.733-2.622-1.639-2.622-.905 0-1.638 1.174-1.638 2.622s.733 2.623 1.638 2.623c.906 0 1.639-1.175 1.639-2.623" fill="#f7dece"/><path d="M18 28L4 32l14 3 14-3-14-4z" fill="#292f33"/><path d="M6.063 31.93L18 28.52l11.937 3.41L18 34.49 6.063 31.93zM18 27.5a.534.534 0 0 0-.138.019l-14 4a.502.502 0 0 0 .033.97l14 3a.491.491 0 0 0 .209 0l14-3a.499.499 0 0 0 .032-.97l-14-4a.539.539 0 0 0-.137-.02" fill="#292f33"/><path d="M27 28c0-2.209-4.029-3-9-3s-9 .791-9 3c0 5 4.029 5 9 5s9 0 9-5" fill="#292f33"/><path d="M18 32.5c-5.429 0-8.5-.209-8.5-4.5 0-1.565 3.178-2.5 8.5-2.5s8.5.935 8.5 2.5c0 4.291-3.071 4.5-8.5 4.5m0-8c-6.215 0-9.5 1.21-9.5 3.5 0 5.5 4.615 5.5 9.5 5.5 4.886 0 9.5 0 9.5-5.5 0-2.29-3.285-3.5-9.5-3.5" fill="#292f33"/><path d="M18 27.5a.503.503 0 0 0-.137.019l-14 4a.5.5 0 1 0 .274.962l14.001-4a.499.499 0 0 0 .342-.618.498.498 0 0 0-.48-.363" fill="#66757f"/><path d="M18 27.5a.5.5 0 0 0-.137.981l14 4a.501.501 0 0 0 .275-.962l-14-4A.51.51 0 0 0 18 27.5" fill="#66757f"/><path d="M6 30.5a.5.5 0 0 0-.042.998l12 1a.5.5 0 1 0 .084-.996l-12-1C6.027 30.5 6.013 30.5 6 30.5" fill="#ffcc4d"/><path d="M6 20.563a.5.5 0 0 0-.5.5V31a.5.5 0 0 0 1 0v-9.938a.5.5 0 0 0-.5-.5" fill="#ffcc4d"/><path d="M7 22.5c0-2.485-.448-4.5-1-4.5s-1 2.015-1 4.5.448 2.5 1 2.5 1-.015 1-2.5" fill="#ffcc4d"/><path d="M8.1 2.66c.251 0 .401-2.66.401-2.66h-.956s.193 2.66.555 2.66M11.1 2.66c.251 0 .401-2.66.401-2.66h-.956s.193 2.66.555 2.66M27.945 2.66c-.25 0-.4-2.66-.4-2.66h.955s-.194 2.66-.555 2.66M24.945 2.66c-.25 0-.4-2.66-.4-2.66h.955s-.194 2.66-.555 2.66" fill="#66757f"/></g></svg>