<svg xmlns="http://www.w3.org/2000/svg" viewBox="0 0 45 45"><defs><clipPath id="a"><path d="M0 36h36V0H0v36z"/></clipPath></defs><g clip-path="url(#a)" transform="matrix(1.25 0 0 -1.25 0 45)"><path d="M30.212 8.93c0-1.505-3.676-2.726-8.212-2.726-4.535 0-8.212 1.221-8.212 2.726s3.677 2.726 8.212 2.726c4.536 0 8.212-1.221 8.212-2.726" fill="#292f33"/><path d="M35 0v3.5C35 6.814 31.314 9 28 9H16c-3.313 0-7-2.186-7-5.5V0h26z" fill="#e1e8ed"/><path d="M30.934 9H29.77c.014 0 .029-.065.029-.127 0-1.36-3.491-2.434-7.8-2.434-4.306 0-7.797 1.06-7.797 2.42 0 .062.015.141.029.141h-.734l-.705-.099.005-1.018C12.91 5.478 16.983 4.491 22 4.491c4.997 0 9.054 1.009 9.2 3.413l.014.974-.28.122z" fill="#ea596e"/><path d="M22 6.467c-4.307 0-7.799 1.103-7.799 2.463s3.492 2.463 7.799 2.463 7.799-1.103 7.799-2.463S26.307 6.467 22 6.467m0 5.901c-5.089 0-9.214-1.539-9.214-3.438 0-1.899 4.125-3.439 9.214-3.439s9.214 1.54 9.214 3.44c0 1.898-4.125 3.437-9.214 3.437" fill="#be1931"/><path d="M29.777 8.796A8.163 8.163 0 0 1 28 9H16a8.172 8.172 0 0 1-1.778-.204c.222-1.297 3.614-2.329 7.778-2.329s7.555 1.032 7.777 2.329" fill="#99aab5"/><path d="M21.945 30.931c4.105 0 10.948-2.053 10.948-10.948s0-10.948-2.054-10.948c-2.053 0-4.152 2.053-8.895 2.053-4.105 0-6.784-2.053-8.895-2.053-2.287 0-2.053 8.211-2.053 10.948 0 8.895 6.843 10.948 10.948 10.948" fill="#ffac33"/><path d="M18.328 8.98A6.315 6.315 0 0 1 22 7.773c.708 0 2.194.142 3.66 1.207v3.205h-7.332V8.98z" fill="#ffdc5d"/><path d="M18.321 10.821c1.023-1.155 2.291-1.468 3.67-1.468 1.378 0 2.646.313 3.67 1.468v2.936h-7.34v-2.936z" fill="#f9ca55"/><path d="M13.734 20.282c0 5.834 3.676 10.563 8.21 10.563 4.535 0 8.21-4.728 8.21-10.562S26.48 9.996 21.945 9.996c-4.534 0-8.21 4.452-8.21 10.285" fill="#ffdc5d"/><path d="M21.945 12.457c-1.606 0-2.446.794-2.536.885a.684.684 0 1 0 .96.974c.035-.032.552-.491 1.576-.491 1.039 0 1.556.472 1.577.492a.688.688 0 0 0 .963-.02.678.678 0 0 0-.004-.955c-.09-.091-.93-.885-2.536-.885" fill="#df1f32"/><path d="M11.725 17c-.02 1-.044.224-.044.465 0 3.422 2.053-.494 2.053 1.943 0 2.439 1.368 2.683 2.736 4.051.685.685 2.053 2.026 2.053 2.026s3.421-2.067 6.158-2.067c2.737 0 5.474-1.375 5.474-4.112s2.053 1.584 2.053-1.837c0-.244-.023.531-.04-.469h.718c.006 2 .006 1.924.006 3.202 0 8.895-6.842 12.207-10.948 12.207-4.105 0-10.947-3.257-10.947-12.152 0-.793-.02-1.257.008-3.257h.72z" fill="#ffac33"/><path d="M18.609 18.114a.849.849 0 0 0-.846.846v.845c0 .465.38.846.846.846a.849.849 0 0 0 .846-.846v-.845a.849.849 0 0 0-.846-.846M25.373 18.114a.849.849 0 0 0-.846.846v.845c0 .465.381.846.846.846a.849.849 0 0 0 .846-.846v-.845a.849.849 0 0 0-.846-.846" fill="#662113"/><path d="M22.837 15.5h-1.691a.424.424 0 0 0-.423.423v.154c0 .233.19.423.423.423h1.69c.234 0 .424-.19.424-.423v-.154a.424.424 0 0 0-.424-.423" fill="#c1694f"/><path d="M32 3h3V0h-3v3z" fill="#55acee"/><path d="M35 0h-2v2h2V0z" fill="#ffcc4d"/><path d="M24.004 0c-1.198 5.146-6.048 9-11.857 9C6.337 9 1.489 5.146.29 0h23.713z" fill="#e1e8ed"/><path d="M22.669 0c-1.173 4.464-5.432 7.778-10.522 7.778S2.797 4.464 1.625 0h21.044z" fill="#292f33"/><path d="M21.637 0c-1.148 3.937-4.956 6.833-9.49 6.833S3.804 3.937 2.657 0h18.98z" fill="#ffac33"/><path d="M18.195.952l.103.063c.768.467.928 1.538.3 2.182-.467.48-.993.909-1.566 1.267-.56.35-1.158.62-1.784.827-.828.273-1.711-.232-1.866-1.091-.12-.661.225-1.346.855-1.578a5.795 5.795 0 0 0 2.232-1.473c.442-.473 1.173-.533 1.726-.197" fill="#ffdc5d"/><path d="M6.344 21.738l-1.542.57-.6 2.2a.667.667 0 0 1-1.287 0l-.6-2.2-1.542-.57a.665.665 0 0 1 0-1.25l1.534-.568.605-2.415a.667.667 0 0 1 1.293 0l.605 2.415 1.534.568a.665.665 0 0 1 0 1.25" fill="#9266cc"/><path d="M11.28 31.366l-2.61.966-.966 2.61a1.103 1.103 0 0 1-2.07 0l-.966-2.61-2.61-.966a1.103 1.103 0 0 1 0-2.07l2.61-.966.966-2.61a1.105 1.105 0 0 1 2.07 0l.966 2.61 2.61.966a1.104 1.104 0 0 1 0 2.07" fill="#5dadec"/></g></svg>