<svg xmlns="http://www.w3.org/2000/svg" viewBox="0 0 45 45"><defs><clipPath id="a"><path d="M0 0h36v36H0V0z"/></clipPath></defs><g clip-path="url(#a)" transform="matrix(1.25 0 0 -1.25 0 45)"><path d="M36 0v2a6 6 0 0 1-6 6H14a6 6 0 0 1-6-6V0h28z" fill="#e1e8ed"/><path d="M30.212 7.93c0-1.505-3.676-2.726-8.212-2.726-4.535 0-8.212 1.22-8.212 2.726 0 1.505 3.677 2.727 8.212 2.727 4.536 0 8.212-1.222 8.212-2.727" fill="#292f33"/><path d="M22 5.204c4.536 0 8.212 1.22 8.212 2.727 0 .02-.008.038-.009.06-.068.001-.135.01-.203.01H14c-.068 0-.135-.009-.203-.01-.001-.022-.009-.04-.009-.06 0-1.507 3.677-2.727 8.212-2.727" fill="#99aab5"/><path d="M30.934 8H29.77c.014 0 .029-.065.029-.127 0-1.36-3.491-2.434-7.8-2.434-4.306 0-7.797 1.06-7.797 2.42 0 .062.015.141.029.141h-.734l-.705-.099.005-1.018C12.91 4.478 16.983 3.491 22 3.491c4.998 0 9.054 1.009 9.2 3.413l.014.974-.28.122z" fill="#ea596e"/><path d="M22 5.467c-4.307 0-7.799 1.104-7.799 2.464 0 1.359 3.492 2.463 7.799 2.463s7.799-1.104 7.799-2.463c0-1.36-3.492-2.464-7.799-2.464m0 5.9c-5.089 0-9.214-1.538-9.214-3.436 0-1.9 4.125-3.44 9.214-3.44s9.214 1.54 9.214 3.44c0 1.898-4.125 3.437-9.214 3.437" fill="#be1931"/><path d="M17.64 8.063C19.384 6.795 20.488 6.55 22 6.55c1.512 0 2.616.245 4.36 1.511v3.812h-8.72V8.062z" fill="#f3d2a2"/><path d="M17.632 10.027c1.216-1.374 2.724-1.746 4.364-1.746 1.639 0 3.147.373 4.364 1.746v3.491h-8.728v-3.49z" fill="#e2c196"/><path d="M15.444 20.064c0-1.448-.734-2.622-1.639-2.622s-1.639 1.174-1.639 2.622.734 2.623 1.64 2.623c.904 0 1.638-1.175 1.638-2.623M31.833 20.064c0-1.448-.733-2.622-1.639-2.622-.905 0-1.638 1.174-1.638 2.622s.733 2.623 1.638 2.623c.906 0 1.639-1.175 1.639-2.623" fill="#f3d2a2"/><path d="M13.477 19.04c0 5.59 3.816 10.122 8.523 10.122s8.522-4.532 8.522-10.121c0-5.59-3.814-10.121-8.521-10.121-4.708 0-8.524 4.532-8.524 10.12" fill="#f3d2a2"/><path d="M22 12.198c-2.754 0-3.6.705-3.741.848a.655.655 0 0 0 .902.95c.052-.037.721-.487 2.839-.487 2.2 0 2.836.485 2.842.49a.638.638 0 0 0 .913-.015.669.669 0 0 0-.014-.938c-.141-.143-.987-.848-3.741-.848" fill="#c1694f"/><path d="M22 32.52c5.648 0 9.178-4.168 9.178-7.64 0-3.473-.706-4.863-1.412-3.473l-1.412 2.778s-4.236 0-5.648 1.39c0 0 2.118-4.168-2.118 0 0 0 .706-2.78-3.53.694 0 0-2.118-1.39-2.824-4.862-.196-.964-1.412 0-1.412 3.473s2.824 7.64 9.178 7.64" fill="#ffe51e"/><path d="M18 19c-.55 0-1 .45-1 1v1c0 .55.45 1 1 1s1-.45 1-1v-1c0-.55-.45-1-1-1M26 19c-.55 0-1 .45-1 1v1c0 .55.45 1 1 1s1-.45 1-1v-1c0-.55-.45-1-1-1" fill="#662113"/><path d="M22.75 16.25h-1.5a.752.752 0 0 0-.75.75c0 .413.337.75.75.75h1.5c.413 0 .75-.337.75-.75a.752.752 0 0 0-.75-.75" fill="#c1694f"/><path d="M33 3V0h3v2c0 .341-.035.674-.09 1H33z" fill="#55acee"/><path d="M36 0h-2v2h2V0z" fill="#ffcc4d"/><path d="M24.004 0c-1.198 5.146-6.048 9-11.857 9C6.337 9 1.489 5.146.29 0h23.713z" fill="#e1e8ed"/><path d="M22.669 0c-1.173 4.464-5.432 7.778-10.522 7.778S2.797 4.464 1.625 0h21.044z" fill="#292f33"/><path d="M21.638 0c-1.148 3.937-4.956 6.833-9.49 6.833S3.805 3.937 2.657 0h18.98z" fill="#ffac33"/><path d="M18.195.951l.103.063c.767.467.927 1.54.3 2.182a8.345 8.345 0 0 1-1.567 1.268 8.205 8.205 0 0 1-1.783.827c-.828.272-1.71-.233-1.866-1.092-.12-.66.225-1.346.855-1.577a5.775 5.775 0 0 0 2.231-1.474c.443-.472 1.174-.533 1.727-.197" fill="#ffdc5d"/><path d="M6.344 21.738l-1.542.57-.6 2.2a.667.667 0 0 1-1.287 0l-.6-2.2-1.542-.57a.665.665 0 0 1 0-1.25l1.534-.568.605-2.415a.667.667 0 0 1 1.293 0l.605 2.415 1.534.568a.665.665 0 0 1 0 1.25" fill="#9266cc"/><path d="M11.28 31.366l-2.61.966-.966 2.61a1.103 1.103 0 0 1-2.07 0l-.966-2.61-2.61-.966a1.103 1.103 0 0 1 0-2.07l2.61-.966.966-2.61a1.105 1.105 0 0 1 2.07 0l.966 2.61 2.61.966a1.104 1.104 0 0 1 0 2.07" fill="#5dadec"/></g></svg>