<svg xmlns="http://www.w3.org/2000/svg" viewBox="0 0 45 45"><defs><clipPath id="a"><path d="M0 36h36V0H0v36z"/></clipPath><clipPath id="b"><path d="M16 9c-3.313 0-7-2.185-7-5.5V0h26v3.5C35 6.815 31.315 9 28 9H16z"/></clipPath><clipPath id="c"><path d="M0 36h36V0H0v36z"/></clipPath></defs><g clip-path="url(#a)" transform="matrix(1.25 0 0 -1.25 0 45)"><path d="M35 0v3.5C35 6.814 31.314 9 28 9H16c-3.313 0-7-2.186-7-5.5V0h26z" fill="#77b255"/><path d="M18 9h8l-4-7-4 7z" fill="#3e721d"/><path d="M21.945 30.93c4.105 0 10.947-2.052 10.947-10.946 0-8.896 0-10.948-2.052-10.948-2.053 0-4.79 2.052-8.895 2.052-4.105 0-6.785-2.052-8.895-2.052-2.288 0-2.054 8.21-2.054 10.948 0 8.894 6.844 10.947 10.95 10.947" fill="#292f33"/><path d="M18.328 8.982c1.466-1.065 2.964-.98 3.672-.98.708 0 2.194-.085 3.66.98v3.203h-7.332V8.982z" fill="#f7dece"/><path d="M18.322 10.821c1.022-1.155 2.29-1.468 3.668-1.468 1.38 0 2.647.313 3.67 1.468v2.936h-7.338v-2.936z" fill="#eec2ad"/><path d="M13.734 20.282c0 5.834 3.676 10.564 8.21 10.564 4.535 0 8.21-4.73 8.21-10.564 0-5.833-3.675-10.285-8.21-10.285-4.534 0-8.21 4.452-8.21 10.285" fill="#f7dece"/><path d="M21.945 12.457c-1.606 0-2.447.794-2.537.885a.682.682 0 0 0 0 .967.686.686 0 0 0 .961.006c.035-.032.551-.491 1.576-.491 1.038 0 1.555.473 1.576.492a.69.69 0 0 0 .963-.019.678.678 0 0 0-.004-.955c-.09-.091-.93-.885-2.535-.885" fill="#df1f32"/><path d="M11.725 17c-.02 1-.044.224-.044.465 0 3.422 2.053-.494 2.053 1.943 0 2.439 1.368 2.683 2.737 4.051.684.685 2.052 2.026 2.052 2.026s3.421-2.067 6.158-2.067c2.737 0 5.474-1.375 5.474-4.112s2.053 1.584 2.053-1.837c0-.244-.023.531-.04-.469h.72c.005 2 .005 1.924.005 3.202 0 8.895-6.842 10.729-10.949 10.729-4.104 0-10.947-1.779-10.947-10.674 0-.793-.02-1.257.008-3.257h.72z" fill="#292f33"/><path d="M18.608 18.113a.85.85 0 0 0-.846.847v.844c0 .465.381.846.846.846a.85.85 0 0 0 .847-.846v-.844a.85.85 0 0 0-.847-.847M25.373 18.113a.85.85 0 0 0-.846.847v.844c0 .465.381.846.846.846a.849.849 0 0 0 .846-.846v-.844a.85.85 0 0 0-.846-.847" fill="#662113"/><path d="M22.836 15.5h-1.69a.423.423 0 0 0-.423.423v.153c0 .234.189.424.423.424h1.69c.233 0 .424-.19.424-.424v-.153a.424.424 0 0 0-.424-.423" fill="#c1694f"/><path d="M15.444 20.064c0-1.448-.734-2.622-1.639-2.622s-1.639 1.174-1.639 2.622.734 2.623 1.64 2.623c.904 0 1.638-1.175 1.638-2.623M31.833 20.064c0-1.448-.733-2.622-1.639-2.622-.905 0-1.638 1.174-1.638 2.622s.733 2.623 1.638 2.623c.906 0 1.639-1.175 1.639-2.623" fill="#f7dece"/></g><g clip-path="url(#b)" fill="#269" transform="matrix(1.25 0 0 -1.25 0 45)"><path d="M31 0h-3v9h3V0zM16 0h-3v9h3V0z"/></g><g clip-path="url(#c)" transform="matrix(1.25 0 0 -1.25 0 45)"><path d="M31 1.5H13V0h18v1.5z" fill="#269"/><path d="M7 4.25a1.25 1.25 0 0 1-2.5 0V0H7v4.25z" fill="#c1694f"/><path d="M10.003 13.25A4.252 4.252 0 0 0 5.75 8.997a4.252 4.252 0 0 0-4.253 4.253c0 .086-1.497.084-1.497 0a5.75 5.75 0 0 1 11.5 0c0 .084-1.497.086-1.497 0" fill="#66757f"/><path d="M1.5 13.25a.75.75 0 0 0-1.5 0v8.5a.75.75 0 0 0 1.5 0v-8.5zM11.5 13.25a.75.75 0 0 0-1.5 0v8.5a.75.75 0 0 0 1.5 0v-8.5zM6.5 5A.75.75 0 0 0 5 5v16.75a.75.75 0 0 0 1.5 0V5z" fill="#66757f"/><path d="M30 27.2c0-1.32-3.092-2.2-8-2.2-4.909 0-8 .88-8 2.2 0 3.546 4 8.8 5.333 8.8 1.334 0 2.223-1.76 2.667-1.76.444 0 1.333 1.76 2.667 1.76C26 36 30 30.746 30 27.2" fill="#c1694f"/><path d="M36 28c0-1.657-3.5-6-14-6S8 26.343 8 28s6.82 1 14 1 14 .657 14-1" fill="#c1694f"/><path d="M30 27.2c0-1.32-3.092-2.2-8-2.2-4.909 0-8 .88-8 2.2 0 .566.102 1.175.279 1.8 2.388-2 13.054-2 15.443-.005.176-.623.278-1.23.278-1.795" fill="#292f33"/></g></svg>