<svg xmlns="http://www.w3.org/2000/svg" viewBox="0 0 45 45"><defs><clipPath id="a"><path d="M0 36h36V0H0v36z"/></clipPath><clipPath id="b"><path d="M15 25h14v-5H15v5z"/></clipPath></defs><g clip-path="url(#a)" transform="matrix(1.25 0 0 -1.25 0 45)"><path d="M36 0v4a6 6 0 0 1-6 6H14a6 6 0 0 1-6-6V0h28z" fill="#ccd6dd"/><path d="M18 9l4-4 4 4v5h-8V9z" fill="#ffdc5d"/><path d="M18 12c1.216-1.374 2.355-1.719 3.996-1.719 1.639 0 2.787.346 4.004 1.719v4h-8v-4z" fill="#f9ca55"/><path d="M15.444 22.064c0-1.448-.734-2.622-1.639-2.622s-1.639 1.174-1.639 2.622.734 2.623 1.64 2.623c.904 0 1.638-1.175 1.638-2.623M31.833 22.064c0-1.448-.733-2.622-1.639-2.622-.905 0-1.638 1.174-1.638 2.622s.733 2.623 1.638 2.623c.906 0 1.639-1.175 1.639-2.623" fill="#ffdc5d"/><path d="M13.477 21.04c0 5.59 3.816 10.122 8.523 10.122s8.522-4.532 8.522-10.121c0-5.59-3.814-10.121-8.521-10.121-4.708 0-8.524 4.532-8.524 10.12" fill="#ffdc5d"/><path d="M22 14.198c-2.754 0-3.6.705-3.741.848a.655.655 0 0 0 .902.95c.052-.037.721-.487 2.839-.487 2.2 0 2.836.485 2.842.49a.638.638 0 0 0 .913-.015.669.669 0 0 0-.014-.938c-.141-.143-.987-.848-3.741-.848" fill="#c1694f"/><path d="M22 34.52c5.648 0 9.178-4.168 9.178-7.64 0-3.473-.706-4.863-1.412-3.473l-1.412 2.778s-4.236 0-5.648 1.39c0 0 2.118-4.168-2.118 0 0 0 .706-2.78-3.53.694 0 0-2.118-1.39-2.824-4.862-.196-.964-1.412 0-1.412 3.473s2.824 7.64 9.178 7.64" fill="#ffac33"/><path d="M18 21c-.55 0-1 .45-1 1v1c0 .55.45 1 1 1s1-.45 1-1v-1c0-.55-.45-1-1-1M26 21c-.55 0-1 .45-1 1v1c0 .55.45 1 1 1s1-.45 1-1v-1c0-.55-.45-1-1-1" fill="#662113"/><path d="M22.75 18.25h-1.5a.752.752 0 0 0-.75.75c0 .413.337.75.75.75h1.5c.413 0 .75-.337.75-.75a.752.752 0 0 0-.75-.75" fill="#c1694f"/><path d="M2 0S0 0 0 2c0 .179.117.896 1 2l4 5v5s-2 0-2 2 2 2 2 2h5s2 0 2-2-2-2-2-2V9l4-5c1.153-1.441 1-1.866 1-2 0-2-2-2-2-2H2z" fill="#e1e8ed"/><path d="M.531 1.781L1.501.47h12.03l1 1.781-3.094 4.031H3.031l-2.5-4.344M8 25a1 1 0 1 0-2 0 1 1 0 0 0 2 0M10 20a1 1 0 1 0-2 0 1 1 0 0 0 2 0M7 21.5a1.5 1.5 0 1 0-2.999-.001A1.5 1.5 0 0 0 7 21.5" fill="#9266cc"/><path d="M10 18H5s-2 0-2-2 2-2 2-2V9L1 4C.117 2.896 0 2.179 0 2c0-2 2-2 2-2h11s2 0 2 2c0 .134.153.559-1 2l-4 5v5s2 0 2 2-2 2-2 2m-.008-1c.461-.013 1.008-.197 1.008-1 0-.806-.551-.988-1-1H9V8.649l.219-.274 4-5c.732-.915.787-1.249.787-1.252L14 2.041V2c0-.806-.551-.988-1-1H2.012C1.55 1.012 1 1.194.999 1.966c0 .005.063.51.782 1.409l4 5L6 8.649V14l-.014.976-.974.024C4.55 15.012 4 15.194 4 16s.55.988 1 1h4.992" fill="#a8bccc"/><path d="M19.059 0l-1.06 9.219s1.412-1.645 4-1.645c2.59 0 4.22 1.645 4.22 1.645L24.996 0H19.059z" fill="#66757f"/><path d="M18.081 10.75c.566-.566 2.92-10.75 2.92-10.75h-3.157L16.14 2.562l1.704 2.835-2.017.634.254 3.957s1.73 1.033 2 .762M25.919 10.75C25.353 10.184 22.999 0 22.999 0h3.157l1.704 2.562-1.704 2.835 2.017.634-.254 3.957s-1.73 1.033-2 .762" fill="#f5f8fa"/><g clip-path="url(#b)" opacity=".4"><path d="M15 22v3h14v-5H15v2z" fill="#fff"/></g><g><path d="M29 22c0-1.325-.852-2-3-2-1.539 0-2.804 1-4 1-1.196 0-2.461-1-4-1-2.148 0-3 .675-3 2v3h14v-3zm0 3.999H14.999c-1 0-.999-.999-.999-.999v-4c0-1.461 2.333-2 4-2 1.667 0 2.599 1 4 1 1.401 0 2.333-1 4-1 1.667 0 4 .539 4 2v4c0 1.001-1 .999-1 .999" fill="#f5f8fa"/></g></g></svg>