<svg xmlns="http://www.w3.org/2000/svg" viewBox="0 0 45 45"><defs><clipPath id="a"><path d="M0 0h36v36H0V0z"/></clipPath></defs><g clip-path="url(#a)" transform="matrix(1.25 0 0 -1.25 0 45)"><path d="M21.538 35.192c-.333 0-.657-.034-.974-.09-1.172.57-2.175.898-3.564.898-4.907 0-9-4.093-9-9v-7c.148-5.224 4.241-9.569 9.5-9.569 5.26 0 9.352 4.345 9.5 9.57v10c0 3.121-2.339 5.191-5.462 5.191" fill="#ffac33"/><path d="M10 32V22c.253-3.89 3.521-6.969 7.5-6.969S24.747 18.11 25 22v10H10z" fill="#ffdc5d"/><path d="M21.635 32.327c.25.412.365.673.365.673l-12-1-.577-5.693c5.692 0 9.024 2.305 10.815 4.21C20.653 29.043 21.8 27 25 27v6l-3.365-.673z" fill="#ffac33"/><path d="M18 20.5h-1a.5.5 0 0 0 0 1h1a.5.5 0 0 0 0-1" fill="#bf6952"/><path d="M14 23a1 1 0 0 0-1 1v1a1 1 0 1 0 2 0v-1a1 1 0 0 0-1-1M21 23a1 1 0 0 0-1 1v1a1 1 0 1 0 2 0v-1a1 1 0 0 0-1-1" fill="#662113"/><path d="M25 14H9c-1.779 0-1.945-1.193-1.945-2.973V0H28v11.027C28 13 27 14 25 14" fill="#9268ca"/><path d="M24.028 0H23v10h1.028V0zM12.028 0H11v10h1.028V0z" fill="#7450a8"/><path d="M15 17v-3a2.5 2.5 0 1 1 5 0v3h-5z" fill="#ffdc5d"/><path d="M14.27 18.231h6.46s-.807-1.616-3.23-1.616c-2.422 0-3.23 1.616-3.23 1.616" fill="#da2f47"/><path d="M11.861 0h-1.028v10h1.028V0z" fill="#1b6399"/><path d="M26.875 17a6.16 6.16 0 0 1-.875-.07 6.16 6.16 0 0 1-.875.07 6.125 6.125 0 1 1 0-12.25c.298 0 .588.029.875.07a6.16 6.16 0 0 1 .875-.07 6.125 6.125 0 1 1 0 12.25" fill="#f4900c"/><path d="M28 2v3h-4V2h-1V0h6v2h-1z" fill="#ffdc5d"/><path d="M31 3h-3l-2-2-2 2h-2c-3 0-5-2-5-4h18c0 1.973-2 4-4 4" fill="#88c9f9"/><path d="M32 13.286l-4.286.857L20 13.286V9h.002L20 8.96C20 5.669 22.685 3 25.998 3c3.312 0 5.997 2.669 5.997 5.96l-.002.04H32v4.286z" fill="#ffdc5d"/><path d="M33 10.875l-.875 2.625-3.262 1.419-8.988-1.419-.753-2.625c4.734 0 7.372 1.536 8.807 2.946 1.081-1.276 2.908-2.946 5.071-2.946" fill="#f4900c"/><path d="M28 6h-4s.389-1.333 2-1.333S28 6 28 6M26 6.5a.47.47 0 0 0-.35.15.47.47 0 0 0-.15.35c0 .13.05.26.15.36.17.17.52.18.71-.009A.504.504 0 0 0 26.5 7a.47.47 0 0 0-.15-.35.47.47 0 0 0-.35-.15" fill="#bf6952"/><path d="M28 8a.832.832 0 0 0-.833.833v.834a.832.832 0 1 0 1.666 0v-.834A.832.832 0 0 0 28 8M24 8a.832.832 0 0 0-.833.833v.834a.832.832 0 1 0 1.666 0v-.834A.832.832 0 0 0 24 8" fill="#662113"/><path d="M16 11s-.125-3.313 1-7c0 0-3.344-2-8-2 0 1.563 7 9 7 9M2 10.875S2.125 7.687 1 4c0 0 3.344-2 8-2 0 1.563-7 8.875-7 8.875" fill="#f4900c"/><path d="M9.875 17A6.16 6.16 0 0 1 9 16.93a6.16 6.16 0 0 1-.875.07 6.125 6.125 0 1 1 0-12.25c.298 0 .588.029.875.07a6.16 6.16 0 0 1 .875-.07 6.125 6.125 0 1 1 0 12.25" fill="#f4900c"/><path d="M11 2v3H7V2H6V0h6v2h-1z" fill="#ffdc5d"/><path d="M14 3h-3L9 1 7 3H5C2 3 0 1 0-1h18c0 1.973-2 4-4 4" fill="#ea596e"/><path d="M15 13.286l-4.286.857L3 13.286V9h.002L3 8.96C3 5.669 5.685 3 8.998 3c3.312 0 5.997 2.669 5.997 5.96l-.002.04H15v4.286z" fill="#ffdc5d"/><path d="M16 10.875l-.875 2.625-3.262 1.419L2.875 13.5l-.753-2.625c4.734 0 7.372 1.536 8.807 2.946 1.081-1.276 2.908-2.946 5.071-2.946" fill="#f4900c"/><path d="M11 6H7s.389-1.333 2-1.333S11 6 11 6M9 6.5a.47.47 0 0 0-.35.15.47.47 0 0 0-.15.35c0 .13.05.26.15.36.17.17.52.18.71-.009A.504.504 0 0 0 9.5 7a.47.47 0 0 0-.15-.35A.47.47 0 0 0 9 6.5" fill="#bf6952"/><path d="M11 8a.832.832 0 0 0-.833.833v.834a.832.832 0 1 0 1.666 0v-.834A.832.832 0 0 0 11 8M7 8a.832.832 0 0 0-.833.833v.834a.832.832 0 1 0 1.666 0v-.834A.832.832 0 0 0 7 8" fill="#662113"/></g></svg>