<svg xmlns="http://www.w3.org/2000/svg" viewBox="0 0 45 45"><defs><clipPath id="a"><path d="M0 36h36V0H0v36z"/></clipPath></defs><g clip-path="url(#a)" transform="matrix(1.25 0 0 -1.25 0 45)"><path d="M31 0v4.5c0 3.314-3.561 5.5-6.875 5.5h-12C8.812 10 5 7.814 5 4.5V0h26z" fill="#3b88c3"/><path d="M17.945 32.022c4.105 0 10.947-2.053 10.947-10.947 0-8.896 0-10.948-2.052-10.948-2.053 0-4.79 2.052-8.895 2.052-4.105 0-6.785-2.052-8.895-2.052-2.288 0-2.054 8.21-2.054 10.948 0 8.894 6.844 10.947 10.95 10.947" fill="#ffe51e"/><path d="M10.5 3.5h-2c0 4.094 1.877 8.5 6 8.5v-2c-3.164 0-4-4.252-4-6.5M26.5 7.5h-2c0 .411-.521 2.5-3 2.5v2c3.533 0 5-2.931 5-4.5" fill="#292f33"/><path d="M12.5 3.5a3 3 0 1 0-6 0 3 3 0 0 0 6 0" fill="#ccd6dd"/><path d="M11.5 3.5a2 2 0 1 0-4 0 2 2 0 0 0 4 0" fill="#f5f8fa"/><path d="M29.5 2h-2c0 .835-.108 5-2.25 5S23 2.835 23 2h-2c0 4.383 1.589 7 4.25 7s4.25-2.617 4.25-7" fill="#292f33"/><path d="M23 2a1 1 0 1 0-2 0 1 1 0 1 0 2 0M29.5 2a1 1 0 1 0-2 0 1 1 0 1 0 2 0" fill="#ccd6dd"/><path d="M14.5 13.59V10L18 5l3.5 5v3.59h-7z" fill="#f3d2a2"/><path d="M14.5 12c1.023-1.155 2.112-1.5 3.49-1.5 1.379 0 2.488.345 3.51 1.5v2.936h-7V12z" fill="#e2c196"/><path d="M9.734 21.373c0 5.834 3.676 10.564 8.21 10.564 4.535 0 8.21-4.73 8.21-10.564 0-5.833-3.675-10.285-8.21-10.285-4.534 0-8.21 4.452-8.21 10.285" fill="#f3d2a2"/><path d="M17.945 13.548c-1.606 0-2.447.794-2.537.885a.682.682 0 0 0 0 .967.686.686 0 0 0 .961.006c.035-.032.551-.491 1.576-.491 1.038 0 1.555.473 1.576.492a.69.69 0 0 0 .963-.02.678.678 0 0 0-.004-.954c-.09-.091-.93-.885-2.535-.885" fill="#df1f32"/><path d="M7.725 18.09c-.02 1-.044.225-.044.466 0 3.422 2.053-.494 2.053 1.943 0 2.439 1.368 2.683 2.737 4.05.684.686 2.052 2.027 2.052 2.027s3.421-2.067 6.158-2.067c2.737 0 5.474-1.375 5.474-4.112s2.053 1.584 2.053-1.837c0-.244-.023.53-.04-.47h.72c.004 2 .004 1.925.004 3.203 0 8.895-6.84 12.207-10.948 12.207-4.104 0-10.947-3.257-10.947-12.152 0-.793-.02-1.257.008-3.257h.72z" fill="#ffe51e"/><path d="M14.608 19.204a.85.85 0 0 0-.846.847v.844c0 .465.381.846.846.846a.85.85 0 0 0 .847-.846v-.844a.85.85 0 0 0-.847-.847M21.373 19.204a.85.85 0 0 0-.846.847v.844c0 .465.381.846.846.846a.849.849 0 0 0 .846-.846v-.844a.85.85 0 0 0-.846-.847" fill="#662113"/><path d="M18.836 16.59h-1.69a.423.423 0 0 0-.423.424v.153c0 .234.189.424.423.424h1.69c.233 0 .424-.19.424-.424v-.153a.424.424 0 0 0-.424-.423" fill="#c1694f"/><path d="M11.444 21.155c0-1.448-.734-2.622-1.639-2.622s-1.639 1.174-1.639 2.622.734 2.623 1.64 2.623c.904 0 1.638-1.175 1.638-2.623M27.833 21.155c0-1.448-.733-2.622-1.639-2.622-.905 0-1.638 1.174-1.638 2.622s.733 2.623 1.638 2.623c.906 0 1.639-1.175 1.639-2.623" fill="#f3d2a2"/></g></svg>