<svg xmlns="http://www.w3.org/2000/svg" viewBox="0 0 45 45"><defs><clipPath id="a"><path d="M0 0h36v36H0V0z"/></clipPath></defs><g clip-path="url(#a)" transform="matrix(1.25 0 0 -1.25 0 45)"><path d="M21.944 30.931c4.105 0 10.948-2.053 10.948-10.948s0-10.948-2.053-10.948-4.79 2.053-8.895 2.053c-4.105 0-6.784-2.053-8.895-2.053-2.287 0-2.053 8.211-2.053 10.948 0 8.895 6.843 10.948 10.948 10.948" fill="#292f33"/><path d="M28 9h-2.34v3.185h-7.332V9H16c-3.313 0-7-2.186-7-5.5V0h26v3.5C35 6.814 31.315 9 28 9" fill="#9266cc"/><path d="M18.321 10.821c1.023-1.155 2.291-1.468 3.67-1.468 1.378 0 2.646.313 3.67 1.468v2.936h-7.34v-2.936z" fill="#eec2ad"/><path d="M13.734 20.283c0 5.834 3.676 10.563 8.21 10.563 4.535 0 8.21-4.73 8.21-10.563S26.48 9.997 21.945 9.997c-4.534 0-8.21 4.453-8.21 10.286" fill="#f7dece"/><path d="M21.944 12.457c-1.605 0-2.446.794-2.536.885a.685.685 0 0 0 .96.973c.035-.032.553-.491 1.576-.491 1.04 0 1.557.473 1.577.492a.69.69 0 0 0 .963-.019.678.678 0 0 0-.004-.955c-.09-.091-.93-.885-2.536-.885" fill="#df1f32"/><path d="M11.725 17c-.02 1-.044.224-.044.465 0 3.422 2.053-.494 2.053 1.943 0 2.439 1.368 2.683 2.736 4.051.685.685 2.053 2.026 2.053 2.026s3.421-2.067 6.158-2.067c2.737 0 5.474-1.375 5.474-4.112s2.053 1.584 2.053-1.837c0-.244-.023.531-.04-.469h.718c.007 2 .007 1.924.007 3.202 0 8.895-6.843 12.207-10.949 12.207-4.105 0-10.947-3.257-10.947-12.152 0-.793-.02-1.257.008-3.257h.72z" fill="#292f33"/><path d="M18.608 18.114a.849.849 0 0 0-.846.846v.845c0 .465.381.846.846.846a.85.85 0 0 0 .847-.846v-.845a.85.85 0 0 0-.847-.846M25.373 18.114a.849.849 0 0 0-.846.846v.845c0 .465.381.846.846.846a.849.849 0 0 0 .846-.846v-.845a.849.849 0 0 0-.846-.846" fill="#662113"/><path d="M22.837 15.5h-1.691a.423.423 0 0 0-.423.423v.153c0 .234.189.424.423.424h1.69c.233 0 .424-.19.424-.424v-.153a.424.424 0 0 0-.423-.423" fill="#c1694f"/><path d="M24.755 35.117s-2.214-1-2.751-2.75c-.537-1.75.188-.587.917 0 .729.585 2.03 1.61 2.75 1.833.72.224-.217.917-.916.917" fill="#66757f"/><path d="M23.838 33.742c5.13 0 8.814-1.951 9.177-4.127.399-2.4-.847-2.751-.847-2.751s.574-1.28-.848-.917c-1.42.363-4.65.466-10.16.917-5.51.452-8.467 0-8.467 0s-.806.062-.847.917c-.04.856-.671-.087-.846.917-.176 1.005 5.598 5.044 12.838 5.044" fill="#66757f"/><path d="M27.47 0c-.28 3.867-4.091 7.954-9.64 9.879-6.702 2.326-13.383.614-14.923-3.823C2.236 4.12 2.655 1.985 3.896 0H27.47z" fill="#d99e82"/><path d="M19.782 4.618c-.3-.862.363-1.876 1.48-2.264 1.118-.386 2.266-.002 2.565.862.3.861-.363 1.876-1.48 2.262-1.118.388-2.266.003-2.565-.86" fill="#5c913b"/><path d="M5.4 2.999c-.298-.863.365-1.876 1.482-2.264 1.117-.387 2.265-.003 2.564.861.3.862-.363 1.876-1.48 2.263-1.117.388-2.266.003-2.565-.86" fill="#269"/><path d="M7.249 7.98c-.299-.863.364-1.877 1.481-2.265 1.116-.385 2.265-.001 2.564.863.3.86-.364 1.876-1.48 2.262-1.117.388-2.266.003-2.565-.86" fill="#dd2e44"/><path d="M14.276 7.995c-.272-.872.423-1.864 1.552-2.216 1.128-.352 2.264.07 2.536.941.271.872-.424 1.864-1.552 2.215-1.128.353-2.264-.069-2.536-.94" fill="#ffcc4d"/><path d="M1 6c.078 1.208 1.394 3.184 3 3 1.665-.19.129-3.129 0-4s.144-2.938-1-3C1.454 1.916.86 3.814 1 6" fill="#f7dece"/></g></svg>