<svg xmlns="http://www.w3.org/2000/svg" viewBox="0 0 45 45"><defs><clipPath id="a"><path d="M0 0h36v36H0V0z"/></clipPath></defs><g clip-path="url(#a)" transform="matrix(1.25 0 0 -1.25 0 45)"><path d="M32 0v2a6 6 0 0 1-6 6H10a6 6 0 0 1-6-6V0h28z" fill="#ce9e5d"/><path d="M32 22.344c0-3.59-6.268-6.5-14-6.5s-14 2.91-14 6.5 6.268 2.5 14 2.5 14 1.09 14-2.5" fill="#a0041e"/><path d="M14 9h8s-1.018-7-4-7-4 7-4 7" fill="#292f33"/><path d="M13.64 7.9C15.384 6.63 16.488 5.935 18 5.935c1.512 0 2.616.696 4.36 1.963v3.811h-8.72V7.9z" fill="#f3d2a2"/><path d="M13.632 10.027c1.216-1.374 2.724-1.746 4.364-1.746 1.639 0 3.147.373 4.364 1.746v3.491h-8.728v-3.49z" fill="#e2c196"/><path d="M11.444 20.064c0-1.448-.734-2.622-1.639-2.622s-1.639 1.174-1.639 2.622.734 2.623 1.64 2.623c.904 0 1.638-1.175 1.638-2.623M27.833 20.064c0-1.448-.733-2.622-1.639-2.622-.905 0-1.638 1.174-1.638 2.622s.733 2.623 1.638 2.623c.906 0 1.639-1.175 1.639-2.623" fill="#f3d2a2"/><path d="M9.477 19.04c0 5.59 3.816 10.122 8.522 10.122 4.708 0 8.523-4.532 8.523-10.121 0-5.59-3.815-10.121-8.523-10.121-4.706 0-8.522 4.532-8.522 10.12" fill="#f3d2a2"/><path d="M18 12.198c-2.754 0-3.6.705-3.741.848a.655.655 0 0 0 .902.95c.052-.037.721-.487 2.839-.487 2.2 0 2.836.485 2.842.49a.638.638 0 0 0 .913-.015.669.669 0 0 0-.014-.938c-.141-.143-.987-.848-3.741-.848" fill="#c1694f"/><path d="M18 32.52c5.648 0 9.178-4.168 9.178-7.64 0-3.473-.706-4.863-1.412-3.473l-1.412 2.778s-4.236 0-5.648 1.39c0 0 2.118-4.168-2.118 0 0 0 .706-2.78-3.53.694 0 0-2.118-1.39-2.824-4.862-.196-.964-1.412 0-1.412 3.473s2.824 7.64 9.178 7.64" fill="#ffe51e"/><path d="M14 19c-.55 0-1 .45-1 1v1c0 .55.45 1 1 1s1-.45 1-1v-1c0-.55-.45-1-1-1M22 19c-.55 0-1 .45-1 1v1c0 .55.45 1 1 1s1-.45 1-1v-1c0-.55-.45-1-1-1" fill="#662113"/><path d="M18.75 16.25h-1.5a.752.752 0 0 0-.75.75c0 .413.337.75.75.75h1.5c.413 0 .75-.337.75-.75a.752.752 0 0 0-.75-.75" fill="#c1694f"/><path d="M4.09 3A5.998 5.998 0 0 1 4 2V0h28v2c0 .341-.035.674-.09 1H4.09z" fill="#fff35f"/><path d="M32 1H4v1h28V1z" fill="#ccd6dd"/><path d="M27 0v9c0 .55-.45 1-1 1h-1c-.55 0-1-.45-1-1V0h3zM12 0v9c0 .55-.45 1-1 1h-1c-.55 0-1-.45-1-1V0h3z" fill="#292f33"/><path d="M28.852 25.143c-.859.173-1.093 4.028-3.084 6.86C23.895 34.664 20.303 36 17.996 36c-2.307 0-5.897-1.335-7.77-3.998C8.232 29.172 8 25.316 7.14 25.143c-3.316-.665-3.16-2.386-3.14-2.782.124.466.438 1.578 3.902 1.64 3.404.06 6.58-.806 10.094-.806 3.515 0 6.69.866 10.094.805 3.464-.06 3.78-1.173 3.903-1.639.02.397.176 2.117-3.14 2.782" fill="#df1f32"/><path d="M18 36c2.094 0 5-3.593 5-5.054V27s-.109-1-.92-1H18v10zM18 36c-2.094 0-5-3.593-5-5.054V27s.109-1 .92-1H18v10z" fill="#ea596e"/><path d="M19 2h-2v2h2V2z" fill="#292f33"/><path d="M18.021 2l-.02-2h-6v7s-.017 1.463 0 2c.014.537-.407 1.622 0 2 .405.378 2.453-.364 3-1 .543-.636.626-1.737 1-3 .371-1.263 2.02-5 2.02-5" fill="#ce9e5d"/><path d="M17.823 2l.02-2H24v7s.015 1.463 0 2c-.014.537.289 1.622-.117 2-.406.378-2.474-.364-3.018-1-.547-.636-.64-1.737-1.011-3-.372-1.263-2.031-5-2.031-5" fill="#ce9e5d"/></g></svg>