<svg xmlns="http://www.w3.org/2000/svg" viewBox="0 0 45 45"><defs><clipPath id="a"><path d="M0 36h36V0H0v36z"/></clipPath><clipPath id="b"><path d="M21.997 36C17 36 14.874 34.663 13 32c-1.992-2.831 0-5-3-7-1.86-1.24 6-2.313 12-2.313S35.861 23.76 34 25c-3 2-1.008 4.169-3 7-1.874 2.663-5 4-9.003 4z"/></clipPath><clipPath id="c"><path d="M0 36h36V0H0v36z"/></clipPath></defs><g clip-path="url(#a)" transform="matrix(1.25 0 0 -1.25 0 45)"><path d="M36 0v2a6 6 0 0 1-6 6H14a6 6 0 0 1-6-6V0h28z" fill="#3b88c3"/><path d="M27 5H17v4h10V5z" fill="#292f33"/><path d="M18 9h8s-1.018-7-4-7-4 7-4 7" fill="#292f33"/><path d="M17.64 5.962c1.744-1.268 2.848-1.963 4.36-1.963 1.512 0 2.616.696 4.36 1.963v5.749h-8.72V5.96z" fill="#af7e57"/><path d="M17.632 10.027c1.216-1.374 2.724-1.746 4.364-1.746 1.639 0 3.147.373 4.364 1.746v3.491h-8.728v-3.49z" fill="#9b6a49"/><path d="M15.444 20.064c0-1.448-.734-2.622-1.639-2.622s-1.639 1.174-1.639 2.622.734 2.623 1.64 2.623c.904 0 1.638-1.175 1.638-2.623M31.833 20.064c0-1.448-.733-2.622-1.639-2.622-.905 0-1.638 1.174-1.638 2.622s.733 2.623 1.638 2.623c.906 0 1.639-1.175 1.639-2.623" fill="#af7e57"/><path d="M13.477 19.04c0 5.59 3.816 10.122 8.523 10.122s8.522-4.532 8.522-10.121c0-5.59-3.814-10.121-8.521-10.121-4.708 0-8.524 4.532-8.524 10.12" fill="#af7e57"/><path d="M22 12.198c-2.754 0-3.6.705-3.741.848a.655.655 0 0 0 .902.95c.052-.037.721-.487 2.839-.487 2.2 0 2.836.485 2.842.49a.638.638 0 0 0 .913-.015.669.669 0 0 0-.014-.938c-.141-.143-.987-.848-3.741-.848" fill="#915a34"/><path d="M22 32.52c5.648 0 9.178-4.168 9.178-7.64 0-3.473-.706-4.863-1.412-3.473l-1.412 2.778s-4.236 0-5.648 1.39c0 0 2.118-4.168-2.118 0 0 0 .706-2.78-3.53.694 0 0-2.118-1.39-2.824-4.862-.196-.964-1.412 0-1.412 3.473s2.824 7.64 9.178 7.64" fill="#60352a"/><path d="M18 19c-.55 0-1 .45-1 1v1c0 .55.45 1 1 1s1-.45 1-1v-1c0-.55-.45-1-1-1M26 19c-.55 0-1 .45-1 1v1c0 .55.45 1 1 1s1-.45 1-1v-1c0-.55-.45-1-1-1" fill="#662113"/><path d="M22.75 16.25h-1.5a.752.752 0 0 0-.75.75c0 .413.337.75.75.75h1.5c.413 0 .75-.337.75-.75a.752.752 0 0 0-.75-.75" fill="#915a34"/><path d="M23 1.063L22 0l-1 1v3h2V1.062z" fill="#292f33"/><path d="M15 8c0-1 1-3 3-5 1.581-1.581 4-3 4-3 0 3.063-1 4-2 5s-3 2-3 4c0 1-2-1-2-1M29 8c0-1-1-3-3-5-1.581-1.581-4-3-4-3 0 3.063 1 4 2 5s3 2 3 4c0 1 2-1 2-1" fill="#55acee"/><path d="M21 20a3.75 3.75 0 1 0-7.499.001A3.75 3.75 0 0 0 21 20M30.5 20a3.75 3.75 0 1 0-7.499.001A3.75 3.75 0 0 0 30.5 20" fill="#9b6a49"/><path d="M24.5 18.5h-5V21h5v-2.5z" fill="#9b6a49"/><path d="M21 20.5a3.5 3.5 0 1 0-7 0 3.5 3.5 0 0 0 7 0M30 20.5a3.5 3.5 0 1 0-7 0 3.5 3.5 0 0 0 7 0" fill="#e1e8ed"/><path d="M24.5 19.5h-5V22h5v-2.5z" fill="#e1e8ed"/><path d="M20 20.5a2.5 2.5 0 1 0-5 0 2.5 2.5 0 0 0 5 0M29 20.5a2.5 2.5 0 1 0-5 0 2.5 2.5 0 0 0 5 0" fill="#292f33"/><path d="M34 25c-3 2-1.008 4.169-3 7-1.874 2.663-5 4-9.003 4C17 36 14.874 34.663 13 32c-1.992-2.831 0-5-3-7-1.861-1.24 6-2.313 12-2.313S35.861 23.76 34 25" fill="#3b88c3"/></g><g clip-path="url(#b)" transform="matrix(1.25 0 0 -1.25 0 45)"><path d="M20 24.5h-.5c-3.604 0-10.687 1.035-12.724 2.053l.448.894c1.793-.897 8.185-1.854 11.776-1.941V36h1V24.5zM24.5 24.5H24V36h1V25.505c4.011.078 9.996 1.052 11.776 1.942l.448-.894C35.051 25.466 28.299 24.5 24.5 24.5" fill="#269"/></g><g clip-path="url(#c)" transform="matrix(1.25 0 0 -1.25 0 45)"><path d="M5 12l-1.5-1S5 8.5 5 5V0h2v5c0 4.5-2 7-2 7" fill="#66757f"/><path d="M6.08 12.193a.784.784 0 0 0-.308-1.064l-2.13-1.178a.784.784 0 0 0-1.065.308l-.45.817a.783.783 0 0 0 .306 1.064l2.13 1.178a.782.782 0 0 0 1.064-.309l.452-.816z" fill="#99aab5"/><path d="M3.49 13.416C7.677 15.625.052 19.687.052 19.687s-.75-8.48 3.438-6.271" fill="#f4900c"/><path d="M2.96 14.635c2.202 1.162-1.808 3.299-1.808 3.299s-.394-4.46 1.808-3.3" fill="#ffdc5d"/></g></svg>