<svg xmlns="http://www.w3.org/2000/svg" viewBox="0 0 45 45"><defs><clipPath id="a"><path d="M0 36h36V0H0v36z"/></clipPath></defs><g clip-path="url(#a)" transform="matrix(1.25 0 0 -1.25 0 45)"><path d="M32 0v2a6 6 0 0 1-6 6H10a6 6 0 0 1-6-6V0h28z" fill="#ce9e5d"/><path d="M32 22.344c0-3.59-6.268-6.5-14-6.5s-14 2.91-14 6.5 6.268 2.5 14 2.5 14 1.09 14-2.5" fill="#a0041e"/><path d="M14 9h8s-1.018-7-4-7-4 7-4 7" fill="#292f33"/><path d="M13.64 7.899c1.744-1.267 2.848-1.962 4.36-1.962 1.512 0 2.616.696 4.36 1.962v3.811h-8.72V7.899z" fill="#ffdc5d"/><path d="M13.632 10.027c1.216-1.374 2.724-1.746 4.364-1.746 1.639 0 3.147.373 4.364 1.746v3.491h-8.728v-3.49z" fill="#f9ca55"/><path d="M11.444 20.065c0-1.448-.734-2.622-1.639-2.622s-1.639 1.174-1.639 2.622.734 2.623 1.64 2.623c.904 0 1.638-1.175 1.638-2.623M27.833 20.065c0-1.448-.734-2.622-1.639-2.622s-1.639 1.174-1.639 2.622.734 2.623 1.64 2.623c.904 0 1.638-1.175 1.638-2.623" fill="#ffdc5d"/><path d="M9.478 19.04c0 5.59 3.816 10.121 8.522 10.121 4.707 0 8.523-4.532 8.523-10.12 0-5.59-3.816-10.12-8.523-10.12-4.706 0-8.522 4.53-8.522 10.12" fill="#ffdc5d"/><path d="M18 12.198c-2.754 0-3.6.706-3.741.848a.655.655 0 0 0 .902.95c.052-.037.721-.487 2.839-.487 2.2 0 2.836.485 2.842.49a.639.639 0 0 0 .913-.014.67.67 0 0 0-.014-.94c-.141-.141-.987-.847-3.741-.847" fill="#c1694f"/><path d="M18 32.52c5.648 0 9.178-4.168 9.178-7.64 0-3.473-.706-4.863-1.412-3.473l-1.412 2.778s-4.236 0-5.648 1.39c0 0 2.118-4.168-2.118 0 0 0 .706-2.78-3.53.694 0 0-2.118-1.39-2.824-4.862-.196-.964-1.412 0-1.412 3.473s2.824 7.64 9.178 7.64" fill="#ffac33"/><path d="M14 19c-.55 0-1 .45-1 1v1c0 .55.45 1 1 1s1-.45 1-1v-1c0-.55-.45-1-1-1M22 19c-.55 0-1 .45-1 1v1c0 .55.45 1 1 1s1-.45 1-1v-1c0-.55-.45-1-1-1" fill="#662113"/><path d="M18.75 16.25h-1.5a.752.752 0 0 0-.75.75c0 .413.337.75.75.75h1.5c.413 0 .75-.337.75-.75a.752.752 0 0 0-.75-.75" fill="#c1694f"/><path d="M4.09 3A5.998 5.998 0 0 1 4 2V0h28v2c0 .341-.035.674-.09 1H4.09z" fill="#fff35f"/><path d="M32 1H4v1h28V1z" fill="#ccd6dd"/><path d="M27 0v9c0 .55-.45 1-1 1h-1c-.55 0-1-.45-1-1V0h3zM12 0v9c0 .55-.45 1-1 1h-1c-.55 0-1-.45-1-1V0h3z" fill="#292f33"/><path d="M28.853 25.143c-.86.173-1.093 4.028-3.084 6.859C23.895 34.665 20.304 36 17.997 36c-2.307 0-5.897-1.335-7.771-3.998-1.992-2.831-2.224-6.686-3.085-6.86-3.316-.664-3.161-2.385-3.14-2.781.124.466.438 1.578 3.902 1.639 3.404.06 6.58-.805 10.094-.805 3.515 0 6.69.866 10.094.805 3.464-.061 3.779-1.173 3.902-1.64.02.398.177 2.118-3.14 2.783" fill="#df1f32"/><path d="M18 36c2.094 0 5-3.593 5-5.054V27s-.109-1-.92-1H18v10zM18 36c-2.094 0-5-3.593-5-5.054V27s.109-1 .92-1H18v10z" fill="#ea596e"/><path d="M19 2h-2v2h2V2z" fill="#292f33"/><path d="M18.021 2l-.02-2h-6v7s-.016 1.463 0 2c.014.537-.407 1.622 0 2 .405.378 2.453-.364 3-1 .544-.636.627-1.737 1-3 .371-1.263 2.02-5 2.02-5" fill="#ce9e5d"/><path d="M17.823 2l.02-2H24v7s.015 1.463 0 2c-.014.537.289 1.622-.117 2-.406.378-2.474-.364-3.02-1-.545-.636-.637-1.737-1.01-3-.371-1.263-2.03-5-2.03-5" fill="#ce9e5d"/></g></svg>