<svg xmlns="http://www.w3.org/2000/svg" viewBox="0 0 36 36"><path fill="#FFAC33" d="M11 0a5.964 5.964 0 0 0-3.402 1.061C7.401 1.031 7.205 1 7 1a4 4 0 0 0-4 4v6a7 7 0 1 0 14 0V6.001A6 6 0 0 0 11 0z"/><path fill="#FFDC5D" d="M6 27h3v8H6zm5 0h3v8h-3z"/><path fill="#F9CA55" d="M6 27h3v1H6zm5 0h3v1h-3z"/><path fill="#292F33" d="M5 36v-1s0-1 2-1 2 1 2 1v1H5zm6 0v-1s0-1 2-1 2 1 2 1v1h-4z"/><path fill="#FFDC5D" d="M.999 26a1 1 0 0 1-.873-1.485l5-9a.999.999 0 1 1 1.748.972l-5 9A1 1 0 0 1 .999 26zm18.002 0a.998.998 0 0 1-.875-.515l-5-9a1 1 0 1 1 1.748-.972l5 9a.997.997 0 0 1-.389 1.359.967.967 0 0 1-.484.128z"/><path fill="#E75A70" d="M4 27h12l-2-6v-4h2v-1a2 2 0 0 0-2-2H6a2 2 0 0 0-2 2v1h2v4l-2 6z"/><path fill="#DA2F47" d="M6 19h8v2H6z"/><path fill="#FFDC5D" d="M8 11v4a2 2 0 0 0 4 0v-4H8z"/><path fill="#F9CA55" d="M12 11l-4 .019V15s2 1 4 0v-4z"/><path fill="#FFDC5D" d="M15 3H5v6c0 2.762 2.238 5 5 5s5-2.237 5-5V3z"/><path fill="#FFAC33" d="M8 3s0 4 8 4V3H8zm0 0s0 4-4 4V3h4z"/><path fill="#DF1F32" d="M12 12H8s0 1 2 1 2-1 2-1z"/><circle fill="#662113" cx="7.5" cy="8.5" r=".5"/><circle fill="#662113" cx="12.5" cy="8.5" r=".5"/><path fill="#C1694F" d="M9 10h2s0 1-1 1-1-1-1-1z"/><path fill="#FFAC33" d="M33 6.001A6.001 6.001 0 0 0 27 0a5.964 5.964 0 0 0-3.402 1.061C23.401 1.031 23.205 1 23 1a4 4 0 0 0-4 4v6h4.685c.949.631 2.088 1 3.315 1a5.973 5.973 0 0 0 3.315-1H33V6.001z"/><path fill="#FFDC5D" d="M22 27h3v8h-3zm5 0h3v8h-3z"/><path fill="#F9CA55" d="M22 27h3v1h-3zm5 0h3v1h-3z"/><path fill="#292F33" d="M21 36v-1s0-1 2-1 2 1 2 1v1h-4zm6 0v-1s0-1 2-1 2 1 2 1v1h-4z"/><path fill="#FFDC5D" d="M16.999 26a.998.998 0 0 1-.873-1.485l5-9a1 1 0 0 1 1.748.972l-5 9a1 1 0 0 1-.875.513zm18.002 0a.998.998 0 0 1-.875-.515l-5-9a.999.999 0 0 1 .389-1.36.999.999 0 0 1 1.359.388l5 9a.997.997 0 0 1-.389 1.359.967.967 0 0 1-.484.128z"/><path fill="#9268CA" d="M32 17v-1a2 2 0 0 0-2-2h-8a2 2 0 0 0-2 2v1h2v4l-2 6h12l-2-6v-4h2z"/><path fill="#AA8ED6" d="M22 19h8v2h-8z"/><path fill="#FFDC5D" d="M24 11v4a2 2 0 0 0 4 0v-4h-4z"/><path fill="#F9CA55" d="M28 11l-4 .019V15s2 1 4 0v-4z"/><path fill="#FFDC5D" d="M31 3H21v6c0 2.762 2.238 5 5 5s5-2.237 5-5V3z"/><path fill="#FFAC33" d="M24 3s0 4 8 4V3h-8zm0 0s0 4-4 4V3h4z"/><path fill="#DF1F32" d="M28 12h-4s0 1 2 1 2-1 2-1z"/><circle fill="#662113" cx="23.5" cy="8.5" r=".5"/><circle fill="#662113" cx="28.5" cy="8.5" r=".5"/><path fill="#C1694F" d="M25 10h2s0 1-1 1-1-1-1-1z"/></svg>