<svg xmlns="http://www.w3.org/2000/svg" viewBox="0 0 45 45"><defs><clipPath id="a"><path d="M0 0h36v36H0V0z"/></clipPath></defs><g clip-path="url(#a)" transform="matrix(1.25 0 0 -1.25 0 45)"><path d="M36 0v2a6 6 0 0 1-6 6H14a6 6 0 0 1-6-6V0h28z" fill="#292f33"/><path d="M17 8l5-2V0h-3l-2 8z" fill="#e1e8ed"/><path d="M26.929 8l-5-2V0h3l2 8z" fill="#e1e8ed"/><path d="M17.64 7.9C19.384 6.63 20.488 5.935 22 5.935c1.512 0 2.616.696 4.36 1.963v3.811h-8.72V7.9z" fill="#af7e57"/><path d="M17.632 10.027c1.216-1.374 2.724-1.746 4.364-1.746 1.639 0 3.147.373 4.364 1.746v3.491h-8.728v-3.49z" fill="#9b6a49"/><path d="M15.444 20.064c0-1.448-.734-2.622-1.639-2.622s-1.639 1.174-1.639 2.622.734 2.623 1.64 2.623c.904 0 1.638-1.175 1.638-2.623M31.833 20.064c0-1.448-.733-2.622-1.639-2.622-.905 0-1.638 1.174-1.638 2.622s.733 2.623 1.638 2.623c.906 0 1.639-1.175 1.639-2.623" fill="#af7e57"/><path d="M13.477 19.04c0 5.59 3.816 10.122 8.523 10.122s8.522-4.532 8.522-10.121c0-5.59-3.814-10.121-8.521-10.121-4.708 0-8.524 4.532-8.524 10.12" fill="#af7e57"/><path d="M26.525 14.654l-1.268.274c-.405.094-1.173.072-1.536.072H20.033c-.363 0-1.13.022-1.536-.072l-1.266-.274c-.349-.1-.55-.393-.45-.74.081-.288.345-.44.63-.44.06 0 .12.026.18.041l1.266.371a.637.637 0 0 1-.066-.675.655.655 0 0 1 .88-.289l1.034.517a.636.636 0 0 1 .638-.587c.242 0 .473.134.587.364l.07.137-.053-.137c.114-.23.223-.364.465-.364a.64.64 0 0 1 .638.587l1.034-.517a.654.654 0 0 1 .879.289.64.64 0 0 1-.065.675l1.266-.37c.06-.016.121-.043.18-.043.285 0 .547.153.63.441.1.347-.1.64-.449.74M22 32.52c5.648 0 9.178-4.168 9.178-7.64 0-3.473-.706-4.863-1.412-3.473l-1.412 2.778s-4.236 0-5.648 1.39c0 0 2.118-4.168-2.118 0 0 0 .706-2.78-3.53.694 0 0-2.118-1.39-2.824-4.862-.196-.964-1.412 0-1.412 3.473s2.824 7.64 9.178 7.64" fill="#6d6e71"/><path d="M18 19c-.55 0-1 .45-1 1v1c0 .55.45 1 1 1s1-.45 1-1v-1c0-.55-.45-1-1-1M26 19c-.55 0-1 .45-1 1v1c0 .55.45 1 1 1s1-.45 1-1v-1c0-.55-.45-1-1-1" fill="#60352a"/><path d="M22.75 16.25h-1.5a.752.752 0 0 0-.75.75c0 .413.337.75.75.75h1.5c.413 0 .75-.337.75-.75a.752.752 0 0 0-.75-.75" fill="#915a34"/><path d="M22.001 5.122s3.381-2.494 4.093-2.778C26.25 2.281 25.728 6 25.728 6h-7.455s-.523-3.78-.231-3.625c.639.343 3.959 2.747 3.959 2.747" fill="#99aab5"/><path d="M23.313 2.563s.375.624.53.905c.183.33.453 1.572.453 1.572L22.11 6c0 .008-.16-.004-.16-.004l-.184-.042-.172-.063c-.217-.07.094-.008.094-.015l-1.974-.836s.288-1.242.47-1.571c.156-.281.528-.906.528-.906S19.958 2 19.676 0h4.667c-.28 1.594-1.03 2.563-1.03 2.563" fill="#269"/><path d="M17.291 9.375c.566-.566 4.71-3.383 4.71-3.383s-2.127-1.242-4.085-3.534c-.197-.23-1.542 4.625-1.583 5.709-.011.303.688 1.479.959 1.208M26.73 9.375c-.566-.566-4.709-3.383-4.709-3.383s2.126-1.242 4.084-3.534c.196-.23 1.542 4.625 1.583 5.709.012.303-.687 1.479-.958 1.208" fill="#f5f8fa"/><path d="M16.38 8S17.922 2.537 22 .589V0h-7v8h1.38zM27.62 8S26.078 2.537 22 .589V0h7v8h-1.38z" fill="#292f33"/><path d="M12.083 2.66c.251 0 .401-2.66.401-2.66h-.956s.193 2.66.555 2.66M15.083 2.66c.251 0 .401-2.66.401-2.66h-.956s.193 2.66.555 2.66M31.929 2.66c-.251 0-.401-2.66-.401-2.66h.956s-.194 2.66-.555 2.66M28.929 2.66c-.251 0-.401-2.66-.401-2.66h.956s-.194 2.66-.555 2.66" fill="#66757f"/><path d="M7.382 0h1.71L5.425 9.707a.802.802 0 0 1-1.031.466.802.802 0 0 1-.465-1.031L7.382 0z" fill="#662113"/><path d="M7.854 12.335c.468-1.24.178-2.498-.65-2.812-.825-.311-1.875.441-2.344 1.681-.468 1.239-.178 2.498.649 2.811.827.312 1.877-.44 2.345-1.68" fill="#c1694f"/><path d="M5.863 9.303l-1.996-.754a2.139 2.139 0 0 0-2.749 1.24 2.137 2.137 0 0 0 1.242 2.75l1.995.755a2.14 2.14 0 0 0 2.75-1.241 2.14 2.14 0 0 0-1.242-2.75" fill="#662113"/><path d="M3.363 10.639c.468-1.24.178-2.498-.649-2.812-.826-.311-1.876.44-2.345 1.68-.468 1.24-.178 2.499.65 2.812.826.312 1.876-.44 2.344-1.68" fill="#c1694f"/><path d="M11.318 0l-.466 1.588A2.353 2.353 0 0 1 7.94 3.18l-1.255-.368A2.35 2.35 0 0 1 5.076 0h6.242z" fill="#af7e57"/></g></svg>