<svg xmlns="http://www.w3.org/2000/svg" viewBox="0 0 45 45"><defs><clipPath id="a"><path d="M0 36h36V0H0v36z"/></clipPath></defs><g clip-path="url(#a)" transform="matrix(1.25 0 0 -1.25 0 45)"><path d="M10.5 33a5.469 5.469 0 0 1-3.181-1.018 3.492 3.492 0 0 1-3.32-3.482c0-1.542.008-3.484 2.039-4.208A5.487 5.487 0 0 1 10.5 22a5.5 5.5 0 1 1 0 11" fill="#963b22"/><path d="M8 1H5l1 9.712h3L8 1zM13.875 2.208l-1.834 1.333s3.167 3.012 2.532 3.994c-.637.982-3.782 1.688-3.782 1.688l1.918 2.306s3.957-1.904 4.77-3.333c.826-1.451-3.604-5.988-3.604-5.988" fill="#d5ab88"/><path d="M4 0v1s0 1 2 1 2-1 2-1V0H4zM14.553.517l.421.908s.42.907-1.396 1.747c-1.813.84-2.233-.066-2.233-.066l-.42-.907L14.553.517z" fill="#292f33"/><path d="M5 9.712a.997.997 0 0 0-.707.293l-3 3a1 1 0 0 0-.074 1.332l4 3.288a1 1 0 1 0 1.562-1.25l-3.441-2.59 2.367-2.366A.999.999 0 0 0 5 9.712M15 9.712a.999.999 0 0 0-.707 1.707l2.367 2.367-3.441 2.589a1 1 0 0 0 1.562 1.25l4-3.288a1 1 0 0 0-.074-1.332l-3-3A.997.997 0 0 0 15 9.712" fill="#d5ab88"/><path d="M16 17a2 2 0 0 1-2 2H6a2 2 0 0 1-2-2v-1h2v-5.288l3-2h2l3 2V16h2v1z" fill="#292f33"/><path d="M24 1h-3l1 9.712h3L24 1zM29.875 2.208l-1.833 1.333s3.167 3.012 2.53 3.994c-.635.982-3.781 1.688-3.781 1.688l1.918 2.306s3.958-1.904 4.77-3.333c.826-1.451-3.604-5.988-3.604-5.988" fill="#d5ab88"/><path d="M30.553.517l.422.908s.418.907-1.397 1.747c-1.812.84-2.232-.066-2.232-.066l-.42-.907L30.553.517zM20 0v1s0 1 2 1 2-1 2-1V0h-4z" fill="#292f33"/><path d="M21 9.712a.997.997 0 0 0-.707.293l-3 3a1 1 0 0 0-.074 1.332l4 3.288a1 1 0 1 0 1.562-1.25l-3.441-2.59 2.367-2.366A.999.999 0 0 0 21 9.712M31 9.712a.999.999 0 0 0-.707 1.707l2.367 2.367-3.441 2.589a1 1 0 1 0 1.562 1.25l4-3.288a1 1 0 0 0-.074-1.332l-3-3A.997.997 0 0 0 31 9.712" fill="#d5ab88"/><path d="M28 19v3h-4v-3h-1v-1s0-3 3-3 3 3 3 3v1h-1z" fill="#d5ab88"/><path d="M30 19h-8a2 2 0 0 1-2-2v-1h2v-5.288l3-2h2l3 2V16h2v1a2 2 0 0 1-2 2M14.875 34.813c-1.763.146-2.846-1.202-3.142-2.52-.982.51-2.456.545-3.736-.163-.216 1.384-1.32 2.9-3.185 2.744-.937-2.437 1.032-4.249 3-4.249 1.876.874 3.25.312 4.063-.063 1.969 0 3.937 1.812 3 4.25" fill="#292f33"/><path d="M8 21v-3a2 2 0 1 1 4 0v3H8z" fill="#d5ab88"/><path d="M25 9l-.344-3.219-3.312.344.656 4.587L25 9zM9 9l-.344-3.219-3.312.344L6 10.712 9 9zM13.134 11.381l2.631-1.326-1.356-2.71L11 8.712l2.134 2.67zM29.134 11.381l2.631-1.326-1.356-2.71L27 8.712l2.134 2.67z" fill="#292f33"/><path d="M12 22l-4-.019V18s2-1 4 0v4z" fill="#cc9b7a"/><path d="M15 30H5v-6.001A4.998 4.998 0 0 1 10 19c2.762 0 5 2.237 5 4.999V30z" fill="#d5ab88"/><path d="M8 30H5v-4c2.333 0 2.85 2.412 2.965 3.488C8.004 28.412 8.779 26 15 26v4H8z" fill="#963b22"/><path d="M8 24.5a.5.5 0 1 0-1 0 .5.5 0 0 0 1 0M13 24.5a.5.5 0 1 0-1 0 .5.5 0 0 0 1 0" fill="#662113"/><path d="M9 23h2s-.001-1-1-1c-1 0-1 1-1 1M12 21H8s0-1 2-1 2 1 2 1" fill="#c1694f"/><path d="M24 21v-3a2 2 0 0 1 4 0v3h-4z" fill="#d5ab88"/><path d="M28 22l-4-.019V18s2-1 4 0v4z" fill="#cc9b7a"/><path d="M26.5 33a5.469 5.469 0 0 1-3.181-1.018 3.492 3.492 0 0 1-3.32-3.482c0-1.542.008-3.484 2.039-4.208A5.487 5.487 0 0 1 26.5 22a5.5 5.5 0 1 1 0 11" fill="#963b22"/><path d="M31 30H21v-6.001A4.998 4.998 0 0 1 26 19c2.762 0 5 2.237 5 4.999V30z" fill="#d5ab88"/><path d="M30.875 34.813c-1.763.146-2.846-1.202-3.142-2.52-.982.51-2.456.545-3.736-.163-.216 1.384-1.32 2.9-3.185 2.744-.937-2.437 1.032-4.249 3-4.249 1.876.874 3.25.312 4.063-.063 1.969 0 3.937 1.812 3 4.25" fill="#292f33"/><path d="M24 30h-3v-4c2.333 0 2.85 2.412 2.965 3.488C24.004 28.412 24.779 26 31 26v4h-7z" fill="#963b22"/><path d="M24 24.5a.5.5 0 1 0-1 0 .5.5 0 0 0 1 0M29 24.5a.5.5 0 1 0-1 0 .5.5 0 0 0 1 0" fill="#662113"/><path d="M25 23h2s0-1-1-1-1 1-1 1M28 21h-4s0-1 2-1 2 1 2 1" fill="#c1694f"/></g></svg>