<svg xmlns="http://www.w3.org/2000/svg" viewBox="0 0 45 45"><defs><clipPath id="a"><path d="M0 0h36v36H0V0z"/></clipPath></defs><path d="M11.25 27.5v-5h6.25v5H20V35H8.75v-7.5h2.5z" fill="#ffdc5d"/><g clip-path="url(#a)" transform="matrix(1.25 0 0 -1.25 0 45)"><path d="M12.139 35.86a8.809 8.809 0 0 1-3.74-.835c-.196.017.8.03.6.03a7.135 7.135 0 1 1-2.335-13.879c1.626-1.86 2.813-3.038 5.475-3.038a8.862 8.862 0 0 1 0 17.723" fill="#ffac33"/><path d="M4 32V22h.024c.253-3.89 3.498-6.969 7.476-6.969 3.977 0 7.247 3.079 7.5 6.969v9L4 32z" fill="#ffdc5d"/><path d="M14.667 18.277H8.223s.805-1.61 3.222-1.61 3.222 1.61 3.222 1.61" fill="#bf6952"/><path d="M8 23a1 1 0 0 0-1 1v1a1 1 0 0 0 2 0v-1a1 1 0 0 0-1-1M15 23a1 1 0 0 0-1 1v1a1 1 0 0 0 2 0v-1a1 1 0 0 0-1-1" fill="#662113"/><path d="M11.945 20.5h-1a.5.5 0 0 0 0 1h1a.5.5 0 0 0 0-1" fill="#bf6952"/><path d="M18.945 14h-5l-2.472-3.778L8.945 14h-6C1.165 14 1 12.807 1 11.027V0H21.945v11.027c0 1.973-1 2.973-3 2.973" fill="#3b93d9"/><path d="M17.973 0h-1.028v10h1.028V0zM6 0H4.972v10H6V0z" fill="#1b6399"/><path d="M20.139 26l-1 6-2 1H3.999v-7c6.07 0 9.689 2.576 11.496 4.603C16.06 28.83 17.392 26 20.139 26" fill="#ffac33"/><path d="M27.473 21a7.82 7.82 0 0 1-3.464-.812 6.131 6.131 0 1 1-3.123-11.333 7.85 7.85 0 0 1 6.587-3.578 7.861 7.861 0 0 1 7.86 7.862A7.861 7.861 0 0 1 27.474 21" fill="#f4900c"/><path d="M29 1v4h-4V1h-1V0h6v1h-1z" fill="#ffdc5d"/><path d="M34 16h-3.557a6.99 6.99 0 0 1-3.446.906A6.993 6.993 0 0 1 23.551 16H20v-6h.002L20 9.953C20 6.113 23.133 3 26.997 3s6.997 3.113 6.997 6.953l-.002.047H34v6z" fill="#ffdc5d"/><path d="M35 13l-1 4-3.729.622C30.819 18.42 31 19 31 19l-11-1-.861-5c5.41 0 8.425 1.755 10.065 3.367C30.44 14.908 32.528 13 35 13" fill="#f4900c"/><path d="M32 3h-3l-2-3-2 3h-2c-3 0-5-2-5-4v-1h18v1c0 1.973-2 4-4 4" fill="#88c9f9"/><path d="M30 6h-6s.583-2 3-2 3 2 3 2M27 6.5a.47.47 0 0 0-.35.15.47.47 0 0 0-.15.35c0 .13.05.26.15.36.17.17.52.18.71-.009A.504.504 0 0 0 27.5 7a.47.47 0 0 0-.15-.35.47.47 0 0 0-.35-.15" fill="#bf6952"/><path d="M24 8a1 1 0 0 0-1 1v1a1 1 0 1 0 2 0V9a1 1 0 0 0-1-1M30 8a1 1 0 0 0-1 1v1a1 1 0 1 0 2 0V9a1 1 0 0 0-1-1" fill="#662113"/></g></svg>