<svg xmlns="http://www.w3.org/2000/svg" viewBox="0 0 45 45"><defs><clipPath id="a"><path d="M0 36h36V0H0v36z"/></clipPath></defs><g clip-path="url(#a)" transform="matrix(1.25 0 0 -1.25 0 45)"><path d="M35 0v3.5C35 6.814 31.314 9 28 9H16c-3.313 0-7-2.186-7-5.5V0h26z" fill="#e1e8ed"/><path d="M18 9h8l-4-9-4 9z" fill="#269"/><path d="M21.945 30.93c4.105 0 10.947-2.052 10.947-10.946 0-8.896 0-10.948-2.052-10.948-2.053 0-4.79 2.052-8.895 2.052-4.105 0-6.785-2.052-8.895-2.052-2.288 0-2.054 8.21-2.054 10.948 0 8.894 6.844 10.947 10.95 10.947" fill="#ffac33"/><path d="M18.328 8.982c1.466-1.065 2.964-.98 3.672-.98.708 0 2.194-.085 3.66.98v3.203h-7.332V8.982z" fill="#ffdc5d"/><path d="M18.322 10.821c1.022-1.155 2.29-1.468 3.668-1.468 1.38 0 2.647.313 3.67 1.468v2.936h-7.338v-2.936z" fill="#f9ca55"/><path d="M13.734 20.282c0 5.834 3.676 10.564 8.21 10.564 4.535 0 8.21-4.73 8.21-10.564 0-5.833-3.675-10.285-8.21-10.285-4.534 0-8.21 4.452-8.21 10.285" fill="#ffdc5d"/><path d="M21.945 12.457c-1.606 0-2.447.794-2.537.885a.682.682 0 0 0 0 .967.686.686 0 0 0 .961.006c.035-.032.551-.491 1.576-.491 1.038 0 1.555.473 1.576.492a.69.69 0 0 0 .963-.019.678.678 0 0 0-.004-.955c-.09-.091-.93-.885-2.535-.885" fill="#df1f32"/><path d="M11.725 17c-.02 1-.044.224-.044.465 0 3.422 2.053-.494 2.053 1.943 0 2.439 1.368 2.683 2.737 4.051.684.685 2.052 2.026 2.052 2.026s3.421-2.067 6.158-2.067c2.737 0 5.474-1.375 5.474-4.112s2.053 1.584 2.053-1.837c0-.244-.023.531-.04-.469h.72c.005 2 .005 1.924.005 3.202 0 8.895-6.842 10.729-10.949 10.729-4.104 0-10.947-1.779-10.947-10.674 0-.793-.02-1.257.008-3.257h.72z" fill="#ffac33"/><path d="M18.608 18.113a.85.85 0 0 0-.846.847v.844c0 .465.381.846.846.846a.85.85 0 0 0 .847-.846v-.844a.85.85 0 0 0-.847-.847M25.373 18.113a.85.85 0 0 0-.846.847v.844c0 .465.381.846.846.846a.849.849 0 0 0 .846-.846v-.844a.85.85 0 0 0-.846-.847" fill="#662113"/><path d="M22.836 15.5h-1.69a.423.423 0 0 0-.423.423v.153c0 .234.189.424.423.424h1.69c.233 0 .424-.19.424-.424v-.153a.424.424 0 0 0-.424-.423" fill="#c1694f"/><path d="M32.5 24s-3-1-10.5-1-10.5 1-10.5 1v6h21v-6z" fill="#ccd6dd"/><path d="M14 25a.5.5 0 0 0-1 0v3a.5.5 0 0 0 1 0v-3zM31 25a.5.5 0 0 0-1 0v3a.5.5 0 0 0 1 0v-3zM18 24.5a.5.5 0 0 0-1 0v3a.5.5 0 0 0 1 0v-3zM22.5 24.25a.5.5 0 0 0-1 0v3a.5.5 0 0 0 1 0v-3zM27 24.5a.5.5 0 0 0-1 0v3a.5.5 0 0 0 1 0v-3z" fill="#99aab5"/><path d="M28.25 36a6.207 6.207 0 0 1-3.167-.869 6.207 6.207 0 0 1-6.25.051A6.212 6.212 0 0 1 15.75 36a6.25 6.25 0 0 1-6.25-6.25c0-3.452 11.294-3.25 12.416-3.25 1.157 0 12.584-.202 12.584 3.25A6.25 6.25 0 0 1 28.25 36" fill="#e1e8ed"/><path d="M10 11.25C10 7.798 7.985 6 5.5 6S1 7.798 1 11.25s2.015 7.25 4.5 7.25 4.5-3.798 4.5-7.25" fill="#c1694f"/><path d="M6.5 0h-2v8h2V0z" fill="#c1694f"/><path d="M15.444 20.064c0-1.448-.734-2.622-1.639-2.622s-1.639 1.174-1.639 2.622.734 2.623 1.64 2.623c.904 0 1.638-1.175 1.638-2.623M31.833 20.064c0-1.448-.733-2.622-1.639-2.622-.905 0-1.638 1.174-1.638 2.622s.733 2.623 1.638 2.623c.906 0 1.639-1.175 1.639-2.623" fill="#ffdc5d"/><path d="M14.895 31.511a.499.499 0 0 1 .594.383c.032.145.335 1.441 1.32 2.212.76.596 1.747.987 2.006 1.084a6.202 6.202 0 0 1-1.268.535 7.903 7.903 0 0 1-1.356-.832c-1.235-.967-1.616-2.492-1.68-2.788a.5.5 0 0 1 .383-.594M27.05 34.097c.987-.772 1.29-2.066 1.32-2.212a.501.501 0 0 1 .979.211c-.065.295-.443 1.82-1.681 2.788a7.908 7.908 0 0 1-1.308.81 6.313 6.313 0 0 1-1.238-.543c.336-.13 1.226-.504 1.929-1.054" fill="#ccd6dd"/></g></svg>