<svg xmlns="http://www.w3.org/2000/svg" viewBox="0 0 45 45"><defs><clipPath id="a"><path d="M0 36h36V0H0v36z"/></clipPath><clipPath id="b"><path d="M14 10a6 6 0 0 1-6-6V0h28v4a6 6 0 0 1-6 6H14z"/></clipPath><clipPath id="c"><path d="M0 36h36V0H0v36z"/></clipPath></defs><g clip-path="url(#a)" transform="matrix(1.25 0 0 -1.25 0 45)"><path d="M36 0v4a6 6 0 0 1-6 6H14a6 6 0 0 1-6-6V0h28z" fill="#dd2e44"/></g><g clip-path="url(#b)" transform="matrix(1.25 0 0 -1.25 0 45)"><path d="M15.682 11.5L20.5-.5H7.378l-.196 11 8.5 1z" fill="#292f33"/><path d="M15 12l-2-6 3-1-2-3 4-5S7.182-2.5 7.182-2v14H15z"/><path d="M7.682-1.687c1.052-.242 5.182-.554 9.235-.76l-3.535 4.42 1.839 2.76-2.853.95 1.939 5.817H7.682V-1.687zM19.08-3.55l-1.104.052c-11.295.521-11.295.953-11.295 1.5v14.5h9.012l-2.061-6.184 3.147-1.05-2.161-3.24L19.08-3.55z" fill="#ccd6dd"/><path d="M28.5 11L23.682-1h13.123L37 10l-8.5 1z" fill="#292f33"/><path d="M29.5 11.5l1.5-6-3-1 2-3L26-3s11 .094 11 .594v14l-7.5-.094z"/><path d="M28.78 4.232l1.85-2.776-3.506-3.944c4.104.054 8.286.21 9.376.41v13.165l-6.362-.08 1.46-5.836-2.819-.939zM24.877-3.51l4.492 5.054-2.15 3.223 3.182 1.061-1.54 6.164 8.638.107V-2.407c0-.578 0-.996-11.496-1.093l-1.126-.01z" fill="#ccd6dd"/></g><g clip-path="url(#c)" transform="matrix(1.25 0 0 -1.25 0 45)"><path d="M18.182 10s.5-3.5 4-3.5 4 3.5 4 3.5v4h-8v-4z" fill="#7c533e"/><path d="M18.182 12c1.216-1.374 2.355-1.719 3.996-1.719 1.639 0 2.787.346 4.004 1.719v4h-8v-4z" fill="#664131"/><path d="M15.626 22.064c0-1.448-.734-2.622-1.639-2.622s-1.639 1.174-1.639 2.622.734 2.623 1.639 2.623 1.639-1.175 1.639-2.623M32.015 22.064c0-1.448-.733-2.622-1.64-2.622-.904 0-1.637 1.174-1.637 2.622s.733 2.623 1.638 2.623c.906 0 1.639-1.175 1.639-2.623" fill="#7c533e"/><path d="M13.66 21.04c0 5.59 3.815 10.122 8.521 10.122 4.708 0 8.523-4.532 8.523-10.121 0-5.59-3.815-10.121-8.523-10.121-4.706 0-8.522 4.532-8.522 10.12" fill="#7c533e"/><path d="M22.182 14.198c-2.754 0-3.6.705-3.741.848a.655.655 0 0 0 .902.95c.052-.037.72-.487 2.839-.487 2.2 0 2.836.485 2.842.49a.638.638 0 0 0 .913-.015.669.669 0 0 0-.014-.938c-.141-.143-.987-.848-3.741-.848" fill="#3d2e24"/><path d="M22.182 34.52c5.648 0 9.178-4.168 9.178-7.64 0-3.473-.706-4.863-1.412-3.473l-1.412 2.778s-4.236 0-5.648 1.39c0 0 2.118-4.168-2.118 0 0 0 .706-2.78-3.53.694 0 0-2.118-1.39-2.824-4.862-.196-.964-1.412 0-1.412 3.473s2.824 7.64 9.178 7.64" fill="#0b0200"/><path d="M18.182 21c-.55 0-1 .45-1 1v1c0 .55.45 1 1 1s1-.45 1-1v-1c0-.55-.45-1-1-1M26.182 21c-.55 0-1 .45-1 1v1c0 .55.45 1 1 1s1-.45 1-1v-1c0-.55-.45-1-1-1"/><path d="M22.932 18.25h-1.5a.752.752 0 0 0-.75.75c0 .413.337.75.75.75h1.5c.413 0 .75-.337.75-.75a.752.752 0 0 0-.75-.75" fill="#3d2e24"/><path d="M15 14.593a3.442 3.442 0 1 0-6.884 0 3.442 3.442 0 0 0 6.884 0" fill="#939598"/><path d="M13.405 11.268a.43.43 0 0 0-.608 0l-4.564 4.564a.43.43 0 0 0 0 .608l.608.609a.43.43 0 0 0 .61 0l4.562-4.564a.43.43 0 0 0 0-.61l-.608-.607z" fill="#58595b"/><path d="M1.027 3.248c.69-.42 1.705-.305 2.431.324l6.861 6.269c.417.362.44.969.051 1.358l-2.162 2.164a.917.917 0 0 1-1.36-.051L.694 6.336C.085 5.632-.036 4.659.34 3.971" fill="#414042"/><path d="M2 22.724v-4.062c0 .039-.324.062-.501.062-.828 0-1.5-.447-1.5-1 0-.552.672-1 1.5-1 .829 0 1.501.448 1.501 1v3.056l2-1.112v-2.506c0 .039-.074.062-.251.062-.828 0-1.375-.447-1.375-1 0-.552.487-1.042 1.313-1.112C6 15 6 16 6 16v4.5l-4 2.224zM9 26v-3.838a2.18 2.18 0 0 1-.5.062c-.829 0-1.5-.448-1.5-1s.671-1 1.5-1c.828 0 1.5.448 1.5 1V26H9z" fill="#55acee"/><path d="M4.458 7.5h2V0h-2v7.5z" fill="#414042"/></g></svg>