<svg xmlns="http://www.w3.org/2000/svg" viewBox="0 0 45 45"><defs><clipPath id="a"><path d="M0 36h36V0H0v36z"/></clipPath></defs><g clip-path="url(#a)" transform="matrix(1.25 0 0 -1.25 0 45)"><path d="M32 0v4a6 6 0 0 1-6 6H10a6 6 0 0 1-6-6V0h28z" fill="#269"/><path d="M14 10l4-5.001L22 10v4h-8v-4z" fill="#d5ab88"/><path d="M14 12c1.216-1.374 2.355-1.719 3.996-1.719 1.639 0 2.787.346 4.004 1.719v4h-8v-4z" fill="#cc9b7a"/><path d="M11.444 22.064c0-1.448-.734-2.622-1.639-2.622s-1.639 1.174-1.639 2.622.734 2.623 1.64 2.623c.904 0 1.638-1.175 1.638-2.623" fill="#d5ab88"/><path d="M27.833 22.064c0-1.448-.733-2.622-1.639-2.622-.905 0-1.638 1.174-1.638 2.622s.733 2.623 1.638 2.623c.906 0 1.639-1.175 1.639-2.623" fill="#ffdc5d"/><path d="M9.477 21.04c0 5.59 3.816 10.122 8.523 10.122s8.522-4.532 8.522-10.121c0-5.59-3.814-10.121-8.521-10.121-4.708 0-8.524 4.532-8.524 10.12" fill="#d5ab88"/><path d="M18 14.198c-2.754 0-3.6.705-3.741.848a.655.655 0 0 0 .902.95c.052-.037.721-.487 2.839-.487 2.2 0 2.836.485 2.842.49a.638.638 0 0 0 .913-.015.669.669 0 0 0-.014-.938c-.141-.143-.987-.848-3.741-.848" fill="#c1694f"/><path d="M18 34.52c5.648 0 9.178-4.168 9.178-7.64 0-3.473-.706-4.863-1.412-3.473l-1.412 2.778s-4.236 0-5.648 1.39c0 0 2.118-4.168-2.118 0 0 0 .706-2.78-3.53.694 0 0-2.118-1.39-2.824-4.862-.196-.964-1.412 0-1.412 3.473s2.824 7.64 9.178 7.64" fill="#963b22"/><path d="M14 21c-.55 0-1 .45-1 1v1c0 .55.45 1 1 1s1-.45 1-1v-1c0-.55-.45-1-1-1M22 21c-.55 0-1 .45-1 1v1c0 .55.45 1 1 1s1-.45 1-1v-1c0-.55-.45-1-1-1" fill="#662113"/><path d="M18.75 18.25h-1.5a.752.752 0 0 0-.75.75c0 .413.337.75.75.75h1.5c.413 0 .75-.337.75-.75a.752.752 0 0 0-.75-.75" fill="#c1694f"/><path d="M14 6l3-6h2l3 6-3.99 1.867L14 6z" fill="#ccd6dd"/><path d="M19.3 4.438s.376.625.532.906c.184.33.453 1.57.453 1.57l-2.187.962c0 .006-.16-.005-.16-.005l-.184-.043-.172-.063c-.217-.07.094-.008.094-.014l-1.973-.837s.287-1.24.469-1.57c.156-.281.529-.906.529-.906S15.75 2.002 15.469 0h5.196C20.384 1.594 19.3 4.438 19.3 4.438" fill="#a0041e"/><path d="M18.004 7.188c.39.023 1.543-.771 1.422-1.25-.461-1.826-.848-1.391-1.391-1.391-.611 0-.963-.472-1.39 1.313-.092.386.797 1.296 1.359 1.327M20.035 0h-4.023s.543 4.043 2.02 4.043C19.507 4.043 20.034 0 20.034 0" fill="#dd2e44"/><path d="M13 10h-2l-1-6 3-1-1-3h5l-4 10zM23 10h2l1-6-3-1 1-3h-5l4 10z" fill="#3b88c3"/><path d="M13.375 11.219c.566-.566 4.709-3.383 4.709-3.383S15.957 6.594 14 4.303c-.197-.231-1.543 4.625-1.584 5.709-.012.303.688 1.478.959 1.207" fill="#f5f8fa"/><path d="M22.719 11.25c-.566-.566-4.71-3.383-4.71-3.383s2.128-1.242 4.085-3.533c.197-.23 1.543 4.625 1.584 5.709.012.303-.688 1.478-.96 1.207" fill="#f5f8fa"/><path d="M27.001 22.064a.501.501 0 0 0-.499.547c.005.046.398 4.595-2.228 7.48-1.456 1.599-3.585 2.41-6.329 2.41-6.012 0-8.002-4.507-8.652-7.194a.5.5 0 1 0-.972.236c.72 2.972 2.928 7.958 9.624 7.958 3.04 0 5.42-.923 7.074-2.742 2.923-3.217 2.499-8.04 2.479-8.243a.5.5 0 0 0-.497-.452" fill="#66757f"/><path d="M26 24s0 .5.5.5H28s1 0 1-1V20s0-1-1-1h-1.5s-.5 0-.5.5V24zM9.5 24.064h-1a.5.5 0 0 0-.5.5v2a.5.5 0 0 0 .5.5h1a.5.5 0 0 0 .5-.5v-2a.5.5 0 0 0-.5-.5" fill="#66757f"/><path d="M19.5 11.063v1c6.44 0 6.981 6.747 7.001 7.034l.998-.067c-.006-.08-.616-7.967-7.999-7.967" fill="#66757f"/><path d="M16 11.063a1 1 0 0 1 1-1h2a1 1 0 0 1 1 1v1a1 1 0 0 1-1 1h-2a1 1 0 0 1-1-1v-1z" fill="#292f33"/></g></svg>