<svg xmlns="http://www.w3.org/2000/svg" viewBox="0 0 45 45"><defs><clipPath id="a"><path d="M0 36h36V0H0v36z"/></clipPath><clipPath id="b"><path d="M16 9c-3.313 0-7-2.185-7-5.5V0h26v3.5C35 6.815 31.315 9 28 9H16z"/></clipPath><clipPath id="c"><path d="M0 36h36V0H0v36z"/></clipPath></defs><g clip-path="url(#a)" transform="matrix(1.25 0 0 -1.25 0 45)"><path d="M35 0v3.5C35 6.814 31.314 9 28 9H16c-3.313 0-7-2.186-7-5.5V0h26z" fill="#ccd6dd"/><path d="M21.945 30.93c4.105 0 10.947-2.052 10.947-10.946 0-8.896 0-10.948-2.052-10.948-2.053 0-4.79 2.052-8.895 2.052-4.105 0-6.785-2.052-8.895-2.052-2.288 0-2.054 8.21-2.054 10.948 0 8.894 6.844 10.947 10.95 10.947" fill="#ffac33"/><path d="M18.328 8.982C19 7 21.292 5.5 22 5.5c.708 0 3 1.5 3.66 3.482v3.203h-7.332V8.982z" fill="#ffdc5d"/><path d="M18.322 10.821c1.022-1.155 2.29-1.468 3.668-1.468 1.38 0 2.647.313 3.67 1.468v2.936h-7.338v-2.936z" fill="#f9ca55"/><path d="M13.734 20.282c0 5.834 3.676 10.564 8.21 10.564 4.535 0 8.21-4.73 8.21-10.564 0-5.833-3.675-10.285-8.21-10.285-4.534 0-8.21 4.452-8.21 10.285" fill="#ffdc5d"/><path d="M21.945 12.457c-1.606 0-2.447.794-2.537.885a.682.682 0 0 0 0 .967.686.686 0 0 0 .961.006c.035-.032.551-.491 1.576-.491 1.038 0 1.555.473 1.576.492a.69.69 0 0 0 .963-.019.678.678 0 0 0-.004-.955c-.09-.091-.93-.885-2.535-.885" fill="#df1f32"/><path d="M11.725 17c-.02 1-.044.224-.044.465 0 3.422 2.053-.494 2.053 1.943 0 2.439 1.368 2.683 2.737 4.051.684.685 2.052 2.026 2.052 2.026s3.421-2.067 6.158-2.067c2.737 0 5.474-1.375 5.474-4.112s2.053 1.584 2.053-1.837c0-.244-.023.531-.04-.469h.72c.005 2 .005 1.924.005 3.202 0 8.895-6.842 8.298-10.949 8.298-4.104 0-10.947.652-10.947-8.243 0-.793-.02-1.257.008-3.257h.72z" fill="#ffac33"/><path d="M18.608 18.113a.85.85 0 0 0-.846.847v.844c0 .465.381.846.846.846a.85.85 0 0 0 .847-.846v-.844a.85.85 0 0 0-.847-.847M25.373 18.113a.85.85 0 0 0-.846.847v.844c0 .465.381.846.846.846a.849.849 0 0 0 .846-.846v-.844a.85.85 0 0 0-.846-.847" fill="#662113"/><path d="M22.836 15.5h-1.69a.423.423 0 0 0-.423.423v.153c0 .234.189.424.423.424h1.69c.233 0 .424-.19.424-.424v-.153a.424.424 0 0 0-.424-.423" fill="#c1694f"/></g><g clip-path="url(#b)" fill="#269" transform="matrix(1.25 0 0 -1.25 0 45)"><path d="M31 0h-3v9h3V0zM16 0h-3v9h3V0z"/></g><g clip-path="url(#c)" transform="matrix(1.25 0 0 -1.25 0 45)"><path d="M29 0H15v5h14V0z" fill="#269"/><path d="M30 2.25C30 1.56 28.992 1 27.75 1s-2.25.56-2.25 1.25 1.008 1.25 2.25 1.25S30 2.94 30 2.25" fill="#f5f8fa"/><path d="M15.444 20.064c0-1.448-.734-2.622-1.639-2.622s-1.639 1.174-1.639 2.622.734 2.623 1.64 2.623c.904 0 1.638-1.175 1.638-2.623M31.833 20.064c0-1.448-.733-2.622-1.639-2.622-.905 0-1.638 1.174-1.638 2.622s.733 2.623 1.638 2.623c.906 0 1.639-1.175 1.639-2.623" fill="#ffdc5d"/><path d="M31 26.5c0-1.32-4.092 0-9 0-4.909 0-9-1.32-9 0 0 3.546 1 8.5 9 8.5 7 0 9-4.954 9-8.5" fill="#3b88c3"/><path d="M13.056 26.5s-.5-3 1.5-3c1 0 2.5 2 7.5 2s6.5-2 7.5-2c2 0 1.5 3 1.5 3s-1.5-.5-9-.5-9 .5-9 .5" fill="#269"/><path d="M13 27s-.5-3 1.5-3c1 0 2.5 2 7.5 2s6.5-2 7.5-2c2 0 1.5 3 1.5 3s-1.5-.5-9-.5-9 .5-9 .5" fill="#55acee"/><path d="M20.5 34.5s0 1.5 1.5 1.5 1.5-1.5 1.5-1.5h-3z" fill="#269"/><path d="M6.99 16.519l.012-4.41c0-.552-1.006-1.002-2.249-1.004-1.242-.003-2.25.443-2.252.995l-.01 4.408c-1.48-.806-2.494-2.358-2.49-4.164a4.751 4.751 0 0 1 9.5.022c-.005 1.804-1.027 3.352-2.51 4.153" fill="#66757f"/><path d="M6.25 0h-3v8.604h3V0z" fill="#66757f"/></g></svg>