<svg xmlns="http://www.w3.org/2000/svg" viewBox="0 0 45 45"><defs><clipPath id="a"><path d="M0 36h36V0H0v36z"/></clipPath></defs><g clip-path="url(#a)" transform="matrix(1.25 0 0 -1.25 0 45)"><path d="M36 0v2a6 6 0 0 1-6 6H14a6 6 0 0 1-6-6V0h28z" fill="#77b255"/><path d="M17.64 7.899C19.384 6.632 20.488 6.35 22 6.35c1.512 0 2.616.283 4.36 1.549v3.811h-8.72V7.899z" fill="#77b255"/><path d="M17.632 10.027c1.216-1.374 2.724-1.746 4.364-1.746 1.639 0 3.147.373 4.364 1.746v3.491h-8.728v-3.49z" fill="#f9ca55"/><path d="M15.444 20.065c0-1.448-.734-2.622-1.639-2.622s-1.639 1.174-1.639 2.622.734 2.623 1.64 2.623c.904 0 1.638-1.175 1.638-2.623M31.833 20.065c0-1.448-.734-2.622-1.639-2.622s-1.639 1.174-1.639 2.622.734 2.623 1.64 2.623c.904 0 1.638-1.175 1.638-2.623" fill="#ffdc5d"/><path d="M13.478 19.04c0 5.59 3.816 10.121 8.522 10.121 4.707 0 8.523-4.532 8.523-10.12 0-5.59-3.816-10.12-8.523-10.12-4.706 0-8.522 4.53-8.522 10.12" fill="#ffdc5d"/><path d="M26.524 14.654l-1.267.275c-.404.093-1.173.07-1.535.07h-3.689c-.362 0-1.13.023-1.536-.07l-1.267-.275c-.348-.1-.549-.392-.45-.74.083-.288.345-.44.63-.44.06 0 .121.026.181.043l1.266.37a.642.642 0 0 1-.065-.675.653.653 0 0 1 .88-.29l1.033.517a.643.643 0 0 1 .639-.585c.24 0 .472.132.587.362l.07.138-.054-.138c.115-.23.224-.362.465-.362a.642.642 0 0 1 .639.585l1.034-.517a.654.654 0 0 1 .88.29.642.642 0 0 1-.066.675l1.266-.37c.06-.017.12-.043.18-.043.285 0 .548.152.63.44.1.348-.102.64-.45.74M22 32.52c5.648 0 9.178-4.168 9.178-7.64 0-3.473-.706-4.863-1.412-3.473l-1.412 2.778s-4.236 0-5.648 1.39c0 0 2.118-4.168-2.118 0 0 0 .706-2.78-3.53.694 0 0-2.118-1.39-2.824-4.862-.196-.964-1.412 0-1.412 3.473s2.824 7.64 9.178 7.64" fill="#ffac33"/><path d="M18 19c-.55 0-1 .45-1 1v1c0 .55.45 1 1 1s1-.45 1-1v-1c0-.55-.45-1-1-1M26 19c-.55 0-1 .45-1 1v1c0 .55.45 1 1 1s1-.45 1-1v-1c0-.55-.45-1-1-1" fill="#662113"/><path d="M22.75 16.25h-1.5a.752.752 0 0 0-.75.75c0 .413.337.75.75.75h1.5c.413 0 .75-.337.75-.75a.752.752 0 0 0-.75-.75" fill="#c1694f"/><path d="M24.755 35.117s-2.214-1-2.751-2.75c-.537-1.75.188-.587.917 0 .729.585 2.03 1.61 2.75 1.833.72.224-.217.917-.916.917" fill="#66757f"/><path d="M23.838 33.742c5.13 0 8.71-1.971 9.177-4.127.51-2.365-.93-2.533-.93-2.533s-.134-1.341-1.006-1.106c-1.416.38-4.41.437-9.92.888-5.508.452-7.948.05-7.948.05s-.898.084-.938.939c-.041.855-1.098-.16-1.273.845-.176 1.005 5.598 5.044 12.838 5.044" fill="#66757f"/><path d="M27.47 0c-.28 3.867-4.091 7.954-9.64 9.879-6.702 2.326-13.383.614-14.923-3.823C2.236 4.12 2.655 1.985 3.896 0H27.47z" fill="#d99e82"/><path d="M19.782 4.618c-.3-.863.364-1.876 1.48-2.264 1.118-.387 2.266-.002 2.565.861.3.862-.363 1.876-1.48 2.263-1.117.388-2.266.003-2.565-.86" fill="#5c913b"/><path d="M5.401 2.999c-.299-.863.364-1.876 1.481-2.264C8 .348 9.147.733 9.446 1.595c.3.863-.363 1.877-1.48 2.264-1.117.388-2.266.003-2.565-.86" fill="#269"/><path d="M7.25 7.98c-.3-.863.363-1.876 1.48-2.264 1.116-.387 2.265-.002 2.564.86.3.863-.364 1.877-1.48 2.264-1.117.388-2.266.003-2.565-.86" fill="#dd2e44"/><path d="M14.276 7.995c-.272-.872.423-1.864 1.552-2.216 1.128-.352 2.264.07 2.536.941.271.872-.424 1.864-1.552 2.216-1.128.352-2.264-.07-2.536-.941" fill="#ffcc4d"/><path d="M1 6c.078 1.208 1.394 3.184 3 3 1.665-.19.129-3.129 0-4s.144-2.938-1-3C1.454 1.916.86 3.814 1 6" fill="#ffdc5d"/></g></svg>