<svg xmlns="http://www.w3.org/2000/svg" viewBox="0 0 45 45"><defs><clipPath id="a"><path d="M2 0h34v36H2V0z"/></clipPath><clipPath id="b"><path d="M0 36h36V0H0v36z"/></clipPath></defs><g clip-path="url(#a)" transform="matrix(1.25 0 0 -1.25 0 45)"><path d="M35 0v5a6 6 0 0 1-6 6H13a6 6 0 0 1-6-6V0h28z" fill="#77b255"/><path d="M16.64 10.894C16.64 10 19 8.902 21 8.902c2 0 4.36 1.098 4.36 1.992v3.817h-8.72v-3.817z" fill="#f3d2a2"/><path d="M16.632 13.027c1.216-1.374 2.724-1.746 4.364-1.746 1.639 0 3.147.373 4.364 1.746v3.491h-8.728v-3.49z" fill="#e2c196"/><path d="M14.444 23.064c0-1.448-.734-2.622-1.639-2.622s-1.639 1.174-1.639 2.622.734 2.623 1.64 2.623c.904 0 1.638-1.175 1.638-2.623M30.833 23.064c0-1.448-.733-2.622-1.639-2.622-.905 0-1.638 1.174-1.638 2.622s.733 2.623 1.638 2.623c.906 0 1.639-1.175 1.639-2.623" fill="#f3d2a2"/><path d="M12.477 22.04c0 5.59 3.816 10.122 8.523 10.122s8.522-4.532 8.522-10.121c0-5.59-3.814-10.121-8.521-10.121-4.708 0-8.524 4.532-8.524 10.12" fill="#f3d2a2"/><path d="M21 15.198c-2.754 0-3.6.705-3.741.848a.655.655 0 0 0 .902.95c.052-.037.721-.487 2.839-.487 2.2 0 2.836.485 2.842.49a.638.638 0 0 0 .913-.015.669.669 0 0 0-.014-.938c-.141-.143-.987-.848-3.741-.848" fill="#c1694f"/><path d="M21 36c5.648 0 9.178-4.647 9.178-8.121 0-3.472-.706-4.862-1.412-3.472l-1.412 2.778s-4.236 0-5.648 1.39c0 0 2.118-4.168-2.118 0 0 0 .706-2.78-3.53.694 0 0-2.118-1.39-2.824-4.862-.196-.965-1.412 0-1.412 3.472C11.822 31.353 14.646 36 21 36" fill="#ffe51e"/><path d="M17 22c-.55 0-1 .45-1 1v1c0 .55.45 1 1 1s1-.45 1-1v-1c0-.55-.45-1-1-1M25 22c-.55 0-1 .45-1 1v1c0 .55.45 1 1 1s1-.45 1-1v-1c0-.55-.45-1-1-1" fill="#662113"/><path d="M21.75 19.25h-1.5a.752.752 0 0 0-.75.75c0 .413.337.75.75.75h1.5c.413 0 .75-.337.75-.75a.752.752 0 0 0-.75-.75" fill="#c1694f"/></g><g clip-path="url(#b)" transform="matrix(1.25 0 0 -1.25 0 45)"><path d="M33 1a1 1 0 0 0-1-1H22a1 1 0 1 0 0 2h10a1 1 0 0 0 1-1" fill="#e1e8ed"/><path d="M20.24 14H3.76c-1.525 0-3.479-.771-2.479-3.531l3.072-8.475S4.75 0 7 0h20l-4 11.24c-.438 1.323-1.236 2.76-2.76 2.76" fill="#e1e8ed"/><path d="M19.24 14H2.76C1.234 14-.72 13.229.28 10.469l3.072-8.475S3.75 0 6 0h20l-4 11.24c-.438 1.323-1.236 2.76-2.76 2.76" fill="#99aab5"/><path d="M14.02 6.717c.524-1.572.099-3.13-.95-3.48-1.047-.348-2.321.642-2.845 2.214-.524 1.573-.1 3.13.949 3.479 1.048.35 2.322-.641 2.846-2.213M19 11.25H3a.75.75 0 0 0 0 1.5h16a.75.75 0 0 0 0-1.5" fill="#e1e8ed"/></g></svg>