<svg xmlns="http://www.w3.org/2000/svg" viewBox="0 0 45 45"><defs><clipPath id="a"><path d="M0 0h36v36H0V0z"/></clipPath></defs><g clip-path="url(#a)" transform="matrix(1.25 0 0 -1.25 0 45)"><path d="M32 0v2a6 6 0 0 1-6 6H10a6 6 0 0 1-6-6V0h28z" fill="#e1e8ed"/><path d="M30 28.5c0-4.142-5.372-7.5-12-7.5-6.627 0-12 3.358-12 7.5 0 4.142 5.373 7.5 12 7.5 6.628 0 12-3.358 12-7.5" fill="#292f33"/><path d="M13.64 7.9C15.384 6.63 16.488 5.935 18 5.935c1.512 0 2.616.696 4.36 1.963v3.811h-8.72V7.9z" fill="#af7e57"/><path d="M13.632 10.027c1.216-1.374 2.724-1.746 4.364-1.746 1.639 0 3.147.373 4.364 1.746v3.491h-8.728v-3.49z" fill="#9b6a49"/><path d="M11.444 20.064c0-1.448-.734-2.622-1.639-2.622s-1.639 1.174-1.639 2.622.734 2.623 1.64 2.623c.904 0 1.638-1.175 1.638-2.623M27.833 20.064c0-1.448-.733-2.622-1.639-2.622-.905 0-1.638 1.174-1.638 2.622s.733 2.623 1.638 2.623c.906 0 1.639-1.175 1.639-2.623" fill="#af7e57"/><path d="M9.477 19.04c0 5.59 3.816 10.122 8.522 10.122 4.708 0 8.523-4.532 8.523-10.121 0-5.59-3.815-10.121-8.523-10.121-4.706 0-8.522 4.532-8.522 10.12" fill="#af7e57"/><path d="M18 12.198c-2.754 0-3.6.705-3.741.848a.655.655 0 0 0 .902.95c.052-.037.721-.487 2.839-.487 2.2 0 2.836.485 2.842.49a.638.638 0 0 0 .913-.015.669.669 0 0 0-.014-.938c-.141-.143-.987-.848-3.741-.848" fill="#915a34"/><path d="M18 32.52c5.648 0 9.178-4.168 9.178-7.64 0-3.473-.706-4.863-1.412-3.473l-1.412 2.778s-4.236 0-5.648 1.39c0 0 2.118-4.168-2.118 0 0 0 .706-2.78-3.53.694 0 0-2.118-1.39-2.824-4.862-.196-.964-1.412 0-1.412 3.473s2.824 7.64 9.178 7.64" fill="#60352a"/><path d="M14 19c-.55 0-1 .45-1 1v1c0 .55.45 1 1 1s1-.45 1-1v-1c0-.55-.45-1-1-1M22 19c-.55 0-1 .45-1 1v1c0 .55.45 1 1 1s1-.45 1-1v-1c0-.55-.45-1-1-1" fill="#60352a"/><path d="M18.75 16.25h-1.5a.752.752 0 0 0-.75.75c0 .413.337.75.75.75h1.5c.413 0 .75-.337.75-.75a.752.752 0 0 0-.75-.75" fill="#915a34"/><path d="M8.5 27c0 1.105 4.253 2 9.5 2s9.5-.895 9.5-2-4.253-2-9.5-2-9.5.895-9.5 2" fill="#292f33"/><path d="M27.5 28h-19v3.446S12.458 35 18 35s9.5-3.554 9.5-3.554V28z" fill="#66757f"/><path d="M15 31c0 2.792 1.343 1 3 1s3 1.792 3-1c0-1.657-1.343-2-3-2s-3 .343-3 2" fill="#ffac33"/><path d="M16 31a2 2 0 1 0 3.999.001A2 2 0 0 0 16 31M27.5 27h-19c-.275 0-.5.225-.5.5s.225.5.5.5h19c.275 0 .5-.225.5-.5s-.225-.5-.5-.5" fill="#fdcb58"/><path d="M11.578 6.944l-5.926-.938a.5.5 0 0 0-.572.416l-.157.988a.501.501 0 0 0 .416.571l5.926.94a.502.502 0 0 0 .572-.416l.157-.989a.502.502 0 0 0-.416-.572" fill="#292f33"/><path d="M7.134 6.241l-.988-.156-.313 1.974.988.157.313-1.975zM9.109 6.554l-.988-.156-.313 1.975.988.156.313-1.975zM11.085 6.866l-.989-.155-.312 1.974.987.157.313-1.976z" fill="#fdcb58"/><path d="M30.348 6.006l-5.926.939a.502.502 0 0 0-.416.573l.157.986a.5.5 0 0 0 .573.416l5.925-.938a.502.502 0 0 0 .416-.573l-.157-.987a.502.502 0 0 0-.572-.416" fill="#292f33"/><path d="M25.903 6.71l-.988.156.313 1.976.987-.156-.312-1.976zM27.879 6.397l-.988.155.313 1.978.987-.157-.312-1.975zM29.855 6.084l-.988.156.312 1.977.988-.157-.312-1.976z" fill="#fdcb58"/><path d="M18.001 5.122s3.381-2.494 4.093-2.778C22.25 2.281 21.728 6 21.728 6h-7.454s-.524-3.78-.232-3.625c.639.343 3.959 2.747 3.959 2.747" fill="#99aab5"/><path d="M19.313 2.563s.375.624.53.905c.183.33.453 1.572.453 1.572L18.11 6c0 .008-.16-.004-.16-.004l-.184-.042-.172-.063c-.218-.07.094-.008.094-.015l-1.974-.836s.287-1.242.47-1.571c.156-.281.528-.906.528-.906S15.958 2 15.676 0h4.667c-.28 1.594-1.03 2.563-1.03 2.563" fill="#292f33"/><path d="M13.291 9.375c.566-.566 4.71-3.383 4.71-3.383s-2.127-1.242-4.085-3.534c-.197-.23-1.542 4.625-1.583 5.709-.012.303.687 1.479.958 1.208M22.73 9.375c-.566-.566-4.709-3.383-4.709-3.383s2.126-1.242 4.084-3.534c.196-.23 1.542 4.625 1.583 5.709.012.303-.687 1.479-.958 1.208" fill="#f5f8fa"/><path d="M18.016 5.313c.39.022 1.543-.771 1.422-1.25-.461-1.827-.85-1.391-1.391-1.391-.611 0-.964-.473-1.39 1.312-.093.387.797 1.297 1.359 1.328M20.047 0h-4.024s.542 2.167 2.019 2.167S20.047 0 20.047 0" fill="#323a3f"/></g></svg>