<svg xmlns="http://www.w3.org/2000/svg" viewBox="0 0 45 45"><defs><clipPath id="a"><path d="M0 36h36V0H0v36z"/></clipPath></defs><g clip-path="url(#a)" transform="matrix(1.25 0 0 -1.25 0 45)"><path d="M36 0v2a6 6 0 0 1-6 6H14a6 6 0 0 1-6-6V0h28z" fill="#292f33"/><path d="M17 8l5-2V0h-3l-2 8z" fill="#e1e8ed"/><path d="M26.929 8l-5-2V0h3l2 8z" fill="#e1e8ed"/><path d="M17.64 7.899c1.744-1.267 2.848-1.962 4.36-1.962 1.512 0 2.616.696 4.36 1.962v3.811h-8.72V7.899z" fill="#ffdc5d"/><path d="M17.632 10.027c1.216-1.374 2.724-1.746 4.364-1.746 1.639 0 3.147.373 4.364 1.746v3.491h-8.728v-3.49z" fill="#f9ca55"/><path d="M15.444 20.065c0-1.448-.734-2.622-1.639-2.622s-1.639 1.174-1.639 2.622.734 2.623 1.64 2.623c.904 0 1.638-1.175 1.638-2.623M31.833 20.065c0-1.448-.734-2.622-1.639-2.622s-1.639 1.174-1.639 2.622.734 2.623 1.64 2.623c.904 0 1.638-1.175 1.638-2.623" fill="#ffdc5d"/><path d="M13.478 19.04c0 5.59 3.816 10.121 8.522 10.121 4.707 0 8.523-4.532 8.523-10.12 0-5.59-3.816-10.12-8.523-10.12-4.706 0-8.522 4.53-8.522 10.12" fill="#ffdc5d"/><path d="M26.524 14.654l-1.267.275c-.404.093-1.173.07-1.535.07h-3.689c-.362 0-1.13.023-1.536-.07l-1.267-.275c-.348-.1-.549-.392-.45-.74.083-.288.345-.44.63-.44.06 0 .121.026.181.043l1.266.37a.642.642 0 0 1-.065-.675.653.653 0 0 1 .88-.29l1.033.517a.643.643 0 0 1 .639-.585c.24 0 .472.132.587.362l.07.138-.054-.138c.115-.23.224-.362.465-.362a.642.642 0 0 1 .639.585l1.034-.517a.654.654 0 0 1 .88.29.642.642 0 0 1-.066.675l1.266-.37c.06-.017.12-.043.18-.043.285 0 .548.152.63.44.1.348-.102.64-.45.74M22 32.52c5.648 0 9.178-4.168 9.178-7.64 0-3.473-.706-4.863-1.412-3.473l-1.412 2.778s-4.236 0-5.648 1.39c0 0 2.118-4.168-2.118 0 0 0 .706-2.78-3.53.694 0 0-2.118-1.39-2.824-4.862-.196-.964-1.412 0-1.412 3.473s2.824 7.64 9.178 7.64" fill="#6d6e71"/><path d="M18 19c-.55 0-1 .45-1 1v1c0 .55.45 1 1 1s1-.45 1-1v-1c0-.55-.45-1-1-1M26 19c-.55 0-1 .45-1 1v1c0 .55.45 1 1 1s1-.45 1-1v-1c0-.55-.45-1-1-1" fill="#662113"/><path d="M22.75 16.25h-1.5a.752.752 0 0 0-.75.75c0 .413.337.75.75.75h1.5c.413 0 .75-.337.75-.75a.752.752 0 0 0-.75-.75" fill="#c1694f"/><path d="M22 5.122s3.382-2.494 4.094-2.779C26.25 2.281 25.728 6 25.728 6h-7.454s-.524-3.782-.232-3.625C18.68 2.717 22 5.122 22 5.122" fill="#99aab5"/><path d="M23.313 2.563s.375.624.53.905c.183.33.453 1.572.453 1.572L22.11 6c0 .008-.16-.004-.16-.004l-.184-.042-.172-.063c-.218-.07.094-.008.094-.015l-1.974-.836s.287-1.242.47-1.571c.156-.281.528-.906.528-.906S19.958 2 19.676 0h4.667c-.28 1.594-1.03 2.563-1.03 2.563" fill="#269"/><path d="M17.292 9.375C17.858 8.809 22 5.992 22 5.992s-2.126-1.242-4.084-3.534c-.197-.23-1.542 4.625-1.583 5.709-.012.303.687 1.479.958 1.208M26.73 9.375c-.566-.566-4.709-3.383-4.709-3.383s2.126-1.242 4.084-3.534c.197-.23 1.542 4.625 1.583 5.709.012.303-.687 1.479-.958 1.208" fill="#f5f8fa"/><path d="M16.38 8S17.922 2.537 22 .589V0h-7v8h1.38zM27.62 8S26.078 2.537 22 .589V0h7v8h-1.38z" fill="#292f33"/><path d="M12.083 2.66c.25 0 .4-2.66.4-2.66h-.955s.193 2.66.555 2.66M15.083 2.66c.25 0 .4-2.66.4-2.66h-.955s.193 2.66.555 2.66M31.928 2.66c-.25 0-.4-2.66-.4-2.66h.956s-.194 2.66-.556 2.66M28.928 2.66c-.25 0-.4-2.66-.4-2.66h.956s-.194 2.66-.556 2.66" fill="#66757f"/><path d="M7.382 0h1.71L5.425 9.707a.802.802 0 0 1-1.031.466.802.802 0 0 1-.465-1.031L7.382 0z" fill="#662113"/><path d="M7.853 12.335c.468-1.24.178-2.498-.649-2.811-.826-.312-1.876.44-2.345 1.68-.468 1.24-.178 2.498.65 2.81.826.313 1.876-.44 2.344-1.68" fill="#c1694f"/><path d="M5.863 9.303l-1.996-.755a2.138 2.138 0 0 0-2.749 1.243A2.138 2.138 0 0 0 2.36 12.54l1.995.754a2.14 2.14 0 0 0 2.75-1.241 2.14 2.14 0 0 0-1.242-2.75" fill="#662113"/><path d="M3.363 10.639c.468-1.24.178-2.498-.649-2.811-.826-.312-1.876.44-2.345 1.68-.468 1.24-.178 2.498.65 2.81.826.313 1.876-.44 2.344-1.68" fill="#c1694f"/><path d="M11.318 0l-.466 1.588A2.353 2.353 0 0 1 7.94 3.18l-1.255-.368A2.35 2.35 0 0 1 5.076 0h6.242z" fill="#ffdc5d"/></g></svg>