<svg xmlns="http://www.w3.org/2000/svg" viewBox="0 0 45 45"><defs><clipPath id="a"><path d="M0 36h36V0H0v36z"/></clipPath></defs><g clip-path="url(#a)" transform="matrix(1.25 0 0 -1.25 0 45)"><path d="M35 0v3.5C35 6.814 31.314 9 28 9H16c-3.313 0-7-2.186-7-5.5V0h26z" fill="#9266cc"/><path d="M21.945 30.931c4.105 0 10.948-2.053 10.948-10.948s0-10.948-2.054-10.948c-2.053 0-4.79 2.053-8.895 2.053-4.105 0-6.784-2.053-8.895-2.053-2.287 0-2.053 8.211-2.053 10.948 0 8.895 6.843 10.948 10.948 10.948" fill="#ffac33"/><path d="M18.328 8.98c1.466-1.065 2.395-1.353 3.666-1.353s2.2.288 3.666 1.353v3.205h-7.332V8.98z" fill="#9266cc"/><path d="M18.321 10.821c1.023-1.155 2.291-1.468 3.67-1.468 1.378 0 2.646.313 3.67 1.468v2.936h-7.34v-2.936z" fill="#f9ca55"/><path d="M13.734 20.282c0 5.834 3.676 10.563 8.21 10.563 4.535 0 8.21-4.728 8.21-10.562S26.48 9.996 21.945 9.996c-4.534 0-8.21 4.452-8.21 10.285" fill="#ffdc5d"/><path d="M21.945 12.457c-1.606 0-2.446.794-2.536.885a.684.684 0 1 0 .96.974c.035-.032.552-.491 1.576-.491 1.039 0 1.556.472 1.577.492a.688.688 0 0 0 .963-.02.678.678 0 0 0-.004-.955c-.09-.091-.93-.885-2.536-.885" fill="#df1f32"/><path d="M11.725 17c-.02 1-.044.224-.044.465 0 3.422 2.053-.494 2.053 1.943 0 2.439 1.368 2.683 2.736 4.051.685.685 2.053 2.026 2.053 2.026s3.421-2.067 6.158-2.067c2.737 0 5.474-1.375 5.474-4.112s2.053 1.584 2.053-1.837c0-.244-.023.531-.04-.469h.718c.006 2 .006 1.924.006 3.202 0 8.895-6.842 12.207-10.948 12.207-4.105 0-10.947-3.257-10.947-12.152 0-.793-.02-1.257.008-3.257h.72z" fill="#ffac33"/><path d="M18.609 18.114a.849.849 0 0 0-.846.846v.845c0 .465.38.846.846.846a.849.849 0 0 0 .846-.846v-.845a.849.849 0 0 0-.846-.846M25.373 18.114a.849.849 0 0 0-.846.846v.845c0 .465.381.846.846.846a.849.849 0 0 0 .846-.846v-.845a.849.849 0 0 0-.846-.846" fill="#662113"/><path d="M22.837 15.5h-1.691a.424.424 0 0 0-.423.423v.154c0 .233.19.423.423.423h1.69c.234 0 .424-.19.424-.423v-.154a.424.424 0 0 0-.424-.423" fill="#c1694f"/><path d="M24.755 35.117s-2.214-1-2.751-2.75c-.537-1.75.188-.587.917 0 .729.585 2.03 1.61 2.75 1.833.72.224-.217.917-.916.917" fill="#66757f"/><path d="M23.838 33.742c5.13 0 8.815-1.951 9.177-4.127.399-2.4-.847-2.751-.847-2.751s.574-1.28-.847-.917c-1.42.363-4.651.466-10.161.917-5.51.452-8.467 0-8.467 0s-.806.062-.847.917c-.04.856-.671-.087-.846.917-.176 1.005 5.598 5.044 12.838 5.044" fill="#66757f"/><path d="M27.47 0c-.28 3.867-4.091 7.954-9.64 9.879-6.702 2.326-13.383.614-14.923-3.823C2.236 4.12 2.655 1.985 3.896 0H27.47z" fill="#d99e82"/><path d="M19.782 4.618c-.3-.863.364-1.876 1.48-2.264 1.118-.387 2.266-.002 2.565.861.3.862-.363 1.876-1.48 2.263-1.117.388-2.266.003-2.565-.86" fill="#5c913b"/><path d="M5.401 2.999c-.299-.863.364-1.876 1.481-2.264C8 .348 9.147.733 9.446 1.595c.3.863-.363 1.877-1.48 2.264-1.117.388-2.266.003-2.565-.86" fill="#269"/><path d="M7.25 7.98c-.3-.863.363-1.876 1.48-2.264 1.116-.387 2.265-.002 2.564.86.3.863-.364 1.877-1.48 2.264-1.117.388-2.266.003-2.565-.86" fill="#dd2e44"/><path d="M14.276 7.995c-.272-.872.423-1.864 1.552-2.216 1.128-.352 2.264.07 2.536.941.271.872-.424 1.864-1.552 2.216-1.128.352-2.264-.07-2.536-.941" fill="#ffcc4d"/><path d="M1 6c.078 1.208 1.394 3.184 3 3 1.665-.19.129-3.129 0-4s.144-2.938-1-3C1.454 1.916.86 3.814 1 6" fill="#ffdc5d"/></g></svg>