<svg xmlns="http://www.w3.org/2000/svg" viewBox="0 0 45 45"><defs><clipPath id="a"><path d="M0 36h36V0H0v36z"/></clipPath><clipPath id="b"><path d="M16.125 10C12.812 10 9 7.815 9 4.5V0h26v4.5c0 3.315-3.56 5.5-6.875 5.5h-12z"/></clipPath><clipPath id="c"><path d="M0 36h36V0H0v36z"/></clipPath></defs><g clip-path="url(#a)" transform="matrix(1.25 0 0 -1.25 0 45)"><path d="M35 0v4.5c0 3.314-3.561 5.5-6.875 5.5h-12C12.812 10 9 7.814 9 4.5V0h26z" fill="#af7e57"/></g><g clip-path="url(#b)" transform="matrix(1.25 0 0 -1.25 0 45)"><path d="M15.5 10.5c0-5 6.5-9 6.5-9s6.5 4.5 6.5 9c0 3.5 7.5 0 7.5 0s-6 6.5-6 0S31 0 31 0H13s1 4.5 1 10.5c0 0 1.5 4 1.5 0" fill="#292f33"/></g><g clip-path="url(#c)" transform="matrix(1.25 0 0 -1.25 0 45)"><path d="M21.945 32.022c4.105 0 10.947-2.053 10.947-10.947 0-8.896 0-10.948-2.052-10.948-2.053 0-4.79 2.052-8.895 2.052-4.105 0-6.785-2.052-8.895-2.052-2.288 0-2.054 8.21-2.054 10.948 0 8.894 6.844 10.947 10.95 10.947" fill="#60352a"/><path d="M18.5 9.482c1.466-1.065 2.792-.98 3.5-.98.708 0 2.194-.085 3.488.95l.012 4.138h-7V9.482z" fill="#af7e57"/><path d="M18.5 11.845c.975-1.103 2.185-1.4 3.499-1.4 1.315 0 2.526.297 3.501 1.4v2.8h-7v-2.8z" fill="#9b6a49"/><path d="M13.734 21.373c0 5.834 3.676 10.564 8.21 10.564 4.535 0 8.21-4.73 8.21-10.564 0-5.833-3.675-10.285-8.21-10.285-4.534 0-8.21 4.452-8.21 10.285" fill="#af7e57"/><path d="M21.945 13.548c-1.606 0-2.447.794-2.537.885a.682.682 0 0 0 0 .967.686.686 0 0 0 .961.006c.035-.032.551-.491 1.576-.491 1.038 0 1.555.473 1.576.492a.69.69 0 0 0 .963-.02.678.678 0 0 0-.004-.954c-.09-.091-.93-.885-2.535-.885" fill="#df1f32"/><path d="M11.725 18.09c-.02 1-.044.225-.044.466 0 3.422 2.053-.494 2.053 1.943 0 2.439 1.368 2.683 2.737 4.05.684.686 2.052 2.027 2.052 2.027s3.421-2.067 6.158-2.067c2.737 0 5.474-1.375 5.474-4.112s2.053 1.584 2.053-1.837c0-.244-.023.53-.04-.47h.72c.005 2 .005 1.925.005 3.203 0 8.895-6.842 12.207-10.949 12.207-4.104 0-10.947-3.257-10.947-12.152 0-.793-.02-1.257.008-3.257h.72z" fill="#60352a"/><path d="M18.608 19.204a.85.85 0 0 0-.846.847v.844c0 .465.381.846.846.846a.85.85 0 0 0 .847-.846v-.844a.85.85 0 0 0-.847-.847M25.373 19.204a.85.85 0 0 0-.846.847v.844c0 .465.381.846.846.846a.849.849 0 0 0 .846-.846v-.844a.85.85 0 0 0-.846-.847" fill="#60352a"/><path d="M22.836 16.59h-1.69a.423.423 0 0 0-.423.424v.153c0 .234.189.424.423.424h1.69c.233 0 .424-.19.424-.424v-.153a.424.424 0 0 0-.424-.423" fill="#915a34"/><path d="M23.5 6a1.5 1.5 0 1 0-2.999-.001A1.5 1.5 0 0 0 23.5 6M25.5 7a1 1 0 1 0-2 0 1 1 0 1 0 2 0M20.5 7a1 1 0 1 0-2 0 1 1 0 1 0 2 0" fill="#f5f8fa"/><path d="M26.5 8.25a.75.75 0 1 0-1.5 0 .75.75 0 0 0 1.5 0M19 8.25a.75.75 0 1 0-1.5 0 .75.75 0 0 0 1.5 0M18 9.5a.5.5 0 1 0-1 0 .5.5 0 0 0 1 0M27 9.5a.5.5 0 1 0-1 0 .5.5 0 0 0 1 0" fill="#f5f8fa"/><path d="M15.444 21.155c0-1.448-.734-2.622-1.639-2.622s-1.639 1.174-1.639 2.622.734 2.623 1.64 2.623c.904 0 1.638-1.175 1.638-2.623M31.833 21.155c0-1.448-.733-2.622-1.639-2.622-.905 0-1.638 1.174-1.638 2.622s.733 2.623 1.638 2.623c.906 0 1.639-1.175 1.639-2.623" fill="#af7e57"/><path d="M15 14.593a3.442 3.442 0 1 0-6.884 0 3.442 3.442 0 0 0 6.884 0" fill="#939598"/><path d="M13.405 11.268a.43.43 0 0 0-.608 0l-4.564 4.564a.43.43 0 0 0 0 .608l.608.609a.43.43 0 0 0 .61 0l4.562-4.564a.43.43 0 0 0 0-.61l-.608-.607z" fill="#58595b"/><path d="M1.027 3.248c.69-.42 1.705-.305 2.431.324l6.861 6.269c.417.362.44.969.051 1.358l-2.162 2.164a.917.917 0 0 1-1.36-.051L.694 6.336C.085 5.632-.036 4.659.34 3.971" fill="#414042"/><path d="M2 22.724v-4.062c0 .039-.324.062-.501.062-.828 0-1.5-.447-1.5-1 0-.552.672-1 1.5-1 .829 0 1.501.448 1.501 1v3.056l2-1.112v-2.506c0 .039-.074.062-.251.062-.828 0-1.375-.447-1.375-1 0-.552.487-1.042 1.313-1.112C6 15 6 16 6 16v4.5l-4 2.224zM9 26v-3.838a2.18 2.18 0 0 1-.5.062c-.829 0-1.5-.448-1.5-1s.671-1 1.5-1c.828 0 1.5.448 1.5 1V26H9z" fill="#55acee"/><path d="M4.458 7.5h2V0h-2v7.5z" fill="#414042"/></g></svg>