<svg xmlns="http://www.w3.org/2000/svg" viewBox="0 0 45 45"><defs><clipPath id="a"><path d="M0 0h36v36H0V0z"/></clipPath></defs><g clip-path="url(#a)" transform="matrix(1.25 0 0 -1.25 0 45)"><path d="M35 0v3.5C35 6.814 31.314 9 28 9H16c-3.313 0-7-2.186-7-5.5V0h26z" fill="#292f33"/><path d="M18.328 8.98C19.794 7.915 21.292 7 22 7c.708 0 2.194.915 3.66 1.98v3.205h-7.332V8.98z" fill="#f7dece"/><path d="M18.321 10.821c1.023-1.155 2.291-1.468 3.67-1.468 1.378 0 2.646.313 3.67 1.468v2.936h-7.34v-2.936z" fill="#eec2ad"/><path d="M18.87 30.663c0 1.433 1.433 2.594 3.201 2.594 1.77 0 3.202-1.16 3.202-2.594 0-1.433-1.433-2.594-3.202-2.594-1.768 0-3.202 1.161-3.202 2.594" fill="#6d6e71"/><path d="M31.799 19.638c0 1.388-.683 2.511-1.54 2.581-.89 4.841-4.212 8.444-8.187 8.444-3.976 0-7.3-3.603-8.188-8.444-.858-.07-1.54-1.193-1.54-2.58 0-1.397.69-2.528 1.555-2.584.913-4.516 4.22-7.145 8.173-7.145 3.952 0 7.258 2.63 8.172 7.145.864.056 1.555 1.187 1.555 2.583" fill="#f7dece"/><path d="M22.071 12.73c-1.634 0-2.266.488-2.376.586a.649.649 0 0 0 .838.99c.04-.025.454-.278 1.538-.278 1.136 0 1.537.276 1.541.28a.634.634 0 0 0 .902-.065.66.66 0 0 0-.067-.927c-.109-.098-.743-.586-2.376-.586" fill="#df1f32"/><path d="M22.72 15h-1.297c-.357 0-.648.142-.648.5s.29.5.648.5h1.297c.358 0 .649-.142.649-.5s-.291-.5-.65-.5" fill="#c1694f"/><path d="M31.799 25.475c-1.297 4.54-5.187 5.837-7.255 5.837-1.176 0-2.472-.649-2.472-.649s-1.297.65-2.594.65c-1.946 0-5.837-1.298-7.134-5.838-1.07-3.74 1.297-7.134 1.297-7.134 0 1.946 1.297 5.837 4.539 5.837 3.243 0 3.892 2.594 3.892 2.594s.509-2.594 3.752-2.594 4.678-3.89 4.678-5.837c0 0 2.366 3.393 1.297 7.134" fill="#808285"/><path d="M31.799 17.692a.648.648 0 1 0-1.297.001.648.648 0 0 0 1.297 0M13.64 17.692a.649.649 0 1 1-1.297 0 .649.649 0 0 1 1.298 0" fill="#aa8dd8"/><path d="M19.5 21h-2c-.275 0-.5.225-.5.5s.225.5.5.5h2c.275 0 .5-.225.5-.5s-.225-.5-.5-.5M26.5 21h-2c-.275 0-.5.225-.5.5s.225.5.5.5h2c.275 0 .5-.225.5-.5s-.225-.5-.5-.5" fill="#808285"/><path d="M18.5 17.75a.752.752 0 0 0-.75.75v1c0 .413.337.75.75.75s.75-.337.75-.75v-1a.752.752 0 0 0-.75-.75M25.5 17.75a.752.752 0 0 0-.75.75v1c0 .413.337.75.75.75s.75-.337.75-.75v-1a.752.752 0 0 0-.75-.75" fill="#662113"/><path d="M18 10c.548-.379 4-3 4-3s-3.333-3.333-4-3c-.667.333-1.083 4.333-1 5 .083.667.458 1.375 1 1" fill="#f5f8fa"/><path d="M25.99 10c-.549-.379-4-3-4-3s3.332-3.333 4-3c.666.333 1.082 4.333 1 5-.084.667-.459 1.375-1 1" fill="#f5f8fa"/><path d="M12.083 2.66c.251 0 .401-2.66.401-2.66h-.956s.193 2.66.555 2.66M15.083 2.66c.251 0 .401-2.66.401-2.66h-.956s.193 2.66.555 2.66M31.929 2.66c-.251 0-.401-2.66-.401-2.66h.956s-.194 2.66-.555 2.66M28.929 2.66c-.251 0-.401-2.66-.401-2.66h.956s-.194 2.66-.555 2.66" fill="#66757f"/><path d="M7.382 0h1.71L5.425 9.707a.802.802 0 0 1-1.031.466.802.802 0 0 1-.465-1.031L7.382 0z" fill="#662113"/><path d="M7.854 12.335c.468-1.24.178-2.498-.65-2.812-.825-.311-1.875.441-2.344 1.681-.468 1.239-.178 2.498.649 2.811.827.312 1.877-.44 2.345-1.68" fill="#c1694f"/><path d="M5.863 9.303l-1.996-.754a2.139 2.139 0 0 0-2.749 1.24 2.137 2.137 0 0 0 1.242 2.75l1.995.755a2.14 2.14 0 0 0 2.75-1.241 2.14 2.14 0 0 0-1.242-2.75" fill="#662113"/><path d="M3.363 10.639c.468-1.24.178-2.498-.649-2.812-.826-.311-1.876.44-2.345 1.68-.468 1.24-.178 2.499.65 2.812.826.312 1.876-.44 2.344-1.68" fill="#c1694f"/><path d="M11.318 0l-.466 1.588A2.353 2.353 0 0 1 7.94 3.18l-1.255-.368A2.35 2.35 0 0 1 5.076 0h6.242z" fill="#f7dece"/></g></svg>