<svg xmlns="http://www.w3.org/2000/svg" viewBox="0 0 45 45"><defs><clipPath id="a"><path d="M0 0h36v36H0V0z"/></clipPath></defs><g clip-path="url(#a)" transform="matrix(1.25 0 0 -1.25 0 45)"><path d="M30 8h-3.641v3.71H17.64V8H14a6 6 0 0 1-6-6V0h28v2c0 3.314-2.685 6-6 6" fill="#77b255"/><path d="M17.632 10.027c1.216-1.374 2.724-1.746 4.364-1.746 1.639 0 3.147.373 4.364 1.746v3.491h-8.728v-3.49z" fill="#664131"/><path d="M15.444 20.064c0-1.448-.734-2.622-1.639-2.622s-1.639 1.174-1.639 2.622.734 2.623 1.64 2.623c.904 0 1.638-1.175 1.638-2.623M31.833 20.064c0-1.448-.733-2.622-1.639-2.622-.905 0-1.638 1.174-1.638 2.622s.733 2.623 1.638 2.623c.906 0 1.639-1.175 1.639-2.623" fill="#7c533e"/><path d="M13.477 19.04c0 5.59 3.816 10.122 8.523 10.122s8.522-4.532 8.522-10.121c0-5.59-3.814-10.121-8.521-10.121-4.708 0-8.524 4.532-8.524 10.12" fill="#7c533e"/><path d="M26.525 14.654l-1.268.274c-.405.094-1.173.072-1.536.072H20.033c-.363 0-1.13.022-1.536-.072l-1.266-.274c-.349-.1-.55-.393-.45-.74.081-.288.345-.44.63-.44.06 0 .12.026.18.041l1.266.371a.637.637 0 0 1-.066-.675.655.655 0 0 1 .88-.289l1.034.517a.636.636 0 0 1 .638-.587c.242 0 .473.134.587.364l.07.137-.053-.137c.114-.23.223-.364.465-.364a.64.64 0 0 1 .638.587l1.034-.517a.654.654 0 0 1 .879.289.64.64 0 0 1-.065.675l1.266-.37c.06-.016.121-.043.18-.043.285 0 .547.153.63.441.1.347-.1.64-.449.74M22 32.52c5.648 0 9.178-4.168 9.178-7.64 0-3.473-.706-4.863-1.412-3.473l-1.412 2.778s-4.236 0-5.648 1.39c0 0 2.118-4.168-2.118 0 0 0 .706-2.78-3.53.694 0 0-2.118-1.39-2.824-4.862-.196-.964-1.412 0-1.412 3.473s2.824 7.64 9.178 7.64" fill="#0b0200"/><path d="M18 19c-.55 0-1 .45-1 1v1c0 .55.45 1 1 1s1-.45 1-1v-1c0-.55-.45-1-1-1M26 19c-.55 0-1 .45-1 1v1c0 .55.45 1 1 1s1-.45 1-1v-1c0-.55-.45-1-1-1"/><path d="M22.75 16.25h-1.5a.752.752 0 0 0-.75.75c0 .413.337.75.75.75h1.5c.413 0 .75-.337.75-.75a.752.752 0 0 0-.75-.75" fill="#3d2e24"/><path d="M24.755 35.117s-2.214-1-2.751-2.75c-.537-1.75.188-.587.917 0 .729.585 2.03 1.61 2.75 1.833.72.224-.217.917-.916.917" fill="#66757f"/><path d="M23.838 33.742c5.13 0 8.71-1.971 9.177-4.127.51-2.365-.93-2.533-.93-2.533s-.134-1.341-1.006-1.106c-1.416.38-4.41.437-9.92.888-5.508.452-7.948.05-7.948.05s-.898.084-.938.939c-.041.855-1.098-.16-1.273.845-.176 1.005 5.598 5.044 12.838 5.044" fill="#66757f"/><path d="M27.47 0c-.28 3.867-4.091 7.954-9.64 9.879-6.702 2.326-13.383.614-14.923-3.823C2.236 4.12 2.655 1.985 3.896 0H27.47z" fill="#d99e82"/><path d="M19.782 4.618c-.3-.862.363-1.876 1.48-2.264 1.118-.386 2.266-.002 2.565.862.3.861-.363 1.876-1.48 2.262-1.118.388-2.266.003-2.565-.86" fill="#5c913b"/><path d="M5.4 2.999c-.298-.863.365-1.876 1.482-2.264 1.117-.387 2.265-.003 2.564.861.3.862-.363 1.876-1.48 2.263-1.117.388-2.266.003-2.565-.86" fill="#269"/><path d="M7.249 7.98c-.299-.863.364-1.877 1.481-2.265 1.116-.385 2.265-.001 2.564.863.3.86-.364 1.876-1.48 2.262-1.117.388-2.266.003-2.565-.86" fill="#dd2e44"/><path d="M14.276 7.995c-.272-.872.423-1.864 1.552-2.216 1.128-.352 2.264.07 2.536.941.271.872-.424 1.864-1.552 2.215-1.128.353-2.264-.069-2.536-.94" fill="#ffcc4d"/><path d="M1 6c.078 1.208 1.394 3.184 3 3 1.665-.19.129-3.129 0-4s.144-2.938-1-3C1.454 1.916.86 3.814 1 6" fill="#7c533e"/></g></svg>