<svg xmlns="http://www.w3.org/2000/svg" viewBox="0 0 45 45"><defs><clipPath id="a"><path d="M0 36h36V0H0v36z"/></clipPath><clipPath id="b"><path d="M0 0h33v36H0V0z"/></clipPath><clipPath id="c"><path d="M12 9C8.687 9 5 6.815 5 3.5V0h26v3.5C31 6.815 27.314 9 24 9H12z"/></clipPath><clipPath id="d"><path d="M0 0h33v36H0V0z"/></clipPath><clipPath id="e"><path d="M0 36h36V0H0v36z"/></clipPath><clipPath id="f"><path d="M17.997 36C13 36 10.874 34.663 9 32c-1.993-2.831 0-5-3-7-1.861-1.24 6-2.313 12-2.313S31.86 23.76 30 25c-3 2-1.007 4.169-3 7-1.874 2.663-5 4-9.003 4z"/></clipPath></defs><g clip-path="url(#a)" transform="matrix(1.25 0 0 -1.25 0 45)"><path d="M31 0v3.5C31 6.814 27.314 9 24 9H12C8.687 9 5 6.814 5 3.5V0h26z" fill="#f2760f"/><path d="M17.945 30.93c4.105 0 10.947-2.052 10.947-10.946 0-8.896 0-10.948-2.052-10.948-2.053 0-4.79 2.052-8.895 2.052-4.105 0-6.785-2.052-8.895-2.052-2.288 0-2.054 8.21-2.054 10.948 0 8.894 6.844 10.947 10.95 10.947" fill="#0b0200"/><path d="M14 9h8s-1.018-5-4-5-4 5-4 5" fill="#292f33"/><path d="M23 5H13v4h10V5z" fill="#292f33"/><path d="M14.328 8.982c1.466-1.065 2.964-.98 3.672-.98.708 0 2.194-.085 3.66.98v3.203h-7.332V8.982z" fill="#7c533e"/><path d="M14.322 10.821c1.022-1.155 2.29-1.468 3.668-1.468 1.38 0 2.647.313 3.67 1.468v2.936h-7.338v-2.936z" fill="#664131"/><path d="M9.734 20.282c0 5.834 3.676 10.564 8.21 10.564 4.535 0 8.21-4.73 8.21-10.564 0-5.833-3.675-10.285-8.21-10.285-4.534 0-8.21 4.452-8.21 10.285" fill="#7c533e"/><path d="M17.945 12.457c-1.606 0-2.447.794-2.537.885a.682.682 0 0 0 0 .967.686.686 0 0 0 .961.006c.035-.032.551-.491 1.576-.491 1.038 0 1.555.473 1.576.492a.69.69 0 0 0 .963-.019.678.678 0 0 0-.004-.955c-.09-.091-.93-.885-2.535-.885" fill="#df1f32"/><path d="M7.725 17c-.02 1-.044.224-.044.465 0 3.422 2.053-.494 2.053 1.943 0 2.439 1.368 2.683 2.737 4.051.684.685 2.052 2.026 2.052 2.026s3.421-2.067 6.158-2.067c2.737 0 5.474-1.375 5.474-4.112s2.053 1.584 2.053-1.837c0-.244-.023.531-.04-.469h.72c.004 2 .004 1.924.004 3.202 0 8.895-6.84 12.207-10.948 12.207-4.104 0-10.947-3.257-10.947-12.152 0-.793-.02-1.257.008-3.257h.72z" fill="#0b0200"/><path d="M14.608 18.113a.85.85 0 0 0-.846.847v.844c0 .465.381.846.846.846a.85.85 0 0 0 .847-.846v-.844a.85.85 0 0 0-.847-.847M21.373 18.113a.85.85 0 0 0-.846.847v.844c0 .465.381.846.846.846a.849.849 0 0 0 .846-.846v-.844a.85.85 0 0 0-.846-.847"/><path d="M18.836 15.5h-1.69a.423.423 0 0 0-.423.423v.153c0 .234.189.424.423.424h1.69c.233 0 .424-.19.424-.424v-.153a.424.424 0 0 0-.424-.423" fill="#3d2e24"/></g><g clip-path="url(#b)" transform="matrix(1.25 0 0 -1.25 0 45)"><path d="M11.444 20.064c0-1.448-.734-2.622-1.639-2.622s-1.639 1.174-1.639 2.622.734 2.623 1.64 2.623c.904 0 1.638-1.175 1.638-2.623M27.833 20.064c0-1.448-.733-2.622-1.639-2.622-.905 0-1.638 1.174-1.638 2.622s.733 2.623 1.638 2.623c.906 0 1.639-1.175 1.639-2.623" fill="#7c533e"/><path d="M19 1.063L18 0l-1 1-1 4h3.5L19 1.062z" fill="#292f33"/></g><g clip-path="url(#c)" fill="#fff75f" transform="matrix(1.25 0 0 -1.25 0 45)"><path d="M27 0h-3v9h3V0zM12 0H9v9h3V0z"/></g><g clip-path="url(#d)" transform="matrix(1.25 0 0 -1.25 0 45)"><path d="M10.5 9c0-1.068 1.5-3.662 3.5-5.798C15.581 1.515 18 0 18 0c0 3.271-1 4.27-2 5.338C15 6.404 13 6.864 13 9c0 1.066-2.5 0-2.5 0M25.5 9c0-1.068-1.5-3.662-3.5-5.798C20.419 1.515 18 0 18 0c0 3.271 1 4.27 2 5.338C21 6.404 23 6.864 23 9c0 1.066 2.5 0 2.5 0" fill="#55acee"/></g><g clip-path="url(#e)" transform="matrix(1.25 0 0 -1.25 0 45)"><path d="M30 25c-3 2-1.008 4.169-3 7-1.874 2.663-5 4-9.003 4C13 36 10.874 34.663 9 32c-1.992-2.831 0-5-3-7-1.861-1.24 6-2.313 12-2.313S31.861 23.76 30 25" fill="#fff75f"/></g><g clip-path="url(#f)" transform="matrix(1.25 0 0 -1.25 0 45)"><path d="M16 24.5h-.5c-3.604 0-10.687 1.035-12.724 2.053a.5.5 0 1 0 .448.894c1.793-.897 8.185-1.854 11.776-1.941V36a.5.5 0 0 0 1 0V24.5zM20.5 24.5H20V36a.5.5 0 0 0 1 0V25.504c4.542.072 14.013 1.061 15.776 1.943a.501.501 0 0 0 .448-.894C35.103 25.493 24.441 24.5 20.5 24.5" fill="#ffac33"/></g></svg>