<svg xmlns="http://www.w3.org/2000/svg" viewBox="0 0 45 45"><defs><clipPath id="a"><path d="M0 0h33v36H0V0z"/></clipPath><clipPath id="b"><path d="M17.998 36C13 36 10.874 34.663 9 32c-1.993-2.831 0-5-3-7-1.861-1.24 6-2.313 12-2.313S31.861 23.76 30 25c-3 2-1.007 4.169-3 7-1.873 2.663-5 4-9.002 4z"/></clipPath></defs><g clip-path="url(#a)" transform="matrix(1.25 0 0 -1.25 0 45)"><path d="M32 0v2a6 6 0 0 1-6 6H10a6 6 0 0 1-6-6V0h28z" fill="#f2760f"/><path d="M23 5H13v4h10V5z" fill="#292f33"/><path d="M14 9h8s-1.018-7-4-7-4 7-4 7" fill="#292f33"/><path d="M13.64 5.962c1.745-1.268 2.849-1.963 4.36-1.963 1.512 0 2.616.696 4.36 1.963v5.749h-8.72V5.96z" fill="#af7e57"/><path d="M13.632 10.027c1.216-1.374 2.724-1.746 4.364-1.746 1.639 0 3.147.373 4.364 1.746v3.491h-8.728v-3.49z" fill="#9b6a49"/><path d="M11.444 20.064c0-1.448-.734-2.622-1.639-2.622s-1.639 1.174-1.639 2.622.734 2.623 1.64 2.623c.904 0 1.638-1.175 1.638-2.623M27.834 20.064c0-1.448-.734-2.622-1.639-2.622-.906 0-1.638 1.174-1.638 2.622s.732 2.623 1.638 2.623c.905 0 1.639-1.175 1.639-2.623" fill="#af7e57"/><path d="M9.477 19.04c0 5.59 3.816 10.122 8.523 10.122s8.523-4.532 8.523-10.121c0-5.59-3.816-10.121-8.523-10.121s-8.523 4.532-8.523 10.12" fill="#af7e57"/><path d="M18 12.198c-2.754 0-3.6.705-3.74.848a.656.656 0 0 0 .902.95c.051-.037.721-.487 2.838-.487 2.201 0 2.836.485 2.842.49a.64.64 0 0 0 .914-.015.669.669 0 0 0-.014-.938c-.142-.143-.988-.848-3.742-.848" fill="#915a34"/><path d="M18 32.52c5.648 0 9.178-4.168 9.178-7.64 0-3.473-.705-4.863-1.412-3.473l-1.412 2.778s-4.235 0-5.647 1.39c0 0 2.117-4.168-2.119 0 0 0 .707-2.78-3.53.694 0 0-2.118-1.39-2.824-4.862-.196-.964-1.412 0-1.412 3.473s2.824 7.64 9.178 7.64" fill="#60352a"/><path d="M14 19c-.55 0-1 .45-1 1v1c0 .55.45 1 1 1 .551 0 1-.45 1-1v-1c0-.55-.449-1-1-1M22 19c-.549 0-1 .45-1 1v1c0 .55.451 1 1 1 .551 0 1-.45 1-1v-1c0-.55-.449-1-1-1" fill="#60352a"/><path d="M18.75 16.25h-1.5a.752.752 0 0 0-.75.75c0 .413.338.75.75.75h1.5a.75.75 0 0 0 0-1.5" fill="#915a34"/><path d="M30 25c-3 2-1.008 4.169-3 7-1.873 2.663-5 4-9.002 4C13 36 10.874 34.663 9 32c-1.992-2.831 0-5-3-7-1.861-1.24 6-2.313 12-2.313S31.861 23.76 30 25" fill="#fff75f"/><path d="M19 1.063L18 0l-1 1v3h2V1.062z" fill="#292f33"/><path d="M12 0H9v8h3V0zM27 0h-3v8h3V0z" fill="#fff75f"/><path d="M11 8c0-1 1-3 3-5 1.582-1.581 4-3 4-3 0 3.063-1 4-2 5s-3 2-3 4c0 1-2-1-2-1M25 8c0-1-1-3-3-5-1.58-1.581-4-3-4-3 0 3.063 1 4 2 5s3 2 3 4c0 1 2-1 2-1" fill="#55acee"/></g><g clip-path="url(#b)" transform="matrix(1.25 0 0 -1.25 0 45)"><path d="M16 24.5h-.5c-3.604 0-10.687 1.035-12.724 2.053a.5.5 0 1 0 .448.894c1.793-.897 8.185-1.854 11.776-1.941V36a.5.5 0 0 0 1 0V24.5zM20.5 24.5H20V36a.5.5 0 0 0 1 0V25.504c4.542.072 14.013 1.061 15.776 1.943a.501.501 0 0 0 .448-.894C35.103 25.493 24.441 24.5 20.5 24.5" fill="#ffac33"/></g></svg>