<svg xmlns="http://www.w3.org/2000/svg" viewBox="0 0 45 45"><defs><clipPath id="a"><path d="M0 0h33v36H0V0z"/></clipPath><clipPath id="b"><path d="M12 9C8.687 9 5 6.815 5 3.5V0h26v3.5C31 6.815 27.314 9 24 9H12z"/></clipPath><clipPath id="c"><path d="M0 0h33v36H0V0z"/></clipPath><clipPath id="d"><path d="M0 36h36V0H0v36z"/></clipPath></defs><g clip-path="url(#a)" transform="matrix(1.25 0 0 -1.25 0 45)"><path d="M31 0v3.5C31 6.814 27.314 9 24 9H12C8.687 9 5 6.814 5 3.5V0h26z" fill="#9266cc"/></g><g clip-path="url(#b)" transform="matrix(1.25 0 0 -1.25 0 45)"><path d="M23.5 8.75c0 .084-.011.167-.021.25H12.521c-.01-.083-.021-.166-.021-.25 0-1.27 1.235-2.366 3.031-2.901C15.685 4.245 16.726 3 18 3c1.274 0 2.315 1.245 2.469 2.849C22.265 6.384 23.5 7.48 23.5 8.75" fill="#f7dece"/><path d="M24.796 10.5H11.204l-.17-1.306A3.479 3.479 0 0 1 11 8.75c0-1.688 1.212-3.175 3.221-4.024C14.756 2.832 16.258 1.5 18 1.5s3.244 1.332 3.779 3.226C23.788 5.575 25 7.062 25 8.75c0 .149-.015.296-.034.444l-.17 1.306zM23.479 9c.01-.083.021-.166.021-.25 0-1.27-1.235-2.366-3.031-2.901C20.315 4.245 19.274 3 18 3c-1.274 0-2.315 1.245-2.469 2.849C13.735 6.384 12.5 7.48 12.5 8.75c0 .084.011.167.022.25h10.957" fill="#744eaa"/></g><g clip-path="url(#c)" transform="matrix(1.25 0 0 -1.25 0 45)"><path d="M14.328 8.98C15.794 7.915 17.292 7 18 7c.708 0 2.194.915 3.66 1.98v3.205h-7.332V8.98z" fill="#f7dece"/><path d="M14.321 10.821c1.023-1.155 2.291-1.468 3.67-1.468 1.378 0 2.646.313 3.67 1.468v2.936h-7.34v-2.936z" fill="#eec2ad"/><path d="M9.734 20.283c0 5.834 3.676 10.563 8.21 10.563 4.535 0 8.21-4.73 8.21-10.563S22.48 9.997 17.945 9.997c-4.534 0-8.21 4.453-8.21 10.286" fill="#f7dece"/><path d="M17.944 12.457c-1.605 0-2.446.794-2.536.885a.685.685 0 0 0 .96.973c.035-.032.553-.491 1.576-.491 1.04 0 1.557.473 1.577.492a.69.69 0 0 0 .963-.019.678.678 0 0 0-.004-.955c-.09-.091-.93-.885-2.536-.885" fill="#df1f32"/><path d="M14.608 18.114a.849.849 0 0 0-.846.846v.845c0 .465.381.846.846.846a.85.85 0 0 0 .847-.846v-.845a.85.85 0 0 0-.847-.846M21.373 18.114a.849.849 0 0 0-.846.846v.845c0 .465.381.846.846.846a.849.849 0 0 0 .846-.846v-.845a.849.849 0 0 0-.846-.846" fill="#662113"/><path d="M18.837 15.5h-1.691a.423.423 0 0 0-.423.423v.153c0 .234.189.424.423.424h1.69c.233 0 .424-.19.424-.424v-.153a.424.424 0 0 0-.423-.423" fill="#c1694f"/></g><g clip-path="url(#d)" transform="matrix(1.25 0 0 -1.25 0 45)"><path d="M11.444 20.064c0-1.448-.734-2.622-1.639-2.622s-1.639 1.174-1.639 2.622.734 2.623 1.64 2.623c.904 0 1.638-1.175 1.638-2.623M27.833 20.064c0-1.448-.733-2.622-1.639-2.622-.905 0-1.638 1.174-1.638 2.622s.733 2.623 1.638 2.623c.906 0 1.639-1.175 1.639-2.623" fill="#f7dece"/><path d="M18 26.271s6.752-1.756 7.787-4.916c.451.965.713 3.138.713 4.33 0 3.626-3 6.315-7.438 6.315h-2.124C13.042 32 9.5 29.311 9.5 25.685c0-1.192.262-3.49.712-4.455C11.248 24.391 18 26.271 18 26.271" fill="#e6e7e8"/><path d="M26.477 25.099c-1.318 1.053-2.866 1.922-4.348 2.416a.653.653 0 1 1-.413-1.241c1.574-.524 3.292-1.564 4.603-2.761.079.548.133 1.1.159 1.586M9.61 24.027c1.895 1.355 8.186 5.421 15.434 5.477-.41.472-.89.894-1.426 1.253-6.334-.47-11.749-3.626-14.113-5.215.01-.43.043-.957.105-1.515" fill="#d1d3d4"/><path d="M25.925 28.186c-.027.003-.051.016-.08.016-2.676 0-5.385-.672-8.053-1.992.132.04.208.061.208.061s.77-.2 1.829-.586c2.008.798 4.026 1.209 6.017 1.209.192 0 .36.086.48.217a5.578 5.578 0 0 1-.401 1.075M9.677 27.12c2.34 1.498 6.791 3.734 11.74 4.596-.75.222-1.544.284-2.355.284h-1.667c-2.572-1-4.865-1.815-6.63-2.788-.507-.64-.884-1.304-1.088-2.092" fill="#d1d3d4"/></g></svg>