<svg xmlns="http://www.w3.org/2000/svg" viewBox="0 0 45 45"><defs><clipPath id="a"><path d="M0 36h36V0H0v36z"/></clipPath></defs><g clip-path="url(#a)" transform="matrix(1.25 0 0 -1.25 0 45)"><path d="M18 33c6 0 16-3 16-16s0-16-3-16-7 3-13 3S8.085 1 5 1C1.657 1 2 13 2 17c0 13 10 16 16 16" fill="#ffe51e"/><path d="M6 17.438c0 8.526 5.373 15.438 12 15.438s12-6.912 12-15.438C30 8.912 24.627 2 18 2S6 8.912 6 17.438" fill="#ffdc5d"/><path d="M13.31 23.905l-2.604-2.603c-.49-.49-.986-.891-1.424-1.245-1.201-.97-2.07-1.67-2.224-3.526.2-5.28 2.634-9.947 6.364-12.18 1.716.323 7.44.325 9.16.004 3.69 2.212 6.12 6.83 6.354 12.108-.316 3.208-3.913 4.699-7.12 4.699-3.367 0-7.35 2.092-8.506 2.743m-.037-20.57l-.17.098c-4.101 2.356-6.782 7.384-6.997 13.12.19 2.32 1.35 3.256 2.577 4.247.44.355.895.722 1.349 1.177l3.125 3.124.32-.191c.046-.028 4.702-2.794 8.339-2.794 3.624 0 7.696-1.761 8.07-5.628-.248-5.742-2.926-10.717-6.984-13.052l-.17-.098-.188.049c-1.32.34-7.771.338-9.082-.003l-.19-.05z" fill="#ffac33"/><path d="M7.118 16c0 7.732 4.872 14 10.882 14s10.883-6.268 10.883-14C28.883 8.269 24.01 2 18 2 11.99 2 7.118 8.269 7.118 16" fill="#ffdc5d"/><path d="M28.938 16.395c-.318 3.275-3.915 4.767-7.122 4.767-3.367 0-7.35 2.091-8.506 2.742l-2.604-2.603c-.49-.489-.986-.89-1.424-1.244-1.202-.97-2.07-1.67-2.225-3.526l-.95.08c.19 2.262 1.348 3.198 2.575 4.188.44.355.895.722 1.35 1.177l3.124 3.125.32-.192c.046-.028 4.702-2.793 8.34-2.793 3.624 0 7.696-1.762 8.07-5.629l-.948-.092z" fill="#ffac33"/><path d="M3.064 12c-.03.325-.064.648-.064 1 0 5.001 3-.563 3 3 0 3.564 2 4.001 4 6.001l3 3s5-3 9-3S30 20 30 16s3 2.001 3-3c0-.355-.033-.673-.057-1h1.049C34 13.477 34 15.132 34 17c0 13-10 18-16 18S2 30 2 17c0-1.158-.03-2.986.012-5h1.052z" fill="#ffe51e"/><path d="M18 6c-2.347 0-3.575 1.16-3.707 1.293a.999.999 0 0 0 1.404 1.424C15.749 8.67 16.503 8 18 8c1.519 0 2.273.689 2.305.719a1.007 1.007 0 0 0 1.408-.03.993.993 0 0 0-.006-1.396C21.575 7.16 20.347 6 18 6" fill="#df1f32"/><path d="M19 11h-2a1 1 0 1 0 0 2h2a1 1 0 1 0 0-2" fill="#c1694f"/><path d="M13 14a1 1 0 0 0-1 1v2a1 1 0 0 0 2 0v-2a1 1 0 0 0-1-1M23 14a1 1 0 0 0-1 1v2a1 1 0 1 0 2 0v-2a1 1 0 0 0-1-1" fill="#662113"/></g></svg>