<svg xmlns="http://www.w3.org/2000/svg" viewBox="0 0 45 45"><defs><clipPath id="a"><path d="M0 36h36V0H0v36z"/></clipPath></defs><g clip-path="url(#a)" transform="matrix(1.25 0 0 -1.25 0 45)"><path d="M30.5 22c-.428 0-.824-.188-1.177-.49C27.69 27.54 23.244 31.874 18 31.874c-5.244 0-9.691-4.335-11.324-10.366-.352.303-.748.491-1.176.491C4.119 22 3 20.21 3 18s1.119-4 2.5-4c.225 0 .438.062.646.151C7.006 6.712 11.978 1 18 1c6.021 0 10.993 5.713 11.855 13.153.207-.09.42-.153.645-.153 1.381 0 2.5 1.791 2.5 4 0 2.21-1.119 4.002-2.5 4.002" fill="#7c533e"/><path d="M6 23.89C6 28.945 10.958 35 18 35c7.041 0 12-6.055 12-11.11 0-.723-4.959-2.89-12-2.89-7.042 0-12 2.167-12 2.89" fill="#dd2e44"/><path d="M18 5c-2.21 0-4.357 1.061-4.447 1.105a1.001 1.001 0 0 0 .893 1.791C14.464 7.886 16.27 7 18 7c1.73 0 3.536.886 3.554.896a1 1 0 1 0 .893-1.791C22.356 6.061 20.211 5 18 5M19 10h-2a1 1 0 1 0 0 2h2a1 1 0 1 0 0-2" fill="#3d2e24"/><path d="M18 35s5-4 6-8c.97-3.88 0-7 0-7H12s-1 2.999 0 7c1 4 6 8 6 8" fill="#77b255"/><path d="M6 25s3-3 12-3 12 3 12 3 1-2 0-3-4-3-12-3-11 2-12 3 0 3 0 3M16 35c0 .553.896 1 2 1 1.105 0 2-.447 2-1 0-.551-.895-1-2-1-1.104 0-2 .449-2 1" fill="#414042"/><path d="M15 25c0 1.104 1.343 2 3 2s3-.896 3-2c0-1.105-1.343-2-3-2s-3 .895-3 2" fill="#ffd983"/><path d="M13 14a1 1 0 0 0-1 1v2a1 1 0 0 0 2 0v-2a1 1 0 0 0-1-1M23 14a1 1 0 0 0-1 1v2a1 1 0 1 0 2 0v-2a1 1 0 0 0-1-1"/></g></svg>