<svg xmlns="http://www.w3.org/2000/svg" viewBox="0 0 36 36"><path fill="#963b22" d="M18 4c6 0 16 3 16 16s0 16-3 16-7-3-13-3-9.915 3-13 3c-3.343 0-3-12-3-16C2 7 12 4 18 4"/><path fill="#d5ab88" d="M6 19.562c0-8.526 5.373-15.438 12-15.438s12 6.912 12 15.438S24.627 35 18 35 6 28.088 6 19.562"/><path fill="#df1f32" d="M18 31c-2.347 0-3.575-1.16-3.707-1.293a.999.999 0 0 1 1.404-1.424c.051.047.806.717 2.303.717 1.519 0 2.273-.69 2.305-.719a1.006 1.006 0 0 1 1.408.029.994.994 0 0 1-.006 1.397C21.575 29.84 20.347 31 18 31"/><path fill="#c1694f" d="M19 26h-2a1 1 0 1 1 0-2h2a1 1 0 1 1 0 2"/><path fill="#963b22" d="M3.064 25c-.03-.325-.064-.647-.064-1 0-5 3 .562 3-3s2-4 4-6l3-3s5 3 9 3 8 2 8 6 3-2 3 3c0 .355-.033.673-.058 1h1.049C34 23.523 34 21.868 34 20 34 7 24 2 18 2S2 7 2 20c0 1.158-.028 2.986.012 5z"/><path fill="#a7a9ac" d="M8 6h20V5l-3-1-2-3-3 1-2-2-2 2-3-1-2 3-3 1z"/><ellipse cx="18" cy="3.5" fill="#f1f2f2" rx="1" ry="1.5"/><circle cx="14" cy="4" r="1" fill="#f1f2f2"/><circle cx="22" cy="4" r="1" fill="#f1f2f2"/><path fill="#662113" d="M13 23a1 1 0 0 1-1-1v-2a1 1 0 1 1 2 0v2a1 1 0 0 1-1 1m10 0a1 1 0 0 1-1-1v-2a1 1 0 1 1 2 0v2a1 1 0 0 1-1 1"/></svg>