<svg xmlns="http://www.w3.org/2000/svg" viewBox="0 0 45 45"><defs><clipPath id="a"><path d="M0 0h33v36H0V0z"/></clipPath><clipPath id="b"><path d="M9.99 8a6 6 0 0 1-5.999-6V0H31.99v2c0 3.314-2.685 6-6 6h-16z"/></clipPath><clipPath id="c"><path d="M0 0h33v36H0V0z"/></clipPath><clipPath id="d"><path d="M0 36h36V0H0v36z"/></clipPath></defs><g clip-path="url(#a)" transform="matrix(1.25 0 0 -1.25 0 45)"><path d="M31.99 0v2a6 6 0 0 1-6 6h-16a6 6 0 0 1-6-6V0h28z" fill="#77b255"/></g><g clip-path="url(#b)" transform="matrix(1.25 0 0 -1.25 0 45)"><path d="M11-1.75a.749.749 0 0 0-.534 1.276c5.537 5.617 12.459 9.607 17.223 9.93.416.015.772-.284.799-.697a.749.749 0 0 0-.697-.799c-3.683-.25-10.138-3.28-16.257-9.486A.743.743 0 0 0 11-1.75" fill="#5c913b"/></g><g clip-path="url(#c)" transform="matrix(1.25 0 0 -1.25 0 45)"><path d="M13.63 7.9c1.744-1.269 2.848-1.964 4.36-1.964 1.512 0 2.616.696 4.36 1.963v3.811h-8.72V7.9z" fill="#7c533e"/><path d="M13.622 10.027c1.216-1.374 2.724-1.746 4.364-1.746 1.64 0 3.147.373 4.363 1.746v3.491h-8.727v-3.49z" fill="#ffac33"/><path d="M11.435 20.064c0-1.448-.734-2.622-1.64-2.622-.904 0-1.638 1.174-1.638 2.622s.734 2.623 1.639 2.623 1.639-1.175 1.639-2.623M27.823 20.064c0-1.448-.733-2.622-1.639-2.622-.905 0-1.638 1.174-1.638 2.622s.733 2.623 1.638 2.623c.906 0 1.64-1.175 1.64-2.623" fill="#7c533e"/><path d="M9.468 19.04c0 5.59 3.733 11.002 8.439 11.002 4.707 0 8.606-5.413 8.606-11.002 0-5.588-3.816-10.12-8.523-10.12-4.706 0-8.522 4.532-8.522 10.12" fill="#7c533e"/><path d="M13.99 19c-.55 0-1 .45-1 1v1c0 .55.45 1 1 1s1-.45 1-1v-1c0-.55-.45-1-1-1M21.99 19c-.55 0-1 .45-1 1v1c0 .55.45 1 1 1s1-.45 1-1v-1c0-.55-.45-1-1-1"/><path d="M18.74 16.25h-1.5a.752.752 0 0 0-.75.75c0 .413.337.75.75.75h1.5c.413 0 .75-.337.75-.75a.752.752 0 0 0-.75-.75" fill="#3d2e24"/></g><g clip-path="url(#d)" transform="matrix(1.25 0 0 -1.25 0 45)"><path d="M18 26.066s7.149-1.858 8.245-5.204c.478 1.02.755 3.257.755 4.518 0 3.839-3 6.62-7.875 6.62h-2.25C12.75 32 9 29.219 9 25.38c0-1.261.277-3.663.754-4.684 1.097 3.348 8.246 5.37 8.246 5.37" fill="#e6e7e8"/><path d="M26.977 24.824c-1.397 1.115-3.035 2.036-4.604 2.558a.692.692 0 1 1-.438-1.313c1.666-.556 3.485-1.656 4.873-2.925.084.582.14 1.166.169 1.68M9.117 23.69c2.007 1.435 8.667 5.74 16.34 5.8-.432.5-.94.946-1.51 1.326-6.704-.498-12.438-3.84-14.941-5.521.009-.456.046-1.014.11-1.606" fill="#d1d3d4"/><path d="M26.39 28.094c-.027.004-.053.016-.082.016-2.835 0-5.703-.71-8.528-2.108.14.042.22.064.22.064s.816-.212 1.937-.62c2.126.844 4.263 1.28 6.37 1.28.204 0 .382.09.51.229a5.931 5.931 0 0 1-.426 1.139M9.188 26.964c2.476 1.586 7.19 3.888 12.43 4.8-.795.236-1.635.236-2.492.236H17.36c-2.725-1.059-5.152-1.857-7.023-2.887-.535-.679-.934-1.315-1.15-2.149" fill="#d1d3d4"/><path d="M26.423 15.727c0 1.576-1.617.557-2.115 0-.704-.79-2.115-2.366-3.527-1.577-1.993 1.114-2.82.788-2.82.788s-.826.326-2.82-.788c-1.41-.79-2.82.788-3.526 1.577-.498.557-2.115 1.576-2.115 0 0-2.366 1.41-3.943 1.41-3.943 1.41-3.942 4.23-3.942 4.23-3.942.706-.79 4.937-.79 5.64 0 0 0 2.824 0 4.232 3.942 0 0 1.41 1.577 1.41 3.943" fill="#0b0200"/><path d="M18 13.5c5 0 3-1.381 0-1.381S13 13.5 18 13.5" fill="#7c533e"/></g></svg>