<svg xmlns="http://www.w3.org/2000/svg" viewBox="0 0 45 45"><defs><clipPath id="a"><path d="M0 36h36V0H0v36z"/></clipPath></defs><g clip-path="url(#a)" transform="matrix(1.25 0 0 -1.25 0 45)"><path d="M22 9H4a4 4 0 0 1-4-4V0h26v5a4 4 0 0 1-4 4" fill="#4289c1"/><path d="M22 0h-1v4h1V0zM5 0H4v4h1V0z" fill="#2a6797"/><path d="M10 14V8a3 3 0 1 1 6 0v6h-6z" fill="#f7dece"/><path d="M29 0h-7l1 17h6V0z" fill="#4289c1"/><path d="M31.541 20.557a1.285 1.285 0 0 1-1.517.997L27.35 21H25a2 2 0 0 1-2-2v-2h5c1.079 0 1.953.857 1.992 1.927l.355.073H31c0 .075-.028.144-.045.217.444.275.698.799.586 1.34" fill="#eec2ad"/><path d="M36 20a1 1 0 0 1-1 1l-6-1h-5a1 1 0 0 1-1-1v-2h6l6 2s1 .447 1 1M4 30.063V19a9 9 0 0 1 9-9 9 9 0 0 1 9 9v10.75l-18 .312z" fill="#f7dece"/><path d="M9 14h8s-1-2-4-2-4 2-4 2" fill="#c1694f"/><path d="M9 20a1 1 0 0 0-1 1v1a1 1 0 0 0 2 0v-1a1 1 0 0 0-1-1M17 20a1 1 0 0 0-1 1v1a1 1 0 0 0 2 0v-1a1 1 0 0 0-1-1" fill="#662113"/><path d="M14 16.5h-2a.5.5 0 0 0 0 1h2a.5.5 0 0 0 0-1" fill="#c1694f"/><path d="M5.847 22.285c0-1.58-.8-2.861-1.788-2.861s-1.788 1.28-1.788 2.86c0 1.58.8 2.862 1.788 2.862.987 0 1.788-1.281 1.788-2.861M23.73 22.285c0-1.58-.8-2.861-1.789-2.861-.988 0-1.788 1.28-1.788 2.86 0 1.58.8 2.862 1.788 2.862s1.788-1.281 1.788-2.861" fill="#f7dece"/><path d="M13 35.177c-7.019 0-10.139-4.684-10.139-8.588 0-3.903 1.343-4.986 1.56-3.903.78 3.903 3.119 5.102 3.119 5.102 4.68-3.904 3.9-.78 3.9-.78 4.68-4.685 2.34 0 2.34 0 1.56-1.563 6.239-1.563 6.239-1.563s.78-1.198 1.56-2.759c.78-1.56 1.56 0 1.56 3.903 0 3.904-3.9 8.588-10.139 8.588" fill="#292f33"/></g></svg>