<svg xmlns="http://www.w3.org/2000/svg" viewBox="0 0 36 36"><path fill="#FFE51E" d="M16 1c.203-.378.538-.985 1.806-.602C19.722.978 18 2 18 2s2 1 2 4-1 1.838-1 5c0 2-2 0-2 0l-3 3c-4 4-6-1-5-3s0-2 0-4 2-2 2-4 2-3 3-3 2 1 2 1z"/><ellipse fill="#F3D2A2" cx="14.625" cy="5" rx="2.625" ry="3"/><path fill="#FFE51E" d="M14.5 1c-.927 0-1.727.306-2.158.755C11.239 1.548 11.864 3.272 11 5c-1 2 1 4 1 3s0-4 2-4h.5c1.381 0 2.5-.671 2.5-1.5S15.881 1 14.5 1z"/><path fill="#F3D2A2" d="M22.707 10.293c-.373-.373-1.806-1.217-7.027-1.286l-.432-3.883a1 1 0 0 0-1.987.221L13.667 9H9.083l-5.918-.986a.999.999 0 1 0-.33 1.972l6 1A.92.92 0 0 0 9 11h2.749c.009.262.086.588.251 1 1 2.5 3 8 3 8 2.209 0 3-5.015 3-7.5 0-.604-.048-1.06-.15-1.407 1.206.087 2.027.223 2.567.351L18.2 14.4a1 1 0 0 0 1.6 1.2l3-4a1 1 0 0 0-.093-1.307zM15.998 33a.999.999 0 0 1-.988-.858l-1-7a1 1 0 0 1 1.979-.283l1 7A1 1 0 0 1 15.998 33z"/><path fill="#F3D2A2" d="M15.999 21a1 1 0 0 1-.183-1.982l15.999-3a.995.995 0 0 1 1.167.799.999.999 0 0 1-.798 1.167l-16.001 3c-.061.01-.123.016-.184.016z"/><path fill="#DD2E44" d="M12 13s1 1 1 3 0 3-2 6-4 3-5 5 0 2 2 1 1 4 4 4 2-3 4-3 3 3 5 3 2.581-2.419 1-4c-1-1 2-3 3-2 1.581 1.581 3.236-.764 1-3-1-1-1.789-2.105 0-3 2-1 2.5-5 0-4-3.344 1.338-8 3.161-8 0v-4s-2 0-2-3c0 0-1.25 4-3.25 0 0 0 1.25 3-.75 4z"/><path fill="#DD2E44" d="M16 36a1 1 0 0 1-1-1v-3a1 1 0 1 1 2 0v3a1 1 0 0 1-1 1zm16.429-17.37a.999.999 0 0 1-.777-1.627l1.781-2.211a1 1 0 0 1 1.556 1.255l-1.781 2.211a.995.995 0 0 1-.779.372z"/></svg>