<svg xmlns="http://www.w3.org/2000/svg" viewBox="0 0 45 45"><defs><clipPath id="a"><path d="M0 0h36v36H0V0z"/></clipPath></defs><g clip-path="url(#a)" transform="matrix(1.25 0 0 -1.25 0 45)"><path d="M27 18c0-4.971-4.029-5-9-5s-9 .029-9 5c0 8.938 4.029 9 9 9s9-.101 9-9" fill="#292f33"/><path d="M30 0v1c0 3.314-1.686 6-5 6H11C7.687 7 6 4.314 6 1V0h24z" fill="#dd2e44"/><path d="M14.626 6.544c1.344-.976 2.195-1.194 3.36-1.194s2.017.218 3.361 1.194V9.48h-6.721V6.544z" fill="#f3d2a2"/><path d="M14.62 8.185c.938-1.06 2.1-1.346 3.364-1.346 1.264 0 2.426.287 3.363 1.346v2.69H14.62v-2.69z" fill="#e2c196"/><path d="M12.934 15.92c0-1.115-.565-2.021-1.263-2.021s-1.263.906-1.263 2.02c0 1.117.565 2.022 1.263 2.022s1.263-.905 1.263-2.021M25.565 15.92c0-1.115-.565-2.021-1.263-2.021s-1.263.906-1.263 2.02c0 1.117.565 2.022 1.263 2.022s1.263-.905 1.263-2.021" fill="#f3d2a2"/><path d="M11.418 15.13c0 4.309 2.941 7.8 6.568 7.8 3.628 0 6.569-3.491 6.569-7.8 0-4.307-2.941-7.8-6.569-7.8-3.627 0-6.568 3.493-6.568 7.8" fill="#f3d2a2"/><path d="M17.986 9.857c-2.123 0-2.774.544-2.884.652a.507.507 0 0 0 .696.734c.04-.03.556-.375 2.188-.375 1.695 0 2.187.373 2.191.377a.495.495 0 0 0 .704-.01.52.52 0 0 0-.01-.726c-.11-.108-.762-.652-2.885-.652" fill="#c1694f"/><path d="M14.904 15.1a.774.774 0 0 0-.771.77v.77c0 .425.347.773.77.773a.774.774 0 0 0 .772-.772v-.77a.774.774 0 0 0-.771-.771M21.07 15.1a.774.774 0 0 0-.772.77v.77c0 .425.347.773.771.773a.774.774 0 0 0 .771-.772v-.77a.774.774 0 0 0-.77-.771" fill="#662113"/><path d="M18.564 12.98h-1.156a.58.58 0 0 0-.578.578c0 .318.26.578.579.578h1.156a.58.58 0 0 0 .577-.578.58.58 0 0 0-.578-.578" fill="#c1694f"/><path d="M12.578 5.54l-4.653-.738a.501.501 0 0 0-.572.416l-.157.987a.501.501 0 0 0 .416.572l4.653.738a.502.502 0 0 0 .572-.415l.157-.989a.501.501 0 0 0-.416-.572M23.448 5.54l4.652-.738a.502.502 0 0 1 .573.416l.157.987a.502.502 0 0 1-.416.572l-4.654.738a.502.502 0 0 1-.572-.415l-.156-.989a.501.501 0 0 1 .416-.572" fill="#292f33"/><path d="M11.875 18s-.174-9 6.113-9c6.287 0 6.137 9 6.137 9H25s-.307-10-7-10-7 10-7 10h.875z" fill="#99aab5"/><path d="M26 18H10c-.55 0-1 .45-1 1v11c0 3.3 2.7 6 6 6h6c3.3 0 6-2.7 6-6V19c0-.55-.45-1-1-1" fill="#292f33"/><path d="M18.5 0h-1v5h1V0z" fill="#f5f8fa"/><path d="M14.62 8.185S14 8.312 14 7c0-1.31 1.888-3 4-3v2c-1.144 0-3.38.609-3.38 2.185M21.38 8.185S22 8.312 22 7c0-1.31-1.888-3-4-3v2c1.145 0 3.38.609 3.38 2.185" fill="#292f33"/></g></svg>