<svg xmlns="http://www.w3.org/2000/svg" viewBox="0 0 45 45"><defs><clipPath id="a"><path d="M0 0h36v36H0V0z"/></clipPath><clipPath id="b"><path d="M0 36h36V0H0v36z"/></clipPath></defs><g clip-path="url(#a)" transform="matrix(1.25 0 0 -1.25 0 45)"><path d="M28.026 17.101l-14.849 14.85s-.707-2.122.707-3.536l12.728-12.728 1.414 1.414z" fill="#9aaab4"/><path d="M26.612 19.93c.39.39 1.657-.243 2.828-1.414 1.172-1.172 1.805-2.438 1.415-2.83-.391-.39-1.657.244-2.83 1.416-1.17 1.17-1.804 2.437-1.413 2.828m5.657-5.657c1.172 1.172.538 3.705-1.414 5.657-1.953 1.952-4.485 2.586-5.657 1.414-1.172-1.172-.538-3.704 1.414-5.657 1.952-1.952 4.485-2.586 5.657-1.414" fill="#67757f"/><path d="M8.86 35.66c-1.528 0-2.97-.348-4.267-.954-.225.02.913.035.684.035a8.145 8.145 0 0 1-8.146-8.147c0-3.564 2.293-6.586 5.482-7.69 1.854-2.12 3.208-3.467 6.246-3.467 5.584 0 10.111 4.527 10.111 10.112 0 5.584-4.527 10.111-10.11 10.111" fill="#ffac33"/><path d="M-1 31V19a9 9 0 0 1 9-9 9 9 0 0 1 9 9v12H-1z" fill="#ffdc5d"/><path d="M4 14h8s-1-2-4-2-4 2-4 2" fill="#c1694f"/><path d="M4 20a1 1 0 0 0-1 1v1a1 1 0 0 0 2 0v-1a1 1 0 0 0-1-1M12 20a1 1 0 0 0-1 1v1a1 1 0 0 0 2 0v-1a1 1 0 0 0-1-1" fill="#662113"/><path d="M9 16.5H7a.5.5 0 0 0 0 1h2a.5.5 0 0 0 0-1" fill="#c1694f"/><path d="M.847 22.285c0-1.58-.8-2.861-1.788-2.861s-1.788 1.28-1.788 2.86c0 1.58.8 2.862 1.788 2.862.987 0 1.788-1.281 1.788-2.861M18.73 22.285c0-1.58-.8-2.861-1.789-2.861-.988 0-1.788 1.28-1.788 2.86 0 1.58.8 2.862 1.788 2.862s1.788-1.281 1.788-2.861" fill="#ffdc5d"/><path d="M17 9H-1a4 4 0 0 1-4-4V0h26v5a4 4 0 0 1-4 4" fill="#4289c1"/><path d="M17 0h-1v4h1V0zM0 0h-1v4h1V0z" fill="#2a6797"/><path d="M5 12V8a3 3 0 1 1 6 0v4H5z" fill="#ffdc5d"/><path d="M-1.25 25.22l.232 5.843 3.191 2.145L17 31.188l.062-6.042c-6.926 0-10.951 3.014-13.013 5.327-.644-2.023-2.164-5.252-5.299-5.252" fill="#ffac33"/></g><g clip-path="url(#b)" transform="matrix(1.25 0 0 -1.25 0 45)"><path d="M16.59 25.21s5.848-.553 9.91 2.509c0 0-6.437.688-12.031 5.28-3.446 2.83 2.12-7.79 2.12-7.79" fill="#ffac33"/><path d="M22.143 14.26v21s2-1 2-3v-18h-2z" fill="#9aaab4"/><path d="M22.143 14.26c0-1.657-.448-3-1-3-.554-.001-1 1.343-1 3s.447 2.999 1 3c.552 0 1-1.343 1-3m2 0c0 2.76-1.343 4.999-3 4.999s-3-2.238-3-5c0-2.76 1.342-5 3-5 1.657 0 3 2.239 3 5M22.37 19.93a1 1 0 1 0 1.413 1.414 1 1 0 0 0-1.414-1.414" fill="#67757f"/></g></svg>