<svg viewBox="0 0 36 36" xmlns="http://www.w3.org/2000/svg"><path d="M27 36v-4s0-4 4-4 4 4 4 4v4zm-9 0v-9s0-4 4-4 4 4 4 4v9zm-9 0V24s0-4 4-4 4 4 4 4v12zm-9 0v-9s0-4 4-4 4 4 4 4v9z" fill="#f3d2a2"/><path d="M16 24c0-1.657 0-8-3-8s-3 6.343-3 8a3 3 0 106 0zm-9 3c0-1.657 0-8-3-8s-3 6.343-3 8a3 3 0 106 0zm18 0c0-1.657 0-8-3-8s-3 6.343-3 8a3 3 0 006 0zm9 5c0-1.657 0-8-3-8s-3 6.343-3 8a3 3 0 006 0z" fill="#dd2e44"/><path d="M13 16v4h2s2 0 6-4l-2-2s-2 2-6 2z" fill="#dd2e44"/><g fill="#8899a6"><path d="M19 14l8-8 2 2-8 8z"/><path d="M27 6s-2-2 0-4l2-2h7v5l-3 3c-2 2-4 0-4 0z"/></g></svg>