<svg viewBox="0 0 36 36" xmlns="http://www.w3.org/2000/svg"><g fill="#0b0200"><circle cx="18.001" cy="19.656" transform="rotate(-80.781 18 19.656)" r="12"/><circle cx="13.001" cy="8" r="7"/><circle cx="19.001" cy="11" r="11"/><path d="M30.001 20h-24V8l24 3z"/></g><path d="M27.001 27h-18a4 4 0 00-4 4v5h26v-5a4 4 0 00-4-4z" fill="#9268ca"/><path d="M26.001 32h1v4h-1zm-17 0h1v4h-1z" fill="#7450a8"/><path d="M15.001 22v6a3 3 0 106 0v-6z" fill="#f7dece"/><path d="M14.001 5s-.003 5.308-5 5.936V17c0 4.971 4.029 9 9 9s9-4.029 9-9v-5.019c-11.111-.376-13-6.981-13-6.981z" fill="#f7dece"/><ellipse cx="18.001" cy="22" fill="#df1f32" rx="2" ry="1"/><path d="M19.001 19.5h-2a.5.5 0 010-1h2a.5.5 0 010 1z" fill="#c1694f"/><path d="M5.561 5.032l5.189-3.823 1.638-.188V3.86l3.004.693a1.28 1.28 0 11-.576 2.498l-4.087-.941-2.045 2.045c-.342.343-.916.663-1.517.858l-.774 6.38s0 .999-.999.999-.999-.999-.999-.999V7.398z" fill="#e0aa94"/><path d="M5.169 4.639L7.4 2.408 7.999 0H12v3.468l3 .693a1.28 1.28 0 11-.576 2.498l-4.088-.942-2.044 2.045c-.343.343-.917.664-1.518.858L6 15.001S6 16 5.001 16s-.999-.999-.999-.999V7.005z" fill="#f7dece"/><path d="M30.44 5.032l-5.846-3.594-.982-.417V3.86l-3.004.693a1.28 1.28 0 10.576 2.498l4.088-.942 2.045 2.045c.343.343.916.663 1.518.858l.774 6.38s0 .999.999.999.999-.999.999-.999V7.398z" fill="#e0aa94"/><path d="M30.833 4.639l-2.231-2.231-.6-2.408h-3.998v3.468l-3.003.692a1.28 1.28 0 10.576 2.498l4.088-.942 2.045 2.045c.343.343.916.663 1.518.858l.774 6.38s0 .999.999.999C32 16 32 15.001 32 15.001V7.005z" fill="#f7dece"/><path d="M23.906 15.056a.25.25 0 00-.305-.007c-.006.005-.63.451-1.851.451-1.22 0-1.845-.446-1.85-.45a.25.25 0 00-.379.301c.03.068.751 1.649 2.229 1.649 1.479 0 2.199-1.581 2.229-1.648a.249.249 0 00-.073-.296zm-7.5 0a.25.25 0 00-.305-.007c-.006.005-.63.451-1.851.451-1.22 0-1.845-.446-1.85-.45a.25.25 0 00-.379.301c.03.068.751 1.649 2.229 1.649 1.479 0 2.199-1.581 2.229-1.648a.25.25 0 00-.073-.296z" fill="#662113"/></svg>