<svg xmlns="http://www.w3.org/2000/svg" viewBox="0 0 45 45"><defs><clipPath id="a"><path d="M0 0h36v36H0V0z"/></clipPath></defs><g clip-path="url(#a)" transform="matrix(1.25 0 0 -1.25 0 45)"><path d="M27 18c0-4.971-4.029-5-9-5s-9 .029-9 5c0 8.938 4.029 9 9 9s9-.101 9-9" fill="#292f33"/><path d="M28 0v2.5C28 5.814 26.314 8 23 8H13C9.687 8 8 5.814 8 2.5V0h20z" fill="#dd2e44"/><path d="M17.944 26.19c3.099 0 8.265-1.55 8.265-8.265 0-6.716 0-8.265-1.55-8.265s-3.616 1.55-6.715 1.55c-3.1 0-5.121-1.55-6.715-1.55-1.727 0-1.55 6.2-1.55 8.265 0 6.715 5.166 8.265 8.265 8.265" fill="#ffe51e"/><path d="M14.863 7.487c1.249-.908 2.04-1.153 3.124-1.153 1.082 0 1.874.246 3.123 1.153v2.73h-6.247v-2.73z" fill="#f3d2a2"/><path d="M10.948 17.117c0 4.97 3.132 9 6.996 9 3.863 0 6.996-4.03 6.996-9s-3.133-8.763-6.996-8.763c-3.864 0-6.996 3.793-6.996 8.763" fill="#f3d2a2"/><path d="M17.944 10.45c-1.368 0-2.084.675-2.161.753a.582.582 0 0 0 .819.83c.029-.027.469-.418 1.342-.418.885 0 1.325.402 1.344.42a.59.59 0 0 0 .822-.018.582.582 0 0 0-.004-.814c-.077-.078-.794-.754-2.162-.754" fill="#df1f32"/><path d="M15.17 15.27h-.137a.653.653 0 0 0-.652.65v.86c0 .356.293.65.652.65h.137a.654.654 0 0 0 .652-.65v-.86a.654.654 0 0 0-.652-.65M20.935 15.27h-.138a.653.653 0 0 0-.651.65v.86c0 .356.293.65.65.65h.139a.653.653 0 0 0 .65-.65v-.86a.654.654 0 0 0-.65-.65" fill="#662113"/><path d="M18.679 13.042h-1.391a.386.386 0 0 0-.385.385v.082c0 .212.173.385.385.385h1.39a.386.386 0 0 0 .386-.385v-.082a.386.386 0 0 0-.385-.385" fill="#c1694f"/><path d="M13.578 6.509l-4.653-.737a.5.5 0 0 0-.572.416l-.157.987a.5.5 0 0 0 .416.57l4.653.739a.501.501 0 0 0 .572-.415l.157-.99a.5.5 0 0 0-.416-.57M22.448 6.509l4.652-.737a.5.5 0 0 1 .573.416l.157.987a.501.501 0 0 1-.416.57l-4.654.739a.502.502 0 0 1-.572-.415l-.156-.99a.5.5 0 0 1 .416-.57" fill="#292f33"/><path d="M18.5 0h-1v6h1V0z" fill="#f5f8fa"/><path d="M14.87 9.03s-.574.116-.574-1.097C14.296 6.72 16 5.155 18 5.155v1.852c-1 0-3.13.563-3.13 2.022M21.13 9.03s.574.116.574-1.097c0-1.214-1.748-2.778-3.704-2.778v1.852c1.059 0 3.13.563 3.13 2.022" fill="#292f33"/><path d="M11.875 18s-.174-9 6.113-9c6.287 0 6.137 9 6.137 9H25s-.307-10-7-10-7 10-7 10h.875z" fill="#99aab5"/><path d="M26 18H10c-.55 0-1 .45-1 1v11c0 3.3 2.7 6 6 6h6c3.3 0 6-2.7 6-6V19c0-.55-.45-1-1-1" fill="#292f33"/></g></svg>