<svg xmlns="http://www.w3.org/2000/svg" viewBox="0 0 45 45"><defs><clipPath id="a"><path d="M0 36h36V0H0v36z"/></clipPath></defs><g clip-path="url(#a)" transform="matrix(1.25 0 0 -1.25 0 45)"><path d="M27 18c0-4.971-4.029-5-9-5s-9 .029-9 5c0 8.938 4.029 9 9 9s9-.101 9-9" fill="#292f33"/><path d="M30 0v1c0 3.314-1.686 6-5 6H11C7.687 7 6 4.314 6 1V0h24z" fill="#dd2e44"/><path d="M14.626 6.544c1.344-.976 2.195-1.194 3.36-1.194s2.017.218 3.36 1.194v2.938h-6.72V6.544z" fill="#ffdc5d"/><path d="M14.62 8.184c.938-1.059 2.1-1.345 3.364-1.345 1.263 0 2.425.287 3.363 1.345v2.691H14.62v-2.69z" fill="#f9ca55"/><path d="M12.934 15.92c0-1.116-.565-2.02-1.263-2.02s-1.263.904-1.263 2.02.565 2.021 1.263 2.021 1.263-.905 1.263-2.02M25.565 15.92c0-1.116-.565-2.02-1.263-2.02s-1.263.904-1.263 2.02.565 2.021 1.263 2.021 1.263-.905 1.263-2.02" fill="#ffdc5d"/><path d="M11.418 15.13c0 4.309 2.941 7.8 6.568 7.8 3.628 0 6.57-3.491 6.57-7.8 0-4.307-2.942-7.8-6.57-7.8-3.627 0-6.568 3.493-6.568 7.8" fill="#ffdc5d"/><path d="M17.986 9.857c-2.123 0-2.774.544-2.884.653a.506.506 0 0 0 .696.733c.04-.029.556-.375 2.188-.375 1.695 0 2.186.373 2.191.377a.493.493 0 0 0 .703-.01.518.518 0 0 0-.01-.725c-.109-.109-.76-.653-2.884-.653" fill="#c1694f"/><path d="M14.904 15.1a.773.773 0 0 0-.771.77v.77c0 .425.347.772.77.772a.773.773 0 0 0 .772-.771v-.77a.773.773 0 0 0-.771-.771M21.07 15.1a.773.773 0 0 0-.772.77v.77c0 .425.347.772.771.772a.773.773 0 0 0 .771-.771v-.77a.773.773 0 0 0-.77-.771" fill="#662113"/><path d="M18.565 12.98h-1.156a.58.58 0 0 0-.578.578c0 .318.26.578.578.578h1.156a.58.58 0 0 0 .578-.578.58.58 0 0 0-.578-.578" fill="#c1694f"/><path d="M12.578 5.54l-4.653-.738a.501.501 0 0 0-.572.416l-.157.987a.501.501 0 0 0 .416.572l4.653.737a.501.501 0 0 0 .572-.415l.157-.988a.501.501 0 0 0-.416-.572M23.448 5.54l4.653-.738a.501.501 0 0 1 .572.416l.157.987a.501.501 0 0 1-.416.572l-4.653.737a.501.501 0 0 1-.572-.415l-.157-.988a.501.501 0 0 1 .416-.572" fill="#292f33"/><path d="M11.875 18s-.174-9 6.113-9c6.287 0 6.137 9 6.137 9H25s-.307-10-7-10-7 10-7 10h.875z" fill="#99aab5"/><path d="M26 18H10c-.55 0-1 .45-1 1v11c0 3.3 2.7 6 6 6h6c3.3 0 6-2.7 6-6V19c0-.55-.45-1-1-1" fill="#292f33"/><path d="M18.5 0h-1v5h1V0z" fill="#f5f8fa"/><path d="M14.62 8.184S14 8.311 14 7c0-1.31 1.888-3 4-3v2c-1.144 0-3.38.608-3.38 2.184M21.38 8.184S22 8.311 22 7c0-1.31-1.888-3-4-3v2c1.144 0 3.38.608 3.38 2.184" fill="#292f33"/></g></svg>