<svg xmlns="http://www.w3.org/2000/svg" viewBox="0 0 45 45"><defs><clipPath id="a"><path d="M0 36h36V0H0v36z"/></clipPath></defs><g clip-path="url(#a)" transform="matrix(1.25 0 0 -1.25 0 45)"><path d="M30 16.344c0-6.627-5.372-12-12-12-6.626 0-12 5.373-12 12 0 6.628 5.374 12 12 12 6.628 0 12-5.372 12-12" fill="#ffac33"/><path d="M20 28a7 7 0 1 0-14 0 7 7 0 0 0 14 0" fill="#ffac33"/><path d="M8 25c0-6.075 4.926-11 11-11 6.076 0 11 4.925 11 11s-4.924 11-11 11c-6.074 0-11-4.925-11-11" fill="#ffac33"/><path d="M30 16H6v12l24-3v-9z" fill="#ffac33"/><path d="M27 9H9a4 4 0 0 1-4-4V0h26v5a4 4 0 0 1-4 4" fill="#9268ca"/><path d="M27.001 0h-1v4h1V0zM10.001 0h-1v4h1V0z" fill="#7450a8"/><path d="M15 14V8a3 3 0 1 1 6 0v6h-6z" fill="#ffdc5d"/><path d="M14 31s-.002-5.308-5-5.936V19a9 9 0 0 1 9-9 9 9 0 0 1 9 9v5.019C15.89 24.395 14 31 14 31" fill="#ffdc5d"/><path d="M20 14c0-.553-.895-1-2-1-1.104 0-2 .447-2 1 0 .553.896 1 2 1 1.105 0 2-.447 2-1" fill="#df1f32"/><path d="M19 16.5h-2a.5.5 0 0 0 0 1h2a.5.5 0 0 0 0-1" fill="#c1694f"/><path d="M15 19.016h-2a1 1 0 0 0 0 2h2a1 1 0 0 0 0-2M23 19.016h-2a1 1 0 1 0 0 2h2a1 1 0 1 0 0-2" fill="#662113"/><path d="M5.561 30.968l5.19 3.823 1.638.188V32.14l3.004-.693a1.284 1.284 0 0 0 .96-1.538 1.28 1.28 0 0 0-1.536-.96l-4.088.941-2.045-2.045c-.342-.343-.916-.663-1.518-.858l-.774-6.38s0-1-.999-1-.999 1-.999 1v7.995l1.167 2.366z" fill="#e39c2f"/><path d="M5.168 31.36L7.4 33.593 8 36h4v-3.467l3.002-.693a1.284 1.284 0 0 0 .96-1.538 1.28 1.28 0 0 0-1.537-.961l-4.088.942-2.045-2.045c-.342-.343-.916-.663-1.518-.858L6 21S6 20 5 20s-.999 1-.999 1v7.995l1.167 2.366z" fill="#ffdc5d"/><path d="M30.44 30.968l-5.846 3.594-.982.417V32.14l-3.004-.693a1.284 1.284 0 0 1-.96-1.538 1.28 1.28 0 0 1 1.536-.96l4.088.941 2.045-2.045c.342-.343.916-.663 1.518-.858l.774-6.38s0-1 1-1c.998 0 .998 1 .998 1v7.995l-1.167 2.366z" fill="#e39c2f"/><path d="M30.833 31.36l-2.231 2.232-.6 2.408h-3.997v-3.467L21 31.84a1.284 1.284 0 0 1-.96-1.538 1.28 1.28 0 0 1 1.536-.961l4.088.942 2.045-2.045c.342-.343.916-.663 1.518-.858l.774-6.38s0-1 .999-1S32 21 32 21v7.995l-1.167 2.366z" fill="#ffdc5d"/></g></svg>