<svg xmlns="http://www.w3.org/2000/svg" viewBox="0 0 45 45"><defs><clipPath id="a"><path d="M0 36h36V0H0v36z"/></clipPath></defs><g clip-path="url(#a)" transform="matrix(1.25 0 0 -1.25 0 45)"><path d="M15 14V8a3 3 0 1 1 6 0v6h-6z" fill="#ffdc5d"/><path d="M27 9H9a4 4 0 0 1-4-4V0h26v5a4 4 0 0 1-4 4" fill="#4289c1"/><path d="M27 0h-1v4h1V0zM10 0H9v4h1V0z" fill="#2a6797"/><path d="M15 14V8a3 3 0 1 1 6 0v6h-6z" fill="#ffdc5d"/><path d="M9 30.063V19a9 9 0 0 1 9-9 9 9 0 0 1 9 9v10.75l-18 .312z" fill="#ffdc5d"/><path d="M10.847 22.285c0-1.58-.8-2.861-1.788-2.861s-1.788 1.28-1.788 2.86c0 1.58.8 2.862 1.788 2.862.987 0 1.788-1.281 1.788-2.861M28.73 22.285c0-1.58-.8-2.861-1.789-2.861-.988 0-1.788 1.28-1.788 2.86 0 1.58.8 2.862 1.788 2.862s1.788-1.281 1.788-2.861" fill="#ffdc5d"/><path d="M18 35.177c-7.019 0-10.139-4.684-10.139-8.588 0-3.903 1.343-4.986 1.56-3.903.78 3.903 3.119 5.102 3.119 5.102 4.68-3.904 3.9-.78 3.9-.78 4.68-4.685 2.34 0 2.34 0 1.56-1.563 6.239-1.563 6.239-1.563s.78-1.198 1.56-2.759c.78-1.56 1.56 0 1.56 3.903 0 3.904-3.9 8.588-10.139 8.588" fill="#ffac33"/><path d="M20 14c0-.553-.895-1-2-1-1.104 0-2 .447-2 1 0 .553.896 1 2 1 1.105 0 2-.447 2-1M19 16.5h-2a.5.5 0 0 0 0 1h2a.5.5 0 0 0 0-1" fill="#c1694f"/><path d="M15 19.016h-2a1 1 0 0 0 0 2h2a1 1 0 0 0 0-2M22.999 19.016H21a1 1 0 1 0 0 2h1.999a1 1 0 1 0 0-2" fill="#662113"/><path d="M28.613 31.603l-1.953 1.953-.525-.618-3.5 1.27v-1.579l-2.63-.607a1.125 1.125 0 0 1-.84-1.347 1.12 1.12 0 0 1 1.344-.84l3.58.824 1.79-1.79c.3-.3.802-.581 1.328-.751l.678-5.587s0-.875.875-.875.875.875.875.875v7l-1.022 2.072z" fill="#ef9645"/><path d="M28.957 31.947L27.004 33.9 26.48 36h-3.5v-3.027l-2.63-.607a1.125 1.125 0 0 1-.84-1.347 1.12 1.12 0 0 1 1.344-.84l3.58.824 1.79-1.79c.3-.3.802-.581 1.328-.751l.678-5.587s0-.875.875-.875.875.875.875.875v7l-1.022 2.072z" fill="#ffdc5d"/><path d="M7.387 31.603l1.953 1.953.525-.618 3.5 1.395v-1.704l2.63-.607c.603-.141.98-.743.84-1.347a1.12 1.12 0 0 0-1.344-.84l-3.58.824-1.79-1.79c-.3-.3-.802-.581-1.328-.751l-.678-5.587s0-.875-.875-.875-.875.875-.875.875v7l1.022 2.072z" fill="#ef9645"/><path d="M7.043 31.947L8.996 33.9 9.52 36h3.5v-3.027l2.63-.607c.603-.141.98-.743.84-1.347a1.12 1.12 0 0 0-1.344-.84l-3.58.824-1.79-1.79c-.3-.3-.802-.581-1.328-.751l-.678-5.587s0-.875-.875-.875-.875.875-.875.875v7l1.022 2.072z" fill="#ffdc5d"/></g></svg>