<svg viewBox="0 0 36 36" xmlns="http://www.w3.org/2000/svg"><path d="M16.867 15.734c.625.626 1.64.626 2.266 0l6.232-6.231a1.604 1.604 0 000-2.266l-6.232-6.231a1.602 1.602 0 00-2.266 0l-6.232 6.231a1.602 1.602 0 000 2.266zm9.631 9.63c.625.626 1.64.626 2.266 0l6.232-6.231a1.604 1.604 0 000-2.266l-6.232-6.231a1.602 1.602 0 00-2.266 0l-6.232 6.231a1.602 1.602 0 000 2.266zm-1.134 1.134l-6.231-6.232a1.602 1.602 0 00-2.266 0l-6.231 6.232a1.6 1.6 0 000 2.265l6.231 6.232c.626.625 1.64.625 2.266 0l6.231-6.232a1.6 1.6 0 000-2.265zm-9.63-9.63l-6.231-6.232a1.602 1.602 0 00-2.266 0l-6.231 6.232a1.6 1.6 0 000 2.265l6.231 6.232c.626.625 1.64.625 2.266 0l6.231-6.232a1.6 1.6 0 000-2.265z" fill="#55acee"/><path d="M15.734 16.868l-3.214-3.215C11.571 14.848 11 16.356 11 18s.571 3.153 1.52 4.347l3.214-3.214a1.6 1.6 0 000-2.265zm6.614 6.612l-3.215-3.215a1.605 1.605 0 00-2.266 0l-3.215 3.215C14.847 24.429 16.356 25 18 25s3.153-.571 4.348-1.52zm-2.082-4.347l3.215 3.215C24.429 21.153 25 19.644 25 18s-.571-3.153-1.52-4.347l-3.215 3.215a1.603 1.603 0 00.001 2.265zm-1.133-3.399l3.215-3.214C21.153 11.571 19.644 11 18 11s-3.153.571-4.347 1.52l3.215 3.214a1.6 1.6 0 002.265 0z" fill="#3b88c3"/><circle cx="18" cy="18" fill="#bbddf5" r="5"/></svg>