<svg xmlns="http://www.w3.org/2000/svg" viewBox="0 0 36 36"><path fill="#292f33" d="M36 32a4 4 0 0 1-4 4H4a4 4 0 0 1-4-4V4a4 4 0 0 1 4-4h28a4 4 0 0 1 4 4z"/><path fill="#ffd983" d="M34 18c0 8.837-7.163 16-16 16S2 26.837 2 18 9.164 2 18 2s16 7.164 16 16m-16-2.667a2.667 2.667 0 1 0 0 5.334 2.667 2.667 0 0 0 0-5.334"/><path fill="#ffac33" d="M13.811 17.535a4.2 4.2 0 0 1 1.193-2.53L7.943 7.943a14.18 14.18 0 0 0-4.075 8.487zm8.378.93a4.22 4.22 0 0 1-1.194 2.53l7.062 7.062a14.18 14.18 0 0 0 4.075-8.487z"/><path fill="#ffe8b6" d="m18.469 22.189 1.111 9.941a14.18 14.18 0 0 0 8.476-4.074l-7.062-7.062a4.2 4.2 0 0 1-2.525 1.195m-.91-8.38-1.048-9.953a14.2 14.2 0 0 0-8.569 4.087l7.062 7.062a4.2 4.2 0 0 1 2.555-1.196"/><path fill="#f5f8fa" d="M36 21a2 2 0 0 1-2 2H23a2 2 0 0 1-2-2v-6a2 2 0 0 1 2-2h11a2 2 0 0 1 2 2z"/></svg>