<svg xmlns="http://www.w3.org/2000/svg" viewBox="0 0 36 36"><path fill="#C6E4B5" d="M2 6C0 6 0 8 0 8v20s0 2 2 2h32c2 0 2-2 2-2V8s0-2-2-2H2z"/><path fill="#9AAAB4" d="M13 6h10v24.062H13z"/><path fill="#67757F" d="M11.527 26.553c0 .658-1.474 1.447-3.301 1.447-2.42 0-3.877-1.681-4.361-3.742H2.571a.57.57 0 1 1 0-1.14H3.7c-.008-.136-.029-.27-.029-.405 0-.3.026-.597.063-.89H2.571a.57.57 0 1 1 0-1.14h1.416c.593-1.835 2.03-3.257 4.313-3.257 1.84 0 3.008.993 3.008 1.519 0 .336-.205.612-.526.612-.584 0-.876-1.022-2.482-1.022-1.51 0-2.428.942-2.891 2.147h3.327a.57.57 0 1 1 0 1.14H5.115a6.22 6.22 0 0 0-.072.89c0 .134.016.27.025.405h3.668a.57.57 0 1 1 0 1.139H5.249c.389 1.43 1.346 2.631 2.978 2.631 1.563 0 2.25-.934 2.79-.934.306.002.51.235.51.6z"/></svg>