<svg xmlns="http://www.w3.org/2000/svg" viewBox="0 0 36 36"><path fill="#9AAAB4" d="M11 27a2 2 0 0 1-4 0V16a2 2 0 0 1 4 0v11zm20 0a2 2 0 0 1-4 0V16a2 2 0 0 1 4 0v11z"/><path fill="#67757F" d="M29 34a2 2 0 0 1-4 0v-6a2 2 0 0 1 4 0v6zm-16 0a2 2 0 0 1-4 0v-6a2 2 0 0 1 4 0v6z"/><path fill="#4289C1" d="M29 18a4 4 0 0 1-4 4H13a4 4 0 0 1-4-4V4a4 4 0 0 1 4-4h12a4 4 0 0 1 4 4v14z"/><path fill="#E1E8ED" d="M15 0h8v8h-8z"/><path fill="#CCD6DD" d="M11 15a2 2 0 0 1-2 2H7a2 2 0 0 1 0-4h2a2 2 0 0 1 2 2zm22 0a2 2 0 0 1-2 2h-2a2 2 0 0 1 0-4h2a2 2 0 0 1 2 2z"/><path fill="#5DADEC" d="M29 23a3 3 0 0 1-3 3H12a3 3 0 1 1 0-6h14a3 3 0 0 1 3 3z"/><path fill="#2A6797" d="M9 23h20v6H9z"/></svg>