<svg viewBox="0 0 36 36" xmlns="http://www.w3.org/2000/svg"><path d="M32 13H4a4 4 0 00-4 4v2a4 4 0 004 4v9a4 4 0 004 4h20a4 4 0 004-4v-9a4 4 0 004-4v-2a4 4 0 00-4-4z" fill="#292f33"/><path d="M30 15a2 2 0 01-2 2H8a2 2 0 01-2-2V2a2 2 0 012-2h20a2 2 0 012 2z" fill="#ccd6dd"/><path d="M18 13a1 1 0 01-1 1H9a1 1 0 01-1-1V3a1 1 0 011-1h8a1 1 0 011 1z" fill="#55acee"/><path d="M30 32a2 2 0 01-2 2H8a2 2 0 01-2-2V21a2 2 0 012-2h20a2 2 0 012 2z" fill="#ccd6dd"/><path d="M28 4a1 1 0 01-1 1h-6a1 1 0 110-2h6a1 1 0 011 1zm0 4a1 1 0 01-1 1h-6a1 1 0 110-2h6a1 1 0 011 1zm0 4a1 1 0 01-1 1h-6a1 1 0 110-2h6a1 1 0 011 1z" fill="#66757f"/><path d="M14 20a1 1 0 11-2 0v-4a1 1 0 112 0zm10 0a1 1 0 11-2 0v-4a1 1 0 112 0z" fill="#99aab5"/></svg>