<svg viewBox="0 0 36 36" xmlns="http://www.w3.org/2000/svg"><path d="M32 34a2 2 0 01-2 2H6a2 2 0 01-2-2V7a2 2 0 012-2h24a2 2 0 012 2z" fill="#c1694f"/><path d="M29 32a1 1 0 01-1 1H8a1 1 0 01-1-1V9a1 1 0 011-1h20a1 1 0 011 1z" fill="#fff"/><path d="M25 3h-4a3 3 0 10-6 0h-4a2 2 0 00-2 2v5h18V5a2 2 0 00-2-2z" fill="#ccd6dd"/><circle cx="18" cy="3" fill="#292f33" r="2"/><path d="M20 14a1 1 0 01-1 1h-9a1 1 0 010-2h9a1 1 0 011 1zm7 4a1 1 0 01-1 1H10a1 1 0 010-2h16a1 1 0 011 1zm0 4a1 1 0 01-1 1H10a1 1 0 110-2h16a1 1 0 011 1zm0 4a1 1 0 01-1 1H10a1 1 0 110-2h16a1 1 0 011 1zm0 4a1 1 0 01-1 1h-9a1 1 0 110-2h9a1 1 0 011 1z" fill="#99aab5"/></svg>