<svg xmlns="http://www.w3.org/2000/svg" viewBox="0 0 36 36"><path fill="#e1e8ed" d="m32.415 9.586-9-9a2.001 2.001 0 0 0-2.829 2.829l-3.859 3.859 9 9 3.859-3.859a2 2 0 0 0 2.829-2.829"/><path fill="#ccd6dd" d="M22 0H7a4 4 0 0 0-4 4v28a4 4 0 0 0 4 4h22a4 4 0 0 0 4-4V11h-9c-1 0-2-1-2-2z"/><path fill="#99aab5" d="M22 0h-2v9a4 4 0 0 0 4 4h9v-2h-9c-1 0-2-1-2-2zm-5 8a1 1 0 0 1-1 1H8a1 1 0 0 1 0-2h8a1 1 0 0 1 1 1m0 4a1 1 0 0 1-1 1H8a1 1 0 0 1 0-2h8a1 1 0 0 1 1 1m12 4a1 1 0 0 1-1 1H8a1 1 0 0 1 0-2h20a1 1 0 0 1 1 1m0 4a1 1 0 0 1-1 1H8a1 1 0 1 1 0-2h20a1 1 0 0 1 1 1m0 4a1 1 0 0 1-1 1H8a1 1 0 1 1 0-2h20a1 1 0 0 1 1 1m0 4a1 1 0 0 1-1 1H8a1 1 0 1 1 0-2h20a1 1 0 0 1 1 1"/></svg>