<svg viewBox="0 0 36 36" xmlns="http://www.w3.org/2000/svg"><path d="M31 2H5a3 3 0 00-3 3v26a3 3 0 003 3h26a3 3 0 003-3V5a3 3 0 00-3-3z" fill="#ccd6dd"/><path d="M31 1H5a4 4 0 00-4 4v26a4 4 0 004 4h26a4 4 0 004-4V5a4 4 0 00-4-4zm0 2c1.103 0 2 .897 2 2v4h-6V3zm-4 16h6v6h-6zm0-2v-6h6v6zM25 3v6h-6V3zm-6 8h6v6h-6zm0 8h6v6h-6zM17 3v6h-6V3zm-6 8h6v6h-6zm0 8h6v6h-6zM3 5c0-1.103.897-2 2-2h4v6H3zm0 6h6v6H3zm0 8h6v6H3zm2 14c-1.103 0-2-.897-2-2v-4h6v6zm6 0v-6h6v6zm8 0v-6h6v6zm12 0h-4v-6h6v4c0 1.103-.897 2-2 2z" fill="#e1e8ed"/><path d="M4.998 33a2 2 0 01-1.759-2.948l7-13a1.999 1.999 0 013.175-.466l6.076 6.076 9.738-18.59a2 2 0 013.543 1.857l-11 21a2.002 2.002 0 01-1.47 1.05 2.017 2.017 0 01-1.716-.563l-6.1-6.099-5.724 10.631A2 2 0 014.998 33z" fill="#dd2e44"/></svg>