<svg viewBox="0 0 36 36" xmlns="http://www.w3.org/2000/svg"><path d="M32.415 9.586l-9-9a2.001 2.001 0 00-2.829 2.829l-3.859 3.859 9 9 3.859-3.859a2 2 0 002.829-2.829z" fill="#e1e8ed"/><path d="M22 0H7a4 4 0 00-4 4v28a4 4 0 004 4h22a4 4 0 004-4V11h-9c-1 0-2-1-2-2z" fill="#ccd6dd"/><path d="M22 0h-2v9a4 4 0 004 4h9v-2h-9c-1 0-2-1-2-2zm-5 8a1 1 0 01-1 1H8a1 1 0 010-2h8a1 1 0 011 1zm0 4a1 1 0 01-1 1H8a1 1 0 010-2h8a1 1 0 011 1zm12 4a1 1 0 01-1 1H8a1 1 0 010-2h20a1 1 0 011 1zm0 4a1 1 0 01-1 1H8a1 1 0 110-2h20a1 1 0 011 1zm0 4a1 1 0 01-1 1H8a1 1 0 110-2h20a1 1 0 011 1zm0 4a1 1 0 01-1 1H8a1 1 0 110-2h20a1 1 0 011 1z" fill="#99aab5"/></svg>