<svg xmlns="http://www.w3.org/2000/svg" viewBox="0 0 36 36"><path fill="#ffd983" d="M32 0H10a4 4 0 0 0-4 4v24H4a4 4 0 0 0 0 8h24a4 4 0 0 0 4-4V8a4 4 0 0 0 0-8"/><path fill="#e39f3d" d="M8 10h24V8H10L8 7z"/><path fill="#ffe8b6" d="M10 0a4 4 0 0 0-4 4v24.555A3.96 3.96 0 0 0 4 28a4 4 0 1 0 4 4V7.445C8.59 7.789 9.268 8 10 8a4 4 0 0 0 0-8"/><path fill="#c1694f" d="M12 4a2 2 0 1 1-4.001-.001A2 2 0 0 1 12 4M6 32a2 2 0 1 1-4.001-.001A2 2 0 0 1 6 32m24-17a1 1 0 0 1-1 1H11a1 1 0 0 1 0-2h18a1 1 0 0 1 1 1m0 4a1 1 0 0 1-1 1H11a1 1 0 1 1 0-2h18a1 1 0 0 1 1 1m0 4a1 1 0 0 1-1 1H11a1 1 0 1 1 0-2h18a1 1 0 0 1 1 1m0 4a1 1 0 0 1-1 1H11a1 1 0 1 1 0-2h18a1 1 0 0 1 1 1"/></svg>