<svg xmlns="http://www.w3.org/2000/svg" viewBox="0 0 36 36"><path fill="#66757f" d="M14 28h9v8h-9z"/><path fill="#dd2e44" d="M31 25a4 4 0 0 1-4 4H9a4 4 0 0 1-4-4V4a4 4 0 0 1 4-4h18a4 4 0 0 1 4 4z"/><path fill="#a0041e" d="M7 8V6s0-2 2-2h18s2 0 2 2v2z"/><path fill="#292f33" d="M27 12H9s-2 0-2-2V7h22v3c0 2-2 2-2 2"/><path fill="#e1e8ed" d="M11 7v14s0 2 2 2h10s2 0 2-2V7z"/><path fill="#ccd6dd" d="M13 23h9.22c-1.847-2.365-6.425-8.205-7.22-9-1-1 0-2 0-2l5-5h-9v14s0 2 2 2"/><path fill="#66757f" d="M15 14c.795.795 5.373 6.635 7.22 9H23s.404-.01.848-.19L16 13l6-6h-2l-5 5s-1 1 0 2"/></svg>