<svg viewBox="0 0 36 36" xmlns="http://www.w3.org/2000/svg"><path d="M8 17H0v15a4 4 0 008 0 4 4 0 004 4h20a4 4 0 004-4V17z" fill="#292f33"/><path d="M32 10H12a4 4 0 00-4 4 4 4 0 00-8 0v15a4 4 0 008 0 4 4 0 004 4h20a4 4 0 004-4V14a4 4 0 00-4-4z" fill="#66757f"/><path d="M21 16a2 2 0 01-2 2h-7a2 2 0 01-2-2v-2a2 2 0 012-2h7a2 2 0 012 2z" fill="#c6e5b3"/><g fill="#ccd6dd"><circle cx="11.5" cy="21.5" r="1.5"/><circle cx="15.5" cy="21.5" r="1.5"/><circle cx="19.5" cy="21.5" r="1.5"/><circle cx="11.5" cy="25.5" r="1.5"/><circle cx="15.5" cy="25.5" r="1.5"/><circle cx="19.5" cy="25.5" r="1.5"/><circle cx="11.5" cy="29.5" r="1.5"/><circle cx="15.5" cy="29.5" r="1.5"/><circle cx="19.5" cy="29.5" r="1.5"/></g><path d="M34 21a1 1 0 01-1 1h-9a1 1 0 110-2h9a1 1 0 011 1zm0 3a1 1 0 01-1 1h-9a1 1 0 110-2h9a1 1 0 011 1zm0 3a1 1 0 01-1 1h-9a1 1 0 110-2h9a1 1 0 011 1zm0 3a1 1 0 01-1 1h-9a1 1 0 110-2h9a1 1 0 011 1z" fill="#99aab5"/><g fill="#ccd6dd"><circle cx="25" cy="15" r="2"/><circle cx="32" cy="15" r="2"/><path d="M32 10H12V4a4 4 0 014-4h12a4 4 0 014 4z"/></g><path d="M30 4a1 1 0 01-1 1H15a1 1 0 110-2h14a1 1 0 011 1zm-8 3a1 1 0 01-1 1h-6a1 1 0 110-2h6a1 1 0 011 1z" fill="#99aab5"/></svg>