<svg xmlns="http://www.w3.org/2000/svg" viewBox="0 0 36 36"><path fill="#292f33" d="M8 17H0v15a4 4 0 0 0 8 0 4 4 0 0 0 4 4h20a4 4 0 0 0 4-4V17z"/><path fill="#66757f" d="M32 10H12a4 4 0 0 0-4 4 4 4 0 0 0-8 0v15a4 4 0 0 0 8 0 4 4 0 0 0 4 4h20a4 4 0 0 0 4-4V14a4 4 0 0 0-4-4"/><path fill="#c6e5b3" d="M21 16a2 2 0 0 1-2 2h-7a2 2 0 0 1-2-2v-2a2 2 0 0 1 2-2h7a2 2 0 0 1 2 2z"/><g fill="#ccd6dd"><circle cx="11.5" cy="21.5" r="1.5"/><circle cx="15.5" cy="21.5" r="1.5"/><circle cx="19.5" cy="21.5" r="1.5"/><circle cx="11.5" cy="25.5" r="1.5"/><circle cx="15.5" cy="25.5" r="1.5"/><circle cx="19.5" cy="25.5" r="1.5"/><circle cx="11.5" cy="29.5" r="1.5"/><circle cx="15.5" cy="29.5" r="1.5"/><circle cx="19.5" cy="29.5" r="1.5"/></g><path fill="#99aab5" d="M34 21a1 1 0 0 1-1 1h-9a1 1 0 1 1 0-2h9a1 1 0 0 1 1 1m0 3a1 1 0 0 1-1 1h-9a1 1 0 1 1 0-2h9a1 1 0 0 1 1 1m0 3a1 1 0 0 1-1 1h-9a1 1 0 1 1 0-2h9a1 1 0 0 1 1 1m0 3a1 1 0 0 1-1 1h-9a1 1 0 1 1 0-2h9a1 1 0 0 1 1 1"/><circle cx="25" cy="15" r="2" fill="#ccd6dd"/><circle cx="32" cy="15" r="2" fill="#ccd6dd"/><path fill="#ccd6dd" d="M32 10H12V4a4 4 0 0 1 4-4h12a4 4 0 0 1 4 4z"/><path fill="#99aab5" d="M30 4a1 1 0 0 1-1 1H15a1 1 0 1 1 0-2h14a1 1 0 0 1 1 1m-8 3a1 1 0 0 1-1 1h-6a1 1 0 1 1 0-2h6a1 1 0 0 1 1 1"/></svg>