<svg viewBox="0 0 36 36" xmlns="http://www.w3.org/2000/svg"><g fill="#31373d"><path d="M35 31s0 4-4 4H5c-4 0-4-4-4-4V12c0-4 4-4 4-4h26s4 0 4 4z"/><path d="M21.303 10.389a.999.999 0 11-1.414 1.414l-9.192-9.192a.999.999 0 111.414-1.414z"/><path d="M14.697 10.389a.999.999 0 101.414 1.414l9.192-9.192a.999.999 0 10-1.414-1.414z"/></g><path d="M18 11c8 0 10 1 11 2s2 3 2 8-1 7-2 8-3 2-11 2-10-1-11-2-2-3-2-8 1-7 2-8 3-2 11-2z" fill="#55acee"/><circle cx="31.5" cy="31.5" fill="#66757f" r="1.5"/><circle cx="4.5" cy="31.5" fill="#66757f" r="1.5"/></svg>