<svg viewBox="0 0 36 36" xmlns="http://www.w3.org/2000/svg"><path d="M20 6a2 2 0 01-4 0V2a2 2 0 014 0zm0 28a2 2 0 01-4 0v-4a2 2 0 014 0zM6 16a2 2 0 010 4H2a2 2 0 010-4zm28 0a2 2 0 010 4h-4a2 2 0 010-4zM8.101 25.071a2 2 0 012.828 2.828l-2.828 2.829A2 2 0 115.273 27.9zM27.899 5.272a2 2 0 012.828 2.829l-2.828 2.828A2 2 0 1125.071 8.1zm-2.828 22.627a2 2 0 012.828-2.828l2.829 2.828a2 2 0 11-2.828 2.828zM18 9a9 9 0 100 18 9 9 0 000-18zm0 14a5 5 0 110-10 5 5 0 010 10zM5.272 8.101a2 2 0 012.829-2.828l2.828 2.828A2 2 0 118.1 10.929z" fill="#ffac33"/></svg>