<svg viewBox="0 0 36 36" xmlns="http://www.w3.org/2000/svg"><path d="M36 32a4 4 0 01-4 4H4a4 4 0 01-4-4V4a4 4 0 014-4h28a4 4 0 014 4z" fill="#3b88c3"/><path d="M7.213 10.975H5.255C3.663 10.975 3 9.814 3 8.686c0-1.16.829-2.288 2.255-2.288h4.71c1.426 0 2.223 1.028 2.223 2.354v18.875c0 1.658-1.062 2.586-2.488 2.586s-2.487-.928-2.487-2.586zm7.967 7.231C15.18 12.799 17.27 6 23.97 6s8.791 6.799 8.791 12.206c0 5.406-2.091 12.207-8.791 12.207s-8.79-6.801-8.79-12.207zm12.406 0c0-2.521-.232-7.696-3.616-7.696-3.383 0-3.615 5.175-3.615 7.696 0 2.355.232 7.695 3.615 7.695 3.384 0 3.616-5.339 3.616-7.695z" fill="#f5f8fa"/></svg>