<svg viewBox="0 0 36 36" xmlns="http://www.w3.org/2000/svg"><circle cx="17" cy="20" fill="#9aaab4" r="3"/><path d="M19.235 17.059a1.003 1.003 0 01-1.353.412L5.529 10.883a1.004 1.004 0 01-.412-1.353L7.94 4.235c.259-.485.868-.67 1.353-.412l12.353 6.588c.485.259.671.868.412 1.353z" fill="#da2f47"/><path d="M31.177 22.293a1.004 1.004 0 01-1.354.412l-9.705-5.176a1.004 1.004 0 01-.412-1.354l1.882-3.529c.259-.485.868-.67 1.354-.412l9.705 5.176c.485.259.671.868.412 1.354z" fill="#da2f47"/><path d="M19.235 17.058l2.824-5.293 1.765.941L20.999 18z" fill="#bb1a34"/><path d="M28.942 22.235l2.823-5.294 3.53 1.882-2.824 5.294z" fill="#9d0522"/><path d="M8.294 7.824l1.882-3.53-.881-.47v-.001L4.882 1.471a1.003 1.003 0 00-1.353.411L.706 7.177a1.002 1.002 0 00.412 1.353l3.529 1.882 1.766.941.47-.882zM23 25a2 2 0 01-2 2h-8a2 2 0 010-4h8a2 2 0 012 2z" fill="#292f33"/><path d="M9.467 36l3.344-7.152c.468-1 .036-2.191-.965-2.658a1.997 1.997 0 00-2.658.965L5.052 36zm15.065 0h4.416l-4.137-8.846a1.997 1.997 0 00-2.658-.965 1.999 1.999 0 00-.965 2.658zM19 36v-8a2 2 0 00-4 0v8z" fill="#9aaab4"/></svg>