<svg viewBox="0 0 36 36" xmlns="http://www.w3.org/2000/svg"><g fill="#66757f"><path d="M19.78 21.345l-6.341-6.342-.389 4.38 2.35 2.351z"/><path d="M15.4 22.233a.507.507 0 01-.354-.146l-2.351-2.351a.501.501 0 01-.145-.397l.389-4.38a.5.5 0 01.851-.309l6.341 6.342a.5.5 0 01-.31.851l-4.379.389zm-1.832-3.039l2.021 2.021 3.081-.273-4.828-4.828z"/></g><path d="M31 32h-3c0-3.314-2.63-6-5.875-6-3.244 0-5.875 2.686-5.875 6H8.73a2 2 0 00-4 0 2 2 0 000 4H31a2 2 0 000-4z" fill="#8899a6"/><path d="M20 10v4a7 7 0 110 14h-8.485c2.018 2.443 5.069 4 8.485 4 6.075 0 11-4.925 11-11s-4.925-11-11-11z" fill="#8899a6"/><path d="M16.414 30.414a2 2 0 01-2.828 0l-9.899-9.9a2 2 0 112.829-2.828l9.899 9.9a2 2 0 01-.001 2.828zm-7.225-1.786a1 1 0 11.278 1.98l-5.942.834a1 1 0 11-.277-1.981z" fill="#67757f"/><path d="M27.341 2.98l4.461 4.461-3.806 3.807-4.461-4.461z" fill="#66757f"/><path d="M34.037 7.083a2.12 2.12 0 01-2.997 0l-3.339-3.34A2.12 2.12 0 0130.696.747l3.342 3.34a2.12 2.12 0 01-.001 2.996zm-14.56 15.026l-6.802-6.803a1.003 1.003 0 010-1.414l9.858-9.858a1.003 1.003 0 011.414 0l6.801 6.803a1.003 1.003 0 010 1.414l-9.858 9.858a1.001 1.001 0 01-1.413 0z" fill="#aab8c2"/><path d="M13.766 12.8l1.638-1.637 8.216 8.216-1.638 1.637z" fill="#e1e8ed"/></svg>