<svg xmlns="http://www.w3.org/2000/svg" viewBox="0 0 45 45"><defs><clipPath id="a"><path d="M0 36h36V0H0v36z"/></clipPath></defs><path d="M22.5 0L0 6.25V42.5L22.5 45 45 42.5V6.25L22.5 0z"/><path d="M22.5 0v45L45 42.5V6.25L22.5 0z" fill="#292f33"/><path d="M28.068 18.134v4.259l5.286.765v-4.133l-5.286-.891zM36.817 19.61v4.05l4.124.596v-3.951l-4.124-.695zM22.5 17.195v4.391l2.104.305V17.55l-2.104-.355zM44.326 24.747l.674.096v-3.854l-.674-.114v3.872z" fill="#ffd983"/><path d="M0 20.99v3.853l.674-.096v-3.872L0 20.99zM20.396 17.55v4.34l2.104-.304v-4.391l-2.104.355zM4.06 20.305v3.951l4.123-.597V19.61l-4.124.695zM11.647 19.025v4.133l5.286-.765v-4.259l-5.286.891z" fill="#ffac33"/><g clip-path="url(#a)" transform="matrix(1.25 0 0 -1.25 0 45)"><path d="M21.389 20.869v.042c0 .421-.143.763-.32.763-.177 0-.32-.342-.32-.763v-.042c-.208-.217-.354-.621-.354-1.103 0-.513.162-.949.392-1.152.064-.195.164-.33.282-.33.118 0 .218.135.282.33.23.203.393.639.393 1.152 0 .482-.147.886-.355 1.103M28.388 19.8v.042c0 .42-.143.763-.32.763-.177 0-.32-.342-.32-.763V19.8c-.208-.217-.354-.621-.354-1.103 0-.513.162-.95.392-1.152.064-.195.164-.33.282-.33.118 0 .218.135.282.33.23.203.393.639.393 1.152 0 .482-.147.886-.355 1.103M34.406 18.77v.039c0 .393-.134.712-.3.712-.164 0-.297-.32-.297-.712v-.04c-.195-.202-.331-.58-.331-1.03 0-.478.15-.885.365-1.074.06-.182.153-.31.263-.31.111 0 .204.128.263.31.216.189.367.596.367 1.075 0 .45-.137.827-.33 1.03" fill="#ffd983"/><path d="M14.611 20.869v.042c0 .421.143.763.32.763.177 0 .32-.342.32-.763v-.042c.208-.217.354-.621.354-1.103 0-.513-.162-.949-.392-1.152-.064-.195-.164-.33-.282-.33-.118 0-.218.135-.282.33-.23.203-.393.639-.393 1.152 0 .482.147.886.355 1.103M7.612 19.8v.042c0 .42.143.763.32.763.177 0 .32-.342.32-.763V19.8c.208-.217.354-.621.354-1.103 0-.513-.162-.95-.392-1.152-.064-.195-.164-.33-.282-.33-.118 0-.218.135-.282.33-.23.203-.393.639-.393 1.152 0 .482.147.886.355 1.103M1.595 18.77v.039c0 .393.134.712.299.712.165 0 .298-.32.298-.712v-.04c.194-.202.33-.58.33-1.03 0-.478-.15-.885-.365-1.074-.06-.182-.154-.31-.264-.31-.11 0-.204.128-.263.31-.215.189-.366.596-.366 1.075 0 .45.137.827.33 1.03M0 24.854v-3.5l18 3.268v3.763l-18-3.53z" fill="#ffac33"/><path d="M18 28.386v-3.763l18-3.268v3.5l-18 3.53z" fill="#ffd983"/></g></svg>