<svg viewBox="0 0 36 36" xmlns="http://www.w3.org/2000/svg"><path d="M23 4.326c0 4.368-9.837 6.652-9.837 13.206 0 2.184 1.085 4.468 2.177 4.468h15.291c1.093 0 2.192-2.284 2.192-4.468C32.823 10.977 23 8.694 23 4.326z" fill="#f4900c"/><path d="M35 33.815C35 35.022 34.711 36 32.815 36h-19.66C11.26 36 11 35.022 11 33.815V22.894c0-1.206.26-1.894 2.156-1.894h19.66c1.895 0 2.184.688 2.184 1.894z" fill="#ffd983"/><path d="M23 34a2 2 0 01-2 2H3a2 2 0 01-2-2v-1a2 2 0 012-2h18a2 2 0 012 2z" fill="#ffd983"/><path d="M26 29c0-3-1.896-5-3-5s-3 2-3 5v7h6zm-8 2.333c0-2-1.264-3.333-2-3.333s-2 1.333-2 3.333V36h4zm14 0c0-2-1.264-3.333-2-3.333s-2 1.333-2 3.333V36h4z" fill="#662113"/><path d="M9 34a2 2 0 01-2 2H5a2 2 0 01-2-2V8a2 2 0 012-2h2a2 2 0 012 2z" fill="#ffd983"/><path d="M5.995.326c0 1.837-2.832 2.918-2.832 5.675 0 .919.312 2 .627 2h4.402c.314 0 .631-1.081.631-2 0-2.757-2.828-3.838-2.828-5.675z" fill="#f4900c"/><path d="M10 12a1 1 0 01-1 1H3a1 1 0 010-2h6a1 1 0 011 1zm0-4a1 1 0 01-1 1H3a1 1 0 010-2h6a1 1 0 011 1z" fill="#ffac33"/></svg>