<svg xmlns="http://www.w3.org/2000/svg" viewBox="0 0 45 45"><defs><clipPath id="a"><path d="M0 36h36V0H0v36z"/></clipPath></defs><g clip-path="url(#a)" transform="matrix(1.25 0 0 -1.25 0 45)"><path d="M21.826.339a1.113 1.113 0 0 0 .86 1.819l3.17.016a1.114 1.114 0 0 0 1.12-1.11 1.11 1.11 0 0 0-1.109-1.12l-3.169-.017a1.118 1.118 0 0 0-.872.412M7.32.339c-.154.19-.248.433-.248.698a1.113 1.113 0 0 0 1.11 1.12l3.17.017a1.115 1.115 0 0 0 .01-2.23l-3.17-.017a1.12 1.12 0 0 0-.872.412" fill="#292f33"/><path d="M28.151 26.993c-.423.35-.535.964-.24 1.441l2.247 1.63a1.119 1.119 0 0 0 1.561-.246 1.121 1.121 0 0 0-.249-1.558l-1.657-.992a1.118 1.118 0 0 0-1.662-.275" fill="#7c533e"/><path d="M28.648 29.332l-4.044-2.58-5.079-.429s-6.822-.855-9.048-1.472c-3.818-1.058-1.925-3.99-1.925-3.99l2.584-4.168 1.322 1.723-1.736 3.708 4.871.907 4.001-.544 6.614 1.754 3.905 2.755-1.465 2.336z" fill="#292f33"/><path d="M20.336 30.646c0 1.848-1.31 3.347-2.927 3.347-1.618 0-2.93-1.499-2.93-3.347 0-1.433.792-2.646 1.899-3.123l.253-2.498a1.115 1.115 0 1 1 2.22.224l-.238 2.352c1.014.526 1.723 1.688 1.723 3.045" fill="#7c533e"/><path d="M18.982 32.925s-1.14-1.07-2.349-1.255c0 0-.723-1.172-.768-1.848 0 0-.45 1.08-.81.9-.36-.18-.495-.855-.18-1.304.315-.451.705-1.226.363-1.003-.689.45-.79.767-.976 1.07-.126.206-.425.942-.465 2.16-.023.722.233 2.117 1.708 2.858 1.278.644 3.287.316 4.231-.36.945-.675 1.18-2.38.594-3.055 0 0-.085.63-.489 1.14-.225.283-.859.697-.859.697" fill="#0b0200"/><path d="M13.5 25.469s.257-3.954-.29-8.34c.968.009 7.373.024 7.373.024s1.156 2.032.994 4.212c-.161 2.18-1.039 4.815-1.039 4.815l-1.082.108-.212 1.01-1.056-.4-.151-1.75-.456 1.666-1.547.135-.185-1.066-2.349-.414z" fill="#dd2e44"/><path d="M12.874 25.35s.689-2.444.385-7.5c2.228.037 3.964.731 3.964.731s.146 1.92-.228 3.615c-.546 2.47-1.105 3.922-1.105 3.922l-3.016-.769zM19.39 26.595s.623-3.27.484-5.224c-.14-1.953-.235-2.694-.235-2.694s.35-.32 1.479-.3c.466 1.221.842 3.513.786 5.017-.06 1.585-1.002 3.128-1.002 3.128l-1.512.073zM13.21 17.128s-.683-5.616-1.426-7.124c-.79-2.58-4.54-8.369-4.54-8.369l2.527-.585s4.298 4.64 5.43 6.582c1.212 2.185 2.2 5.511 2.2 5.511s2.576-2.266 3.727-3.958c.728-2.003.45-8.148.45-8.148l3.028.013s1.544 6.365.287 9.575c-.603 1.558-4.31 6.527-4.31 6.527l-7.373-.024z" fill="#292f33"/><path d="M14.73 15.892a1.114 1.114 0 0 0-1.376-.487l-2.217 1.289 1.321 1.723 1.714-.935a1.117 1.117 0 0 0 .558-1.59" fill="#7c533e"/></g></svg>