<svg xmlns="http://www.w3.org/2000/svg" viewBox="0 0 36 36"><path fill="#292F33" d="M21.826 35.661a1.113 1.113 0 0 1 .86-1.819l3.17-.016a1.114 1.114 0 0 1 .011 2.23l-3.169.017a1.12 1.12 0 0 1-.872-.412zm-14.506 0a1.106 1.106 0 0 1-.248-.698 1.113 1.113 0 0 1 1.109-1.121l3.17-.016a1.115 1.115 0 0 1 .01 2.23l-3.169.017a1.122 1.122 0 0 1-.872-.412z"/><path fill="#7C533E" d="M28.151 9.007a1.112 1.112 0 0 1-.24-1.441l2.247-1.63a1.12 1.12 0 0 1 1.562.247 1.122 1.122 0 0 1-.249 1.558l-1.657.991a1.118 1.118 0 0 1-1.663.275z"/><path fill="#292F33" d="M28.648 6.667l-4.044 2.58-5.079.429s-6.822.855-9.048 1.472c-3.818 1.058-1.925 3.991-1.925 3.991l2.583 4.167 1.322-1.723-1.736-3.708 4.871-.906 4.001.544 6.613-1.754 3.905-2.755-1.463-2.337z"/><path fill="#7C533E" d="M20.336 5.354c0-1.848-1.309-3.347-2.927-3.347S14.48 3.506 14.48 5.354c0 1.433.791 2.646 1.899 3.123l.253 2.498a1.114 1.114 0 1 0 2.219-.224l-.238-2.353c1.014-.526 1.723-1.688 1.723-3.044z"/><path fill="#0B0200" d="M18.982 3.075s-1.14 1.07-2.349 1.255c0 0-.723 1.171-.768 1.847 0 0-.45-1.081-.81-.9-.36.18-.496.855-.18 1.305.315.451.705 1.226.363 1.003-.689-.45-.79-.768-.976-1.07-.127-.206-.425-.943-.465-2.162-.024-.721.232-2.116 1.707-2.857 1.278-.644 3.287-.315 4.231.359.945.676 1.18 2.38.594 3.056 0 0-.085-.63-.488-1.14-.225-.282-.859-.696-.859-.696z"/><path fill="#DD2E44" d="M13.5 10.531s.257 3.954-.29 8.34c.968-.009 7.373-.024 7.373-.024s1.156-2.033.994-4.213c-.161-2.181-1.039-4.815-1.039-4.815l-1.082-.108-.212-1.011-1.056.4-.151 1.751-.456-1.666-1.548-.135-.185 1.066-2.348.415z"/><path fill="#292F33" d="M12.874 10.651s.689 2.443.385 7.5c2.228-.038 3.963-.732 3.963-.732s.146-1.919-.228-3.615c-.546-2.469-1.105-3.921-1.105-3.921l-3.015.768zm6.516-1.246s.623 3.271.484 5.224c-.14 1.953-.235 2.694-.235 2.694s.35.32 1.479.3c.467-1.222.843-3.514.786-5.018-.059-1.585-1.002-3.127-1.002-3.127l-1.512-.073zm-6.18 9.467s-.682 5.616-1.425 7.125c-.79 2.579-4.54 8.368-4.54 8.368l2.527.585s4.298-4.64 5.43-6.582c1.212-2.185 2.2-5.511 2.2-5.511s2.576 2.267 3.728 3.958c.727 2.003.448 8.148.448 8.148l3.028-.014s1.545-6.364.288-9.574c-.604-1.559-4.311-6.527-4.311-6.527l-7.373.024z"/><path fill="#7C533E" d="M14.731 20.108c-.27.476-.854.692-1.376.487l-2.218-1.289 1.322-1.723 1.713.935a1.116 1.116 0 0 1 .559 1.59z"/></svg>