<svg viewBox="0 0 36 36" xmlns="http://www.w3.org/2000/svg"><path d="M2 29l-1 6h8s1-2 3-2h6v-4zm32 0l1 6h-8s-1-2-3-2h-6v-4zM6 20c0 1 0 8-4 8l8 1zm24 0c0 1 0 8 4 8l-8 1z" fill="#662113"/><path d="M30 20c0 6.628-5.373 12-12 12S6 26.628 6 20c0-6.627 5.373-12 12-12s12 5.373 12 12z" fill="#662113"/><path d="M10 35a1 1 0 01-1 1H1a1 1 0 110-2h8a1 1 0 011 1zm26 0a1 1 0 01-1 1h-8a1 1 0 110-2h8a1 1 0 011 1zm-1-6a1 1 0 01-1 1H2a1 1 0 110-2h32a1 1 0 011 1z" fill="#a0041e"/><path d="M27 20a9 9 0 11-18 0 9 9 0 0118 0z" fill="#ffac33"/><path d="M26 20a8 8 0 11-16 0 8 8 0 0116 0z" fill="#f5f8fa"/><path d="M18 20s-.119 1-1.5 1-3.5-1-3.5-1 2.119-1 3.5-1 1.5 1 1.5 1z" fill="#c1694f"/><path d="M19 16.5c0 1.933-.448 3.5-1 3.5s-1-1.566-1-3.5 1-3.499 1-3.499c0-.001 1 1.566 1 3.499z" fill="#c1694f"/><circle cx="18" cy="20" fill="#662113" r=".586"/></svg>