<svg xmlns="http://www.w3.org/2000/svg" viewBox="0 0 45 45"><defs><clipPath id="a"><path d="M0 36h36V0H0v36z"/></clipPath></defs><g clip-path="url(#a)" transform="matrix(1.25 0 0 -1.25 0 45)"><path d="M14 14a1 1 0 1 0-2 0v8a1 1 0 0 0 2 0v-8zM24 14a1 1 0 1 0-2 0v8a1 1 0 1 0 2 0v-8z" fill="#f3d2a2"/><path d="M19 17h-5l1-11h3v7-7h3l1 11h-3z" fill="#66757f"/><path d="M18 13c-.552 0-1-7-1-7 0-.553.448 0 1 0 .553 0 1-.553 1 0 0 0-.447 7-1 7" fill="#546170"/><path d="M22 25h-8a2 2 0 0 1-2-2v-8h2v-1h2l2 1 2-1h2v1h2v8a2 2 0 0 1-2 2M16.64 6.52c1.105 0 1.346-.158 1.359-.52.052-1.375-1.786-3.48-3.14-2.98-.86.318-.422 1.902.14 2.98.23.442.962.52 1.64.52" fill="#292f33"/><path d="M19.36 6.52c-1.105 0-1.346-.158-1.359-.52-.05-1.375 1.787-3.48 3.14-2.98.861.318.422 1.902-.14 2.98-.23.442-.96.52-1.64.52" fill="#292f33"/><path d="M18 18l-2 7h4l-2-7z" fill="#e1e8ed"/><path d="M17 21l1-3 1 3-1 2.417L17 21z" fill="#55acee"/><path d="M16.799 26v-1.592L18 24l1.201.408V26h-2.402zM15.304 29.181c0-.592-.3-1.07-.67-1.07-.369 0-.669.478-.669 1.07 0 .592.3 1.071.67 1.071.37 0 .67-.479.67-1.07M22 29.181c0-.592-.3-1.07-.67-1.07-.369 0-.669.478-.669 1.07 0 .592.3 1.071.669 1.071.37 0 .67-.479.67-1.07" fill="#f3d2a2"/><path d="M18 25.094c-1.923 0-3.482 1.85-3.482 4.135 0 2.283 1.559 4.135 3.482 4.135 1.923 0 3.482-1.852 3.482-4.135 0-2.284-1.559-4.135-3.482-4.135" fill="#f3d2a2"/><path d="M19.305 26.904a.086.086 0 0 1-.073.04h-2.454a.087.087 0 0 1-.073-.04.087.087 0 0 1-.003-.084c.015-.03.372-.704 1.303-.704.93 0 1.288.675 1.303.704a.087.087 0 0 1-.003.084M18.008 28.064c-.27 0-.478.048-.646.122.056-.198.21-.474.646-.474.436 0 .59.276.646.474a1.578 1.578 0 0 0-.646-.122" fill="#c1694f"/><path d="M14.827 29.604c.06.296.148.546.246.771h-.777c.121-.875.465-1.095.531-.77M21.173 29.73c.239-.47.475-.153.55.77h-.942l.392-.77" fill="#ffe51e"/><path d="M16 25l-1-3 1.25-.344-.687-1.125L18 18l-2 7zM20 25l1-3-1.25-.344.687-1.125L18 18l2 7z" fill="#66757f"/><path d="M17 24l1-1 1 1-1 .417L17 24z" fill="#55acee"/><path d="M16.563 25.438L18 24.416l-.937-.996L16 25.002l.561.436zM19.438 25.438L18 24.416l.936-.996L20 25.002l-.561.436z" fill="#f5f8fa"/><path d="M24 1c0-.553-2.686-1-6-1s-6 .447-6 1c0 .553 2.686 1 6 1s6-.447 6-1" fill="#99aab5"/><path d="M23.227 31.167c0-.66-2.337-1.333-5.219-1.333s-5.219.673-5.219 1.333c0 .66 1.196.896 5.219.896 4.023 0 5.219-.236 5.219-.896" fill="#292f33"/><path d="M20.19 31.984c.679.163 1.225.45 1.225.45s-.141.578-.284.95c-.442 1.153-1.175 1.73-1.85 1.558-1.018-.259-1.495-.11-2.711.034-1.214.144-1.773-1.682-1.967-2.542 0 0 .32-.274.9-.403 1.224-.273 3.763-.269 4.688-.047" fill="#292f33"/><path d="M21.583 31.775a3.748 3.748 0 0 1-.169.659s-1.1-.43-3.406-.43c-2.305 0-3.406.43-3.406.43s-.078-.214-.126-.44a6.034 6.034 0 0 1-.043-.22c-.048-.272.081-.46.967-.648.6-.127 1.582-.241 2.608-.22 1.026-.021 2.01.093 2.61.22.884.188 1.013.376.965.649" fill="#66757f"/><path d="M21.492 30.102l-.958-.316c-.337.047-1.039.065-1.78-.016-.197-.02-.272-.076-.738-.076-.467 0-.542.056-.739.077-.74.08-1.442.063-1.779.016l-.958.316a.172.172 0 0 1-.22-.112.175.175 0 0 1 .11-.22l.894-.296c.066-.05.21-.148.242-.248.04-.116.117-.86.35-1.055.241-.2 1.148-.126 1.322-.039.39.194.437.82.506 1.094.038.155.272.155.272.155s.233 0 .272-.155c.07-.274.117-.902.505-1.096.174-.086 1.081-.16 1.322.04.233.193.311.94.35 1.056.033.1.175.197.241.247l.895.296c.092.03.142.13.112.221-.032.092-.134.144-.22.111" fill="#292f33"/></g></svg>