<svg viewBox="0 0 36 36" xmlns="http://www.w3.org/2000/svg"><path d="M16 9h4v17h-4z" fill="#99aab5"/><path d="M10 24.5A1.5 1.5 0 018.5 26h-3a1.5 1.5 0 010-3h3a1.5 1.5 0 011.5 1.5z" fill="#da2f47"/><path d="M34 33a2 2 0 01-2 2H4a2 2 0 01-2-2v-6a2 2 0 012-2h28a2 2 0 012 2z" fill="#31373d"/><path d="M10 34.5A1.5 1.5 0 018.5 36h-3a1.5 1.5 0 110-3h3a1.5 1.5 0 011.5 1.5zm22 0a1.5 1.5 0 01-1.5 1.5h-3a1.5 1.5 0 010-3h3a1.5 1.5 0 011.5 1.5z" fill="#31373d"/><circle cx="18" cy="7" fill="#da2f47" r="5"/><path d="M25 26a2 2 0 01-2 2H13a2 2 0 01-2-2v-1c0-1.104 3.896-6 5-6h4c1.104 0 5 4.896 5 6z" fill="#31373d"/><path d="M33 28a1 1 0 01-1 1H4a1 1 0 110-2h28a1 1 0 011 1z" fill="#66757f"/></svg>