<svg xmlns="http://www.w3.org/2000/svg" viewBox="0 0 45 45"><defs><clipPath id="a"><path d="M0 36h36V0H0v36z"/></clipPath></defs><g clip-path="url(#a)" transform="matrix(1.25 0 0 -1.25 0 45)"><path d="M8.942 21.956c.233.338.38.775.38 1.26 0 1.06-.68 1.92-1.517 1.92-.837 0-1.516-.86-1.516-1.92 0-.879.467-1.61 1.101-1.84-.233-.733-2.749-7.874-1.507-10.396 1.242-2.522 10.546-1.45 11.242-.314-.534 2.03-7.658 8.056-8.183 11.29M27.056 21.956a2.22 2.22 0 0 0-.38 1.26c0 1.06.68 1.92 1.517 1.92.837 0 1.516-.86 1.516-1.92 0-.879-.467-1.61-1.101-1.84.233-.733 2.749-7.874 1.507-10.396-1.242-2.522-10.546-1.45-11.242-.314.534 2.03 7.658 8.056 8.183 11.29" fill="#963b22"/><path d="M33 0v1a6 6 0 0 1-6 6H9a6 6 0 0 1-6-6V0h30zM26.75 15.565c1.187-.208 2.619-.13 2.416-.917-.479-1.854-2.603-1.167-2.978-1.187-.375-.021.562 2.104.562 2.104" fill="#66757f"/><path d="M27.063 15.355c1.875-.25 2.54-.416 1.166-.958-.772-.305-2.243-4.803-3.331-4.118-1.088.684 2.165 5.076 2.165 5.076" fill="#292f33"/><path d="M9.255 15.565c-1.187-.208-2.619-.13-2.416-.917.48-1.854 2.603-1.167 2.978-1.187.376-.021-.562 2.104-.562 2.104" fill="#66757f"/><path d="M8.943 15.355c-1.875-.25-2.541-.416-1.166-.958.772-.305 2.243-4.803 3.33-4.118 1.089.684-2.164 5.076-2.164 5.076" fill="#292f33"/><path d="M28 20.5C28 13.597 23.523 8 18 8S8 13.597 8 20.5 12.477 33 18 33s10-5.597 10-12.5" fill="#d5ab88"/><path d="M19 15.5a.5.5 0 0 0-.5-.5h-1a.5.5 0 0 0 0 1h1a.5.5 0 0 0 .5-.5" fill="#c1694f"/><path d="M7.657 21.212c.148-.147.888-.591 1.036-1.034.148-.443.444-2.954 1.333-3.693.916-.762 4.37-.478 5.03-.15 1.482.739 1.663 2.799 1.925 3.843.148.59 1.036.59 1.036.59s.889 0 1.036-.59c.262-1.044.444-3.104 1.924-3.841.662-.33 4.116-.614 5.034.148.887.739 1.183 3.25 1.33 3.693.148.444.889.887 1.036 1.034.149.148.149.739 0 .887-.296.295-3.788.558-7.548.147-.75-.081-1.035-.295-2.812-.295-1.776 0-2.062.214-2.812.295-3.76.41-7.252.148-7.548-.147-.147-.148-.147-.74 0-.887" fill="#292f33" fill-rule="evenodd"/><path d="M7.858 27.605s1.359 8.901 5.932 8.372c3.512-.405 4.889-.824 7.833-.096 1.947.481 4.065-1.136 5.342-4.38.815-2.067 1.224-4.04 1.224-4.04s3.938.385 4.165-1.732c.227-2.117-4.354-4.716-15.89-4.716-6.464 0-13.134 2.357-13.451 4.33-.317 1.973 4.845 2.262 4.845 2.262" fill="#66757f"/><path d="M8.125 28.85s-.27-1.104-.406-1.87c-.136-.769.226-1.297 2.705-1.825 3.287-.7 10.679-.692 15.059.384 1.759.432 2.886.72 2.75 1.583-.166 1.068-.196 1.066-.54 2.207 0 0-1.477-.502-3.427-.959-2.66-.624-9.964-.912-13.481-.144-1.874.41-2.66.624-2.66.624M7.99 14.898c-.355-.146 2.92-1.378 7.48-1.458 4.77-.084 6.233-.39 5.144-1.46-1.145-1.124-.852-2.893-.77-3.417.081-.525 2.046-1.917 2.208-2.562.161-.644-1.23-5.96-1.23-5.96l-8.728.251C9.528 9.138 9.211 8.795 7.99 13.899c-.24 1.008 0 1 0 1" fill="#292f33"/><path d="M6.99 14.856c-.355-.145 2.92-1.378 7.48-1.458 4.77-.084 6.233-.39 5.144-1.459L19.822 0l-8.728.252c-2.566 8.843-2.883 8.5-4.105 13.604-.24 1.008 0 1 0 1" fill="#66757f"/><path d="M28.052 14.898c.354-.146-2.921-1.378-7.48-1.458-4.77-.084-6.234-.39-5.145-1.46 1.146-1.124 2.977-2.891 2.895-3.415-.081-.525-4.171-1.918-4.333-2.563-.161-.644 1.23-5.962 1.23-5.962l8.728.252c2.566 8.845 2.883 8.502 4.105 13.606.24 1.008 0 1 0 1" fill="#292f33"/><path d="M28.958 14.898c.354-.146-2.921-1.378-7.48-1.458-4.77-.084-6.234-.39-5.145-1.46 1.146-1.124 2.977-2.891 2.895-3.415-.081-.525-4.171-1.918-4.333-2.563C14.734 5.357 16.124.04 16.124.04l8.657-.009c2.566 8.844 2.955 8.763 4.177 13.867.241 1.008 0 1 0 1" fill="#66757f"/></g></svg>