<svg viewBox="0 0 36 36" xmlns="http://www.w3.org/2000/svg"><path d="M4.167 32.729c.292.167.626.271.987.271a2 2 0 10-2-2c0 .361.103.695.27.987L.278 35.133 1.154 28l9-7 5 5-7 9-7.134.876z" fill="#99aab5"/><path d="M22.511 5.308a2.946 2.946 0 000 4.167l4.167 4.168a2.948 2.948 0 004.167 0l4.167-4.168a2.948 2.948 0 000-4.167l-4.167-4.167a2.946 2.946 0 00-4.167 0z" fill="#66757f"/><path d="M9.511 18.309L26.713 1.105l8.333 8.335-17.201 17.203a2.949 2.949 0 01-4.168 0l-4.166-4.168a2.945 2.945 0 010-4.166z" fill="#31373d"/><path d="M17.469 10.35l2.125-2.125 8.334 8.334-2.125 2.125z" fill="#66757f"/></svg>