<svg xmlns="http://www.w3.org/2000/svg" viewBox="0 0 36 36"><path fill="#66757f" d="M33 17c0 9.389-2.188 19-15 19S3 26.389 3 17 8.611 3 18 3c9.465 0 15 4.701 15 14"/><path fill="#99aab5" d="M32 13.969C32 21.891 30.062 30 18 30S4 21.891 4 13.969 9.237 3 18 3s14 3.047 14 10.969"/><path fill="#ccd6dd" d="M29 12.5c0 5.246-4.925 8.5-11 8.5S7 17.746 7 12.5 11.925 3 18 3s11 4.253 11 9.5"/><path fill="#744eaa" d="M28 10c0 5.523-4.478 8-10 8S8 15.523 8 10 12.477 0 18 0s10 4.477 10 10"/><path fill="#292f33" d="M17 23v4.75c0 1-9.672-1-9.672-6 0-1.375.301-1.973 2.315-.984C14.134 22.969 17 22.452 17 23m2 0v4.75c0 1 9.672-1 9.672-6 0-1.375-.301-1.973-2.316-.984C21.865 22.969 19 22.452 19 23"/></svg>