<svg xmlns="http://www.w3.org/2000/svg" viewBox="0 0 36 36"><path fill="#d79e84" d="M35 30a2 2 0 0 1-2 2H3a2 2 0 0 1-2-2V6a2 2 0 0 1 2-2h30a2 2 0 0 1 2 2z"/><path fill="#bf6952" d="M33 4H3a2 2 0 0 0-2 2v24c0 .389.116.748.307 1.055l33.33-26.198A2 2 0 0 0 33 4"/><path fill="#8ccaf7" d="M31 22V9a1 1 0 0 0-1-1H6a1 1 0 0 0-1 1v13z"/><path fill="#5dadec" d="M6 28h13v-7H5v6a1 1 0 0 0 1 1"/><path fill="#292f33" d="M19 21v7h11a1 1 0 0 0 1-1v-6z"/><path fill="#67757f" d="M20 19c-.613 0-.852 1.127-1.405 2-.349.55-.822 1-1.595 1-2 0-2 3-3 3-1.256 0-2.512 1.578-3.273 3H19c.879-1.758 1.761-3.514 4-3.913A5.6 5.6 0 0 1 24 24c3 0 3.106-1.553 4-2 1.358-.679 2.251-.437 3-.211V19z"/><path fill="#e75a70" d="m25 11-4 4v4h8v-4z"/><path fill="#292f33" d="M29 16a1 1 0 0 1-.707-.293L25 12.414l-3.293 3.293a.999.999 0 1 1-1.414-1.414l4-4a1 1 0 0 1 1.414 0l4 4A.999.999 0 0 1 29 16"/><path fill="#bb1a34" d="M23 16h2v3h-2z"/><path fill="#fff" d="M17.219 14.125a1.874 1.874 0 0 0-1.875-1.875c-.079 0-.155.014-.232.023q.043-.193.044-.398A1.874 1.874 0 0 0 13.281 10a1.87 1.87 0 0 0-1.583.878 1.9 1.9 0 0 0-.667-.128 1.87 1.87 0 0 0-1.851 1.632 1.9 1.9 0 0 0-.68-.132 1.874 1.874 0 1 0 0 3.75c.041 0 .08-.01.121-.012l.004.012h6.75v-.003a1.873 1.873 0 0 0 1.844-1.872"/></svg>