<svg viewBox="0 0 36 36" xmlns="http://www.w3.org/2000/svg"><path d="M30 34a2 2 0 01-2 2H8a2 2 0 01-2-2V2a2 2 0 012-2h20a2 2 0 012 2z" fill="#292f33"/><path d="M28 16a1 1 0 01-1 1H9a1 1 0 01-1-1V3a1 1 0 011-1h18a1 1 0 011 1zm0 17a1 1 0 01-1 1H9a1 1 0 01-1-1V20a1 1 0 011-1h18a1 1 0 011 1z" fill="#66757f"/><path d="M22 8a1 1 0 01-1 1h-6a1 1 0 01-1-1V5a1 1 0 011-1h6a1 1 0 011 1zm0 17a1 1 0 01-1 1h-6a1 1 0 01-1-1v-3a1 1 0 011-1h6a1 1 0 011 1z" fill="#292f33"/><path d="M15 5h6v3h-6zm0 17h6v3h-6zm9-8.97a.97.97 0 01-.97.97H12.97a.97.97 0 01-.97-.97v-.06a.97.97 0 01.97-.97h10.06a.97.97 0 01.97.97zm0 16.999a.971.971 0 01-.97.971H12.97a.97.97 0 01-.97-.971v-.059a.97.97 0 01.97-.97h10.06c.535 0 .97.435.97.971z" fill="#e1e8ed"/></svg>