<svg viewBox="0 0 36 36" xmlns="http://www.w3.org/2000/svg"><path d="M31 15a2 2 0 01-2 2H7a2 2 0 01-2-2V7a2 2 0 012-2h22a2 2 0 012 2z" fill="#fdcb58"/><path d="M33 19a2 2 0 01-2 2H5a2 2 0 01-2-2v-8a2 2 0 012-2h26a2 2 0 012 2z" fill="#fdd888"/><path d="M35 33a2 2 0 01-2 2H3a2 2 0 01-2-2V15a2 2 0 012-2h30a2 2 0 012 2z" fill="#fee7b8"/><path d="M23 3h-5a2 2 0 00-2 2v1h2a2 2 0 012 2h3a2 2 0 002-2V5a2 2 0 00-2-2z" fill="#78b159"/><path d="M17 7h-5a2 2 0 00-2 2v1h2a2 2 0 012 2h3a2 2 0 002-2V9a2 2 0 00-2-2z" fill="#f18f26"/><path d="M13 14a2 2 0 01-2 2H6a2 2 0 01-2-2v-1a2 2 0 012-2h5a2 2 0 012 2z" fill="#9268ca"/></svg>