<svg xmlns="http://www.w3.org/2000/svg" viewBox="0 0 36 36"><path fill="#fdcb58" d="M31 15a2 2 0 0 1-2 2H7a2 2 0 0 1-2-2V7a2 2 0 0 1 2-2h22a2 2 0 0 1 2 2z"/><path fill="#fdd888" d="M33 19a2 2 0 0 1-2 2H5a2 2 0 0 1-2-2v-8a2 2 0 0 1 2-2h26a2 2 0 0 1 2 2z"/><path fill="#fee7b8" d="M35 33a2 2 0 0 1-2 2H3a2 2 0 0 1-2-2V15a2 2 0 0 1 2-2h30a2 2 0 0 1 2 2z"/><path fill="#78b159" d="M23 3h-5a2 2 0 0 0-2 2v1h2a2 2 0 0 1 2 2h3a2 2 0 0 0 2-2V5a2 2 0 0 0-2-2"/><path fill="#f18f26" d="M17 7h-5a2 2 0 0 0-2 2v1h2a2 2 0 0 1 2 2h3a2 2 0 0 0 2-2V9a2 2 0 0 0-2-2"/><path fill="#9268ca" d="M13 14a2 2 0 0 1-2 2H6a2 2 0 0 1-2-2v-1a2 2 0 0 1 2-2h5a2 2 0 0 1 2 2z"/></svg>