<svg viewBox="0 0 36 36" xmlns="http://www.w3.org/2000/svg"><path d="M35 20c0 2.209-1.791 2-4 2H5c-2.209 0-4 .209-4-2L3 8c.125-1.917 1.791-4 4-4h22c2.209 0 3.791 2.208 4 4z" fill="#67757f"/><path d="M28 13a2 2 0 01-2 2H10a2 2 0 01-2-2V5a2 2 0 012-2h16a2 2 0 012 2z" fill="#ccd6dd"/><path d="M30 17a2 2 0 01-2 2H8a2 2 0 01-2-2V9a2 2 0 012-2h20a2 2 0 012 2z" fill="#e1e8ed"/><path d="M32 21a2 2 0 01-2 2H6a2 2 0 01-2-2v-8a2 2 0 012-2h24a2 2 0 012 2z" fill="#f5f8fa"/><path d="M35 31a4 4 0 01-4 4H5a4 4 0 01-4-4V20a4 4 0 014-4h26a4 4 0 014 4z" fill="#9aaab4"/><path d="M22 1h-5a2 2 0 00-2 2v1h4a2 2 0 012 2h1a2 2 0 002-2V3a2 2 0 00-2-2z" fill="#fcab40"/><path d="M18 5h-5a2 2 0 00-2 2v1h4a2 2 0 012 2h1a2 2 0 002-2V7a2 2 0 00-2-2z" fill="#5dadec"/><path d="M16 12a2 2 0 01-2 2H9a2 2 0 01-2-2v-1a2 2 0 012-2h5a2 2 0 012 2z" fill="#e75a70"/><path d="M25 28a2 2 0 01-2 2H13a2 2 0 01-2-2v-5a2 2 0 012-2h10a2 2 0 012 2z" fill="#67757f"/><path d="M23 27a1 1 0 01-1 1h-8a1 1 0 01-1-1v-3a1 1 0 011-1h8a1 1 0 011 1z" fill="#e1e8ed"/></svg>