<svg viewBox="0 0 36 36" xmlns="http://www.w3.org/2000/svg"><path d="M31.5 4l-1.784 4.542L27.932 4h-4.147l-1.926 4.903L19.932 4h-3.863l-1.926 4.903L12.216 4H8.068L6.284 8.542 4.5 4H2.133l3.735 28.013h24.263L33.867 4zm-5.642 1.678l2.459 6.425-2.601 6.621-2.457-6.254zM18 6.049l2.457 6.42L18 18.723l-2.457-6.254zm-7.858-.371l2.599 6.792-2.457 6.254-2.601-6.621zM5.958 16.611l.326-.853 2.549 6.66-1.573 4.004zM8.068 32l2.216-5.79L12.5 32zm3.668-9.582l2.407-6.288 2.406 6.288-2.406 6.126zM15.784 32L18 26.21 20.216 32zm3.667-9.582l2.406-6.288 2.406 6.288-2.406 6.126zM23.5 32l2.216-5.79L27.932 32zm5.392-5.192l-1.725-4.39 2.549-6.659.411 1.074z" fill="#9aaab4"/><path d="M32 34a2 2 0 00-2-2H6a2 2 0 000 4h24a2 2 0 002-2zm4-32a2 2 0 00-2-2H2a2 2 0 000 4h32a2 2 0 002-2z" fill="#67757f"/></svg>