<svg viewBox="0 0 36 36" xmlns="http://www.w3.org/2000/svg"><g fill="#67757f"><circle cx="13" cy="33" r="3"/><circle cx="32" cy="33" r="3"/><path d="M13 32h19v2H13z"/></g><path d="M20 15.502c0-1.381 1.119-1.5 2.5-1.5s2.5.119 2.5 1.5V33.5a2.5 2.5 0 11-5 0z" fill="#9aaab4"/><path d="M27 15.002a2 2 0 01-2 2h-5a2 2 0 01-2-2c0-1.105.896-1 2-1h5c1.104 0 2-.104 2 1z" fill="#67757f"/><path d="M28 27a2 2 0 01-2 2h-7a2 2 0 01-2-2v-5a2 2 0 012-2h7a2 2 0 012 2zm0-22a2 2 0 01-2 2h-7a2 2 0 01-2-2V4a2 2 0 012-2h7a2 2 0 012 2z" fill="#da2f47"/><path d="M13 22a2 2 0 01-2-2V7a2 2 0 012-2h15V4a4 4 0 00-4-4H7a4 4 0 00-4 4v19a4 4 0 004 4h14a4 4 0 004-4v-1z" fill="#da2f47"/><path d="M9 20a2 2 0 01-4 0V7a2 2 0 014 0z" fill="#e75a70"/></svg>