<svg viewBox="0 0 36 36" xmlns="http://www.w3.org/2000/svg"><path d="M27.815 4h1.996v2.391h-1.996z" fill="#66757f"/><path d="M29 4H9a4 4 0 00-4 4v24a4 4 0 004 4h20a4 4 0 004-4V8a4 4 0 00-4-4z" fill="#55acee"/><path d="M27 4H7a4 4 0 00-4 4v24a4 4 0 004 4h20a4 4 0 004-4V8a4 4 0 00-4-4z" fill="#ccd6dd"/><path d="M28 15a1 1 0 01-1 1H7a1 1 0 110-2h20a1 1 0 011 1zm0 5a1 1 0 01-1 1H7a1 1 0 110-2h20a1 1 0 011 1zm0 5a1 1 0 01-1 1H7a1 1 0 110-2h20a1 1 0 011 1zm-8 5a1 1 0 01-1 1H7a1 1 0 110-2h12a1 1 0 011 1z" fill="#99aab5"/><path d="M7.836 8.731c-.702 0-1.271-.666-1.271-1.489 0-.822.569-1.489 1.271-1.489.701 0 1.27.667 1.27 1.489s-.569 1.489-1.27 1.489z" fill="#292f33"/><path d="M8.543 7.083c-.055-.48-.374-.792-.729-1.017-.485-.307-1-1.008-1-1.877 0-1.104.671-2.095 1.5-2.095s1.5.905 1.5 1.905h1.996c-.021-2-1.575-3.821-3.496-3.821-1.934 0-3.5 1.819-3.5 4.005 0 1.853 1.045 3.371 2.569 3.926.76.276 1.224-.447 1.16-1.026z" fill="#66757f"/><path d="M13.836 8.731c-.702 0-1.271-.666-1.271-1.489 0-.822.569-1.489 1.271-1.489.701 0 1.27.667 1.27 1.489s-.569 1.489-1.27 1.489z" fill="#292f33"/><path d="M14.543 7.083c-.055-.48-.374-.792-.729-1.017-.485-.307-1-1.008-1-1.877 0-1.104.671-2.095 1.5-2.095s1.5.905 1.5 1.905h1.996c-.02-2-1.575-3.821-3.496-3.821-1.934 0-3.5 1.819-3.5 4.005 0 1.853 1.045 3.371 2.569 3.926.76.276 1.224-.447 1.16-1.026z" fill="#66757f"/><path d="M19.836 8.731c-.702 0-1.271-.666-1.271-1.489 0-.822.569-1.489 1.271-1.489.701 0 1.271.667 1.271 1.489-.001.822-.57 1.489-1.271 1.489z" fill="#292f33"/><path d="M20.543 7.083c-.055-.48-.374-.792-.728-1.017-.485-.307-1-1.008-1-1.877 0-1.104.671-2.095 1.5-2.095s1.5.905 1.5 1.905h1.996c-.02-2-1.575-3.821-3.496-3.821-1.934 0-3.5 1.819-3.5 4.005 0 1.853 1.045 3.371 2.569 3.926.759.276 1.223-.447 1.159-1.026z" fill="#66757f"/><path d="M25.836 8.731c-.702 0-1.271-.666-1.271-1.489 0-.822.569-1.489 1.271-1.489.701 0 1.271.667 1.271 1.489-.001.822-.57 1.489-1.271 1.489z" fill="#292f33"/><path d="M26.543 7.083c-.055-.48-.374-.792-.728-1.017-.485-.307-1-1.008-1-1.877 0-1.104.671-2.095 1.5-2.095s1.5.905 1.5 1.905h1.996c-.02-2-1.575-3.821-3.496-3.821-1.934 0-3.5 1.819-3.5 4.005 0 1.853 1.045 3.371 2.569 3.926.759.276 1.223-.447 1.159-1.026z" fill="#66757f"/></svg>