<svg viewBox="0 0 36 36" xmlns="http://www.w3.org/2000/svg"><path d="M23.378 19.029C22.67 19.736 16.305 31.757.75 36c1.414-1.415 19.54-21.691 19.54-21.691z" fill="#9aaab4"/><path d="M17.72 13.371C17.013 14.078 4.992 20.444.75 36l21.213-21.214z" fill="#ccd6dd"/><path d="M20.549 11.957c-.781.781-.655 2.174.283 3.112l.848.849c.938.937 2.33 1.063 3.112.282l7.778-7.778c.781-.781.654-2.174-.283-3.111l-.848-.848c-.938-.938-2.331-1.064-3.111-.283z" fill="#d99e82"/><path d="M28.892 12.1l-7.071-1.414-1.271 1.271c-.133.133-.23.288-.311.452l6.954 1.391zm-7.212 3.818c.938.938 2.331 1.063 3.112.282l.826-.826-5.328-1.065c.131.27.312.529.543.76zm8.911-5.518l1.7-1.699-7.071-1.414-1.7 1.699zm2.423-3.793a2.704 2.704 0 00-.727-1.297l-.848-.848a2.87 2.87 0 00-.325-.275l-2.11-.422c-.252.084-.483.22-.676.414l-1.242 1.242z" fill="#bf6952"/><circle cx="31.858" cy="4.896" fill="#8a4633" r="4"/><g fill="#ffac33"><path d="M16.306 9.836a1.5 1.5 0 012.121 0l8.839 8.839a1.5 1.5 0 11-2.121 2.121l-8.839-8.839a1.5 1.5 0 010-2.121z"/><circle cx="27.266" cy="20.796" r="2.5"/><circle cx="16.306" cy="9.836" r="2.5"/></g><circle cx="27.266" cy="20.796" fill="#ffcc4d" r="1.5"/><circle cx="16.306" cy="9.836" fill="#ffcc4d" r="1.5"/><path d="M26.566 3.803a1.066 1.066 0 011.509 0l4.865 4.866a1.066 1.066 0 11-1.509 1.509l-4.865-4.866a1.066 1.066 0 010-1.509z" fill="#ffac33"/></svg>