<svg xmlns="http://www.w3.org/2000/svg" viewBox="0 0 36 36"><path fill="#88c9f9" d="M36 32s0 4-4 4H4s-4 0-4-4V4c0-4 4-4 4-4h28c4 0 4 4 4 4z"/><g fill="#3e721d"><path d="M24 2c1 0 2 3 3 3s3 0 3 1-3 1-3 2-1 1-2 1-3 0-3-1 2 0 2-1-1-5 0-5m-3 8c0-1 2-1 2-1s1 2 0 2-2-1-2-1m2 2c-1 0-1 2-1 3s0 3-1 3-2 1-2 2-1 2-2 2-2 2-2 2-4 1-5 1-3 0-3 1-3 2-1 2 2-1 3-1h2s3-1 3 0 0 2 1 2 2-1 2-2 1-1 2-1 2 0 2-1 1-2 2-2 1-2 1-3 0-3 1-3 2-3 1-3-2 0-2-1-1-1-1-1"/><path d="M8 30c0-1 0-2 1-2h3c1 0 1 0 0 1s-1 0-2 0 0 2-1 2-1-1-1-1m-4 3c0-1 1-1 1-2s-1 0-1-1 1-1 2-1 1 1 1 2-1 1-1 2-1 1-1 1-1 0-1-1"/></g></svg>