<svg xmlns="http://www.w3.org/2000/svg" viewBox="0 0 36 36"><path fill="#CCD6DD" d="M34.5 24.995c0 2.209-1.791 2-4 2h-25c-2.209 0-4 .209-4-2L3.5 11c.293-1.75 1-2 2-2h25c1 0 1.791.208 2 2l2 13.995z"/><path fill="#67757F" d="M13.5 16zm0 0zm0 12z"/><path fill="#292F33" d="M28.5 16.5A1.5 1.5 0 0 1 27 18H9a1.5 1.5 0 1 1 0-3h18a1.5 1.5 0 0 1 1.5 1.5z"/><path fill="#5DADEC" d="M26.5 17V3a2 2 0 0 0-2-2h-13a2 2 0 0 0-2 2v14h17z"/><path fill="#9AAAB4" d="M34.5 25a2 2 0 0 0-2-2h-29a2 2 0 0 0-2 2v8a2 2 0 0 0 2 2h29a2 2 0 0 0 2-2v-8z"/><path fill="#5DADEC" d="M18.5 22zm0 0z"/><path fill="#67757F" d="M13.5 23v6a2 2 0 0 0 2 2h5a2 2 0 0 0 2-2v-6h-9z"/><path fill="#9AAAB4" d="M22.5 23v-1a2 2 0 0 0-2-2h-5a2 2 0 0 0-2 2v1h9zm-3 4.5a1.5 1.5 0 0 1-3 0v-1a1.5 1.5 0 1 1 3 0v1z"/><path fill="#FFF" d="M18.806 8.997l2.778-2.778a.567.567 0 1 0-.803-.803l-2.778 2.778-2.778-2.778a.567.567 0 1 0-.803.803L17.2 8.997l-2.784 2.784a.567.567 0 1 0 .802.803L18.002 9.8l2.778 2.778a.565.565 0 0 0 .802 0 .567.567 0 0 0 0-.803l-2.776-2.778z"/></svg>