<svg viewBox="0 0 36 36" xmlns="http://www.w3.org/2000/svg"><path d="M16.103 26h3v10h-3z" fill="#be1931"/><path d="M20.719 19.459l-6.233.002c-.029.104-2.745 9.524-12.025 16.539h5.825c2.453-1.656 5.72-2.678 9.316-2.678s6.864 1.022 9.317 2.678h5.827c-9.245-6.998-11.998-16.437-12.027-16.541zm-3.116 10.863c-2.151 0-4.202.329-6.093.906a38.99 38.99 0 003.119-4.717h5.947a38.912 38.912 0 003.119 4.717 20.835 20.835 0 00-6.092-.906z" fill="#dd2e44"/><path d="M14.539 16.038a39.057 39.057 0 01-.785 3.5h7.755a38.714 38.714 0 01-.785-3.5z" fill="#dd2e44"/><path d="M23.42 19.586l-.875-.642a.268.268 0 00-.158-.051H12.84a.268.268 0 00-.158.051l-.875.642a.25.25 0 00-.102.215s.204 3.441.265 3.552c.073.133.508.48.588.48h10.111c.08 0 .514-.346.588-.48.062-.112.265-3.552.265-3.552a.245.245 0 00-.102-.215zm-3.221-6.881h-5.136a77.449 77.449 0 01-.524 3.333h6.184a77.449 77.449 0 01-.524-3.333z" fill="#cdd6dd"/><path d="M19.774 9.205h-4.286a124.974 124.974 0 01-.425 3.5h5.136a128.847 128.847 0 01-.425-3.5z" fill="#dd2e44"/><path d="M19.657 8.089c-.025.004-4.021.002-4.051-.003-.034.334-.073.704-.118 1.119h4.286z" fill="#cdd6dd"/><path d="M19.657 8.089c-.059-.571-.135-1.281-.135-1.281h-3.781s-.076.709-.135 1.278c.03.005 4.026.007 4.051.003z" fill="#aab8c2"/><path d="M15.175 5.901v1.318c0 .276.233.5.521.5h3.888a.511.511 0 00.521-.5V5.901z" fill="#e1e8ed"/><path d="M19.583 4.083h-1.099L18.279.325a.179.179 0 00-.182-.175h-.848a.178.178 0 00-.182.175l-.205 3.758h-1.166a.511.511 0 00-.521.5v1.318h4.929V4.583a.51.51 0 00-.521-.5z" fill="#dd2e44"/></svg>