<svg viewBox="0 0 36 36" xmlns="http://www.w3.org/2000/svg"><path d="M34.5 24.995c0 2.209-1.791 2-4 2h-25c-2.209 0-4 .209-4-2L3.5 11c.293-1.75 1-2 2-2h25c1 0 1.791.208 2 2z" fill="#8ccaf7"/><path d="M28.5 16.5A1.5 1.5 0 0127 18H9a1.5 1.5 0 110-3h18a1.5 1.5 0 011.5 1.5z" fill="#292f33"/><path d="M26.25 17.188v-14a2 2 0 00-2-2h-13a2 2 0 00-2 2v14z" fill="#ffd983"/><path d="M34.5 25a2 2 0 00-2-2h-29a2 2 0 00-2 2v8a2 2 0 002 2h29a2 2 0 002-2z" fill="#5dadec"/><path d="M13.5 23v6a2 2 0 002 2h5a2 2 0 002-2v-6z" fill="#4289c1"/><path d="M22.5 23v-1a2 2 0 00-2-2h-5a2 2 0 00-2 2v1zm-3 4.5a1.5 1.5 0 01-3 0v-1a1.5 1.5 0 113 0z" fill="#5dadec"/><g fill="#c1694f"><path d="M24 5a.5.5 0 01-.5.5H16a.5.5 0 010-1h7.5a.5.5 0 01.5.5m0 4a.5.5 0 01-.5.5H16a.5.5 0 010-1h7.5a.5.5 0 01.5.5m0 4a.5.5 0 01-.5.5H16a.5.5 0 010-1h7.5a.5.5 0 01.5.5"/><circle cx="13" cy="5" r="1"/><circle cx="13" cy="9" r="1"/><circle cx="13" cy="13" r="1"/></g></svg>