<svg xmlns="http://www.w3.org/2000/svg" viewBox="0 0 45 45"><defs><clipPath id="a"><path d="M0 36h36V0H0v36z"/></clipPath></defs><g clip-path="url(#a)" transform="matrix(1.25 0 0 -1.25 0 45)"><path d="M36 18c0-9.941-8.059-18-18-18C8.06 0 0 8.059 0 18c0 9.94 8.06 18 18 18 9.941 0 18-8.06 18-18" fill="#ffcc4d"/><path d="M16 18c-.419 0-.809.265-.949.684C14.848 19.283 14.034 21 13 21c-1.062 0-1.888-1.827-2.051-2.316a.998.998 0 0 0-1.265-.632.999.999 0 0 0-.633 1.264C9.177 19.693 10.355 23 13 23c2.645 0 3.823-3.307 3.949-3.684A.999.999 0 0 0 16 18M26 18a.999.999 0 0 0-.948.684C24.849 19.283 24.033 21 23 21c-1.062 0-1.889-1.827-2.052-2.316a.996.996 0 0 0-1.264-.632.998.998 0 0 0-.632 1.264C19.177 19.693 20.355 23 23 23s3.823-3.307 3.948-3.684A.998.998 0 0 0 26 18M18 14c-3.623 0-6.027.422-9 1-.679.131-2 0-2-2 0-4 4.595-9 11-9 6.404 0 11 5 11 9 0 2-1.321 2.132-2 2-2.973-.578-5.377-1-9-1" fill="#664500"/><path d="M9 13s3-1 9-1 9 1 9 1-1.344-6.75-9-6.75S9 13 9 13" fill="#fff"/><path d="M18 8.406c-3.596 0-6.272.372-7.937.745l-.826 1.871c.824-.31 3.889-.897 8.763-.897 4.954 0 8.037.616 8.864.937l-.701-1.842c-1.633-.379-4.418-.814-8.163-.814" fill="#664500"/></g></svg>