<svg xmlns="http://www.w3.org/2000/svg" viewBox="0 0 36 36"><circle cx="18" cy="18" r="18" fill="#ffcc4d"/><ellipse cx="11.5" cy="15.5" fill="#664500" rx="2.5" ry="3.5"/><path fill="#664500" d="M28.457 17.797c-.06-.135-1.499-3.297-4.457-3.297s-4.397 3.162-4.457 3.297a.503.503 0 0 0 .755.605c.012-.009 1.262-.902 3.702-.902 2.426 0 3.674.881 3.702.901a.498.498 0 0 0 .755-.604M5.999 11A1 1 0 0 1 5.2 9.4C8.462 5.05 12.816 5 13 5a1 1 0 0 1 .004 2c-.155.002-3.568.086-6.204 3.6a1 1 0 0 1-.801.4m23.002 3a1 1 0 0 1-.801-.4c-2.592-3.456-6.961-2.628-7.004-2.62a1 1 0 0 1-1.177-.784 1 1 0 0 1 .784-1.177c.231-.047 5.657-1.072 8.996 3.38A1 1 0 0 1 29.001 14m-8.922 13.042c1.335-.412 2.629-1.156 2.629-2.5 0-2.619-4.912-2.968-5.472-2.999a.493.493 0 0 0-.527.468.5.5 0 0 0 .464.53c.035.002 3.535.299 3.535 2.001s-3.5 1.999-3.535 2.001c-.014.001-.024.009-.037.011a.5.5 0 0 0-.146.04l-.019.011a.5.5 0 0 0-.125.098q-.02.022-.036.048a.5.5 0 0 0-.059.102q-.016.044-.024.092c-.004.023-.016.044-.018.067l.004.031c.002.015-.005.021-.004.031.001.024.013.045.018.068.006.031.011.061.023.09q.02.044.049.084.024.038.052.071.035.033.078.061c.024.017.046.034.074.047a.4.4 0 0 0 .101.027c.024.006.044.018.069.02.035.002 3.535.299 3.535 2.001s-3.5 1.999-3.535 2.001a.501.501 0 0 0 .035.999l.028-.001c.56-.031 5.472-.38 5.472-2.999 0-1.345-1.294-2.089-2.629-2.501"/><path fill="#ffac33" d="M34.202 25.803a3.03 3.03 0 0 0-1.578-1.875 3.05 3.05 0 0 0-2.793.06 3.05 3.05 0 0 0-1.67-2.237 3.057 3.057 0 0 0-4.087 1.406q-.156.324-.23.659c-.775 2.556.64 6.341 2.192 7.948 1.23.13 2.953-.198 4.513-.873a18 18 0 0 0 3.653-5.088"/><path fill="#dd2e44" d="M35.654 27.222a3.054 3.054 0 0 0-4.198-4.026 3.05 3.05 0 0 0-1.67-2.237 3.06 3.06 0 0 0-4.087 1.406q-.156.324-.23.659c-.774 2.556.64 6.341 2.192 7.948 2.223.234 6.077-.979 7.615-3.161q.219-.267.378-.589"/></svg>