<svg xmlns="http://www.w3.org/2000/svg" viewBox="0 0 36 36"><path fill="#FFCC4D" d="M36 20c0 10-11 16-18 16S0 29.941 0 20C0 10.059 4 0 18 0s18 10 18 20z"/><path fill="#FFCC4D" d="M35 1c1 1 0 11 0 11L27 2s7-2 8-1zM1 1C0 2 1 12 1 12L9 2S2 0 1 1z"/><path fill="#292F33" d="M31.404 23.705a.498.498 0 0 0-.542-.186c-.069.02-7 1.98-12.863 1.98-5.858 0-12.793-1.961-12.862-1.98a.5.5 0 0 0-.532.787C4.897 24.683 11.826 33.5 18 33.5c7.185 0 13.166-8.846 13.417-9.223a.503.503 0 0 0-.013-.572z"/><path fill="#F5F8FA" d="M8 25s5 2 10 2 10-2 10-2 0 3-1 3-2-1-2-1-4 2-7 2-7-2-7-2-1 1-2 1-1-3-1-3z"/><path fill="#67757F" d="M18 19.5c3 0 3 .5 3 1.5s-1.5 3-3 3-3-2-3-3-.001-1.5 3-1.5z"/><path d="M26 20.5a.502.502 0 0 1-.159-.975l9-3a.5.5 0 0 1 .317.948l-9 3A.46.46 0 0 1 26 20.5zm-1.001 2a.5.5 0 0 1-.097-.99l10-2a.498.498 0 1 1 .195.98l-10 2a.46.46 0 0 1-.098.01zM10 20.5a.511.511 0 0 1-.158-.025l-9-3a.5.5 0 1 1 .316-.948l9 3a.501.501 0 0 1 .316.633.5.5 0 0 1-.474.34zm1 2a.489.489 0 0 1-.099-.01l-10-2a.5.5 0 1 1 .196-.98l10 2a.5.5 0 0 1-.097.99z" fill="#9AAAB4"/><path fill="#DD2E44" d="M16.226 5.117a4.67 4.67 0 0 0-5.956-2.85 4.663 4.663 0 0 0-2.928 3.104 4.666 4.666 0 0 0-7.075 5.376c.122.345.284.663.472.958 1.951 3.582 7.588 6.1 11.002 6.131 2.637-2.167 5.445-7.664 4.717-11.677a4.767 4.767 0 0 0-.232-1.042zm3.548 0a4.667 4.667 0 1 1 8.885.254 4.666 4.666 0 0 1 4.225-.58 4.67 4.67 0 0 1 2.85 5.956 4.694 4.694 0 0 1-.473.958c-1.951 3.582-7.588 6.1-11.002 6.131-2.637-2.167-5.445-7.664-4.717-11.677.038-.348.113-.698.232-1.042z"/></svg>