<svg xmlns="http://www.w3.org/2000/svg" viewBox="0 0 36 36"><path fill="#FFCC4D" d="M36 20c0 10-11 16-18 16S0 29.941 0 20C0 10.059 4 0 18 0s18 10 18 20z"/><path fill="#FFCC4D" d="M35 1c1 1 0 11 0 11L27 2s7-2 8-1zM1 1C0 2 1 12 1 12L9 2S2 0 1 1z"/><path fill="#67757F" d="M18 19.5c3 0 3 .5 3 1.5s-1.5 3-3 3-3-2-3-3-.001-1.5 3-1.5z"/><path d="M26 20.5a.502.502 0 0 1-.159-.975l9-3a.5.5 0 0 1 .317.948l-9 3A.46.46 0 0 1 26 20.5zm-1.001 2a.5.5 0 0 1-.097-.99l10-2a.498.498 0 1 1 .195.98l-10 2a.46.46 0 0 1-.098.01zM10 20.5a.511.511 0 0 1-.158-.025l-9-3a.5.5 0 1 1 .316-.948l9 3a.501.501 0 0 1 .316.633.5.5 0 0 1-.474.34zm1 2a.489.489 0 0 1-.099-.01l-10-2a.5.5 0 1 1 .196-.98l10 2a.5.5 0 0 1-.097.99z" fill="#9AAAB4"/><path fill="#292F33" d="M28.416 17.723C28.355 17.632 26.901 15.5 24 15.5c-2.9 0-4.355 2.132-4.416 2.223a.499.499 0 0 0 .071.638.504.504 0 0 0 .643.042c.012-.01 1.262-.903 3.702-.903 2.426 0 3.674.881 3.702.901a.5.5 0 0 0 .714-.678zM12 15.5c-2.9 0-4.355 2.132-4.416 2.223a.5.5 0 0 0 .713.68c.013-.01 1.262-.903 3.703-.903 2.426 0 3.674.881 3.702.901a.5.5 0 0 0 .714-.679c-.061-.09-1.515-2.222-4.416-2.222zM21.871 30c1.335-.412 2.629-1.156 2.629-2.5 0-2.619-4.912-2.968-5.473-2.999-.277-.035-.51.194-.526.468a.5.5 0 0 0 .464.53c.035.002 3.535.299 3.535 2.001s-3.5 1.999-3.535 2.001c-.01.001-.017.006-.027.008a.434.434 0 0 0-.308.157c-.006.007-.011.016-.017.022a.566.566 0 0 0-.072.124c-.011.027-.016.057-.021.086-.005.023-.017.046-.019.07-.001.011.004.021.004.032s-.005.021-.004.031c.002.025.013.046.019.07.006.029.011.059.022.087a.48.48 0 0 0 .051.088c.017.023.03.047.05.067a.457.457 0 0 0 .081.062c.024.017.045.033.071.046a.367.367 0 0 0 .101.027c.023.006.044.018.069.02.035.003 3.535.3 3.535 2.002 0 1.702-3.5 1.999-3.535 2.001A.5.5 0 1 0 19 35.5l.027-.001c.561-.031 5.473-.38 5.473-2.999 0-1.344-1.294-2.088-2.629-2.5zm9.13-14a.998.998 0 0 1-.801-.4c-2.641-3.521-6.061-3.599-6.206-3.6a1.002 1.002 0 0 1-.991-1.005A.997.997 0 0 1 24 10c.184 0 4.537.05 7.8 4.4a1 1 0 0 1-.799 1.6zM4.999 16a1 1 0 0 1-.799-1.6C7.462 10.05 11.816 10 12 10a1 1 0 0 1 .004 2c-.156.002-3.569.086-6.205 3.6a.995.995 0 0 1-.8.4z"/></svg>