<svg xmlns="http://www.w3.org/2000/svg" viewBox="0 0 36 36"><path fill="#FFCC4D" d="M36 20c0 10-11 16-18 16S0 29.941 0 20C0 10.059 4 0 18 0s18 10 18 20z"/><path fill="#FFCC4D" d="M35 1c1 1 0 11 0 11L27 2s7-2 8-1zM1 1C0 2 1 12 1 12L9 2S2 0 1 1z"/><ellipse fill="#292F33" cx="12" cy="14.5" rx="2" ry="3.5"/><ellipse fill="#292F33" cx="24" cy="14.5" rx="2" ry="3.5"/><path fill="#67757F" d="M18 19.5c3 0 3 .5 3 1.5s-1.5 3-3 3-3-2-3-3-.001-1.5 3-1.5z"/><path d="M26 20.5a.502.502 0 0 1-.159-.975l9-3a.5.5 0 0 1 .317.948l-9 3A.46.46 0 0 1 26 20.5zm-1.001 2a.5.5 0 0 1-.097-.99l10-2a.498.498 0 1 1 .195.98l-10 2a.46.46 0 0 1-.098.01zM10 20.5a.511.511 0 0 1-.158-.025l-9-3a.5.5 0 1 1 .316-.948l9 3a.501.501 0 0 1 .316.633.5.5 0 0 1-.474.34zm1 2a.489.489 0 0 1-.099-.01l-10-2a.5.5 0 1 1 .196-.98l10 2a.5.5 0 0 1-.097.99z" fill="#9AAAB4"/><path fill="#292F33" d="M25.327 25.622a.5.5 0 0 0-.551-.069l-4 2c-1.871.935-6.727.947-6.776.947a.5.5 0 0 0-.25.933v.001h.001v.001c.071.04.153.063.24.065h7.008c2.658 0 4.089-2.186 4.475-3.342a.5.5 0 0 0-.147-.536zM21 12a.999.999 0 0 1-.707-1.707C24.537 6.049 28.819 6 29 6a1 1 0 0 1 .005 2c-.065.001-3.687.096-7.298 3.707A.997.997 0 0 1 21 12zm-6 0a.997.997 0 0 1-.707-.293C10.667 8.082 7.031 8 6.995 8a1.002 1.002 0 0 1-.992-1.005A.997.997 0 0 1 7 6c.18 0 4.463.049 8.707 4.293A.999.999 0 0 1 15 12z"/></svg>