<svg xmlns="http://www.w3.org/2000/svg" viewBox="0 0 45 45"><defs><clipPath id="a"><path d="M0 36h36V0H0v36z"/></clipPath></defs><g clip-path="url(#a)" transform="matrix(1.25 0 0 -1.25 0 45)"><path d="M36 16C36 6 25 0 18 0S0 6.059 0 16c0 9.941 4 20 18 20s18-10 18-20M35 35c1-1 0-11 0-11l-8 10s7 2 8 1" fill="#ffcc4d"/><path d="M1 35c-1-1 0-11 0-11l8 10s-7 2-8 1" fill="#ffcc4d"/><path d="M14 21.5c0-1.933-.895-3.5-2-3.5-1.104 0-2 1.567-2 3.5s.896 3.5 2 3.5c1.105 0 2-1.567 2-3.5M26 21.5c0-1.933-.895-3.5-2-3.5-1.104 0-2 1.567-2 3.5s.896 3.5 2 3.5c1.105 0 2-1.567 2-3.5" fill="#292f33"/><path d="M18 16.5c3 0 3-.5 3-1.5s-1.5-3-3-3-3 2-3 3-.001 1.5 3 1.5" fill="#67757f"/><path d="M26 15.5a.503.503 0 0 0-.475.342.502.502 0 0 0 .317.633l9 2.999a.5.5 0 1 0 .316-.948l-9-3.001A.511.511 0 0 0 26 15.5M24.999 13.5a.5.5 0 0 0-.097.99l10 2a.499.499 0 1 0 .196-.98l-10-2a.475.475 0 0 0-.099-.01M10 15.5a.516.516 0 0 0-.158.025l-9 3.001a.499.499 0 1 0 .316.948l9-2.999A.501.501 0 0 0 10 15.5M11 13.5a.489.489 0 0 0-.098.01l-10 2a.5.5 0 1 0 .197.98l10-2A.5.5 0 0 0 11 13.5" fill="#9aaab4"/><path d="M30.708 25.353a.996.996 0 0 0-.849-.283c-4.357.622-6.831-1.742-6.934-1.843a1.002 1.002 0 0 0-1.412.01.997.997 0 0 0 .002 1.408c.13.13 3.243 3.173 8.626 2.404a.998.998 0 0 0 .567-1.696M5.292 25.353a.996.996 0 0 1 .849-.283c4.357.622 6.831-1.742 6.934-1.843a1.002 1.002 0 0 1 1.412.01.997.997 0 0 1-.002 1.408c-.13.13-3.243 3.173-8.626 2.404a.998.998 0 0 1-.567-1.696M25.485 6.121c-.045.18-1.168 4.38-7.485 4.38-6.318 0-7.441-4.2-7.485-4.38a.499.499 0 0 1 .836-.477C11.37 5.664 13.305 7.5 18 7.5c4.694 0 6.63-1.837 6.648-1.856a.505.505 0 0 1 .598-.08.5.5 0 0 1 .239.557" fill="#292f33"/></g></svg>