<svg xmlns="http://www.w3.org/2000/svg" viewBox="0 0 36 36"><path fill="#FFCC4D" d="M36 20c0 10-11 16-18 16S0 29.941 0 20C0 10.059 4 0 18 0s18 10 18 20z"/><path fill="#FFCC4D" d="M35 1c1 1 0 11 0 11L27 2s7-2 8-1zM1 1C0 2 1 12 1 12L9 2S2 0 1 1z"/><ellipse fill="#292F33" cx="12" cy="14.5" rx="2" ry="3.5"/><ellipse fill="#292F33" cx="24" cy="14.5" rx="2" ry="3.5"/><path fill="#67757F" d="M18 19.5c3 0 3 .5 3 1.5s-1.5 3-3 3-3-2-3-3-.001-1.5 3-1.5z"/><path d="M26 20.5a.502.502 0 0 1-.159-.975l9-3a.5.5 0 0 1 .317.948l-9 3A.46.46 0 0 1 26 20.5zm-1.001 2a.5.5 0 0 1-.097-.99l10-2a.498.498 0 1 1 .195.98l-10 2a.46.46 0 0 1-.098.01zM10 20.5a.511.511 0 0 1-.158-.025l-9-3a.5.5 0 1 1 .316-.948l9 3a.501.501 0 0 1 .316.633.5.5 0 0 1-.474.34zm1 2a.489.489 0 0 1-.099-.01l-10-2a.5.5 0 1 1 .196-.98l10 2a.5.5 0 0 1-.097.99z" fill="#9AAAB4"/><path fill="#292F33" d="M30.708 10.647a.996.996 0 0 1-.849.283c-4.357-.623-6.831 1.742-6.934 1.843-.393.385-1.025.381-1.412-.01s-.387-1.02.002-1.408c.13-.13 3.243-3.173 8.626-2.404a.998.998 0 0 1 .567 1.696zm-25.416 0c.215.215.525.33.849.283 4.357-.623 6.831 1.742 6.934 1.843.393.385 1.025.381 1.412-.01s.387-1.02-.002-1.408c-.13-.13-3.243-3.173-8.626-2.404a.998.998 0 0 0-.567 1.696zm20.193 19.232c-.045-.179-1.168-4.379-7.486-4.379s-7.44 4.2-7.485 4.379a.499.499 0 0 0 .237.554.507.507 0 0 0 .6-.077c.019-.019 1.954-1.855 6.648-1.855s6.63 1.837 6.648 1.855a.502.502 0 0 0 .838-.477z"/></svg>