<svg xmlns="http://www.w3.org/2000/svg" viewBox="0 0 36 36"><path fill="#FFCC4D" d="M34.964 11.955L35 12s1-10 0-11c-.91-.91-6.771.66-7.822.951C24.752.717 21.735 0 18 0c-3.729 0-6.742.719-9.166 1.954C7.814 1.671 1.913.087 1 1 0 2 1 12 1 12l.047-.059C.308 14.494 0 17.251 0 20c0 9.941 11 16 18 16s18-6 18-16c0-2.751-.306-5.502-1.036-8.045z"/><path fill="#292F33" d="M31.404 23.705a.498.498 0 0 0-.542-.186c-.069.02-7 1.98-12.863 1.98-5.858 0-12.793-1.961-12.862-1.98a.5.5 0 0 0-.532.787C4.897 24.683 11.826 33.5 18 33.5c7.185 0 13.166-8.846 13.417-9.223a.503.503 0 0 0-.013-.572z"/><path fill="#F5F8FA" d="M8 25s5 2 10 2 10-2 10-2 0 3-1 3-2-1-2-1-4 2-7 2-7-2-7-2-1 1-2 1-1-3-1-3z"/><path fill="#67757F" d="M18 19.5c3 0 3 .5 3 1.5s-1.5 3-3 3-3-2-3-3-.001-1.5 3-1.5z"/><path d="M26 20.5a.502.502 0 0 1-.159-.975l9-3a.5.5 0 0 1 .317.948l-9 3A.46.46 0 0 1 26 20.5zm-1.001 2a.5.5 0 0 1-.097-.99l10-2a.498.498 0 1 1 .195.98l-10 2a.46.46 0 0 1-.098.01zM10 20.5a.511.511 0 0 1-.158-.025l-9-3a.5.5 0 1 1 .316-.948l9 3a.501.501 0 0 1 .316.633.5.5 0 0 1-.474.34zm1 2a.489.489 0 0 1-.099-.01l-10-2a.5.5 0 1 1 .196-.98l10 2a.5.5 0 0 1-.097.99z" fill="#9AAAB4"/><path fill="#292F33" d="M28.416 17.723C28.355 17.632 26.901 15.5 24 15.5c-2.9 0-4.355 2.132-4.416 2.223a.499.499 0 0 0 .071.638.504.504 0 0 0 .643.042c.012-.01 1.262-.903 3.702-.903 2.426 0 3.674.881 3.702.901a.5.5 0 0 0 .714-.678zm-12 0C16.355 17.632 14.901 15.5 12 15.5c-2.9 0-4.355 2.132-4.416 2.223a.5.5 0 0 0 .713.68c.013-.01 1.262-.903 3.703-.903 2.426 0 3.674.881 3.702.901a.5.5 0 0 0 .714-.678zM31.001 16a.998.998 0 0 1-.801-.4c-2.641-3.521-6.061-3.599-6.206-3.6a1.002 1.002 0 0 1-.991-1.005A.997.997 0 0 1 24 10c.184 0 4.537.05 7.8 4.4a1 1 0 0 1-.799 1.6zM4.999 16a1 1 0 0 1-.799-1.6C7.462 10.05 11.816 10 12 10a1 1 0 0 1 .004 2c-.156.002-3.569.086-6.205 3.6a.995.995 0 0 1-.8.4z"/></svg>