<svg xmlns="http://www.w3.org/2000/svg" viewBox="0 0 36 36"><path fill="#FFCC4D" d="M36 20c0 10-11 16-18 16S0 29.941 0 20C0 10.059 4 0 18 0s18 10 18 20z"/><path fill="#FFCC4D" d="M35 1c1 1 0 11 0 11L27 2s7-2 8-1zM1 1C0 2 1 12 1 12L9 2S2 0 1 1z"/><path fill="#292F33" d="M25.362 30.636C24.879 29.87 21.947 25.5 18 25.5c-4.234 0-7.3 5.028-7.428 5.243a.5.5 0 0 0 .705.673c.029-.02 2.918-1.916 6.723-1.916 3.792 0 6.695 1.897 6.723 1.916.086.058.215.096.281.084a.513.513 0 0 0 .516-.5.495.495 0 0 0-.158-.364z"/><ellipse fill="#292F33" cx="12" cy="14.5" rx="2" ry="3.5"/><ellipse fill="#292F33" cx="24" cy="14.5" rx="2" ry="3.5"/><path fill="#67757F" d="M18 19.5c3 0 3 .5 3 1.5s-1.5 3-3 3-3-2-3-3-.001-1.5 3-1.5z"/><path d="M26 20.5a.502.502 0 0 1-.159-.975l9-3a.5.5 0 0 1 .317.948l-9 3A.46.46 0 0 1 26 20.5zm-1.001 2a.5.5 0 0 1-.097-.99l10-2a.498.498 0 1 1 .195.98l-10 2a.46.46 0 0 1-.098.01zM10 20.5a.511.511 0 0 1-.158-.025l-9-3a.5.5 0 1 1 .316-.948l9 3a.501.501 0 0 1 .316.633.5.5 0 0 1-.474.34zm1 2a.489.489 0 0 1-.099-.01l-10-2a.5.5 0 1 1 .196-.98l10 2a.5.5 0 0 1-.097.99z" fill="#9AAAB4"/><path fill="#292F33" d="M31.001 14a.998.998 0 0 1-.801-.4c-2.641-3.521-6.061-3.599-6.206-3.6a1.002 1.002 0 0 1-.991-1.005A.997.997 0 0 1 24 8c.184 0 4.537.05 7.8 4.4a1 1 0 0 1-.799 1.6zM4.999 14a1 1 0 0 1-.799-1.6C7.462 8.05 11.816 8 12 8a1 1 0 0 1 .004 2c-.156.002-3.569.086-6.205 3.6a.995.995 0 0 1-.8.4z"/><path fill="#5DADEC" d="M15 31a5 5 0 1 1-10 0c0-2.762 4-13 5-13s5 10.238 5 13z"/></svg>