<svg xmlns="http://www.w3.org/2000/svg" viewBox="0 0 45 45"><defs><clipPath id="a"><path d="M0 36h36V0H0v36z"/></clipPath></defs><g clip-path="url(#a)" transform="matrix(1.25 0 0 -1.25 0 45)"><path d="M9 30.063V19a9 9 0 0 1 9-9 9 9 0 0 1 9 9v10.75l-18 .312z" fill="#f3d2a2"/><path d="M14 14h8s-1-2-4-2-4 2-4 2" fill="#c1694f"/><path d="M14 20a1 1 0 0 0-1 1v1a1 1 0 0 0 2 0v-1a1 1 0 0 0-1-1M22 20a1 1 0 0 0-1 1v1a1 1 0 0 0 2 0v-1a1 1 0 0 0-1-1" fill="#662113"/><path d="M19 16.5h-2a.5.5 0 0 0 0 1h2a.5.5 0 0 0 0-1" fill="#c1694f"/><path d="M10.847 22.285c0-1.58-.8-2.861-1.788-2.861s-1.788 1.28-1.788 2.86c0 1.58.8 2.862 1.788 2.862.987 0 1.788-1.281 1.788-2.861M28.73 22.285c0-1.58-.8-2.861-1.789-2.861-.988 0-1.788 1.28-1.788 2.86 0 1.58.8 2.862 1.788 2.862s1.788-1.281 1.788-2.861" fill="#f3d2a2"/><path d="M18 35.177c-7.019 0-10.139-4.684-10.139-8.588 0-3.903 1.343-4.986 1.56-3.903.78 3.903 3.119 5.102 3.119 5.102 4.68-3.904 3.9-.78 3.9-.78 4.68-4.685 2.34 0 2.34 0 1.56-1.563 6.239-1.563 6.239-1.563s.78-1.198 1.56-2.759c.78-1.56 1.56 0 1.56 3.903 0 3.904-3.9 8.588-10.139 8.588" fill="#ffe51e"/><path d="M27 9H9a4 4 0 0 1-4-4V0h26v5a4 4 0 0 1-4 4" fill="#4289c1"/><path d="M27 0h-1v4h1V0zM10 0H9v4h1V0z" fill="#2a6797"/><path d="M15 12V8a3 3 0 1 1 6 0v4h-6z" fill="#f3d2a2"/><path d="M5 0l4 9-3 10 3 12H4s-4-8-4-12S5 0 5 0M31 0l-4 9 3 10-3 12h5s4-8 4-12-5-19-5-19" fill="#4289c1"/><path d="M12.541 34.977a1.285 1.285 0 0 1-1.517.997L8.35 35.42H6a2 2 0 0 1-2-2V31h5s1.899 1.257 1.985 2.345l.362.075H12c0 .074-.029.144-.045.217.444.275.698.798.586 1.34" fill="#e2c196"/><path d="M17 34.42a1 1 0 0 1-1 1l-6-1H5a1 1 0 0 1-1-1V31h5l2 1 5 1.42s1 .447 1 1" fill="#f3d2a2"/><path d="M30 35.42h-2.35l-2.674.554a1.286 1.286 0 0 1-1.517-.997 1.274 1.274 0 0 1 .586-1.341c-.017-.072-.045-.142-.045-.216h.653l.363-.075C25.105 32.275 27 31.42 27 31.42h5v2a2 2 0 0 1-2 2" fill="#e2c196"/><path d="M19 34.42a1 1 0 0 0 1 1l6-1h5a1 1 0 0 0 1-1V31h-5l-2 1-5 1.42s-1 .447-1 1" fill="#f3d2a2"/></g></svg>