<svg xmlns="http://www.w3.org/2000/svg" viewBox="0 0 45 45"><defs><clipPath id="a"><path d="M0 36h36V0H0v36z"/></clipPath></defs><g clip-path="url(#a)" transform="matrix(1.25 0 0 -1.25 0 45)"><path d="M27 14H9s-9 0-9-7c0-3.156 4-7 4-7h28s4 3.844 4 7c0 7-9 7-9 7" fill="#4289c1"/><path d="M21 8a3 3 0 1 0-6 0 3 3 0 0 0 6 0" fill="#e2c196"/><path d="M9 26.063V15a9 9 0 0 1 9-9 9 9 0 0 1 9 9v10.75l-18 .313z" fill="#f3d2a2"/><path d="M10.847 18.285c0-1.58-.8-2.861-1.788-2.861s-1.788 1.28-1.788 2.86c0 1.58.8 2.862 1.788 2.862.987 0 1.788-1.281 1.788-2.861M28.73 18.285c0-1.58-.8-2.861-1.789-2.861-.988 0-1.788 1.28-1.788 2.86 0 1.58.8 2.862 1.788 2.862s1.788-1.281 1.788-2.861" fill="#f3d2a2"/><path d="M18 31.177c-7.019 0-10.139-4.684-10.139-8.588 0-3.903 1.343-4.986 1.56-3.903.78 3.903 3.119 5.102 3.119 5.102 4.68-3.904 3.9-.78 3.9-.78 4.68-4.685 2.34 0 2.34 0 1.56-1.563 6.239-1.563 6.239-1.563s.78-1.198 1.56-2.759c.78-1.56 1.56 0 1.56 3.903 0 3.904-3.9 8.588-10.139 8.588" fill="#ffe51e"/><path d="M17 2l-5 1-2 1H7L6 0h11c1 0 1 1 1 1 0 .553-1 1-1 1M26 4l-2-1-5-1s-1-.447-1-1c0 0 0-1 1-1h11l-1 4h-3z" fill="#f3d2a2"/><path d="M22 14a1 1 0 0 0-1 1v1a1 1 0 1 0 2 0v-1a1 1 0 0 0-1-1M14 14a1 1 0 0 0-1 1v1a1 1 0 1 0 2 0v-1a1 1 0 0 0-1-1" fill="#662113"/><path d="M19 9.5h-2a.5.5 0 0 0 0 1h2a.5.5 0 0 0 0-1" fill="#c1694f"/><path d="M5.499 28a.996.996 0 0 0-.6.2l-4 3a1 1 0 0 0 1.2 1.6l4-3a1 1 0 0 0-.6-1.8M8.5 31a1 1 0 0 0-.832.445l-2 3a1 1 0 0 0 1.664 1.11l2-3A1 1 0 0 0 8.5 31M30.5 28a1 1 0 0 0-.601 1.8l4 3a1 1 0 1 0 1.2-1.6l-4-3a.994.994 0 0 0-.598-.2M27.499 31a1 1 0 0 0-.831 1.555l2 3a1 1 0 1 0 1.664-1.11l-2-3a.998.998 0 0 0-.833-.445" fill="#5dadec"/></g></svg>