<svg xmlns="http://www.w3.org/2000/svg" viewBox="0 0 36 36"><circle cx="18" cy="18" r="18" fill="#ffcc4d"/><circle cx="24.5" cy="13.5" r="5.5" fill="#f4f7f9"/><circle cx="11.5" cy="13.5" r="5.5" fill="#f4f7f9"/><path fill="#65471b" d="M23.109 23.424c-2.763-.667-8.873-.06-11.162 4.405a.373.373 0 0 0 .334.546.38.38 0 0 0 .241-.087c3.084-2.58 7.436-2.58 10.036-2.58 1.635 0 2.536 0 2.536-.708s-.705-1.268-1.985-1.576M10.5 13a2.5 2.5 0 0 0 2.5-2.5c0-1.252-.923-2.28-2.124-2.462a5.4 5.4 0 0 0-2.178.736A2.5 2.5 0 0 0 8 10.5a2.5 2.5 0 0 0 2.5 2.5m13 0a2.5 2.5 0 0 0 2.5-2.5c0-1.252-.923-2.28-2.124-2.462a5.4 5.4 0 0 0-2.177.736A2.48 2.48 0 0 0 21 10.5a2.5 2.5 0 0 0 2.5 2.5"/></svg>