<svg xmlns="http://www.w3.org/2000/svg" viewBox="0 0 45 45"><defs><clipPath id="a"><path d="M0 36h36V0H0v36z"/></clipPath><clipPath id="b"><path d="M4 15l9-7-4-8h18s4 9 0 9L4 21v-6z"/></clipPath><clipPath id="c"><path d="M0 36h36V0H0v36z"/></clipPath></defs><g clip-path="url(#a)" transform="matrix(1.25 0 0 -1.25 0 45)"><path d="M9 30.063V19a9 9 0 0 1 9-9 9 9 0 0 1 9 9v10.75l-18 .312z" fill="#f3d2a2"/><path d="M14 14h8s-1-2-4-2-4 2-4 2" fill="#c1694f"/><path d="M14 20a1 1 0 0 0-1 1v1a1 1 0 0 0 2 0v-1a1 1 0 0 0-1-1M22 20a1 1 0 0 0-1 1v1a1 1 0 0 0 2 0v-1a1 1 0 0 0-1-1" fill="#662113"/><path d="M19 16.5h-2a.5.5 0 0 0 0 1h2a.5.5 0 0 0 0-1" fill="#c1694f"/><path d="M10.847 22.285c0-1.58-.8-2.861-1.788-2.861s-1.788 1.28-1.788 2.86c0 1.58.8 2.862 1.788 2.862.987 0 1.788-1.281 1.788-2.861M28.73 22.285c0-1.58-.8-2.861-1.789-2.861-.988 0-1.788 1.28-1.788 2.86 0 1.58.8 2.862 1.788 2.862s1.788-1.281 1.788-2.861" fill="#f3d2a2"/><path d="M18 35.177c-7.019 0-10.139-4.684-10.139-8.588 0-3.903 1.343-4.986 1.56-3.903.78 3.903 3.119 5.102 3.119 5.102 4.68-3.904 3.9-.78 3.9-.78 4.68-4.685 2.34 0 2.34 0 1.56-1.563 6.239-1.563 6.239-1.563s.78-1.198 1.56-2.759c.78-1.56 1.56 0 1.56 3.903 0 3.904-3.9 8.588-10.139 8.588" fill="#ffe51e"/><path d="M27 9H9a4 4 0 0 1-4-4V0h26v5a4 4 0 0 1-4 4" fill="#4289c1"/><path d="M27 0L11.999 9 10 8l14-8h3z" fill="#2a6797"/><path d="M2.655 21.984l-.075.363V23c-.074 0-.144-.03-.217-.045a1.272 1.272 0 0 1-1.34.586 1.285 1.285 0 0 1-.997-1.517L.58 19.35V17a2 2 0 0 1 2-2h2v5s-.856 1.895-1.925 1.984" fill="#e2c196"/><path d="M1.58 28a1 1 0 0 1-1-1l1-6v-5a1 1 0 0 1 1-1h2v2L4 21l-1.42 6s-.447 1-1 1" fill="#f3d2a2"/><path d="M27 9c4 0 0-9 0-9L4 15v6L27 9z" fill="#4289c1"/></g><g clip-path="url(#b)" transform="matrix(1.25 0 0 -1.25 0 45)"><path d="M22 12l-4 3-8-4 2.999-2L22 12zm6-2L12 0H9l17 11 2-1z" fill="#2a6797"/></g><g clip-path="url(#c)" transform="matrix(1.25 0 0 -1.25 0 45)"><path d="M34.977 23.541a1.276 1.276 0 0 1-1.341-.586c-.071.016-.142.045-.216.045v-.653l-.075-.363C32.275 21.895 31.42 20 31.42 20v-5h2a2 2 0 0 1 2 2v2.35l.554 2.674a1.285 1.285 0 0 1-.997 1.517" fill="#e2c196"/><path d="M34.42 28a1 1 0 0 0 1-1l-1-6v-5a1 1 0 0 0-1-1h-2v2l.58 4 1.42 6s.447 1 1 1" fill="#f3d2a2"/><path d="M9 9V0l23 15v6L9 9z" fill="#4289c1"/></g></svg>