<svg xmlns="http://www.w3.org/2000/svg" viewBox="0 0 45 45"><defs><clipPath id="a"><path d="M0 36h36V0H0v36z"/></clipPath></defs><g clip-path="url(#a)" transform="matrix(1.25 0 0 -1.25 0 45)"><path d="M9 30.063V19a9 9 0 0 1 9-9 9 9 0 0 1 9 9v10.75l-18 .312z" fill="#d5ab88"/><path d="M14 14h8s-1-2-4-2-4 2-4 2" fill="#c1694f"/><path d="M14 20a1 1 0 0 0-1 1v1a1 1 0 0 0 2 0v-1a1 1 0 0 0-1-1M22 20a1 1 0 0 0-1 1v1a1 1 0 0 0 2 0v-1a1 1 0 0 0-1-1" fill="#662113"/><path d="M19 16.5h-2a.5.5 0 0 0 0 1h2a.5.5 0 0 0 0-1" fill="#c1694f"/><path d="M10.847 22.285c0-1.58-.8-2.861-1.788-2.861s-1.788 1.28-1.788 2.86c0 1.58.8 2.862 1.788 2.862.987 0 1.788-1.281 1.788-2.861M28.73 22.285c0-1.58-.8-2.861-1.789-2.861-.988 0-1.788 1.28-1.788 2.86 0 1.58.8 2.862 1.788 2.862s1.788-1.281 1.788-2.861" fill="#d5ab88"/><path d="M18 35.177c-7.019 0-10.139-4.684-10.139-8.588 0-3.903 1.343-4.986 1.56-3.903.78 3.903 3.119 5.102 3.119 5.102 4.68-3.904 3.9-.78 3.9-.78 4.68-4.685 2.34 0 2.34 0 1.56-1.563 6.239-1.563 6.239-1.563s.78-1.198 1.56-2.759c.78-1.56 1.56 0 1.56 3.903 0 3.904-3.9 8.588-10.139 8.588" fill="#963b22"/><path d="M12.421 33.065a1.283 1.283 0 0 1-1.776-.367L10 31.716V34a2 2 0 0 1-2 2H4a2 2 0 0 1-2-2v-8s0-1 1-1h6l1 1v1.043l2.788 4.246c.39.592.225 1.387-.367 1.776" fill="#d5ab88"/><path d="M5 31H4v5h1v-5zM8 31H7v5h1v-5z" fill="#b78b60"/><path d="M27 9H9l1 17H2V9s0-9 8-9h21v5a4 4 0 0 1-4 4" fill="#4289c1"/><path d="M27 0h-1v4h1V0z" fill="#2a6797"/><path d="M15 12V8a3 3 0 1 1 6 0v4h-6z" fill="#d5ab88"/></g></svg>