<svg xmlns="http://www.w3.org/2000/svg" viewBox="0 0 36 36"><path fill="#292f33" d="M11 34a2 2 0 0 1-2 2H7a2 2 0 0 1-2-2v-7a2 2 0 0 1 2-2h2a2 2 0 0 1 2 2zm20 0a2 2 0 0 1-2 2h-2a2 2 0 0 1-2-2v-7a2 2 0 0 1 2-2h2a2 2 0 0 1 2 2z"/><path fill="#99aab5" d="M3 17a1 1 0 0 1-1 1H1a1 1 0 0 1-1-1v-7a1 1 0 0 1 1-1h1a1 1 0 0 1 1 1zm33 0a1 1 0 0 1-1 1h-1a1 1 0 0 1-1-1v-7a1 1 0 0 1 1-1h1a1 1 0 0 1 1 1z"/><path fill="#99aab5" d="M35 11a1 1 0 0 1-1 1H2a1 1 0 0 1 0-2h32a1 1 0 0 1 1 1m0 4a1 1 0 0 1-1 1H2a1 1 0 1 1 0-2h32a1 1 0 0 1 1 1"/><path fill="#ccd6dd" d="M24 2a2 2 0 0 1-2 2h-8a2 2 0 0 1 0-4h8a2 2 0 0 1 2 2"/><path fill="#ccd6dd" d="M28 2H8a4 4 0 0 0-4 4v26h28V6a4 4 0 0 0-4-4"/><path fill="#ffcc4d" d="M4 16h28v16H4z"/><path fill="#66757f" d="M33 32a1 1 0 0 1-1 1H4a1 1 0 0 1-1-1v-1a1 1 0 0 1 1-1h28a1 1 0 0 1 1 1zm-1-15a3 3 0 0 1-3 3H7a3 3 0 0 1-3-3v-7a3 3 0 0 1 3-3h22a3 3 0 0 1 3 3z"/><path fill="#88c9f9" d="M30 16a2 2 0 0 1-2 2H8a2 2 0 0 1-2-2v-5a2 2 0 0 1 2-2h20a2 2 0 0 1 2 2z"/><path fill="#ffac33" d="M4 25h28v5H4z"/><path fill="#fff" d="M6 25h6v3H6zm18 0h6v3h-6z"/><path fill="#dd2e44" d="M4 25h2v3H4zm26 0h2v3h-2z"/><path fill="#66757f" d="M14 25h8v3h-8z"/><path fill="#292f33" d="M22 3.5A1.5 1.5 0 0 1 20.5 5h-5a1.5 1.5 0 1 1 0-3h5A1.5 1.5 0 0 1 22 3.5"/></svg>