<svg viewBox="0 0 36 36" xmlns="http://www.w3.org/2000/svg"><path d="M0 34h36v2H0z" fill="#939598"/><path d="M3 35h33V6H21c-4 0-5 2-5 2l-4 6S0 19 0 24c0 4 6 6 6 6z" fill="#d1d3d4"/><path d="M14 35l2-3h20v3z" fill="#231f20"/><path d="M0 23.999c0 4 6 6 6 6V17.125C3 19 0 21.499 0 23.999zM6 30v-.001z" fill="#3b88c3"/><path d="M6 30l-3 5h33v-5z" fill="#269"/><path d="M20 30l4-6h12v6z" fill="#3b88c3"/><path d="M26 8H16l-4 6h-.001 10.843c.477 0 1.108-.448 1.412-1l2.197-4c.303-.552.102-1-.451-1z" fill="#55acee"/><path d="M25.902 10l.549-1c.303-.552.102-1-.451-1H16l-1.333 2z" fill="#3b88c3"/></svg>