<svg xmlns="http://www.w3.org/2000/svg" viewBox="0 0 36 36"><path fill="#a0041e" d="m1 17 8-7 16 1 1 16-7 8s.001-5.999-6-12-12-6-12-6"/><path fill="#ffac33" d="M.973 35s-.036-7.979 2.985-11S15 21.187 15 21.187 14.999 29 11.999 32 .973 35 .973 35"/><circle cx="8.999" cy="27" r="4" fill="#ffcc4d"/><path fill="#55acee" d="M35.999 0s-10 0-22 10c-6 5-6 14-4 16s11 2 16-4c10-12 10-22 10-22"/><path d="M26.999 5a4 4 0 0 0-3.641 2.36A4 4 0 0 1 24.999 7a4 4 0 0 1 4 4c0 .586-.133 1.139-.359 1.64A3.99 3.99 0 0 0 30.999 9a4 4 0 0 0-4-4"/><path fill="#a0041e" d="M8 28s0-4 1-5 13.001-10.999 14-10-9.001 13-10.001 14S8 28 8 28"/></svg>