<svg viewBox="0 0 36 36" xmlns="http://www.w3.org/2000/svg"><path d="M0 34h36v2H0z" fill="#939598"/><path d="M6 27h29v5H6z" fill="#231f20"/><circle cx="6.999" cy="32" fill="#58595b" r="3"/><circle cx="12.999" cy="32" fill="#58595b" r="3"/><circle cx="6.999" cy="32" fill="#a0041e" r="1.5"/><circle cx="12.999" cy="32" fill="#a0041e" r="1.5"/><path d="M5 33H1c-1 0-1.5-.5 0-2l4-4c1-1 2-2.001 2 0v4c0 2-.001 2-2 2z" fill="#dd2e44"/><path d="M8 20c0 3.313-1.343 6-3 6s-3-2.687-3-6c0-3.314 1.343-6 3-6s3 2.686 3 6z" fill="#231f20"/><path d="M11 15H7L5 7h8z" fill="#6d6e71"/><path d="M26 25a2 2 0 01-2 2H6a2 2 0 01-2-2V15a2 2 0 012-2h18a2 2 0 012 2z" fill="#414042"/><path d="M13 26a1 1 0 11-2 0V13a1 1 0 012 0zm6 0a1 1 0 11-2 0V13a1 1 0 112 0z" fill="#c1694f"/><path d="M36 26a1 1 0 01-1 1H7a1 1 0 110-2h28a1 1 0 011 1z" fill="#808285"/><circle cx="29.999" cy="31" fill="#58595b" r="4"/><circle cx="21.999" cy="31" fill="#58595b" r="4"/><circle cx="29.999" cy="31" fill="#a0041e" r="2"/><circle cx="21.999" cy="31" fill="#a0041e" r="2"/><path d="M12 3H6a1 1 0 00-1 1v3h8V4a1 1 0 00-1-1z" fill="#414042"/><path d="M23 7h12v18H23z" fill="#be1931"/><path d="M36 6a1 1 0 01-1 1H23a1 1 0 110-2h12a1 1 0 011 1z" fill="#a0041e"/><path d="M25 18h8v5h-8z" fill="#ea596e"/><path d="M30 32h-8c-.127 0-.253-.024-.371-.071L16.807 30H10a1 1 0 110-2h7c.128 0 .253.024.372.071L22.192 30H30a1 1 0 110 2z" fill="#f4900c"/><path d="M33 10a1 1 0 00-1-1h-6a1 1 0 00-1 1v5a1 1 0 001 1h6a1 1 0 001-1z" fill="#55acee"/></svg>