<svg viewBox="0 0 36 36" xmlns="http://www.w3.org/2000/svg"><path d="M2 36h32L23 19H13z" fill="#a7a9ac"/><path d="M5 36h26L21 19h-6z" fill="#58595b"/><path d="M8 36h20l-9-17h-2z" fill="#808285"/><path d="M28 35a1 1 0 01-1 1H9a1 1 0 110-2h18a1 1 0 011 1zm-2-4a1 1 0 01-1 1H11a1 1 0 110-2h14a1 1 0 011 1zm-2-4a1 1 0 01-1 1H13a1 1 0 110-2h10a1 1 0 011 1z" fill="#a7a9ac"/><path d="M9.881 23.82C11.006 25.046 12.498 26 14 26h8c1.501 0 2.994-.955 4.119-2.18l-2.549-3.938c-1.359.097-3.148.118-5.57.118-2.465 0-4.274.023-5.642-.008z" fill="#58595b"/><path d="M19 2a1 1 0 01-2 0V1a1 1 0 012 0z" fill="#414042"/><path d="M22 4a2 2 0 01-2 2h-4a2 2 0 010-4h4a2 2 0 012 2z" fill="#6d6e71"/><path d="M28 18c0 2.209-3.791 5-6 5h-8c-2.209 0-6-2.791-6-5V7a4 4 0 014-4h12a4 4 0 014 4z" fill="#d1d3d4"/><path d="M25 16a4 4 0 01-4 4h-6a4 4 0 01-4-4v-5a4 4 0 014-4h6a4 4 0 014 4z" fill="#808285"/><path d="M15 15h6a4 4 0 004-4V9H11v2a4 4 0 004 4z" fill="#55acee"/><path d="M18 20c-7 0-8.754-1.801-10-3.242V18c0 2.209 3 6 6 6h8c3 0 6-3.791 6-6v-1.891C26.754 17.839 25 20 18 20z" fill="#5c913b"/><path d="M15 17.5a1.5 1.5 0 11-3.001-.001A1.5 1.5 0 0115 17.5zm9 0a1.5 1.5 0 11-3.001-.001A1.5 1.5 0 0124 17.5z" fill="#ffd983"/><path d="M25 9V7a2 2 0 00-2-2H13a2 2 0 00-2 2v2z" fill="#292f33"/><path d="M21 7a1 1 0 01-1 1h-4a1 1 0 010-2h4a1 1 0 011 1z" fill="#6d6e71"/></svg>