<svg viewBox="0 0 36 36" xmlns="http://www.w3.org/2000/svg"><path d="M14 7h2v29h-2z" fill="#6d6e71"/><path d="M15 19h3v2h-3zm0-6h3v2h-3z" fill="#6d6e71"/><path d="M29 24a1 1 0 01-1 1h-9a1 1 0 01-1-1V10a1 1 0 011-1h9a1 1 0 011 1z" fill="#bcbec0"/><path d="M29 13v-3a1 1 0 00-1-1h-9a1 1 0 00-1 1v3z" fill="#be1931"/><path d="M21 34H9l-1 1v1h14v-1zm-2-2h-8l-1 1v1h10v-1z" fill="#6d6e71"/><circle cx="15" cy="4" fill="#be1931" r="4"/><path d="M20 13h3v3h-3z" fill="#808285"/><path d="M20 17h3v3h-3zm0 4h3v3h-3z" fill="#f4900c"/><path d="M24 13h3v3h-3zm0 4h3v3h-3z" fill="#808285"/><path d="M24 21h3v3h-3z" fill="#f4900c"/><path d="M13 2h4v4h-4zm7 8h7v2h-7z" fill="#dd2e44"/></svg>