<svg viewBox="0 0 36 36" xmlns="http://www.w3.org/2000/svg"><path d="M21.377 15.449c.089.816-.83 1.495-2.053 1.515s-2.095-.635-1.947-1.463l.356-2c.147-.829.938-1.5 1.767-1.5.828 0 1.572.662 1.661 1.478z" fill="#ccd6dd"/><path d="M32.246 21h-.135l-.444-3c-.327-2.209-1.864-4-3.433-4H16.162c-1.569 0-3.574 1.791-4.478 4l-1.228 3H6.911c-2.073 0-4.104 1.791-4.538 4l-.588 3c-.001.008 0 .015-.002.021A1.995 1.995 0 000 30a2 2 0 002 2h30a4 4 0 004-4v-3c0-2.209-1.681-4-3.754-4z" fill="#ffcc4d"/><circle cx="10" cy="31" fill="#292f33" r="4"/><circle cx="10" cy="31" fill="#ccd6dd" r="2"/><circle cx="27" cy="31" fill="#292f33" r="4"/><circle cx="27" cy="31" fill="#ccd6dd" r="2"/><path d="M2.373 25l-.196 1H36v-1c0-.348-.055-.679-.133-1H2.702a4.764 4.764 0 00-.329 1z" fill="#f4900c"/><path d="M24 21h5.92a12.673 12.673 0 00-.156-1.5c-.395-2.5-.552-3.5-3.437-3.5H24zm-2-5h-5c-1.594 0-3.236 1.567-3.847 3.5-.194.599-.353 1.088-.472 1.5H22z" fill="#55acee"/></svg>