<svg viewBox="0 0 36 36" xmlns="http://www.w3.org/2000/svg"><path d="M32 22s-2-8-5-8H16c-3 0-7 7-7 7s-8 1-8 5v2c0 .09.021.175.026.263A1.992 1.992 0 000 30a2 2 0 002 2h30a4 4 0 004-4v-2a4 4 0 00-4-4z" fill="#e1e8ed"/><path d="M1 26v2c0 .09.021.175.026.263A1.992 1.992 0 000 30a2 2 0 002 2h30a4 4 0 004-4v-2c0-.348-.059-.679-.142-1H1.201A2.82 2.82 0 001 26z" fill="#292f33"/><path d="M15.91 32c.055-.326.09-.658.09-1a6 6 0 00-12 0c0 .342.035.674.09 1zm17 0c.055-.326.09-.658.09-1a6 6 0 00-12 0c0 .342.035.674.09 1z" fill="#66757f"/><circle cx="10" cy="31" fill="#292f33" r="4"/><circle cx="10" cy="31" fill="#e1e8ed" r="2"/><circle cx="27" cy="31" fill="#292f33" r="4"/><circle cx="27" cy="31" fill="#e1e8ed" r="2"/><path d="M21 13a1 1 0 01-1 1h-3a1 1 0 010-2h3a1 1 0 011 1z" fill="#dd2e44"/><path d="M22 13a1 1 0 01-1 1h-2a1 1 0 010-2h2a1 1 0 011 1zm1 8h7s-2-5-3-5h-4zm-2-5h-5c-2 0-5 5-5 5h10z" fill="#55acee"/></svg>