<svg xmlns="http://www.w3.org/2000/svg" viewBox="0 0 36 36"><path fill="#dd2e44" d="M36 27a4 4 0 0 1-4 4H4a4 4 0 0 1-4-4v-3a4 4 0 0 1 4-4h28a4 4 0 0 1 4 4z"/><path fill="#ffcc4d" d="m19 13-.979-1H7.146C4 12 3 14 3 14l-3 5.959V25h19z"/><path fill="#55acee" d="M9 20H2l2-4s1-2 3-2h2z"/><circle cx="9" cy="31" r="4" fill="#292f33"/><circle cx="9" cy="31" r="2" fill="#ccd6dd"/><circle cx="27" cy="31" r="4" fill="#292f33"/><circle cx="27" cy="31" r="2" fill="#ccd6dd"/><path fill="#ccd6dd" d="M32 8H17a4 4 0 0 0-4 4v13h23V12a4 4 0 0 0-4-4"/></svg>