<svg xmlns="http://www.w3.org/2000/svg" viewBox="0 0 36 36"><path fill="#292f33" d="M36 24a1 1 0 0 1-1 1h-1a1 1 0 0 1-1-1v-6a1 1 0 0 1 1-1h1a1 1 0 0 1 1 1z"/><path fill="#3b88c3" d="M5 31h26c1 0 3-1 3-4 0-2 0-8-1-9s0-7-4-7H15c-3 0-6 7-6 7l-4 1s-4 1-4 4v3s-1 .338-1 1.957S1 30 1 30z"/><circle cx="9" cy="31" r="4" fill="#292f33"/><circle cx="9" cy="31" r="2" fill="#ccd6dd"/><circle cx="27" cy="31" r="4" fill="#292f33"/><circle cx="27" cy="31" r="2" fill="#ccd6dd"/><path fill="#bbddf5" d="M24 17a1 1 0 0 0 1 1h4a1 1 0 0 0 1-1v-3a1 1 0 0 0-1-1h-4a1 1 0 0 0-1 1zm-11 0c0 1 .448 1 1 1h7a1 1 0 0 0 1-1v-3a1 1 0 0 0-1-1h-5c-1 0-3 3-3 4"/><path fill="#55acee" d="M32 23.5a1.5 1.5 0 0 1-1.5 1.5h-22a1.5 1.5 0 1 1 0-3h22a1.5 1.5 0 0 1 1.5 1.5"/></svg>