<svg xmlns="http://www.w3.org/2000/svg" viewBox="0 0 36 36"><path fill="#7C533E" d="M18.988 13.816l1.245-1.41c.942.928 2.453 1.492 2.959 1.166.556-.353 1.916.904.806 1.613-1.11.71-1.417-.007-2.31-.264-1.032-.296-1.61-.546-2.7-1.105zm-2.357-3.018c.15-1.054 1.129-1.397.867-2.313-.627-2.193 2.545-.565 2.545-.565.603.301-1.152 2.123-1.152 2.123s-.604-.301-.753.754c-.149 1.055-1.656 1.057-1.507.001z"/><path d="M15.356 15.875l3.083 1.158-1.156 3.084s-4.55-1.004-5.259-2.113c-.709-1.111.602-2.729.602-2.729l2.73.6z"/><path fill="#C1694F" d="M2 17h32s0 2-1 7c-.86 4.302-21 1-24.601 0C5.316 23.144 2 17 2 17z"/><path fill="#F4900C" d="M35 18a1 1 0 0 1-1 1H2a1 1 0 1 1 0-2h32a1 1 0 0 1 1 1z"/><path fill="#55ACEE" d="M0 24h36v12H0z"/><path fill="#FFAC33" d="M12 27a.999.999 0 0 1-.707-1.707l11-11a.999.999 0 1 1 1.414 1.414l-11.001 11A.997.997 0 0 1 12 27z"/><path fill="#FFCC4D" d="M11 29a2 2 0 0 1-1.414-3.414l3-3a2 2 0 1 1 2.828 2.828l-3 3A1.994 1.994 0 0 1 11 29z"/><path fill="#7C533E" d="M18.615 5.87a2.182 2.182 0 1 1-.113 4.363 2.182 2.182 0 0 1 .113-4.363z"/><path fill="#0B0200" d="M14.115 8.48c.568-.028 1.117-.092 2.056-1.302.624-.804 1.207-1.32 2.649-1.307 1.531.014 2.814 1.317 1.831 1.969-.429.284-.788.149-1.476.342-1.081.303-1.245 1.453-2.221 1.711-1.912.505-3.407-1.386-2.839-1.413z"/><path fill="#9266CC" d="M20.233 12.407s-.563-.683-.678-.856c-.482-.732-.833-1.126-1.568-1.288-1.287-.284-2.912.308-4.222 1.927-.829 1.024-.947 2.174-2.259 3.794 0 0 4.199.447 4.754.092.556-.354.758-1.265.959-2.174.2-.91.671-1.255 1.04-.71.24.354.728.624.728.624l1.246-1.409z"/></svg>