<svg viewBox="0 0 36 36" xmlns="http://www.w3.org/2000/svg"><path d="M19 12V5h-2v7h-5v5h12v-5z" fill="#58595b"/><path d="M34 28V18a4 4 0 00-4-4H6a4 4 0 00-4 4v10z" fill="#ffd983"/><path d="M2 22v6a8 8 0 008 8h16a8 8 0 008-8v-6z" fill="#269"/><path d="M2 18h6v9H2zm8 0h7v9h-7zm9 0h7v9h-7zm9 0h6v9h-6z" fill="#88c9f9"/><path d="M33.213 10.977L3.27 2.954a1.001 1.001 0 01.518-1.933L33.73 9.045a1 1 0 11-.517 1.932z" fill="#6d6e71"/><path d="M23.348 4.361l-1.933-.518.259-.965-5.795-1.553-.259.966-1.932-.518a2 2 0 00-1.036 3.864l9.66 2.588a2 2 0 001.036-3.864z" fill="#a7a9ac"/><path d="M13.877 4.931a2.001 2.001 0 01-3.864-1.035 2.001 2.001 0 013.864 1.035zm11.592 3.105a2 2 0 11-3.863-1.035 2 2 0 013.863 1.035z" fill="#808285"/><path d="M2 18h6v2H2zm8 0h7v2h-7zm9 0h7v2h-7zm9 0h6v2h-6z" fill="#55acee"/></svg>