<svg viewBox="0 0 36 36" xmlns="http://www.w3.org/2000/svg"><path d="M34.16 28.812L31.244 2.678A3.011 3.011 0 0028.251 0H7.664a3.012 3.012 0 00-2.997 2.704l-2.67 26.108z" fill="#dd2e44"/><circle cx="18.069" cy="14" fill="#be1931" r="9.366"/><path d="M35.521 29.18H.479L0 34c0 2 2 2 2 2h32s2 0 2-2z" fill="#99aab5"/><path d="M35.594 29.912l-.073-.732C35.38 28.442 34.751 28 34 28H2c-.751 0-1.38.442-1.521 1.18l-.073.732z" fill="#ccd6dd"/><path d="M29.647 13.63l-7.668-1.248 4.539-6.308a.375.375 0 00-.523-.523l-6.309 4.538-1.247-7.667a.375.375 0 00-.74 0l-1.248 7.667-6.308-4.538a.375.375 0 00-.523.523l4.538 6.308L6.49 13.63a.374.374 0 000 .74l7.668 1.248-4.538 6.308a.375.375 0 00.523.523l6.308-4.538 1.248 7.667a.374.374 0 00.74 0l1.247-7.667 6.308 4.538a.375.375 0 00.523-.523l-4.538-6.308 7.668-1.248a.374.374 0 000-.74z" fill="#ec9dad"/></svg>