<svg xmlns="http://www.w3.org/2000/svg" viewBox="0 0 45 45"><defs><clipPath id="a"><path d="M0 36h36V0H0v36z"/></clipPath></defs><g clip-path="url(#a)" transform="matrix(1.25 0 0 -1.25 0 45)"><path d="M16.63 25.202c.15 1.054 1.13 1.397.868 2.313-.627 2.193 2.545.565 2.545.565.603-.301-1.153-2.123-1.153-2.123s-.603.3-.753-.754c-.148-1.054-1.655-1.057-1.506-.001" fill="#f7dece"/><path d="M15.356 20.125l3.083-1.158-1.156-3.084s-4.549 1.004-5.258 2.114c-.709 1.11.601 2.73.601 2.73l2.73-.602z"/><path d="M2 19h32s0-2-1-7c-.86-4.302-21.001-1-24.601 0C5.316 12.856 2 19 2 19" fill="#c1694f"/><path d="M35 18a1 1 0 0 0-1-1H2a1 1 0 1 0 0 2h32a1 1 0 0 0 1-1" fill="#f4900c"/><path d="M36 12H0V0h36v12z" fill="#55acee"/><path d="M18.615 30.13a2.182 2.182 0 1 0-.113-4.363 2.182 2.182 0 0 0 .113 4.363" fill="#f7dece"/><path d="M14.115 27.52c.568.028 1.117.092 2.056 1.302.624.804 1.207 1.32 2.65 1.306 1.53-.014 2.812-1.317 1.83-1.969-.429-.284-.788-.149-1.476-.342-1.08-.302-1.245-1.452-2.222-1.71-1.91-.505-3.406 1.385-2.838 1.413" fill="#292f33"/><path d="M20.233 23.593s-.563.683-.678.856c-.48.733-.832 1.127-1.568 1.288-1.286.284-2.91-.308-4.222-1.927-.828-1.024-.947-2.175-2.259-3.794 0 0 4.2-.447 4.754-.093.556.354.758 1.266.96 2.175.2.91.671 1.255 1.04.71.24-.355.728-.625.728-.625l1.245 1.41z" fill="#9266cc"/><path d="M18.988 22.184l1.245 1.41c.943-.928 2.453-1.492 2.96-1.166.555.353 1.915-.904.805-1.614-1.11-.71-1.417.007-2.31.265-1.032.296-1.61.546-2.7 1.105" fill="#f7dece"/><path d="M12 9a.999.999 0 0 0-.707 1.707l11 11a.999.999 0 1 0 1.415-1.414l-11.001-11A.997.997 0 0 0 12 9" fill="#ffac33"/><path d="M11 7a2 2 0 0 0-1.414 3.414l3 3a2 2 0 1 0 2.827-2.828l-3-3A1.99 1.99 0 0 0 11 7" fill="#ffcc4d"/></g></svg>