<svg viewBox="0 0 36 36" xmlns="http://www.w3.org/2000/svg"><path d="M19 12V5h-2v7h-3v3h8v-3z" fill="#58595b"/><path d="M33.213 10.977L3.27 2.954a1.001 1.001 0 01.518-1.933L33.73 9.045a1 1 0 11-.517 1.932z" fill="#6d6e71"/><path d="M23.348 4.361l-1.933-.518.259-.965-5.795-1.553-.259.966-1.932-.518a2 2 0 00-1.036 3.864l9.66 2.588a2 2 0 001.036-3.864z" fill="#a7a9ac"/><path d="M13.877 4.931a2.001 2.001 0 01-3.864-1.035 2.001 2.001 0 013.864 1.035zm11.592 3.105a2 2 0 11-3.863-1.035 2 2 0 013.863 1.035z" fill="#808285"/><path d="M6 32a4 4 0 004 4h16a4 4 0 004-4v-5H6zm20-18H10c-1.477 0-2.752.809-3.445 2h22.89c-.693-1.191-1.968-2-3.445-2z" fill="#dd2e44"/><path d="M6 18h24v9H6z" fill="#88c9f9"/><path d="M6.555 16A3.955 3.955 0 006 18h24c0-.732-.211-1.41-.555-2z" fill="#55acee"/><path d="M12 16h2v11h-2zm9 0h2v11h-2z" fill="#231f20"/></svg>