<svg xmlns="http://www.w3.org/2000/svg" viewBox="0 0 36 36"><path fill="#292f33" d="M16 0h4v5h-4z"/><path fill="#d1d3d4" d="M16 2h4v4h-4z"/><path fill="#a7a9ac" d="M18 2h2v4h-2z"/><path fill="#66757f" d="M18 19H5s1.355 8 4.875 14S18 33 18 33s4.606 6 8.125 0S31 19 31 19z"/><path fill="#99aab5" d="M18 19H5s1.355 8 4.875 14S18 33 18 33z"/><path fill="#55acee" d="M0 30h36v6H0z"/><path fill="#e6e7e8" d="M30 9h-2.45l-.242-4H8.692l-.241 4H6v6h2.088l-.242 4h20.308l-.242-4H30z"/><path fill="#d1d3d4" d="M10 15h16v4H10z"/><path fill="#6d6e71" d="M8 11h20v2H8z"/><path fill="#bcbec0" d="M10 7h16v2H10z"/><path fill="#be1931" d="M5.913 23h24.174a57 57 0 0 0 .5-2H5.413c.132.573.299 1.253.5 2"/><path fill="#a0041e" d="M18 23h12.087a57 57 0 0 0 .5-2H18z"/><path fill="#bcbec0" d="M12 17h12v2H12z"/><path fill="#58595b" d="M16 0h2v2h-2z"/></svg>