<svg xmlns="http://www.w3.org/2000/svg" viewBox="0 0 36 36"><path fill="#F7DECE" d="M15.316 3.261C14.109 3.528 16.37 4.79 16 6c-.252.838.225 0 1 0 0 0 .627 1.283.423 3.226-.207 1.94 2.472 2.616 2.677.673.204-1.941-1.385-2.988-.511-4.5 2.092-3.619-4.273-2.138-4.273-2.138"/><path fill="#F7DECE" d="M22 4a4 4 0 1 1-8 0 4 4 0 0 1 8 0"/><path fill="#292F33" d="M26.208 4.766c-1.037-.051-2.041-.169-3.756-2.378-1.14-1.469-2.205-2.412-4.84-2.387-2.798.026-5.141 2.407-3.346 3.598.783.52 1.44.273 2.698.625 1.975.553 2.274 2.654 4.059 3.125 3.491.922 6.222-2.532 5.185-2.583z"/><path fill="#EEC2AD" d="M23.696 20.993a1 1 0 0 1-1-1c0-4.519-4.661-9.247-4.708-9.294a1 1 0 0 1 1.414-1.414c.216.216 5.293 5.355 5.293 10.708a.998.998 0 0 1-.999 1z"/><path fill="#2A6797" d="M15.696 34.993a2 2 0 0 1-2-2v-7c0-.348.091-.69.264-.992l4-7a2 2 0 1 1 3.472 1.985l-3.736 6.539v6.469a2 2 0 0 1-2 1.999z"/><path fill="#4289C1" d="M24.697 31.993a1.992 1.992 0 0 1-1.562-.751l-4-5a1.983 1.983 0 0 1-.399-.856l-1-5a1.999 1.999 0 0 1 1.568-2.353 1.996 1.996 0 0 1 2.354 1.568l.905 4.523 3.695 4.62a2 2 0 0 1-1.561 3.249z"/><path fill="#9268CA" d="M22.696 18.993s0 1-2 1h-4c-2-6-.359-12 2-12 3 0 3 4 4 9"/><path fill="#F7DECE" d="M17.696 11.99c0 .045-.066 4.552-3.6 7.203l.01.014a.982.982 0 0 0-.41.786 1 1 0 0 0 1 1 .976.976 0 0 0 .59-.214l.01.014c4.35-3.262 4.4-8.575 4.4-8.8l-2-.003z"/><path fill="#292F33" d="M27.877 31.048c.271-.271.16-.676-.129-.94a9.272 9.272 0 0 0-.672-.574c-.255-.168-.873-.418-1.13-.161-1.872 1.865-3.304 4.53-3.356 5.459-.031.548.645.855 1.029.471l4.258-4.255zm-10.266 4.855c.383.003.594-.361.578-.753-.025-.626-.064-.882-.064-.882-.059-.3-.316-.915-.68-.918-2.642-.023-5.545.83-6.243 1.446-.412.363-.156 1.06.388 1.063l6.021.044z"/></svg>