<svg xmlns="http://www.w3.org/2000/svg" viewBox="0 0 45 45"><defs><clipPath id="a"><path d="M0 36h36V0H0v36z"/></clipPath></defs><g clip-path="url(#a)" transform="matrix(1.25 0 0 -1.25 0 45)"><path d="M20.567 30.025c.93 1.996.212 4.298-1.602 5.143-1.814.845-4.77.077-5.239-2.073-.465-2.136-.029-5.389 1.877-5.3.527.025 1.058.067 1.572.15.067-.252.052-.763-.043-1.248-.369-1.864 2.171-2.75 2.538-.883.214 1.093-.194 1.941-.373 2.737.517.344.96.81 1.27 1.474" fill="#f3d2a2"/><path d="M21.043 34.29c-1.149 1.524-2.815 2.229-5.8 1.279-2.607-.83-1.787-3.075-1.296-2.593.782.767 1.757.458 1.757.458l.632-2.315s.353-.242.552.52c.2.762 1.239.778 1.541.137.469-.995-.233-1.138-.331-1.711-.309-1.81 1.713-1.863 1.713-1.863s.383-.18 1.136 1.103c.752 1.282 1.237 3.472.096 4.985" fill="#ffe51e"/><path d="M23.696 15.007a1 1 0 0 0-1 1c0 4.52-4.661 9.247-4.708 9.294a1 1 0 0 0 1.415 1.414c.216-.217 5.293-5.356 5.293-10.708a1 1 0 0 0-1-1" fill="#e2c196"/><path d="M15.696 1.006a2 2 0 0 0-2 2v7c0 .348.091.69.264.992l4 7a1.999 1.999 0 1 0 3.472-1.984l-3.736-6.539V3.006a2 2 0 0 0-2-2" fill="#2a6797"/><path d="M24.697 4.006c-.587 0-1.168.257-1.562.751l-4 5a1.985 1.985 0 0 0-.4.857l-1 5a2 2 0 1 0 3.922.785l.905-4.524 3.696-4.62a2 2 0 0 0-1.561-3.248" fill="#4289c1"/><path d="M22.696 17.006s0-1-2-1h-4c-2 6-.359 12 2 12 3 0 3-4 4-9" fill="#77b255"/><path d="M17.696 24.01c-.001-.046-.066-4.553-3.6-7.204l.01-.014a.98.98 0 0 1-.41-.786 1 1 0 0 1 1-1c.225 0 .423.088.59.214l.01-.014c4.35 3.263 4.4 8.576 4.4 8.8l-2 .003z" fill="#f3d2a2"/><path d="M27.878 4.952c.27.27.16.676-.13.94-.462.423-.672.574-.672.574-.255.168-.873.417-1.13.16-1.873-1.865-3.304-4.53-3.356-5.46-.031-.547.645-.854 1.029-.47l4.259 4.256M17.612.097c.383-.003.594.36.578.753-.024.626-.064.88-.064.88-.06.3-.315.916-.68.919-2.641.023-5.545-.831-6.242-1.446-.412-.364-.156-1.06.387-1.064 1.603-.01 4.633-.032 6.02-.042" fill="#292f33"/></g></svg>