<svg xmlns="http://www.w3.org/2000/svg" viewBox="0 0 45 45"><defs><clipPath id="a"><path d="M0 36h36V0H0v36z"/></clipPath></defs><g clip-path="url(#a)" transform="matrix(1.25 0 0 -1.25 0 45)"><path d="M15.316 32.74c-1.207-.268 1.054-1.53.684-2.74-.252-.838.225 0 1 0 0 0 .627-1.283.423-3.226-.207-1.94 2.472-2.616 2.677-.673.204 1.941-1.385 2.988-.511 4.5 2.092 3.62-4.273 2.138-4.273 2.138" fill="#af7e57"/><path d="M22 32a4 4 0 1 0-8 0 4 4 0 0 0 8 0" fill="#af7e57"/><path d="M26.208 31.234c-1.037.05-2.041.169-3.756 2.378-1.14 1.47-2.205 2.412-4.84 2.388-2.798-.027-5.141-2.407-3.346-3.598.783-.52 1.44-.273 2.697-.625 1.975-.553 2.275-2.654 4.059-3.126 3.493-.922 6.224 2.532 5.186 2.583" fill="#60352a"/><path d="M23.696 15.007a1 1 0 0 0-1 1c0 4.52-4.661 9.247-4.708 9.294a1 1 0 0 0 1.415 1.413c.216-.216 5.293-5.355 5.293-10.707a1 1 0 0 0-1-1" fill="#9b6a49"/><path d="M15.696 1.007a2 2 0 0 0-2 2v7c0 .348.09.69.264.992l4 7a2 2 0 1 0 3.472-1.984l-3.736-6.54V3.008a2 2 0 0 0-2-2" fill="#2a6797"/><path d="M24.697 4.007c-.587 0-1.168.257-1.562.75l-4 5a1.985 1.985 0 0 0-.4.857l-1 5a2 2 0 1 0 3.922.786l.905-4.524 3.696-4.62a2 2 0 0 0-1.561-3.25" fill="#4289c1"/><path d="M22.696 17.007s0-1-2-1h-4c-2 6-.36 12 2 12 3 0 3-4 4-9" fill="#9268ca"/><path d="M17.696 24.01c-.001-.045-.066-4.552-3.6-7.203l.01-.014a.98.98 0 0 1-.41-.786 1 1 0 0 1 1-1c.225 0 .423.088.59.214l.01-.014c4.35 3.263 4.4 8.575 4.4 8.8l-2 .003z" fill="#af7e57"/><path d="M27.877 4.952c.271.27.16.676-.129.94-.463.423-.673.574-.673.574-.255.168-.873.417-1.13.16-1.873-1.864-3.304-4.53-3.356-5.46-.03-.547.645-.854 1.03-.47 1.132 1.133 3.276 3.275 4.258 4.256M17.611.097c.383-.003.594.361.578.753-.024.626-.064.881-.064.881-.059.3-.315.915-.679.918-2.642.023-5.546-.831-6.243-1.446-.412-.364-.156-1.06.387-1.064 1.603-.01 4.633-.032 6.021-.042" fill="#292f33"/></g></svg>