<svg xmlns="http://www.w3.org/2000/svg" viewBox="0 0 36 36"><path fill="#FFDC5D" d="M15.012 3.254c-1.207.267 1.054 1.529.684 2.739-.252.838.225 0 1 0 0 0 .627 1.283.423 3.226-.207 1.94 2.472 2.616 2.677.673.204-1.941-1.385-2.988-.511-4.5 2.092-3.619-4.273-2.138-4.273-2.138"/><path fill="#FFDC5D" d="M20.567 5.975c.929-1.996.212-4.298-1.602-5.143-1.814-.845-4.769-.077-5.238 2.073-.466 2.136-.03 5.389 1.877 5.299a14.33 14.33 0 0 0 1.571-.149c.067.25.052.761-.043 1.246-.369 1.864 2.171 2.751 2.539.883.214-1.093-.195-1.942-.373-2.737a3.5 3.5 0 0 0 1.269-1.472z"/><path fill="#FFAC33" d="M21.043 1.71C19.894.186 18.228-.519 15.243.431c-2.607.829-1.788 3.076-1.297 2.594.782-.768 1.757-.458 1.757-.458l.632 2.315s.353.242.553-.52c.199-.762 1.239-.778 1.541-.137.469.996-.233 1.139-.331 1.711-.31 1.81 1.713 1.864 1.713 1.864s.383.178 1.135-1.103c.753-1.283 1.238-3.473.097-4.987z"/><path fill="#F9CA55" d="M23.696 20.993a1 1 0 0 1-1-1c0-4.52-4.661-9.247-4.707-9.294a1 1 0 0 1 1.414-1.413c.216.216 5.293 5.355 5.293 10.708a.999.999 0 0 1-1 .999z"/><path fill="#2A6797" d="M15.696 34.993a2 2 0 0 1-2-2v-7c0-.348.091-.69.264-.992l4-7a2 2 0 0 1 3.473 1.985l-3.736 6.539v6.469a2.001 2.001 0 0 1-2.001 1.999z"/><path fill="#4289C1" d="M24.697 31.993a1.992 1.992 0 0 1-1.562-.751l-4-5a1.983 1.983 0 0 1-.399-.856l-1-5a2 2 0 0 1 3.922-.786l.905 4.524 3.695 4.62a1.999 1.999 0 0 1-1.561 3.249z"/><path fill="#77B255" d="M22.696 18.993s0 1-2 1h-4c-2-6-.359-12 2-12 3 0 3 4 4 9"/><path fill="#FFDC5D" d="M17.696 11.991c0 .045-.066 4.552-3.6 7.203l.01.014a.982.982 0 0 0-.41.786 1 1 0 0 0 1 1 .976.976 0 0 0 .59-.214l.01.014c4.35-3.262 4.4-8.575 4.4-8.8l-2-.003z"/><path fill="#292F33" d="M27.878 31.049c.271-.271.16-.676-.129-.94a9.272 9.272 0 0 0-.672-.574c-.255-.168-.873-.418-1.13-.161-1.872 1.865-3.304 4.53-3.356 5.459-.031.548.645.855 1.029.471 1.132-1.133 3.276-3.275 4.258-4.255zm-10.266 4.854c.383.003.594-.361.578-.753-.025-.626-.064-.882-.064-.882-.059-.3-.316-.915-.68-.918-2.642-.023-5.545.83-6.243 1.446-.412.363-.156 1.06.388 1.063 1.603.013 4.633.034 6.021.044z"/></svg>