<svg viewBox="0 0 36 36" xmlns="http://www.w3.org/2000/svg"><path d="M31 29.5a1.5 1.5 0 01-3 0v-24a1.5 1.5 0 113 0z" fill="#ccd6dd"/><path d="M34.882 32c.037-.164.062-.33.062-.5 0-1.933-2.463-3.5-5.5-3.5s-5.5 1.567-5.5 3.5c0 .17.025.336.062.5z" fill="#ccd6dd"/><path d="M35.944 9c.334 1.125-.896 2-2 2h-9c-1.104 0-2.291-1-2-2l2-7c.25-1.084.896-2 2-2h5c1.105 0 1.75 1.125 2 2z" fill="#fcab40"/><path d="M29.006 29.101c0 1.215-1.017 2.199-2.271 2.199H6.296c-1.254 0-2.271-.984-2.271-2.199v-9.9c0-1.215 1.017-2.2 2.271-2.2h20.439c1.254 0 2.271.985 2.271 2.2z" fill="#5d9040"/><path d="M27.5 31.3a2.2 2.2 0 01-2.2 2.2H6.6a2.2 2.2 0 01-2.2-2.2v-1.1A2.2 2.2 0 016.6 28h18.7a2.2 2.2 0 012.2 2.2z" fill="#3f7123"/><ellipse cx="16.516" cy="19.125" fill="#5d9040" rx="12.484" ry="6.125"/><g fill="#78b159"><path d="M6.6 23.601A3.3 3.3 0 11-.001 23.6 3.3 3.3 0 016.6 23.6z"/><path d="M6.6 33.5a2.2 2.2 0 01-4.4 0v-9.899a2.2 2.2 0 014.4 0zm19.8-9.899a3.3 3.3 0 106.6 0 3.3 3.3 0 00-6.6 0z"/><path d="M26.4 33.5a2.2 2.2 0 104.399 0v-9.899a2.2 2.2 0 00-4.399 0zM16.5 28a2.2 2.2 0 01-2.2 2.2H8.8a2.2 2.2 0 010-4.4h5.5a2.2 2.2 0 012.2 2.2zm9.9 0a2.2 2.2 0 01-2.2 2.2h-5.5a2.2 2.2 0 010-4.4h5.5a2.2 2.2 0 012.2 2.2z"/><path d="M6 28h21v3H6z"/></g></svg>