<svg viewBox="0 0 36 36" xmlns="http://www.w3.org/2000/svg"><ellipse cx="32" cy="16" fill="#99aab5" rx="2" ry="1"/><path d="M33 21a1 1 0 01-1-1V4c0-1.582-1.962-2-3-2s-3 .418-3 2a1 1 0 11-2 0c0-2.626 2.516-4 5-4s5 1.374 5 4v16a1 1 0 01-1 1z" fill="#ccd6dd"/><path d="M28 6c0 1.104-1.343 1-3 1s-3 .104-3-1 1.343-2 3-2 3 .896 3 2z" fill="#99aab5"/><path d="M29 7a1 1 0 01-1 1h-6a1 1 0 110-2h6a1 1 0 011 1z" fill="#ccd6dd"/><circle cx="12" cy="34" fill="#99aab5" r="2"/><circle cx="28" cy="34" fill="#99aab5" r="2"/><path d="M30 34H12C7 34 2 28 1 20c-.248-1.984.812-1 3.021-1C4.021 19 17 21 30 21c2 0 5-1.209 5 1 0 0-1 12-5 12z" fill="#ccd6dd"/><path d="M36 21a1 1 0 01-1 1L1 20a1 1 0 110-2l34 2a1 1 0 011 1z" fill="#99aab5"/></svg>