<svg viewBox="0 0 36 36" xmlns="http://www.w3.org/2000/svg"><path d="M36 32a4 4 0 01-4 4H4a4 4 0 01-4-4V4a4 4 0 014-4h28a4 4 0 014 4z" fill="#269"/><g fill="#f5f8fa"><path d="M26 17h-1v13h1a2 2 0 002-2v-9a2 2 0 00-2-2zm-16 0a2 2 0 00-2 2v9a2 2 0 002 2h1V17zm12 0v-2a2 2 0 00-2-2h-4a2 2 0 00-2 2v2h-1v13h10V17zm-6-1a1 1 0 011-1h2a1 1 0 011 1v1h-4z"/><path d="M32 10H4a2 2 0 00-2 2v20a2 2 0 002 2h28a2 2 0 002-2V12a2 2 0 00-2-2zm0 21a1 1 0 01-1 1H5a1 1 0 01-1-1V13a1 1 0 011-1h26a1 1 0 011 1zM24 4h-6.35a3.49 3.49 0 00-3.15-2 3.5 3.5 0 100 7 3.49 3.49 0 003.45-3h1.719c.247.926.747 2 1.331 2s1.084-1.074 1.331-2H23c0 1.104.448 2 1 2s1-1 1-3c0-1.105-.448-1-1-1zM13.5 7a1.5 1.5 0 11-.001-2.999A1.5 1.5 0 0113.5 7z"/></g></svg>