<svg viewBox="0 0 36 36" xmlns="http://www.w3.org/2000/svg"><path d="M1 28h34v5H1z" fill="#c1694f"/><path d="M36 35a1 1 0 11-2 0V21a1 1 0 112 0zM0 35a1 1 0 102 0V13a1 1 0 10-2 0z" fill="#c1694f"/><path d="M32 23H4a2 2 0 00-2 2v4h32v-4a2 2 0 00-2-2z" fill="#269"/><path d="M32 23H4a2 2 0 00-2 2v4h32v-4a2 2 0 00-2-2z" fill="#55acee"/><path d="M2.126 19.938c-.261 1.073 1.485 2.419 3.9 3.006s4.584.192 4.846-.881c.261-1.073-1.485-2.419-3.9-3.007-2.415-.587-4.585-.192-4.846.882z" fill="#5c913b"/></svg>