<svg xmlns="http://www.w3.org/2000/svg" viewBox="0 0 45 45"><defs><clipPath id="a"><path d="M0 36h36V0H0v36z"/></clipPath></defs><path d="M38.75 27.5h-25l-2.5-15h30l-2.5 15z" fill="#ccd6dd"/><g clip-path="url(#a)" transform="matrix(1.25 0 0 -1.25 0 45)"><path d="M13.668 25l.273-2h-3.428l-.332 2h3.487zM20 25v-2H15.96l-.274 2H20zm6.313 0l-.273-2H22v2h4.313zm5.506 0l-.333-2H28.06l.274 2h3.486zm-4.853-10l.273 2h3.247l-.333-2h-3.187zM22 15v2h3.22l-.273-2H22zm-4.948 0l-.273 2H20v-2h-2.947zm-5.205 0l-.334 2h3.247l.274-2h-3.187zm2.64 4H11.18l-.333 2h3.367l.273-2zM20 19h-3.494l-.274 2H20v-2zm5.493 0H22v2h3.767l-.274-2zm5.326 0h-3.306l.273 2h3.366l-.333-2zm2.165-10h-22A1.987 1.987 0 0 0 9 10.984C9 12.078 9.906 13 11 13l.006.001.008-.001H31a1 1 0 0 1 .986.836l2 11.999a.995.995 0 0 1-.224.811A.996.996 0 0 1 33 27H9.818l-1.04 6.166a.989.989 0 0 1-.943.814c-.015.003-.027.02-.043.02H3a1 1 0 1 1 0-2h3.945l2.903-17.216c-1.641-.493-2.848-2-2.848-3.8A3.988 3.988 0 0 1 10.985 7h22a1 1 0 1 1 0 2" fill="#66757f"/><path d="M17 5a3 3 0 1 0-6 0 3 3 0 0 0 6 0" fill="#e1e8ed"/><path d="M14 7c-1.103 0-2-.897-2-2s.897-2 2-2 2 .897 2 2-.897 2-2 2m0-6c-2.206 0-4 1.794-4 4s1.794 4 4 4 4-1.794 4-4-1.794-4-4-4" fill="#292f33"/><path d="M31 5a3 3 0 1 0-6 0 3 3 0 0 0 6 0" fill="#e1e8ed"/><path d="M28 7c-1.103 0-2-.897-2-2s.897-2 2-2 2 .897 2 2-.897 2-2 2m0-6c-2.206 0-4 1.794-4 4s1.794 4 4 4 4-1.794 4-4-1.794-4-4-4" fill="#292f33"/></g></svg>