<svg viewBox="0 0 36 36" xmlns="http://www.w3.org/2000/svg"><path d="M36 32s0 4-4 4H4s-4 0-4-4V4c0-4 4-4 4-4h28c4 0 4 4 4 4z" fill="#88c9f9"/><path d="M0 32c0 4 4 4 4 4h28c4 0 4-4 4-4V19H0z" fill="#77b255"/><path d="M31.313 2.678c-.274 0-.539.042-.787.119a2.163 2.163 0 00-2.04-1.449c-1.013 0-1.86.697-2.096 1.637a1.484 1.484 0 00-.898-.306 1.497 1.497 0 00-1.383 2.064 1.66 1.66 0 00-.446-.068 1.662 1.662 0 100 3.325h7.65a2.661 2.661 0 000-5.322z" fill="#f5f8fa"/><path d="M22.375 19h-8.75L2.263 35.616A5.079 5.079 0 004 36h28c.71 0 1.289-.13 1.77-.338z" fill="#d99e82"/><path d="M4 36h28L21.375 19h-6.75z" fill="#58595b"/><path d="M6.625 36h22.75l-8.75-17h-5.25z" fill="#808285"/><path d="M24 36h-1l-4-17h.469zm-7-17l-4 17h-1l4.484-17z" fill="#ccd6dd"/><path d="M12 33h12v1H12zm0-3h12v1H12zm-.062-2.688h12v1h-12zM13 25h10v1H13zm2-2h6v1h-6zm0-1.688h6V22h-6zm0-1.437h6v.688h-6z" fill="#808285"/><path d="M8 21.5a.5.5 0 01-1 0v-11a.5.5 0 011 0zm21 .096a.404.404 0 01-.404.404h-.191a.404.404 0 01-.405-.404V10.404c0-.223.181-.404.404-.404h.191c.224 0 .405.181.405.404z" fill="#66757f"/><path d="M29 10.5a.5.5 0 01-.5.5h-21a.5.5 0 010-1h21a.5.5 0 01.5.5zm0 5.116a.384.384 0 01-.384.384H7.384A.384.384 0 017 15.616v-.232c0-.212.172-.384.384-.384h21.232c.212 0 .384.172.384.384z" fill="#66757f"/><path d="M27 15a1 1 0 01-1 1H10a1 1 0 01-1-1v-4a1 1 0 011-1h16a1 1 0 011 1z" fill="#5c913b"/><path d="M13 11h2v2h-2z" fill="#a6d488"/><path d="M12 14h4v1h-4z" fill="#77b255"/><path d="M21 11h2v2h-2z" fill="#a6d488"/><path d="M20 14h4v1h-4z" fill="#77b255"/></svg>