<svg xmlns="http://www.w3.org/2000/svg" viewBox="0 0 45 45"><defs><clipPath id="a"><path d="M0 36h36V0H0v36z"/></clipPath></defs><g clip-path="url(#a)" transform="matrix(1.25 0 0 -1.25 0 45)"><path d="M33.794 19S32.477 16 18 16C3.524 16 1.974 19 1.974 19S-1 13.883 4.802 11c4.238-2.105 10.916.131 12.723.814 1.99-.683 9.274-2.824 13.557-.814 5.863 2.751 2.712 8 2.712 8" fill="#dd2e44"/><path d="M36 12H0V0h36v12z" fill="#55acee"/><path d="M27.005 10.61a.807.807 0 0 1 .57 1.376l-8.86 8.86a.805.805 0 1 1-1.14-1.14l8.861-8.86a.803.803 0 0 1 .57-.235" fill="#ffac33"/><path d="M29.316 7.495a1.61 1.61 0 0 1 1.139 2.75l-2.416 2.416a1.61 1.61 0 0 1-2.278 0 1.61 1.61 0 0 1 0-2.278l2.416-2.416a1.603 1.603 0 0 1 1.139-.472" fill="#ffcc4d"/></g></svg>