<svg xmlns="http://www.w3.org/2000/svg" viewBox="0 0 45 45"><defs><clipPath id="a"><path d="M0 36h36V0H0v36z"/></clipPath></defs><g clip-path="url(#a)" transform="matrix(1.25 0 0 -1.25 0 45)"><path d="M9 4.5a4.5 4.5 0 1 0-9 0 4.5 4.5 0 0 0 9 0" fill="#292f33"/><path d="M1.5 4.5a3 3 0 1 0 6 0 3 3 0 0 0-6 0" fill="#dd2e44"/><path d="M36 4.5a4.5 4.5 0 1 0-9 0 4.5 4.5 0 0 0 9 0" fill="#292f33"/><path d="M28.5 4.5a3 3 0 1 0 6 0 3 3 0 0 0-6 0" fill="#dd2e44"/><path d="M31.5 3h-20c-.825 0-1.5.675-1.5 1.5S10.675 6 11.5 6h20c.825 0 1.5-.675 1.5-1.5S32.325 3 31.5 3" fill="#55acee"/><path d="M26.012 4.254c-.004.082-.012.163-.012.246a5.5 5.5 0 0 0 5.5 5.5c1.21 0 2.325-.396 3.234-1.058l.89 1.205A6.959 6.959 0 0 1 31.5 11.5a7 7 0 0 1-7-7c0-.102.01-.201.015-.302l1.497.056M5.629 9.883a5.5 5.5 0 0 0 4.37-5.378l3.5-.004c0 4.341-3.073 7.962-7.162 8.81-.232-1.13-.476-2.309-.708-3.428" fill="#55acee"/><path d="M4.395 4.002a.501.501 0 0 0-.385.593l6.002 28.238a.501.501 0 0 0 .593.385.501.501 0 0 0 .385-.593L4.988 4.387a.501.501 0 0 0-.593-.385" fill="#99aab5"/><path d="M6.123 9.74l-.978.207a1.002 1.002 0 0 0-.77 1.186l1.248 5.87c.114.537.648.883 1.186.77l.978-.209c.538-.114.885-.648.77-1.186L7.31 10.51a1.003 1.003 0 0 0-1.186-.77" fill="#55acee"/><path d="M9.3 31.676l-1.957.416a1.505 1.505 0 0 0-1.155 1.78 1.504 1.504 0 0 0 1.779 1.154l1.957-.416a1.503 1.503 0 0 0 1.155-1.779 1.503 1.503 0 0 0-1.78-1.155" fill="#dd2e44"/><path d="M10.84 34.325a1.503 1.503 0 0 1-1.779-1.155L7.71 26.812a1.003 1.003 0 0 1 .771-1.186l.978-.208a1.002 1.002 0 0 1 1.186.77l1.351 6.358a1.504 1.504 0 0 1-1.155 1.779" fill="#55acee"/><path d="M14.105 30.655l-2.934.624a1.505 1.505 0 0 0-1.156 1.779 1.504 1.504 0 0 0 1.78 1.155l2.934-.624a1.503 1.503 0 0 0 1.155-1.78 1.503 1.503 0 0 0-1.779-1.154" fill="#dd2e44"/><path d="M15.903 31.806a1.5 1.5 0 1 0-2.933.623 1.5 1.5 0 0 0 2.933-.623" fill="#ea596e"/><path d="M35.93 9.54a.74.74 0 1 0-1.48-.001.74.74 0 0 0 1.48 0" fill="#55acee"/></g></svg>