<svg xmlns="http://www.w3.org/2000/svg" viewBox="0 0 36 36"><path fill="#dd2e44" d="M33 31c1 0 1-1 1-4 0-.692 0-3.862-.041-5.138C33.939 21.258 33.149 20 32 20H20v-6c0-1.058-.235-2-2-2h-5c-3 0-6 8-6 8s-6 0-6 3v4s-1 .338-1 1.957S1 31 2 31z"/><circle cx="9" cy="31" r="4" fill="#292f33"/><circle cx="9" cy="31" r="2" fill="#ccd6dd"/><circle cx="27" cy="31" r="4" fill="#292f33"/><circle cx="27" cy="31" r="2" fill="#ccd6dd"/><path fill="#bbddf5" d="M10 19c0 1 .448 1 1 1h5a1 1 0 0 0 1-1v-4a1 1 0 0 0-1-1h-3c-1 0-3 4-3 5"/><path fill="#f492a9" d="M36 21.5a1.5 1.5 0 0 1-1.5 1.5H20v-3h14.5a1.5 1.5 0 0 1 1.5 1.5"/><path fill="#99aab5" d="M1 23h1v5H1z"/><path fill="#ccd6dd" d="M2 31H1c-.55 0-1-.45-1-1v-2c0-.55.45-1 1-1h1c.55 0 1 .45 1 1v2c0 .55-.45 1-1 1m32 0h-1c-.55 0-1-.45-1-1v-2c0-.55.45-1 1-1h1c.55 0 1 .45 1 1v2c0 .55-.45 1-1 1"/></svg>