<svg xmlns="http://www.w3.org/2000/svg" viewBox="0 0 45 45"><defs><clipPath id="a"><path d="M0 36h36V0H0v36z"/></clipPath></defs><g clip-path="url(#a)" transform="matrix(1.25 0 0 -1.25 0 45)"><path d="M32 12h-1c-.55 0-1 .45-1 1s.45 1 1 1h1c.55 0 1-.45 1-1s-.45-1-1-1" fill="#f4900c"/><path d="M10 4.5a4.5 4.5 0 1 0-9 0 4.5 4.5 0 0 0 9 0M34 4.5a4.5 4.5 0 1 0-9 0 4.5 4.5 0 0 0 9 0" fill="#292f33"/><path d="M8 4.5a2.5 2.5 0 1 0-5 0 2.5 2.5 0 0 0 5 0M32 4.5a2.5 2.5 0 1 0-5 0 2.5 2.5 0 0 0 5 0" fill="#99aab5"/><path d="M5.854 11.918l2.615 6.989-.47 1.094s-.915-.008-1 1c-.082 1.006 2.409 3.079 3 3 .594-.081 0-2 0-2s2.32-.558 2-2c-.318-1.444-2.374-8.688-2.374-8.688s1.75-.875 2.375-2.312c.449-1.032 1.68-1.018 3-1 1.319.016 4.393.007 5 2 .607 1.991 1 3 1 3l-1 1 10 2s-.89-1.982 1-3c2.168-1.169 2.86-2.669 4-5 .748-1.534.448-1.897-1-2-1.942-.14-4.44-.386-5.79-.535-1.198-.134-2.285-1.651-4.165-1.651S13.993 3.766 12 4.001c-3.496.409-4.758 3-10 3-2.072 0-1.06 1.563.028 2.665 1.21 1.226 3.801 2.4 3.826 2.252" fill="#dd2e44"/><path d="M22 3h-3c-1.1 0-2 .9-2 2s.9 2 2 2h3c1.1 0 2-.9 2-2s-.9-2-2-2" fill="#be1931"/><path d="M19 3h-5c-.55 0-1 .45-1 1s.45 1 1 1h5c.55 0 1-.45 1-1s-.45-1-1-1" fill="#be1931"/><path d="M22 14c-1.618 0-2.431-.306-3 1s-.02 2 1 2 5.728.181 8 1c2.273.819 3.053.831 3 0-.053-.831-1-2-1-2s-1.254-2-8-2M14 20h-3.251c-.55 0-1 .45-1 1s.45 1 1 1H14c.55 0 1-.45 1-1s-.45-1-1-1" fill="#292f33"/><path d="M7.5 20c-.275 0-.5.225-.5.5v1c0 .275.225.5.5.5s.5-.225.5-.5v-1c0-.275-.225-.5-.5-.5" fill="#f4900c"/><path d="M13.063 23h-.126a.94.94 0 0 0-.936.937v2.126a.94.94 0 0 0 .937.937h.124a.94.94 0 0 0 .938-.937v-2.126a.94.94 0 0 0-.938-.937" fill="#292f33"/><path d="M9.982 20.934l-.022.022a.486.486 0 0 0 0 .685l2.85 2.851a.486.486 0 0 0 .685 0l.023-.022a.486.486 0 0 0 0-.685l-2.85-2.85a.486.486 0 0 0-.686 0" fill="#292f33"/></g></svg>