<svg xmlns="http://www.w3.org/2000/svg" viewBox="0 0 36 36"><path fill="#D2A077" d="M25.362 18.513l-.372-.521-.161-.132-4.001.016-4.098-11.92a1.981 1.981 0 0 0-.586 2.187l1.721 4.727-.005.145 1.719 4.891-3.422-.016-.223.311c-.083.031-.62.313-.773.44l-.161.137s-1.125.534-1.125 2.407c.044.678.392 1.534.719 1.774-.359.572-.996.916-1.594.916-1.104 0-1.906-.771-1.906-1.875l.295-7.176A2.336 2.336 0 0 0 10 16.957v.96l-.109.005v4.161C9.734 24 7.916 23.906 7.916 23.906 6.857 23.906 6 23.142 6 22.083V24c0 .095.015.185.028.276.515.445 1.177.818 1.91.818 0 0 1.609.094 2.575-1.266.123.183 1.003 1.281 2.487 1.281 1.688 0 2.527-1.405 2.526-1.406.201.115.474.375 1.474.375h2.297c-2.031 1.734-2.875 4.528-2.875 6.922 0 .276.302.562.578.562s.578-.286.578-.562c0-2.548.899-4.642 2.299-5.891 1.139-1.016 2.623-1.031 2.623-1.031.276 0 .578-.302.578-.578 0-.276-.302-.578-.578-.578H17c-1.104 0-1.906-.817-1.906-1.922s.802-1.906 1.906-1.906l8-.016c.766 0 1.518.633 1.543.664a3.419 3.419 0 0 0-1.181-1.229zM20.333 5.365L20.96 4.2h.135l2.033 5.604-.001.293-.514 1.366h-.072l-2.208-5.994z"/><path fill="#F3D2A2" d="M17 18c-.703 0-1.066.202-1.066.202l1.931-5.331L19.731 18H17zm-9.084-2h.168C9.143 16 10 16.858 10 17.917v4.166A1.916 1.916 0 0 1 8.084 24h-.168A1.916 1.916 0 0 1 6 22.083v-4.166C6 16.858 6.857 16 7.916 16zm6.918 2.96l-.056.062A2.95 2.95 0 0 0 14 21c0 .063.013.123.018.185.044.678.308 1.292.728 1.774a2.041 2.041 0 0 1-.259.353A1.97 1.97 0 0 1 13 24a2 2 0 0 1-2-2v-6c0-.441.147-.845.389-1.176A1.993 1.993 0 0 1 13 14a2 2 0 0 1 2 2v2.778c-.061.055-.109.123-.166.182z"/><path fill="#F3D2A2" d="M8.062 25a2.93 2.93 0 0 0 2.45-1.322c.123.183.271.346.431.497.049.046.102.085.155.128a2.962 2.962 0 0 0 .578.377c.14.069.285.125.435.172.067.021.131.046.2.062.223.052.452.086.689.086.236 0 .461-.036.681-.089.076-.018.148-.042.223-.066.137-.044.269-.099.396-.161.082-.04.163-.076.24-.124.164-.1.318-.213.46-.341.043-.039.071-.09.112-.13.152-.152.303-.305.419-.488l-.003-.003C15.727 23.713 16 24 17 24h2.537a6.35 6.35 0 0 0-1.024 1c-1.228 1.467-2.013 3.606-2.013 6a.5.5 0 0 0 1 0c0-2.548.956-4.775 2.377-6 .732-.631 1.584-1 2.498-1h.125a.5.5 0 0 0 0-1H17a2 2 0 0 1 0-4h8c.032 0 .062.008.094.01a1.833 1.833 0 0 1 .585.117 1.913 1.913 0 0 1 .657.396 1.798 1.798 0 0 1 .207.221l.052.063a2.038 2.038 0 0 1 .279.517c.012.031.029.06.039.093L28 24c.103.335.479 1.871.411 2.191C28.411 31 23.715 36 18 36c-6.537 0-11.844-5.231-11.986-11.734l.014.01a2.909 2.909 0 0 0 1.91.724h.124zM21.226 3.707a1.993 1.993 0 0 1 2.468-.998 1.999 1.999 0 0 1 1.195 2.563l-1.761 4.821-.001.003L20.96 4.2l.266-.493zM25.001 18l-2.388-6.537-2.07-5.688a1.983 1.983 0 0 0-.211-.41 1.997 1.997 0 0 0-3.548 1.778L20.733 18h4.268z"/></svg>