<svg xmlns="http://www.w3.org/2000/svg" viewBox="0 0 45 45"><defs><clipPath id="a"><path d="M0 36h36V0H0v36z"/></clipPath></defs><path d="M21.309 15.781l-2.618 6.993 5.156.018-2.538-7.01z" fill="#f7dece"/><g clip-path="url(#a)" transform="matrix(1.25 0 0 -1.25 0 45)"><path d="M17.802 30.353a1.99 1.99 0 0 0 .055-1.496L13.905 18l-2.89.006-.364-.997 4.254-.01 3.952 10.858a1.994 1.994 0 0 1-1.055 2.496M11.657 26.477l.822-2.185 2.25 6.229-.955 1.772-2.117-5.816z" fill="#e0aa94"/><path d="M27 16a2 2 0 0 1-2-2v5.043a2.337 2.337 0 0 1-2.337 2.337h-.326A2.337 2.337 0 0 1 20 19.043v-1.776c-.026.015-.056.025-.082.039a2.939 2.939 0 0 1-1.291.634l-8.616.068L8.219 15.5l2.823-.053c-.019-.136-.042-.273-.042-.416v-.062c0-.413.085-.807.238-1.164a5.778 5.778 0 0 1-.238-1.63v-2.35A5.825 5.825 0 0 1 16.826 4h.348a5.824 5.824 0 0 1 5.683 4.559A2.349 2.349 0 0 1 24.369 8h.262c1.183 0 2.156.87 2.332 2.004.013 0 .024-.004.037-.004a2 2 0 0 1 2 2v2a2 2 0 0 1-2 2" fill="#e0aa94"/><path d="M29 13.917A1.916 1.916 0 0 0 27.084 12h-.168A1.916 1.916 0 0 0 25 13.917v4.166c0 1.059.857 1.917 1.916 1.917h.168A1.916 1.916 0 0 0 29 18.083v-4.166z" fill="#f7dece"/><path d="M18 18h-6.581A3.42 3.42 0 0 1 8 14.58v-.16A3.42 3.42 0 0 1 11.419 11h6.162A3.419 3.419 0 0 1 21 14.42v.16c0 1.889-1.111 3.42-3 3.42" fill="#e0aa94"/><path d="M22 22a2 2 0 0 1-2-2v-2.778c.609-.549 1-1.336 1-2.222 0-.753-.287-1.433-.745-1.959A1.994 1.994 0 0 1 22 12a2 2 0 0 1 2 2v6a2 2 0 0 1-2 2" fill="#f7dece"/><path d="M27.063 11h-.125a2.93 2.93 0 0 0-2.45 1.322 3.039 3.039 0 0 0-.431-.497c-.05-.046-.102-.085-.155-.128a3.057 3.057 0 0 0-.579-.377 2.993 2.993 0 0 0-.436-.172c-.067-.02-.13-.046-.2-.061A2.945 2.945 0 0 0 22 11c-.237 0-.46.036-.68.089-.077.017-.15.042-.224.066a3.026 3.026 0 0 0-.395.161c-.082.04-.163.077-.24.124-.164.1-.318.213-.46.341a3.04 3.04 0 0 0-.53.618l.003.003C19.273 12.287 19 12 18 12h-2.537c1.809-1.365 3.037-3.99 3.037-7a.5.5 0 1 0-1 0c0 3.859-2.186 7-4.875 7H12.5a.5.5 0 0 0 0 1H18a2 2 0 1 1 0 4h-8c-.032 0-.062-.008-.094-.01a1.973 1.973 0 0 1-.765-.191 2.38 2.38 0 0 1-.326-.196 1.973 1.973 0 0 1-.282-.254 1.9 1.9 0 0 1-.234-.31 2.17 2.17 0 0 1-.173-.361c-.011-.032-.028-.06-.04-.093L7.002 12c-.103-.335-.48-1.871-.411-2.191C6.59 5 11.286 0 17 0c6.538 0 11.844 5.231 11.987 11.734A2.917 2.917 0 0 0 27.063 11M10.11 30.727l1.763-4.824L14.04 31.8l-.266.493a1.992 1.992 0 0 1-2.468.998 2 2 0 0 1-1.195-2.564zM17.02 31.42a2 2 0 0 1-2.564-1.195L10.01 18.008 14.264 18l3.951 10.857a2 2 0 0 1-1.195 2.563" fill="#f7dece"/></g></svg>