<svg xmlns="http://www.w3.org/2000/svg" viewBox="0 0 45 45"><defs><clipPath id="a"><path d="M0 36h36V0H0v36z"/></clipPath></defs><g clip-path="url(#a)" transform="matrix(1.25 0 0 -1.25 0 45)"><path d="M8.401 29.817c3.217-.844 10.943-3.114 12.782-3.907 4.245-1.829 7.507-5.306 7.448-9.205-.064-4.22-1.768-6.943-7.888-8.047-6.2-1.12-10.24-1.437-12.626-1.79-3.452-.512-4.322 4.595-.67 5.05 0 0-3.172.447-5.123.664-2.3.255-2.475 2.105-1.975 4.577.512 2.526 2.295 6.898 3.193 9.143 1.144 2.857 2.302 4.186 4.86 3.515" fill="#7c533e"/><path d="M21.257 25.842c3.218-1.04 7.624-1.14 11.535-.772 2.021.189 3.208.198 3.208-1.436V13.03c0-1.99-.669-1.97-2.812-1.683-3.268.436-5.099 1.228-8.218-1.347-2.177-1.796-9.77 17.799-3.713 15.842" fill="#7c533e"/><path d="M5.138 8.906s-.301 2.733 2.365 3.005c1.567.159 3.676.418 4.474.51 1.375.16 1.663 1.344 1.311 2.366-.347 1.009-2.493 6.297-3.005 7.64-.38.997-1.363.659-1.725-.064-.67-1.337-1.828-3.845-1.982-4.251-.35-.925.736-1.566 1.247-.64.346.628 1.63 3.644 1.63 3.644s2.398-5.785 2.653-6.52c.223-.641-.064-1.023-.703-1.12-.64-.095-3.486-.44-4.348-.574-1.438-.224-2.524-1.663-1.917-3.996" fill="#583529"/><path d="M7.695 18.4s1.023-.449 1.822-.736c.799-.288.51-1.407-.32-1.183-.831.224-2.173.575-2.173.575l.67 1.343zM4.179 26.55c.389.83 1.31.352 1.087-.32-.224-.67-3.612-8.758-3.932-9.589-.32-.83-.831-.639-.575.224s2.94 8.662 3.42 9.685" fill="#583529"/><path d="M9.453 21.116c-.391-1.397.054-3.09.44-3.834l-2.435.892 1.995 2.942z" fill="#583529"/></g></svg>