<svg xmlns="http://www.w3.org/2000/svg" viewBox="0 0 45 45"><defs><clipPath id="a"><path d="M0 36h36V0H0v36z"/></clipPath><clipPath id="b"><path d="M15.243 28.216c.815-1.629 2.936-3.638 4.211-4.21.844-.379 0-1.053-1.607-2.134-1.197-.804-5.692-2.891-9.154-6.413-1.45-1.475.531-3.254 1.525-2.293 2.777 2.689 5.996 4.494 5.996 4.494l.196-.609c-2.051-1.156-5.383-3.944-7.093-5.5-1.322-1.205.411-3.293 1.524-2.364 3.336 2.788 6.766 5.02 6.766 5.02l.366-.53c-1.31-.789-4.454-3.163-6.211-4.744-1.326-1.188.351-3.226 1.613-2.141 1.857 1.595 6.237 4.651 6.237 4.651l.369-.386c-1.079-.677-2.772-1.939-4.986-3.959-1.329-1.212.457-2.548 1.344-1.849 1.096.861 3.834 3.338 7.261 4.8 5.232 2.242 7.164 4.335 7.628 5.129.858 1.458 2.181 2.058 3.093 2.511.909.45 1.143 1.702.718 2.553-.421.854-2.505 4.958-2.953 5.869-.453.909-1.226 1.49-2.106 1.053 0 0-1.053-1.053-2.105-1.053-2.002 0-2.435 1.053-5.263 1.053-2.105 0-4.211 2.105-5.264 3.157-.475.475-.936.679-1.328.679-.981 0-1.529-1.28-.777-2.784"/></clipPath><clipPath id="c"><path d="M0 36h36V0H0v36z"/></clipPath></defs><g clip-path="url(#a)" transform="matrix(1.25 0 0 -1.25 0 45)"><path d="M30.043 24.962c.882.436 1.618-.286 2.068-1.195.453-.91 1.86-4.538 2.283-5.392.421-.853-.657-.609-1.568-1.058-.91-.452-1.793-.746-2.616-1.154-.826-.41-1.275-3.15-6.508-5.388-3.429-1.467-3.545-3.264-6.661-5.85-1.145-.95-3.096.32-1.764 1.535 2.213 2.018 3.905 3.28 4.985 3.958l-.368.383s-4.173-2.93-5.995-4.565c-1.326-1.188-3.417 1.175-2.093 2.365 1.756 1.58 5.14 3.648 6.449 4.438l-.367.526s-3.159-2.064-6.493-4.85C10.14 7.67 7.937 9.965 9.26 11.168c1.709 1.557 5.382 4.084 7.432 5.242l-.197.611s-3.218-1.808-5.996-4.494c-.994-.962-2.974.818-1.523 2.29 3.462 3.524 7.921 5.666 9.153 6.414 1.581.961 3.222 2.395 2.378 2.774-1.277.572-.479 1.292-2.106 2.105-2.106 1.053-2.677 3.158-1.053 3.158 1.052 0 1.711-1.925 4.212-2.105 2.818-.203 4.573-4.104 6.363-3.216.768.381 2.12 1.015 2.12 1.015" fill="#ef9645"/><path d="M29.98 27.164c.88.437 1.653-.144 2.106-1.053.449-.911 2.533-5.015 2.954-5.868.424-.852.19-2.104-.72-2.553-.91-.453-2.234-1.054-3.091-2.512-.465-.794-2.397-2.887-7.63-5.13-3.426-1.461-6.164-3.937-7.26-4.8-.886-.697-2.673.638-1.343 1.85 2.213 2.02 3.906 3.282 4.985 3.959l-.368.386s-4.381-3.056-6.238-4.651c-1.261-1.085-2.938.954-1.613 2.142 1.757 1.58 4.902 3.954 6.21 4.744l-.365.529s-3.43-2.231-6.765-5.02c-1.113-.93-2.846 1.16-1.525 2.365 1.71 1.555 5.043 4.343 7.093 5.499l-.196.61s-3.218-1.805-5.996-4.495c-.993-.961-2.974.819-1.525 2.293 3.463 3.522 7.958 5.609 9.155 6.413 1.606 1.08 2.45 1.755 1.606 2.134-1.275.572-3.396 2.58-4.21 4.21-1.053 2.106.44 3.77 2.105 2.106 1.053-1.053 3.158-3.158 5.263-3.158 2.829 0 3.26-1.053 5.263-1.053 1.051 0 2.104 1.053 2.104 1.053" fill="#ffcc4d"/></g><g clip-path="url(#b)" transform="matrix(1.25 0 0 -1.25 0 45)"><path d="M19.727 23.742c.7-.76 1.545-1.682 2.638-2.185 1.245-.574 2.349-.725 2.683-.725.346-.003.533-.602-.038-.627-.556-.023-1.79.242-2.871.767-1.032.5-2.227 1.563-2.883 2.406l.47.364z" fill="#ef9645"/></g><g clip-path="url(#c)" transform="matrix(1.25 0 0 -1.25 0 45)"><path d="M6.778 26.204c-.843.511-1.65-.029-2.174-.898-.525-.87-2.223-4.666-2.717-5.484-.491-.814.718-.84 1.588-1.364.87-.525 2.157-1.895 2.945-2.372.789-.474 1.118-3.849 5.665-6.819 4.298-2.807 6.976-4.014 7.982-4.517 2.106-1.053 3.476 1.678 1.833 2.412-2.833 1.266-5.155 2.247-6.178 3.015l.149.427s3.294-2.099 7.447-3.824c1.537-.639 2.829 2.25 1.205 2.982-2.422 1.088-5.738 2.537-6.978 3.432l.219.423s4.119-2.635 7.998-4.383c1.434-.643 3.072 2.264 1.453 3.02-2.264 1.052-5.936 2.763-7.88 4.088l.337.5s3.48-2.656 6.569-3.929c1.278-.525 3.195 2.06 1.316 2.917-3.782 1.726-8.583 4.957-9.708 5.858-.917.736-1.411 3.197-.5 3.37 1.213.23 4.21 2.106 5.262 3.158 1.053 1.052-.124 1.98-1.051 1.052-1.053-1.052-2.006-2.67-4.515-2.644-2.827.032-6.525-2.64-8.238-1.605-.734.441-2.03 1.185-2.03 1.185" fill="#ef9645"/><path d="M7.09 26.722a1.81 1.81 0 0 1-2.485-.615c-.525-.87-2.828-4.683-3.32-5.5-.492-.817-.363-2.079.506-2.604.87-.527 2.447-1.478 3.236-1.952.79-.477 4.011-4.477 8.662-7.28 4.648-2.807 6.365-3.286 7.411-3.697 1.05-.41 2.437 1.683.793 2.416-2.837 1.268-4.835 2.438-5.859 3.205l.318.585s2.837-2.12 6.987-3.848c1.538-.639 2.791 1.754 1.167 2.488-2.422 1.09-5.412 2.893-6.65 3.79l.346.571s3.946-2.494 7.825-4.242c1.431-.645 2.632 1.786 1.013 2.542-2.26 1.054-5.449 2.955-7.394 4.277l.338.5s3.615-2.55 6.705-3.823c1.277-.528 2.78 1.861.9 2.721C23.81 17.981 19.525 21 18.401 21.9c-.918.737-1.18 2.413 1.052 3.158 3.158 1.053 4.211 3.158 4.211 4.21 0 1.49-1.376 2.146-2.105 1.053-2.106-3.158-3.166-2.08-5.263-3.158-2.514-1.29-5.466-2.66-7.179-1.628-.733.442-2.027 1.187-2.027 1.187" fill="#ffdc5d"/><path d="M18.948 24.28l5.426 2.711a8.282 8.282 0 0 1-1.763.172c-2.104 0-4.21 2.105-5.263 3.158-1.665 1.664-3.158 0-2.105-2.105.714-1.429 2.433-3.149 3.705-3.937M14.67 5.675c.259-.425.808-.69 1.283-.598l-1.282.598zM11.503 7.153c.29-.467.819-.769 1.358-.634l-1.358.634z" fill="#ffcc4d"/></g></svg>