<svg xmlns="http://www.w3.org/2000/svg" viewBox="0 0 45 45"><defs><clipPath id="a"><path d="M0 36h36V0H0v36z"/></clipPath></defs><g clip-path="url(#a)" transform="matrix(1.25 0 0 -1.25 0 45)"><path d="M1.79 20.144c1.477 2.63 3.771 4.847 6.11 5.917 3.658 1.672 5.17 7.582 6.211 9.049 1.447 2.038 4.373.166 3.89-2.864-.523-3.265-1.944-4.053-2.805-6.02-.438-1.004-.297-1.714 1.556-1.848 1.854-.133 6.996-.634 7.25-1.647.615-2.463-7.788-8.445-.979-13.534 0 0 8.662-1.651 10.41-1.908 3.026-.445 2.48-4.531-.675-4.196-2.972.314-10.24 1.826-12.477.435-1.796-1.116-8.495-2.609-14.445.735C-.114 7.606-1.24 14.754 1.79 20.144" fill="#ffdc5d"/><path d="M14.099 10.1c-4.156.866-3.69 5.887.27 5.57 3.22-.257 8.846-1.235 10.252-1.552 2.877-.65 2.239-5.66-1.16-5.25-2.205.266-6.128.56-9.362 1.233" fill="#ef9645"/><path d="M14.521 11.024c-3.449.795-2.49 4.43.734 4.244 3.225-.184 8.14-.93 9.563-1.159 3.327-.534 1.83-4.806-.621-4.459-2.45.347-7.104.781-9.676 1.374" fill="#ffdc5d"/><path d="M13.192 13.996c-4.943.07-4.674 5.581-.974 6.013 3.208.376 10.28-.418 11.722-.478 2.683-.11 2.702-5.014-.345-5.176-2.472-.129-7.763-.396-10.403-.359" fill="#ef9645"/><path d="M13.046 14.934c-3.074-.141-3.422 4.014-.207 4.315 3.216.302 10.09.23 11.531.206 2.507-.04 2.42-4.234-.66-4.351-2.474-.095-8.027-.05-10.664-.17" fill="#ffdc5d"/><path d="M12.778 18.264c-4.447-.518-4.57 5.147-1.36 5.491 4.536.485 6.598-.24 6.922-.165 2.759.64 5.166.56 5.66-.859.424-1.212-.38-3.203-1.971-3.41-2.453-.322-6.63-.75-9.251-1.057" fill="#ef9645"/><path d="M12.959 19.142c-3.067-.249-3.845 3.611-.683 4.266 3.163.656 7.69 1.01 9.526 1.091 2.81.124 3.307-3.966.26-4.423-2.448-.368-5.983-.682-9.103-.934" fill="#ffdc5d"/></g></svg>