<svg xmlns="http://www.w3.org/2000/svg" viewBox="0 0 45 45"><defs><clipPath id="a"><path d="M0 36h36V0H0v36z"/></clipPath></defs><g clip-path="url(#a)" transform="matrix(1.25 0 0 -1.25 0 45)"><path d="M19 36c-1.721 0-3.343-.406-4.794-1.111A6.944 6.944 0 0 1 13 35a7 7 0 0 1-7-7V16h.018C6.201 9.533 11.489 4.344 18 4.344c6.511 0 11.799 5.189 11.982 11.656H30v9c0 6.075-4.925 11-11 11" fill="#60352a"/><path d="M27 9H10V0h21v5a4 4 0 0 1-4 4" fill="#9268ca"/><path d="M9 31V19c0-3.917 2.507-7.24 6-8.477V8a3 3 0 1 1 6 0v2.523c3.493 1.237 6 4.56 6 8.477v12H9z" fill="#af7e57"/><path d="M26.999 31v1H8v-7c6 0 6 6 6 6s2-7 14-7v7h-1.001z" fill="#60352a"/><path d="M16.262 26.708h-4.01v4.703h4.01v-4.703z" fill="#60352a"/><path d="M18.734 17.614l1.827-.69S14.032 3.176 13.148 1.9c-.884-1.277-1.87-2.055-4.57-1.76l10.156 17.473zM27 0h-1v4h1V0z" fill="#7450a8"/><path d="M14.984 7.61s-2.359-4.423-2.865-5.336C11.843 1.777 10.814.265 9.797.265c0 0 2.213-.12 3.121 1.682a142.593 142.593 0 0 0 2.425 4.646s-.125.33-.203.485c-.117.234-.156.531-.156.531" fill="#7450a8"/><path d="M18.734 17.614l-4.084-6.952c.116-.047.231-.097.35-.139V8c0-.594.178-1.144.476-1.61a965.008 965.008 0 0 1 5.085 10.533l-1.827.691z" fill="#90603e"/><path d="M20.023 12.595h-5.27a.71.71 0 0 0-.707.708.71.71 0 0 0 .708.708h5.269a.71.71 0 0 0 .709-.707.711.711 0 0 0-.71-.71" fill="#df1f32"/><path d="M15.785 12.595h2.706l.68 1.416h-2.553l-.833-1.416z" fill="#a0041e"/><path d="M22 20a1 1 0 0 0-1 1v1a1 1 0 1 0 2 0v-1a1 1 0 0 0-1-1" fill="#60352a"/><path d="M13.513 28.154c.945.29 1.598-.508 1.77-1.195l.284-1.14.756 2.155a2 2 0 0 0 2.549 1.225l3.774-1.324a2 2 0 0 0 1.226-2.55l-2.648-7.548s-.331-.944-1.275-.613l-5.662 1.987-.612 1.274.345.984-1.226 4.93c-.172.688.042 1.607.719 1.815" fill="#90603e"/><path d="M22 23a1 1 0 0 1-1-1v-1a1 1 0 0 1 1-1l.003.001.866 2.466A.988.988 0 0 1 22 23" fill="#4f140b"/><path d="M12.513 28.343a1.284 1.284 0 0 0 1.555-.934l.284-1.14.755 2.155a2 2 0 0 0 2.55 1.225l3.774-1.324a2 2 0 0 0 1.225-2.549l-2.648-7.549s-.33-.944-1.274-.613L13.072 19.6l-.613 1.275.346.984-1.227 4.93a1.283 1.283 0 0 0 .935 1.554" fill="#af7e57"/><path d="M18.744 23.946l.944-.33 1.655 4.717-.944.331-1.655-4.718zM15.913 24.94l.944-.332 1.655 4.718-.944.331-1.655-4.718z" fill="#90603e"/><path d="M14.278 6.15s-1.719-3.58-2.106-4.416C11.484.25 10 0 10 0 2 0 6.378 8.343 6.378 8.343l6.431 11.846 6.541-2.58-5.072-11.46z" fill="#9268ca"/></g></svg>