<svg xmlns="http://www.w3.org/2000/svg" viewBox="0 0 45 45"><defs><clipPath id="a"><path d="M0 36h36V0H0v36z"/></clipPath></defs><g clip-path="url(#a)" transform="matrix(1.25 0 0 -1.25 0 45)"><path d="M36 18c0-9.941-8.059-18-18-18C8.06 0 0 8.059 0 18c0 9.94 8.06 18 18 18 9.941 0 18-8.06 18-18" fill="#ffcc4d"/><path d="M22.5 11H18c-5.6 0-7 1-7 1s1.267-3.594 6.179-3.963c.104-.023.211-.037.321-.037H22c.825 0 2 1.175 2 2s-.675 1-1.5 1M15.813 18.112a.501.501 0 0 0-.61-.014c-.013.01-1.261.902-3.702.902s-3.69-.892-3.701-.9a.5.5 0 0 0-.757.603c.06.135 1.5 3.297 4.458 3.297s4.397-3.162 4.457-3.297a.5.5 0 0 0-.145-.591M28.813 18.112a.5.5 0 0 0-.61-.014c-.012.01-1.261.902-3.702.902s-3.691-.892-3.701-.9a.5.5 0 0 0-.758.603c.06.135 1.5 3.297 4.458 3.297s4.398-3.162 4.458-3.297a.5.5 0 0 0-.145-.591M13.114 29.998A1 1 0 0 0 13.04 28c-.156.004-3.57.053-6.34-3.357a1 1 0 1 0-1.552 1.262c3.429 4.22 7.782 4.101 7.965 4.094M22.517 28.326c.18.033 4.473.763 8.46-2.933a.998.998 0 0 0 .055-1.413.997.997 0 0 0-1.413-.054c-3.228 2.99-6.607 2.456-6.75 2.43a1.003 1.003 0 0 0-1.155.813.997.997 0 0 0 .803 1.157" fill="#664500"/><path d="M23 10h-3c-.55 0-1-.45-1-1V5c0-.55.45-1 1-1s1 .45 1 1V1.5c0-.825.675-1.5 1.5-1.5S24 .675 24 1.5V9c0 .55-.45 1-1 1" fill="#88c9f9"/></g></svg>