<svg xmlns="http://www.w3.org/2000/svg" viewBox="0 0 45 45"><defs><clipPath id="a"><path d="M0 36h36V0H0v36z"/></clipPath></defs><g clip-path="url(#a)" transform="matrix(1.25 0 0 -1.25 0 45)"><path d="M32 18c0-8.836-7.164-16-16-16S0 9.164 0 18s7.164 16 16 16 16-7.164 16-16" fill="#ffcc4d"/><path d="M11.47 22.47c0-1.705-.986-3.087-2.205-3.087-1.218 0-2.206 1.382-2.206 3.088 0 1.705.988 3.088 2.206 3.088 1.219 0 2.206-1.383 2.206-3.088M23 22.47c0-1.705-.987-3.087-2.206-3.087-1.218 0-2.206 1.382-2.206 3.088 0 1.705.988 3.088 2.206 3.088 1.219 0 2.206-1.383 2.206-3.088M10.118 6.618c1.765 4.412 11.47 4.412 11.47 2.647 0-.882-7.058.882-11.47-2.647" fill="#664500"/><path d="M32.262 18.5H17c-1.51 0-2.734-1.344-2.734-3 0-1.657 1.224-3 2.734-3h15.262c1.513 0 2.738 1.343 2.738 3 0 1.656-1.225 3-2.738 3" fill="#f4900c"/></g></svg>