<svg viewBox="0 0 36 36" xmlns="http://www.w3.org/2000/svg"><g fill="#4289c1"><circle cx="29" cy="3" r="2"/><circle cx="33" cy="8" r="3"/><circle cx="33" cy="4" r="3"/><circle cx="7" cy="3" r="2"/><circle cx="3" cy="8" r="3"/><circle cx="3" cy="4" r="3"/></g><path d="M36 18c0 9.941-8.059 18-18 18S0 27.941 0 18 8.059 0 18 0s18 8.059 18 18" fill="#fee7b8"/><circle cx="30.5" cy="4.5" fill="#4289c1" r="2.5"/><circle cx="32" cy="7" fill="#4289c1" r="2"/><circle cx="5.5" cy="4.5" fill="#4289c1" r="2.5"/><circle cx="4" cy="7" fill="#4289c1" r="2"/><circle cx="6.93" cy="21" fill="#ff7892" r="4"/><circle cx="28.93" cy="21" fill="#ff7892" r="4"/><path d="M27.335 23.629a.501.501 0 00-.635-.029c-.039.029-3.922 2.9-8.7 2.9-4.766 0-8.662-2.871-8.7-2.9a.5.5 0 00-.729.657C8.7 24.472 11.788 31 18 31s9.301-6.528 9.429-6.743a.499.499 0 00-.094-.628z" fill="#da2f47"/><path d="M27.335 23.629a.501.501 0 00-.635-.029c-.039.029-3.922 2.9-8.7 2.9-4.766 0-8.662-2.871-8.7-2.9a.5.5 0 00-.729.657C8.7 24.472 11.788 31 18 31s9.301-6.528 9.429-6.743a.499.499 0 00-.094-.628z" fill="none"/><ellipse cx="11.5" cy="11.5" fill="#664500" rx="2.5" ry="3.5"/><ellipse cx="25.5" cy="11.5" fill="#664500" rx="2.5" ry="3.5"/><circle cx="18.5" cy="19.5" fill="#bb1a34" r="3.5"/></svg>