<svg xmlns="http://www.w3.org/2000/svg" viewBox="0 0 45 45"><defs><clipPath id="a"><path d="M0 36h36V0H0v36z"/></clipPath></defs><g clip-path="url(#a)" transform="matrix(1.25 0 0 -1.25 0 45)"><path d="M31 33a2 2 0 1 0-4 0 2 2 0 0 0 4 0M36 28a3 3 0 1 0-6 0 3 3 0 0 0 6 0" fill="#4289c1"/><path d="M36 32a3 3 0 1 0-6 0 3 3 0 0 0 6 0M5 33a2 2 0 1 1 4.001.001A2 2 0 0 1 5 33M0 28a3 3 0 1 1 6 0 3 3 0 0 1-6 0" fill="#4289c1"/><path d="M0 32a3 3 0 1 1 6 0 3 3 0 0 1-6 0" fill="#4289c1"/><path d="M36 18c0-9.941-8.059-18-18-18S0 8.059 0 18s8.059 18 18 18 18-8.059 18-18" fill="#fee7b8"/><path d="M33 31.5a2.5 2.5 0 1 0-5 0 2.5 2.5 0 0 0 5 0" fill="#4289c1"/><path d="M34 29a2 2 0 1 0-4.001.001A2 2 0 0 0 34 29M3 31.5a2.5 2.5 0 1 1 5 0 2.5 2.5 0 0 1-5 0" fill="#4289c1"/><path d="M2 29a2 2 0 1 1 4.001.001A2 2 0 0 1 2 29" fill="#4289c1"/><path d="M10.93 15a4 4 0 1 0-8 0 4 4 0 0 0 8 0M32.93 15a4 4 0 1 0-8 0 4 4 0 0 0 8 0" fill="#ff7892"/><path d="M27.335 12.371a.501.501 0 0 1-.635.03c-.039-.03-3.922-2.9-8.7-2.9-4.766 0-8.662 2.87-8.7 2.9a.5.5 0 1 1-.729-.657C8.7 11.527 11.788 5 18 5s9.301 6.528 9.429 6.743a.499.499 0 0 1-.094.628" fill="#da2f47"/><path d="M14 24.5c0-1.934-1.119-3.5-2.5-3.5S9 22.566 9 24.5c0 1.933 1.119 3.5 2.5 3.5s2.5-1.567 2.5-3.5M28 24.5c0-1.934-1.119-3.5-2.5-3.5S23 22.566 23 24.5c0 1.933 1.119 3.5 2.5 3.5s2.5-1.567 2.5-3.5" fill="#664500"/><path d="M22 16.5a3.5 3.5 0 1 0-6.999-.001A3.5 3.5 0 0 0 22 16.5" fill="#bb1a34"/></g></svg>