<svg xmlns="http://www.w3.org/2000/svg" viewBox="0 0 45 45"><defs><clipPath id="a"><path d="M0 36h36V0H0v36z"/></clipPath></defs><g clip-path="url(#a)" transform="matrix(1.25 0 0 -1.25 0 45)"><path d="M35.99 18c0-9.941-8.06-18-18-18s-18 8.059-18 18c0 9.94 8.06 18 18 18s18-8.06 18-18" fill="#77b255"/><path d="M14.607 11.026c.903.595 2.064.953 3.33.953 1.259 0 2.412-.352 3.312-.94" fill="none" stroke="#292f33" stroke-width="2.75" stroke-miterlimit="10"/><path d="M28.028 22.964c-.244.3-6.77 1.502-6.826 1.502-.118 0-.25-.088-.276-.204a4.083 4.083 0 0 1 .466-2.941c.522-.876 1.337-1.47 2.296-1.673.233-.05.471-.074.707-.074 1.746 0 3.296 1.336 3.686 3.178a.262.262 0 0 1-.053.212M14.756 24.466c-.056 0-6.583-1.202-6.827-1.502a.258.258 0 0 1-.052-.214c.39-1.84 1.94-3.176 3.686-3.176.236 0 .474.025.707.074 1.972.416 3.211 2.486 2.762 4.613-.024.116-.157.205-.276.205" fill="#292f33"/><path d="M11.647 6.353a1.059 1.059 0 0 0-.335 2.063c.095.033 2.453.877 2.453 3.23 0 2.356-2.358 3.199-2.459 3.233-.55.192-.846.79-.658 1.343.187.552.78.852 1.334.664.16-.052 3.9-1.344 3.9-5.24 0-3.894-3.74-5.185-3.9-5.238a1.059 1.059 0 0 0-.335-.055M24.352 6.353c-.111 0-.223.018-.334.055-.16.053-3.9 1.344-3.9 5.239 0 3.895 3.74 5.187 3.9 5.239a1.06 1.06 0 0 0 .675-2.007c-.1-.034-2.458-.877-2.458-3.232 0-2.354 2.358-3.198 2.458-3.232a1.058 1.058 0 1 0-.341-2.062" fill="#3e721d"/></g></svg>