<svg xmlns="http://www.w3.org/2000/svg" viewBox="0 0 45 45"><defs><clipPath id="a"><path d="M0 36h36V0H0v36z"/></clipPath></defs><g clip-path="url(#a)" transform="matrix(1.25 0 0 -1.25 0 45)"><path d="M33 15c0-8.284-6.716-15-15-15C9.716 0 3 6.716 3 15c0 8.284 6.716 15 15 15 8.284 0 15-6.716 15-15" fill="#ffcc4d"/><path d="M25.688 10.395a.41.41 0 0 1-.522.023c-.033-.023-3.23-2.388-7.165-2.388-3.925 0-7.134 2.365-7.165 2.388a.412.412 0 0 1-.6-.541C10.34 9.7 12.885 5.56 18 5.56c5.115 0 7.659 4.14 7.764 4.317a.412.412 0 0 1-.077.518M14.706 16.235c0-1.593-.922-2.883-2.059-2.883s-2.059 1.29-2.059 2.883c0 1.591.922 2.882 2.06 2.882 1.136 0 2.058-1.29 2.058-2.882M25.412 16.235c0-1.593-.922-2.883-2.06-2.883-1.136 0-2.058 1.29-2.058 2.883 0 1.591.922 2.882 2.058 2.882 1.138 0 2.06-1.29 2.06-2.882M32 29.87c-1.19-1.44-3.182-1.95-5.076-2.12C26.606 29.286 25.241 35 22.5 35c-2.403 0-3.269-1.09-4.5-1.09-1.231 0-2.097 1.09-4.5 1.09-2.741 0-4.106-5.713-4.424-7.25-1.894.17-3.886.68-5.076 2.12-2.153 2.606-5 .686-3.558-2.174C2.72 23.18 8.23 20 18 20c9.769 0 15.279 3.18 17.558 7.696C37 30.556 34.153 32.476 32 29.87" fill="#664500"/><path d="M21.5 33c-1.869 0-2.543-.964-3.499-.964h-.002c-.956 0-1.63.964-3.499.964-2.463 0-3.5-6.75-3.5-6.75S12.282 24 18 24c5.719 0 7 2.25 7 2.25S23.963 33 21.5 33" fill="#825d0e"/><path d="M11 30s2.074-2 7-2c4.927 0 7 2 7 2v-2s-2.222-2-7-2c-4.778 0-7 2-7 2v2z" fill="#664500"/></g></svg>