<svg xmlns="http://www.w3.org/2000/svg" viewBox="0 0 45 45"><defs><clipPath id="a"><path d="M0 36h36V0H0v36z"/></clipPath></defs><g clip-path="url(#a)" transform="matrix(1.25 0 0 -1.25 0 45)"><path d="M30.728 30.728c7.029-7.03 7.029-18.427 0-25.456-7.03-7.03-18.426-7.03-25.456 0-7.03 7.029-7.03 18.427 0 25.456s18.427 7.029 25.456 0" fill="#ffcc4d"/><path d="M19.28 16.72c-3.495-3.494-6.22-5.404-9.646-7.714-.78-.53-1.928-1.93.002-3.858C13.493 1.29 22.746.9 28.922 7.077c6.178 6.177 5.79 15.43 1.93 19.288-1.93 1.929-3.33.78-3.858 0-2.309-3.424-4.22-6.151-7.715-9.645" fill="#664500"/><path d="M11.564 7.077s3.858 1.929 9.644 7.716c5.787 5.785 7.715 9.643 7.715 9.643s1.93-5.787-4.82-12.538c-6.753-6.75-12.539-4.821-12.539-4.821" fill="#fff"/><path d="M12.535 20.19a.533.533 0 0 0-.447-.468c-.016 0-1.619-.268-3.447-2.096-1.827-1.827-2.094-3.43-2.097-3.445a.526.526 0 0 0-.464-.449.527.527 0 0 0-.554.335c-.056.146-1.345 3.591.87 5.805 2.214 2.215 5.66.925 5.805.87a.532.532 0 0 0 .334-.552M22.267 29.922a.53.53 0 0 0-.446-.468c-.016 0-1.62-.268-3.446-2.095-1.828-1.828-2.096-3.432-2.098-3.445a.53.53 0 0 0-1.019-.115c-.056.145-1.344 3.591.871 5.805 2.213 2.214 5.658.925 5.804.87a.527.527 0 0 0 .334-.552" fill="#664500"/></g></svg>