<svg xmlns="http://www.w3.org/2000/svg" viewBox="0 0 36 36"><path fill="#77b255" d="M35.99 18c0 9.941-8.059 18-18 18-9.94 0-18-8.059-18-18 0-9.94 8.06-18 18-18s18 8.06 18 18"/><path fill="#292f33" d="m15.364 26.122-1.515-2.295c1.154-.762 2.606-1.182 4.089-1.182 1.49 0 2.895.402 4.062 1.162l-1.502 2.305c-1.425-.928-3.721-.924-5.134.01m12.664-13.086c-.244-.3-6.771-1.502-6.826-1.502-.118 0-.251.089-.275.205a4.07 4.07 0 0 0 .466 2.941c.521.876 1.337 1.47 2.296 1.673.232.049.471.074.707.074 1.746 0 3.296-1.336 3.686-3.177a.27.27 0 0 0-.054-.214m-13.272-1.502c-.056 0-6.583 1.202-6.827 1.502a.26.26 0 0 0-.052.213c.389 1.84 1.939 3.176 3.686 3.176q.356 0 .707-.074c1.972-.417 3.211-2.486 2.762-4.613-.024-.115-.157-.204-.276-.204"/><path fill="#3e721d" d="M11.647 29.647a1.059 1.059 0 0 1-.336-2.063c.095-.033 2.453-.877 2.453-3.231s-2.358-3.198-2.458-3.232a1.06 1.06 0 0 1-.659-1.342c.187-.552.78-.852 1.334-.665.159.053 3.9 1.344 3.9 5.239s-3.741 5.187-3.9 5.239q-.166.055-.334.055m12.705 0q-.167 0-.334-.055c-.159-.053-3.9-1.344-3.9-5.239s3.741-5.187 3.9-5.239a1.059 1.059 0 0 1 .675 2.007c-.1.034-2.458.878-2.458 3.232s2.358 3.198 2.458 3.232a1.058 1.058 0 0 1-.341 2.062"/></svg>