<svg xmlns="http://www.w3.org/2000/svg" viewBox="0 0 45 45"><defs><clipPath id="a"><path d="M0 36h36V0H0v36z"/></clipPath></defs><g clip-path="url(#a)" transform="matrix(1.25 0 0 -1.25 0 45)"><path d="M36 18c0-9.941-8.059-18-18-18C8.06 0 0 8.059 0 18c0 9.94 8.06 18 18 18 9.941 0 18-8.06 18-18" fill="#ffcc4d"/><path d="M30.6 18.8c-.114.085-1.931 1.426-4.646 2.344.027.115.046.233.046.356 0 .369-.138.703-.36.964 1.804.52 3.335.536 3.362.536A1 1 0 0 1 29 25c-.22 0-5.451-.037-8.707-3.293A1 1 0 1 1 21 20c4.59 0 8.364-2.772 8.402-2.801a1.001 1.001 0 0 1 1.399.203A1 1 0 0 1 30.6 18.8M15.707 21.707C12.452 24.962 7.221 25 7 25a1 1 0 0 1-.001-2c.026 0 1.558-.016 3.36-.536A1.492 1.492 0 0 1 10 21.5c0-.123.019-.241.047-.356-2.716-.918-4.533-2.259-4.647-2.344a1 1 0 0 1 1.2-1.6c.037.028 3.787 2.8 8.4 2.8a1.002 1.002 0 0 1 .707 1.707M16 7c2 5 13 5 13 3 0-1-8 1-13-3" fill="#664500"/><path d="M18.406 17.967c2.678-2.676-3.974-15.524-5.25-16.8-1.05-1.05-4.2-1.05-5.25 1.05-1.05 2.1-4.2 0-5.25 1.05-2.1 2.1 1.05 3.15 0 5.25s-3.15 3.15-1.05 5.25c2.1 2.1 7.35 1.05 10.5 3.15 3.15 2.1 5.249 2.1 6.3 1.05" fill="#ccd6dd"/><path d="M17.322 16.128c-.016.062-.053.113-.08.17-.03.066-.05.135-.093.194a1.046 1.046 0 0 1-.694.415h-.001a1.066 1.066 0 0 1-.406-.022c-.09-.023-.17-.072-.25-.117-.037-.021-.08-.03-.115-.056a1.053 1.053 0 0 1-.278-.305c-2.934-4.89-9.942-7.944-10.013-7.975a1.051 1.051 0 0 1 .828-1.93c.224.096 4.056 1.771 7.426 4.713-2.068-3.825-5.23-5.996-5.274-6.025a1.05 1.05 0 0 1 1.167-1.746c.273.182 6.702 4.549 7.806 12.273.02.139.01.278-.023.411" fill="#f5f8fa"/></g></svg>