<svg xmlns="http://www.w3.org/2000/svg" viewBox="0 0 45 45"><defs><clipPath id="a"><path d="M0 36h36V0H0v36z"/></clipPath></defs><g clip-path="url(#a)" transform="matrix(1.25 0 0 -1.25 0 45)"><path d="M27 9H10V0h21v5a4 4 0 0 1-4 4" fill="#4289c1"/><path d="M27 0h-1v4h1V0z" fill="#2a6797"/><path d="M9 30.063V19a9 9 0 0 1 9-9 9 9 0 0 1 9 9v10.75l-18 .312z" fill="#ffdc5d"/><path d="M14 20a1 1 0 0 0-1 1v1a1 1 0 0 0 2 0v-1a1 1 0 0 0-1-1M22 20a1 1 0 0 0-1 1v1a1 1 0 0 0 2 0v-1a1 1 0 0 0-1-1" fill="#662113"/><path d="M19 16.5h-2a.5.5 0 0 0 0 1h2a.5.5 0 0 0 0-1" fill="#c1694f"/><path d="M10.847 22.285c0-1.58-.8-2.861-1.788-2.861s-1.788 1.28-1.788 2.86c0 1.58.8 2.862 1.788 2.862.987 0 1.788-1.281 1.788-2.861M28.73 22.285c0-1.58-.8-2.861-1.789-2.861-.988 0-1.788 1.28-1.788 2.86 0 1.58.8 2.862 1.788 2.862s1.788-1.281 1.788-2.861" fill="#ffdc5d"/><path d="M18 35.177c-7.019 0-10.139-4.684-10.139-8.588 0-3.903 1.343-4.986 1.56-3.903.78 3.903 3.119 5.102 3.119 5.102 4.68-3.904 3.9-.78 3.9-.78 4.68-4.685 2.34 0 2.34 0 1.56-1.563 6.239-1.563 6.239-1.563s.78-1.198 1.56-2.759c.78-1.56 1.56 0 1.56 3.903 0 3.904-3.9 8.588-10.139 8.588" fill="#ffac33"/><path d="M15 12V8a3 3 0 1 1 6 0v4h-6z" fill="#ffdc5d"/><path d="M18.734 17.614l1.827-.69S14.032 3.176 13.148 1.9c-.884-1.277-1.87-2.055-4.57-1.76l10.156 17.473zM27 0h-1v4h1V0z" fill="#2a6797"/><path d="M14.984 7.61s-2.359-4.423-2.865-5.336C11.843 1.777 10.814.265 9.797.265c0 0 2.213-.12 3.121 1.682a142.593 142.593 0 0 0 2.425 4.646s-.125.33-.203.485c-.117.234-.156.531-.156.531" fill="#2a6797"/><path d="M18.734 17.614l-4.084-6.952c.116-.047.231-.097.35-.139V8c0-.594.178-1.144.476-1.61a965.008 965.008 0 0 1 5.085 10.533l-1.827.691z" fill="#ef9645"/><path d="M20.023 12.595h-5.27a.71.71 0 0 0-.707.708.71.71 0 0 0 .708.708h5.269a.71.71 0 0 0 .709-.707.711.711 0 0 0-.71-.71" fill="#c1694f"/><path d="M15.785 12.595h2.706l.68 1.416h-2.553l-.833-1.416z" fill="#894935"/><path d="M22 20a1 1 0 0 0-1 1v1a1 1 0 1 0 2 0v-1a1 1 0 0 0-1-1" fill="#662113"/><path d="M13.513 28.154c.945.29 1.598-.508 1.77-1.195l.284-1.14.756 2.155a2 2 0 0 0 2.549 1.225l3.774-1.324a2 2 0 0 0 1.226-2.55l-2.648-7.548s-.331-.944-1.275-.613l-5.662 1.987-.612 1.274.345.984-1.226 4.93c-.172.688.042 1.607.719 1.815" fill="#ef9645"/><path d="M22 23a1 1 0 0 1-1-1v-1a1 1 0 0 1 1-1l.003.001.866 2.466A.988.988 0 0 1 22 23" fill="#4f140b"/><path d="M12.513 28.343a1.284 1.284 0 0 0 1.555-.934l.284-1.14.755 2.155a2 2 0 0 0 2.55 1.225l3.774-1.324a2 2 0 0 0 1.225-2.549l-2.648-7.549s-.33-.944-1.274-.613L13.072 19.6l-.613 1.275.346.984-1.227 4.93a1.283 1.283 0 0 0 .935 1.554" fill="#ffdc5d"/><path d="M18.744 23.946l.944-.33 1.655 4.717-.944.331-1.655-4.718zM15.913 24.94l.944-.332 1.655 4.718-.944.331-1.655-4.718z" fill="#ef9645"/><path d="M14.278 6.15s-1.719-3.58-2.106-4.416C11.484.25 10 0 10 0 2 0 6.378 8.343 6.378 8.343l6.431 11.846 6.541-2.58-5.072-11.46z" fill="#4289c1"/></g></svg>