<svg xmlns="http://www.w3.org/2000/svg" viewBox="0 0 45 45"><defs><clipPath id="a"><path d="M0 36h36V0H0v36z"/></clipPath></defs><g clip-path="url(#a)" transform="matrix(1.25 0 0 -1.25 0 45)"><path d="M22.123 22.222h-4.444c-1.793 0-3.333-1.54-3.333-3.333V0H25v8.956l.457 1.752v8.181c0 1.792-1.541 3.333-3.334 3.333" fill="#9268ca"/><path d="M18 19.5a4.5 4.5 0 0 1 0-9v9z" fill="#7450a8"/><path d="M18 18.5a3.5 3.5 0 1 1 0-7v7z" fill="#9268ca"/><path d="M20 19.5a4.5 4.5 0 0 1 0-9v9z" fill="#7450a8"/><path d="M20 18.5a3.5 3.5 0 1 1 0-7v7z" fill="#9268ca"/><path d="M11.813 0h7.154v14.25a8.386 8.386 0 0 1-1.39.125A8.347 8.347 0 0 1 9.23 6.028c0-2.372.995-4.508 2.584-6.028" fill="#7450a8"/><path d="M18.79 17.83v-4.492a7.354 7.354 0 0 1-1.213.11 7.42 7.42 0 0 1-7.42-7.42A7.403 7.403 0 0 1 13.263 0h10.696v20.667L18.79 17.83z" fill="#9268ca"/><path d="M24.438 20l4.85-5.114L25 10.375V7.329l-3.942-2.674-2.64 4.139 5.645 5.81-1.939 1.923L24.438 20z" fill="#7450a8"/><path d="M24.438 21.25l5.464-5.694s1.896-1.529 0-3.333c-1.14-1.083-8.278-5.89-8.278-5.89l-2.22 2.222 6.053 5.889-3.334 3.334 2.314 3.472z" fill="#9268ca"/><path d="M20.331 8.468c-1.124.535-2.19.46-3.22-.142-.493-.29-.695-.83.06-1.007.758-.178 3.16 1.149 3.16 1.149" fill="#664131"/><path d="M21.845 6.55c.139-1.764-2.227-3.413-4.02-3.198-1.282.154-2.397 3.608-.877 4.053 1.357.396 1.73 1.627 3.34 1.167 1.279-.365 1.506-1.343 1.557-2.021" fill="#7c533e"/><path d="M20.66 5.868l-.213.441s-.77-1.147-1.843-1.589c-.813-.332-1.498-.366-1.857-.306.154-.293.157-.343.36-.53 1.116-.04 2.901.56 3.552 1.984M18.442 5.907c.99.678 1.279 1.326 1.279 1.326l-.323.41s-1.145-1.777-3.177-1.685c.015-.248-.006-.296.068-.55.273-.01 1.349-.05 2.153.5" fill="#583529"/><path d="M15.573 31.19a2.703 2.703 0 0 0-1.446-3.54 2.704 2.704 0 0 0-3.53 1.473 2.703 2.703 0 0 0 1.447 3.54 2.701 2.701 0 0 0 3.53-1.472" fill="#0b0200"/><path d="M20.983 24.201c1.203 1.435 1.921 3.27 1.304 4.751l-1.02 2.457c-5.514-2.076-7.782.773-7.782.773s1.08-2.598-1.239-3.922l1.233-2.967c1.01-2.424 2.382-4.16 4.803-3.165l.083-.327c.205-.816.055-1.478 1.258-1.524.841-.032 1.976 1.47 1.771 2.287l-.41 1.637z" fill="#7c533e"/><path d="M27.41 30.588c.824 2.202-1.159 3.876-2.847 4.048-1.024.104-1.947-.549-2.398-1.33-2.05 3.433-5.119 2.624-7.07 1.937-2.069-.727-5.145-2.868-3.938-5.17 1.207-2.3 5.238-1.312 5.238-1.312l1.46-2.352c-.394 2.024.95 2.476 1.571 2.035.654-.465.22-1.957.517-2.544.298-.588 1.33-1.394 1.33-1.394.634.805 2.635 3.578 1.7 6.935.387.145.968.047 1.438-.198 1.192-.618.253-3.702 1.911-4.677 1.59-.935 2.522.35 2.522.35-1.63-.055-2.22 1.567-1.434 3.672" fill="#0b0200"/><path d="M14.342 24.218l-.308-.128a.264.264 0 0 0-.347.143.266.266 0 0 0 .143.346l.309.128a.265.265 0 1 0 .203-.489" fill="#3d2e24"/><path d="M14.493 26.289a.53.53 0 0 0-.692.286l-.205.49a.53.53 0 0 0 .981.408l.203-.491a.53.53 0 0 0-.287-.693"/><path d="M14.761 23.017c.243-.295.51-.54.796-.733 1.056.608 1.13 1.533 1.13 1.533a2189.023 2189.023 0 0 1-1.926-.8" fill="#df1f32"/></g></svg>