<svg xmlns="http://www.w3.org/2000/svg" viewBox="0 0 36 36"><path fill="#292F33" d="M32 36v-4c0-3.314-2.685-6-6-6H10a6 6 0 0 0-6 6v4h28z"/><path fill="#DFE7EC" d="M20.805 36l2.862-10.017H12.333L15.195 36z"/><path fill="#292F33" d="M18.698 31.846a.7.7 0 1 1-1.398 0 .7.7 0 0 1 1.398 0zm0 2.858a.7.7 0 1 1-1.398 0 .7.7 0 0 1 1.398 0z"/><path fill="#66757F" d="M23.29 36l-.332-.543 3.542-.974-2.833-8.5L20.805 36zm-10.58 0l.332-.543-3.542-.974 2.833-8.5L15.195 36z"/><path fill="#F6DDCD" d="M14 26l4 1.75L22 26v-4h-8z"/><path fill="#ECC0AC" d="M14 24c1.216 1.374 2.355 1.719 3.996 1.719 1.639 0 2.787-.346 4.004-1.719v-4h-8v4z"/><path fill="#F6DDCD" d="M11.444 13.936c0 1.448-.734 2.622-1.639 2.622s-1.639-1.174-1.639-2.622.734-2.623 1.639-2.623 1.639 1.174 1.639 2.623m16.389 0c0 1.448-.733 2.622-1.639 2.622-.905 0-1.639-1.174-1.639-2.622s.733-2.623 1.639-2.623 1.639 1.174 1.639 2.623"/><path fill="#F6DDCD" d="M9.477 14.96c0-5.589 3.816-10.121 8.523-10.121s8.522 4.532 8.522 10.121S22.707 25.081 18 25.081c-4.707-.001-8.523-4.532-8.523-10.121"/><path fill="#C1694F" d="M18 21.802c-2.754 0-3.6-.705-3.741-.848a.655.655 0 0 1 .902-.95c.052.037.721.487 2.839.487 2.2 0 2.836-.485 2.842-.49a.638.638 0 0 1 .913.015.669.669 0 0 1-.014.938c-.141.143-.987.848-3.741.848"/><path fill="#292F33" d="M18 1.48c5.648 0 9.178 4.168 9.178 7.641s-.706 4.863-1.412 3.473l-1.412-2.778s-4.235 0-5.647-1.39c0 0 2.118 4.168-2.118 0 0 0 .706 2.779-3.53-.694 0 0-2.118 1.389-2.824 4.862-.196.964-1.412 0-1.412-3.473C8.822 5.648 11.646 1.48 18 1.48"/><path fill="#662213" d="M14 15c-.55 0-1-.45-1-1v-1c0-.55.45-1 1-1s1 .45 1 1v1c0 .55-.45 1-1 1m8 0c-.55 0-1-.45-1-1v-1c0-.55.45-1 1-1s1 .45 1 1v1c0 .55-.45 1-1 1"/><path fill="#C1694F" d="M18.75 17.75h-1.5c-.413 0-.75-.337-.75-.75s.337-.75.75-.75h1.5c.413 0 .75.337.75.75s-.337.75-.75.75"/><path fill="#F4F7F9" d="M13.927 24.744L18 27.637l-2.656 2.818-3.011-4.472zm8.146 0L18 27.637l2.656 2.818 3.011-4.472z"/><g fill="#292F33"><path d="M17.999 28.463l2.927 1.609v-3.218z"/><path d="M20.926 30.306a.234.234 0 0 1-.112-.029l-2.927-1.609a.232.232 0 0 1 0-.408l2.927-1.608a.23.23 0 0 1 .231.003c.07.042.114.119.114.201v3.218a.236.236 0 0 1-.114.201.251.251 0 0 1-.119.031zm-2.443-1.843l2.209 1.215v-2.429l-2.209 1.214z"/><path d="M17.999 28.463l-2.926 1.609v-3.218z"/><path d="M15.072 30.306a.235.235 0 0 1-.234-.233v-3.218a.232.232 0 0 1 .346-.204l2.927 1.608a.232.232 0 0 1 0 .408l-2.927 1.609a.224.224 0 0 1-.112.03zm.234-3.057v2.429l2.209-1.215-2.209-1.214z"/></g></svg>