<svg xmlns="http://www.w3.org/2000/svg" viewBox="0 0 45 45"><defs><clipPath id="a"><path d="M0 36h36V0H0v36z"/></clipPath></defs><g clip-path="url(#a)" transform="matrix(1.25 0 0 -1.25 0 45)"><path d="M24.219 28.5a2.66 2.66 0 0 1-2.563-1.687c-.125-.344-1.343-2.407-1.437-2.875-.094-.469-.562-.25-.97-.188-.405.063-2.374.156-3.093.188 0 0-.485.743-1.156.687-.75-.063-1.281-.281-1.406-1.031-.125-.75 1.03-1.563 1.562-1.563s1 .282 1.188.282c.188 0 3.094-.657 3.625-.719.53-.063 1.469-.031 1.719.375s2.094 2.906 2.344 3.406c.249.5.187 3.125.187 3.125M22.688 19.906s-3.503-7.748-3.792-8.184c-.29-.435-.335-1.232-.209-1.91.126-.677 2.003-6.485 1.847-7.673-.075-.576 2.589-1.38 2.089-.039-.47 1.258-.35 3.71-.497 5.681-.105 1.396-.5 2.812-.5 2.812l3.562 5.563s1.917-4.909 2-5.78c.03-.324-.208-1.215-.188-2.345.035-1.922.31-4.416.25-5.125-.09-1.075 1.597-1.829 1.712-.07.125 1.91 1.353 5.642.976 8.132-.637 4.206-1.5 8.47-1.5 8.47l-5.75.468z" fill="#ccd6dd"/><path d="M31.107.975h-4.08c-.581 0-.166 1.287-.124 1.827.04.54.29.25.498.083.208-.166.716.042 1.173.291.457.25 1.074.466 1.27.168.719-1.094 1.35-.9 1.875-1.313.437-.344.656-1.056-.612-1.056M18.688.975h3.848c.581 0 .165 1.287.124 1.827-.042.54-.29.25-.499.083-.207-.166-1.557-.374-1.693.271-.107.51-.958.266-1.156-.03-.625-.937-2.218-.566-2.625-1.095-.358-.465-.425-1.056 2-1.056M25.25 28.531H28c.969 0 1.5-.719 1.625-1.25.125-.53.156-1.844-.313-2.625-.468-.78-1.356-2.469-1.356-3.344s.95-2.937 1.075-3.5c.125-.562-.985-.458-1.781-1-.781-.53-1.594-1.437-1.656-1.719-.063-.28-1.031-.656-1.219-.062-.187.594-.833 1.35-1.688 2.062-.562.47-1.031.625-1 .938.032.312.65 1.887.703 2.43.25 2.532-1.248 2.597-.828 4.32.248 1.015 1.125 3.156 1.876 3.531.75.375 1 .22 1.812.22" fill="#99aab5"/><path d="M28.875 28.281c.906.062 1.187-.406 1.594-.594.406-.187 1.5-.593 1.75-.687.25-.094.687-.625.687.22 0 .437.219 1.53.313 2.03.133.71.25 1.375.25 1.375s-.719 1.031-.688 1.344c.032.312.375 1.124.781 1.312.407.187 1.563-.469 1.938-.719s.219-.875-.063-1.28c-.281-.407-.561-1.116-.561-1.775 0-.844.019-3.265-.2-4.92-.074-.562-.844-.563-1.406-.5-.563.062-3.051.475-4.582.82-1.532.343-.719 3.312.187 3.374M24.85 34.642c1.404.3 2.624-.453 3.105-1.26.827-1.382-.331-3.457.139-4.32.435-.8.125-.986-.5-1.406-.613-.411-1.264-.931-2.532-.906-1.465.03-1.676.86-1.5 1.563.086.342.087.676.028.999 0 0-.585.467-.615 2.02-.022 1.201-.322 2.841 1.875 3.31" fill="#ccd6dd"/><path d="M27.75 31.792c-.18-1.623-1.39-3.51-2.719-3.51-1.328 0-2.198 1.31-2.348 2.904-.15 1.587 1.466 3.592 2.848 3.502 1.325-.086 2.395-1.312 2.22-2.896" fill="#f5f8fa"/><path d="M27.34 31.85c-.18-1.623-1.168-3.256-2.496-3.256s-2.366 1.332-2.22 3.236c.138 1.796 1.212 2.98 2.595 2.89 1.325-.088 2.297-1.286 2.121-2.87" fill="#292f33"/><path d="M14.09 24.258l-.665.14C6.13 25.92.168 26.928.11 26.648c-.058-.278 5.81-1.738 13.104-3.26l.665-.137.21 1.007z" fill="#66757f"/><path d="M15.208 23.499c-.183-.878-.784-1.497-1.341-1.38-.558.116-1.106.974-.923 1.852.184.879 1.029 1.446 1.586 1.329.558-.116.86-.922.678-1.801" fill="#66757f"/></g></svg>