<svg xmlns="http://www.w3.org/2000/svg" viewBox="0 0 36 36"><path fill="#F3D2A2" d="M23.535 29.045c-.945-1.361-.746-3.135.443-3.963 1.189-.826 2.922-.395 3.867.967.946 1.359.747 3.134-.443 3.961-1.189.827-2.922.395-3.867-.965z"/><path fill="#4289C1" d="M33.129 2.987a.998.998 0 0 0-1.003-.995l-3.002.014a.999.999 0 1 0 .012 1.998l2.999-.012a.997.997 0 0 0 .994-1.005zM4.977 8.375a1.033 1.033 0 0 0-.11-.655 1.004 1.004 0 0 0-1.36-.392L1.02 8.697a.999.999 0 1 0 .964 1.75L4.472 9.08c.277-.154.452-.415.505-.705z"/><path fill="#F3D2A2" d="M24.254 23.543l1.871 3.49c.264.486.082 1.127-.4 1.384a.993.993 0 0 1-1.354-.389l-1.75-3.22-2.281 1.586-.435-2.134c-.142-.22-.265-.531-.364-.964-.605-2.623-2.103-8.281-2.103-8.281 1.815-1.262 4.851 2.379 6.27 4.421.344.495.676.448.789.791 1.049-.544.782 1.323 1.153.909-.001.001.491 1.327-1.396 2.407z"/><path fill="#F3D2A2" d="M9.982 12.741c-.145.59.162 1.212.742 1.446l8.148 3.285a1.245 1.245 0 0 0 1.618-.688 1.247 1.247 0 0 0-.688-1.617l-8.148-3.284a1.242 1.242 0 0 0-1.672.858z"/><path fill="#F3D2A2" d="M3.749 8.474c-.221.506-.073 1.097.368 1.376l6.183 3.931c.483.305 1.136.124 1.455-.41.316-.536.19-1.213-.294-1.521L5.277 7.922c-.483-.308-1.134-.125-1.455.408a.974.974 0 0 0-.073.144zm25.355-5.947c-.478-.18-1.019-.023-1.257.39l-3.318 5.801c-.263.453-.058 1.042.449 1.313.514.27 1.135.125 1.394-.329l3.323-5.801c.259-.451.055-1.042-.455-1.312a1.099 1.099 0 0 0-.136-.062z"/><path fill="#F3D2A2" d="M26.091 8.32a1.153 1.153 0 0 0-1.51.001l-6.164 5.347a1.156 1.156 0 0 0-.118 1.629 1.158 1.158 0 0 0 1.628.114l6.165-5.347a1.152 1.152 0 0 0-.001-1.744zm3.768 12.111l-4.341.033a.94.94 0 0 0-.931.943.94.94 0 0 0 .945.93l4.342-.031a.941.941 0 0 0 .931-.944.943.943 0 0 0-.946-.931z"/><path fill="#F3D2A2" d="M35.382 22.302l-5.077-1.722a.94.94 0 0 0-1.188.587.94.94 0 0 0 .587 1.188l5.076 1.722a.941.941 0 0 0 1.188-.586.939.939 0 0 0-.586-1.189z"/><path fill="#FFE51E" d="M29.062 29.647c-.25 1.188-1.471 2.025-2.812 2.189-1.516.185-2.541-.699-3.126-1.935-.538-1.137-.437-2.316-.312-2.629s.926.075.797.712c-.151.747.229 1.413.678 1.291.317-.086.576-.391.383-.631-.232-.289-.149-.476-.149-.476s.182-.276.729.391c.287.35 1.565-.768 2.893.09 0 0 .283-.416.272-1.092-.004-.199-.078-.448-.171-.687-.168-.428 1.342.29.818 2.777z"/><path fill="#2A6797" d="M16.551 18.119s-1.816-1.205-2.518-1.744c-.699-.539-1.703-1.006-1.703-1.006s.549-2.18 1.638-2.891l3.439.682 3.711-2.142s1.646.918 2.334 2.065c0 0-1.634 1.235-2.308 1.627.318.502-.363 1.586-.363 1.586l-4.23 1.823z"/><path fill="#F3D2A2" d="M17.595 28.238l1.825-3.94a.938.938 0 0 1 1.242-.458.942.942 0 0 1 .457 1.245l-1.822 3.941a.94.94 0 0 1-1.245.457.942.942 0 0 1-.457-1.245z"/><path fill="#F3D2A2" d="M17.019 34.041l.529-5.335a.937.937 0 0 1 1.863.186l-.53 5.333a.94.94 0 0 1-1.023.841.938.938 0 0 1-.839-1.025z"/><path fill="#4289C1" d="M21.428 25.835s.568-.446.979-.776c0 0-.409-.721.615-1.479 1.025-.758 1.688-.396 1.688-.396s.231.09 1.038-.153c.383-.115 1.147-.307 1.147-.307s-.041-1.617-.267-2.601l-1.951-.077s-.77-.921-1.801-2.296-1.662-2.676-1.73-3.039c0 0-.959.754-2.635 1.664-1.025.559-3.113.997-3.113.997.481.655 1.985 2.412 2.572 3.315.812 1.25 1.855 3.152 1.418 3.639-.438.487-1.062 1.535-1.062 1.535s.615.449 1.032.802c.584.493 1.072.613 1.072.613s.645-1.102.998-1.441z"/></svg>