<svg xmlns="http://www.w3.org/2000/svg" viewBox="0 0 45 45"><defs><clipPath id="a"><path d="M0 36h36V0H0v36z"/></clipPath></defs><g clip-path="url(#a)" transform="matrix(1.25 0 0 -1.25 0 45)"><path d="M28.384 29.247s-2.42.003-2.697-2l-1.3-9.658c-.371-2.182 2.133-2.637 3.64-2.668 1.507-.032 2.762 1.112 2.8 2.555l.105 3.046.153 4.488.046 1.449c0 1.209-.521 2.5-2.747 2.788" fill="#ffdc5d"/><path d="M30.146 25.561l-.16.007a.867.867 0 0 1-.897-.827l-.073-2.507 1.765-.328.132 3.104a.864.864 0 0 1-.767.551" fill="#ef9645"/><path d="M29.25 14.094h-3.594l-.5 1.656h4.594l-.5-1.656zM20.424 28.494s.144.764 1.347.68l-.332-1.05-1.015.37z" fill="#ffdc5d"/><path d="M29 33.635c0 .754-.611 1.365-1.365 1.365h-4.27A1.365 1.365 0 0 1 22 33.635v-15.27C22 17.61 24.611 17 25.365 17h2.27c.754 0 1.365.61 1.365 1.365v15.27z" fill="#6d6e71"/><path d="M28 33.635c0 .754-.611 1.365-1.365 1.365h-4.27A1.365 1.365 0 0 1 21 33.635v-15.27c0-.754.611-1.365 1.365-1.365h4.27c.754 0 1.365.61 1.365 1.365v15.27z" fill="#231f20"/><path d="M22 20h5v13h-5V20z" fill="#88c9f9"/><path d="M20.546 21.863l.131-.745.536.045.6.043c.49.034.883.37 1.021.812l-2.288-.155zM20.546 24.255l.02-.73.651.007a1.33 1.33 0 0 1 1.172.782l-1.843-.059zM20.536 26.905l.011-.717.223-.031c.524-.037.995.238 1.242.664l-1.476.084zM30.404 24.142l-.144-.067a.866.866 0 0 0-1.148.415l-.763 1.632a.865.865 0 0 0 .416 1.147l.144.068a.865.865 0 0 0 1.147-.416l.764-1.632a.865.865 0 0 0-.416-1.147" fill="#ef9645"/><path d="M29.326 19.832l-.159.007a.865.865 0 0 0-.827.898l.162 3.936c.02.474.424.846.898.827l.16-.008a.866.866 0 0 0 .826-.898l-.162-3.935a.866.866 0 0 0-.898-.826" fill="#ffdc5d"/><path d="M29.885 24.085l-.144-.067a.866.866 0 0 0-1.148.415l-.763 1.632a.865.865 0 0 0 .416 1.147l.144.068a.865.865 0 0 0 1.147-.416l.764-1.632a.865.865 0 0 0-.416-1.147M30.818 22.22c-.785.332-1.64.124-1.974-.114-2.887-2.043-2.463-5.208-.448-5.645 1.63-.353 2.182.79 2.182.79l.182 3.27.058 1.7zM20.718 24.098l-.06-.002a.33.33 0 0 0-.338.32l-.04 1.476a.329.329 0 0 0 .318.337l.06.002a.329.329 0 0 0 .337-.319l.042-1.477a.33.33 0 0 0-.319-.337M20.695 21.63l1.486.106s.378.029.653.283c.173.159.305.405.278.79-.071 1.002-1.073.93-1.073.93l-.404-.027-.598-.042-.484-.035.142-2.004z" fill="#ffdc5d"/><path d="M20.713 21.632l-.037-.003a.321.321 0 0 0-.34.296l-.098 1.368a.321.321 0 0 0 .296.341l.037.002a.32.32 0 0 0 .341-.295l.097-1.368a.32.32 0 0 0-.296-.341M20.846 21.21l.187-1.693.572.05s.291.036.513.235c.156.14.278.355.24.704-.094.846-.94.753-.94.753l-.572-.049z" fill="#ffdc5d"/><path d="M21.05 19.52l-.032-.004a.271.271 0 0 0-.306.23l-.162 1.15a.271.271 0 0 0 .23.305l.031.005a.273.273 0 0 0 .306-.23l.162-1.15a.271.271 0 0 0-.23-.307M21.339 26.652s.358-.018.673.169c.228.135.434.375.465.82.074 1.065-.99 1.139-.99 1.139l-.532.037-.148.01-.148-2.128.68-.047z" fill="#ffdc5d"/><path d="M20.689 26.697l-.06.004a.33.33 0 0 0-.305.35l.102 1.474a.33.33 0 0 0 .35.304l.06-.004a.328.328 0 0 0 .305-.35l-.102-1.473a.329.329 0 0 0-.35-.305M21.735 24.127s.358.017.653.234c.214.157.396.415.383.862-.03 1.066-1.096 1.037-1.096 1.037l-.533-.015-.514-.015.06-2.132 1.047.029z" fill="#ffdc5d"/><path d="M29.25 15h-3.792c-.411 0-.583-.203-1.198-1.211L19.878 7.09 6.5 10.129V0h16.365c1.333 0 2.533.307 3.035 1.542l4.633 11.626C30.958 14.5 30.197 15 29.25 15" fill="#5c913b"/></g></svg>