<svg xmlns="http://www.w3.org/2000/svg" viewBox="0 0 45 45"><defs><clipPath id="a"><path d="M0 36h36V0H0v36z"/></clipPath></defs><g clip-path="url(#a)" transform="matrix(1.25 0 0 -1.25 0 45)"><path d="M10 11c0 2.209-.896 4-2 4s-2 2-2-3c0-2.209 1-5 3-5 1.105 0 1 0 1 4M26.003 11c0 2.209.896 4 2 4 1.105 0 2 2 2-3 0-2.209-1-5-3-5-1.104 0-1 0-1 4" fill="#d1d3d4"/><path d="M6 17.438c0 8.526 5.373 15.438 12 15.438s12-6.912 12-15.438C30 8 23 2 18 2S6 8 6 17.438" fill="#d5ab88"/><path d="M5 22c0 2.209.896 4 2 4s2-1.791 2-4-.896-4-2-4-2-4-2 4" fill="#d1d3d4"/><path d="M8 15c0-2.209-1.119-4-2.5-4S3 12.791 3 15c0 2.21 1.119 4.001 2.5 4.001S8 17.21 8 15" fill="#d5ab88"/><path d="M27 22c0 2.209.896 4 2 4 1.105 0 2-1.791 2-4 0-4-.895-4-2-4-1.104 0-2 1.791-2 4" fill="#d1d3d4"/><path d="M33 15c0-2.209-1.119-4-2.5-4S28 12.791 28 15c0 2.21 1.119 4.001 2.5 4.001S33 17.21 33 15" fill="#d5ab88"/><path d="M30.96 26c.017.185.04.368.04.556C31 31.771 25.175 36 17.989 36c-7.186 0-13.011-4.229-13.011-9.444 0-.188.024-.371.038-.556H30.96zM18 5.349c-2.42 0-4.274.687-4.352.715a1 1 0 0 0 .702 1.873c.016-.006 1.61-.588 3.65-.588 2.041 0 3.635.582 3.65.588a1 1 0 0 0 .702-1.873c-.078-.028-1.931-.715-4.352-.715" fill="#dd2e44"/><path d="M19 10h-2a1 1 0 1 0 0 2h2a1 1 0 1 0 0-2" fill="#c1694f"/><path d="M12 13a1 1 0 0 0-1 1v2a1 1 0 1 0 2 0v-2a1 1 0 0 0-1-1M24 13a1 1 0 0 0-1 1v2a1 1 0 1 0 2 0v-2a1 1 0 0 0-1-1" fill="#662113"/><path d="M22 25c0-2.21-1.79-4-4-4s-4 1.79-4 4a4 4 0 1 0 8 0" fill="#f1f2f2"/><path d="M15 24.5c0-1.934-1.566-3.5-3.5-3.5A3.499 3.499 0 0 0 8 24.5c0 1.934 1.566 3.5 3.5 3.5s3.5-1.566 3.5-3.5" fill="#f1f2f2"/><path d="M9 24a3 3 0 1 0-6 0 3 3 0 0 0 6 0M28 24.5c0-1.934-1.566-3.5-3.5-3.5a3.499 3.499 0 0 0-3.5 3.5c0 1.934 1.566 3.5 3.5 3.5s3.5-1.566 3.5-3.5" fill="#f1f2f2"/><path d="M33 24a3 3 0 1 0-6 0 3 3 0 0 0 6 0" fill="#f1f2f2"/><path d="M27 12c0-1.104-1.567-2-3.5-2s-3.5.896-3.5 2c0 1.105 1.567 2 3.5 2s3.5-.895 3.5-2M16 12c0-1.104-1.567-2-3.5-2S9 10.896 9 12c0 1.105 1.567 2 3.5 2s3.5-.895 3.5-2" fill="#d1d3d4"/><path d="M33 24c0 1.657-30 1.657-30 0a3 3 0 0 1 3-3h24a3 3 0 0 1 3 3" fill="#f1f2f2"/></g></svg>