<svg xmlns="http://www.w3.org/2000/svg" viewBox="0 0 45 45"><defs><clipPath id="a"><path d="M0 36h36V0H0v36z"/></clipPath><clipPath id="b"><path d="M28.665 33.027a2.75 2.75 0 1 1 5.5 0 2.75 2.75 0 0 1-5.5 0"/></clipPath></defs><g clip-path="url(#a)" transform="matrix(1.25 0 0 -1.25 0 45)"><path d="M34.081 34.579c-1.522 1.084-3.53-2.522-3.987-3.016l1.763-1.47-.59-5.578s-1.489.555-2.559.689c-.918.114-2.56-.187-2.56-.187s-2.072.714-2.42.69c-1.15-.076-2.227-.688-2.227-.688l-.453 1.713c.97.747 1.608 1.97 1.608 3.362 0 2.278-1.699 4.125-3.792 4.125-2.094 0-3.787-1.856-3.583-4.125.167-1.861 1.017-3.351 2.405-3.893l-.167-1.441c-.486.043-2.154.302-3.21-.01-2.334-.688-5.404-2.71-6.08-2.81-.473-.07-2.608-.674-4.14-.9-.277-.041-.89.966-1.415 1.033-.15.02-.686-.691-.836-.672-.559.069-1.078.115-1.306.022-.926-.381-.4-3.381.726-3.214 0 0 2.036.483 2.793.574 1.67.2 4.343.273 5.318.536 1.415.382 4.34 1.45 4.34 1.45-.139-.467-.395-2.713-.28-3.516.268-1.876.962-5.411 1.262-7.116.447-2.541 6.526-.148 8.302-.148 0 0-.805 3.362.344 6.154.538 1.309 1.18 4.824 1.191 5.175 0 0 7.852-.208 8.847.557 1.012.778.65 8.46.565 8.233.313.299 1.435 3.549.141 4.47" fill="#ffdc5d"/><path d="M17.79 33.144c1.876.187 3.307-.636 3.626-2.512.499-2.935-.802-4.155-1.971-4.592-1.06-.396-2.553.555-2.488.548 0 0 .992-1.387 2.74-.85 1.387.426 1.86 1.792 2.218 1.96.464.216.87.457 1.032.727.313.532.406 1.281.25 1.97-.062.273-.323.537-.331.807-.061 2.084-1.662 3.567-4.024 3.38-1.662-.132-2.676-1.064-3.211-2.399.179.101.838.83 2.16.961" fill="#4289c1"/><path d="M0 0v12h8.686c2.715 0 4.022 1.106 5.473 1.235C15.61 13.364 16.958 12 17.737 12c.78 0 1.091.509 1.661.509.294 0 .917-.509 1.592-.509s2.385 1.235 3.074 1.235c1.396 0 3.576-1.235 5.011-1.235H36V0H0z" fill="#55acee"/><path d="M34.165 33.028a2.75 2.75 0 1 0-5.5-.001 2.75 2.75 0 0 0 5.5 0" fill="#ffd03f"/></g><g clip-path="url(#b)" transform="matrix(1.25 0 0 -1.25 0 45)"><path d="M34.075 34.541c-.013.003-.896.213-1.651-.253h-.004l-.008-.007c-.328-.206-.631-.54-.827-1.078a5.125 5.125 0 0 0-.991.11c.81 2.333 2.812 1.771 2.898 1.745a.153.153 0 0 1 .088.293c-.025.007-2.38.68-3.282-1.959a2.197 2.197 0 0 0-.692.354.118.118 0 0 1 .019.037c.587 1.78 2.305 1.96 2.378 1.966a.155.155 0 0 1 .138.166.155.155 0 0 1-.166.14c-.02-.003-1.923-.198-2.605-2.08-.28.347-.275.682-.275.7a.153.153 0 0 1-.146.157.154.154 0 0 1-.16-.146c0-.022-.017-.537.439-1.013.484-.505 1.298-.765 2.415-.777.098-.34.148-.655.163-.94-2.881-.103-3.471 1.875-3.495 1.962a.152.152 0 0 1-.188.106.153.153 0 0 1-.107-.187c.007-.023.636-2.19 3.583-2.19.068 0 .139.001.209.004a3.122 3.122 0 0 0-.124-.779c-2.71.073-3.242 1.656-3.264 1.725a.154.154 0 0 1-.191.104.148.148 0 0 1-.101-.186c.023-.076.593-1.869 3.453-1.929-.201-.484-.466-.739-.49-.76a.153.153 0 0 1 .209-.224c.053.05 1.288 1.221.619 3.444l-.03.094c.139.361.333.613.548.786 1.045-2.125-.356-4.083-.371-4.103a.152.152 0 0 1 .033-.213.152.152 0 0 1 .213.033c.016.021 1.54 2.145.383 4.451.214.111.435.164.633.185 0-.002 0-.005.002-.007 1.162-1.81-.637-4.425-.655-4.45a.153.153 0 0 1 .125-.242c.048 0 .096.023.125.065.02.03.489.704.81 1.63.408 1.17.387 2.206-.06 3.013.184-.01.308-.039.326-.044a.153.153 0 1 1 .074.297" fill="#ffad1f"/></g></svg>