<svg xmlns="http://www.w3.org/2000/svg" viewBox="0 0 45 45"><defs><clipPath id="a"><path d="M0 36h36V0H0v36z"/></clipPath></defs><g clip-path="url(#a)" transform="matrix(1.25 0 0 -1.25 0 45)"><path d="M21.25 31c0 1.657-1.175 3-2.625 3C17.176 34 16 32.657 16 31s.984-3 2.719-3c.661 0 1.736.132 2.198.594.55.55.333 1.505.333 2.406" fill="#d5ab88"/><path d="M17.967 2.645a1 1 0 0 0-1 1v3a1 1 0 1 0 2 0v-3a1 1 0 0 0-1-1M8.536 1.569A1 1 0 0 0 7.139 2.71l.67 2.76a.999.999 0 1 0 1.943-.472l-.67-2.76a.996.996 0 0 0-.546-.67" fill="#4289c1"/><path d="M19.73 26.893l-.457 3.933c-.06.55-.574.973-1.117.91a.993.993 0 0 1-.89-1.093l.4-3.643h-4.583l-5.855 2.893a1 1 0 0 1-.329-1.972l5.389-2.788c.055-.009.657-.133.712-.133h2.749c.009-.262.086-.588.25-1 1-2.5 3-8 3-8 2.21 0 2.626 4.723 2.626 7.208 0 .604.299.754.197 1.101 1.17.151 1.334-.36 1.874-.488 0 0-1.8 3.261-3.966 3.072" fill="#d5ab88"/><path d="M14.177 9.878a1.241 1.241 0 0 0-.216 1.612l4.816 7.347a1.243 1.243 0 1 0 2.078-1.361l-4.816-7.348a1.244 1.244 0 0 0-1.862-.25" fill="#d5ab88"/><path d="M8.628 4.92c-.308.458-.268 1.066.116 1.42l5.382 4.971c.421.39 1.095.325 1.505-.142.408-.47.404-1.16-.017-1.548l-5.383-4.97c-.42-.39-1.094-.326-1.505.141a1.316 1.316 0 0 0-.098.128M17.489 6.67c-.184.479-.03 1.019.384 1.257l5.786 3.348c.453.262 1.042.06 1.316-.447.27-.511.13-1.133-.322-1.394l-5.786-3.348c-.452-.261-1.041-.061-1.316.447a1.2 1.2 0 0 0-.062.137" fill="#d5ab88"/><path d="M24.304 9.363a1.154 1.154 0 0 0-1.403.561l-3.745 7.25a1.155 1.155 0 0 0 2.05 1.06l3.745-7.25a1.154 1.154 0 0 0-.647-1.62M24.304 22.974l-3.85 2.008a.94.94 0 0 0-.397 1.264.94.94 0 0 0 1.264.398l3.85-2.008a.941.941 0 0 0 .397-1.265.94.94 0 0 0-1.264-.397" fill="#d5ab88"/><path d="M30.07 22.12l-5.302.783a.939.939 0 0 0-.79 1.064.94.94 0 0 0 1.063.79l5.303-.783a.94.94 0 0 0 .79-1.064.94.94 0 0 0-1.064-.79" fill="#d5ab88"/><path d="M16.5 18.043s-.803-2.027-1.07-2.869c-.269-.842-.826-1.799-.826-1.799s1.694-1.477 2.995-1.439l1.885 2.74 1.674-2.359s1.708 1.23 2.883 1.433c0 0-1.497 3.069-1.84 3.719-.345.651-1.187 1.492-1.187 1.492l-4.514-.918z" fill="#2a6797"/><path d="M15.549 27.195s1.274-.075 1.799-.112c0 0 .075-.825 1.349-.863 1.275-.037 1.612.638 1.612.638s.975-.075 1.687-.525c.712-.45 1.799-.975 1.799-.975s-1.012-.862-.637-1.8l-1.012.484s.136-.417.198-1.198c.094-1.174-.202-4.902-.052-5.24 0 0-1.292.334-3.188.125-1.16-.127-3.322-.958-3.322-.958.302 1.26.483 3.152.53 4.229.095 2.115-.388 3.609-1.025 3.759-.638.15-1.125.187-1.125.187s.15.675 0 1.2c-.15.524-.225.899-.225.899s1.162.075 1.612.15" fill="#4289c1"/><path d="M7 28a2 2 0 1 1-3.999.001A2 2 0 0 1 7 28" fill="#269"/><path d="M20.292 34.813c-.7.486-2.461.66-3.656.028-1.35-.712-1.687-2.023-1.462-3.373.207-1.24.803-1.754.803-1.754.229-.246.837.403.488.95-.41.643-.293 1.402.169 1.449.327.034.678-.158.584-.451-.113-.353.032-.498.032-.498s.269-.192.54.627c.142.429 1.157.362 2.648 1.038.176.078.625-.423.752-1.54.027-.242.477.502.539 1.044.104.898-.542 1.855-1.437 2.48" fill="#963b22"/></g></svg>