<svg xmlns="http://www.w3.org/2000/svg" viewBox="0 0 45 45"><defs><clipPath id="a"><path d="M0 36h36V0H0v36z"/></clipPath></defs><g clip-path="url(#a)" transform="matrix(1.25 0 0 -1.25 0 45)"><path d="M23.535 6.955c-.945 1.361-.746 3.135.443 3.963 1.19.826 2.922.394 3.868-.967.946-1.359.747-3.134-.444-3.96-1.189-.828-2.922-.396-3.867.964" fill="#d5ab88"/><path d="M33.129 33.013c0 .55-.451.998-1.003.995l-3.002-.015a.998.998 0 0 1-.993-1.003 1 1 0 0 1 1.005-.995l2.999.012a1 1 0 0 1 .994 1.006M4.977 27.625a1.03 1.03 0 0 1-.11.654 1.003 1.003 0 0 1-1.36.393l-2.487-1.37a1 1 0 1 1 .965-1.75l2.487 1.368c.276.153.452.414.505.705" fill="#dd2e44"/><path d="M24.254 12.457l1.87-3.49c.265-.487.083-1.127-.4-1.384a.993.993 0 0 0-1.353.389l-1.75 3.219-2.281-1.586-.436 2.134c-.141.22-.264.532-.364.964-.605 2.623-2.102 8.281-2.102 8.281 1.814 1.262 4.85-2.379 6.269-4.42.344-.496.676-.449.789-.791 1.049.543.782-1.324 1.153-.91 0 0 .492-1.326-1.395-2.406" fill="#d5ab88"/><path d="M9.982 23.259a1.242 1.242 0 0 1 .742-1.446l8.15-3.286a1.246 1.246 0 0 1 1.617.688c.251.64-.052 1.36-.689 1.617l-8.148 3.284a1.241 1.241 0 0 1-1.672-.857" fill="#d5ab88"/><path d="M3.748 27.526c-.22-.506-.072-1.097.368-1.376l6.184-3.931c.482-.305 1.135-.124 1.454.41.317.535.19 1.212-.293 1.52l-6.185 3.929c-.482.308-1.133.125-1.455-.408a1.082 1.082 0 0 1-.073-.144M29.104 33.473c-.477.18-1.018.023-1.257-.39l-3.319-5.8c-.263-.455-.058-1.043.45-1.315.513-.27 1.134-.125 1.393.33l3.323 5.8c.26.451.055 1.042-.455 1.312-.044.026-.089.044-.136.063" fill="#d5ab88"/><path d="M26.09 27.68c-.426.37-1.07.38-1.51-.001l-6.163-5.347a1.156 1.156 0 0 1-.118-1.63 1.157 1.157 0 0 1 1.628-.113l6.165 5.347a1.152 1.152 0 0 1-.001 1.744M29.86 15.57l-4.342-.034a.94.94 0 0 1-.93-.944.939.939 0 0 1 .945-.929l4.342.031a.94.94 0 0 1 .93.944.943.943 0 0 1-.946.931" fill="#d5ab88"/><path d="M35.382 13.698l-5.077 1.722a.94.94 0 0 1-1.188-.587.939.939 0 0 1 .587-1.188l5.076-1.72a.941.941 0 0 1 1.189.585.94.94 0 0 1-.587 1.188" fill="#d5ab88"/><path d="M29.001 9.13c-.536.427-1.155.82-1.155.82s.556-.95.568-1.506c.012-.676-.271-1.092-.271-1.092-1.328.857-2.454-.017-2.893.09-.438.105-1.01 1.019-1.01 1.019s.32-.815.43-1.105c.109-.288.038-.702-.383-.63-.4.067-.84 1.06-.576 1.29.142.125-.805.762-.805.762s-.32-1.542.218-2.678c.038-.082.084-.157.126-.235a1.998 1.998 0 0 1-.779.064c-.693-.081-1.907-.59-2.52-1.538-.473-.731-.564-1.852-.564-1.852.226.586.846 1.003 1.584 1.086.977.11 1.984-.781 2.909-.017.408.337.565.648.604.91.491-.292 1.075-.438 1.766-.354 1.342.164 2.689 1.312 2.986 2.11.379 1.025.377 2.37-.235 2.857" fill="#963b22"/><path d="M16.55 17.88s-1.815 1.206-2.517 1.745c-.7.539-1.703 1.006-1.703 1.006s.549 2.18 1.638 2.89l3.439-.681 3.71 2.14s1.647-.916 2.335-2.064c0 0-1.633-1.235-2.307-1.627.318-.502-.364-1.586-.364-1.586l-4.23-1.822z" fill="#a0041e"/><path d="M17.595 7.762L19.42 11.7a.938.938 0 0 0 1.242.458.941.941 0 0 0 .457-1.245l-1.822-3.941a.94.94 0 0 0-1.245-.457.944.944 0 0 0-.457 1.246" fill="#d5ab88"/><path d="M17.019 1.959l.529 5.335a.938.938 0 0 0 1.864-.187l-.53-5.333a.94.94 0 0 0-1.023-.84.938.938 0 0 0-.84 1.025" fill="#d5ab88"/><path d="M21.428 10.165s.568.446.979.776c0 0-.41.721.615 1.479 1.025.758 1.687.396 1.687.396s.232-.089 1.038.154c.383.115 1.148.306 1.148.306s-.041 1.618-.268 2.601l-1.951.077s-.203.944-.53 1.22c-.327.274-.822.342-1.07.626-.691.791-1.863 3.126-1.931 3.489 0 0-.96-.754-2.635-1.664-1.025-.559-3.113-.997-3.113-.997.48-.655 2.097-1.985 2.822-2.782.707-.778 1.605-3.686 1.168-4.172-.438-.488-1.062-1.535-1.062-1.535s.615-.449 1.033-.802c.584-.493 1.072-.613 1.072-.613s.645 1.102.998 1.441" fill="#dd2e44"/></g></svg>