<svg xmlns="http://www.w3.org/2000/svg" viewBox="0 0 45 45"><defs><clipPath id="a"><path d="M0 36h36V0H0v36z"/></clipPath></defs><g clip-path="url(#a)" transform="matrix(1.25 0 0 -1.25 0 45)"><path d="M30 0v4c-.041 3.516-2.013 5-5 5H10C7.014 9 6 7.017 6 4V0h24z" fill="#9266cc"/><path d="M17.455 29.454c3.74 0 9.974-1.871 9.974-9.974 0-8.106 0-9.975-1.87-9.975s-4.363 1.869-8.104 1.869c-3.741 0-6.182-1.87-8.105-1.87-2.084 0-1.87 7.484-1.87 9.976 0 8.103 6.234 9.974 9.975 9.974" fill="#963b22"/><path d="M26 9.837l.018-.836H6v-9h24v9.834l-4 .002z" fill="#9266cc"/><path d="M14 9s.85-2.063 3.55-2.063C20.25 6.937 21 9 21 9l-.024 3.9L14 13V9z" fill="#d5ab88"/><path d="M14.02 11.314c1.057-1.207 2.048-1.51 3.476-1.51 1.426 0 2.426.304 3.484 1.51v2.5h-6.96v-2.5z" fill="#cc9b7a"/><path d="M9.972 19.752c0 5.316 3.35 9.625 7.482 9.625 4.131 0 7.48-4.31 7.48-9.625 0-5.313-3.349-9.37-7.48-9.37-4.132 0-7.482 4.057-7.482 9.37" fill="#d5ab88"/><path d="M17.455 12.622c-1.464 0-2.23.723-2.312.807a.625.625 0 0 0 0 .882.627.627 0 0 0 .876.004c.032-.029.502-.447 1.436-.447.946 0 1.416.432 1.435.45.25.232.642.226.877-.018a.62.62 0 0 0-.003-.87c-.08-.085-.846-.808-2.31-.808" fill="#df1f32"/><path d="M8.142 16.76c-.019.913-.04.206-.04.425 0 3.118 1.871-.45 1.871 1.77 0 2.223 1.247 2.445 2.493 3.69.624.626 1.87 1.848 1.87 1.848s3.118-1.884 5.612-1.884c2.491 0 4.987-1.253 4.987-3.746 0-2.493 1.871 1.442 1.871-1.674 0-.223-.02.484-.037-.428h.655c.005 1.822.005 1.753.005 2.919 0 8.103-6.234 11.12-9.975 11.12-3.74 0-9.974-2.966-9.974-11.071 0-.722-.019-1.146.007-2.968h.655z" fill="#963b22"/><path d="M14.414 17.776a.772.772 0 0 0-.77.771v.77c0 .422.347.77.77.77a.774.774 0 0 0 .771-.77v-.77a.773.773 0 0 0-.77-.77M20.577 17.776a.773.773 0 0 0-.77.771v.77c0 .422.346.77.77.77a.774.774 0 0 0 .771-.77v-.77a.773.773 0 0 0-.77-.77" fill="#662113"/><path d="M18.267 15.394h-1.541a.387.387 0 0 0-.385.387v.138c0 .215.173.389.385.389h1.54a.387.387 0 0 0 .386-.39v-.137a.387.387 0 0 0-.385-.387" fill="#c1694f"/><path d="M5.894 21.795s-3.834-1.39-4.214-6.221c0 0-2.4 4.817-.522 10.15l4.737-3.93zM20.05 30.023s-2.757 3.005-7.362 1.497c0 0 3.523 4.069 9.168 4.386l-1.805-5.883zM29.271 19.663s1.972 3.571-.923 7.457c0 0 4.979-2.046 7.076-7.296l-6.152-.16z" fill="#d1d3d4"/><path d="M8.103 25.014a3.5 3.5 0 1 0-7 0 3.5 3.5 0 0 0 7 0" fill="#5c913b"/><path d="M26.016 32.5a3.5 3.5 0 1 0-7-.001 3.5 3.5 0 0 0 7 .001" fill="#be1931"/><path d="M35.895 18.145a3.5 3.5 0 1 0-7 0 3.5 3.5 0 1 0 7 0" fill="#3b88c3"/><path d="M32.645 12.512a.991.991 0 0 1-1.169.774l-2.057-.43h-1.808c-.85 0-1.538-.696-1.538-1.555V9.748h3.846c.83 0 1.503.666 1.533 1.496l.273.057h.503c0 .059-.022.113-.035.169a.996.996 0 0 1 .453 1.042" fill="#cc9b7a"/><path d="M36.075 12.08a.772.772 0 0 1-.77.775l-4.616-.776h-3.846a.774.774 0 0 1-.77-.778L26 9.751l1.611-.003h3.078l4.616 1.553s.77.348.77.778" fill="#d5ab88"/><path d="M3.43 8.764a.99.99 0 0 0 1.168.774l2.058-.43h1.807c.85 0 1.54-.696 1.54-1.555V6H6.154c-.829 0-1.503.666-1.532 1.496l-.273.057h-.503c0 .059.022.113.035.169a.996.996 0 0 0-.452 1.042" fill="#cc9b7a"/><path d="M0 8.331c0 .43.344.776.769.776l4.617-.776h3.847a.774.774 0 0 0 .769-.778V6H5.386L.769 7.553S0 7.901 0 8.331" fill="#d5ab88"/><path d="M11 6h-1V0h1v6zM26 9h-1V0h1v9z" fill="#744eaa"/></g></svg>