<svg xmlns="http://www.w3.org/2000/svg" viewBox="0 0 45 45"><defs><clipPath id="a"><path d="M0 36h36V0H0v36z"/></clipPath></defs><path d="M32.521 33.749H7.501V45h29.998V32.706l-4.999-.002.021 1.045z" fill="#77b255"/><g clip-path="url(#a)" transform="matrix(1.25 0 0 -1.25 0 45)"><path d="M14 9.001s.85-2.064 3.55-2.064c2.7 0 3.45 2.064 3.45 2.064l-.024 3.9-6.976.1v-4z" fill="#ffdc5d"/><path d="M14.02 10.97c1.057-1.206 2.048-1.51 3.476-1.51 1.426 0 2.426.305 3.484 1.51v3.516h-6.96V10.97z" fill="#f9ca55"/><path d="M11.842 19.813c0-1.271-.639-2.304-1.426-2.304-.788 0-1.427 1.033-1.427 2.304 0 1.272.64 2.305 1.427 2.305s1.426-1.033 1.426-2.305M26.102 19.813c0-1.271-.638-2.304-1.424-2.304-.79 0-1.428 1.033-1.428 2.304 0 1.272.639 2.305 1.428 2.305.786 0 1.424-1.033 1.424-2.305" fill="#ffdc5d"/><path d="M10.13 18.913c0 4.911 3.32 8.893 7.416 8.893 4.095 0 7.415-3.982 7.415-8.893 0-4.91-3.32-8.893-7.415-8.893-4.096 0-7.416 3.983-7.416 8.893" fill="#ffdc5d"/><path d="M17.546 12.901c-2.396 0-3.132.62-3.256.745a.583.583 0 0 0 0 .816.57.57 0 0 0 .786.02c.045-.033.627-.429 2.47-.429 1.915 0 2.466.426 2.472.431a.554.554 0 0 0 .796-.014.591.591 0 0 0-.013-.824c-.123-.125-.858-.745-3.255-.745" fill="#c1694f"/><path d="M17.546 30.757c4.915 0 7.986-3.663 7.986-6.714 0-3.05-.614-4.272-1.229-3.05l-1.228 2.44s-3.687 0-4.915 1.222c0 0 1.844-3.663-1.843 0 0 0 .614-2.443-3.07.61 0 0-1.845-1.222-2.458-4.273-.17-.847-1.229 0-1.229 3.051s2.458 6.714 7.986 6.714" fill="#ffac33"/><path d="M14.066 18.878a.876.876 0 0 0-.87.878v.879c0 .483.39.879.87.879.479 0 .87-.396.87-.88v-.878a.876.876 0 0 0-.87-.878M21.027 18.878a.876.876 0 0 0-.87.878v.879c0 .483.391.879.87.879.477 0 .87-.396.87-.88v-.878a.878.878 0 0 0-.87-.878" fill="#662113"/><path d="M18.2 16.46h-1.307a.657.657 0 0 0-.652.66c0 .362.293.659.652.659H18.2a.657.657 0 0 0 .652-.66.657.657 0 0 0-.652-.658" fill="#c1694f"/><path d="M5.894 21.795s-3.834-1.39-4.214-6.221c0 0-2.4 4.817-.522 10.15l4.737-3.93zM20.05 30.023s-2.757 3.005-7.362 1.497c0 0 3.523 4.069 9.168 4.386l-1.805-5.883zM29.271 19.663s1.972 3.571-.923 7.457c0 0 4.979-2.046 7.076-7.296l-6.152-.16z" fill="#d1d3d4"/><path d="M8.103 25.014a3.5 3.5 0 1 0-7 0 3.5 3.5 0 0 0 7 0" fill="#5c913b"/><path d="M26.016 32.5a3.5 3.5 0 1 0-7-.001 3.5 3.5 0 0 0 7 .001" fill="#be1931"/><path d="M35.895 18.145a3.5 3.5 0 1 0-7 0 3.5 3.5 0 1 0 7 0" fill="#3b88c3"/><path d="M32.645 12.512a.991.991 0 0 1-1.169.774l-2.057-.43h-1.808c-.85 0-1.538-.696-1.538-1.555V9.748h3.846c.83 0 1.503.666 1.533 1.496l.273.057h.503c0 .059-.022.113-.035.169a.996.996 0 0 1 .453 1.042" fill="#f9ca55"/><path d="M36.075 12.08a.772.772 0 0 1-.77.775l-4.616-.776h-3.846a.774.774 0 0 1-.77-.778L26 9.751l1.611-.003h3.078l4.616 1.553s.77.348.77.778" fill="#ffdc5d"/><path d="M3.43 8.764a.99.99 0 0 0 1.168.774l2.058-.43h1.807c.85 0 1.54-.696 1.54-1.555V6H6.154c-.829 0-1.503.666-1.532 1.496l-.273.057h-.503c0 .059.022.113.035.169a.996.996 0 0 0-.452 1.042" fill="#f9ca55"/><path d="M0 8.331c0 .43.344.776.769.776l4.617-.776h3.847a.774.774 0 0 0 .769-.778V6H5.386L.769 7.553S0 7.901 0 8.331" fill="#ffdc5d"/><path d="M11 6h-1V0h1v6zM26 9h-1V0h1v9z" fill="#5c913b"/></g></svg>