<svg xmlns="http://www.w3.org/2000/svg" viewBox="0 0 45 45"><defs><clipPath id="a"><path d="M0 36h36V0H0v36z"/></clipPath></defs><g clip-path="url(#a)" transform="matrix(1.25 0 0 -1.25 0 45)"><path d="M32.424 8.188s.59-1.186 1.777-.594c1.186.59.293-2.075.293-2.075s-2.887-.123-4.931-.02c-1.872.096-.698.916.488 1.507 1.187.59 2.373 1.182 2.373 1.182" fill="#553788"/><path d="M26.506 22.64c-.655-1.038-1.508-2.08-2.078-2.227-.428-.111-1.28-.318-1.848-.663-.567-.346-.482-.7.255-1.063.737-.364 1.703-.21 2.208.352.505.562 1.834 1.453 2.656 1.98.82.528-.701 2.403-1.193 1.622" fill="#f9ca55"/><path d="M26.259 22.137c.287.48.958 1.044.958 1.044l-.386 2.473 3.029-.12s-.422-2.559-.55-3.138c-.126-.579-1.304-1.332-2.086-1.665-.781-.334-1.286.869-.965 1.406M31.5 12.188s-3.501 1.298-3.501.374c0-.922 3.251-2.562 4.438-4.561.48-.809 2.23-1.373 1.876.373-.687 3.38-2.813 3.813-2.813 3.813" fill="#f9ca55"/><path d="M28.99 12.553s1.303-1.516 2.135-1.115c.831.4 2.445 3.768 2.875 5 .43 1.232-.49 3.736-1.752 2.103-1.26-1.633-3.258-5.988-3.258-5.988" fill="#f9ca55"/><path d="M35.101 18.377L29.001 16l3.854-2.08 2.246 4.456z" fill="#553788"/><path d="M27.999 16s-2-3-2-4 1-4 1-7 2-3 2-2 1.581 5.418 0 7c-1 1 2 4 2 4l-3 2z" fill="#ffdc5d"/><path d="M29.999 20l-2.624-5 3-1.938s5.56 5.017 5.56 7.017c0 2.797-2.498 3.733-2.498 3.733L29.999 20z" fill="#9266cc"/><path d="M26.995 30.946l1.014-2.162-2.562-1.036-1.057 1.771 2.605 1.427z" fill="#ffdc5d"/><path d="M27.474 31.144c-.178-1.588-1.526-2.277-2.88-2.804-1.29-.502-2.363 1.756-2.536 3.334-.175 1.588 1.68 2.8 3.124 2.638 1.444-.162 2.47-1.58 2.292-3.168M22.5 22.563c-1.312-.875-2.813-2.5-3.625-2.625-.988-.152-1.687.938-2.59-.366-.57-.822.34-1.696 2.215-1.696 1.079 0 4.091 1.625 5.25 2.436 1.25.875 1.529 1.867 1.982 3.061.051.134.106.07.197-.085l4.571 4.65c-2.521 1.908-3.589.753-5.382-.134-1.268-.627-1.868-2.366-2.618-5.241" fill="#ffdc5d"/><path d="M29.999 20c3.209 1.291 4.563 3.062 4.563 3.062-1.562 1.75-2.467 3.668-4.062 4.875a6.834 6.834 0 0 1-.978.625c.125-.229.106-.47-.335-.625-.952-.336-2.055.277-3.219.318a29.88 29.88 0 0 0-.636-.341c.978-.122 1.859-.979 1.902-2.21.047-1.345-1.375-2.33-1.375-2.33s.261-.536.849-1.04c.589-.506 1.995-.85 3.291-2.334M26.928 4.227s.705-1.226 1.931-.52c1.225.705.445-2.192.445-2.192s-3.417-1.15-5.348-.63c-1.93.52-.705 1.226.52 1.93l2.452 1.412" fill="#9266cc"/><path d="M21.995 31.596c.06-.036.115-.045.162-.026-.022-.001-.04-.009-.064-.008-.035.002-.064.026-.098.034" fill="#ffac33"/><path d="M26.815 34.188c-.495.34-1.024.538-1.609.56-.768.027-1.609-.298-2.677-1.02-.982-.666-.87-1.928-.534-2.132.034-.008.063-.032.098-.034.023 0 .042.007.064.008.486.015.827.446 1.374.51.255.03.551-.016.936-.238a.488.488 0 0 0 .155-.168c.224-.35.295-1.038.295-1.038s.027.785.056 1.06c.027.257.288.548.625.158.292-.338.125-.986-.085-1.05-.162-.049.09-.448.485-.757.72-.563 1.378-.333 1.378-.333s.305-.034.526 1.022c.221 1.056.048 2.675-1.087 3.452" fill="#ffac33"/><path d="M10.089 7.872S9.353 6.77 8.25 7.507c-1.102.737-.553-2.021-.553-2.021s2.849-.486 4.89-.642c1.868-.142.807.82-.294 1.555l-2.205 1.473" fill="#a0041e"/><path d="M3.852 4.7s-.924-1.07-1.994-.146c-1.07.925-.852-2.067-.852-2.067S4.143.711 6.138.857c1.995.145.924 1.07-.146 1.994l-2.14 1.85M7.75 28.188c2.732.31 3.692-1.405 3.692-1.405 1.12-3.658-1.341-4.023-1.341-4.023-.471-.688-2.862-2.717-3.152-3.84-.29-1.123.145-1.123.906-1.667.297-.212.883-.543 1.51-.919l-1.662-2.803-1.297.406-3.531-.93c-.29.616-2.049 3.014-2.049 4.32 0 1.303.652 3.296 1.16 4.02.507.725 1.53 3.522 1.775 4.312.471 1.522 2.068 2.31 3.989 2.528" fill="#dd2e44"/><path d="M6.219 14.438s-2.293-.615-3.344-1.43c.266-.626.649-1.39.395-1.86-.253-.471-1.14-2.155-1.284-3.133-.145-.978-.128-3.46-.128-3.46 1.105-1.068 1.994.146 1.994.146.019 1.505 1.213 4.11 1.793 4.836.358.447 1.196 1.703 1.232 2.355.036.652-.398 1.92-.398 1.92l-.26.626z" fill="#ffdc5d"/><path d="M11.667 14.52c-.245.535-1.337 1.237-2.321 1.826-.864-.63-1.654-2.407-1.814-2.783L8.875 13s-.326-.696-.507-1.711c-.181-1.014-.254-3.696-.254-3.696C9.25 6.672 10 7.75 10 7.75c-.072.833 1.065 3.937 1.5 4.625.435.688.565 1.276.167 2.146" fill="#f9ca55"/><path d="M3.406 24.719c-.156-1.156 1-1.47 2-1.062 1 .406 1.813 1.093 2 2.156.121.688-.219 2.28-1.25 2.062-1.388-.294-2.507-1.358-2.75-3.156" fill="#ffdc5d"/><path d="M9.578 28.047c.97-.125 1.922-.484 2.234-1.422.313-.937.733-3.708.844-3.97.094-.217.281-.467.625-.311.344.156 1.5.375 2.094.437.594.063.594.875 1.375 1.157.781.28 1.656-.25 1.687-1.032.032-.781-.187-1.125-1.187-1.312-1-.188-1.625-.47-1.938-.625-.312-.156-3.125-1-3.53-.906-.407.093-1.68 2.698-1.68 2.698s.92.537 1.038 1.52c.391 3.219-1.562 3.766-1.562 3.766" fill="#f9ca55"/><path d="M3.531 24.875c-.036-.844.344-4 .375-4.5.031-.5 3.97-2.25 4.344-2.406.375-.156 1.093-1.094 1.656-1.125.563-.032 2.156.25 1.625 1.125-.53.875-1.437 1.406-2.125 1.344-.688-.063-2.53 1.718-2.937 1.874-.407.157-.563.375-.407.844.157.469.75 2.625.813 3.313.062.687-3.282 1-3.344-.469" fill="#ffdc5d"/><path d="M7.531 13.563c-.094-.032-1.125.374-1.125.374l-.844 2.157 2.5-1.438s-.156-.266-.28-.516c-.126-.25-.25-.578-.25-.578" fill="#a0041e"/><path d="M9.031 28.281c.281-.03.793-1.064.844-1.5.093-.813-.906-1.156-1.469-.187-.562.968-.812 1.406-1.28 1.5 0 0 .5.125.968.156.468.031.937.031.937.031" fill="#ffdc5d"/><path d="M8.583 29.792l-.875-1.667 1.76-1.343 1 1.875-1.885 1.135z" fill="#ffdc5d"/><path d="M27.636 31.5s-.656.872.631 1.65c1.062.642 1.956-.422 2.972-.456.767-.026 1.463.306 1.784.87 0 0-.264-1.13-.856-1.806-.77-.88-2.088-1.215-2.809-1.193-1.125.034-1.722.935-1.722.935" fill="#ffac33"/><path d="M10.928 32.925c-1.269.154-2.442-.9-2.617-2.35-.176-1.451.712-2.752 1.982-2.906 1.27-.153 2.441.899 2.617 2.35.175 1.45-.712 2.752-1.982 2.906" fill="#ffdc5d"/><path d="M7.197 33.328c-1.037.214-1.453-.898-2.26-1.216-.61-.24-1.266-.17-1.685.193 0 0 .535-.835 1.205-1.21.87-.487 2.027-.382 2.6-.16.895.35 1.12 1.245 1.12 1.245s.278.889-.98 1.148" fill="#ffac33"/><path d="M12.474 33.46c-.56.5-2.086.839-3.199.412-1.258-.481-1.692-1.594-1.638-2.8.032-.715.425-1.744.678-1.821.387-.118.733.53.571.569-.3.07-.368 1.027-.084 1.245.3.229.525-.064.56-.335.033-.27.12-1.037.12-1.037s.068.948.367 1.212c.298.263 1.538.047 2.218 1.264 0 0 .393-.207.661-.74.222-.438.182-1.41.182-1.41s.32.564.561 1.117c.276.633-.279 1.683-.997 2.324" fill="#ffac33"/></g></svg>