<svg xmlns="http://www.w3.org/2000/svg" viewBox="0 0 36 36"><path fill="#AF7E57" d="M21.25 5c0-1.657-1.175-3-2.625-3C17.176 2 16 3.343 16 5s.984 3 2.719 3c.661 0 1.736-.132 2.198-.594.55-.55.333-1.505.333-2.406z"/><path fill="#4289C1" d="M17.967 33.355a1 1 0 0 1-1-1v-3a1 1 0 1 1 2 0v3a1 1 0 0 1-1 1zm-9.431 1.076a1 1 0 0 1-1.397-1.141l.669-2.76a1 1 0 0 1 1.943.472l-.669 2.76a.996.996 0 0 1-.546.669z"/><path fill="#AF7E57" d="M19.73 9.107l-.457-3.933c-.061-.549-.574-.973-1.117-.908a.992.992 0 0 0-.889 1.092l.4 3.642h-4.584L7.228 6.106a1 1 0 1 0-.329 1.973l5.389 2.787c.054.01.657.134.712.134h2.749c.009.262.086.588.251 1 1 2.5 3 8 3 8 2.209 0 2.625-4.723 2.625-7.208 0-.604.299-.753.197-1.101 1.171-.152 1.334.359 1.874.487 0 0-1.799-3.26-3.966-3.071z"/><path fill="#AF7E57" d="M14.177 26.122a1.241 1.241 0 0 1-.216-1.612l4.817-7.347a1.243 1.243 0 1 1 2.078 1.361l-4.817 7.347a1.243 1.243 0 0 1-1.862.251z"/><path fill="#AF7E57" d="M8.628 31.08c-.308-.458-.268-1.066.116-1.42l5.382-4.971c.42-.389 1.094-.325 1.505.142.407.471.403 1.161-.018 1.549l-5.382 4.971c-.42.388-1.095.325-1.505-.142a1.462 1.462 0 0 1-.098-.129zm8.861-1.75c-.184-.479-.029-1.019.384-1.257l5.786-3.347c.452-.262 1.041-.062 1.315.447.271.511.131 1.133-.322 1.394l-5.786 3.347c-.452.261-1.041.061-1.315-.447a1.2 1.2 0 0 1-.062-.137z"/><path fill="#AF7E57" d="M24.304 26.637a1.155 1.155 0 0 1-1.403-.561l-3.745-7.25a1.154 1.154 0 1 1 2.05-1.059l3.745 7.25a1.154 1.154 0 0 1-.647 1.62zm0-13.611l-3.85-2.008a.94.94 0 0 1-.398-1.264.939.939 0 0 1 1.264-.397l3.85 2.008a.94.94 0 0 1 .398 1.264.939.939 0 0 1-1.264.397z"/><path fill="#AF7E57" d="M30.07 13.88l-5.302-.783a.94.94 0 0 1-.79-1.064.94.94 0 0 1 1.064-.79l5.302.783a.94.94 0 0 1 .79 1.064.94.94 0 0 1-1.064.79z"/><path fill="#2A6797" d="M16.5 17.957s-.803 2.028-1.071 2.869c-.268.842-.825 1.799-.825 1.799s1.694 1.477 2.995 1.438l1.885-2.74 1.674 2.359s1.708-1.229 2.884-1.433c0 0-1.497-3.069-1.841-3.719-.344-.65-1.186-1.492-1.186-1.492l-4.515.919z"/><path fill="#4289C1" d="M15.549 8.805s1.274.075 1.799.112c0 0 .075.825 1.349.862 1.274.037 1.612-.637 1.612-.637s.975.075 1.687.525c.712.45 1.799.975 1.799.975s-1.012.862-.637 1.799l-1.012-.483s.135.417.198 1.198c.094 1.174-.202 4.902-.052 5.24 0 0-1.292-.333-3.188-.125-1.16.128-3.323.958-3.323.958.302-1.26.483-3.152.531-4.229.094-2.115-.389-3.609-1.026-3.759-.637-.15-1.125-.187-1.125-.187s.15-.675 0-1.199c-.15-.525-.225-.9-.225-.9s1.163-.075 1.613-.15z"/><circle fill="#269" cx="5" cy="8" r="2"/><path fill="#60352A" d="M20.292 1.188c-.699-.487-2.461-.66-3.656-.029-1.349.713-1.687 2.024-1.462 3.373.207 1.24.803 1.754.803 1.754.229.247.837-.402.488-.95-.409-.643-.294-1.401.169-1.448.327-.034.678.158.584.451-.113.353.032.498.032.498s.269.192.54-.627c.142-.429 1.157-.362 2.648-1.038.176-.08.625.422.752 1.539.027.241.477-.502.54-1.044.103-.899-.543-1.855-1.438-2.479z"/></svg>