<svg xmlns="http://www.w3.org/2000/svg" viewBox="0 0 45 45"><defs><clipPath id="a"><path d="M0 36h36V0H0v36z"/></clipPath></defs><g clip-path="url(#a)" transform="matrix(1.25 0 0 -1.25 0 45)"><path d="M19 36c-1.721 0-3.343-.406-4.794-1.111A6.944 6.944 0 0 1 13 35a7 7 0 0 1-7-7V16h.018C6.201 9.533 11.489 4.344 18 4.344c6.511 0 11.799 5.189 11.982 11.656H30v9c0 6.075-4.925 11-11 11" fill="#ffac33"/><path d="M27 15H9a4 4 0 0 1-4-4V0h26v11a4 4 0 0 1-4 4" fill="#9268ca"/><path d="M14 31s-.003-5.308-5-5.936V19a9 9 0 0 1 9-9 9 9 0 0 1 9 9v5.019C15.89 24.395 14 31 14 31" fill="#ffdc5d"/><path d="M10 9h1V0h-1v9z" fill="#7450a8"/><path d="M4.702 9.505l-.283.059h-.51c0 .057.022.112.034.169a.994.994 0 0 0-.458 1.047c.113.542.643.89 1.186.78l2.091-.433h1.675c.864 0 1.563-.7 1.563-1.563V8H6.253s-1.48.669-1.55 1.505" fill="#fcab40"/><path d="M0 10.345c0 .432.35.782.781.782l4.691-.782h3.747A.782.782 0 0 0 10 9.564V8H5L.781 9.564S0 9.913 0 10.344" fill="#ffdc5d"/><path d="M4 0h6v8H5L4 0z" fill="#9268ca"/><path d="M26 9h-1V0h1v9z" fill="#7450a8"/><path d="M31.298 9.505l.283.059h.51c0 .057-.022.112-.034.169a.994.994 0 0 1 .458 1.047c-.113.542-.643.89-1.186.78l-2.091-.433h-1.675c-.864 0-1.563-.7-1.563-1.563V8h3.747s1.48.669 1.55 1.505" fill="#fcab40"/><path d="M36 10.345c0 .432-.35.782-.781.782l-4.691-.782h-3.747A.782.782 0 0 1 26 9.564V8h5l4.219 1.564s.781.349.781.78" fill="#ffdc5d"/><path d="M32 0h-6v8h5l1-8z" fill="#9268ca"/><path d="M19 16.5h-2a.5.5 0 0 0 0 1h2a.5.5 0 0 0 0-1" fill="#bf6952"/><path d="M20.5 13H20a.5.5 0 0 0 0 1h.5a.5.5 0 0 0 0-1" fill="#df1f32"/><path d="M14 20a1 1 0 0 0-1 1v1a1 1 0 0 0 2 0v-1a1 1 0 0 0-1-1M22 20a1 1 0 0 0-1 1v1a1 1 0 1 0 2 0v-1a1 1 0 0 0-1-1" fill="#662113"/></g></svg>