<svg xmlns="http://www.w3.org/2000/svg" viewBox="0 0 45 45"><defs><clipPath id="a"><path d="M0 36h36V0H0v36z"/></clipPath></defs><g clip-path="url(#a)" transform="matrix(1.25 0 0 -1.25 0 45)"><path d="M27 15H9a4 4 0 0 1-4-4V0h26v11a4 4 0 0 1-4 4" fill="#4289c1"/><path d="M10 9h1V0h-1v9z" fill="#2a6797"/><path d="M4.702 9.505l-.283.059h-.51c0 .057.022.112.034.169a.994.994 0 0 0-.458 1.047c.113.542.643.89 1.186.78l2.091-.433h1.675c.864 0 1.563-.7 1.563-1.563V8H6.253s-1.48.669-1.55 1.505" fill="#b78b60"/><path d="M0 10.345c0 .432.35.782.781.782l4.691-.782h3.747A.782.782 0 0 0 10 9.564V8H5L.781 9.564S0 9.913 0 10.344" fill="#d5ab88"/><path d="M4 0h6v8H5L4 0z" fill="#4289c1"/><path d="M26 9h-1V0h1v9z" fill="#2a6797"/><path d="M31.298 9.505l.283.059h.51c0 .057-.022.112-.034.169a.994.994 0 0 1 .458 1.047c-.113.542-.643.89-1.186.78l-2.091-.433h-1.675c-.864 0-1.563-.7-1.563-1.563V8h3.747s1.48.669 1.55 1.505" fill="#b78b60"/><path d="M36 10.345c0 .432-.35.782-.781.782l-4.691-.782h-3.747A.782.782 0 0 1 26 9.564V8h5l4.219 1.564s.781.349.781.78" fill="#d5ab88"/><path d="M32 0h-6v8h5l1-8z" fill="#4289c1"/><path d="M9 29V19a9 9 0 0 1 9-9 9 9 0 0 1 9 9v10H9z" fill="#d5ab88"/><path d="M10.847 22.285c0-1.58-.8-2.861-1.788-2.861s-1.788 1.28-1.788 2.86c0 1.58.8 2.862 1.788 2.862.987 0 1.788-1.281 1.788-2.861M28.73 22.285c0-1.58-.8-2.861-1.789-2.861-.988 0-1.788 1.28-1.788 2.86 0 1.58.8 2.862 1.788 2.862s1.788-1.281 1.788-2.861" fill="#d5ab88"/><path d="M18 35.177c-7.019 0-10.139-4.684-10.139-8.588 0-3.903 1.343-4.986 1.56-3.903.78 3.903 3.119 5.102 3.119 5.102 4.68-3.904 3.9-.78 3.9-.78 4.68-4.685 2.34 0 2.34 0 1.56-1.563 6.239-1.563 6.239-1.563s.78-1.198 1.56-2.759c.78-1.56 1.56 0 1.56 3.903 0 3.904-3.9 8.588-10.139 8.588" fill="#963b22"/><path d="M19 16.5h-2a.5.5 0 0 0 0 1h2a.5.5 0 0 0 0-1M20.5 13H20a.5.5 0 0 0 0 1h.5a.5.5 0 0 0 0-1" fill="#bf6952"/><path d="M14 20a1 1 0 0 0-1 1v1a1 1 0 0 0 2 0v-1a1 1 0 0 0-1-1M22 20a1 1 0 0 0-1 1v1a1 1 0 1 0 2 0v-1a1 1 0 0 0-1-1" fill="#662113"/></g></svg>