<svg xmlns="http://www.w3.org/2000/svg" viewBox="0 0 45 45"><defs><clipPath id="a"><path d="M0 36h36V0H0v36z"/></clipPath><clipPath id="b"><path d="M28.665 33.028a2.75 2.75 0 1 1 5.5 0 2.75 2.75 0 0 1-5.5 0"/></clipPath></defs><g clip-path="url(#a)" transform="matrix(1.25 0 0 -1.25 0 45)"><path d="M34.081 34.579c-1.522 1.084-3.53-2.522-3.987-3.016l1.763-1.47-.59-5.578s-1.489.555-2.559.689c-.918.114-2.56-.187-2.56-.187s-2.072.714-2.42.69c-1.15-.076-2.227-.688-2.227-.688l-.453 1.713c.97.747 1.608 1.97 1.608 3.362 0 2.278-1.699 4.125-3.792 4.125-2.094 0-3.787-1.856-3.583-4.125.167-1.861 1.017-3.351 2.405-3.893l-.167-1.441c-.486.043-2.154.302-3.21-.01-2.334-.688-5.404-2.71-6.08-2.81-.473-.07-2.608-.674-4.14-.9-.277-.041-.89.966-1.415 1.033-.15.02-.686-.691-.836-.672-.559.069-1.078.115-1.306.022-.926-.381-.4-3.381.726-3.214 0 0 2.036.483 2.793.574 1.67.2 4.343.273 5.318.536 1.415.382 4.34 1.45 4.34 1.45-.139-.467-.395-2.713-.28-3.516.268-1.876.962-5.411 1.262-7.116.447-2.541 6.526-.148 8.302-.148 0 0-.805 3.362.344 6.154.538 1.309 1.18 4.824 1.191 5.175 0 0 7.852-.208 8.847.557 1.012.778.65 8.46.565 8.233.313.299 1.435 3.549.141 4.47" fill="#f3d2a2"/><path d="M17.79 33.144c1.876.187 3.307-.636 3.626-2.512.499-2.935-.802-4.155-1.971-4.592-1.06-.396-2.553.555-2.488.548 0 0 .992-1.387 2.74-.85 1.387.426 1.86 1.792 2.218 1.96.464.216.87.457 1.032.727.313.532.406 1.281.25 1.97-.062.273-.323.537-.331.807-.061 2.084-1.662 3.567-4.024 3.38-1.662-.132-2.676-1.064-3.211-2.399.179.101.838.83 2.16.961" fill="#4289c1"/><path d="M0 0v12h8.686c2.715 0 4.022 1.106 5.473 1.235C15.61 13.364 16.958 12 17.737 12c.78 0 1.091.509 1.661.509.294 0 .917-.509 1.592-.509s2.385 1.235 3.074 1.235c1.396 0 3.576-1.235 5.011-1.235H36V0H0z" fill="#55acee"/><path d="M34.165 33.028a2.75 2.75 0 1 0-5.5 0 2.75 2.75 0 0 0 5.5 0" fill="#ffd03f"/></g><g clip-path="url(#b)" transform="matrix(1.25 0 0 -1.25 0 45)"><path d="M34.074 34.542c-.013.003-.896.213-1.65-.253l-.005-.001-.008-.006c-.328-.206-.63-.541-.827-1.078a5.125 5.125 0 0 0-.99.109c.81 2.334 2.811 1.772 2.897 1.746a.153.153 0 0 1 .088.293c-.025.007-2.379.68-3.282-1.96a2.197 2.197 0 0 0-.692.355.118.118 0 0 1 .02.037c.586 1.779 2.304 1.959 2.377 1.966a.155.155 0 0 1 .138.166.155.155 0 0 1-.166.139c-.02-.002-1.923-.197-2.605-2.08-.28.348-.275.683-.275.7a.153.153 0 0 1-.146.158.154.154 0 0 1-.159-.146c0-.022-.018-.537.438-1.013.484-.505 1.298-.765 2.415-.777.098-.341.148-.655.163-.94-2.88-.103-3.47 1.875-3.495 1.962a.152.152 0 0 1-.188.106.153.153 0 0 1-.107-.187c.007-.023.636-2.191 3.583-2.191.068 0 .14.002.21.005a3.122 3.122 0 0 0-.125-.78c-2.71.074-3.242 1.657-3.264 1.726a.155.155 0 0 1-.19.104.148.148 0 0 1-.102-.186c.023-.076.593-1.87 3.453-1.93-.2-.483-.466-.738-.489-.76a.153.153 0 0 1 .208-.223c.053.049 1.288 1.22.62 3.444l-.03.094c.138.36.332.613.547.786 1.045-2.125-.356-4.083-.37-4.103a.152.152 0 0 1 .032-.213.152.152 0 0 1 .213.033c.016.02 1.541 2.145.383 4.45.214.112.435.165.633.186.001-.002.001-.005.003-.007 1.161-1.81-.638-4.425-.656-4.451a.153.153 0 0 1 .125-.241c.048 0 .096.023.125.065.02.029.49.704.811 1.629.407 1.17.386 2.207-.06 3.014.183-.01.307-.04.325-.044a.153.153 0 1 1 .074.297" fill="#ffad1f"/></g></svg>