<svg xmlns="http://www.w3.org/2000/svg" viewBox="0 0 45 45"><defs><clipPath id="a"><path d="M0 36h36V0H0v36z"/></clipPath></defs><g clip-path="url(#a)" transform="matrix(1.25 0 0 -1.25 0 45)"><path d="M30 0v11a4 4 0 0 1-4 4H10a4 4 0 0 1-4-4V0h24z" fill="#292f33"/><path d="M18 1l-4 14h8L18 1z" fill="#e1e8ed"/><path d="M15.125 20.188v-5.48L18 13.833l2.875.875v5.48h-5.75z" fill="#ffdc5d"/><path d="M14 15l-2-6 2.5-.687-1.375-2.25L18 1l-4 14zM22 15l2-6-2.5-.687 1.375-2.25L18 1l4 14z" fill="#66757f"/><path d="M15.125 15.875L18 13.833l-1.875-1.989L14 15l1.125.875zM20.875 15.875L18 13.833l1.875-1.989L22 15l-1.125.875z" fill="#f5f8fa"/><path d="M18 13.25l2.065-1.136v2.272L18 13.25z" fill="#292f33"/><path d="M18 13.25l2.065-1.136v2.272L18 13.25z" fill="none" stroke="#292f33" stroke-width=".466" stroke-linecap="round" stroke-linejoin="round" stroke-miterlimit="10"/><path d="M18 13.25l-2.067-1.136v2.272L18 13.25z" fill="#292f33"/><path d="M18 13.25l-2.067-1.136v2.272L18 13.25z" fill="none" stroke="#292f33" stroke-width=".466" stroke-linecap="round" stroke-linejoin="round" stroke-miterlimit="10"/><path d="M18.493 10.862a.494.494 0 1 0-.988 0 .494.494 0 0 0 .988 0M18.493 8.845a.494.494 0 1 0-.988 0 .494.494 0 0 0 .988 0M18.493 6.827a.494.494 0 1 0-.988 0 .494.494 0 0 0 .988 0" fill="#292f33"/><path d="M12.25 24.425c0-1.27-.644-2.3-1.437-2.3-.794 0-1.438 1.03-1.438 2.3 0 1.27.644 2.3 1.438 2.3.793 0 1.437-1.03 1.437-2.3M26.625 24.425c0-1.27-.643-2.3-1.437-2.3-.795 0-1.438 1.03-1.438 2.3 0 1.27.643 2.3 1.438 2.3.794 0 1.437-1.03 1.437-2.3" fill="#ffdc5d"/><path d="M10.525 24.527c0 4.902 3.347 8.877 7.475 8.877s7.475-3.975 7.475-8.877c0-4.902-3.347-8.877-7.475-8.877s-7.475 3.975-7.475 8.877" fill="#ffdc5d"/><path d="M18 35.35c4.954 0 8.05-3.656 8.05-6.702 0-3.047-.619-4.266-1.239-3.047l-1.238 2.437s-3.715 0-4.954 1.22c0 0 1.858-3.656-1.857 0 0 0 .619-2.437-3.097.609 0 0-1.857-1.218-2.477-4.265-.171-.845-1.238 0-1.238 3.047 0 3.046 2.477 6.702 8.05 6.702" fill="#ffac33"/><path d="M20.839 19.753a.183.183 0 0 1-.157.088h-5.267a.184.184 0 0 1-.163-.268c.03-.062.799-1.512 2.796-1.512 1.999 0 2.766 1.45 2.798 1.512a.186.186 0 0 1-.007.18M18.125 22.026c-.57 0-1.014.104-1.37.262.118-.425.445-1.017 1.37-1.017s1.252.592 1.37 1.017c-.356-.158-.8-.262-1.37-.262" fill="#c1694f"/><path d="M20.571 23.563h-.009a.564.564 0 0 0-.562.562V25c0 .31.253.563.562.563h.01a.564.564 0 0 0 .561-.563v-.875a.564.564 0 0 0-.562-.562M15.438 23.563h-.01a.564.564 0 0 0-.562.562V25c0 .31.254.563.563.563h.008A.564.564 0 0 0 16 25v-.875a.564.564 0 0 0-.563-.562" fill="#662113"/></g></svg>