<svg xmlns="http://www.w3.org/2000/svg" viewBox="0 0 45 45"><defs><clipPath id="a"><path d="M0 36h36V0H0v36z"/></clipPath></defs><g clip-path="url(#a)" transform="matrix(1.25 0 0 -1.25 0 45)"><path d="M32.424 8.188s.59-1.186 1.777-.594c1.186.59.293-2.075.293-2.075s-2.887-.123-4.931-.02c-1.872.096-.698.916.488 1.507 1.187.59 2.373 1.182 2.373 1.182" fill="#3e721d"/><path d="M26.83 25.654l.387-2.473s-.177-.15-.387-.357a.362.362 0 0 1-.325-.183c-.655-1.04-1.507-2.081-2.078-2.228-.428-.111-1.28-.318-1.847-.663-.568-.346-.483-.7.254-1.063.738-.364 1.704-.21 2.21.352.433.484 1.477 1.21 2.284 1.74.778.353 1.86 1.063 1.982 1.617.128.579.55 3.138.55 3.138l-3.03.12zM34.313 8.375c-.536 2.635-1.943 3.476-2.538 3.72.842 1.141 1.89 3.385 2.226 4.343.43 1.231-.491 3.736-1.752 2.103-1.069-1.381-2.657-4.702-3.123-5.695-.624.097-1.127.067-1.127-.283C28 11.64 31.25 10 32.439 8c.48-.807 2.23-1.372 1.874.375" fill="#9b6a49"/><path d="M35.101 18.377L29.001 16l3.854-2.08 2.246 4.456z" fill="#3e721d"/><path d="M27.999 16s-2-3-2-4 1-4 1-7 2-3 2-2 1.581 5.418 0 7c-1 1 2 4 2 4l-3 2z" fill="#af7e57"/><path d="M29.999 20l-2.624-5 3-1.938s5.56 5.017 5.56 7.017c0 2.797-2.498 3.733-2.498 3.733L29.999 20z" fill="#77b255"/><path d="M28.009 28.784l-.748 1.596c.1.23.182.479.214.764.177 1.588-.85 3.007-2.292 3.168-1.444.162-3.3-1.05-3.125-2.638.174-1.577 1.245-3.836 2.537-3.333.134.052.268.108.4.164l.453-.756 2.56 1.035z" fill="#af7e57"/><path d="M22.5 22.563c-1.312-.875-2.813-2.5-3.625-2.625-.988-.152-1.687.938-2.59-.366-.57-.822.34-1.696 2.215-1.696 1.079 0 4.091 1.625 5.25 2.436 1.25.875 1.529 1.867 1.982 3.061.143.376.518-.56 1.393-.998 1.45-.726 2.437-1.438 3-2.313 2.688 1.438 4.438 3 4.438 3-1.563 1.75-2.468 3.668-4.063 4.875-2.521 1.908-3.589.753-5.382-.134-1.268-.627-1.868-2.366-2.618-5.24" fill="#af7e57"/><path d="M30.063 19.813c2.688 1.437 4.5 3.25 4.5 3.25-1.563 1.75-2.468 3.668-4.064 4.875a6.725 6.725 0 0 1-.977.625c.126-.23.106-.47-.334-.625-.952-.336-2.056.277-3.22.318-.205-.113-.416-.229-.637-.343.98-.12 2.082-1.323 2.293-2.539.214-1.228-.212-2.36-.73-2.86.073-.049.148-.098.23-.139 1.451-.726 2.376-1.688 2.938-2.563M26.928 4.227s.705-1.226 1.931-.52c1.225.705.445-2.192.445-2.192s-3.417-1.15-5.348-.63c-1.93.52-.705 1.226.52 1.93l2.452 1.412" fill="#77b255"/><path d="M22.53 33.727c1.833 1.344 3.142 1.244 4.285.46 1.136-.776 1.308-2.395 1.087-3.451-.22-1.056-.526-1.022-.526-1.022s-1.404-.431-1.609.886c-.065.417.384.678-.169 1.254-.356.37-1.067.12-1.028-.451.04-.57-.26-.485-.26-.485l-.97 1.446s-.743-.012-1.103-.722c-.226-.445-1.31.912.292 2.085" fill="#60352a"/><path d="M10.089 7.872S9.353 6.77 8.25 7.507c-1.102.737-.553-2.021-.553-2.021s2.849-.486 4.89-.642c1.868-.142.807.82-.294 1.555l-2.205 1.473" fill="#2a6797"/><path d="M3.852 4.7s-.924-1.07-1.994-.146c-1.07.925-.852-2.067-.852-2.067S4.143.711 6.138.857c1.995.145.924 1.07-.146 1.994l-2.14 1.85" fill="#4289c1"/><path d="M7.75 28.188c2.732.31 3.272-.58 3.692-1.405.978-1.92-.87-3.334-1.341-4.023-.471-.688-2.862-2.717-3.152-3.84-.29-1.123.145-1.123.906-1.667.761-.543 3.413-1.863 3.812-2.733.398-.869.268-1.457-.167-2.146-.435-.688-1.574-3.875-1.502-4.709 0 0-.978-.833-1.884-.072 0 0 .073 2.681.254 3.695.181 1.015.569 1.805.569 1.805l-2.531.844s.507-1.394.471-2.046c-.036-.652-.874-1.908-1.232-2.355-.58-.725-1.774-3.33-1.793-4.836 0 0-.89-1.214-1.994-.146 0 0-.017 2.482.128 3.46.144.978 1.268 3.08 1.521 3.551.254.471-.373.881-.663 1.497-.29.616-2.018 2.96-2.018 4.264 0 1.304.652 3.297 1.16 4.021.507.725 1.53 3.522 1.775 4.312.471 1.522 2.068 2.31 3.989 2.528" fill="#4289c1"/><path d="M6.219 14.438s-2.293-.615-3.344-1.43c.266-.626.649-1.39.395-1.86-.253-.471-1.14-2.155-1.284-3.133-.145-.978-.128-3.46-.128-3.46 1.105-1.068 1.994.146 1.994.146.019 1.505 1.213 4.11 1.793 4.836.358.447 1.196 1.703 1.232 2.355.036.652-.398 1.92-.398 1.92l-.26.626z" fill="#af7e57"/><path d="M11.667 14.52c-.245.535-1.337 1.237-2.321 1.826-.864-.63-1.654-2.407-1.814-2.783L8.875 13s-.326-.696-.507-1.711c-.181-1.014-.254-3.696-.254-3.696.906-.76 1.884.073 1.884.073-.072.833 1.067 4.02 1.502 4.709.435.688.565 1.276.167 2.146" fill="#9b6a49"/><path d="M11.531 17.969c-.53.875-1.437 1.406-2.125 1.344-.688-.063-2.53 1.719-2.938 1.875-.406.156-.562.375-.406.843.113.34.453 1.557.657 2.468.347.353.594.787.687 1.314.121.688-.219 2.28-1.25 2.062-1.388-.294-2.507-1.358-2.75-3.156-.045-.33.026-.583.16-.778.091-1.268.316-3.185.34-3.566.031-.5 3.97-2.25 4.344-2.406.375-.156 1.093-1.094 1.656-1.125.563-.031 2.156.25 1.625 1.125" fill="#af7e57"/><path d="M9.813 28.156c.968-.125 1.686-.594 2-1.53.312-.939.731-3.71.843-3.97.094-.219.281-.469.625-.313.344.157 1.5.375 2.093.438.594.062.594.875 1.375 1.156.782.281 1.657-.25 1.688-1.03.031-.782-.187-1.126-1.188-1.314-1-.187-1.625-.468-1.937-.625-.313-.156-3.125-1-3.53-.906-.408.094-1.68 2.7-1.68 2.7l.772 1.05s-.496.58-.218 1.344c.5 1.375-.844 3-.844 3" fill="#9b6a49"/><path d="M7.531 13.563c-.094-.032-1.125.374-1.125.374l-.844 2.157 2.406-1.407s-.125-.313-.25-.563c-.125-.25-.187-.562-.187-.562" fill="#2a6797"/><path d="M10.152 33.562c-1.444-.162-2.47-1.58-2.292-3.168.031-.273.113-.527.216-.77l-.673-1.47c-.163-.033-.278-.06-.278-.06.469-.094.719-.532 1.281-1.5.563-.969 1.563-.625 1.469.187-.015.126-.07.303-.145.49l.265.496c.294-.122.592-.208.88-.236 1.446-.14 2.213 1.8 2.394 3.43.177 1.587-1.673 2.763-3.117 2.601" fill="#af7e57"/><path d="M13.024 32.977c-1.524 1.273-3.143 1.244-4.286.46-1.136-.776-1.308-2.395-1.087-3.451.221-1.056.38-.892.38-.892s.344.125.438.562c.088.413-.21.768.343 1.344.356.37.571-.273.532-.844-.039-.57.312-.25.312-.25l.625 1.219s.622-.584 1.813-.187c.843.28 1.187.28 1.125-.5.656 1.125.345 2.088-.195 2.539" fill="#60352a"/></g></svg>