<svg xmlns="http://www.w3.org/2000/svg" viewBox="0 0 45 45"><defs><clipPath id="a"><path d="M0 36h36V0H0v36z"/></clipPath><clipPath id="b"><path d="M8 36c-2.958 0-6-5-5-7 1.613-3.225 12-13 12-13h6s10 10 12 13c1 2-2.333 7-5 7H8zm4-8c-2 2-1 2 6 2 8 0 7.5-.5 6-2l-6-6-6 6z"/></clipPath><clipPath id="c"><path d="M0 36h36V0H0v36z"/></clipPath></defs><g clip-path="url(#a)" transform="matrix(1.25 0 0 -1.25 0 45)"><path d="M24 28l-6-6-6 6c-2 2-1 2 6 2 8 0 7.5-.5 6-2m4 8H8c-2.958 0-6-5-5-7 1.612-3.225 12-13 12-13h6s10 10 12 13c1 2-2.333 7-5 7" fill="#55acee"/></g><g clip-path="url(#b)" transform="matrix(1.25 0 0 -1.25 0 45)"><path d="M13 27c-1 1-8 9-3 9h16c2.268 0 4-2-2-8-3-3-11-1-11-1" fill="#3b88c3"/></g><g clip-path="url(#c)" transform="matrix(1.25 0 0 -1.25 0 45)"><path d="M22 15.5a1.5 1.5 0 0 0-1.5-1.5h-5a1.5 1.5 0 1 0 0 3h5a1.5 1.5 0 0 0 1.5-1.5" fill="#ff8a3b"/><path d="M26 8a8 8 0 1 0-16 0 8 8 0 0 0 16 0" fill="#ff8a3b"/><path d="M15.089 4.987l.884.884a.26.26 0 0 0 .35.028s.87-.645 1.542-.645c.604 0 1.22.504 1.22 1.122 0 .617-.631 1.135-1.668 1.135h-.48a.276.276 0 0 0-.265.267v1.164c0 .154.126.267.266.267h.479c.982 0 1.5.476 1.5 1.08 0 .602-.518 1.051-1.122 1.051-.617 0-1.01-.323-1.22-.56-.098-.113-.266-.113-.378-.016l-.855.842c-.113.1-.1.267 0 .364 0 0 1.149 1.235 2.678 1.235 1.627 0 3.029-.996 3.029-2.567 0-1.079-.814-1.879-1.444-2.172v-.043c.659-.28 1.696-1.15 1.696-2.356 0-1.528-1.332-2.679-3.268-2.679-1.765 0-2.664.87-2.958 1.248-.085.1-.07.253.014.351" fill="#7c4119"/></g></svg>