<svg xmlns="http://www.w3.org/2000/svg" viewBox="0 0 36 36"><path fill="#f4900c" d="M35 21.526C35 26.758 27.389 31 18 31S1 26.758 1 21.526 7.625 11 18 11s17 5.294 17 10.526"/><ellipse cx="18" cy="19.502" fill="#ffac33" rx="16" ry="8.5"/><path fill="#ffd983" d="M18 11.331c-6.449 0-11.5 2.491-11.5 5.672s5.051 5.671 11.5 5.671 11.5-2.491 11.5-5.671-5.052-5.672-11.5-5.672"/><ellipse cx="18" cy="18.002" fill="#ffac33" rx="12" ry="6"/><path fill="#f4900c" d="M29 18.002c-1.81 3.118-7 4-11 4s-9.19-.882-11-4c-.75-1.292-1.5 1.083.5 3.083S14 24.402 18 24.402s8.5-1.317 10.5-3.317 1.25-4.374.5-3.083"/><path fill="#e1e8ed" d="M35 1S24.497-.538 15.958 3C6.77 6.807 4 13 4 13c1.541-1.541 5.463-3.079 10.383-3.705 1.777-3.182 6.97-7.391 12.271-7.351 0 0-7.222 1.493-9.759 7.121A37 37 0 0 1 19 9c1.319 0 2.551.118 3.702.303.68-2.914 3.791-6.264 7.226-6.829 0 0-3.562 1.707-4.845 7.338C29.418 10.981 32 13 32 13c-4-8 3-12 3-12"/></svg>