<svg xmlns="http://www.w3.org/2000/svg" viewBox="0 0 45 45"><defs><clipPath id="a"><path d="M0 36h36V0H0v36z"/></clipPath></defs><path d="M8.398 12.484l2.435 26.266h23.125l2.683-27.148-28.243.882z" fill="#ccd6dd"/><g clip-path="url(#a)" transform="matrix(1.25 0 0 -1.25 0 45)"><path d="M28.583 16.77l-21.477-.145S8.166 5.75 10.48 5.75H25.5c2.362 0 3.083 11.02 3.083 11.02" fill="#e27e00"/><path d="M17.984 18.563c-5.468 0-9.901-.831-9.901-1.855 0-.028.015-.055.022-.082.15-.644 2.037-1.2 4.808-1.51l10.345.022c2.66.315 4.459.86 4.605 1.487.007.027.022.054.022.082 0 1.024-4.433 1.855-9.901 1.855" fill="#ffb900"/><path d="M16.396 14.878l1.937-.961 5.473.92-.565.302a45.387 45.387 0 0 0-5.257-.287c-.542 0-1.07.01-1.588.026" fill="#f4bd61"/><path d="M19 17.708l-6.203-.833 3.599-1.998a54.626 54.626 0 0 1 1.588-.026c1.935 0 3.734.106 5.257.287L19 17.708z" fill="#f1f2f2"/><path d="M18.3 8.24l4.438 1.36 1.068 5.237-5.473-.92L18.3 8.24z" fill="#e9ab61"/><path d="M16.396 14.878c-1.25.038-2.42.12-3.467.238l.464-5.265L18.3 8.24l.034 5.677-1.937.96z" fill="#e4973e"/><path d="M12.797 16.875l.132-1.76a43.349 43.349 0 0 1 3.467-.237l-3.6 1.997z" fill="#d1d3d4"/><path d="M30.088 28.17a1.18 1.18 0 0 1-1.276-1.064l-1.478-16.255c-.57-3.085-1.957-4.85-6.334-4.85h-6c-4.596 0-5.896 1.946-6.414 5.323L7.15 27.106a1.174 1.174 0 1 1-2.34-.213L6.818 4.844c.255-1.919 1.41-3.019 3.165-3.019h16c2.535 0 3.022 1.737 3.169 3.068l2 22a1.175 1.175 0 0 1-1.063 1.277" fill="#8899a6"/><path d="M31.2 27.002c0-1.85-4.028-3.35-13.2-3.35s-13.2 1.5-13.2 3.35c0 1.851 4.028 3.35 13.2 3.35s13.2-1.499 13.2-3.35" fill="#ccd6dd"/><path d="M30.53 26.898a1.002 1.002 0 0 1-1.375.336c-2.333-1.417-8.814-1.604-11.12-1.547-.009 0-.016-.004-.023-.004-.008 0-.014.004-.022.004-2.299-.057-8.785.13-11.12 1.546a1 1 0 0 1-1.038-1.71c2.796-1.694 9.322-1.841 11.495-1.841.371 0 .608.004.685.006.078-.002.315-.006.685-.006 2.174 0 8.7.147 11.495 1.842a1 1 0 0 1 .337 1.374" fill="#fff"/></g></svg>