<svg xmlns="http://www.w3.org/2000/svg" viewBox="0 0 45 45"><defs><clipPath id="a"><path d="M0 36h36V0H0v36z"/></clipPath></defs><g clip-path="url(#a)" transform="matrix(1.25 0 0 -1.25 0 45)"><path d="M13.679 32.035L6.546 3.992l6.086-1.773c.927-.27 1.204 1.727-.711 2.284-.928.27-3.694 1.694-2.744 4.955l1.395 4.785c.262.899 1.47 1.034 2.473 1.358 1.008.326 3.543 1.467 4.825 5.865 1.28 4.398 1.433 12.046 1.433 12.046l-3.83 1.116s-1.768-2.503-1.794-2.593" fill="#ccd6dd"/><path d="M14.636 31.755L6.546 3.991.46 5.765c-.927.27-.049 2.124 1.866 1.567.927-.27 3.986-.578 4.936 2.682l1.395 4.787c.262.898-.553 1.557-1.357 2.473-.699.796-2.2 3.141-.919 7.54 1.282 4.396 5.262 10.93 5.262 10.93l3.83-1.117-.837-2.872" fill="#ccd6dd"/><path d="M11.78 4.024c-.807.235-2.567.878-3.254 2.864-.276.795-1.22.555-1.062-.08.654-2.658 3.28-3.553 4.239-3.832.957-.279 1.065.76.078 1.048" fill="#9aaab4"/><path d="M23.194 29.886l5.111-28.48S23.053.275 22.11.07c-.944-.203-1.077 1.81.872 2.23.944.202 3.806 1.423 3.091 4.744l-1.05 4.874c-.197.914-1.392 1.136-2.369 1.53-.983.397-3.43 1.716-4.395 6.194-.963 4.478-.568 12.118-.568 12.118l3.9.84s1.583-2.624 1.604-2.715" fill="#ccd6dd"/><path d="M19.252 32.098l-1.562-.336s-.29-5.637.241-10.066c.893 3.236 1.214 8.042 1.321 10.402" fill="#9aaab4"/><path d="M22.219 29.676l6.087-28.27 6.196 1.334c.946.203.2 2.115-1.748 1.695-.944-.203-4.017-.29-4.732 3.03l-1.05 4.874c-.196.915.662 1.513 1.53 2.37.754.743 2.419 2.974 1.455 7.453-.964 4.478-4.467 11.278-4.467 11.278l-3.901-.839.63-2.925" fill="#ccd6dd"/><path d="M23.086 1.813c.823.177 2.624.69 3.45 2.623.333.773 1.256.468 1.055-.155-.842-2.605-3.526-3.31-4.502-3.52-.975-.21-1.008.836-.003 1.051" fill="#9aaab4"/><path d="M25.415 14.198c1.933.28 4.238 2.244 4.051 4.861-.125 1.751-.572 1.744-1.683 1.091-1.215-.717-4.816-2.229-7.416.218-1.59 1.496-1.461 4.02-1.745 2.524-.25-1.309.001-3.257 1.277-5.703 1.122-2.15 3.169-3.333 5.516-2.99M10.755 16.473c-1.932.28-4.244 2.244-4.05 4.86.075 1.03.98.424 2.038-.31 1.527-1.06 5.04-1.147 7.23 1.184 1.464 1.558 1.242 3.894 1.526 2.399.25-1.31.048-2.695-1.228-5.141-1.122-2.151-3.169-3.333-5.516-2.992" fill="#9d0522"/><path d="M29 32c-.55 0-1 .45-1 1v2c0 .55.45 1 1 1s1-.45 1-1v-2c0-.55-.45-1-1-1M30.556 29.994l-.062.062a.958.958 0 0 0 0 1.352l3.598 3.598a.96.96 0 0 0 1.353 0l.06-.062a.96.96 0 0 0 0-1.353l-3.596-3.597a.96.96 0 0 0-1.353 0" fill="#9aaab4"/></g></svg>