<svg xmlns="http://www.w3.org/2000/svg" viewBox="0 0 45 45"><defs><clipPath id="a"><path d="M0 36h36V0H0v36z"/></clipPath></defs><g clip-path="url(#a)" transform="matrix(1.25 0 0 -1.25 0 45)"><path d="M19.598 35.674c9.613 0 12.243-1.697 12.243-11.312 0-5.506-1.167-8.488-1.167-13.488 0-2.958-4.55-3-8.659-3-4.218 0-9.142-.199-11.34 2-6 6-10.546 16.45-2 19 .454 6.512 1.31 6.8 10.923 6.8" fill="#be1931"/><path d="M26.736 10C28.966 10 31 9.142 31 7.097V3.578C31 1.533 28.966 0 26.736 0H15v10h11.736z" fill="#99aab5"/><path d="M22.341 10c2.454 0 4.66-.858 4.66-2.903V3.578C27 1.533 24.794 0 22.34 0h-7.333C12.553 0 11 1.533 11 3.578v3.519C11 9.142 12.553 10 15.008 10h7.333z" fill="#ccd6dd"/><path d="M4.292 25.052c.715.575 1.862 1.424 2.383-1.178 1-5 3.794-9.384 3-7-1 3-1 12-1 12-2.436-.727-3.805-2.097-4.383-3.822" fill="#a0041e"/><path d="M21.674 8C22.778 8 24 7.462 24 6.541V3.208C24 2.288 22.778 2 21.674 2h-5C15.57 2 15 2.288 15 3.208v3.333C15 7.462 15.57 8 16.674 8h5z" fill="#e1e8ed"/></g></svg>