<svg xmlns="http://www.w3.org/2000/svg" viewBox="0 0 45 45"><defs><clipPath id="a"><path d="M0 36h36V0H0v36z"/></clipPath></defs><g clip-path="url(#a)" transform="matrix(1.25 0 0 -1.25 0 45)"><path d="M30 22.119l-1.553.776c-.314.158-1.26.105-1.447.105h-2v2h2.764L30 23.883v-1.764zm0-4l-1.553.776c-.314.158-1.26.105-1.447.105h-2v2h2.764L30 19.883v-1.764zm0-4l-1.553.777c-.314.156-1.26.104-1.447.104h-2v2h2.764L30 15.883v-1.764zm0-4l-1.553.777c-.314.156-1.26.104-1.447.104h-2v2h2.765L30 11.883v-1.764zm-7 12.883h-2v2h2v-2zm0-4h-2v2h2v-2zM23 15h-2v2h2v-2zm0-4h-2v2h2v-2zm-4 12.002h-2v2h2v-2zm0-4h-2v2h2v-2zM19 15h-2v2h2v-2zm0-4h-2v2h2v-2zm-4 12.002h-2v2h2v-2zm0-4h-2v2h2v-2zM15 15h-2v2h2v-2zm0-4h-2v2h2v-2zm-4 12H9c-.187 0-1.132.052-1.447-.105L6 22.119v1.763L8.236 25H11v-2zm0-4H9c-.187 0-1.132.052-1.447-.105L6 18.119v1.763L8.236 21H11v-2zm0-4H9c-.187 0-1.132.05-1.447-.105L6 14.119v1.763L8.236 17H11v-2zm0-4H9c-.187 0-1.132.05-1.447-.105L6 10.119v1.763L8.236 13H11v-2zm22.553 7.106a1.003 1.003 0 0 1 1.342.448 1 1 0 0 1-.448 1.34L32 21.12v1.764l1.553-.777a1.003 1.003 0 0 1 1.342.448 1 1 0 0 1-.448 1.34L32 25.12v3.88a1 1 0 1 1-2 0v-2.88l-1.553.776c-.314.157-1.26.105-1.447.105h-2v3a1 1 0 1 1-2 0v-3h-2v3a1 1 0 1 1-2 0v-3h-2v3a1 1 0 1 1-2 0v-3h-2v2.973a1 1 0 0 1-2 0V27H9c-.187 0-1.132.052-1.447-.105L6 26.119v2.88a1 1 0 1 1-2 0v-3.88l-2.447-1.224a1 1 0 0 1 .894-1.79L4 22.883v-1.763l-2.447-1.224a1 1 0 0 1 .894-1.79L4 18.883v-1.763l-2.447-1.224a1 1 0 0 1 .894-1.79L4 14.883v-1.763l-2.447-1.224a1 1 0 0 1 .894-1.79L4 10.883V9.119L1.553 7.895a1 1 0 0 1 .894-1.79L4 6.883V6a1 1 0 0 1 2 0v1.882L8.236 9H11V7.135a1 1 0 1 1 2 0V9h2V7a1 1 0 0 1 2 0v2h2V6.854a1 1 0 1 1 2 0V9h2V6.854a1 1 0 1 1 2 0V9h2.765L30 7.883V6a1 1 0 1 1 2 0v.883l1.553-.776a1 1 0 0 1 .894 1.789L32 9.119v1.764l1.553-.776a1 1 0 0 1 .894 1.789L32 13.119v1.764l1.553-.776a1 1 0 0 1 .894 1.789L32 17.119v1.764l1.553-.777z" fill="#ccd6dd"/><path d="M1.999 2a1.002 1.002 0 0 0-.831 1.555c1.465 2.194 3.785 3.446 6.379 3.446L7.661 7h20.692c2.603.06 4.994-1.218 6.479-3.444a1 1 0 1 0-1.664-1.11C32.051 4.121 30.384 5.059 28.366 5H7.647c-1.99.014-3.697-.879-4.815-2.555A1 1 0 0 0 1.999 2" fill="#8c989f"/><path d="M28 6a1 1 0 0 0-1 1v22.676a1 1 0 1 0 2 0V7a1 1 0 0 0-1-1M8 6.135a1 1 0 0 0-1 1v22.837a1 1 0 1 0 2 0V7.135a1 1 0 0 0-1-1" fill="#8c989f"/><path d="M34 1.75c-.69 0-1.25.56-1.25 1.25v21A4.756 4.756 0 0 1 28 28.75H8A4.756 4.756 0 0 1 3.25 24V3a1.25 1.25 0 0 0-2.5 0v21c0 3.998 3.252 7.25 7.25 7.25h20c3.998 0 7.25-3.252 7.25-7.25V3c0-.69-.56-1.25-1.25-1.25" fill="#be2032"/></g></svg>