<svg xmlns="http://www.w3.org/2000/svg" viewBox="0 0 45 45"><defs><clipPath id="a"><path d="M0 36h36V0H0v36z"/></clipPath></defs><g clip-path="url(#a)" transform="matrix(1.25 0 0 -1.25 0 45)"><path d="M34 30c-2 3-9 4-16 4S3 33 2 31C.093 27.186 1 11 1 10s5-1 5-1v13l1 2V1s3-1 11-1 11 1 11 1v23l1-2V9s5 0 5 1 1.365 16.452-1 20" fill="#e1e8ed"/><path d="M7 9H6v13c0 1 1 2 1 2V9zM30 9h-1v15s1-1 1-2V9z" fill="#99aab5"/><path d="M11.781 34l6.281-11.344L24 34l-6.11 1.25L11.781 34z" fill="#66757f"/><path d="M12 35.375s2.25.547 6 .547 6-.547 6-.547V33s-1.625 1-6 1-6-1-6-1v2.375z" fill="#ccd6dd"/><path d="M7 1s17.748 31.659 17.748 32.638c0 1-.748 1.737-.748 1.737L7 4V1z" fill="#99aab5"/><path d="M17.818 21.278s-6.692 11.38-6.692 12.36c0 1 .874 1.737.874 1.737l6.761-12.573-.943-1.524z" fill="#99aab5"/><path d="M7 14s5-2 11-2 11 2 11 2v-3s-4-2-11-2-11 2-11 2v3z" fill="#292f33"/><path d="M21 12s-2 1-3 1-3-1-3-1-1 0-1-1 1-2 1-2 2-1 3-1 3 1 3 1 1 1 1 2-1 1-1 1" fill="#292f33"/><path d="M12 3l3-1s1 5 3 7l-2 3s-3-4-4-9M24 3l-3-1s-1 5-3 7l2 3s3-4 4-9" fill="#292f33"/></g></svg>