<svg xmlns="http://www.w3.org/2000/svg" viewBox="0 0 45 45"><defs><clipPath id="a"><path d="M0 36h36V0H0v36z"/></clipPath></defs><g clip-path="url(#a)" transform="matrix(1.25 0 0 -1.25 0 45)"><path d="M22.781 31.285s-5.69 7.14-10.656 3.697c-3.683-2.554-3.667-7.228-3.304-9.478.371-2.298 1.504-7.529 2.194-11.914.69-4.397 1.178-8.329 1.893-12.912.182-1.16 4.07-.522 3.965.613-.177 1.944-1.82 8.965-2.258 12.05-.404 2.865-1.365 8.421-1.928 11.65-.619 3.545-.28 6.675 2.148 7.39 2.787.818 5.55-3.836 5.55-3.836l2.396 2.74z" fill="#78b159"/><path d="M13.081 19.575s1.71-.642 2.871-1.803c1.536-1.536 2.471-4.541 1.27-7.948-.74-2.092 1.068-5.074 1.068-5.074s-2.013 1.077-3.272 2.67c-1.279 1.619-2.12 3.834-2.297 5.649-.117 1.197-.174 3.568.36 6.506" fill="#c6e4b5"/><path d="M10.276 22.023c-.786-.363-2.993-3.198-3.242-4.768C5.997 10.705 9.913 6.43 9.913 6.43s.688 3.983 1.76 5.42c1.246 1.67.546 5.677 0 7.152-.39 1.054-1.397 3.02-1.397 3.02" fill="#a6d388"/><path d="M24.735 27.742c-.786-1.067-2.577-1.082-3.999-.033-1.423 1.048-1.938 2.763-1.15 3.83.784 1.067 2.575 1.082 3.998.033 1.422-1.048 1.937-2.763 1.151-3.83" fill="#78b159"/><path d="M26.205 30.63c.845-1.281.107-3.255-1.645-4.41-1.752-1.154-3.858-1.052-4.702.229-.842 1.28-.106 3.254 1.647 4.409 1.753 1.155 3.856 1.053 4.7-.228" fill="#78b159"/><path d="M20.71 27.856c-.874-1.148-2.897-1.476-2.897-1.476s1.695-1.257 2.733-.546c1.038.71.164 2.022.164 2.022M23.26 31.136c-.054.82 1.313 2.295 1.968 1.913 0 0-.874-.984-.054-1.585.819-.601-1.913-.328-1.913-.328" fill="#78b159"/><path d="M21.25 27.334c-1.791-.958-3.399-3.232-2.56-7.593.726-3.774 3.918-5.321 2.855-7.836-.986-2.335.822-6.097 3.228-.392.754 1.788 2.811 9.279.769 13.863-1.228 2.756-3.454 2.407-4.292 1.958" fill="#da2f47"/><path d="M23.354 28.92c1.322 1.933 3.245 2.175 4.54.946 6.035-5.723 3.545-16.947-.52-19.366-2.402-1.43-.845 7.21-4.087 10.74-1.906 2.076-1.96 5.271.067 7.68" fill="#e75a70"/></g></svg>