<svg xmlns="http://www.w3.org/2000/svg" viewBox="0 0 45 45"><defs><clipPath id="a"><path d="M0 36h36V0H0v36z"/></clipPath><clipPath id="b"><path d="M8 36c-2.958 0-6-5-5-7 1.613-3.225 12-13 12-13h6s10 10 12 13c1 2-2.333 7-5 7H8zm4-8c-2 2-1 2 6 2 8 0 7.5-.5 6-2l-6-6-6 6z"/></clipPath><clipPath id="c"><path d="M0 36h36V0H0v36z"/></clipPath></defs><g clip-path="url(#a)" transform="matrix(1.25 0 0 -1.25 0 45)"><path d="M24 28l-6-6-6 6c-2 2-1 2 6 2 8 0 7.5-.5 6-2m4 8H8c-2.958 0-6-5-5-7 1.612-3.225 12-13 12-13h6s10 10 12 13c1 2-2.333 7-5 7" fill="#55acee"/></g><g clip-path="url(#b)" transform="matrix(1.25 0 0 -1.25 0 45)"><path d="M13 27c-1 1-8 9-3 9h16c2.268 0 4-2-2-8-3-3-11-1-11-1" fill="#3b88c3"/></g><g clip-path="url(#c)" transform="matrix(1.25 0 0 -1.25 0 45)"><path d="M22 15.5a1.5 1.5 0 0 0-1.5-1.5h-5a1.5 1.5 0 1 0 0 3h5a1.5 1.5 0 0 0 1.5-1.5" fill="#ccd6dd"/><path d="M26 8a8 8 0 1 0-16 0 8 8 0 0 0 16 0" fill="#ccd6dd"/><path d="M14.935 4.061c.813 1.065 2.89 3.885 3.716 5.146.182.281.365.673.365 1.066 0 .534-.45 1.01-1.235 1.01-.575 0-1.094-.406-1.36-.7a.269.269 0 0 0-.392 0l-.856.868c-.098.085-.112.253-.014.365 0 0 1.136 1.374 2.805 1.374 2.005 0 3.183-1.275 3.183-2.832 0-.744-.21-1.164-.547-1.823-.448-.8-1.599-2.3-2.257-3.226H21a.276.276 0 0 0 .266-.267v-1.26A.276.276 0 0 0 21 3.513h-5.799a.266.266 0 0 0-.266.267v.28z" fill="#627077"/></g></svg>