<svg xmlns="http://www.w3.org/2000/svg" viewBox="0 0 45 45"><defs><clipPath id="a"><path d="M0 36h36V0H0v36z"/></clipPath></defs><path d="M0 33.75h45V22.5H0v11.25z" fill="#f18f26"/><g clip-path="url(#a)" transform="matrix(1.25 0 0 -1.25 0 45)"><path d="M36 10c0-4.971-8.059-9-18-9S0 5.029 0 10s8.059 9 18 9 18-4.029 18-9" fill="#f18f26"/><path d="M36 9c0-4.971-8.059-9-18-9S0 4.029 0 9s8.059 9 18 9 18-4.029 18-9" fill="#f18f26"/><path d="M0 26V10h.117C1.113 5.501 8.736 2 18 2s16.887 3.501 17.883 8H36v16H0z" fill="#9d0522"/><path d="M36 25c0-4.971-8.059-9-18-9S0 20.029 0 25s8.059 9 18 9 18-4.029 18-9" fill="#f18f26"/><path d="M36 24c0-4.971-8.059-9-18-9S0 19.029 0 24s8.059 9 18 9 18-4.029 18-9" fill="#f18f26"/><path d="M1 24H0v2h1v-2zM36 24h-1v2h1v-2z" fill="#f18f26"/><path d="M36 26c0-4.971-8.059-9-18-9S0 21.029 0 26s8.059 9 18 9 18-4.029 18-9" fill="#fcab40"/><path d="M35 26c0-4.418-7.611-8-17-8S1 21.582 1 26s7.611 8 17 8 17-3.582 17-8" fill="#f5f8fa"/><path d="M18 33c9.03 0 16.395-3.316 16.946-7.5.022.166.054.331.054.5 0 4.418-7.611 8-17 8S1 30.418 1 26c0-.169.032-.334.054-.5C1.605 29.684 8.97 33 18 33" fill="#fdd888"/><path d="M28.601 33.401c.44.33.53.96.2 1.4l-.6.8c-.33.44-.96.53-1.4.2L14.157 25.757c-.774.167-1.785-.083-2.673-.749-1.326-.994-1.863-2.516-1.2-3.4.663-.883 2.274-.794 3.6.2.835.626 1.355 1.461 1.462 2.215l13.255 9.378zM34.47 30.482l-.51.861c-.28.473-.896.632-1.369.352l-13.913-8.75c-.719.14-1.626-.024-2.473-.524-1.426-.843-2.127-2.297-1.565-3.248.562-.95 2.174-1.039 3.6-.196 1.005.594 1.638 1.49 1.735 2.301l14.142 7.834c.473.28.632.896.352 1.37" fill="#aa695b"/><path d="M2 8c-.55 0-1 .45-1 1v9c0 .55.45 1 1 1s1-.45 1-1V9c0-.55-.45-1-1-1M11 4c-.55 0-1 .45-1 1v9c0 .55.45 1 1 1s1-.45 1-1V5c0-.55-.45-1-1-1M23 4c-.55 0-1 .45-1 1v9c0 .55.45 1 1 1s1-.45 1-1V5c0-.55-.45-1-1-1M34 8c-.55 0-1 .45-1 1v9c0 .55.45 1 1 1s1-.45 1-1V9c0-.55-.45-1-1-1" fill="#da2f47"/></g></svg>