<svg xmlns="http://www.w3.org/2000/svg" viewBox="0 0 45 45"><defs><clipPath id="a"><path d="M0 36h36V0H0v36z"/></clipPath></defs><g clip-path="url(#a)" transform="matrix(1.25 0 0 -1.25 0 45)"><path d="M18 1C3.042 1 1 15 1 19h34c0-2-1.958-18-17-18" fill="#ccd6dd"/><path d="M35 18.944C35 13.728 27.389 9.5 18 9.5S1 13.728 1 18.944c0 5.216 7.611 8.444 17 8.444s17-3.228 17-8.444" fill="#66757f"/><path d="M2.708 17.125c-.808 1.161-2.333 3.5-.708 7 .708 1.833 2.18 3.027 2.375 2.458.458-1.333 1.375-2.5 2.75-2.375-.018-.473-.668 4.309 1.625 5.584 1.125.625 2.333-.375 3.708-2.584 2.202-3.536 7.811-1.884 9.385-.958 1.594.938 2.991 1.552 2.574 4.063-.092.55.743 1.029 1.594.573 1.431-.766 3.498-2.671 3.864-4.761 1.02-.271 1.786.163 2.375 1.354.293.59 1.293.729 1.72-.041.754-1.356 1.992-5.526.24-9.105-2-4.083-5.042-6.25-11.875-7.125-6.834-.875-15.626.167-19.626 5.917" fill="#77b255"/><path d="M19.417 25.854c0-2.105-1.81-3.813-4.042-3.813-2.232 0-4.042 1.708-4.042 3.813 0 2.105 1.81 3.813 4.042 3.813 2.232 0 4.042-1.708 4.042-3.813" fill="#5c913b"/><path d="M18.417 25.854c0-1.585-1.362-2.87-3.042-2.87-1.68 0-3.042 1.284-3.042 2.87 0 1.585 1.362 2.87 3.042 2.87 1.68 0 3.042-1.285 3.042-2.87" fill="#c6e5b3"/><path d="M10.459 21.5c0-1.104-1.026-2-2.292-2-1.266 0-2.292.896-2.292 2 0 1.105 1.026 2 2.292 2 1.266 0 2.292-.895 2.292-2" fill="#292f33"/><path d="M17.524 20.818c1.267-2.388-2.104-.951-4.614-2.284-2.51-1.332-3.209-4.928-4.477-2.541-1.267 2.388-.26 5.405 2.25 6.737 2.51 1.332 5.573.476 6.841-1.912" fill="#dd2e44"/><path d="M26.459 23.5c0-1.104-1.026-2-2.292-2-1.266 0-2.292.896-2.292 2 0 1.105 1.026 2 2.292 2 1.266 0 2.292-.895 2.292-2" fill="#292f33"/><path d="M29.117 15.871c-1.564-1.48-1.178 1.412-2.734 3.056-1.558 1.644-4.466 1.415-2.904 2.896 1.564 1.482 4.094 1.35 5.651-.294 1.556-1.643 1.55-4.177-.013-5.658" fill="#9266cc"/><path d="M28.117 14.871c-1.564-1.48-1.178 1.412-2.734 3.057-1.558 1.643-4.466 1.414-2.904 2.895 1.564 1.482 4.094 1.35 5.651-.294 1.556-1.643 1.55-4.177-.013-5.658" fill="#e1e8ed"/><path d="M24.013 16.072c.78-2.063-1.798-.555-3.966-1.377-2.166-.82-3.1-3.658-3.881-1.597-.781 2.06.343 4.398 2.509 5.22 2.167.82 4.557-.186 5.338-2.246" fill="#dd2e44"/><path d="M8.959 16.916c-.167 1.542 2.834 8.418 8.167 2.417-1.25-.208-4.292-.208-5.667-2.125-1.375-1.916-2.625-.208-2.5-.292" fill="#ea596e"/><path d="M4.917 16.291c-.728.971 1.75 3.209 3.625 1.293.792.958 4.708 2.874 6.167-1.293.666.75 6.125.917 6.208-3.708.041-.625-6.295-.506-9.542.25-1.791.417-5.083 1.625-6.458 3.458M26 13.542c-1.167-.315.793 5.125 4.459 4.208.125 1 .916 4.292 3.208 3.708.083-.958.041-5.832-7.667-7.916" fill="#a6d388"/></g></svg>