<svg xmlns="http://www.w3.org/2000/svg" viewBox="0 0 45 45"><defs><clipPath id="a"><path d="M0 36h36V0H0v36z"/></clipPath></defs><path d="M10.971 5.573L13.491 40h17.915l2.735-34.453-23.17.026z" fill="#ccd6dd"/><path d="M31.25 39.102l-17.617.195-1.273-19.14h20.307L31.25 39.102z" fill="#fff"/><g clip-path="url(#a)" transform="matrix(1.25 0 0 -1.25 0 45)"><path d="M27.844 31.635l-1.97-27.66C25.729 2.495 25.07 2 23.907 2H12.094c-.975 0-1.803.586-1.97 1.975l-1.967 27.66" fill="none" stroke="#8899a6" stroke-width="2.35" stroke-linecap="round" stroke-miterlimit="10"/><path d="M8.156 31.647S9.582 13.782 9.91 9.55c.277-3.58.74-5.55 5.463-5.55H18M27.844 31.647S26.418 13.782 26.09 9.55C25.814 5.97 25.35 4 20.628 4H18" fill="none" stroke="#8899a6" stroke-width="2" stroke-linecap="round" stroke-miterlimit="10"/><path d="M29 31.917c0-1.703-2.73-3.083-11-3.083s-11 1.38-11 3.083C7 33.62 9.73 35 18 35s11-1.38 11-3.083" fill="#ccd6dd"/><path d="M28.532 31.872a1 1 0 0 1-1.387.276c-2.086-1.393-7.274-1.57-9.097-1.524-.01.001-.019-.004-.029-.004-.009 0-.016.005-.025.004-1.819-.049-7.008.128-9.097 1.524a1 1 0 0 1-1.11-1.663c2.57-1.717 7.916-1.866 9.687-1.866.29 0 .476.004.547.006.071-.002.258-.006.548-.006 1.771 0 7.117.15 9.688 1.866a.999.999 0 0 1 .275 1.387" fill="#fff"/><path d="M25.817 19.94c0-.808-3.504-1.464-7.827-1.464-4.322 0-7.827.656-7.827 1.464 0 .808 3.505 1.464 7.827 1.464 4.323 0 7.827-.656 7.827-1.464" fill="#e1e8ed"/><path d="M25.208 2.625H11.041v1.833h14.167V2.625z" fill="#8899a6"/></g></svg>