<svg xmlns="http://www.w3.org/2000/svg" viewBox="0 0 45 45"><defs><clipPath id="a"><path d="M0 36h36V0H0v36z"/></clipPath><clipPath id="b"><path d="M5.468 34.969s-2.142-3.001-1.999-5c.143-1.999-3-4.999-3-4.999.118-1.059 1-3.001 3-4.001.984-.492 2.444-.444 4-2 1.556-1.557 2.785-6.102 4.342-7.659 1.555-1.556 5.101-1.784 6.658-3.341 1.556-1.556 1.153-3.297 2-4 1.877-1.56 2.999-3.001 3.999-3.001 0 0 3.001 1 4.002 1 2.828 0 6.999 3.001 6.999 3.001s1 1-5 4.999c-1.178.785-1 4.001-3 6.001s-5 2-7 4c-2 2.001-2 5.001-4 7-2.001 2.001-5.216 1.824-6 3-3 4.5-4.313 5.062-4.782 5.062-.156 0-.219-.062-.219-.062"/></clipPath></defs><g clip-path="url(#a)" transform="matrix(1.25 0 0 -1.25 0 45)"><path d="M20.469 3.969c-.847.703-.443 2.444-2 4-1.557 1.557-5.102 1.785-6.658 3.342-1.557 1.556-2.785 6.1-4.342 7.659-1.556 1.556-3.016 1.507-4 2-2 1-2.882 2.942-3 4 0 0 3.143 3 3 4.999-.143 2 2 5 2 5s1 1 5-5c.784-1.176 4-1 6-3s2-5 4-7 5-2 7-4 1.822-5.216 3-6c6-4 5-5 5-5s-4.17-3-7-3c-1 0-4-1-4-1-1 0-2.123 1.44-4 3" fill="#dd2e44"/></g><g clip-path="url(#b)" transform="matrix(1.25 0 0 -1.25 0 45)"><path d="M19.592 3.528c-.916.61-.777 3.113-2.334 4.67-1.557 1.556-3.891 1.556-5.447 3.112-1.557 1.557-1.557 3.891-3.113 5.448-1.556 1.556-4.06 1.418-4.67 2.334C1.775 22.476.748 22.995.352 23.027l5.118 11.941s1 1.001 5-4.999c.784-1.177 4-1 6-3s2-5 4-7 5-2 7-4 1.822-5.216 3-6c6-4 5-5 5-5L23.528-.15c-.032.397-.553 1.423-3.936 3.678" fill="#dd2e44"/><path d="M34.469 3.969l-14-6-22 22 6 14s1 1 5-5c.784-1.176 4-1 6-3s2-5 4-7 5-2 7-4 1.822-5.216 3-6c6-4 5-5 5-5" fill="#f4abba"/><path d="M33.469 2.969l-14-6-22 22 6 14s1 1 5-5c.784-1.176 4-1 6-3s2-5 4-7 5-2 7-4 1.822-5.216 3-6c6-4 5-5 5-5" fill="#ffe8b6"/><path d="M32.469 1.969l-14-6-22 22 6 14s1 1 5-5c2-3 4-2 6-4s2-4 4-6 4-2 6-4 1-4 4-6c6-4 5-5 5-5" fill="#ea596e"/><path d="M30.469-.031l-14-6-22 22 6 14s1 2 5-4c.784-1.176 4-1 6-3s2-6 4-8 5-2 7-4 2.822-5.216 4-6c6-4 4-5 4-5" fill="#ffe8b6"/><path d="M29.469-1.031l-14-6-22 22 6 14s1 1 5-5c.784-1.176 4-1 6-3s2-5 4-7 5-2 7-4 1.822-5.216 3-6c6-4 5-5 5-5" fill="#ea596e"/><path d="M28.469-2.031l-14-6-22 22 6 14s1 1 5-5c.784-1.176 4-1 6-3s2-5 4-7 5-2 7-4 1.822-5.216 3-6c6-4 5-5 5-5" fill="#dd2e44"/></g></svg>