<svg xmlns="http://www.w3.org/2000/svg" viewBox="0 0 45 45"><defs><clipPath id="a"><path d="M0 36h36V0H0v36z"/></clipPath></defs><g clip-path="url(#a)" transform="matrix(1.25 0 0 -1.25 0 45)"><path d="M5 34.139c1-1 2-4 2-5s-1-3-2-1-1 3-2 4c-1.727 1.727 1 3 2 2" fill="#77b255"/><path d="M8 32.139c2.91.728 5-2 8-6s6.705-7.564 8.476-8.93C28.784 13.885 35 9.889 35 5.139c0-4-2.611-5.454-7.834-5.083C22.179.41 16.526 4.706 12 10.139c-5 6-7.735 10.205-9 14-1 3 1 7 5 8" fill="#77b255"/><path d="M5.291 24.347c1.645-2.52 8.25-13.876 19.184-20.708M6.583 28.055c1.645-2.52 8.25-13.542 21.625-22.5M10.583 28.014c1.85-2.673 6.25-9.208 13.708-14.792" fill="none" stroke="#5c913b" stroke-width="1.5" stroke-linecap="round" stroke-linejoin="round" stroke-miterlimit="10"/></g></svg>