<svg xmlns="http://www.w3.org/2000/svg" viewBox="0 0 45 45"><defs><clipPath id="a"><path d="M0 36h36V0H0v36z"/></clipPath></defs><g clip-path="url(#a)" transform="matrix(1.25 0 0 -1.25 0 45)"><path d="M25.94 20.813c2.045-8.24-1.643-16.246-8.235-17.881C11.113 1.293 4.112 6.65 2.067 14.889.023 23.129 3.71 31.136 10.302 32.77c6.59 1.635 13.593-3.719 15.638-11.959" fill="#c1694f"/><path d="M34.147 22.849c2.39-9.635-6.295-17.402-14.948-19.548-8.653-2.145-14.34 3.532-16.386 11.774-2.043 8.239.329 15.92 8.98 18.066 8.653 2.147 19.8-.005 22.354-10.292" fill="#c1694f"/><path d="M15.134 5.038c-4.939 0-9.603 4.35-11.09 10.341-1.72 6.931 1.35 13.68 6.841 15.041a8.243 8.243 0 0 0 1.986.243c4.94 0 9.604-4.35 11.092-10.342.837-3.377.576-6.807-.739-9.66-1.296-2.814-3.463-4.726-6.1-5.38a8.28 8.28 0 0 0-1.99-.243" fill="#77b255"/><path d="M12.871 31.163a8.801 8.801 0 0 1-2.106-.257C4.996 29.474 1.77 22.47 3.56 15.26 5.131 8.924 10.051 4.54 15.134 4.54a8.74 8.74 0 0 1 2.11.257c5.766 1.43 8.993 8.435 7.204 15.646-1.573 6.335-6.494 10.721-11.577 10.721m0-1c4.713 0 9.174-4.19 10.606-9.962.811-3.268.56-6.58-.707-9.33-1.23-2.675-3.279-4.487-5.768-5.104a7.73 7.73 0 0 0-1.868-.229c-4.712 0-9.172 4.19-10.604 9.962-1.654 6.663 1.252 13.14 6.476 14.435a7.805 7.805 0 0 0 1.865.228" fill="#a6d388"/><path d="M18.974 17.482l-2.8-1.312 1.657-4.152-2.955 2.326-.697-4.17-1.377 4.098-2.652-1.745 1.006 3.975-3.042 1.702 2.799 1.315-1.657 4.15 2.958-2.117.696 4.172 1.379-4.31 2.645 1.746-1-3.974 3.04-1.704z" fill="#a6d388"/><path d="M18.974 17.482l-2.8-1.312 1.657-4.152-2.955 2.326-.697-4.17-1.377 4.098-2.652-1.745 1.006 3.975-3.042 1.702 2.799 1.315-1.657 4.15 2.958-2.117.696 4.172 1.379-4.31 2.645 1.746-1-3.974 3.04-1.704z" fill="none" stroke="#a6d388" stroke-width="2" stroke-linecap="round" stroke-linejoin="round" stroke-miterlimit="10"/><path d="M16.788 17.981l-1.71-.812 1.077-2.538-1.846 1.287-.378-2.555-.91 2.634-1.606-1.077.566 2.437-1.903 1.033 1.707.814-1.078 2.54 1.851-1.288.373 2.557.912-2.637 1.61 1.078-.567-2.438 1.902-1.035z" fill="#c6e5b3"/><path d="M16.788 17.981l-1.71-.812 1.077-2.538-1.846 1.287-.378-2.555-.91 2.634-1.606-1.077.566 2.437-1.903 1.033 1.707.814-1.078 2.54 1.851-1.288.373 2.557.912-2.637 1.61 1.078-.567-2.438 1.902-1.035z" fill="none" stroke="#c6e5b3" stroke-linecap="round" stroke-linejoin="round" stroke-miterlimit="10"/><path d="M9.306 21.043c.23-.497.147-1.024-.185-1.178-.332-.153-.786.127-1.016.624-.23.497-.147 1.024.185 1.178.33.153.787-.127 1.016-.624M16.004 23.98c-.129-.532-.52-.894-.875-.81-.357.087-.539.59-.41 1.121.13.532.521.894.877.807.354-.086.537-.586.408-1.119M13.36 14.065c-.129-.532-.52-.894-.876-.81-.356.088-.538.589-.409 1.122.13.53.521.894.877.807.353-.086.537-.587.408-1.12M16.576 11.887c.23-.497.147-1.023-.185-1.18-.33-.15-.786.129-1.016.626-.228.496-.147 1.024.185 1.178.331.152.786-.127 1.016-.624M17.697 19.57c-.304-.291-.68-.391-.843-.225-.16.169-.046.542.258.834.303.292.681.393.843.225.162-.17.047-.542-.258-.834M12.423 21.935c.18-.38.158-.768-.053-.87-.212-.099-.53.128-.71.51-.18.38-.156.768.056.87.21.1.528-.129.707-.51M8.443 14.84c-.304-.291-.68-.391-.843-.224-.16.169-.046.542.258.834.303.29.68.393.843.225.162-.17.047-.542-.258-.834M19.065 15.769c.33-.355.382-.842.116-1.093-.267-.246-.752-.16-1.082.195-.329.356-.384.843-.115 1.094.266.248.75.16 1.081-.196" fill="#292f33"/></g></svg>