<svg xmlns="http://www.w3.org/2000/svg" viewBox="0 0 45 45"><defs><clipPath id="a"><path d="M0 36h36V0H0v36z"/></clipPath><clipPath id="b"><path d="M.25 23c0-4.383 2-11.999 11-16 18.131-8.058 23 0 24 3.001 1.703 5.108 0 15.999-12 13.999 0 3.001-2.286 4.626-5 7.001-2.204 1.929-4.56 2.731-6.817 2.73C5.499 33.731.25 28.186.25 23"/></clipPath><clipPath id="c"><path d="M0 36h36V0H0v36z"/></clipPath></defs><g clip-path="url(#a)" transform="matrix(1.25 0 0 -1.25 0 45)"><path d="M.25 23c0 7.158 10 15 18 8 2.714-2.375 5-4 5-7 12 2 13.703-8.892 12-14-1-3-5.868-11.059-24-3-9 4-11 11.616-11 16" fill="#d99e82"/></g><g clip-path="url(#b)" transform="matrix(1.25 0 0 -1.25 0 45)"><path d="M24.309 24.146c-2.417-.257-4.491-.963-6.6-2.969 1.544 6.067 10.014 6.112 9.102 5.656-4-2-2.502-2.687-2.502-2.687" fill="#c1694f"/></g><g clip-path="url(#c)" transform="matrix(1.25 0 0 -1.25 0 45)"><path d="M11.25 20a1 1 0 1 0-2 .001 1 1 0 0 0 2 0M31.25 10a1 1 0 1 0-2 0 1 1 0 1 0 2 0M16.25 10.5a1.5 1.5 0 1 0-3.001.002 1.5 1.5 0 0 0 3.001-.002M7.25 16.5a1.5 1.5 0 1 0-3 0 1.5 1.5 0 0 0 3 0" fill="#c1694f"/></g></svg>