<svg xmlns="http://www.w3.org/2000/svg" viewBox="0 0 45 45"><defs><clipPath id="a"><path d="M0 36h36V0H0v36z"/></clipPath><clipPath id="b"><path d="M24.052 31.33L5.126 12.406C1.342 8.62 1.288 4.133 2.856 2.564 4.424.997 8.912 1.049 12.697 4.835l18.925 18.924c3.784 3.785 3.837 8.273 2.269 9.841-.605.606-1.647.969-2.915.969-2.014 0-4.602-.917-6.924-3.239"/></clipPath></defs><g clip-path="url(#a)" transform="matrix(1.25 0 0 -1.25 0 45)"><path d="M12.697 4.835C8.912 1.05 4.424.997 2.856 2.564c-1.568 1.569-1.514 6.056 2.27 9.841L24.053 31.33c3.785 3.784 8.27 3.838 9.84 2.27 1.567-1.568 1.514-6.056-2.271-9.841L12.697 4.835z" fill="#edb980"/></g><g clip-path="url(#b)" transform="matrix(1.25 0 0 -1.25 0 45)"><path d="M27.917 25.949c-.837-.835-2.026.514-3.595 2.082-1.568 1.568-2.918 2.759-2.082 3.595.835.836 2.784.244 4.352-1.324 1.568-1.568 2.162-3.517 1.325-4.353" fill="#e5a157"/><path d="M22.998 32.383c1.701-.19 5.485-3.974 5.676-5.678" fill="none" stroke="#ffd983" stroke-linecap="round" stroke-linejoin="round" stroke-miterlimit="10"/><path d="M23.376 21.407c-.837-.835-2.028.514-3.597 2.082-1.567 1.567-2.917 2.76-2.081 3.595.835.836 2.785.244 4.354-1.325 1.567-1.567 2.159-3.516 1.324-4.352" fill="#e5a157"/><path d="M18.455 27.841c1.703-.189 5.488-3.974 5.678-5.678" fill="none" stroke="#ffd983" stroke-linecap="round" stroke-linejoin="round" stroke-miterlimit="10"/><path d="M18.834 16.866c-.836-.837-2.028.513-3.595 2.081-1.569 1.568-2.919 2.76-2.083 3.595.837.836 2.785.244 4.353-1.325 1.568-1.568 2.162-3.516 1.325-4.35" fill="#e5a157"/><path d="M13.914 23.3c1.703-.19 5.488-3.975 5.677-5.677" fill="none" stroke="#ffd983" stroke-linecap="round" stroke-linejoin="round" stroke-miterlimit="10"/><path d="M14.293 12.323c-.836-.837-2.028.515-3.596 2.082-1.57 1.568-2.917 2.76-2.082 3.597.835.834 2.784.242 4.352-1.325 1.568-1.569 2.16-3.517 1.325-4.354" fill="#e5a157"/><path d="M9.372 18.758c1.703-.188 5.488-3.975 5.677-5.678" fill="none" stroke="#ffd983" stroke-linecap="round" stroke-linejoin="round" stroke-miterlimit="10"/><path d="M9.75 7.782c-.835-.837-2.027.514-3.595 2.082-1.57 1.567-2.917 2.76-2.082 3.595.837.836 2.785.243 4.353-1.325 1.567-1.569 2.16-3.517 1.324-4.352" fill="#e5a157"/><path d="M4.83 14.216c1.703-.19 5.488-3.974 5.677-5.677" fill="none" stroke="#ffd983" stroke-linecap="round" stroke-linejoin="round" stroke-miterlimit="10"/></g></svg>