<svg xmlns="http://www.w3.org/2000/svg" viewBox="0 0 45 45"><defs><clipPath id="a"><path d="M0 36h36V0H0v36z"/></clipPath><clipPath id="b"><path d="M6.341 29.165C.636 23.46.952 15.224 3.444 9.005c.164-.411 1.083-.694 1.266-1.084C6.207 4.7 9.346 1.219 11.57.589c2.22-.629 2.196.528 1.6 2.322-.683 2.055-2.116 4.946-1.772 6.939.113.66.684.475.73 1.283.415 7.285 3.652 13.34 12.81 14.256.925.093 2.797.194 3.565.304.493.07 1.107.914 1.543.962 1.158.129 2.616-.086 3.816-.428 2.563-.733.157 5.701-5.76 6.817-.449.084-.836 1.051-1.286 1.198a20.434 20.434 0 0 1-6.338 1.023c-4.742 0-9.76-1.724-14.137-6.1"/></clipPath><clipPath id="c"><path d="M0 36h36V0H0v36z"/></clipPath></defs><g clip-path="url(#a)" transform="matrix(1.25 0 0 -1.25 0 45)"><path d="M11.57.59c-2.224.63-5.363 4.11-6.86 7.33-.183.392-1.102.674-1.266 1.085C.952 15.225.636 23.46 6.341 29.165c6.41 6.41 14.196 7.13 20.475 5.077.45-.147.837-1.113 1.286-1.198 5.917-1.115 8.322-7.55 5.76-6.817-1.2.343-2.658.557-3.815.428-.437-.048-1.05-.891-1.544-.961-.768-.11-2.64-.212-3.565-.305-9.159-.916-12.395-6.971-12.81-14.256-.046-.808-.617-.623-.73-1.283-.345-1.992 1.088-4.884 1.771-6.94.596-1.793.621-2.95-1.6-2.32" fill="#f4900c"/></g><g clip-path="url(#b)" transform="matrix(1.25 0 0 -1.25 0 45)"><path d="M.894 18.295c3.043 1.972 7.674 4.03 16.505-.814 8.403-4.609.429 6.216-2.829 6.987-3.258.772-10.331 3.345-12.99.901-2.659-2.444-.686-7.074-.686-7.074M3.466 8.178c1.543 1.458 3.293 3.902 8.91 2.573 6.518-1.544 2.751-1.93.178-1.502-2.572.43-6.13-.342-8.445-1.971-2.315-1.63-.643.9-.643.9M27.032 34.715c1.028-2.229 2.887-6.174 1.386-9.56-1.502-3.387.655-1.156 1.457.214 1.028 1.758.168 6.632-2.114 9.09-2.218 2.386-.784.373-.729.256" fill="#db7803"/></g><g clip-path="url(#c)" transform="matrix(1.25 0 0 -1.25 0 45)"><path d="M2.038 21.085C1.083 24.337 2.42 33.706 14.66 36c2.133 0 10.133-1.272 6.526-16.257-.559-2.325-1.796-2.739-3.562-1.605-4.125 2.648-11.6 7.099-15.585 2.947" fill="#ffac33"/></g></svg>