<svg xmlns="http://www.w3.org/2000/svg" viewBox="0 0 45 45"><defs><clipPath id="a"><path d="M0 36h36V0H0v36z"/></clipPath></defs><g clip-path="url(#a)" transform="matrix(1.25 0 0 -1.25 0 45)"><path d="M23.142 32.597C21.492 34.1 19.712 35 18 35c-5.625 0-12-9.611-12-19 0-.975.08-1.9.201-2.791 1.06-7.692 6.422-12.21 11.8-12.21 6 0 12 5.612 12 15 0 6.532-3.088 13.162-6.859 16.598" fill="#f7dece"/><path d="M23.142 32.597c2.908-3.52 5.108-9.018 5.108-14.453 0-9.01-5.672-14.394-11.344-14.394-4.54 0-9.075 3.459-10.705 9.459 1.06-7.692 6.422-12.21 11.8-12.21 6 0 12 5.612 12 15 0 6.532-3.088 13.162-6.859 16.598" fill="#e0aa94"/></g></svg>