<svg xmlns="http://www.w3.org/2000/svg" viewBox="0 0 45 45"><defs><clipPath id="a"><path d="M0 36h36V0H0v36z"/></clipPath></defs><g clip-path="url(#a)" transform="matrix(1.25 0 0 -1.25 0 45)"><path d="M17.256 4.481C12.502-.273 6.049-1.092 2.573 2.384-.902 5.86.057 12.451 4.672 17.066c3.355 3.356 6.71 3.356 9.228 5.873 2.517 2.517 1.678 5.034 5.454 8.81 4.614 4.612 10.486 5.452 14.26 1.677 3.776-3.776 2.833-9.754-1.676-14.263-3.776-3.775-6.292-2.936-8.81-5.452-2.517-2.518-2.517-5.873-5.872-9.23" fill="#d99e82"/><path d="M8.21 15.602c.611.404 1.3.776 2.082 1.106 3.792 1.459 7.291 4.25 8.333 7.668M3.167 6.666c.042 1.917.292 4.417 2.287 6.295M7.292 7.375c.417 1.625 1.375 4.666 5.25 6.083M24.959 18.416c4.25 1.5 7.333 4.458 8.5 9.708M29.125 26.583c-.833-1.875-2.666-3.666-4.666-4.458M15.75 14.916c1.125.459 2.333 1.542 2.75 2.251M19.75 27.583c.333.958 1.042 1.875 1.709 2.292M6.542 4.416c-.083-.375-.125-1.041-.083-1.333" fill="none" stroke="#c1694f" stroke-width="2" stroke-linecap="round" stroke-miterlimit="10"/></g></svg>