<svg xmlns="http://www.w3.org/2000/svg" viewBox="0 0 45 45"><defs><clipPath id="a"><path d="M0 36h36V0H0v36z"/></clipPath><clipPath id="b"><path d="M11.815 23.013C4.2 15.397-1.265 2.86.502 1.093 2.27-.675 14.807 4.791 22.422 12.406c7.616 7.615 7.562 11.53 4.243 14.85-1.328 1.328-2.752 2.133-4.47 2.133-2.575 0-5.812-1.809-10.38-6.376"/></clipPath></defs><g clip-path="url(#a)" transform="matrix(1.25 0 0 -1.25 0 45)"><path d="M31.096 27.067c3.535 2.122 4.408 8.32 3.7 7.613.708.707-5.656 0-7.777-3.536 0 1.414-1.414 7.071-3.535 2.121-2.122-4.949-1.415-5.656-1.415-7.07 0-1.415 2.829-1.415 2.829-1.415s-.125-2.704 1.29-2.704c1.414 0 1.997-.583 6.946 1.538 4.95 2.122-.624 3.453-2.038 3.453" fill="#77b255"/><path d="M22.422 12.406C14.807 4.791 2.27-.674.502 1.093-1.266 2.86 4.2 15.397 11.815 23.013c7.616 7.615 11.53 7.562 14.85 4.242 3.319-3.319 3.372-7.234-4.243-14.849" fill="#f4900c"/></g><g clip-path="url(#b)" transform="matrix(1.25 0 0 -1.25 0 45)"><path d="M16.146 29.46c2.292-4.583 4.583-6.875 5.73-8.02 1.145-1.146-5.73 1.145-8.02 5.729-2.293 4.583 2.29 2.291 2.29 2.291M8.661 21.389c2.292-4.584 4.583-6.875 5.728-8.021 1.146-1.145-5.728 1.146-8.019 5.73-2.29 4.582 2.291 2.29 2.291 2.29M25.209 12.912c-4.582 2.291-6.874 4.582-8.02 5.728-1.145 1.147 1.146-5.728 5.729-8.02 4.583-2.29 2.291 2.292 2.291 2.292M16.209 4.912c-4.582 2.291-6.874 4.582-8.02 5.728-1.146 1.147 1.146-5.728 5.729-8.02 4.583-2.29 2.291 2.292 2.291 2.292" fill="#d67503"/></g></svg>