<svg xmlns="http://www.w3.org/2000/svg" viewBox="0 0 45 45"><defs><clipPath id="a"><path d="M0 36h36V0H0v36z"/></clipPath></defs><g clip-path="url(#a)" transform="matrix(1.25 0 0 -1.25 0 45)"><path d="M35 30.096c2.394-6.042-1.438-20.543-10.5-26.5C15.44-2.361 4.105.023 1.403 10.039c-1.669 6.186 2.79 10.722 11.851 16.678 9.06 5.957 19.386 9.337 21.746 3.379" fill="#3e721d"/><path d="M20.605 9.97C14.082 5.424 5.318 4.82 2.136 9.388c-3.183 4.566.418 12.578 6.943 17.124 6.522 4.545 21.951 9.796 25.133 5.229 3.183-4.568-7.085-17.225-13.607-21.771" fill="#3e721d"/><path d="M19.815 9.422c-5.757-4.013-13.482-3.097-16.29.934-2.808 4.03.474 11.17 6.231 15.18 5.756 4.012 20.258 9.265 23.07 5.235C35.63 26.74 28 14.596 19.815 9.42" fill="#a6d388"/><path d="M18.169 12.074c-4.506-3.14-9.94-3.127-12.136.027-2.2 3.155-.33 8.255 4.176 11.396s15.835 7.238 18.034 4.084c2.2-3.155-5.566-12.367-10.074-15.507" fill="#c6e5b3"/><path d="M11.162 23.512c3.48 2.332 7.382 1.495 9.798-.995 1.432-1.477-.88-5.382-4.359-7.714-3.478-2.33-7.77-1.762-8.24-.73-1.439 3.156-.677 7.107 2.801 9.44" fill="#662113"/><path d="M13.071 22.894c1.51 1.013 3.414.819 4.254-.431.837-1.251.294-3.087-1.217-4.1-1.51-1.009-3.415-.817-4.253.433-.84 1.252-.294 3.086 1.216 4.098" fill="#7c3225"/></g></svg>