<svg xmlns="http://www.w3.org/2000/svg" viewBox="0 0 45 45"><defs><clipPath id="a"><path d="M0 36h36V0H0v36z"/></clipPath><clipPath id="b"><path d="M25.219 19.344h2.469v-8.099h-2.47v8.099z"/></clipPath></defs><g clip-path="url(#a)" transform="matrix(1.25 0 0 -1.25 0 45)"><path d="M36 13c0-5.523-8.059-10-18-10S0 7.477 0 13s8.059 10 18 10 18-4.477 18-10" fill="#939598"/><path d="M36 15c0-5.523-8.059-10-18-10S0 9.477 0 15s8.059 10 18 10 18-4.477 18-10" fill="#f1f2f2"/><path d="M31 16c0-3.988-5.82-7.223-13-7.223S5 12.012 5 16s5.82 7.222 13 7.222S31 19.988 31 16" fill="#f4900c"/><path d="M31 18c0-3.988-5.82-7.223-13-7.223S5 14.012 5 18s5.82 7.222 13 7.222S31 21.988 31 18" fill="#ffac33"/><path d="M31 20c0-3.988-5.82-7.223-13-7.223S5 16.012 5 20s5.82 7.222 13 7.222S31 23.988 31 20" fill="#f4900c"/><path d="M31 22c0-3.988-5.82-7.223-13-7.223S5 18.012 5 22s5.82 7.222 13 7.222S31 25.988 31 22" fill="#ffac33"/><path d="M31 24c0-3.988-5.82-7.223-13-7.223S5 20.012 5 24s5.82 7.222 13 7.222S31 27.988 31 24" fill="#f4900c"/><path d="M16.625 25.234a.016.016 0 0 0-.016-.016h-.031c-.009 0-.015.007-.015.016 0 .01.006.016.015.016h.031a.016.016 0 0 0 .016-.016" fill="#ffd983"/><path d="M15.531 29.031c-3.688 1.125-5.242.558-5-2.344.063-.75-.969-2-2-2.719-2.398-1.67-1.368-4.465 2.75-2.406 2.062 1.031 5.07.961 8.72-.156 3.061-.938 4.957-2.073 5.207-3.448 1.215.398 1.886.771 2.48 1.271-.253.57-1.376 2.208-3.157 2.99-3.369 1.477-.115 3.606 2.406 4.124 2.282.47.032 2.188-3.437 2.126-3.469-.063-2.597-1.077-7.969.562" fill="#d3790d"/><g clip-path="url(#b)" opacity=".5"><path d="M25.219 18c0-2.844.062-4.568.062-5.562 0-1.938 2.376-1.594 2.376 1.624 0 3.219.03 5.282.03 5.282L25.22 18z" fill="#d3790d"/></g><path d="M21.535 27.403c.391-.223.392-1.583 0-1.806l-2.828-1.612c-.39-.223-1.024-.223-1.414 0l-2.829 1.612c-.39.223-.39 1.583 0 1.806l2.83.612c.39.223 1.022.223 1.413 0l2.828-.612z" fill="#ffac33"/><g><path d="M21.535 27.403c.391-.223.392-.583 0-.806l-2.828-1.612c-.39-.223-1.024-.223-1.414 0l-2.829 1.612c-.39.223-.39.583 0 .806l2.83 1.612c.39.223 1.022.223 1.413 0l2.828-1.612z" fill="#ffd983"/></g></g></svg>