<svg xmlns="http://www.w3.org/2000/svg" viewBox="0 0 45 45"><defs><clipPath id="a"><path d="M0 36h36V0H0v36z"/></clipPath></defs><g clip-path="url(#a)" transform="matrix(1.25 0 0 -1.25 0 45)"><path d="M33.208 29.541c-3.333 4.208-28.667 1.75-32.167-7.667C.166 12 7.385.722 20 2c13.167 1.333 18.083 12.416 13.208 27.543" fill="#edb97f"/><path d="M4 24c2.736 2.348 13 8 25 6 8-.75-.708-7.542-9.708-9.542C11.422 18.71-1 19.708 4 24" fill="#ffd983"/><path d="M29.656 27.375c1.437 1.5 1.187 6.062.531 6.812-.968.813-1.937-1.645-4.812-2.395-.708 1.375-1.482 1.851-1.5 1.864-.833.594-2.625.511-3.125-1.906-1.719 1.5-5.323 1.636-5.542.833-1.333-4.896-3.167-5.541-5.167-7.583-3.009-3.072 2.71-3.687 8.521-1.875 5.813 1.812 11.094 4.25 11.094 4.25" fill="#77b255"/><path d="M12.25 25.458c-.5 3.5-6.848 4.161-8.25 3.082-2-1.54-.833-6.374 1.25-7.04 3.639-1.164 7 3.958 7 3.958" fill="#77b255"/><path d="M5.25 21.5c-1.336.528.625 3.499 2.75 4.083 2.125.584 3.126-.5 3.542-1.083.041.583.875 1.583 1.583 1.792.708.208 1.542-.167 1.958-1.042 0 .917.042 3.875 3.334 4.833.875.292 3.375.375 3.917-1 .833.709 3.584 1.333 4.25-.375.291.5 2.625 1.375 3.541-.291.667-.917-.362-1.802-2.041-2.917-5.459-3.625-17.667-6.042-22.834-4" fill="#662113"/><path d="M9.084 23.541a1.25 1.25 0 1 0-2.501.001 1.25 1.25 0 0 0 2.5 0M25.084 25.541a1.251 1.251 0 0 0-2.5 0 1.25 1.25 0 1 0 2.5 0M21.751 27.208a1.584 1.584 0 1 0-3.168 0 1.584 1.584 0 0 0 3.168 0M12 22.083a.708.708 0 1 0-1.416 0 .708.708 0 0 0 1.416 0" fill="#c1694f"/><path d="M16.75 25.938c.297.604 3.341-2.123 2.563-3.875-.751-.375-3.375-.844-6.126-1.125 1.23.875 2.896 3.646 3.563 5" fill="#dd2e44"/><path d="M15.938 24.438c.486.975 2.312-1.687 1.686-2.781-.967-.282-3.717-.688-4.592-.782.625.813 2.406 2.563 2.906 3.563" fill="#ea596e"/><path d="M21.563 22.594c.75.219 4.469 1.25 6.969 3.188.062 1.28-.97 2.906-2.657.156-1.124.687-3.906-.625-4.312-3.344" fill="#77b255"/><path d="M28 13a2 2 0 1 0-4 0 2 2 0 0 0 4 0M24 8a1 1 0 1 0-2 0 1 1 0 1 0 2 0M17 11.5a1.5 1.5 0 1 0-3 0 1.5 1.5 0 0 0 3 0" fill="#e5a157"/></g></svg>