<svg xmlns="http://www.w3.org/2000/svg" viewBox="0 0 45 45"><defs><clipPath id="a"><path d="M0 36h36V0H0v36z"/></clipPath></defs><g clip-path="url(#a)" transform="matrix(1.25 0 0 -1.25 0 45)"><path d="M9.04 9.04c1.809-1.808 2.159-4.39.783-5.767-1.939-1.937-3.959-1.025-5.767.784-1.809 1.806-2.72 3.826-.783 5.765 1.377 1.376 3.958 1.026 5.768-.782M2.486 2.486C4.897.076 7.59-1.14 10.175 1.444c1.835 1.835 1.368 5.278-1.043 7.69-2.41 2.41-5.851 2.876-7.688 1.041C-1.14 7.59.077 4.897 2.488 2.486M26.96 26.96c-1.808 1.808-2.158 4.389-.782 5.766 1.938 1.938 3.958 1.026 5.766-.782 1.809-1.808 2.721-3.827.783-5.766-1.376-1.376-3.958-1.026-5.767.782m6.553 6.553c-2.41 2.411-5.103 3.628-7.688 1.043-1.835-1.835-1.368-5.278 1.043-7.688 2.411-2.411 5.852-2.878 7.689-1.043 2.584 2.585 1.367 5.278-1.044 7.688" fill="#292f33"/><path d="M35 18c0-9.389-7.611-17-17-17S1 8.611 1 18s7.611 17 17 17 17-7.611 17-17" fill="#292f33"/><path d="M31.6 18c0-7.511-6.09-13.6-13.6-13.6-7.511 0-13.6 6.089-13.6 13.6 0 7.511 6.089 13.6 13.6 13.6 7.51 0 13.6-6.089 13.6-13.6" fill="#ffac33"/><path d="M19.445 25.335l-2.539 2.539c.368.441.35 1.096-.065 1.51a1.123 1.123 0 0 1-1.9-.991 1.124 1.124 0 0 1-.991-1.901 1.12 1.12 0 0 1 1.51-.065l2.538-2.538 1.447 1.446z" fill="#ffe8b6"/><path d="M27.669 15.664c.723.723 2.55 3.826.02 6.356-1.762 1.763-3.183 1.662-5.827 2.317-1.084.362-2.498 1.665-2.86 2.026-.361-.36-.234-1.682-.234-1.682s-1.575-.128-1.936-.489c.36-.36 2.04-1.95 2.334-2.695.79-2.509.7-3.785 2.464-5.547 2.893-2.89 5.317-1.009 6.039-.286" fill="#c1694f"/><path d="M9.334 19.5c0-1.933 3.099-3.5 1.167-3.5a3.5 3.5 0 1 0 0 7c1.932 0-1.167-1.567-1.167-3.5M18.018 10.01c1.6-.771 4.136 1.167 3.364-.433a3.22 3.22 0 0 0-4.297-1.5 3.22 3.22 0 0 0-1.498 4.298c.773 1.6.831-1.593 2.431-2.365" fill="#77b255"/><path d="M17 19a2 2 0 1 0-4 0 2 2 0 0 0 4 0M25 12a1 1 0 1 0-2 0 1 1 0 1 0 2 0M12 13a1 1 0 1 0-2 0 1 1 0 1 0 2 0" fill="#f4900c"/></g></svg>