<svg viewBox="0 0 36 36" xmlns="http://www.w3.org/2000/svg"><circle cx="18" cy="18" fill="#ffcc4d" r="18"/><g fill="#664500"><ellipse cx="12" cy="13.5" rx="2.5" ry="3.5"/><ellipse cx="24" cy="13.5" rx="2.5" ry="3.5"/><path d="M27.335 22.629a.501.501 0 00-.635-.029c-.039.029-3.922 2.9-8.7 2.9-4.766 0-8.662-2.871-8.7-2.9a.5.5 0 00-.729.657C8.7 23.472 11.788 28.5 18 28.5s9.301-5.028 9.429-5.243a.499.499 0 00-.094-.628z"/></g><path d="M29.5 27.5c0 2.762-2.238 5-5 5s-5-2.238-5-5 4-10 5-10 5 7.238 5 10z" fill="#5dadec"/></svg>