<svg xmlns="http://www.w3.org/2000/svg" viewBox="0 0 36 36"><circle cx="18" cy="18" r="18" fill="#ffcc4d"/><path fill="#65471b" d="M20.996 28.477a1 1 0 0 1-.309-.049 8.65 8.65 0 0 0-5.375 0 1 1 0 1 1-.617-1.902 10.63 10.63 0 0 1 6.609 0c.525.172.813.736.643 1.26a1 1 0 0 1-.951.691m7.998-18.466A1.005 1.005 0 0 0 28.011 9c-.067-.001-1.653-.056-3.304-1.707a1 1 0 1 0-1.414 1.414C25.56 10.974 27.901 11 28 11a.995.995 0 0 0 .994-.989M12.707 8.707a.998.998 0 0 0-.324-1.63 1 1 0 0 0-1.09.216C9.652 8.934 8.075 8.998 7.99 9A1 1 0 0 0 8 11c.099 0 2.44-.026 4.707-2.293"/><path fill="#fff" d="M24.5 23a5.5 5.5 0 1 0 0-11 5.5 5.5 0 0 0 0 11"/><path fill="#292f33" d="M24.5 22a5 5 0 1 0 0-10 5 5 0 0 0 0 10"/><path fill="#fff" d="M24.337 16.836c1.044-1.046 1.23-2.552.417-3.364-.813-.813-2.32-.625-3.363.42-1.045 1.046-1.231 2.552-.418 3.364.814.813 2.32.625 3.364-.42m3.288 2.845c.458-.459.54-1.12.183-1.477s-1.019-.274-1.478.185c-.458.459-.54 1.12-.183 1.477s1.019.275 1.478-.184ZM11.5 23a5.5 5.5 0 1 0 0-11 5.5 5.5 0 0 0 0 11"/><path fill="#292f33" d="M11.5 22a5 5 0 1 0 0-10 5 5 0 0 0 0 10"/><path fill="#fff" d="M11.337 16.836c1.044-1.046 1.23-2.552.417-3.364-.813-.813-2.32-.625-3.363.42-1.045 1.046-1.231 2.552-.418 3.364.814.813 2.32.625 3.364-.42m3.287 2.845c.46-.459.541-1.12.184-1.477s-1.019-.274-1.478.185c-.458.459-.54 1.12-.183 1.477s1.019.275 1.477-.184Z"/></svg>