<svg xmlns="http://www.w3.org/2000/svg" viewBox="0 0 45 45"><defs><clipPath id="a"><path d="M0 36h36V0H0v36z"/></clipPath></defs><g clip-path="url(#a)" transform="matrix(1.25 0 0 -1.25 0 45)"><path d="M13.431 26.198c.658-2.639.176-4.879-2.462-5.536-2.64-.657-6.21-4.953-8.782 1.438C.697 25.803-.606 33.566.874 33.934c1.48.37 11.9-5.097 12.557-7.736" fill="#f4900c"/><path d="M11.437 25.645c.961-1.538-1.831-4.561-3.368-5.521-1.538-.962-2.9.551-4.414 4.414-.662 1.688-1.666 6.269-1.103 6.621.562.351 7.924-3.976 8.885-5.514" fill="#a0041e"/><path d="M22.557 26.198c-.657-2.639-.177-4.879 2.463-5.536s6.21-4.953 8.782 1.438c1.49 3.703 2.792 11.466 1.313 11.834-1.481.37-11.9-5.097-12.558-7.736" fill="#f4900c"/><path d="M24.552 25.645c-.96-1.538 1.83-4.561 3.368-5.521 1.537-.962 2.899.551 4.413 4.414.662 1.688 1.666 6.269 1.105 6.621-.564.351-7.925-3.976-8.886-5.514" fill="#a0041e"/><path d="M18.001 26.745C11.379 28.953 6.53 24.77 2.552 16.813h2.206s-2.206-2.206-3.31-5.517C3.655 12.4 4.758 12.4 4.758 12.4s-1.103-2.208-1.103-3.312c3.31 2.208 6.621 2.208 8.828-1.102 2.207-3.311 5.518 0 5.518 4.414v14.345zM18.001 26.745c6.621 2.208 11.471-1.974 15.448-9.932h-2.206s2.206-2.206 3.31-5.517c-2.206 1.104-3.31 1.104-3.31 1.104s1.104-2.208 1.104-3.312c-3.312 2.208-6.621 2.208-8.828-1.102-2.209-3.311-5.518 0-5.518 4.414v14.345z" fill="#f4900c"/><path d="M18.001 27.71h-.003c-11.334 0-9.605-4.369-8.39-11.632 1.214-7.266 2.65-12.42 8.393-12.42 5.741 0 7.175 5.154 8.391 12.42 1.213 7.263 2.941 11.631-8.391 11.632" fill="#f4900c"/><path d="M34.709 9.958c-.084 5.708-9.301 3.745-10.087 2.972-1.103-1.084-1.107-7.705-6.623-7.705s-6.62 6.621-7.723 7.705c-.787.773-9.234 1.403-9.026-2.972 2.207 1.103 3.508.784 3.508.784s-1.425-.826-1.216-2.784C6.75 9.416 8.25 9.208 10 8.333 11.213 4.71 14.206 2 18.001 2c3.793 0 6.746 2.794 7.958 6.416 1.458 1.25 3.708.875 6.416-.416.292 1.833-1.132 2.742-1.132 2.742s1.26.319 3.466-.784" fill="#f18f26"/><path d="M34.553 11.296c-.904 2.718-9.145 4.064-9.931 3.29-1.103-1.083-1.107-7.704-6.623-7.704s-6.62 6.62-7.723 7.705c-.787.773-7.922-.573-8.828-3.291C3.655 12.4 4.758 12.4 4.758 12.4s-1.103-2.208-1.103-3.312c2.67 1.78 5.339 2.122 7.429.452C12.298 5.917 14.206 3.657 18 3.657c3.793 0 5.7 2.259 6.912 5.88 2.092 1.674 4.763 1.33 7.434-.45 0 1.105-1.104 3.313-1.104 3.313s1.104 0 3.31-1.104" fill="#ffd983"/><path d="M11 19s0 1.5 1.5 1.5S14 19 14 19v-1.5s0-1.5-1.5-1.5-1.5 1.5-1.5 1.5V19zM22 19s0 1.5 1.5 1.5S25 19 25 19v-1.5s0-1.5-1.5-1.5-1.5 1.5-1.5 1.5V19zM14.939 8.192c-1.02-.208 2.041-3.968 3.062-3.968 1.02 0 4.082 3.76 3.062 3.968-1.021.208-5.103.208-6.124 0" fill="#272b2b"/></g></svg>