<svg xmlns="http://www.w3.org/2000/svg" viewBox="0 0 45 45"><defs><clipPath id="a"><path d="M0 36h36V0H0v36z"/></clipPath></defs><g clip-path="url(#a)" transform="matrix(1.25 0 0 -1.25 0 45)"><path d="M5 20c0 4-5 3-4-1s3-5 3-5l1 6zM31 20c0 4 5 3 4-1s-3-5-3-5l-1 6z" fill="#292f33"/><path d="M32.65 14.264C32.65 3.372 27.96.177 18 .177 8.041.177 3.35 3.372 3.35 14.264 3.35 25.157 8.04 35.677 18 35.677c9.96 0 14.65-10.52 14.65-21.413" fill="#292f33"/><path d="M27.567 13c1.49 4.458 2.088 7.312-.443 7.312H8.876c-2.532 0-1.934-2.854-.444-7.312C3.504 1.799 17.166 1.177 18 1.177c.834 0 14.302 1.059 9.567 11.823" fill="#66757f"/><path d="M15 17.997a2 2 0 1 0-4 0c0 1.105.896 1 2 1 1.105 0 2 .105 2-1M25 17.997a2 2 0 1 0-4 0c0 1.105.896 1 2 1 1.105 0 2 .105 2-1M17 12.345c0-.553-.64-1-1.428-1-.789 0-1.428.447-1.428 1 0 .553.639 1 1.428 1 .788 0 1.428-.447 1.428-1M21.856 12.345c0-.553-.639-1-1.428-1-.79 0-1.428.447-1.428 1 0 .553.638 1 1.428 1 .79 0 1.428-.447 1.428-1" fill="#292f33"/><path d="M21.02 14.96c-1.965.26-3.02-.834-3.02-.834s-1.055 1.094-3.02.834c-3.156-.417-3.285-3.287-1.94-3.105.767.103.136.938 1.714 1.555 1.579.617 3.246-.659 3.246-.659s1.668 1.276 3.247.659.947-1.452 1.714-1.555c1.345-.182 1.217 2.688-1.941 3.105" fill="#99aab5"/><path d="M24.835 5.979c-1.209-.323-3.204-.596-6.835-.596s-5.625.273-6.835.596c-3.205.854-1.923 1.735 0 1.477 1.922-.26 3.631-.415 6.835-.415 3.205 0 4.914.156 6.835.415 1.923.258 3.204-.623 0-1.477" fill="#292f33"/><path d="M4.253 19.375c1.403 1.225-1.078 3.766-2.196 2.544-.34-.372.922.188 1.337-1.086.306-.942 0-2.208.86-1.458M31.746 19.375c-1.402 1.225 1.078 3.766 2.196 2.544.341-.372-.92.188-1.337-1.086-.306-.942 0-2.208-.859-1.458" fill="#66757f"/></g></svg>