<svg xmlns="http://www.w3.org/2000/svg" viewBox="0 0 45 45"><defs><clipPath id="a"><path d="M0 36h36V0H0v36z"/></clipPath></defs><g clip-path="url(#a)" transform="matrix(1.25 0 0 -1.25 0 45)"><path d="M15.66 29.156c.485 2.03.384 3.14-.553 3.677-.937.537.336 2.665 1.977.792 1.64-1.873 1.428-3.618.66-4.852-.765-1.235-2.333-.66-2.084.383M15.18 26.205c-.916-1.877-1.699-2.668-2.764-2.487-1.064.18-1.434-2.271 1.023-1.868 2.457.402 3.402 1.885 3.595 3.326.193 1.44-1.383 1.993-1.854 1.029M26.516 19.944c-2.072 1.377-5.382-1.43-5.7-2.28-.317-.85 1.72-3.46 1.146-4.94-.577-1.476 1.142-1.768 1.92-.49.779 1.277.304 3.611.157 4.168-.15.557 2.189 1.22 3.67.037 1.483-1.18-.322 2.925-1.193 3.505M27.584 20.762c-1.546 1.95.975 5.482 1.794 5.87.821.387 2.572-.403 3.997.294 1.424.697 1.745-.854.65-1.874-1.227-1.142-2.241-1.334-3.119-1.525-.563-.122-.032-2.033-.008-3.97.022-1.799-2.664.385-3.314 1.205" fill="#3e721d"/><path d="M15.32 32.833a.724.724 0 1 0-1.448 0 .724.724 0 0 0 1.447 0M12.32 23.936a.724.724 0 1 0-1.45.001.724.724 0 0 0 1.45 0M12.022 22.26a.724.724 0 1 0-1.448-.001.724.724 0 0 0 1.448 0M13.47 21.535a.724.724 0 1 0-1.448 0 .724.724 0 0 0 1.447 0M22.044 12.687a.725.725 0 1 0 0 0M22.816 11.419a.725.725 0 0 0-1.37-.467.723.723 0 1 0 1.37.467M24.443 11.66a.724.724 0 1 0-1.37-.468.724.724 0 0 0 1.37.467M34.246 27.41a.724.724 0 1 0-1.448 0 .724.724 0 0 0 1.448 0M35.75 26.686a.725.725 0 1 0-1.45.002.725.725 0 0 0 1.45-.002M35.404 24.97a.725.725 0 1 0-1.449.001.725.725 0 0 0 1.45-.001M15.512 34.382a.724.724 0 1 0-1.449 0 .724.724 0 0 0 1.45 0M17.084 34.85a.724.724 0 1 0-1.448 0 .724.724 0 0 0 1.448 0" fill="#3e721d"/><path d="M.208 30.348c.265 1.053 4.656 4.723 8.642 4.034 2.024-.35 2.942-3.354 5.102-3.429 11.29-.389 22.271-11.138 18.847-21.39C31.294 5.055 27.18.764 17.338 4.56c-1.955.754-3.97 1.986-7.824 1.227-2.852-.563-3.15-3.159-2.803-4.497C6.983.243 6.55-.29 6.01.532 4.785 2.4 4.694 4.88 6.653 6.488c3.912 3.211 9.248 1.284 13.138.06 6.48-2.045 9.917 3.65 6.345 10.314-3.503 6.54-9.812 8.324-14.005 8.817-1.168.137-3.64-2.049-5.367-1.743-3.62.643-6.745 5.648-6.555 6.412" fill="#3e721d"/><path d="M.208 30.348c.265 1.053 4.656 4.723 8.642 4.034 2.024-.35 2.942-3.354 5.102-3.429 11.29-.389 22.271-11.138 18.847-21.39C31.294 5.055 27.18.764 17.338 4.56c-1.955.754-3.97 1.986-7.824 1.227-2.852-.563-3.15-3.159-2.803-4.497.134-.516.098-.906-.04-1.073-.92 1.282-1.361 4.34.663 5.865 3.539 2.667 8.568.131 13.3-1.042 10.252-2.54 12.184 7.995 7.909 14.875C23.355 28.264 7 30.25.209 30.348" fill="#77b255"/><path d="M8 33a1 1 0 1 0-2 0 1 1 0 0 0 2 0M7 26a1 1 0 1 0-2 0 1 1 0 0 0 2 0" fill="#292f33"/></g></svg>