<svg xmlns="http://www.w3.org/2000/svg" viewBox="0 0 45 45"><defs><clipPath id="a"><path d="M0 36h36V0H0v36z"/></clipPath></defs><g clip-path="url(#a)" transform="matrix(1.25 0 0 -1.25 0 45)"><path d="M27.295 28.474c-1.152 3.054-2.65 6.8-8.298 6.915-1.759.036-1.52-.54-.347-1.02 2.248-.922-2.474-5.438 4.76-7.4 5.646-1.531 5.037-1.55 3.885 1.505" fill="#66757f"/><path d="M36.004 32.097c-7.737 0-14.41-2.514-18.105-5.757-4.875-4.28-5.38-10.306-14.034-15.66-2.847-1.76-.423-7.517 1.152-9.618C6.925-1.482 33.634.824 36.004 9.839v22.258z" fill="#99aab5"/><path d="M8.676 6.348c1.011-.507 1.787-1.051 1.318-1.986-.469-.937-1.173-.25-2.184.257-1.012.507-2.286.018-1.816.954.47.935 1.67 1.282 2.682.775M34.202 29.674c.238 2.563-2.178 4.999-5.95 5.907-1.685.405-3.28.349-2.345-.478 1.793-1.585-.082-4.007 1.274-7.124.73-1.674 3.238-3.754 4.72-3.821 1.055-.048 2.053 2.848 2.301 5.516" fill="#66757f"/><path d="M33.247 29.674c.238 2.563-2.272 5.445-6.17 6.007-1.716.247-2.287-.087-1.352-.914 1.794-1.585-.638-3.627.718-6.745.728-1.674 3.394-3.84 4.875-3.907 1.056-.048 1.68 2.89 1.929 5.559" fill="#99aab5"/><path d="M2.639 9.102C.087 13.085-.987 21.073 1.148 26.7c.32.845 1.083 1.071 1.178-.13.18-2.282 2.417-6.833 7.966-10.968 1.24-.924-5.713-9.527-7.653-6.499" fill="#ccd6dd"/><path d="M13.248 20.613c-2.048.852-3.609 3.19-4.092 4.661-.577 1.758-2.152-3.927.852-8.89 1.206-1.995 4.653 3.641 3.24 4.23" fill="#ccd6dd"/><path d="M18.789 14.994a2 2 0 1 0-4 0 2 2 0 0 0 4 0" fill="#292f33"/><path d="M30.293 26.59c1.331-.105 1.954 1.737 1.216 4.691-.644 2.575-4.252 3.247-4.227 3.069.025-.179 1.057-1.549.014-2.939-1.015-1.353 1.347-4.691 2.997-4.821" fill="#e6aaaa"/></g></svg>