<svg xmlns="http://www.w3.org/2000/svg" viewBox="0 0 45 45"><defs><clipPath id="a"><path d="M0 36h36V0H0v36z"/></clipPath></defs><g clip-path="url(#a)" transform="matrix(1.25 0 0 -1.25 0 45)"><path d="M36 15c0-5-3-9-11-11-7.062-1.766-21 .934-21 2 0 1.129 2.503 1.371 6.813 1.125 10.937-.625 13.749 3.857 11.999 5.25-3.062 2.438-6.437-.375-12.062.125C3.782 13.119 0 18.528 0 20c0 2 11.716 8 20 8s16-4.25 16-13" fill="#66757f"/><path d="M15 23.5a1.5 1.5 0 1 0-3 0c0 .829.671.5 1.5.5s1.5.329 1.5-.5" fill="#292f33"/><path d="M14 27c2 5 5.291 9 7.958 9S21 34 26 26s-12 1-12 1M3 6c0 4-1.04 6 .146 6 1.185 0 6.011-4.031 6.011-6.24C9.157 3.551 4.331 0 3.146 0 1.96 0 3 2 3 6" fill="#66757f"/><path d="M26.92 13.5L34.918 6s-3.242-1.833-7.996 7.5" fill="#292f33"/><path d="M26.92 13.5l5.538 3.833S36.333 7.417 34.917 6c-2.583 1-7.996 7.5-7.996 7.5" fill="#66757f"/><path d="M9 15.693c0-.493-.508-2.673-1-2.673s-1 2.18-1 2.673v1.78c0 .492.508-.889 1-.889s1 1.381 1 .888v-1.779zM12 15.693c0-.493-.508-2.673-1-2.673s-1 2.18-1 2.673v1.78c0 .492.508-.889 1-.889s1 1.381 1 .888v-1.779zM15 16.693c0-.493-.508-2.673-1-2.673s-1 2.18-1 2.673v1.78c0 .492.508-.889 1-.889s1 1.381 1 .888v-1.779zM18 16.693c0-.493-.508-2.673-1-2.673s-1 2.18-1 2.673v1.78c0 .492.508-.889 1-.889s1 1.381 1 .888v-1.779z" fill="#fff"/><path d="M6 16l7.001 1H19v2H6v-3z" fill="#66757f"/><path d="M18.416 16.833c-4 2.083-13.385.011-14.917-1.513.47-.36.988-.707 1.547-1.028 6.11 3.281 14.082 2.169 13.37 2.541" fill="#292f33"/></g></svg>