<svg xmlns="http://www.w3.org/2000/svg" viewBox="0 0 45 45"><defs><clipPath id="a"><path d="M0 36h36V0H0v36z"/></clipPath></defs><g clip-path="url(#a)" transform="matrix(1.25 0 0 -1.25 0 45)"><path d="M27.395 0c-.433 12.618-2.98 23.689-11.794 23.689C6.786 23.689 4.24 12.618 3.806 0h23.59z" fill="#292f33"/><path d="M9.07 0c-.708 5.899-2.246 10-4.036 10C3.244 10 1.706 5.899 1 0h8.07zM32 0c-.794 5.899-2.522 10-4.534 10s-3.741-4.101-4.535-10H32z" fill="#292f33"/><path d="M27.465 12.313C23.542 23.465 28 33 17 33S8.264 24.825 3.807 13.873C2.687 11.125 5.25 7.966 5.25 7.966s2.612 4.756 4.75 5.846c.59-3.277 1.75-6.937 1.75-6.937s4.915 5.656 9.085 8.25c1.15-1.54 4.915-7.5 4.915-7.5s2.507 2.435 1.715 4.687" fill="#e1e8ed"/><path d="M23 31c4.36-3.059 5.542-2.16 7.812-3.563 2.126-1.312 2.001-4.937.125-8.062-.579 2.661.501 3.149-6.937 3.149-5 0-7.928-.289-7.001 1 .928 1.29 10.027-.458 6.001 7.476" fill="#ffcc4d"/><path d="M20.94 28.483a1.483 1.483 0 1 0-2.968 0 1.483 1.483 0 1 0 2.967 0" fill="#292f33"/><path d="M22 28.93h-5v2h5v-2zM15 16s1-3 6-7c1 3 4 8 4 8l-10-1z" fill="#e1e8ed"/></g></svg>