<svg xmlns="http://www.w3.org/2000/svg" viewBox="0 0 45 45"><defs><clipPath id="a"><path d="M0 36h36V0H0v36z"/></clipPath></defs><g clip-path="url(#a)" transform="matrix(1.25 0 0 -1.25 0 45)"><path d="M19 16.5C20 9 18 7 18 7s-2 2-1 9.5c.913 6.843-2.687 9.159 1 9.159 3.688 0 .088-2.316 1-9.159" fill="#292f33"/><path d="M17.59 25.74a.5.5 0 1 0-.877-.481l-2.65 4.819a.501.501 0 0 0 .876.482l2.65-4.82zM18.411 25.74a.5.5 0 1 1 .876-.481l2.651 4.819a.5.5 0 1 1-.876.482l-2.65-4.82zM18 17c-9.962.477-15.645-.835-15-9 .727-9.191 15 0 15 3v6z" fill="#292f33"/><path d="M8.19 5.103c-1.744 0-3.217.343-3.65 2.438-.49 2.373.108 4.768.975 5.93 1.78 2.384 6.457 2.521 11.554 2.528v-5c0-.404-.864-1.816-2.948-3.4-2.057-1.563-4.273-2.497-5.93-2.497z" fill="#88c9f9"/><path d="M5.515 13.472a3.954 3.954 0 0 1-.652-1.426c5.44.357 9.955 1.653 12.207 3.406V16c-5.097-.007-9.776-.144-11.555-2.528M9.357 7.604a1.77 1.77 0 1 0-3.54-.002 1.77 1.77 0 0 0 3.54.002M12.381 7.992a1.3 1.3 0 1 0-2.601 0 1.3 1.3 0 0 0 2.601 0M14.541 9.033a1.041 1.041 0 1 0-2.082 0 1.041 1.041 0 0 0 2.082 0M15.941 10.075a.7.7 0 1 0-1.4 0 .7.7 0 0 0 1.4 0" fill="#bbddf5"/><path d="M17.974 17c9.962.477 15.645-.835 15-9-.727-9.191-15 0-15 3v6z" fill="#292f33"/><path d="M27.784 5.103c1.744 0 3.217.343 3.65 2.438.49 2.373-.109 4.768-.976 5.93-1.779 2.384-6.457 2.521-11.553 2.528v-5c0-.404.863-1.816 2.947-3.4 2.057-1.563 4.273-2.497 5.93-2.497h.001z" fill="#88c9f9"/><path d="M30.459 13.472c.302-.404.516-.882.652-1.426-5.44.357-9.955 1.653-12.207 3.406V16c5.097-.007 9.776-.144 11.555-2.528M26.617 7.604a1.77 1.77 0 1 1 3.54-.002 1.77 1.77 0 0 1-3.54.002M23.593 7.992a1.3 1.3 0 1 1 2.601 0 1.3 1.3 0 0 1-2.601 0M21.433 9.033a1.041 1.041 0 1 1 2.082 0 1.041 1.041 0 0 1-2.082 0M20.033 10.075a.7.7 0 1 1 1.399 0 .7.7 0 0 1-1.4 0" fill="#bbddf5"/><path d="M18 22C14 29 1.464 33.336 1 32c-2-5.75 2.587-13.609 4.455-15.04C7.999 15.012 18 15 18 16v6z" fill="#292f33"/><path d="M5.375 19.385C4.541 20.58 3.23 23.36 2.97 28c2.475-.134 10.922-.692 14.09-6.272v-5.193c-.987-.311-2.98-.21-6.558.187-3.577.397-4.293 1.469-5.127 2.663" fill="#3b88c3"/><path d="M3.223 25.625c.2-1.33.48-2.463.796-3.394 7.908 1.155 12.994-2.977 12.994-2.977s-3.083 6.053-13.79 6.37" fill="#55acee"/><path d="M16.914 17.125S12.818 21.749 4.7 20.552c.238-.486.47-.875.675-1.167l.25-.356c5.89 1.051 11.288-1.904 11.288-1.904" fill="#55acee"/><path d="M17.974 22c4 7 16.536 11.336 17 10 2-5.75-2.587-13.609-4.455-15.04C27.975 15.012 17.974 15 17.974 16v6z" fill="#292f33"/><path d="M30.599 19.385c.834 1.195 2.146 3.975 2.405 8.615-2.475-.134-10.922-.692-14.09-6.272v-5.193c.987-.311 2.98-.21 6.558.187 3.577.397 4.293 1.469 5.127 2.663" fill="#3b88c3"/><path d="M32.751 25.625c-.2-1.33-.48-2.463-.796-3.394-7.908 1.155-12.994-2.977-12.994-2.977s3.082 6.053 13.79 6.37" fill="#55acee"/><path d="M19.06 17.125s4.096 4.624 12.213 3.427a8.867 8.867 0 0 0-.675-1.167c-.083-.12-.167-.239-.25-.356-5.89 1.051-11.288-1.904-11.288-1.904" fill="#55acee"/></g></svg>