<svg xmlns="http://www.w3.org/2000/svg" viewBox="0 0 45 45"><defs><clipPath id="a"><path d="M0 36h36V0H0v36z"/></clipPath></defs><g clip-path="url(#a)" transform="matrix(1.25 0 0 -1.25 0 45)"><path d="M7.317 25c-5.723-9.083.958-18 .958-18s2.875.442 6.875 5.2S7.317 25 7.317 25M28.66 25c5.722-9.083-.959-18-.959-18s-2.874.442-6.875 5.2c-4 4.758 7.833 12.8 7.833 12.8" fill="#662113"/><path d="M15.203 4.443a1.22 1.22 0 0 1-.531.496c-2.032 2.172-.59 4.717-.59 4.717 0 .703 1.273 2.544 0 2.544l-1.271-1.273c-1.272-1.27-1.272-5.088-1.272-5.088H8.995a1.272 1.272 0 1 1 0-2.543h1.408l-.282-.154A1.274 1.274 0 0 1 11.33.903l3.358 1.816c.618.333.846 1.105.514 1.724M20.799 4.443c.123.23.317.384.53.496 2.034 2.172.589 4.717.589 4.717 0 .703-1.271 2.544 0 2.544l1.273-1.273c1.272-1.27 1.272-5.088 1.272-5.088h2.544a1.27 1.27 0 0 0 1.27-1.273 1.27 1.27 0 0 0-1.27-1.27h-1.408l.28-.154A1.272 1.272 0 1 0 24.67.903L21.313 2.72a1.273 1.273 0 0 0-.514 1.724" fill="#ffac33"/><path d="M28.278 24.709c2.891 6.092 0 10.542 0 10.542s-5.78-.96-6.744-2.875c-1.219-2.425 6.744-7.667 6.744-7.667" fill="#662113"/><path d="M29.563 23.262C29.563 12.965 26.41 2.667 18 2.667c-8.41 0-11.563 10.298-11.563 20.595 0 10.298 5.177 10.654 11.562 10.654 6.387 0 11.563-.356 11.563-10.654" fill="#662113"/><path d="M27.666 18.262c0-10.297-7.774-14.595-9.666-14.595-1.892 0-9.666 4.298-9.666 14.595 0 10.298 19.332 10.298 19.332 0" fill="#c1694f"/><path d="M7.722 24.709c-2.891 6.092 0 10.542 0 10.542s5.782-.96 6.746-2.875c1.218-2.425-6.746-7.667-6.746-7.667" fill="#662113"/><path d="M14.929 31.627c-4.227 1.584-7.207 3.624-7.207 3.624s-2.076-3.221-.927-7.926c.446-2.137 1.94-4.196 3.904-4.662 2.636-.627 7.3.049 7.3 3.963 0 2.694-1.073 4.252-3.07 5M21.071 31.627c4.227 1.584 7.206 3.624 7.206 3.624s2.076-3.221.928-7.926c-.446-2.137-1.94-4.196-3.903-4.662-2.637-.627-7.302.049-7.302 3.963 0 2.695 1.074 4.252 3.071 5" fill="#c1694f"/><path d="M16.084 27.584a3.833 3.833 0 1 0-7.666 0 3.833 3.833 0 0 0 7.666 0M27.583 27.584a3.833 3.833 0 1 0-7.666 0 3.833 3.833 0 0 0 7.666 0" fill="#ffd983"/><path d="M14.166 27.584a1.917 1.917 0 1 0-3.833-.001 1.917 1.917 0 0 0 3.833 0M25.667 27.584a1.917 1.917 0 1 0-3.833-.001 1.917 1.917 0 0 0 3.833 0" fill="#292f33"/><path d="M20.875 23.271c0-2.382-2.875-3.354-2.875-3.354s-2.875.972-2.875 3.354S18 26.625 18 26.625s2.875-.972 2.875-3.354" fill="#ffcc4d"/><path d="M20.875 23.271c0-2.382-2.875-3.354-2.875-3.354s-2.875.972-2.875 3.354C16.323 22.073 18 21.834 18 21.834s1.677.239 2.875 1.437" fill="#f4900c"/></g></svg>