<svg xmlns="http://www.w3.org/2000/svg" viewBox="0 0 45 45"><defs><clipPath id="a"><path d="M0 36h36V0H0v36z"/></clipPath></defs><g clip-path="url(#a)" transform="matrix(1.25 0 0 -1.25 0 45)"><path d="M23 15c0-6.352-3-10-5-10s-5 3.648-5 10 2.239 7 5 7c2.762 0 5-.648 5-7" fill="#66757f"/><path d="M22 25c0-3.313-.686-4-4-4s-4 .687-4 4c0 3.314.686 4 4 4s4-.686 4-4" fill="#66757f"/><path d="M14 25c-2 5 1 7 1 7s2-1 2-4-3-3-3-3" fill="#66757f"/><path d="M14.668 26.096c-.775 2.457-.118 3.895.404 4.58.415-.449.928-1.285.928-2.676 0-1.268-.74-1.734-1.331-1.904" fill="#546066"/><path d="M22 25c2 5-1 7-1 7s-2-1-2-4 3-3 3-3M16.016 22c-1.62-1.157-10-2-9 5 .142.99-1 1-2 0-3-3-6-7.834-4-20 3 5 6 4 7-1 3 4 6 2 8 0 3 3 0 16 0 16M19.953 22c1.62-1.157 10-2 9 5-.142.99 1 1 2 0 3-3 6-7.834 4-20-3 5-6 4-7-1-3 4-6 2-8 0-3 3 0 16 0 16" fill="#66757f"/><path d="M17 25a1 1 0 1 0-2 0 1 1 0 0 0 2 0M21 25a1 1 0 1 0-2 0 1 1 0 0 0 2 0" fill="#292f33"/><path d="M21.332 26.096c.775 2.457.118 3.895-.403 4.58C20.514 30.227 20 29.391 20 28c0-1.268.739-1.734 1.332-1.904" fill="#546066"/><path d="M7.996 9.09C8.888 11.78 8.57 15.078 7 19c-1.487 3.719-1.316 6.329-1.129 7.423-.049-.041-.097-.078-.148-.13C3.017 23.587.477 19.469 1.66 9.565c1.276 1.379 2.412 1.722 3.227 1.722 1.266 0 2.334-.783 3.11-2.197" fill="#99aab5"/><path d="M6.832 22.75l-.06.087C7 20 8.4 18.998 9 16c.588-2.94.477-5.52.088-7.565.84.57 1.726.874 2.657.874 1.264 0 2.547-.538 3.895-1.627C14 17 9 19 6.83 22.75M28.004 9.09c-.893 2.69-.572 5.988.996 9.91 1.487 3.719 1.315 6.329 1.129 7.423.049-.041.097-.078.148-.13 2.706-2.706 5.247-6.824 4.063-16.728-1.275 1.379-2.412 1.722-3.227 1.722-1.266 0-2.334-.783-3.11-2.197" fill="#99aab5"/><path d="M29.168 22.75l.061.087C29 20 27.6 18.998 27 16c-.588-2.94-.477-5.52-.088-7.565-.84.57-1.725.874-2.656.874-1.264 0-2.548-.538-3.895-1.627C22 17 27 19 29.168 22.75M18.688 22.894a.977.977 0 0 0-1.376 0l-.57.571c-.379.378-.25.687.285.687h1.945c.535 0 .664-.309.285-.687l-.57-.571z" fill="#99aab5"/></g></svg>