<svg xmlns="http://www.w3.org/2000/svg" viewBox="0 0 45 45"><defs><clipPath id="a"><path d="M0 36h36V0H0v36z"/></clipPath></defs><g clip-path="url(#a)" transform="matrix(1.25 0 0 -1.25 0 45)"><path d="M15.971 20.916c-1.458 2.333-.667 7.708 0 8.958s-.542 2.46-1.5.46-.996-3-3.162-2.46c-2.167.543-1.088 3.292-.38 5.625.73 2.401-.916 1.96-1.666.46-.75-1.5-1.254-5.694-2.9-5.985-1.648-.292-6.1-.6-2.852 5.65 1.307 2.515-.738 3.032-1.832.917C.361 31.993-.404 28.75.221 27.375c1.113-2.449 3.483-2.95 6.983-2.284 3.5.666 6.1.634 6.1-1.133 0-1.873.21-3.459 1.042-3.625.833-.167 1.625.583 1.625.583M20.028 20.916c1.458 2.333.667 7.708 0 8.958s.542 2.46 1.5.46.996-3 3.162-2.46c2.166.543 1.088 3.292.38 5.625-.73 2.401.916 1.96 1.666.46.75-1.5 1.254-5.694 2.901-5.985 1.647-.292 6.1-.6 2.851 5.65-1.307 2.515.737 3.032 1.831.917 1.318-2.548 2.084-5.791 1.46-7.166-1.114-2.449-3.483-2.95-6.983-2.284-3.5.666-6.102.634-6.102-1.133 0-1.873-.208-3.459-1.04-3.625-.834-.167-1.626.583-1.626.583" fill="#662113"/><path d="M13.86 20.505c.595-2.392.16-4.422-2.233-5.017-2.392-.595-6.344-.558-7.958 1.303-2.294 2.647-2.53 6.39-1.189 6.725 1.341.334 10.784-.62 11.38-3.011M22.142 20.505c-.596-2.392-.16-4.422 2.23-5.017 2.393-.595 6.346-.558 7.959 1.303 2.295 2.647 2.532 6.39 1.19 6.725-1.341.334-10.783-.62-11.38-3.011" fill="#c1694f"/><path d="M2.48 23.516c-.943-.235-1.102-2.157-.317-4.198l3.374 4.135c-1.457.146-2.643.166-3.057.063M33.52 23.516c-.419.105-1.632.083-3.118-.07l3.445-4.105c.775 2.032.613 3.94-.327 4.175" fill="#272b2b"/><path d="M12.052 20.003c.87-1.393-.553-2.229-1.946-3.099-1.393-.87-4.608.203-5.478 1.596-.871 1.393-1.186 3.131-.676 3.45.51.318 7.229-.553 8.1-1.947M23.948 20.003c-.87-1.393.553-2.229 1.945-3.099 1.395-.87 4.61.203 5.48 1.596.87 1.393 1.184 3.131.675 3.45-.51.318-7.229-.553-8.1-1.947" fill="#e6aaaa"/><path d="M18 21.875h-.003c-10.27-.001-8.703-3.959-7.602-10.541C11.495 4.75 12.796.078 18 .078c5.203 0 6.502 4.672 7.604 11.256 1.099 6.582 2.666 10.54-7.604 10.541" fill="#c1694f"/><path d="M11.826 13.15s-.75 1.298.55 2.048c1.298.75 2.048-.549 2.048-.549l.75-1.299s.75-1.299-.549-2.049-2.049.55-2.049.55l-.75 1.298zM21.576 14.65s.75 1.298 2.05.548c1.298-.75.548-2.049.548-2.049l-.75-1.299s-.75-1.299-2.049-.549c-1.299.75-.549 2.05-.549 2.05l.75 1.298zM15.226 1.734C14.3 1.922 17.076 5.33 18 5.33c.925 0 3.7-3.408 2.775-3.596-.925-.188-4.624-.188-5.55 0" fill="#272b2b"/></g></svg>