<svg xmlns="http://www.w3.org/2000/svg" viewBox="0 0 45 45"><defs><clipPath id="a"><path d="M0 36h36V0H0v36z"/></clipPath></defs><g clip-path="url(#a)" transform="matrix(1.25 0 0 -1.25 0 45)"><path d="M31 25c0 6-13 11-13 11V11s13 8 13 14" fill="#ea596e"/><path d="M5.002 25c0 6 13 11 13 11V11s-13 8-13 14" fill="#ea596e"/><path d="M27 25c0-3.833-9-12-9-12s-9 8.167-9 12c0 5 9 11 9 11s9-6 9-11" fill="#f4abba"/><path d="M13 20.133c2.552-4.254-1.806-9.096-4.357-8.245-2.553.85-3.403-1.701-.851-2.552 2.552-.85 8.051.396 11.059 3.402.85.85 1.701.85 1.701.85L13 20.134z" fill="#be1931"/><path d="M23 20.133c-2.552-4.254 1.806-9.096 4.357-8.245 2.553.85 3.404-1.701.851-2.552-2.552-.85-8.052.396-11.059 3.402-.85.85-1.701.85-1.701.85L23 20.134z" fill="#be1931"/><path d="M9 19c2.552-4.254-1.369-11.366-3.921-10.515-2.552.851-3.403-1.702-.85-2.552 2.552-.851 8.051.395 11.059 3.403.85.85 1.701.85 1.701.85L9 19zM26.99 19c-2.554-4.254 1.367-11.366 3.92-10.515 2.552.851 3.402-1.702.85-2.552-2.552-.851-8.05.395-11.059 3.403-.85.85-1.7.85-1.7.85L26.988 19z" fill="#ea596e"/><path d="M30.92 3.65C28.6 2.876 24 9 25 15c2 5-4 7.482-4 9.983 0 6.108-2.031 9.735-3.031 9.735s-2.97-3.627-2.97-9.735C15 22.483 9 20 11 15 12 9 7.402 2.876 5.08 3.65c-2.552.851-3.403-2.552-.85-3.402 2.552-.85 7.068.533 10.208 3.402C16.299 5.352 18 5.352 18 5.352s1.7 0 3.564-1.702C24.702.781 29.22-.603 31.772.248c2.55.85 1.7 4.253-.851 3.402" fill="#f4abba"/><path d="M17 12.5a2.5 2.5 0 1 0-5 0 2.5 2.5 0 0 0 5 0M24 12.5a2.5 2.5 0 1 0-5 0 2.5 2.5 0 0 0 5 0" fill="#292f33"/></g></svg>