<svg xmlns="http://www.w3.org/2000/svg" viewBox="0 0 45 45"><defs><clipPath id="a"><path d="M0 36h36V0H0v36z"/></clipPath><clipPath id="b"><path d="M2 27c-.562-.812-.477-4.671 3-6 1.3-.497 4.242-.172 7.02.152 1.845.216 3.617.431 4.789.407 3.023-.065 5.75-.947 8.629-2.546 2.807-1.557 4.526-5.937 4.454-7.555-.036-.812.169-1.406.608-1.77.792-.653 2.078-.343 3.018-.117.317.076.647.155.798.153l.302.991.098.286c1.981 5.771.366 9.121-1.338 11.754-2.541 3.927-6.765 6.628-11.255 7.483a40.431 40.431 0 0 1-7.429.685C9.207 30.923 3.923 29.778 2 27"/></clipPath><clipPath id="c"><path d="M30.791 12.598a1.37 1.37 0 0 1-.817-.804h-.001a1.818 1.818 0 0 1-.112-.693c.01-.508-.112-1.094-.365-1.744-.511-1.316-1.538-2.8-2.619-3.779-.416-.379-.718-.801-.895-1.254-.32-.829-.166-1.684.385-2.131.448-.363 1.059-.371 1.591-.022.538.353.892.405 1.033.343.147-.065.274-.349.339-.762C29.549.383 30.344.135 30.676.091c.707-.091 1.405.399 1.78 1.249l.049.118c.564 1.453 2.175 8.657 2.328 9.716a.664.664 0 0 1-.357.686c-.327.167-1.76.861-2.937.86a2.08 2.08 0 0 1-.748-.122"/></clipPath><clipPath id="d"><path d="M0 36h36V0H0v36z"/></clipPath></defs><g clip-path="url(#a)" transform="matrix(1.25 0 0 -1.25 0 45)"><path d="M15.224 21.081a1.001 1.001 0 0 0-2-.018l-.035 4a1 1 0 0 0 2 .018l.035-4zM19.639 20.635a1.001 1.001 0 0 0-1.946.463l.926 3.892a1 1 0 0 0 1.946-.463l-.926-3.892zM23.639 19.118a1.002 1.002 0 0 0-1.345-.441c-.491.249-.69.85-.441 1.343l1.804 3.57a1 1 0 1 0 1.785-.901l-1.803-3.571zM4.458 28.57c-4.53-.32-4.775 5.512 3.801 4.739 8.576-.773 17.964-3.401 20.218-1.79 1.789 1.28 1.416 3.609.965 4.079-.45.469-1.132.045-.787-.682.344-.728-.061-2.678-2.261-2.875-2.2-.197-10.401 1.352-15.576 2.08-5.284.744-9.531.375-10.454-2.581-.92-2.947 1.944-3.872 3.458-4.016 1.514-.144.636 1.047.636 1.047" fill="#662113"/><path d="M33.378 22.754c1.704-2.632 3.319-5.982 1.338-11.753l-.098-.286-.301-.992c-.152.003-.481-.076-.8-.153-.94-.226-2.225-.535-3.017.117-.44.364-.644.96-.608 1.771.072 1.618-1.647 5.997-4.454 7.555-2.88 1.598-5.606 2.481-8.628 2.545C13.872 21.621 7.164 20.173 5 21c-3.477 1.328-3.561 5.188-3 6 2.813 4.062 12.806 4.631 20.123 3.238 4.49-.855 8.714-3.556 11.255-7.484" fill="#c16a4f"/><path d="M26.877 5.578c1.081.98 2.108 2.463 2.619 3.78.253.65.375 1.235.365 1.742-.005.256.033.49.112.695h.001c.146.377.587 1.15.817.803 1.682-2.508 3.283-.533 3.686-.738a.664.664 0 0 0 .356-.686c-.153-1.059-1.765-8.264-2.328-9.716l-.049-.118C32.08.49 31.383 0 30.677.091c-.332.044-1.128.292-1.347 1.661-.064.412-.191.697-.339.762-.14.062-.495.01-1.033-.343-.532-.35-1.143-.34-1.591.022-.552.447-.705 1.302-.385 2.131.177.453.479.875.895 1.254" fill="#662113"/></g><g clip-path="url(#b)" transform="matrix(1.25 0 0 -1.25 0 45)"><path d="M24.32 18.698C22.398 21.433 6.72 13.598 2 23c3.72-1.715 10.626.864 16.542.333C30.408 22.268 30.75 13.2 30.792 12.411c-.527-5.802-6.472 6.287-6.472 6.287M23.219 27.43c1.053 1.03 3.189 2.243 4.807 2.278 1.615.036-.377 2.3-2.081 1.47-1.134-.498-3.14-2.536-3.751-3.681-.61-1.144.134-.936 1.025-.066M35.684 22.259c-2.29 1.22-5.321 3.227-7.51 2.143-2.188-1.084-.978.467.026 1.205 1.623 1.192 4.047.749 5.186-.302 1.14-1.05 2.298-3.046 2.298-3.046M37.92 14.783c-1.731 1.931-3.893 4.855-6.32 4.586-2.427-.268-.76.775.437 1.124 1.933.564 4.059-.683 4.769-2.06s1.115-3.65 1.115-3.65" fill="#662113"/></g><g clip-path="url(#c)" transform="matrix(1.25 0 0 -1.25 0 45)"><path d="M29.91.283c-1.687 2.303 2.174 7.97-3.405 1.472C24.537-1.058 29.91.283 29.91.283" fill="#292f33"/></g><g clip-path="url(#d)" transform="matrix(1.25 0 0 -1.25 0 45)"><path d="M6.083 29.291c-4.542 0-4.375 5.833 4.125 4.458 8.502-1.375 17.68-4.657 20.043-3.208 1.875 1.15 1.666 3.5 1.25 4-.416.5-1.125.126-.834-.624.293-.75-.25-2.668-2.457-2.709C26 31.166 17.93 33.29 12.818 34.38c-5.217 1.113-9.481 1.045-10.61-1.839-1.124-2.874 1.668-4 3.168-4.25 1.5-.25.708 1 .708 1" fill="#c16a4f"/><path d="M8 27a1 1 0 1 0-2 0 1 1 0 0 0 2 0" fill="#292f33"/><path d="M16.605 19.474a1 1 0 1 0-1.984.25l.504 3.97a.999.999 0 1 0 1.983-.252l-.503-3.968zM20.518 18.78a1 1 0 0 0-1.912.585l1.17 3.824a1 1 0 1 0 1.912-.585l-1.17-3.825zM24.035 17.298a1 1 0 0 0-1.703 1.048l2.096 3.407a.999.999 0 1 0 1.703-1.048l-2.096-3.407z" fill="#c16a4f"/></g></svg>