<svg xmlns="http://www.w3.org/2000/svg" viewBox="0 0 36 36"><path fill="#e26000" d="M36 32c0-12-2-28-18-28S0 20 0 32h8v-5c0-1 1-1 1 0 0 7 4 6 4 6l2 2 1-1c0-.552 1.448-1 2-1s2 .448 2 1l1 1 2-2s4 1 4-6c0-1 1-1 1 0v5z"/><circle cx="18" cy="13.5" r="11.5" fill="#e26000"/><path fill="#d9b981" d="M32 31c-3 0-4 1-4 1v1a1 1 0 0 0 2 0 1 1 0 0 0 2 0 1 1 0 0 0 2 0 1 1 0 0 0 2 0v-1s-1-1-4-1M4 31c-3 0-4 1-4 1v1a1 1 0 0 0 2 0 1 1 0 0 0 2 0 1 1 0 0 0 2 0 1 1 0 0 0 2 0v-1s-1-1-4-1"/><path fill="#c45400" d="M6.5 19.607C6.5 25.051 14.167 27 18 27s11.5-1.949 11.5-7.393c0-2.366-.974-4.536-2.595-6.235.023-.244.04-.491.04-.747C26.944 7.862 24.9 4 18 4s-8.944 3.862-8.944 8.625c0 .256.017.503.04.747C7.474 15.071 6.5 17.241 6.5 19.607"/><path fill="#d9b981" d="M8 17.571C8 22.305 14.667 24 18 24s10-1.695 10-6.429c0-2.057-.847-3.944-2.257-5.422.02-.212.035-.427.035-.65C25.778 7.358 24 4 18 4s-7.778 3.358-7.778 7.5c0 .223.015.438.035.65C8.847 13.627 8 15.514 8 17.571"/><circle cx="16" cy="11" r="1" fill="#292f33"/><circle cx="20" cy="11" r="1" fill="#292f33"/><path fill="#ffe8b6" d="M12.67 11.073a.5.5 0 0 1-.484-.626 3.51 3.51 0 0 1 4.271-2.503.5.5 0 1 1-.253.967 2.505 2.505 0 0 0-3.05 1.788.5.5 0 0 1-.484.374m10.66 0a.5.5 0 0 1-.483-.374 2.48 2.48 0 0 0-1.155-1.525 2.47 2.47 0 0 0-1.896-.262.499.499 0 1 1-.252-.967 3.48 3.48 0 0 1 2.653.367 3.47 3.47 0 0 1 1.616 2.136.5.5 0 0 1-.483.625"/><path fill="#c09154" d="m13 5 2 3 1-1 2 3 2-3 1 1 2-3s-2-1-5-1-5 1-5 1"/><path fill="#e26000" d="m13 5 2 2 1-2 2 3 2-3 1 2 2-2s-2-2-5-2-5 2-5 2"/><circle cx="17.5" cy="13.5" r=".5" fill="#c09154"/><circle cx="18.5" cy="13.5" r=".5" fill="#c09154"/><path fill="#292f33" d="M18 21c-3.665 0-5.286-1.579-5.354-1.646a.5.5 0 0 1 .705-.709C13.365 18.658 14.783 20 18 20s4.635-1.342 4.648-1.356a.503.503 0 0 1 .706.006.5.5 0 0 1-.001.703C23.286 19.421 21.665 21 18 21"/><path fill="#d9b981" d="M17.295 33c-.235 2.224-5 4-6 2-.247-.494-2.341-4.936-2.535-5.453a.999.999 0 1 1 1.873-.701.999.999 0 1 1 1.873-.701.999.999 0 1 1 1.873-.701.999.999 0 1 1 1.873-.701c.193.514 1.148 5.263 1.043 6.257m1.41 0c.235 2.224 5 4 6 2 .247-.494 2.341-4.936 2.535-5.453a.999.999 0 1 0-1.873-.701.999.999 0 1 0-1.873-.701.999.999 0 1 0-1.873-.701.999.999 0 1 0-1.873-.701c-.193.514-1.148 5.263-1.043 6.257"/></svg>