<svg viewBox="0 0 36 36" xmlns="http://www.w3.org/2000/svg"><path d="M26.875 14.6C25.1 12.778 21.55 12.778 18 12.778s-7.1 0-8.875 1.822c-2.663 2.733-5.325 9.72-3.55 15.186S15.132 35.814 18 35.814s10.65-.562 12.425-6.028c1.775-5.465-.887-12.453-3.55-15.186z" fill="#8a4b38"/><path d="M25.58 14.412c-1.516-1.556-4.548-1.556-7.58-1.556s-6.064 0-7.58 1.556c-2.274 2.334-4.548 8.302-3.032 12.969C8.904 32.049 15.55 32.529 18 32.529s9.096-.48 10.611-5.148c1.516-4.668-.757-10.635-3.031-12.969z" fill="#a5503c"/><path d="M27.453 13.025c-.383-1.616-2.263-3.17-9.437-3.17h-.032c-7.175 0-9.055 1.554-9.437 3.17-.733 3.093 2.263 4.278 9.437 4.278h.032c7.174-.001 10.17-1.185 9.437-4.278z" fill="#ccd6dd"/><path d="M25.622 12.355c.293.72-1.832 1.658-7.64 1.658s-7.938-.941-7.64-1.658c.323-.779 3.869-1.55 7.64-1.55s7.324.771 7.64 1.55z" fill="#66757f"/><path d="M10.993 13.144c1.015.473 3.226.869 6.99.869 3.767 0 5.976-.395 6.99-.869-.734-.635-2.76-1.27-6.99-1.27-4.23.001-6.256.635-6.99 1.27z" fill="#77b255"/><path d="M25 14.231c-.156-.424-.429-.393-.814-.276-1.779.537-4.36.641-6.211.652-1.851-.011-4.676-.162-6.211-.652-.384-.122-.701-.172-.862.276-.156.436.306.852.697.947 2.366.576 4.313.746 6.376.759 2.062-.013 3.765-.159 6.131-.735.392-.096 1.075-.476.894-.971z" fill="#fff"/><path d="M22.894 13.686l5.315-7.93 5.296-3.743s.141-.297-.78-1.01C31.804.29 31.388.587 31.388.587L26.84 4.204 20.348 13.9a34.367 34.367 0 002.546-.214z" fill="#ccd6dd"/><path d="M22.894 13.686l5.315-7.93 5.296-3.743-.067-.089-5.792 3.208-5.8 8.674c.431-.034.635-.06 1.048-.12z" fill="#99aab5"/><circle cx="27.617" cy="4.945" fill="#99aab5" r="1.668"/><path d="M26.213 4.639a1.262 1.262 0 112.524 0 1.262 1.262 0 01-2.524 0z" fill="#ccd6dd"/><path d="M11.459 10.865c1.604-.639 4.544-.802 5.569-.757s.571.757-.015.757c-1.693 0-3.787.401-5.228.772-.851.219-1.143-.447-.326-.772z" fill="#e1e8ed"/></svg>