<svg xmlns="http://www.w3.org/2000/svg" viewBox="0 0 36 36"><path fill="#66757f" d="M26 4c0 3-3.582 6-8 6s-8-3-8-6c0-4.418 6-4 8-4s8-.418 8 4"/><path fill="#ccd6dd" d="M24.306 12H11.694a2 2 0 0 0-1.973 1.671l-3.333 20A2 2 0 0 0 8.361 36h19.278a2 2 0 0 0 1.973-2.329l-3.333-20A2 2 0 0 0 24.306 12"/><path fill="#f5f8fa" d="M19.344 14h-6.802a1 1 0 0 0-.986.836l-3 18A.998.998 0 0 0 9.541 34h10.427zm5.101.836a1 1 0 0 0-.986-.836h-2.413l.909 20h4.505a1 1 0 0 0 .986-1.164z"/><ellipse cx="15" cy="1.5" fill="#ccd6dd" rx="1.2" ry=".6"/><ellipse cx="21" cy="1.5" fill="#ccd6dd" rx="1.2" ry=".6"/><ellipse cx="18" cy="3.5" fill="#ccd6dd" rx="1.2" ry=".6"/><path fill="#66757f" d="M25 12H11V9.528c0-.844.684-1.262 1.528-1.262h10.944c.844 0 1.528.418 1.528 1.262z"/><path fill="#ccd6dd" d="M23.472 8H12.528c-.657 0-1.213.417-1.429 1H24.9c-.215-.583-.77-1-1.428-1M11 10h14v1H11zm0 2h14v.5H11z"/></svg>