<svg xmlns="http://www.w3.org/2000/svg" viewBox="0 0 36 36"><path fill="#ccd6dc" d="M30 26a4 4 0 0 1-4 4H4a4 4 0 0 1-4-4V4a4 4 0 0 1 4-4h22a4 4 0 0 1 4 4z"/><path fill="#f5f8fa" d="M28 26a2 2 0 0 1-2 2H4a2 2 0 0 1-2-2V4a2 2 0 0 1 2-2h22a2 2 0 0 1 2 2z"/><path fill="#50a5e6" d="M6 26a1 1 0 0 1-1-1V13a1 1 0 1 1 2 0v12a1 1 0 0 1-1 1"/><path fill="#77b255" d="M10 26a1 1 0 0 1-1-1V8a1 1 0 1 1 2 0v17a1 1 0 0 1-1 1"/><path fill="#dd2f45" d="M14 26a1 1 0 0 1-1-1v-7a1 1 0 1 1 2 0v7a1 1 0 0 1-1 1"/><path fill="#226798" d="M36 36v-2c0-3.314-2.685-6-6-6H14a6 6 0 0 0-6 6v2z"/><path fill="#3a87c2" d="M16.667 36H20.2L17 28h-2l-1 6 3 1zm10.666 0H23.8l3.2-8h2l1 6-3 1z"/><path fill="#ccd6dc" d="m24 36 3-6H17l3 6z"/><path fill="#ffdc5d" d="M18.321 28.679c.681.649 1.419 1.529 2.055 2.344a2.065 2.065 0 0 0 3.26-.004c.632-.815 1.365-1.693 2.044-2.34.423-.403.68-.95.68-1.534v-.783a2.07 2.07 0 0 0-2.072-2.072h-4.576a2.07 2.07 0 0 0-2.072 2.072v.782c0 .585.257 1.132.681 1.535"/><path fill="#f9ca55" d="M17.632 25.973c1.216 1.374 2.724 1.746 4.364 1.746s3.147-.373 4.363-1.746v-3.491h-8.728v3.491z"/><path fill="#ffac33" d="M25.731 3.323c-1.925-.623-6.455-.453-7.588 1.019-2.944.057-6.398 2.718-6.851 6.228-.448 3.475.551 5.088.906 7.701.403 2.96 2.067 3.907 3.397 4.303 1.914 2.529 3.949 2.421 7.366 2.421 6.672 0 9.85-4.464 10.131-12.047.17-4.585-2.521-8.059-7.361-9.625"/><path fill="#ffdc5d" d="M29.547 13.273c-.646-.894-1.472-1.614-3.284-1.868.68.311 1.331 1.387 1.416 1.982s.17 1.076-.368.481c-2.155-2.382-4.502-1.444-6.827-2.899-1.624-1.016-2.119-2.141-2.119-2.141s-.198 1.5-2.661 3.029c-.714.443-1.566 1.43-2.038 2.888-.34 1.048-.234 1.982-.234 3.578 0 4.66 3.841 8.578 8.578 8.578s8.578-3.953 8.578-8.578c-.002-2.898-.305-4.031-1.041-5.05"/><path fill="#c1694f" d="M22.961 20.707h-1.906a.477.477 0 1 1 0-.954h1.906a.477.477 0 1 1 0 .954"/><path fill="#662113" d="M18.195 17.37a.953.953 0 0 1-.953-.953v-.953a.953.953 0 0 1 1.906 0v.953a.95.95 0 0 1-.953.953m7.626 0a.953.953 0 0 1-.953-.953v-.953a.953.953 0 0 1 1.906 0v.953a.953.953 0 0 1-.953.953"/><path fill="#c1694f" d="M22.134 24.686c-2.754 0-3.6-.705-3.741-.848a.655.655 0 0 1 .902-.95c.052.037.721.487 2.839.487 2.2 0 2.836-.485 2.842-.49a.64.64 0 0 1 .913.015.67.67 0 0 1-.014.938c-.142.143-.987.848-3.741.848"/><path fill="#f4f7f9" d="M26.719 26.75c-.567.566-2.709 3.786-2.709 3.786s1.127.839 3.084 3.13c.197.23.543-4.625.584-5.709.011-.303-.688-1.478-.959-1.207m-9.418 0c.566.566 2.709 3.786 2.709 3.786s-1.127.839-3.084 3.13c-.197.23-.543-4.625-.584-5.709-.012-.303.687-1.478.959-1.207"/></svg>