<svg xmlns="http://www.w3.org/2000/svg" viewBox="0 0 36 36"><path fill="#F7DECE" d="M5.001 28a1 1 0 0 1-.449-1.895l5.544-2.772.917-5.498a1 1 0 1 1 1.973.329l-1 6a1.002 1.002 0 0 1-.539.73l-6 3a.99.99 0 0 1-.446.106zm25.998 0c-.15 0-.303-.034-.446-.105l-6-3a1.004 1.004 0 0 1-.539-.73l-1-6a1 1 0 1 1 1.972-.329l.916 5.498 5.545 2.772A1 1 0 0 1 30.999 28z"/><path fill="#4289C1" d="M13 27.25h10v4.5H13z"/><path fill="#292F33" d="M19 0a5.964 5.964 0 0 0-3.402 1.061C15.402 1.031 15.205 1 15 1a4 4 0 0 0-4 4v4a7 7 0 1 0 14 0V6.001A6 6 0 0 0 19 0z"/><path fill="#9268CA" d="M23 15H13c-2.562 0-2.458 4-2.458 4H13v9h10v-9h2.458s.104-4-2.458-4z"/><path fill="#F7DECE" d="M16 3s-.011 3.285-3 3.894V9a4.997 4.997 0 0 0 3 4.578V15a2 2 0 0 0 4 0v-1.422a4.996 4.996 0 0 0 3-4.577V6.968C16.019 6.644 16 3 16 3z"/><path fill="#DF1F32" d="M20 12h-4s0 1 2 1 2-1 2-1z"/><circle fill="#662113" cx="15.5" cy="8.5" r=".5"/><circle fill="#662113" cx="20.5" cy="8.5" r=".5"/><path fill="#C1694F" d="M17 10h2s0 1-1 1-1-1-1-1z"/><path fill="#F7DECE" d="M8.417 34.556a1.5 1.5 0 0 0 1.95.834l12.395-3.803s3.49.701 3.351-1.294c-.106-1.52-2.586-2.245-4.467-1.491-1.881.754-12.395 3.803-12.395 3.803a1.502 1.502 0 0 0-.834 1.951z"/><path fill="#EEC2AD" d="M25.756 30.608c-.212-.689-2.021-.422-2.456-.303-.435.12-12.47 3.844-13.453 4.16-.924.296-.364 1.06.087 1.026.033-.008.066-.01.099-.02L21.8 31.884c.877-.274 1.884-.166 2.719-.244.396-.037.802-.167.877-.202.166-.075.511-.34.36-.83z"/><path fill="#F7DECE" d="M27.583 34.556a1.5 1.5 0 0 1-1.95.834l-12.395-3.803s-3.49.701-3.351-1.294c.106-1.52 2.586-2.245 4.467-1.491 1.881.754 12.395 3.803 12.395 3.803a1.502 1.502 0 0 1 .834 1.951z"/><path fill="#EEC2AD" d="M10.244 30.608c.212-.689 2.021-.422 2.456-.303.435.12 12.47 3.844 13.453 4.16.924.296.364 1.06-.087 1.026-.033-.008-.066-.01-.099-.02L14.2 31.884c-.877-.274-1.884-.166-2.719-.244a3.604 3.604 0 0 1-.877-.202c-.166-.075-.511-.34-.36-.83z"/></svg>