<svg xmlns="http://www.w3.org/2000/svg" viewBox="0 0 36 36"><path fill="#C1694F" d="M36 32a4 4 0 0 1-4 4H4a4 4 0 0 1-4-4V4a4 4 0 0 1 4-4h28a4 4 0 0 1 4 4v28z"/><path fill="#D99E82" d="M0 4h36v4H0zm0 8h36v4H0zm0 8h36v4H0zm0 8h36v4H0z"/><path opacity=".75" fill="#E1E8ED" d="M33.47 15.4A2.97 2.97 0 0 0 32 15a3 3 0 0 0-3 3c0 .061.014.118.018.178a2.989 2.989 0 0 0-1.84 1.84c-.06-.004-.117-.018-.178-.018a2.99 2.99 0 0 0-2.822 2.018C24.118 22.014 12.657 22 11 22c-.395 0-.77.081-1.116.22a2.988 2.988 0 0 0-1.902-2.041C7.986 20.118 8 20.061 8 20a3 3 0 0 0-3-3 2.97 2.97 0 0 0-1.47.4A2.992 2.992 0 0 0 1 16c-.355 0-.685.081-1 .195V32a4 4 0 0 0 4 4h28a4 4 0 0 0 4-4V14a2.992 2.992 0 0 0-2.53 1.4z"/><path fill="#FFE51E" d="M19.329 1a7.94 7.94 0 0 0-4.524 1.41c-.261-.039-.523-.08-.795-.08C11.072 2.33 9 5.062 9 8v8c0 5.142 3.858 8.939 9 8.939 5.142 0 8.914-4.312 8.998-8.87L27 9c-.083-4.991-3.263-8-7.671-8z"/><path fill="#F3D2A2" d="M23 20h-3v-1h-4v1h-3c-1.469 0-3 1-3 3v12l.022-.004A1.104 1.104 0 0 0 11.114 36c.615 0 1.114-.499 1.114-1.114 0-.084-.03-.159-.048-.237h11.639c-.018.079-.048.153-.048.237 0 .615.499 1.114 1.114 1.114.576 0 1.034-.443 1.092-1.004L26 35V23c0-2-1.531-3-3-3z"/><path fill="#E2C196" d="M20 19h-4v1s2 1 4 0v-1z"/><path fill="#F3D2A2" d="M15 6s-1 3-4 4v3c0 3.674 3.327 6.619 6.999 6.619C21.672 19.619 25 16.674 25 13v-3c-8 0-10-4-10-4z"/><path fill="#DF1F32" d="M21 16h-6s.613 1.552 3 1.552S21 16 21 16z"/><circle fill="#662113" cx="15.145" cy="12.726" r=".726"/><circle fill="#662113" cx="20.855" cy="12.726" r=".726"/><path fill="#C1694F" d="M17 14h2s0 1-1 1-1-1-1-1z"/><path fill="#9266CC" d="M12 23h12v13H12z"/><path fill="#CBB7EA" d="M23 36h-4v-9s0-3-2-4h6v13z"/><path fill="#744EAA" d="M24 36h-4v-9s0-3-2-4h6v13z"/><path fill="#744EAA" d="M18 23h-6v1h7.121A2.977 2.977 0 0 0 18 23z"/><path fill="#9266CC" d="M18.121 24h1A2.977 2.977 0 0 0 18 23h-1c.481.24.844.598 1.121 1z"/><path fill="#553788" d="M18 23c.481.24.844.598 1.121 1H24v-1h-6z"/><path d="M0 32a4 4 0 0 0 4 4h12.816c.112-.314.184-.647.184-1a3 3 0 0 0-3-3c-.36 0-.7.074-1.019.19.004-.064.019-.125.019-.19a2.992 2.992 0 0 0-1.4-2.53c.247-.436.4-.933.4-1.47a3 3 0 0 0-3-3 2.98 2.98 0 0 0-2.021.796A2.99 2.99 0 0 0 4 23a2.992 2.992 0 0 0-2.884 2.22A2.984 2.984 0 0 0 0 25v7zm34-7c-.87 0-1.646.376-2.194.967A2.992 2.992 0 0 0 29 24a3 3 0 0 0-3 3 3 3 0 0 0-3 3c0 .537.153 1.034.4 1.47A2.992 2.992 0 0 0 22 34a2.99 2.99 0 0 0-2.816 2H32a4 4 0 0 0 4-4v-6.221A2.978 2.978 0 0 0 34 25z" opacity=".85" fill="#F5F8FA"/></svg>