<svg xmlns="http://www.w3.org/2000/svg" viewBox="0 0 36 36"><path fill="#C1694F" d="M36 32a4 4 0 0 1-4 4H4a4 4 0 0 1-4-4V4a4 4 0 0 1 4-4h28a4 4 0 0 1 4 4v28z"/><path fill="#D99E82" d="M0 4h36v4H0zm0 8h36v4H0zm0 8h36v4H0zm0 8h36v4H0z"/><path opacity=".75" fill="#E1E8ED" d="M33.47 15.4A2.97 2.97 0 0 0 32 15a3 3 0 0 0-3 3c0 .061.014.118.018.178a2.989 2.989 0 0 0-1.84 1.84c-.06-.004-.117-.018-.178-.018a2.99 2.99 0 0 0-2.822 2.018C24.118 22.014 12.657 22 11 22c-.395 0-.77.081-1.116.22a2.988 2.988 0 0 0-1.902-2.041C7.986 20.118 8 20.061 8 20a3 3 0 0 0-3-3 2.97 2.97 0 0 0-1.47.4A2.992 2.992 0 0 0 1 16c-.355 0-.685.081-1 .195V32a4 4 0 0 0 4 4h28a4 4 0 0 0 4-4V14a2.992 2.992 0 0 0-2.53 1.4z"/><path fill="#AF7E57" d="M26 22c0-2-1.531-3-3-3h-1.975v-2h-5.929v2H13c-1.469 0-3 1-3 3v12l.024-.004c-.005.041-.024.076-.024.118a1.114 1.114 0 0 0 2.228 0c0-.164-.04-.317-.103-.457h11.75c-.064.14-.103.293-.103.457a1.114 1.114 0 0 0 2.228 0c0-.042-.019-.077-.024-.118L26 34V22z"/><path fill="#9B6A49" d="M12.5 32a.501.501 0 0 1-.5-.5v-8c0-.275.225-.5.5-.5s.5.225.5.5v8c0 .275-.225.5-.5.5zm11 0a.501.501 0 0 1-.5-.5v-8c0-.275.225-.5.5-.5s.5.225.5.5v8c0 .275-.225.5-.5.5z"/><path fill="#77B255" d="M12 29h12v7H12z"/><path fill="#5C913B" d="M18 29h-6v1h7.121A2.977 2.977 0 0 0 18 29z"/><path fill="#A6D388" d="M23 36h-4v-3s0-3-2-4h6v7z"/><path fill="#5C913B" d="M24 36h-4v-3s0-3-2-4h6v7z"/><path fill="#77B255" d="M18.121 30h1A2.977 2.977 0 0 0 18 29h-1c.481.24.844.598 1.121 1z"/><path fill="#3E721D" d="M18 29c.481.24.844.598 1.121 1H24v-1h-6z"/><path fill="#9B6A49" d="M21.025 16.972L15.096 17v1.553s2.965 1.482 5.929 0v-1.581z"/><path fill="#AF7E57" d="M24.356 6h-12.59v6.147c0 3.478 2.818 6.295 6.295 6.295s6.295-2.817 6.295-6.295V6z"/><path fill="#915A34" d="M20.579 15.923h-5.036s0 1.259 2.518 1.259 2.518-1.259 2.518-1.259z"/><circle fill="#662113" cx="14.913" cy="11.517" r=".629"/><circle fill="#662113" cx="21.208" cy="11.517" r=".629"/><path fill="#915A34" d="M16.802 13.405h2.518s0 1.259-1.259 1.259-1.259-1.259-1.259-1.259z"/><path fill="#60352A" d="M18 2c4.328 0 7.033 3.221 7.033 5.905s-.541 3.758-1.082 2.684l-1.082-2.147s-3.246 0-4.328-1.074c0 0 1.623 3.221-1.623 0 0 0 .541 2.148-2.705-.536 0 0-1.623 1.074-2.164 3.757-.15.745-1.082 0-1.082-2.684S13.131 2 18 2"/><path d="M0 32a4 4 0 0 0 4 4h12.816c.112-.314.184-.647.184-1a3 3 0 0 0-3-3c-.36 0-.7.074-1.019.19.004-.064.019-.125.019-.19a2.992 2.992 0 0 0-1.4-2.53c.247-.436.4-.933.4-1.47a3 3 0 0 0-3-3 2.98 2.98 0 0 0-2.021.796A2.99 2.99 0 0 0 4 23a2.992 2.992 0 0 0-2.884 2.22A2.984 2.984 0 0 0 0 25v7zm34-7c-.87 0-1.646.376-2.194.967A2.992 2.992 0 0 0 29 24a3 3 0 0 0-3 3 3 3 0 0 0-3 3c0 .537.153 1.034.4 1.47A2.992 2.992 0 0 0 22 34a2.99 2.99 0 0 0-2.816 2H32a4 4 0 0 0 4-4v-6.221A2.978 2.978 0 0 0 34 25z" opacity=".85" fill="#F5F8FA"/></svg>