<svg viewBox="0 0 36 36" xmlns="http://www.w3.org/2000/svg"><path d="M18 10c-1.1 0-2-.9-2-2V5c0-1.1.9-2 2-2s2 .9 2 2v3c0 1.1-.9 2-2 2z" fill="#66757f"/><circle cx="18" cy="15" fill="#dd2e44" r="6"/><path d="M16 8h4v4h-4zm6 28h-8c-1.1 0-2-.9-2-2V15h12v19c0 1.1-.9 2-2 2z" fill="#dd2e44"/><path d="M9.406 35.849l-4.492-1.263c-.529-.149-.838-.533-.685-.853l4.439-9.311c.458-.96 1.278-1.621 1.823-1.467l.22.062c.545.153.9 1.144.791 2.202l-1.065 10.26c-.038.353-.501.519-1.031.37z" fill="#292f33"/><path d="M26.022 2.248l-9.848 1.736a1.003 1.003 0 01-1.158-.811 1.003 1.003 0 01.811-1.158L25.675.279a1.002 1.002 0 011.158.811 1.003 1.003 0 01-.811 1.158z" fill="#66757f"/><path d="M25.055 7.36l-9.397-3.42c-.517-.188-.786-.765-.598-1.282s.765-.786 1.282-.598l9.397 3.42c.517.188.786.765.598 1.282s-.765.786-1.282.598z" fill="#66757f"/><path d="M10.524 24.407a.751.751 0 01-.74-.878c.726-4.203.161-6.198-.336-7.958-.386-1.364-.75-2.653-.33-4.556C10.052 6.786 13.745 5.25 16 5.25a.75.75 0 010 1.5c-1.225 0-4.586.824-5.417 4.589-.339 1.535-.067 2.495.309 3.824.515 1.819 1.155 4.083.372 8.622a.754.754 0 01-.74.622z" fill="#292f33"/><circle cx="16" cy="7" fill="#ccd6dd" r="3"/><circle cx="16" cy="7" fill="#dd2e44" r="2"/><path d="M16.5 10c-.828 0-1.5 1.567-1.5 3.5v22c0 .275.225.5.5.5h2c.275 0 .5-.225.5-.5v-22c0-1.933-.672-3.5-1.5-3.5z" fill="#ea596e"/><path d="M20.5 18h-5c-.825 0-1.5-.675-1.5-1.5v-2c0-.825.675-1.5 1.5-1.5h5c.825 0 1.5.675 1.5 1.5v2c0 .825-.675 1.5-1.5 1.5z" fill="#f5f8fa"/><path d="M16 5c-.552 0-1.052.224-1.414.586L16 7l1.414-1.414A1.994 1.994 0 0016 5z" fill="#77b255"/></svg>