<svg xmlns="http://www.w3.org/2000/svg" viewBox="0 0 36 36"><defs><clipPath id="a" clipPathUnits="userSpaceOnUse"><path d="M-35.367 13.848h36v-36h-36Z"/></clipPath><clipPath id="b" clipPathUnits="userSpaceOnUse"><path d="M-24.343 34.246h36v-36h-36Z"/></clipPath><clipPath id="c" clipPathUnits="userSpaceOnUse"><path d="M-36 10.269H0v-36h-36Z"/></clipPath><clipPath id="d" clipPathUnits="userSpaceOnUse"><path d="M-34.38 15.907h36v-36h-36Z"/></clipPath><clipPath id="e" clipPathUnits="userSpaceOnUse"><path d="M-31.406 19.303h36v-36h-36Z"/></clipPath><clipPath id="f" clipPathUnits="userSpaceOnUse"><path d="M-28.11 21.53h36v-36h-36Z"/></clipPath><clipPath id="g" clipPathUnits="userSpaceOnUse"><path d="M-12.71 6.294h36v-36h-36Z"/></clipPath><clipPath id="h" clipPathUnits="userSpaceOnUse"><path d="M-16.316 29.198h36v-36h-36Z"/></clipPath><clipPath id="i" clipPathUnits="userSpaceOnUse"><path d="M-11.042 3.065h36v-36h-36Z"/></clipPath><clipPath id="j" clipPathUnits="userSpaceOnUse"><path d="M-13.173 8.53h36v-36h-36Z"/></clipPath><clipPath id="k" clipPathUnits="userSpaceOnUse"><path d="M-12.869 13.034h36v-36h-36Z"/></clipPath><clipPath id="l" clipPathUnits="userSpaceOnUse"><path d="M-11.599 16.805h36v-36h-36Z"/></clipPath></defs><path fill="#fcd646" d="M0 0a11 11 0 0 0-.987-2.058l-.001-.001c-1.379-1.093-5.157-1.888-7.379-1.093s-4 3-4.227 5.246c.098.732.276 1.477.54 2.217a10.6 10.6 0 0 0 1.783 3.168c1.904-.631 3.847.105 5.904-.631s3-2 5-3.269A10.6 10.6 0 0 0 0 0" clip-path="url(#a)" transform="matrix(1 0 0 -1 35.367 13.848)"/><path fill="#d4a086" d="M0 0c-.55-1.538-2.122-2.092-3.626-1.554-1.502.537-2.368 1.963-1.818 3.501.348.972.898 1.811 1.275 2.334 1.491 2.067 2.65 4.354 3.508 6.755l.036.101q.068.188.123.378c1.159.731 1.691.898 2.159.731s0 0 .592-1.715a7 7 0 0 1-.145-.37l-.036-.101C1.209 7.659.654 5.156.496 2.612.456 1.969.394 1.102 0 0" clip-path="url(#b)" transform="matrix(1 0 0 -1 24.343 34.246)"/><path fill="#d24248" d="M0 0c-1.778-.237-3.836-.021-5.895.715-2.056.736-3.785 1.875-5.009 3.185 1.922 2.334 4.664 3.444 7.073 2.583C-1.422 5.621-.007 3.024 0 0" clip-path="url(#c)" transform="matrix(1 0 0 -1 36 10.269)"/><path fill="#82ae63" d="M0 0a10 10 0 0 0-.431-.64 12.3 12.3 0 0 0-2.543-2.757c-1.406-.696-3.867-.247-5.406.304s-2 1-3.082 2.732a12.3 12.3 0 0 0-.217 3.745q.022.382.073.769C-10.373 2.709-8.535 1.445-6.314.65-4.091-.145-1.869-.333 0 0" clip-path="url(#d)" transform="matrix(1 0 0 -1 34.38 15.907)"/><path fill="#d24248" d="M0 0a10.7 10.7 0 0 0-1.724-1.11 6.7 6.7 0 0 1-1.573-1.117c-2.109 0-1.41-.72-2.109-.47-.697.25-1.013.987-1.946 1.92a6.7 6.7 0 0 1-.507 1.861 11 11 0 0 0-.629 1.952c1.096-.904 2.45-1.679 3.989-2.229C-2.961.256-1.422-.003 0 0" clip-path="url(#e)" transform="matrix(1 0 0 -1 31.406 19.303)"/><path fill="#ba6e54" d="M0 0a6.6 6.6 0 0 1-1.517-2.184 14.3 14.3 0 0 0-2.751.984c.252.865.32 1.766.213 2.651.614-.334 1.274-.63 1.971-.88Q-1.034.197 0 0" clip-path="url(#f)" transform="matrix(1 0 0 -1 28.11 21.53)"/><path fill="#fcd646" d="M0 0c.239-.75.391-1.499.463-2.235v-.001C.029-3.942-2.492-6.865-4.741-7.581s-5-.041-6.542 1.608a11 11 0 0 0-.916 2.091 10.6 10.6 0 0 0-.504 3.599c1.897.653 2.996 2.416 5.077 3.079 2.083.663 3.599.229 5.958.433A10.6 10.6 0 0 0 0 0" clip-path="url(#g)" transform="matrix(1 0 0 -1 12.71 6.294)"/><path fill="#d4a086" d="M0 0c.496-1.557-.419-2.95-1.94-3.434s-3.074.124-3.569 1.681C-5.822-.77-5.893.23-5.911.875c-.068 2.548-.534 5.069-1.307 7.499l-.033.102q-.06.19-.132.375c.478 1.284.8 1.739 1.273 1.89.474.151 0 0 1.511-1.003q.05-.193.109-.383l.033-.103c.773-2.429 1.85-4.756 3.267-6.875C-.832 1.841-.355 1.115 0 0" clip-path="url(#h)" transform="matrix(1 0 0 -1 16.316 29.198)"/><path fill="#d24248" d="M0 0c-1.27-1.267-3.037-2.343-5.12-3.006-2.082-.663-4.147-.806-5.915-.506.113 3.022 1.62 5.567 4.057 6.343S-1.84 2.4 0 0" clip-path="url(#i)" transform="matrix(1 0 0 -1 11.042 3.065)"/><path fill="#ec9435" d="M0 0q.037-.388.046-.77c.059-1.085 0-2.378-.35-3.734C-1-5.911-3.229-7.046-4.786-7.542c-1.557-.495-2.197-.417-4.109.304a12.3 12.3 0 0 0-2.443 2.845q-.214.317-.409.656c1.857-.4 4.084-.291 6.332.425C-3.165-2.596-1.284-1.398 0 0" clip-path="url(#j)" transform="matrix(1 0 0 -1 13.173 8.53)"/><path fill="#d24248" d="M0 0a10.7 10.7 0 0 0-.698-1.928A6.7 6.7 0 0 1-1.27-3.77c-1.677-1.279-.686-1.428-1.393-1.653-.705-.224-1.404.171-2.712.347a6.7 6.7 0 0 1-1.531 1.172c-.624.35-1.184.747-1.684 1.17 1.42-.054 2.966.151 4.523.647C-2.51-1.592-1.129-.865 0 0" clip-path="url(#k)" transform="matrix(1 0 0 -1 12.869 13.035)"/><path fill="#ba6e54" d="M0 0a6.6 6.6 0 0 1 .119-2.656 14 14 0 0 0-1.371-.514 14 14 0 0 0-1.414-.373 6.6 6.6 0 0 1-1.438 2.237c.691.107 1.395.272 2.101.497Q-.942-.469 0 0" clip-path="url(#l)" transform="matrix(1 0 0 -1 11.599 16.805)"/></svg>