<svg viewBox="0 0 36 36" xmlns="http://www.w3.org/2000/svg"><circle cx="18" cy="19" fill="#f4900c" r="17"/><circle cx="18" cy="17" fill="#ffcc4d" r="17"/><circle cx="18" cy="18" fill="#ffe8b6" r="14"/><circle cx="18" cy="17" fill="#ffac33" r="14"/><path d="M9.543 10.856c0-.545.535-.763.535-.763l7.878-3.7 7.953 3.7s.548.122.548.767v.641H9.543z" fill="#ffe8b6"/><path d="M25.929 12.836c0-.584-.505-1.057-1.127-1.057H11.129c-.623 0-1.057.473-1.057 1.057 0 .397.204.739.529.92v.666h2.114v-.529h2.114v.529h2.114v-.529h2.114v.529h2.114v-.529h2.114v.529H25.4v-.693c.317-.188.529-.517.529-.893zM27.514 24a.793.793 0 01-.793.793H9.279a.793.793 0 110-1.586h17.443c.437 0 .792.355.792.793z" fill="#f4900c"/><path d="M26.457 12.2a.529.529 0 01-.529.529H10.071a.53.53 0 010-1.058l15.857.003a.527.527 0 01.529.526zm-14.271.614h11.629V14H12.186z" fill="#f4900c"/><path d="M12.714 20.829c0 .584-.316 1.057-.705 1.057h-.705c-.389 0-.705-.473-.705-1.057v-8.014c0-.584.316-1.057.705-1.057h.705c.389 0 .705.473.705 1.057zm12.686 0c0 .584-.315 1.057-.705 1.057h-.705c-.389 0-.705-.473-.705-1.057v-8.014c0-.584.315-1.057.705-1.057h.705c.389 0 .705.473.705 1.057zm-8.457 0c0 .584-.316 1.057-.705 1.057h-.705c-.389 0-.705-.473-.705-1.057v-8.014c0-.584.316-1.057.705-1.057h.705c.389 0 .705.473.705 1.057zm4.228 0c0 .584-.316 1.057-.705 1.057h-.704c-.389 0-.705-.473-.705-1.057v-8.014c0-.584.316-1.057.705-1.057h.704c.389 0 .705.473.705 1.057z" fill="#ffd983"/><path d="M25.929 21.357c0 .584-.473 1.057-1.057 1.057H11.129a1.057 1.057 0 110-2.114h13.743c.583 0 1.057.473 1.057 1.057z" fill="#ffcc4d"/><path d="M26.986 22.414c0 .584-.473 1.057-1.057 1.057H10.071a1.057 1.057 0 110-2.114h15.857c.584 0 1.058.473 1.058 1.057z" fill="#ffd983"/><path d="M27.514 23.207a.793.793 0 01-.793.793H9.279a.793.793 0 110-1.586h17.443c.437 0 .792.355.792.793z" fill="#ffd983"/><path d="M25.929 12.286c0-.584-.505-1.057-1.127-1.057H11.129c-.623 0-1.057.473-1.057 1.057 0 .397.204.739.529.92v.666h2.114v-.529h2.114v.529h2.114v-.529h2.114v.529h2.114v-.529h2.114v.529H25.4v-.693c.317-.188.529-.517.529-.893z" fill="#ffcc4d"/><path d="M9.543 11.463c0-.545.535-.763.535-.763L17.956 7l7.953 3.7s.548.122.548.767v.291H9.543z" fill="#ffd983"/><path d="M18 8.343s-5.455 2.571-5.999 2.803c-.545.231-.363.611.001.611h11.97c.562 0 .429-.429-.017-.661C23.509 10.865 18 8.343 18 8.343z" fill="#ffac33"/><path d="M26.457 11.757a.529.529 0 01-.529.529H10.071a.53.53 0 010-1.058l15.857.003a.527.527 0 01.529.526z" fill="#ffd983"/></svg>