<svg viewBox="0 0 36 36" xmlns="http://www.w3.org/2000/svg"><path d="M10.481 25.519a1.82 1.82 0 010-2.567L32.433 1C33.139.294 34.294.294 35 1s.706 1.861 0 2.567L13.048 25.519a1.82 1.82 0 01-2.567 0z" fill="#d99e82"/><path d="M15.009 24.848l-3.901-3.901a1.505 1.505 0 010-2.121l.298-.298a1.505 1.505 0 012.121 0l3.901 3.901a1.505 1.505 0 010 2.121l-.298.298a1.505 1.505 0 01-2.121 0z" fill="#dd637f"/><path d="M2.95 22.466c3.118-3.118 8.004-3.286 10.915-.376s2.742 7.797-.376 10.915z" fill="#dd637f"/><path d="M11.922 34.664l-10.63-10.63a1.003 1.003 0 010-1.414l.199-.199a1.003 1.003 0 011.414 0l10.63 10.63a1.003 1.003 0 010 1.414l-.199.199a1.003 1.003 0 01-1.414 0zm4.862-9.587l-5.905-5.905a1.474 1.474 0 00-.029 1.385l4.548 4.548c.441.223.952.211 1.386-.028z" fill="#bf345d"/><path d="M6 25c3-3 5.5-3.5 5.5-3.5S7 20 4 23z" fill="#eb8caa"/></svg>