<svg xmlns="http://www.w3.org/2000/svg" viewBox="0 0 36 36"><path fill="#88c9f9" d="m3 9 4.786 23.182S10 35 18 35s10.214-2.818 10.214-2.818L33 9z"/><path fill="#3b88c3" d="M2 5h32v4H2z"/><ellipse cx="18" cy="9.042" fill="#3b88c3" rx="16" ry="3.958"/><ellipse cx="18" cy="5" fill="#55acee" rx="16" ry="4"/><ellipse cx="18" cy="4.625" fill="#004a77" rx="15" ry="3.375"/><path fill="#99aab5" d="M18 26.413C8.406 26.413.602 18.489.602 8.75a1 1 0 0 1 2 0c0 8.637 6.908 15.663 15.398 15.663 8.491 0 15.398-7.026 15.398-15.663a1 1 0 1 1 2 0c0 9.739-7.804 17.663-17.398 17.663"/><path fill="#292f33" d="M25.406 23.826C25.406 25.579 22.09 27 18 27s-7.406-1.421-7.406-3.174 2.116 0 7.406 0 7.406-1.753 7.406 0"/></svg>