<svg xmlns="http://www.w3.org/2000/svg" viewBox="0 0 36 36"><path fill="#662113" d="M24.833.089 0 11.655l12 17.431v.003h18.212L36 16.828z"/><path fill="#3d130c" d="M29.249 28.073H12.457l2.431-15.561h3.291z"/><path fill="#511212" d="M12.457 28.073 1.758 12.512h13.13l2.666 4.149z"/><path fill="#ffcc4d" d="m25.608 24.422-12.364 5.522.78-1.581c.141.025.269.038.422.038.69 0 1.266-.301 1.266-.69 0-.339-.46-.615-1.048-.678l1.805-3.665c.602-.19 2.872-.405 5.918.163a.86.86 0 0 0 .55.841.876.876 0 0 0 1.125-.452c.243.05.473.125.703.213z"/><ellipse cx="18.604" cy="24.424" fill="#f4900c" rx="1.053" ry=".517"/><path fill="#f4900c" d="M15.716 27.706c0 .389-.574.697-1.27.697-.15 0-.287-.013-.423-.04l.642-1.327c.586.054 1.051.335 1.051.67m10.097 2.238L13.244 35.09v-1.092c.627 0 1.138-.515 1.138-1.142a1.14 1.14 0 0 0-1.138-1.13v-1.782l12.364-5.522.077 2.033a1 1 0 0 0-.511-.125c-.639 0-1.151.502-1.151 1.13s.511 1.129 1.151 1.129c.217 0 .422-.063.588-.163z"/><ellipse cx="20.039" cy="27.023" fill="#f4900c" rx="2.156" ry="1.058"/><path fill="#c1694f" d="M18.293 11.655H0L7.562.089h17.271z"/><g fill="#f98e00"><path d="M6.69 13.401h1.583V36H6.69z"/><path d="M7.485 12.842a1.58 1.58 0 0 1-1.582-1.582V8.892a.723.723 0 0 0-.73-.73.73.73 0 0 0-.73.73v2.235c0 .83.343 1.593.885 2.147a3.08 3.08 0 0 0 2.158.885 3.03 3.03 0 0 0 2.579-1.459H8.132a1.6 1.6 0 0 1-.647.142"/></g></svg>