<svg xmlns="http://www.w3.org/2000/svg" xml:space="preserve" viewBox="0 0 36 36"><path fill="#af7e57" d="M29.5 19.519a5.08 5.08 0 0 0-3.409-4.077L15.1 11.167l3-7.62A2.227 2.227 0 0 0 16.458.456a2.9 2.9 0 0 0-2.571.8 39 39 0 0 0-2.903 3.783c-.927-.832-3.895-3.18-6.625-1.847-2.858 1.396 2.166 6.234 3.518 7.466-2.533 5.799-2.905 11.183-2.116 14.923.8 3.8 2.279 4.8 5.685 6.816a22.93 22.93 0 0 0 12.675 3.283 5.78 5.78 0 0 0 5.643-5.338c.28-3.607.191-7.234-.264-10.823"/><path fill="#90603e" d="M25.6 15.249a1 1 0 0 0-.03.253 48 48 0 0 1-.405 8.389 1 1 0 0 0 1.988.215c.328-2.587.482-5.193.46-7.8a6.1 6.1 0 0 0-1.516-.865zm-5.34-1.718a45.3 45.3 0 0 1-.8 9.011 1 1 0 1 0 1.959.4 47 47 0 0 0 .848-8.994l-1.949-.748a1 1 0 0 0-.058.331M13.749 22.4h.051a1 1 0 0 0 1-.952 22.85 22.85 0 0 1 2.174-9.548l-1.874-.733a24.9 24.9 0 0 0-2.3 10.188 1 1 0 0 0 .949 1.045M9.37 3.843a37.4 37.4 0 0 0-3.031 5.311 29 29 0 0 0 1.537 1.505 35 35 0 0 1 3.098-5.606 11 11 0 0 0-1.604-1.21"/></svg>