<svg xmlns="http://www.w3.org/2000/svg" viewBox="0 0 36 36"><path fill="#31373d" d="M25 32a4 4 0 0 1-4 4h-6a4 4 0 0 1-4-4V4a4 4 0 0 1 4-4h6a4 4 0 0 1 4 4z"/><path fill="#99aab5" d="M32 18a2 2 0 0 0-2-2h-1a2 2 0 0 0 0 4h1a2 2 0 0 0 2-2"/><path fill="#ccd6dd" d="M6 18c0-6.627 5.373-12 12-12 6.628 0 12 5.373 12 12s-5.372 12-12 12c-6.627 0-12-5.373-12-12"/><path fill="#f5f8fa" d="M10 18a8 8 0 1 1 16 0 8 8 0 0 1-16 0"/><path fill="#66757f" d="M23 22a1 1 0 0 1-.514-.143l-5-3A1 1 0 0 1 17 18v-7a1 1 0 0 1 2 0v6.434l4.516 2.708A1 1 0 0 1 23 22"/></svg>