<svg viewBox="0 0 36 36" xmlns="http://www.w3.org/2000/svg"><path d="M25 32a4 4 0 01-4 4h-6a4 4 0 01-4-4V4a4 4 0 014-4h6a4 4 0 014 4z" fill="#31373d"/><path d="M32 18a2 2 0 00-2-2h-1a2 2 0 000 4h1a2 2 0 002-2z" fill="#99aab5"/><path d="M6 18c0-6.627 5.373-12 12-12 6.628 0 12 5.373 12 12s-5.372 12-12 12c-6.627 0-12-5.373-12-12z" fill="#ccd6dd"/><path d="M10 18a8 8 0 1116 0 8 8 0 01-16 0z" fill="#f5f8fa"/><path d="M23 22a.994.994 0 01-.514-.143l-5-3A.998.998 0 0117 18v-7a1 1 0 012 0v6.434l4.516 2.708A1 1 0 0123 22z" fill="#66757f"/></svg>