<svg viewBox="0 0 36 36" xmlns="http://www.w3.org/2000/svg"><path d="M36 28a2 2 0 01-2 2H2a2 2 0 01-2-2V12a2 2 0 012-2h32a2 2 0 012 2z" fill="#99aab5"/><path d="M5.5 19a1 1 0 01-1 1h-1a1 1 0 01-1-1v-1a1 1 0 011-1h1a1 1 0 011 1zm4 0a1 1 0 01-1 1h-1a1 1 0 01-1-1v-1a1 1 0 011-1h1a1 1 0 011 1zm4 0a1 1 0 01-1 1h-1a1 1 0 01-1-1v-1a1 1 0 011-1h1a1 1 0 011 1zm4 0a1 1 0 01-1 1h-1a1 1 0 01-1-1v-1a1 1 0 011-1h1a1 1 0 011 1zm4 0a1 1 0 01-1 1h-1a1 1 0 01-1-1v-1a1 1 0 011-1h1a1 1 0 011 1zm4 0a1 1 0 01-1 1h-1a1 1 0 01-1-1v-1a1 1 0 011-1h1a1 1 0 011 1zm4 0a1 1 0 01-1 1h-1a1 1 0 01-1-1v-1a1 1 0 011-1h1a1 1 0 011 1zm4 0a1 1 0 01-1 1h-1a1 1 0 01-1-1v-1a1 1 0 011-1h1a1 1 0 011 1zm-26 4a1 1 0 01-1 1h-1a1 1 0 01-1-1v-1a1 1 0 011-1h1a1 1 0 011 1zm4 0a1 1 0 01-1 1h-1a1 1 0 01-1-1v-1a1 1 0 011-1h1a1 1 0 011 1zm4 0a1 1 0 01-1 1h-1a1 1 0 01-1-1v-1a1 1 0 011-1h1a1 1 0 011 1zm4 0a1 1 0 01-1 1h-1a1 1 0 01-1-1v-1a1 1 0 011-1h1a1 1 0 011 1zm4 0a1 1 0 01-1 1h-1a1 1 0 01-1-1v-1a1 1 0 011-1h1a1 1 0 011 1zm4 0a1 1 0 01-1 1h-1a1 1 0 01-1-1v-1a1 1 0 011-1h1a1 1 0 011 1zm4 0a1 1 0 01-1 1h-1a1 1 0 01-1-1v-1a1 1 0 011-1h1a1 1 0 011 1zM10 27a1 1 0 01-1 1H7a1 1 0 01-1-1v-1a1 1 0 011-1h2a1 1 0 011 1zm20 0a1 1 0 01-1 1h-2a1 1 0 01-1-1v-1a1 1 0 011-1h2a1 1 0 011 1zm-5 0a1 1 0 01-1 1H12a1 1 0 01-1-1v-1a1 1 0 011-1h12a1 1 0 011 1zM5.5 13.083a1 1 0 01-1 1h-1a1 1 0 010-2h1a1 1 0 011 1zm4 0a1 1 0 01-1 1h-1a1 1 0 010-2h1a1 1 0 011 1zm4 0a1 1 0 01-1 1h-1a1 1 0 010-2h1a1 1 0 011 1zm4 0a1 1 0 01-1 1h-1a1 1 0 010-2h1a1 1 0 011 1zm4 0a1 1 0 01-1 1h-1a1 1 0 110-2h1a1 1 0 011 1zm4 0a1 1 0 01-1 1h-1a1 1 0 110-2h1a1 1 0 011 1zm4 0a1 1 0 01-1 1h-1a1 1 0 110-2h1a1 1 0 011 1zm4 0a1 1 0 01-1 1h-1a1 1 0 110-2h1a1 1 0 011 1z" fill="#292f33"/></svg>