<svg viewBox="0 0 36 36" xmlns="http://www.w3.org/2000/svg"><path d="M16 5h4v3h-4z" fill="#292f33"/><path d="M22 1h-8c-1.1 0-2 .9-2 2s.9 2 2 2h8c1.1 0 2-.9 2-2s-.9-2-2-2zm6.184 10.507l-1.504-1.318c-.827-.725-.911-1.995-.186-2.822s1.995-.911 2.822-.186l1.504 1.318c.827.725.911 1.995.186 2.822s-1.995.911-2.822.186z" fill="#8899a6"/><circle cx="18" cy="21" fill="#f5f8fa" r="11"/><path d="M18 7C10.268 7 4 13.268 4 21s6.268 14 14 14 14-6.268 14-14S25.732 7 18 7zm0 25c-6.065 0-11-4.935-11-11s4.935-11 11-11 11 4.935 11 11-4.935 11-11 11z" fill="#66757f"/><g fill="#292f33"><path d="M27 22H17a1 1 0 110-2h10a1 1 0 110 2z"/><circle cx="18" cy="12" r="1"/><circle cx="18" cy="30" r="1"/><circle cx="12" cy="15" r="1"/><circle cx="24" cy="27" r="1"/><circle cx="9" cy="21" r="1"/><circle cx="24" cy="15" r="1"/></g><path d="M12 28a.999.999 0 01-.707-1.707l7-7a.999.999 0 111.414 1.414l-7 7A.997.997 0 0112 28z" fill="#dd2e44"/></svg>