<svg viewBox="0 0 36 36" xmlns="http://www.w3.org/2000/svg"><circle cx="18" cy="26" fill="#e1e8ed" r="10"/><path d="M12 11a6 6 0 1112 0 6 6 0 01-12 0z" fill="#e1e8ed"/><path d="M23 6a2 2 0 01-2 2h-6a2 2 0 01-2-2V2a2 2 0 012-2h6a2 2 0 012 2z" fill="#414042"/><path d="M25 7a1 1 0 01-1 1H12a1 1 0 010-2h12a1 1 0 011 1z" fill="#231f20"/><path d="M22.5 15h-9a1.495 1.495 0 00-.5 2.908V25a1 1 0 001 1h1a1 1 0 001-1v-7h6.5a1.5 1.5 0 100-3z" fill="#dd2e44"/><path d="M19 24a1 1 0 11-1.998.002A1 1 0 0119 24zm0 5a1 1 0 11-1.998.002A1 1 0 0119 29z" fill="#414042"/><path d="M19 12a1 1 0 11-1.998.002A1 1 0 0119 12z" fill="#f4900c"/><path d="M16 10a1 1 0 11-2 0 1 1 0 012 0zm6 0a1 1 0 11-2 0 1 1 0 112 0z" fill="#414042"/><path d="M10.394 20.081l-3.452-1.479-.547-2.866a1 1 0 00-1.965.375l.294 1.54-1.33-.57a.999.999 0 10-.788 1.838l.743.318-1.056 1.056a.999.999 0 101.414 1.414l1.621-1.621 4.278 1.833a.999.999 0 10.788-1.838zm22.922-3.03l-1.465-.488.855-.855a.999.999 0 10-1.414-1.414l-.751.751-.572-2.287a.999.999 0 10-1.939.486l.862 3.45-3.6 3.6a.999.999 0 101.415 1.413l3.563-3.563 2.413.805a.999.999 0 10.633-1.898z" fill="#ffac33"/><path d="M10.08 2.113a.5.5 0 00-.693-.138l-.887.591V1.5a.5.5 0 00-1 0v1.066l-.887-.591a.5.5 0 10-.554.831l1.04.694-1.04.693a.5.5 0 00.555.833l.886-.592V5.5a.5.5 0 001 0V4.434l.887.591a.5.5 0 10.555-.832L8.901 3.5l1.04-.693a.5.5 0 00.139-.694zm-4 7a.5.5 0 00-.693-.138l-.887.591V8.5a.5.5 0 00-1 0v1.066l-.887-.591a.5.5 0 10-.554.831l1.04.693-1.04.693a.5.5 0 10.555.832l.886-.59V12.5a.5.5 0 001 0v-1.066l.887.591a.5.5 0 10.555-.832L4.901 10.5l1.04-.693a.5.5 0 00.139-.694zm0 17a.5.5 0 00-.693-.139l-.887.592V25.5a.5.5 0 00-1 0v1.066l-.887-.591a.5.5 0 10-.554.832l1.04.693-1.04.693a.5.5 0 10.555.832l.886-.591V29.5a.5.5 0 001 0v-1.066l.887.591a.5.5 0 10.555-.832L4.901 27.5l1.04-.693a.5.5 0 00.139-.694zM33.901 9.5l1.04-.693a.5.5 0 10-.554-.832l-.887.591V7.5a.5.5 0 00-1 0v1.066l-.887-.591a.5.5 0 10-.554.832l1.04.693-1.04.693a.5.5 0 10.555.832l.887-.591V11.5a.5.5 0 001 0v-1.066l.887.591a.5.5 0 10.555-.832zm.179 13.613a.5.5 0 00-.693-.139l-.887.592V22.5a.5.5 0 00-1 0v1.066l-.887-.591a.5.5 0 10-.554.832l1.04.693-1.04.693a.5.5 0 10.555.832l.887-.591V26.5a.5.5 0 001 0v-1.066l.887.591a.5.5 0 10.555-.832l-1.04-.693 1.04-.693a.502.502 0 00.137-.694zm-4.139-18.92l-1.04-.693 1.04-.693a.5.5 0 10-.554-.832l-.887.591V1.5a.5.5 0 00-1 0v1.066l-.887-.591a.5.5 0 10-.554.832l1.04.693-1.04.693a.5.5 0 10.555.832l.886-.591V5.5a.5.5 0 001 0V4.434l.887.591a.5.5 0 10.554-.832z" fill="#88c9f9"/></svg>