<svg xmlns="http://www.w3.org/2000/svg" viewBox="0 0 36 36"><path fill="#EF9645" d="M15.94 15.838a2.504 2.504 0 0 1 2.488-2.515c1.379-.01 2.423 1.1 2.433 2.479l-.006 4.303s1.844 11.797-5.428 11.797-8.414-8.673-8.414-8.673l-.025-2.241c-.01-1.29 8.952-5.15 8.952-5.15z"/><path fill="#FFDC5D" d="M20.936 16.957v-2.044a1.998 1.998 0 0 0-3.995.029l.012 2.016h3.983zm2.593 2.684a2.02 2.02 0 0 1-2.013-2.013V4.712a2.02 2.02 0 0 1 2.013-2.013 2.02 2.02 0 0 1 2.013 2.013v12.916a2.02 2.02 0 0 1-2.013 2.013zM9 23a2.02 2.02 0 0 1-2.013-2.013V17.01A2.02 2.02 0 0 1 9 14.997a2.02 2.02 0 0 1 2.013 2.013v3.977A2.02 2.02 0 0 1 9 23z"/><path fill="#EF9645" d="M13.193 22.033c-1.2 0-2.181-.982-2.181-2.181V15.54c0-1.2.982-2.181 2.181-2.181 1.2 0 2.181.982 2.181 2.181v4.311c0 1.2-.981 2.182-2.181 2.182zm14.773-1.889a3.285 3.285 0 0 0-3.308-3.261h-7.87l.013 6.992h7.907a3.285 3.285 0 0 0 3.261-3.308l-.003-.423z"/><path fill="#FFDC5D" d="M13.93 12.965a1.998 1.998 0 0 1 2.012 1.983v2.793a2.923 2.923 0 0 0-.963 2.209c.005.752.297 1.429.758 1.951a1.99 1.99 0 0 1-3.748-.931l-.043-5.993a2 2 0 0 1 1.984-2.012z"/><path fill="#FFDC5D" d="M27.873 19.273c-.39-1.145-1.422-1.403-1.921-1.399h-7.961c-1.107 0-2.013.906-2.013 2.013s.906 2.013 2.013 2.013l5.493-.003a.507.507 0 0 1 .503.505c.002.276-.22.522-.496.522h-.125c-2.685 0-4.847 3.153-4.819 7.008a.483.483 0 0 1-.496.484.5.5 0 0 1-.503-.496c-.022-3.006 1.187-5.637 2.983-7.013l-2.534.018c-.999.007-1.273-.278-1.475-.391l.003.003c-.145.232-.922 1.416-2.516 1.416-1.723 0-2.37-1.154-2.494-1.335-.519.799-1.443 1.306-2.516 1.306-.714 0-1.529-.188-1.987-.731.146 6.662 5.541 11.759 12.07 11.712 5.708-.041 10.362-5.069 10.328-9.871-.098-2.659-1.537-5.761-1.537-5.761z"/></svg>