<svg xmlns="http://www.w3.org/2000/svg" viewBox="0 0 45 45"><defs><clipPath id="a"><path d="M0 36h36V0H0v36z"/></clipPath></defs><g clip-path="url(#a)" transform="matrix(1.25 0 0 -1.25 0 45)"><path d="M36 4a4 4 0 0 0-4-4H4a4 4 0 0 0-4 4v28a4 4 0 0 0 4 4h28a4 4 0 0 0 4-4V4z" fill="#ea596e"/><path d="M18 27.5a5.506 5.506 0 0 1-5.5-5.5c0-3.032 2.467-5.5 5.5-5.5s5.5 2.468 5.5 5.5-2.467 5.5-5.5 5.5m0-14c-4.687 0-8.5 3.813-8.5 8.5 0 4.687 3.813 8.5 8.5 8.5 4.687 0 8.5-3.813 8.5-8.5 0-4.687-3.813-8.5-8.5-8.5" fill="#fff"/><path d="M18 4.5A1.5 1.5 0 0 0 16.5 6v9a1.5 1.5 0 1 0 3 0V6A1.5 1.5 0 0 0 18 4.5" fill="#fff"/><path d="M22.875 8.5h-9.75a1.5 1.5 0 1 0 0 3h9.75a1.5 1.5 0 1 0 0-3" fill="#fff"/></g></svg>