<svg viewBox="0 0 36 36" xmlns="http://www.w3.org/2000/svg"><path d="M36 32a4 4 0 01-4 4H4a4 4 0 01-4-4V4a4 4 0 014-4h28a4 4 0 014 4z" fill="#ea596e"/><g fill="#fff"><path d="M18 22.5c-4.687 0-8.5-3.813-8.5-8.5s3.813-8.5 8.5-8.5 8.5 3.813 8.5 8.5-3.813 8.5-8.5 8.5zm0-14c-3.033 0-5.5 2.468-5.5 5.5s2.467 5.5 5.5 5.5 5.5-2.468 5.5-5.5-2.467-5.5-5.5-5.5z"/><path d="M18 31.5a1.5 1.5 0 01-1.5-1.5v-9a1.5 1.5 0 113 0v9a1.5 1.5 0 01-1.5 1.5z"/><path d="M22.875 27.5h-9.75a1.5 1.5 0 110-3h9.75a1.5 1.5 0 110 3z"/></g></svg>