<svg xmlns="http://www.w3.org/2000/svg" viewBox="0 0 45 45"><defs><clipPath id="a"><path d="M0 36h36V0H0v36z"/></clipPath></defs><g clip-path="url(#a)" transform="matrix(1.25 0 0 -1.25 0 45)"><path d="M36 4a4 4 0 0 0-4-4H4a4 4 0 0 0-4 4v28a4 4 0 0 0 4 4h28a4 4 0 0 0 4-4V4z" fill="#269"/><path d="M15 19.5A5.507 5.507 0 0 1 9.5 14c0-3.032 2.468-5.5 5.5-5.5s5.5 2.468 5.5 5.5-2.468 5.5-5.5 5.5m0-14c-4.687 0-8.5 3.813-8.5 8.5 0 4.687 3.813 8.5 8.5 8.5 4.687 0 8.5-3.813 8.5-8.5 0-4.687-3.813-8.5-8.5-8.5" fill="#fff"/><path d="M28.5 29h-8.969a1.5 1.5 0 1 1 0-3h5.348l-7-6.879L20 17l7 6.879V18.5a1.5 1.5 0 0 1 3 0v9a1.5 1.5 0 0 1-1.5 1.5" fill="#fff"/></g></svg>