<svg xmlns="http://www.w3.org/2000/svg" viewBox="0 0 45 45"><defs><clipPath id="a"><path d="M0 36h36V0H0v36z"/></clipPath></defs><g clip-path="url(#a)" transform="matrix(1.25 0 0 -1.25 0 45)"><path d="M36 4a4 4 0 0 0-4-4H4a4 4 0 0 0-4 4v28a4 4 0 0 0 4 4h28a4 4 0 0 0 4-4V4z" fill="#9266cc"/><path d="M20.5 31.5a2.5 2.5 0 1 0-5 0 2.5 2.5 0 0 0 5 0M17.472 17.73c3.113.217 9.593.668 9.593 3.598 0 2.992-6.342 3.215-9.05 3.31l-.305.01c-10.314.435-8.543 2.903-7.568 2.903.273-.246 1.189-.95 2.71-.95.522 0 1.066.085 1.62.252a.23.23 0 0 1 .169.205.229.229 0 0 1-.15.22l-1.46.575 2.272.45c.08.015.146.066.177.137.03.071.02.15-.026.212-.052.068-1.27 1.803-3.355 1.803-2.85 0-5.14-1.482-5.14-4.039 0-3.089 7.32-3.956 10.597-3.956 6.272 0 6.59-.839 6.59-1.007 0-.886-2.227-1.418-6.62-1.585-4.692-.177-7.725-1.5-7.725-3.37 0-1.763 2.272-2.812 7.598-3.509 2.424-.317 5.314-.85 5.314-1.587-.001-.01-.255-.983-5.231-1.606-4.65-.583-5.245-1.677-5.245-2.564 0-1.202 1.697-2.022 5.34-2.583 2.779-.427 3.558-1.417 3.932-1.893.158-.2.283-.359.499-.359.02 0 .07.006.089.011.207.047.32.268.306.59-.01.24-.23 2.356-4.52 3.004-2.677.404-2.885 1.048-2.885 1.236 0 .095.12.58 2.456.907.324.024 7.959.627 7.959 3.32 0 2.216-4.462 3.023-8.397 3.733-1.984.36-4.453.805-4.453 1.274 0 .418.852.976 4.909 1.258" fill="#fff"/><path d="M13.066 29.1c0-.244-.34-.442-.76-.442-.419 0-.759.198-.759.442s.34.442.76.442.76-.198.76-.442M16 11.394h1V7.522h-1v3.872zM19 11.394h1V7.522h-1v3.872zM16 20.925h1v-3.872h-1v3.872zM19 20.925h1v-3.872h-1v3.872z" fill="#9266cc"/><path d="M17 16.19l2-.38v8.543c-.382.015-1.261.05-2 .084V16.19zM19 14.211l-2 .37V7.122c.538-.066 1.438-.277 2-.418v7.506zM17 5.665V3a1 1 0 1 1 2 0v2.257c-.868.199-1.422.279-2 .408M19 25.562v5.108a1 1 0 1 1-2 0v-5.016l2-.092z" fill="#fff"/></g></svg>