<svg xmlns="http://www.w3.org/2000/svg" viewBox="0 0 36 36"><path fill="#c1694f" d="m31 12-1.412 10.235L7.353 36 5 28z"/><path fill="#662113" d="M1 22v7.647L7.353 36v-8z"/><path fill="#a04e3c" d="M34 5v7.706l-4.412 9.529V15L31 9z"/><path fill="#d99e82" d="m34 5-4.412 9.824L7.353 28.588 1 22 17.941 2.118 28.529 0z"/><path fill="#ffac33" d="M12.001 30a1 1 0 0 1-.556-1.832l3-2a1 1 0 1 1 1.11 1.664l-3 2a1 1 0 0 1-.554.168m11-7a1 1 0 0 1-.556-1.832l3-2a1 1 0 0 1 1.11 1.664l-3 2a1 1 0 0 1-.554.168"/><path fill="#c1694f" d="M9 25c-.258 0-.514-.1-.708-.293l-3-3a1 1 0 0 1-.022-1.391l15-16a1 1 0 0 1 .565-.302l6-1a1 1 0 0 1 .871.279l2 2a1 1 0 0 1 .223 1.079l-2 5a1 1 0 0 1-.343.439l-18 13A1 1 0 0 1 9 25m-1.608-4.022 1.713 1.713L26.18 10.359l1.646-4.119-1.169-1.17-5.159.86z"/></svg>