<svg viewBox="0 0 36 36" xmlns="http://www.w3.org/2000/svg"><ellipse cx="19.5" cy="11.5" fill="#ea596e" rx=".5" ry="1.5"/><ellipse cx="25.5" cy="11.5" fill="#ea596e" rx=".5" ry="1.5"/><ellipse cx="21.5" cy="11.5" fill="#a6d388" rx=".5" ry="1.5"/><ellipse cx="18.5" cy="11.5" fill="#a6d388" rx=".5" ry="1.5"/><g fill="#55acee"><ellipse cx="22.5" cy="11.5" rx=".5" ry="1.5"/><ellipse cx="26.5" cy="11.5" rx=".5" ry="1.5"/><ellipse cx="30.5" cy="16.5" rx=".5" ry="1.5"/><ellipse cx="3.5" cy="16.5" rx=".5" ry="1.5"/></g><ellipse cx="32.5" cy="16.5" fill="#a6d388" rx=".5" ry="1.5"/><ellipse cx="6.5" cy="16.5" fill="#a6d388" rx=".5" ry="1.5"/><ellipse cx="33.5" cy="16.5" fill="#f4900c" rx=".5" ry="1.5"/><ellipse cx="5.5" cy="16.5" fill="#f4900c" rx=".5" ry="1.5"/><ellipse cx="23.5" cy="12.5" fill="#f4900c" rx=".5" ry="1.5"/><path d="M29 16.5v-2a.5.5 0 01.5-.5h1.9l-.4-2H7l-.4 2h.9a.5.5 0 01.5.5v2a.5.5 0 01-.5.5h21c-.276 0 .5-.224.5-.5z" fill="#ccd6dd"/><path d="M14 16.5a.5.5 0 01-.5.5h-4a.5.5 0 01-.5-.5v-2a.5.5 0 01.5-.5h4a.5.5 0 01.5.5zm7 0a.5.5 0 01-.5.5h-4a.5.5 0 01-.5-.5v-2a.5.5 0 01.5-.5h4a.5.5 0 01.5.5zm7 0a.5.5 0 01-.5.5h-4a.5.5 0 01-.5-.5v-2a.5.5 0 01.5-.5h4a.5.5 0 01.5.5z" fill="#66757f"/><path d="M33.402 24.708S35 20 35 16H1c1 2 2.8 5.557 4.24 6.878 5.005 4.592 28.162 1.83 28.162 1.83z" fill="#ccd6dd"/><path d="M3.762 21c.504.771 1.01 1.448 1.478 1.878 5.004 4.592 28.162 1.83 28.162 1.83s.538-1.593.99-3.708z" fill="#dd2e44"/><path d="M8 19.5a.5.5 0 01-.5.5h-1a.5.5 0 01-.5-.5v-1a.5.5 0 01.5-.5h1a.5.5 0 01.5.5zm4 0a.5.5 0 01-.5.5h-1a.5.5 0 01-.5-.5v-1a.5.5 0 01.5-.5h1a.5.5 0 01.5.5zm4 0a.5.5 0 01-.5.5h-1a.5.5 0 01-.5-.5v-1a.5.5 0 01.5-.5h1a.5.5 0 01.5.5zm4 0a.5.5 0 01-.5.5h-1a.5.5 0 01-.5-.5v-1a.5.5 0 01.5-.5h1a.5.5 0 01.5.5zm4 0a.5.5 0 01-.5.5h-1a.5.5 0 01-.5-.5v-1a.5.5 0 01.5-.5h1a.5.5 0 01.5.5zm4 0a.5.5 0 01-.5.5h-1a.5.5 0 01-.5-.5v-1a.5.5 0 01.5-.5h1a.5.5 0 01.5.5zm4 0a.5.5 0 01-.5.5h-1a.5.5 0 01-.5-.5v-1a.5.5 0 01.5-.5h1a.5.5 0 01.5.5z" fill="#66757f"/><path d="M15 13l-8.4 1 .9-6.208H15z" fill="#ccd6dd"/><path d="M14 7.5a.5.5 0 01-1 0v-4a.5.5 0 011 0zm-2 2a.5.5 0 01-1 0v-4a.5.5 0 011 0z" fill="#ccd6dd"/><path d="M15.5 7.75c0 .138-.224.25-.5.25H7.5c-.276 0-.5-.112-.5-.25v-.5c0-.138.224-.25.5-.25H15c.276 0 .5.112.5.25z" fill="#269"/><path d="M13.5 9H7.35l-.3 2h6.45a.5.5 0 00.5-.5v-1a.5.5 0 00-.5-.5z" fill="#66757f"/><path d="M11 8h1v4h-1z" fill="#ccd6dd"/><path d="M0 24h36v12H0z" fill="#55acee"/></svg>