<svg xmlns="http://www.w3.org/2000/svg" viewBox="0 0 36 36"><path fill="#E1E8ED" d="M36 13.062V32s0 4-4 4H4c-4 0-4-4-4-4v-4.938s17-10 36-14z"/><path fill="#8899A6" d="M14.751 24.46c.167.177.14.473-.062.662-.201.189-.5.2-.666.023l-6.647-7.052c-.167-.177-.139-.474.062-.664.201-.189.499-.199.666-.022l6.647 7.053z"/><path fill="#AA8ED6" d="M26.812 17.809c.435.516.086 1.301-.777 1.756L6.571 29.783c-1.812.876-4.896-.04-5.271-.79-.416-.832 1.193-1.11 2.057-1.563l20.322-10.67c.863-.453 1.914-.401 2.349.113l.784.936zm5.013 4.535c.435.516.086 1.301-.777 1.756L11.583 34.318c-1.812.876-4.896-.04-5.271-.79-.416-.832 1.193-1.11 2.057-1.563l20.322-10.67c.863-.453 1.914-.4 2.349.113l.785.936z"/><path fill="#67757F" d="M13.497 25.772c.273-.041.543-.143.787-.311l2.151-1.189c1.08-.562.68-1.912.614-2.359l-.621-2.793 2.564-3.298c.627-.804.48-3.3-.324-3.926a1.845 1.845 0 0 0-2.589.325l-3.05 3.922c-.31.398-.443.907-.368 1.406l.633 4.218-1.118.664a1.845 1.845 0 0 0 1.321 3.341z"/><path fill="#67757F" d="M19.594 29.781c.264-.083 2.75-1.562 2.75-1.562.865-.688.323-2.444.168-2.869l-1.438-3.923 1.85-3.745a1.845 1.845 0 0 0-3.309-1.634l-2.2 4.455a1.852 1.852 0 0 0-.079 1.452l1.469 4.005-1.004.779a1.845 1.845 0 0 0-.037 2.609c.506.518 1.183.639 1.83.433z"/><path fill="#BBDDF5" d="M9.639 19.396c3.667-1.292 5.389-6.467 5.573-7.052a2 2 0 0 0-3.815-1.204c-.507 1.588-1.8 4.03-3.088 4.484a2 2 0 1 0 1.33 3.772z"/><path fill="#8899A6" d="M34.844 21.326a.498.498 0 0 1 .129.693.497.497 0 0 1-.694.129l-9.062-6.236a.5.5 0 1 1 .566-.824l9.061 6.238z"/><path fill="#BBDDF5" d="M27.002 17.521a2 2 0 0 0 1.335-1.921c-.058-3.346-1.616-5.92-4.392-7.249-1.964-.94-3.863-.937-4.073-.933a2.001 2.001 0 0 0 .056 4c1.02-.002 4.342.301 4.409 4.251a2 2 0 0 0 2.665 1.852z"/><path fill="#67757F" d="M15.132 16.931a3.5 3.5 0 0 0 6.602-2.326l-1.329-3.773a3.5 3.5 0 0 0-6.602 2.326l1.329 3.773z"/><path fill="#BBDDF5" d="M11.417 12.409a2 2 0 0 0 2.551 1.222l6.601-2.327a2 2 0 1 0-1.329-3.773l-6.602 2.326a2.003 2.003 0 0 0-1.221 2.552z"/><path fill="#BBDDF5" d="M17 18c-2.614-.366-3.175-1.493-3.244-1.69l-1.15-3.261c-.83-2.358 1.723-3.258 3.414-3.854 1.69-.595 3.61-.074 5.075.863 2.822 1.804 2.347 6.303 2.347 6.303.005.343-.075.859-.171.993-.061.084-2.188 1.218-6.271.646z"/><path fill="#1C6399" d="M29.996 3.938l-1.119-2.653a.498.498 0 0 0-.487-.286c-.129.006-3.21.174-7.169 3.112-3.748 2.78-4.634 2.82-6.578 2.906l-2.997.133a.526.526 0 0 0-.347.148c-.506.498-.615 1.17-.291 1.799.411.796 1.623 1.614 3.795 1.517 1.437-.064 3.482-1.196 5.851-2.507 2.91-1.61 6.208-3.436 8.894-3.555a.512.512 0 0 0 .396-.205.41.41 0 0 0 .052-.409z"/><path fill="#7C533E" d="M16.405 4.29A4 4 0 0 1 8.86 6.949c-.734-2.084.692-3.425 2.776-4.159 2.083-.735 4.035-.584 4.769 1.5z"/><path fill="#9AAAB4" d="M10.361 6.419c1.886-.665 3.44-2.272 3.772-1.329.333.943.997 2.83 2.883 2.165 1.886-.665.503-7.599-5.156-5.605-5.657 1.994-4.328 5.766-1.499 4.769z"/><path fill="#BDDDF4" d="M11.471 6.559a1.5 1.5 0 1 1-2.83.996 1.5 1.5 0 0 1 2.83-.996z"/><path fill="#67757F" d="M10.721 8.943a2.003 2.003 0 0 1-2.552-1.221c-.366-1.041.182-2.185 1.222-2.552s2.185.182 2.551 1.222a2.001 2.001 0 0 1-1.221 2.551zm-.997-2.829A1 1 0 0 0 10.388 8a1 1 0 0 0-.664-1.886z"/><path fill="#BDDDF4" d="M14.3 5.562a1.5 1.5 0 1 1-2.83.996 1.5 1.5 0 0 1 2.83-.996z"/><path fill="#67757F" d="M13.55 7.946a2.001 2.001 0 1 1 1.222-2.551 2.002 2.002 0 0 1-1.222 2.551zm-.997-2.829a1 1 0 0 0 .664 1.886 1 1 0 0 0-.664-1.886z"/></svg>