<svg xmlns="http://www.w3.org/2000/svg" viewBox="0 0 36 36"><path fill="#F7DECE" d="M30.853 27.634c-.081 0-.163-.01-.243-.028l-7.476-1.668a1.081 1.081 0 0 1-.81-.805l-1.216-5.066a1.07 1.07 0 0 1 .129-.819c.151-.247.391-.421.672-.487a1.08 1.08 0 0 1 1.308.801l1.06 4.415 6.821 1.517c.283.065.522.237.676.483a1.084 1.084 0 0 1-.921 1.657zM11.318 4.474c-1.158.564.52 2.167.439 3.483-.052.909 1.722.595 1.722.595s1.159-.564 1.425 1.455c.262 2.017 3.141 2.05 2.877.03-.266-2.016-2.131-2.69-1.612-4.435 1.239-4.176-4.851-1.128-4.851-1.128z"/><path fill="#F7DECE" d="M27.516 15.314a1.045 1.045 0 0 1-1.043-.342c-2.682-3.189-8.798-3.763-8.859-3.769a1.042 1.042 0 0 1 .181-2.076c.286.024 7.034.65 10.275 4.503a1.043 1.043 0 0 1-.554 1.684zM17.47 35.301a1.086 1.086 0 0 1-1.135-1.031l-.448-8.575a1.094 1.094 0 0 1 .203-.684l5.246-7.271a1.082 1.082 0 0 1 1.512-.245 1.085 1.085 0 0 1 .247 1.513l-5.024 6.966.431 8.195a1.09 1.09 0 0 1-.979 1.13l-.053.002z"/><path fill="#2A6797" d="M15.28 24.425l5.246-7.271a2.084 2.084 0 0 1 3.38 2.439l-4.819 6.681c-.001-.001-4.083-1.467-3.807-1.849z"/><path fill="#357BAA" d="M21.352 25.366L20.136 20.3a2.085 2.085 0 0 1 4.054-.972l.915 3.814c-.001 0-3.569 2.993-3.753 2.224z"/><path fill="#4289C1" d="M18.333 35.988c.383-.001.591-.366.572-.758-.03-.626-.072-.881-.072-.881-.062-.299-.324-.912-.688-.912-2.642 0-5.538.879-6.23 1.5-.409.367-.146 1.061.397 1.06l6.021-.009zm6.875-17.207c-.208.365-1.473-.525-2.99.281-2.156 1.146-3.339.467-3.339.467-3.486-5.595-6.243-8.149-2.809-11.024 1.097-.918 2.454-.523 3.663.76 2.913 3.089 5.684 9.152 5.475 9.516z"/><path fill="#B39155" d="M11.456 5.045c-1.292.498-1.379-.954-.764-1.773.867-1.155 3.366-1.697 4.665-1.06 1.297.637 1.728 2.432.86 3.587-.613.817-.652 2.054-1.083.26-.43-1.793-1.083.261-1.298-.636-.216-.897-2.38-.378-2.38-.378z"/><path fill="#F7DECE" d="M15.148 11.32c-.033.046-3.381 4.532-8.152 5.032l.002.02a1.027 1.027 0 0 0-.931.919 1.042 1.042 0 0 0 .941 1.135c.07.006.135-.014.203-.023l.003.021c5.678-.594 9.456-5.654 9.613-5.869l-1.679-1.235z"/><ellipse transform="rotate(-80.781 7 24.32)" fill="#FFAC33" cx="7" cy="24.32" rx="4" ry="4"/><path fill="#C1694F" d="M8.075 24.127c.849.786 1.747 1.413 2.586 1.793.135-.307.223-.636.277-.978-.697-.337-1.44-.862-2.156-1.521l1.448-1.448a4.01 4.01 0 0 0-.69-.724l-1.465 1.465c-.717-.779-1.286-1.595-1.615-2.343-.34.046-.669.121-.976.248.014.035.018.065.033.1.373.872 1.03 1.815 1.851 2.702l-1.442 1.442c-.883-.818-1.823-1.471-2.691-1.845-.111.322-.18.661-.206 1.014.706.336 1.462.868 2.189 1.538l-1.285 1.286c.214.258.453.492.724.69l1.268-1.268c.658.714 1.136 1.401 1.448 2.002a4.023 4.023 0 0 0 1.003-.22c-.396-.834-1.015-1.712-1.737-2.495l1.436-1.438z"/><path fill="#F7DECE" d="M17.255 5.459c-.262 2.342-2.251 3.358-4.247 4.134-1.904.741-3.484-2.589-3.74-4.915C9.01 2.336 11.747.549 13.875.788s3.642 2.33 3.38 4.671z"/><path fill="#292F33" d="M9.962 1.651c2.704-1.981 4.635-1.834 6.321-.68 1.674 1.146 1.929 3.534 1.603 5.091-.326 1.557-.776 1.507-.776 1.507s-2.07.636-2.373-1.306c-.096-.614.567-.999-.248-1.849-.525-.547-1.574-.176-1.516.665.058.841-.384.716-.384.716L11.158 3.66s-1.095.019-1.627 1.064c-.333.657-1.931-1.343.431-3.073z"/><path fill="#4289C1" d="M18.353 34.699h-1.977c-.185 0-.595-.158-.595-.35l.188-1.084c0-.193.096-.5.376-.5s.64.235.999.235.688-.522.96-.522c.211 0 .305.084.336.35l.193 1.521c0 .193-.295.35-.48.35zm14.494-8.875c.056-.379-.275-.638-.665-.677-.624-.062-.882-.058-.882-.058-.305.017-.949.186-1.003.546-.388 2.614.055 5.607.568 6.383.303.458 1.028.301 1.107-.237l.875-5.957z"/><path fill="#4289C1" d="M31.575 25.615l-.291 1.955c-.027.183-.243.565-.434.537l-1.044-.345c-.19-.028-.481-.169-.439-.446.041-.277.326-.599.379-.954.053-.355-.415-.757-.375-1.026.031-.209.128-.289.396-.281l1.533.033c.19.029.302.344.275.527z"/></svg>