<svg xmlns="http://www.w3.org/2000/svg" viewBox="0 0 45 45"><defs><clipPath id="a"><path d="M0 36h36V0H0v36z"/></clipPath><clipPath id="b"><path d="M3 11.679a4 4 0 1 1 8 0 4 4 0 0 1-8 0"/></clipPath><clipPath id="c"><path d="M0 36h36V0H0v36z"/></clipPath></defs><g clip-path="url(#a)" transform="matrix(1.25 0 0 -1.25 0 45)"><path d="M30.852 8.366c-.08 0-.163.01-.243.028l-7.476 1.668a1.08 1.08 0 0 0-.808.805l-1.216 5.066c-.07.283-.024.573.128.82s.39.421.673.487a1.08 1.08 0 0 0 1.307-.801l1.06-4.415 6.82-1.516a1.08 1.08 0 0 0 .676-.484 1.084 1.084 0 0 0-.921-1.658M11.318 31.526c-1.158-.564.52-2.167.44-3.483-.052-.91 1.721-.595 1.721-.595s1.16.564 1.425-1.455c.262-2.017 3.141-2.05 2.877-.03-.266 2.016-2.13 2.69-1.613 4.435 1.24 4.176-4.85 1.128-4.85 1.128" fill="#ffdc5d"/><path d="M27.516 20.686a1.045 1.045 0 0 0-1.043.342c-2.682 3.19-8.798 3.763-8.86 3.769a1.043 1.043 0 0 0 .18 2.076c.287-.024 7.035-.649 10.277-4.503a1.043 1.043 0 0 0-.554-1.684M17.47.7a1.086 1.086 0 0 0-1.135 1.03l-.448 8.575a1.09 1.09 0 0 0 .203.684l5.246 7.271a1.087 1.087 0 0 0 1.513.246 1.085 1.085 0 0 0 .246-1.513l-5.024-6.966.43-8.195a1.089 1.089 0 0 0-.98-1.13L17.47.7z" fill="#ffdc5d"/><path d="M15.28 11.575l5.246 7.271a2.084 2.084 0 0 0 3.38-2.439l-4.82-6.68s-4.082 1.466-3.806 1.848" fill="#a0041e"/><path d="M21.352 10.634L20.136 15.7a2.085 2.085 0 1 0 4.054.973l.915-3.814s-3.57-2.994-3.753-2.225" fill="#be1931"/><path d="M17.259 32.158a4.169 4.169 0 1 0-8.107-1.945 4.169 4.169 0 0 0 8.107 1.945" fill="#ffdc5d"/><path d="M21.375 31.538c-1.083-.083-2.14-.092-4.208 1.976-1.375 1.375-2.603 2.213-5.334 1.842-2.898-.393-5.018-3.17-3-4.17.881-.436 1.53-.094 2.881-.295 2.121-.315 2.706-2.455 4.619-2.711 3.744-.5 6.125 3.44 5.042 3.358M11 11.68a4 4 0 1 0-8 0 4 4 0 0 0 8 0" fill="#ffac33"/></g><g clip-path="url(#b)" transform="matrix(1.25 0 0 -1.25 0 45)"><path d="M6.712 17.283c-.188 0-.334-.042-.42-.126-.21-.21-.154-.794.143-1.485.376-.878 1.079-1.858 1.979-2.758.9-.9 1.88-1.604 2.758-1.98.69-.296 1.273-.352 1.485-.14.21.21.155.793-.142 1.484-.376.877-1.08 1.857-1.98 2.757-.9.9-1.88 1.603-2.757 1.98-.413.177-.787.268-1.066.268m5.523-7.615c-.424 0-.916.115-1.457.347-.992.425-2.083 1.204-3.071 2.192-.988.988-1.766 2.078-2.191 3.07-.487 1.136-.462 2.055.07 2.587.53.532 1.45.558 2.586.07.992-.425 2.082-1.204 3.07-2.192.989-.988 1.767-2.078 2.193-3.07.486-1.136.46-2.054-.071-2.586-.278-.279-.663-.418-1.13-.418M1.762 12.334c-.188 0-.334-.042-.419-.127-.21-.211-.155-.794.142-1.485.376-.877 1.08-1.857 1.98-2.757 1.942-1.943 3.808-2.552 4.242-2.122.432.432-.179 2.301-2.12 4.243-.902.9-1.88 1.603-2.759 1.979-.413.177-.787.269-1.066.269M7.3 4.718c-1.309 0-3.132 1.13-4.542 2.54-.988.988-1.766 2.078-2.192 3.07-.486 1.136-.46 2.054.071 2.586.532.532 1.45.559 2.586.07.992-.424 2.082-1.203 3.071-2.191 1.885-1.886 3.27-4.509 2.121-5.657-.29-.289-.673-.418-1.115-.418" fill="#c1694f"/><path d="M3.11 8.318l7.07 7.071.707-.707-7.07-7.07-.707.706z" fill="#c1694f"/></g><g clip-path="url(#c)" transform="matrix(1.25 0 0 -1.25 0 45)"><path d="M18.333.012c.383.001.591.366.572.758-.03.626-.072.88-.072.88-.062.3-.324.912-.687.912-2.643 0-5.538-.879-6.23-1.5-.41-.367-.147-1.06.396-1.06l6.021.01M25.208 17.219c-.208-.365-1.473.525-2.99-.281-2.156-1.146-3.338-.467-3.338-.467-3.487 5.595-6.243 8.149-2.809 11.024 1.097.918 2.454.523 3.663-.76 2.911-3.09 5.682-9.151 5.474-9.516" fill="#dd2e44"/><path d="M18.353 1.3h-1.977c-.185 0-.595.159-.595.35l.188 1.085c0 .192.096.5.376.5s.64-.235.999-.235.688.522.96.522c.212 0 .305-.084.337-.35l.192-1.521c0-.192-.295-.35-.48-.35M32.847 10.176c.056.379-.275.638-.665.677-.624.062-.882.058-.882.058-.305-.017-.95-.186-1.003-.546-.39-2.613.055-5.606.568-6.383.303-.458 1.028-.301 1.107.237l.875 5.957" fill="#dd2e44"/><path d="M31.575 10.385l-.29-1.955c-.028-.183-.244-.566-.434-.537l-1.045.345c-.19.028-.48.168-.439.445.041.277.326.599.38.954.052.355-.416.757-.376 1.027.031.208.128.289.396.28l1.532-.032c.191-.03.303-.344.276-.527" fill="#dd2e44"/><path d="M15.148 24.68c-.033-.046-3.381-4.532-8.152-5.032l.002-.02a1.027 1.027 0 0 1-.932-.92 1.04 1.04 0 0 1 .94-1.133c.072-.006.136.013.204.022l.003-.021c5.678.594 9.456 5.655 9.614 5.87l-1.68 1.234z" fill="#ffdc5d"/></g></svg>