<svg viewBox="0 0 36 36" xmlns="http://www.w3.org/2000/svg"><path d="M31.986 32.729a1.98 1.98 0 01-.987.271 2 2 0 112-2c0 .361-.104.695-.271.987l3.146 3.146L34.999 28l-9-7-5 5 7 9 7.134.876z" fill="#99aab5"/><path d="M13.643 5.308a2.946 2.946 0 010 4.167l-4.167 4.168a2.948 2.948 0 01-4.167 0L1.141 9.475a2.948 2.948 0 010-4.167l4.167-4.167a2.946 2.946 0 014.167 0z" fill="#66757f"/><path d="M26.643 18.309L9.44 1.105 1.107 9.44l17.202 17.202a2.949 2.949 0 004.168 0l4.166-4.168a2.945 2.945 0 000-4.165z" fill="#31373d"/><path d="M8.225 16.56l8.334-8.335 2.124 2.125-8.333 8.334z" fill="#66757f"/></svg>