<svg viewBox="0 0 36 36" xmlns="http://www.w3.org/2000/svg"><path d="M36 32a4 4 0 01-4 4H4a4 4 0 01-4-4V4a4 4 0 014-4h28a4 4 0 014 4z" fill="#9266cc"/><path d="M27.152 18l3.716-6.504A1 1 0 0030 10h-7.42l-3.712-6.496c-.355-.623-1.381-.623-1.736 0L13.42 10H6a1.001 1.001 0 00-.868 1.496L8.848 18l-3.716 6.504A1 1 0 006 26h7.42l3.712 6.496a.999.999 0 001.736 0L22.58 26H30a1 1 0 00.868-1.496zm1.124-6L26 15.984 23.723 12zm-3.428 6l-3.428 6h-6.84l-3.429-6 3.429-6h6.839zM18 6.016L20.277 10h-4.553zM7.723 12h4.554L10 15.985zm0 12L10 20.015 12.277 24zM18 29.984L15.723 26h4.553zM23.723 24L26 20.016 28.276 24z" fill="#fff"/></svg>