<svg viewBox="0 0 36 36" xmlns="http://www.w3.org/2000/svg"><path d="M36 32a4 4 0 01-4 4H4a4 4 0 01-4-4V4a4 4 0 014-4h28a4 4 0 014 4z" fill="#77b255"/><g fill="#fff"><circle cx="18" cy="18" r="3"/><path d="M20 4a2 2 0 00-4 0v8a2 2 0 004 0zm0 20a2 2 0 00-4 0v8a2 2 0 004 0zM4 16a2 2 0 000 4h8a2 2 0 000-4zm20 0a2 2 0 000 4h8a2 2 0 000-4zm-8.829-2.243a.999.999 0 11-1.414 1.414L6.272 7.687a1 1 0 111.415-1.415zm14.557 14.556a.998.998 0 010 1.414.998.998 0 01-1.414 0l-7.485-7.485a.999.999 0 111.414-1.414zm-15.971-7.485a.999.999 0 111.414 1.414l-7.485 7.486a1 1 0 11-1.415-1.415zM28.313 6.272a.998.998 0 011.414 0 .998.998 0 010 1.414l-7.485 7.485a.999.999 0 11-1.414-1.414z"/></g></svg>