<svg xmlns="http://www.w3.org/2000/svg" viewBox="0 0 36 36"><path fill="#dd2e44" d="M30.294 2.938a9.8 9.8 0 0 0-4.276-.972c-3.308 0-6.227 1.633-8.018 4.129-1.791-2.496-4.71-4.129-8.017-4.129-5.45 0-9.868 4.418-9.868 9.868 0 .772.098 1.52.266 2.241.06.371 1.578 2.584 1.578 2.584l.797 3.776C6.313 26.668 12.911 32.184 18 34.034c5.488-1.995 12.732-8.255 16.023-15.08z"/><path fill="#e6e7e8" d="m35.838 10.617-1.354-.834 1.006-.835a10 10 0 0 0-.264-.737l-1.3-.332.55-1.171a9.9 9.9 0 0 0-2.381-2.672l-2.031-.098L1.228 14.832l-.464 1.001a19.5 19.5 0 0 0 1.196 3.119l32.091.015a19.3 19.3 0 0 0 1.264-3.34l-.738-.818 1.098-.852a9.7 9.7 0 0 0 .246-2.123 10 10 0 0 0-.083-1.217"/><path fill="#d1d3d4" d="M35.489 8.947h-5.221l-4.434 1.67 10.003-.001a10 10 0 0 0-.348-1.669m-3.395-4.911a9.8 9.8 0 0 0-1.795-1.108L.388 14.19q.14.82.375 1.643z"/><path fill="#bcbec0" d="m15.525 15.628 19.789-.001c.14-.517.351-1.63.359-1.67l-15.712.001L35.226 8.21a10 10 0 0 0-.75-1.502L1.959 18.952q.36.75.781 1.491z"/></svg>