<svg viewBox="0 0 36 36" xmlns="http://www.w3.org/2000/svg"><path d="M30.294 2.938a9.83 9.83 0 00-4.276-.972c-3.308 0-6.227 1.633-8.018 4.129-1.791-2.496-4.71-4.129-8.017-4.129-5.45 0-9.868 4.418-9.868 9.868 0 .772.098 1.52.266 2.241.06.371 1.578 2.584 1.578 2.584l.797 3.776C6.313 26.668 12.911 32.184 18 34.034c5.488-1.995 12.732-8.255 16.023-15.08z" fill="#dd2e44"/><path d="M35.838 10.617l-1.354-.834 1.006-.835a9.768 9.768 0 00-.264-.737l-1.3-.332.55-1.171a9.923 9.923 0 00-2.381-2.672l-2.031-.098L1.228 14.832l-.464 1.001a19.466 19.466 0 001.196 3.119l32.091.015a19.273 19.273 0 001.264-3.34l-.738-.818 1.098-.852a9.71 9.71 0 00.246-2.123 10.164 10.164 0 00-.083-1.217z" fill="#e6e7e8"/><path d="M35.489 8.947h-5.221l-4.434 1.67 10.003-.001a9.809 9.809 0 00-.348-1.669zm-3.395-4.911a9.816 9.816 0 00-1.795-1.108L.388 14.19c.092.546.219 1.094.375 1.643z" fill="#d1d3d4"/><path d="M15.525 15.628l19.789-.001c.14-.517.351-1.63.359-1.67l-15.712.001L35.226 8.21a9.79 9.79 0 00-.75-1.502L1.959 18.952c.241.5.5.998.781 1.491z" fill="#bcbec0"/></svg>