<svg viewBox="0 0 36 36" xmlns="http://www.w3.org/2000/svg"><path d="M36 32a4 4 0 01-4 4H4a4 4 0 01-4-4V4a4 4 0 014-4h28a4 4 0 014 4z" fill="#3b88c3"/><path d="M10.769 24.132c-1.519 0-2.17-1.022-2.17-1.829 0-.682.248-1.055.434-1.364L15.979 8.35c.682-1.24 1.55-1.798 3.162-1.798 1.799 0 3.566 1.147 3.566 3.969v9.519h.527c1.209 0 2.17.807 2.17 2.047s-.961 2.046-2.17 2.046h-.527v2.636c0 1.644-.651 2.418-2.232 2.418s-2.233-.774-2.233-2.418v-2.636h-7.473zm7.473-12.743h-.062l-4.186 8.65h4.248z" fill="#fff"/></svg>